<svg xmlns="http://www.w3.org/2000/svg" viewBox="0 0 2800 1900"><g data-name="Layer 1" fill="#000000" class="color000 svgShape"><ellipse cx="1400" cy="1731.248" opacity=".15" rx="663" ry="104.698" fill="#000000" class="color000 svgShape"/><path fill="#f2b200" d="M1442.523 1717.71s44.37-35.59 112.634 5.274 69.4-39.547 69.4-39.547 9.102 60.638-36.407 80.41-167.244 1.32-167.244 1.32Z" class="colorf2b200 svgShape"/><path d="M1420.905 1765.174s121.72 18.467 167.23-1.312c45.508-19.779 36.407-80.428 36.407-80.428s-.608 43.636-28.237 50.244a.042.042 0 0 0-.04.047c-23.018 30.231-117.433 23.294-118.485 6.374-.688-11.249 18.083-25.45 32.847-34.777-42.393-8.249-68.12 12.374-68.12 12.374Z" style="mix-blend-mode:soft-light" opacity=".43" fill="#000000" class="color000 svgShape"/><path fill="#f2b200" d="M1330.836 1717.71s-44.371-35.59-112.634 5.274-69.401-39.547-69.401-39.547-9.102 60.638 36.407 80.41 167.244 1.32 167.244 1.32Z" class="colorf2b200 svgShape"/><path d="M1352.454 1765.174s-121.721 18.467-167.23-1.312c-45.509-19.779-36.407-80.428-36.407-80.428s.607 43.636 28.236 50.244a.042.042 0 0 1 .04.047c23.018 30.231 117.433 23.294 118.486 6.374.687-11.249-18.083-25.45-32.848-34.777 42.394-8.249 68.12 12.374 68.12 12.374Z" style="mix-blend-mode:soft-light" opacity=".43" fill="#000000" class="color000 svgShape"/><circle cx="1957.997" cy="418.85" r="47.935" fill="#e5a310" class="colore5a310 svgShape"/><circle cx="1744.518" cy="1003.501" r="47.935" fill="#e5a310" transform="rotate(-76.717 1744.517 1003.501)" class="colore5a310 svgShape"/><path fill="#bc9b7a" d="M1543.25 949.76s185.754 775.002-121.596 797.546-255.46-298.4-247.932-487.538 11.02-367.491 11.02-367.491Z" class="colorbc9b7a svgShape"/><path d="M1171.246 1537.027c3.119 24.077 7.863 47.213 14.81 68.81 51.027-2.167 133.732-35.12 165.902-214.987 0 0 3.703 225.713-100.642 315.636 38.283 30.346 92.917 46.468 170.354 40.81 51.745-3.785 89.522-28.931 116.54-68.13-30.029-51.992-60.299-155.606-61.622-362.133 0 0 30.384 161.066 91.615 213.553 0 0-75.037-124.236-92.087-358.8 0 0 29.96 153.45 122.602 204.218-.555-37.279-2.705-74.893-5.865-111.524-42.824-13.351-97.75-52.794-116.971-164.487 0 0 27.538 53.873 102.894 42.69-15.925-111.15-35.519-192.924-35.519-192.924l-358.51-57.478s-3.509 178.327-11.037 367.477c-2.243 55.97-8.321 123.486-7.85 190.214 58.21-8.02 136.333-47.512 199.271-182.07 0 0-17.24 251.996-193.885 269.125Z" style="mix-blend-mode:soft-light" opacity=".25" fill="#000000" class="color000 svgShape"/><path fill="#dbc6af" d="m1454.044 1064.954 18.523 686.974s-21.233 44.355-108.811 33.868l-.082-25.135-20.37-3.525 55.004-719.13Z" class="colordbc6af svgShape"/><path d="m1345.804 1757.545 65.054-619.039-31.949 648.593a162.83 162.83 0 0 0 36.442-1.778l22.605-661.287 16.545 646.52c13.543-9.151 18.073-18.614 18.073-18.614l-18.523-686.986-55.754-26.927-54.992 719.1Z" style="mix-blend-mode:soft-light" opacity=".25" fill="#000000" class="color000 svgShape"/><path fill="#a88e76" d="M1426.982 1090.577c-.099 28.294-.7 56.572-1.036 84.858l-1.856 84.83c-1.248 56.552-3.112 113.084-4.978 169.615-2.053 56.525-4.122 113.049-6.798 169.552l-4.042 84.754c-1.635 28.24-2.999 56.491-4.87 84.724.092-28.294.693-56.572 1.024-84.858l1.853-84.83c1.255-56.552 3.116-113.084 4.993-169.614 2.063-56.525 4.13-113.05 6.812-169.552l4.04-84.754c1.628-28.241 2.992-56.492 4.858-84.725Z" class="colora88e76 svgShape"/><path fill="#dbc6af" d="M1612.937 522.394s-62.391 360.654-83.682 486.973c-21.318 126.29-147.609 251.072-275.464 270.854-127.827 19.782-80.636-6.063-83.681-24.336-3.046-18.273-45.655-21.32-45.655-21.32l41.072-276.944a.027.027 0 0 1-.028-.028c-.055-.028-.195-.112-.447-.251-4.638-2.822-42.692-26.376-74.07-60.603-33.5-36.518-38.054-219.136-10.673-299.772 18.022-53.003 85.945-104.693 130.426-133.89 23.218-15.256 40.038-24.392 40.038-24.392l89.773 1.536 113.55 34.255 30.399 9.165Z" class="colordbc6af svgShape"/><path d="m1484.48 483.623-30.39-9.14-113.548-34.255-89.761-1.563s-16.835 9.14-40.037 24.413c-44.49 29.178-112.415 80.894-130.422 133.898-27.382 80.621-22.85 263.229 10.663 299.75 31.365 34.255 69.41 57.809 74.058 60.621.274.117.391.235.47.235v.039l-18.984 128.04c20.467-17.5 55.856-52.77 80.777-88.55 0 0-11.875 177.138-61.95 250.572a14.414 14.414 0 0 1 4.765 8.203c1.407 8.515-8.085 18.67-5.663 25.077 16.756-26.093 62.652-106.557 93.588-245.417 0 0 1.133 128.548-50.505 218.62 0 0 116.673-93.744 162.14-250.65l136.672 6.758s-48.787 227.605-292.914 275.336c10.976-1.132 24.296-2.89 40.35-5.39 127.844-19.764 254.165-144.562 275.453-270.844 21.288-126.322 83.707-486.966 83.707-486.966Zm-100.073 420.094-23.085-15.39s76.48-56.793 121.556-222.721c-4.102 13.67-41.639 125.11-194.052 193.075l-28.553-16.484s68.004-46.091 85.62-71.363c-1.992 1.172-65.387 38.436-104.291 41.717 0 0-11.523-42.263-22.89-108.783 12.344-5.703 24.179-11.914 35.545-18.515 21.991 41.873 54.997 71.676 104.409 70.738 94.213-1.836 121.868-68.043 127.922-145.109a458.525 458.525 0 0 0 26.327-7.07s-23.046 181.28-128.508 299.905Z" style="mix-blend-mode:soft-light" opacity=".25" fill="#000000" class="color000 svgShape"/><path fill="#d39363" d="M1430.71 990.48a264.231 264.231 0 0 1-24.728 11.26s-110.001 21.43-228.943-38.14q-5.742-2.85-11.512-5.979a.027.027 0 0 1-.028-.028c-.056-.028-.195-.112-.447-.251-4.638-2.822-42.693-26.376-74.07-60.603-14.836-16.178-24-61.078-27.214-113.075a722.328 722.328 0 0 1-.53-77.087c1.983-41.883 7.627-81.81 17.071-109.61 18.022-53.003 85.945-104.693 130.426-133.89 23.218-15.256 40.038-24.392 40.038-24.392l89.773 1.536 113.55 34.255c-29.645 54.204-93.126 148.978-199.858 210.782a441.663 441.663 0 0 1-41.52 21.263l-5.727 66.722-3.409 39.815s18.776 19.614 49.147 43.363c39.927 31.181 99.97 69.516 163.899 79.881a178.846 178.846 0 0 1 25.76 5.84c42.721 13.746 13.328 35.26-11.678 48.337Z" class="colord39363 svgShape"/><path d="M1454.09 474.484c-20.038 36.677-55.583 91.908-109.525 142.882a266.336 266.336 0 0 1-126.83-59.45 293.185 293.185 0 0 1-54.215-60.778c16.523-13.202 33.084-24.764 47.224-34.06 23.202-15.273 40.037-24.413 40.037-24.413l89.76 1.563ZM1430.693 990.47a259.008 259.008 0 0 1-24.725 11.25s-109.994 21.444-228.933-38.123c-3.828-1.914-7.656-3.867-11.523-5.976v-.04c-.078 0-.195-.117-.469-.234-4.648-2.812-42.692-26.366-74.058-60.622a47.753 47.753 0 0 1-6.992-10.467c46.482-9.14 62.38-65.544 65.348-126.673a584.267 584.267 0 0 0-1.406-72.848 845.317 845.317 0 0 0-12.89-96.127s69.176 24.178 81.285 98.9c.781 4.883 1.562 9.61 2.382 14.258-1.992.937-3.984 1.835-5.976 2.734l-5.742 66.754-3.398 39.802s-63.082 13.75-36.717 79.684c3.125 7.812 8.75 14.764 16.288 20.975 56.013 46.638 216.63 52.614 216.63 52.614l3.866-32.537c4.297.976 8.632 1.797 12.968 2.5a180.08 180.08 0 0 1 25.74 5.86c42.733 13.748 13.36 35.232-11.678 48.316Z" style="mix-blend-mode:soft-light" opacity=".25" fill="#000000" class="color000 svgShape"/><path fill="#e8be0f" d="M1358.68 755.975c-49.427.95-82.425-28.834-104.442-70.717-36.406-69.236-42.749-171.47-43.503-222.182 23.218-15.255 40.038-24.392 40.038-24.392l89.773 1.537 113.55 34.255 30.399 9.164c6.426 112.684 19.865 269.485-125.816 272.335Z" class="colore8be0f svgShape"/><path d="M1486.588 610.882c-54.84 13.046-101.908 13.593-142.023 6.484a266.336 266.336 0 0 1-126.83-59.45 786.657 786.657 0 0 1-6.99-94.838c23.201-15.273 40.036-24.413 40.036-24.413l89.76 1.563 113.549 34.256 30.39 9.14c2.265 39.841 5.428 85.15 2.108 127.258Z" style="mix-blend-mode:soft-light" opacity=".25" fill="#000000" class="color000 svgShape"/><path fill="#e8be0f" d="m1212.719 706.52-5.7 66.723h-.028c-1.9-.979-73.819-36.519-143.223 10.421a722.328 722.328 0 0 1-.53-77.088c21.57-16.037 69.85-37.663 149.48-.055ZM1442.389 942.142c-.112 8.438-.42 15.507-.42 18.916 0 3.604-4.805 15.311-11.26 29.421a264.231 264.231 0 0 1-24.727 11.26s-110.001 21.43-228.943-38.139c-8.997-71.75 50.516-98.965 75.69-107.179 39.927 31.181 99.97 69.515 163.898 79.881a178.846 178.846 0 0 1 25.762 5.84Z" class="colore8be0f svgShape"/><path d="m1212.736 706.502-5.703 66.754h-.039c-1.093-.547-24.686-12.265-57.653-13.671a584.267 584.267 0 0 0-1.406-72.848c18.71 2.266 40.271 8.203 64.801 19.765ZM1442.372 942.153c-.078 8.437-.39 15.507-.39 18.905 0 3.594-4.805 15.312-11.29 29.412a259.008 259.008 0 0 1-24.724 11.25s-109.994 21.444-228.933-38.123c-2.5-19.882.273-36.326 6.132-49.88 56.013 46.638 216.63 52.614 216.63 52.614l3.866-32.537c4.297.976 8.632 1.797 12.968 2.5a180.08 180.08 0 0 1 25.74 5.86Z" style="mix-blend-mode:soft-light" opacity=".25" fill="#000000" class="color000 svgShape"/><path fill="#b73b3b" d="M1600.769 431.081s-95.872 410.88-252.615 547.84l7.609 19.782 330.225 6.088s203.918-202.397 232.832-570.666l-313.486-22.827Z" class="colorb73b3b svgShape"/><path d="m1653.532 526.902-64.45 417.477s73.317 11.171 141.048 7.656c-26.093 34.842-44.139 52.77-44.139 52.77l-330.216-6.093-7.617-19.804c156.75-136.945 252.604-547.82 252.604-547.82l4.57-19.804 313.498 22.85q-1.758 22.03-4.297 43.318Z" style="mix-blend-mode:soft-light" opacity=".25" fill="#000000" class="color000 svgShape"/><path fill="#e8be0f" d="M1583.335 389.993h373.082a5.774 5.774 0 0 1 5.773 5.774v40.954a5.774 5.774 0 0 1-5.774 5.774h-373.08a5.774 5.774 0 0 1-5.774-5.774v-40.954a5.774 5.774 0 0 1 5.773-5.774Z" class="colore8be0f svgShape"/><path d="M1962.187 416.244a26.272 26.272 0 0 1-26.248 26.249h-332.13a26.255 26.255 0 0 1-26.249-26.249 25.638 25.638 0 0 1 4.023-13.905 26.121 26.121 0 0 0 22.225 12.343h332.13a26.159 26.159 0 0 0 18.554-7.695 24.659 24.659 0 0 0 3.672-4.648 25.635 25.635 0 0 1 4.023 13.905Z" style="mix-blend-mode:soft-light" opacity=".25" fill="#000000" class="color000 svgShape"/><path fill="#e8be0f" d="M1324.003 970.931h422.66a6.014 6.014 0 0 1 6.014 6.014v55.31a6.014 6.014 0 0 1-6.015 6.014h-422.66a6.014 6.014 0 0 1-6.014-6.014v-55.31a6.014 6.014 0 0 1 6.014-6.014Z" class="colore8be0f svgShape"/><path d="M1752.667 998.282v12.656a27.347 27.347 0 0 1-27.342 27.342h-379.979a27.347 27.347 0 0 1-27.342-27.342v-12.656a26.846 26.846 0 0 1 2.11-10.507 27.29 27.29 0 0 0 25.232 16.796h379.98a27.29 27.29 0 0 0 25.232-16.796 26.844 26.844 0 0 1 2.11 10.507Z" style="mix-blend-mode:soft-light" opacity=".25" fill="#000000" class="color000 svgShape"/><circle cx="1321.745" cy="1003.501" r="47.935" fill="#ffcf06" transform="rotate(-45 1321.745 1003.501)" class="colorffcf06 svgShape"/><path d="M1321.754 955.55a47.947 47.947 0 1 0 47.927 47.967 47.943 47.943 0 0 0-47.928-47.966Zm-7.344 71.09a33.377 33.377 0 1 1 33.397-33.396 33.373 33.373 0 0 1-33.397 33.396Z" style="mix-blend-mode:soft-light" opacity=".25" fill="#000000" class="color000 svgShape"/><path fill="#21201f" d="M1235.315 334.598s-86.254 30.76-73.309 108.463 81.335 60.511 100.249 50.145-26.94-158.608-26.94-158.608Z" class="color21201f svgShape"/><path fill="#d39363" d="M1230.293 390.74c-14.04 5.545-28.284-.942-40-13.315-22.992-24.194-36.305-70.873-19.5-93.44 6.604-8.835 13.79-11.866 20.853-11.485 20.13 1.093 39.07 29.902 39.07 29.902s41.122 71.919-.423 88.338Z" class="colord39363 svgShape"/><path d="M1230.293 390.74c-14.04 5.545-28.284-.942-40-13.315 13.213 3.887 20.686-.174 13.932-11.698-8.853-15.088-33.882-45.317-29.391-60.658 4.471-15.368 26.071 6.102 26.071 6.102 3.355-18.875-2.806-31.247-9.26-38.67 20.13 1.092 39.07 29.901 39.07 29.901s41.123 71.919-.422 88.338Z" style="mix-blend-mode:soft-light" opacity=".45" fill="#000000" class="color000 svgShape"/><path fill="#a5663c" d="M1225.82 354.712c-6.412-12.084-11.928-23.757-19.356-33.906a74.657 74.657 0 0 0-12.483-13.631 61.889 61.889 0 0 0-16.971-9.003 32.642 32.642 0 0 1 20.649 3.283 48.09 48.09 0 0 1 15.867 14.25 64.521 64.521 0 0 1 9.24 18.693 59.082 59.082 0 0 1 3.054 20.314Z" class="colora5663c svgShape"/><path fill="#d39363" d="M1540.788 420.179c13.435 3.187 25.485-4.545 34.478-17.278 17.657-24.907 23.616-68.908 5.456-87.146-7.134-7.136-14.036-8.943-20.38-7.675-18.083 3.617-31.47 32.174-31.47 32.174s-27.842 70.483 11.916 79.925Z" class="colord39363 svgShape"/><path d="M1540.788 420.179c13.435 3.187 25.485-4.545 34.478-17.278-11.456 5.245-18.752 2.543-14.142-8.772 6.046-14.817 24.76-45.453 18.691-58.757-6.054-13.33-22.808 8.929-22.808 8.929-5.501-16.651-1.539-28.657 3.335-36.221-18.083 3.617-31.47 32.174-31.47 32.174s-27.842 70.483 11.916 79.925Z" style="mix-blend-mode:soft-light" opacity=".45" fill="#000000" class="color000 svgShape"/><path fill="#a5663c" d="M1540.135 386.976a54.045 54.045 0 0 1 .112-18.792 59.966 59.966 0 0 1 5.926-18.13c3.096-5.664 7.113-11.063 12.505-14.974a29.858 29.858 0 0 1 18.267-5.668 56.61 56.61 0 0 0-14.19 10.367 66.631 66.631 0 0 0-9.524 13.97 126.892 126.892 0 0 0-6.992 16.014Z" class="colora5663c svgShape"/><path fill="#2d2c2a" d="M1584.8 175.2s-4.202 27.217-10.148 63.113c-9.484 57.967-23.441 138.664-31.194 164.245a4.691 4.691 0 0 1-.153.6s-8.57 200.468-137.565 198.8c-25.46-.333-48.684-4.479-69.41-11.81a176.207 176.207 0 0 1-52.263-28.768 166.356 166.356 0 0 1-28.352-28.932 174.796 174.796 0 0 1-28.808-57.003c-7.961-26.76-10.05-56.11-5.695-86.314 16.019-111.45-23.637-131.538 6.207-233.056 7.35-24.972 23.254-44.044 43.973-58.117a172.945 172.945 0 0 1 43.74-20.96 250.132 250.132 0 0 1 38.56-9.165c34.446-5.509 69.975-4.668 98.686.415a192.453 192.453 0 0 1 24.382 5.837 117.197 117.197 0 0 1 13.794 5.21c26.769 12.221 47.245 26.697 62.153 41.422 19.691 19.362 29.749 39.135 32.093 54.483Z" class="color2d2c2a svgShape"/><path fill="#d39363" d="M1574.652 238.313c-9.484 57.967-23.441 138.664-31.194 164.245-13.687 9.567-30.919 17.026-30.919 17.026a102.158 102.158 0 0 0-27.937-21.742 37.698 37.698 0 0 1-24.298 8.077c-19.888-.221-35.793-15.766-37.136-18.802-.624-1.404-2.02-3.667-3.165-5.967a283.028 283.028 0 0 0-12.69-.746c-60.753-2.184-79.486 33.569-79.486 33.569-14.245-4.713-50.872-47.132-55.196-61.563-4.294-14.457.557-83.602 7.667-110.311 7.082-26.71 57.177-93.394 82.316-96.832 25.141-3.437 43.546 13.281 87.61 33.844 44.088 20.62 66.868-15.434 93.528 2.332 17.615 11.721 26.733 39.396 30.9 56.87Z" class="colord39363 svgShape"/><path d="M1510.317 417.208c10.466-9.153 21.838-18.159 35.76-24.35-.929 3.767-1.795 7.037-2.62 9.7-13.686 9.567-30.918 17.026-30.918 17.026a93.836 93.836 0 0 0-2.222-2.376ZM1574.652 238.313q-.572 3.416-1.149 6.915c-11.108-15.071-32.967-37.971-67.361-45.95-53.026-12.276-125.16-18.862-147.345-3.254-22.161 15.638-47.925 82.547-39.9 135.434a117.47 117.47 0 0 0 29.45 62.543c-14.946 9.312-20.52 19.972-20.52 19.972-14.245-4.713-50.872-47.131-55.196-61.563-4.293-14.457.557-83.602 7.667-110.311 7.082-26.71 57.177-93.394 82.316-96.832 25.142-3.437 43.546 13.281 87.61 33.844 44.088 20.62 66.868-15.434 93.528 2.332 17.615 11.721 26.733 39.396 30.9 56.87Z" style="mix-blend-mode:soft-light" opacity=".25" fill="#000000" class="color000 svgShape"/><path fill="#100e14" d="M1467.282 433.098c-5.226 13.011-26.854 57.219-72.09 35.495-28.697-13.77-33.31-37.683-31.596-56.64a89.316 89.316 0 0 1 2.745-15.103c11.598 15.144 38.067 32.71 98.382 36.126.842.059 1.686.09 2.559.122Z" class="color100e14 svgShape"/><path fill="#ffffff" d="M1464.723 432.976c-.798 4.516-4.776 8.725-13.068 12.436-44.796 20.015-77.155-17.883-88.06-33.458a89.316 89.316 0 0 1 2.746-15.104c11.598 15.144 38.067 32.71 98.382 36.126Z" class="colorfff svgShape"/><path fill="#161616" d="M1369.558 394.386c6.857 9.38 16.986 16.486 27.949 21.689a157.773 157.773 0 0 0 35.095 11.223 291.443 291.443 0 0 0 36.998 4.896c12.452.884 24.97 1.094 37.487.915-12.49.854-25.021 1.321-37.576 1.109a294.338 294.338 0 0 1-37.621-2.931 162.68 162.68 0 0 1-36.84-9.653c-11.83-4.877-23.335-11.849-31.926-22.32Z" class="color161616 svgShape"/><ellipse cx="1387.493" cy="307.215" rx="41.29" ry="24.561" transform="rotate(-88.674 1387.496 307.215)" style="mix-blend-mode:soft-light" opacity=".45" fill="#000000" class="color000 svgShape"/><ellipse cx="1387.384" cy="317.671" fill="#1b1723" rx="27.307" ry="16.244" transform="rotate(-88.674 1387.384 317.671)" class="color1b1723 svgShape"/><path fill="#ffffff" d="M1385.41 307.968c-.049 4.732-2.372 8.597-5.188 8.633s-5.06-3.771-5.01-8.503 2.372-8.597 5.188-8.633 5.06 3.77 5.01 8.503ZM1388.742 319.009c-.025 2.396-1.202 4.353-2.628 4.372s-2.562-1.91-2.537-4.306 1.201-4.353 2.628-4.372 2.562 1.91 2.537 4.306Z" class="colorfff svgShape"/><ellipse cx="1505.233" cy="315.45" rx="35.788" ry="21.326" transform="rotate(-81.696 1505.233 315.45)" style="mix-blend-mode:soft-light" opacity=".45" fill="#000000" class="color000 svgShape"/><path fill="#1b1723" d="M1517.57 327.232c-2.152 12.889-10.09 22.063-17.728 20.492s-12.085-13.293-9.932-26.181 10.09-22.063 17.729-20.492 12.085 13.293 9.932 26.181Z" class="color1b1723 svgShape"/><ellipse cx="1499.024" cy="314.815" fill="#ffffff" rx="7.428" ry="4.426" transform="rotate(-81.696 1499.024 314.815)" class="colorfff svgShape"/><path fill="#ffffff" d="M1504.715 325.786c-.342 2.048-1.604 3.506-2.818 3.257s-1.92-2.113-1.578-4.16 1.604-3.507 2.817-3.257 1.92 2.112 1.579 4.16Z" class="colorfff svgShape"/><path fill="#2d2c2a" d="M1423.967 232.177a226.213 226.213 0 0 1-42.014 13.594 198.05 198.05 0 0 1-6.588 1.383 38.401 38.401 0 0 1-12.08.412 18.084 18.084 0 0 1-2.144-.32 35.737 35.737 0 0 1-8.567-2.618 30.999 30.999 0 0 1-2.614-1.232 46.28 46.28 0 0 1 1.924-10.112c2.17-7.27 6.796-16.959 16.583-23.637a36.594 36.594 0 0 1 3.441-2.105 42.811 42.811 0 0 1 9.636-3.811 30.683 30.683 0 0 1 11.586-1.005c21.845 2.333 30.837 29.451 30.837 29.451Z" class="color2d2c2a svgShape"/><path fill="#525254" d="M1361.141 247.246a35.737 35.737 0 0 1-8.567-2.618 91.663 91.663 0 0 1-.69-11.344c2.17-7.27 6.796-16.959 16.582-23.637-4.785 10.46-8.638 23.82-7.325 37.599Z" class="color525254 svgShape"/><path fill="#525254" d="M1393.13 202.726a184.354 184.354 0 0 0-11.177 43.045 198.05 198.05 0 0 1-6.588 1.383 38.401 38.401 0 0 1-12.08.412c.017-11.257 1.746-26.127 8.623-40.024a42.811 42.811 0 0 1 9.636-3.811 30.683 30.683 0 0 1 11.586-1.005Z" class="color525254 svgShape"/><path fill="#2d2c2a" d="M1492.29 236.493a239.607 239.607 0 0 0 31.494 29.602 206.44 206.44 0 0 0 5.193 3.998 38.663 38.663 0 0 0 10.248 5.505 17.381 17.381 0 0 0 1.952.639 33.032 33.032 0 0 0 8.259 1.401c.883.065 1.782.078 2.667.056a43.338 43.338 0 0 0 1.792-9.515 44.59 44.59 0 0 0-6.205-27.396 39.474 39.474 0 0 0-2.242-3.278 45.69 45.69 0 0 0-6.987-7.385 31.222 31.222 0 0 0-9.62-5.804c-19.579-7.308-36.552 12.177-36.552 12.177Z" class="color2d2c2a svgShape"/><path fill="#525254" d="M1541.177 276.237a33.032 33.032 0 0 0 8.259 1.401 80.723 80.723 0 0 0 4.459-9.46 44.59 44.59 0 0 0-6.205-27.395c.55 11.035-.689 24.165-6.513 35.454Z" class="color525254 svgShape"/><path fill="#525254" d="M1528.841 224.316a176.871 176.871 0 0 1-5.057 41.78 206.44 206.44 0 0 0 5.193 3.997 38.663 38.663 0 0 0 10.248 5.505c3.82-9.687 7.4-23.21 6.223-38.093a45.69 45.69 0 0 0-6.987-7.385 31.222 31.222 0 0 0-9.62-5.804Z" class="color525254 svgShape"/><path fill="#eaaa7f" d="M1461.466 357.452s-17.87.96-22.465 11.67 46.794 27.922 56.768 16.288-22.194-30.4-34.303-27.958Z" class="coloreaaa7f svgShape"/><path fill="#b25734" d="M1464.318 338.437c-.139 6.46-.54 12.88-.99 19.294l-1.82-2.162a60.85 60.85 0 0 1 19.117 2.469c6.178 1.937 12.748 5.355 16.765 11.85a22.232 22.232 0 0 1 2.906 10.672 21.331 21.331 0 0 1-2.334 10.832c-3.422 6.722-9.397 11.064-15.517 13.879a49.841 49.841 0 0 1-38.85.537 42.592 42.592 0 0 1-15.798-11.322 43.676 43.676 0 0 1-8.96-16.59c6.19 10.808 15.684 19.003 26.815 22.26a47.862 47.862 0 0 0 33.378-2.236c4.943-2.44 9.383-5.909 11.72-10.236a13.252 13.252 0 0 0 1.608-7.032 15.11 15.11 0 0 0-1.457-7.094c-2.347-4.255-7.03-7.588-12.332-9.821a69.445 69.445 0 0 0-17.144-4.402l-2.259-.278.437-1.885c1.452-6.263 2.952-12.519 4.715-18.735Z" class="colorb25734 svgShape"/><path fill="#525254" d="M1397.985 496.234s-46.049 36.54-61.654 93.914a176.207 176.207 0 0 1-52.264-28.768c21.389-30.848 56.22-66.173 104.852-69.693 0 0-75.364-17.582-133.204 40.76a174.796 174.796 0 0 1-28.808-57.001c41.147-17.617 109.1-32.282 171.078 20.788Z" class="color525254 svgShape"/><path fill="#161616" d="M1385.535 488.257c9.045 2.34 16.968 4.19 25.12 4.64a77.906 77.906 0 0 0 12.27-.094c4.224-.175 8.398-1.028 13.178-1.419a29.485 29.485 0 0 1-11.8 7.64 33.963 33.963 0 0 1-14.189 1.956 35.69 35.69 0 0 1-13.791-3.705 28.16 28.16 0 0 1-10.788-9.018Z" class="color161616 svgShape"/><path fill="#525254" d="M1524.176 175.552c8.03-39.914-18.087-75.408-47.416-101.467a117.197 117.197 0 0 1 13.794 5.21c26.769 12.222 47.245 26.697 62.153 41.423 6.352 36.28-28.531 54.834-28.531 54.834Z" class="color525254 svgShape"/><path fill="#525254" d="M1427.467 96.242c1.33 1.23 44.073 41.133 49.005 80.674 0 0-89.512-24.482-122.78-109.083 34.446-5.509 69.975-4.668 98.686.415 30.668 22.377 58.596 57.387 56 110.116 0 0-22.278-49.94-80.91-82.122ZM1384.128 135.33c-56.444 5.28-91.946-16.24-112.736-37.371a172.945 172.945 0 0 1 43.74-20.962c26.653 36.975 68.995 58.334 68.995 58.334Z" class="color525254 svgShape"/><ellipse cx="1465.779" cy="234.99" fill="#e5cba1" rx="16.875" ry="9.736" transform="rotate(-86.01 1465.779 234.99)" class="colore5cba1 svgShape"/><circle cx="1562.207" cy="418.85" r="47.935" fill="#ffcf06" class="colorffcf06 svgShape"/><path d="M1562.209 370.896a47.946 47.946 0 1 0 47.927 47.966 47.943 47.943 0 0 0-47.927-47.966Zm-6.054 71.206a32.596 32.596 0 1 1 32.576-32.576 32.607 32.607 0 0 1-32.576 32.576Z" style="mix-blend-mode:soft-light" opacity=".25" fill="#000000" class="color000 svgShape"/><path fill="#d39363" d="M1774.721 352.157c9.51 1.258 21.689 7.647 20.004 24.934-1.593 16.087-3.598 25.45-10.831 29.643-7.39 4.337-17.025 2.508-22.766-3.815a4.55 4.55 0 0 1-.574-.63c-8.611-10.332-10.222-27.203-10.222-27.203a22.241 22.241 0 0 1 16.511-22.795 21.964 21.964 0 0 1 7.878-.134Z" class="colord39363 svgShape"/><path fill="#d39363" d="M1815.61 357.507c7.819 2.01 16.172 8.038 14.84 21.688-1.4 14.325-3.21 22.68-9.633 26.458a16.297 16.297 0 0 1-17.142-.737 15.743 15.743 0 0 1-3.695-3.255c-7.68-9.237-9.111-24.254-9.111-24.254a19.82 19.82 0 0 1 14.743-20.352 22.72 22.72 0 0 1 9.998.452Z" class="colord39363 svgShape"/><path fill="#d39363" d="M1844.001 363.536c6.493 1.348 13.848 6.125 12.69 17.598-1.124 11.513-2.559 18.265-7.742 21.27a12.967 12.967 0 0 1-12.255.313 13.927 13.927 0 0 1-4.511-3.519c-6.182-7.397-7.33-19.502-7.33-19.502a15.932 15.932 0 0 1 11.85-16.377 17.14 17.14 0 0 1 7.298.217ZM1740.589 351.481c8.204 2.668 16.331 9.514 14.93 23.839-1.592 16.086-3.597 25.45-10.83 29.643a18.322 18.322 0 0 1-19.687-1.115 17.875 17.875 0 0 1-3.653-3.33c-8.611-10.332-10.222-27.204-10.222-27.204a22.28 22.28 0 0 1 16.51-22.795 26.511 26.511 0 0 1 12.952.962Z" class="colord39363 svgShape"/><path d="M1844.001 363.536c6.493 1.348 13.848 6.125 12.69 17.598-1.124 11.513-2.559 18.265-7.742 21.27a12.967 12.967 0 0 1-12.255.313c6.14-3.339 15.652-12.966 7.307-39.181ZM1815.61 357.507c7.819 2.01 16.172 8.038 14.84 21.688-1.4 14.325-3.21 22.68-9.633 26.458a16.297 16.297 0 0 1-17.142-.737c7.11-2.315 19.088-11.492 11.935-47.409ZM1774.721 352.157c9.51 1.258 21.689 7.647 20.004 24.934-1.593 16.087-3.598 25.45-10.831 29.643-7.39 4.337-17.025 2.508-22.766-3.815 5.174.535 16.69-.941 16.884-23.57.092-12.877-1.475-21.536-3.291-27.192ZM1740.589 351.481c8.204 2.668 16.331 9.514 14.93 23.839-1.592 16.086-3.597 25.45-10.83 29.643a18.322 18.322 0 0 1-19.687-1.115c8.792-3.671 21.823-15.324 15.587-52.367Z" style="mix-blend-mode:soft-light" opacity=".5" fill="#000000" class="color000 svgShape"/></g></svg>