<svg xmlns="http://www.w3.org/2000/svg" viewBox="0 0 2800 1900"><g data-name="Layer 1" fill="#000000" class="color000 svgShape"><ellipse cx="1450.389" cy="1750.738" opacity=".15" rx="864.611" ry="87.061" fill="#000000" class="color000 svgShape"/><path fill="#212021" d="M1321.892 550.772a54.331 54.331 0 0 1-16.166 25.605c10.087 57.634-38.132 53.165-61.207 64.564-23.364 11.592-55.658 5.834-55.658 5.834s-20.932 13.556-78.263 17.265c-57.363 3.716-63.632-65.702-63.632-65.702-13.2-.676-22.226-5.046-28.278-11.302 44.99.293 57.337-30.851 37.71-41.737-16.213-8.964-37.443-8.37-48.1-7.337.764-4.823 1.567-7.902 1.567-7.902s-10.067-.546-17.171-28.167c-.119-.404-.213-.847-.3-1.258 14.631 22.886 40.98 13.835 50.482-7.02 6.958-15.225-11.312-31.72-24.938-41.43 3.078-2.637 5.142-4.131 5.142-4.131-.243-1.304-.48-2.576-.614-3.837 9.387 2.177 23.07 3.876 23.884-4.297.861-8.58-12.227-17.312-20.335-21.877a33.642 33.642 0 0 1 17.24-15.848s129.967-24.445 177.1-19.019c1.514-7.527 7.652-38.182 8.624-38.587 1.06-.456 18.287 8.459 18.347 9.835s-2.862 29.73-2.862 29.73.083 3.983.161 7.008a37.8 37.8 0 0 1 5.155 3.735c-3.728 7.533-6.673 16.884-3.896 24.693 2.49 7.076 8.554 4.8 14.52.033a22 22 0 0 1-.528 4.376 76.064 76.064 0 0 1 8.094 3.41c-3.665 6.892-7.11 20.283-5.16 46.516 2.706 36.981 21.874 4.79 33.097-15.901a49.3 49.3 0 0 1 1.013 24.612 123.115 123.115 0 0 1 8.68 9.766c-14.985 8.86-31.747 23.218-34.585 43.224-3.646 26.03 24.53 22.179 50.877 15.146Z" class="color212021 svgShape"/><path fill="#212021" d="M992.394 500.635c-4.1-19.992 15.851-40.052 25.544-48.45 13.627 9.71 31.896 26.205 24.938 41.43-9.502 20.855-35.85 29.906-50.481 7.02ZM1018.688 587.036c-13.61-14.011-12.285-37.102-10.39-49.074 10.657-1.033 31.887-1.627 48.1 7.337 19.627 10.885 7.28 42.03-37.71 41.737ZM1046.35 439.92c-.815 8.173-14.497 6.474-23.884 4.297-1.562-11.438.34-19.94 3.55-26.174 8.107 4.565 21.195 13.298 20.334 21.877ZM1245.884 419.59c-2.777-7.809.168-17.16 3.896-24.693a30.188 30.188 0 0 1 10.624 24.726c-5.966 4.768-12.03 7.043-14.52-.033ZM1262.81 473.925c-1.95-26.233 1.495-39.624 5.16-46.515 17.1 8.313 24.735 20.019 27.937 30.614-11.223 20.69-30.39 52.882-33.097 15.9ZM1321.892 550.772c-26.346 7.033-54.523 10.883-50.877-15.146 2.838-20.006 19.6-34.365 34.584-43.224 19.228 23.83 20.487 43.829 16.293 58.37Z" class="color212021 svgShape"/><path fill="#353535" d="M1042.876 493.615c-9.502 20.855-35.85 29.906-50.481 7.02-4.101-19.992 15.85-40.052 25.543-48.45 13.626 9.71 31.896 26.205 24.938 41.43ZM1046.35 439.92c-.815 8.173-14.497 6.474-23.884 4.297-1.562-11.438.34-19.94 3.55-26.174 8.107 4.565 21.195 13.298 20.334 21.877ZM1018.688 587.036c-13.61-14.011-12.285-37.102-10.39-49.074 10.657-1.033 31.887-1.627 48.1 7.337 19.627 10.885 7.28 42.03-37.71 41.737ZM1260.404 419.623c-5.966 4.768-12.03 7.043-14.52-.033-2.777-7.809.168-17.16 3.896-24.693a30.188 30.188 0 0 1 10.624 24.726ZM1295.907 458.024c-11.223 20.69-30.39 52.882-33.097 15.9-1.95-26.232 1.495-39.622 5.16-46.514 17.1 8.313 24.735 20.019 27.937 30.614ZM1321.892 550.772c-26.346 7.033-54.523 10.883-50.877-15.146 2.838-20.006 19.6-34.365 34.584-43.224 19.228 23.83 20.487 43.829 16.293 58.37Z" class="color353535 svgShape"/><path fill="#e5a488" d="m1235.54 552.505-14.702-5.6-10.97-59.554-93.314 3.772-20.39 8.353s9.715 32.166 5.932 55.201-14.482 48.789 19.293 63.354 127.954 12.99 114.15-65.526Z" class="colore5a488 svgShape"/><path d="m1235.54 552.505-14.702-5.6-10.97-59.554-93.314 3.772-20.39 8.353s9.715 32.166 5.932 55.201-14.482 48.789 19.293 63.354 127.954 12.99 114.15-65.526Z" style="mix-blend-mode:soft-light" opacity=".3" fill="#000000" class="color000 svgShape"/><path d="M1121.384 618.029c33.787 14.56 127.951 12.993 114.156-65.527l-2.706-1.028c-7.495 11.351-26.188 26.077-57.196 27.729-35.319 1.855-43.96-39.655-43.96-39.655 45.762 20.574 76.671 5.14 87.42-2.066l-9.222-50.123-93.314 3.76-20.401 8.355s9.706 32.16 5.93 55.197-14.473 48.794 19.293 63.358Z" style="mix-blend-mode:soft-light" opacity=".3" fill="#000000" class="color000 svgShape"/><path fill="#e5a488" d="M1219.142 469.478c7.22 4.865 15.45 2.969 22.748-2.56 14.312-10.803 25.044-35.485 17.594-50.293-2.93-5.8-6.611-8.4-10.48-9.058-11.029-1.875-23.483 12.032-23.483 12.032s-27.743 35.477-6.38 49.88Z" class="colore5a488 svgShape"/><path d="M1219.142 469.478c7.22 4.865 15.45 2.969 22.748-2.56-7.477.557-11.236-2.659-6.702-8.323 5.943-7.415 21.816-21.369 20.521-30.578-1.282-9.221-14.634.216-14.634.216-.412-11.061 3.864-17.277 7.928-20.666-11.028-1.875-23.482 12.032-23.482 12.032s-27.743 35.477-6.38 49.88Z" style="mix-blend-mode:soft-light" opacity=".45" fill="#000000" class="color000 svgShape"/><path fill="#cc7d64" d="M1224.27 449.71a28.035 28.035 0 0 1 2.555-11.08 31.33 31.33 0 0 1 6.384-9.646 23.535 23.535 0 0 1 10.199-6.297 16.015 16.015 0 0 1 11.634 1.171 34.473 34.473 0 0 0-9.763 3.456 39.54 39.54 0 0 0-7.497 6.138c-4.71 4.701-8.583 10.44-13.512 16.258Z" class="colorcc7d64 svgShape"/><circle cx="1250.994" cy="461.134" r="13.493" fill="#ffd31a" transform="rotate(-56.955 1250.994 461.134)" class="colorffd31a svgShape"/><path d="M1248.203 447.926a13.502 13.502 0 1 0 15.984 10.417 13.513 13.513 0 0 0-15.984-10.417Zm3.89 13.515c-3.317 2.757-7.117 5.43-9.852 2.11a7.802 7.802 0 1 1 12.021-9.949c2.735 3.321 1.146 5.082-2.17 7.84Z" style="mix-blend-mode:soft-light" opacity=".56" fill="#000000" class="color000 svgShape"/><path fill="#e5a488" d="M1084.695 492.387c-5.2 6.981-13.595 7.918-22.312 5.117-17.082-5.452-35.383-25.187-33.258-41.627.845-6.444 3.457-10.115 6.89-12.018 9.785-5.42 26.142 3.576 26.142 3.576s37.927 24.288 22.538 44.952Z" class="colore5a488 svgShape"/><path d="M1084.695 492.387c-5.2 6.981-13.595 7.918-22.312 5.117 7.239-1.95 9.722-6.228 3.567-10.071-8.064-5.029-27.661-12.938-29.49-22.056-1.844-9.126 13.88-4.643 13.88-4.643-3.274-10.574-9.367-15.023-14.325-16.875 9.785-5.42 26.142 3.576 26.142 3.576s37.927 24.288 22.538 44.952Z" style="mix-blend-mode:soft-light" opacity=".3" fill="#000000" class="color000 svgShape"/><path fill="#cc7d64" d="M1073.31 475.433c-6.578-3.858-12.133-7.99-18.134-10.866a39.548 39.548 0 0 0-9.106-3.309 34.488 34.488 0 0 0-10.357-.027 16.017 16.017 0 0 1 10.59-4.958 23.531 23.531 0 0 1 11.708 2.564 31.326 31.326 0 0 1 9.219 6.988 28.05 28.05 0 0 1 6.08 9.608Z" class="colorcc7d64 svgShape"/><path fill="#353535" d="M1151.96 344.259c3.776-51.22-66.56-72.375-68.577-72.978 97.308 19.736 83.355 70.46 83.355 70.46 70.85-86.215-97.248-94.744-97.248-94.744l13.846 24.27a201.527 201.527 0 0 0-50.223 25.747c83.854-5.277 118.847 47.245 118.847 47.245ZM992.524 361.446a87.165 87.165 0 0 0 4.457 25.757c40.023-11.168 52.716-40.726 52.716-40.726-18.264 9.556-39.328 13.528-57.173 14.97ZM1054.939 388.344l2.932 4.253c-5.858 14.674-25.217 24.28-41.087 29.913 2.538 3.127 5.332 6.3 8.418 9.47 33.561-10.878 47.158-38.044 47.158-38.044s3.266-58.838-22.675-21.481a100.08 100.08 0 0 1-43.35 35.142 112.817 112.817 0 0 0 6.396 9.634c28.868-12.511 42.208-28.887 42.208-28.887Z" class="color353535 svgShape"/><path fill="#e5a488" d="M1056.822 447.428a25.038 25.038 0 0 1-1.861 2.245l1.62 3.206 20.75 40.69a76.166 76.166 0 0 0 4.118 3.83c27.581 24.377 76.718 38.941 91.543 42.902a19.588 19.588 0 0 0 9.763.117c10.346-2.434 27.438-8.54 35.878-11.662a15.213 15.213 0 0 0 5.525-3.567 15.5 15.5 0 0 0 2.398-3.147 227.516 227.516 0 0 0 3.778-7.232c.125-.269.256-.509.381-.778a545.778 545.778 0 0 0 5.677-12.306c.119-.298.221-.532.317-.795 4.557-10.43 8.585-20.78 10.914-26.976a24.919 24.919 0 0 0 1.517-11.607l-13.296-127.7-.012-.058c-4.595-6.945-14.877-12.807-22.503-16.441a11.412 11.412 0 0 0-14.232 3.71c-6.246 8.756-18.493 22.271-36.396 26.122-23.217 4.977-55.202-6.666-67.068-9.554-2.172-.51-16.144 1.416-18.225 2.19-23.995 8.752-40.495 34.847-40.495 34.847 13.19 10.283 20.781 20.204 24.79 29.246 9.128 20.76-.574 36.983-4.881 42.718Z" class="colore5a488 svgShape"/><path d="M1177.518 499.429s4.737 9.344 14.573 8.42 9.909-11.93 9.909-11.93Z" style="mix-blend-mode:soft-light" opacity=".45" fill="#000000" class="color000 svgShape"/><path fill="#cc7d64" d="m1174.138 498.372 15.599-2.87c2.503-.46 5.038-.826 7.657-1.187a48.724 48.724 0 0 1 8.335-.582 21.305 21.305 0 0 1-6.803 5.332 27.915 27.915 0 0 1-8.11 2.738 26.306 26.306 0 0 1-8.64.032 15.989 15.989 0 0 1-8.038-3.463ZM1130.287 478.754c2.845 2.358 5.64 4.762 8.345 7.248l-.735-.39c8.11.221 16.317-.257 24.462-.82 8.15-.611 16.279-1.402 24.346-2.497 8.067-1.081 16.088-2.422 23.97-4.288 7.837-1.974 15.616-4.317 22.688-8.43l-.13.132c1.21-1.32 2.494-2.587 3.746-3.876-.883 1.566-1.734 3.154-2.659 4.69l-.016.025-.115.107c-6.249 5.773-14.14 9.5-22.074 12.268a137.516 137.516 0 0 1-24.543 5.653 181.7 181.7 0 0 1-25.012 1.782 118.86 118.86 0 0 1-25.03-2.278l-.522-.114-.213-.277c-2.246-2.909-4.402-5.899-6.508-8.935Z" class="colorcc7d64 svgShape"/><path fill="#353535" d="M1186.43 328c19.698-14.756 30.151-29.83 35.434-43.12a129.728 129.728 0 0 0-34.607-21.566c27.778 28.294.451 63.071-.828 64.686Z" class="color353535 svgShape"/><path d="m1054.97 449.667 22.374 43.911c26.535 26.686 80.062 42.548 95.633 46.72a19.755 19.755 0 0 0 9.789.129c10.335-2.438 27.427-8.554 35.868-11.68a14.734 14.734 0 0 0 5.514-3.552 114.803 114.803 0 0 0 6.177-10.388l.383-.762c2.145-4.132 4.032-8.3 5.677-12.326.123-.276.23-.525.33-.796a190.538 190.538 0 0 0 9.083-28.62l-25.082 48.261c-19.604-6.064-39.878 12.689-39.878 12.689-36.691-8.394-89.103-50.94-97.737-99.757s13.852-67.2 56.41-73.237c42.579-6.041 37.728-14.798 59.967-28.451 21.655-13.302 35.657 2.007 36.345 2.792-4.582-6.952-14.858-12.813-22.508-16.46a11.426 11.426 0 0 0-14.219 3.715c-6.252 8.747-18.505 22.283-36.399 26.117-23.212 4.983-55.188-6.657-67.06-9.546-2.174-.516-16.134 1.419-18.22 2.178-24.003 8.76-40.517 34.866-40.517 34.866 51.14 39.863 18.07 74.197 18.07 74.197Z" style="mix-blend-mode:soft-light" opacity=".3" fill="#000000" class="color000 svgShape"/><path fill="#212021" d="M1166.34 407.218c-1.802 9.203-6.633 11.302-6.633 11.302a106.042 106.042 0 0 0-16.53-7.517c-.482-.173-.965-.332-1.435-.503-.348-.106-.682-.222-1.018-.326a76.192 76.192 0 0 0-13.11-2.968 49.334 49.334 0 0 0-2.391-.255 58.502 58.502 0 0 0-2.313-.156 33.682 33.682 0 0 0-8.238.398 40.645 40.645 0 0 1 7.417-5.581 35.78 35.78 0 0 1 2.442-1.272c.79-.371 1.578-.716 2.36-1.011a32.662 32.662 0 0 1 12.627-2.137c.592.005 1.18.036 1.755.077.588.044 1.16.098 1.732.165 13.248 1.58 23.335 9.784 23.335 9.784Z" class="color212021 svgShape"/><path fill="#353535" d="M1124.53 400.34a28.634 28.634 0 0 1 .693 6.61 58.502 58.502 0 0 0-2.313-.155 24.992 24.992 0 0 0-.82-5.183 35.78 35.78 0 0 1 2.44-1.272ZM1139.518 397.192c1.764 4.393 1.636 9.426 1.206 12.982a76.192 76.192 0 0 0-13.11-2.968 32.816 32.816 0 0 0-.724-7.877 32.662 32.662 0 0 1 12.628-2.137ZM1143.177 411.003c-.482-.173-.965-.332-1.435-.503a34.56 34.56 0 0 0-.469-13.23c.588.043 1.16.097 1.732.164a34.975 34.975 0 0 1 .172 13.569Z" class="color353535 svgShape"/><path fill="#212021" d="M1188.663 393.478c3.77 8.586 8.944 9.578 8.944 9.578a106.042 106.042 0 0 1 14.485-10.95c.433-.274.87-.536 1.29-.805.317-.18.617-.366.922-.54a76.193 76.193 0 0 1 12.144-5.765 49.056 49.056 0 0 1 2.277-.771c.782-.247 1.53-.47 2.223-.658a33.684 33.684 0 0 1 8.125-1.413 40.649 40.649 0 0 0-8.457-3.825c-.894-.269-1.78-.514-2.66-.707a32.988 32.988 0 0 0-2.525-.47 32.66 32.66 0 0 0-12.789.677c-.576.134-1.144.293-1.696.46-.563.17-1.11.348-1.654.539-12.58 4.44-20.63 14.65-20.63 14.65Z" class="color212021 svgShape"/><path fill="#353535" d="M1227.955 377.622a28.63 28.63 0 0 0 .77 6.603c.781-.247 1.53-.47 2.223-.658a24.997 24.997 0 0 1-.332-5.238c-.894-.269-1.78-.514-2.66-.707ZM1212.642 377.829c-.76 4.672.465 9.556 1.662 12.931a76.193 76.193 0 0 1 12.144-5.764 32.813 32.813 0 0 1-1.017-7.844 32.66 32.66 0 0 0-12.789.677ZM1212.092 392.106c.433-.274.87-.536 1.29-.806a34.558 34.558 0 0 1-2.436-13.012c-.563.17-1.11.35-1.654.54a34.972 34.972 0 0 0 2.8 13.278Z" class="color353535 svgShape"/><path d="M1155.027 429.636c3.47 12.643.223 24.707-7.252 26.946s-16.347-6.194-19.817-18.837-.223-24.706 7.252-26.946 16.347 6.195 19.817 18.837Z" style="mix-blend-mode:soft-light" opacity=".45" fill="#000000" class="color000 svgShape"/><path d="M1152.035 436.807c2.295 8.362.148 16.34-4.796 17.821s-10.811-4.096-13.106-12.458-.148-16.34 4.796-17.82 10.811 4.096 13.106 12.457Z" fill="#000000" class="color000 svgShape"/><path fill="#ffffff" d="M1140.46 434.436c.72 2.624.047 5.128-1.505 5.593s-3.393-1.286-4.113-3.91-.046-5.128 1.505-5.593 3.393 1.286 4.113 3.91ZM1144.046 440.014c.365 1.329.023 2.597-.762 2.832s-1.718-.651-2.083-1.98-.023-2.596.762-2.832 1.718.651 2.083 1.98Z" class="colorfff svgShape"/><ellipse cx="1216.146" cy="417.897" rx="12.263" ry="20.578" transform="rotate(-7.641 1216.146 417.897)" style="mix-blend-mode:soft-light" opacity=".45" fill="#000000" class="color000 svgShape"/><path d="M1224.828 422.463c.845 7.465-2.094 13.792-6.565 14.13s-8.781-5.44-9.627-12.907 2.094-13.792 6.565-14.13 8.781 5.44 9.627 12.907Z" fill="#000000" class="color000 svgShape"/><path fill="#ffffff" d="M1215.153 418.335c.265 2.343-.657 4.328-2.06 4.434s-2.756-1.707-3.021-4.05.657-4.328 2.06-4.434 2.756 1.707 3.021 4.05ZM1217.492 423.694c.134 1.186-.333 2.192-1.043 2.245s-1.396-.864-1.53-2.05.332-2.192 1.043-2.246 1.395.865 1.53 2.051Z" class="colorfff svgShape"/><circle cx="1068.076" cy="499.864" r="15.18" fill="#ffd31a" transform="rotate(-82.805 1068.073 499.862)" class="colorffd31a svgShape"/><path d="M1064.937 485.005a15.19 15.19 0 1 0 17.98 11.719 15.202 15.202 0 0 0-17.98-11.719Zm4.375 15.204c-3.73 3.102-8.006 6.109-11.083 2.373a8.777 8.777 0 1 1 13.524-11.192c3.077 3.736 1.29 5.717-2.441 8.819Z" style="mix-blend-mode:soft-light" opacity=".56" fill="#000000" class="color000 svgShape"/><path fill="#c64040" d="m1175.327 393.864-.016.004c-.548.263-11.249 4.803-7.276-34.364-.005-.02-.005-.02.007-.044l.009.04c19.506 34.197 7.867 34.387 7.276 34.364Z" class="colorc64040 svgShape"/><path fill="#212021" d="M1137.792 478.74c1.283 6.063 9.853 17.316 31.586 16.46 21.707-.851 29.775-16.384 29.775-16.384s13.622 13.171 31.186 2.36c17.537-10.804 9.128-26.234 9.128-26.234s1.623 10.134-1.587 10.814a9.247 9.247 0 0 1-1.75.051c-4.304-.204-14.713-1.705-22.732-2.955-5.884-.906-10.442-1.654-10.442-1.654a30.955 30.955 0 0 1-16.853 4.684 12.006 12.006 0 0 0-2.443.278c-9.144 2.136-22.7 15.125-29.428 18.024a6.092 6.092 0 0 1-2.307.528c-5.729-.3-14.133-5.971-14.133-5.971Z" class="color212021 svgShape"/><path fill="#353535" d="M1154.232 484.184c5.45 2.75 12.994 4.619 19.379.877 6.896-4.05 9.251-12.796 10.049-18.9-9.145 2.135-22.7 15.124-29.428 18.023ZM1211.898 469.663c1.49 2.752 21.9 6.16 24.233-3.856-4.305-.204-14.714-1.705-22.733-2.955-1.238 2.334-2.355 5.24-1.5 6.811Z" class="color353535 svgShape"/><path fill="#f7bda9" d="M1198.796 442.38s-19.549 4.834-18.16 12.985 21.465 7.992 30.293.802-12.133-13.787-12.133-13.787Z" class="colorf7bda9 svgShape"/><path fill="#cc7d64" d="M1193.731 434.681c2.317 2.153 4.369 4.48 6.432 6.8l-.822-.644c2.46.548 4.923 1.082 7.342 1.744l1.823.473a8.83 8.83 0 0 1 2.315.944 9.392 9.392 0 0 1 3.584 3.88 9.565 9.565 0 0 1-1.039 10.279 27.49 27.49 0 0 1-6.024 5.705 24.728 24.728 0 0 1-15.753 4.528 29.674 29.674 0 0 1-14.705-5.153 53.524 53.524 0 0 0 14.559.563 25.796 25.796 0 0 0 12.23-4.986 33.445 33.445 0 0 0 4.807-4.622 3.955 3.955 0 0 0 .604-3.865 3.748 3.748 0 0 0-1.232-1.737 5.277 5.277 0 0 0-1.074-.64l-1.715-.776c-2.3-1.003-4.553-2.135-6.811-3.251l-.679-.335-.144-.31c-1.314-2.812-2.638-5.618-3.698-8.597Z" class="colorcc7d64 svgShape"/><path fill="#212021" d="m1056.58 452.88 20.75 40.688a76.166 76.166 0 0 0 4.119 3.83c6.752 2.515 14.555 1.257 18.572-8.573 4.554-11.158-4.31-14.196-5.123-14.449 5 1.976 4.793 13.032-2.296 13.653-7.112.657-16.428-19.123-10.185-40.074 6.215-20.945-8.457-68.17-8.457-68.17l-9.439 2.849s-1.292 9.8-2.819 22.076c9.129 20.76-.573 36.982-4.88 42.718a41.211 41.211 0 0 0-.242 5.452Z" class="color212021 svgShape"/><path fill="#ffd31a" d="M1092.25 344.757s72.187 33.85 125.325-18.778-104.397 7.697-106.165 8.071-19.16 10.707-19.16 10.707Z" class="colorffd31a svgShape"/><path d="M1092.25 344.757s72.187 33.85 125.325-18.778-104.397 7.697-106.165 8.071-19.16 10.707-19.16 10.707Z" style="mix-blend-mode:soft-light" opacity=".56" fill="#000000" class="color000 svgShape"/><path fill="#ffd31a" d="m960.042 309.823.6 45.6s-.93.363-2.704.87c-8.108 2.15-34.215 6.176-70.317-16.837 15.87-12.986 29.561-20.384 40.636-24.604 19.825-7.58 31.785-5.029 31.785-5.029ZM1005.08 388.76a17.963 17.963 0 0 1-2.7 1.66c-7.217 4.027-29.597 13.196-69.428 1.67 10.048-15.252 20.09-25.249 28.88-31.827 16.22-12.067 28.409-12.642 28.409-12.642ZM1055.205 407.437a20.492 20.492 0 0 1-2.316 2.477c-5.756 5.392-23.227 17.962-61.537 17.512 4.293-15.351 10.185-26.404 16.08-34.26 11.145-14.997 22.333-18.5 22.333-18.5Z" class="colorffd31a svgShape"/><path fill="#c45f4f" d="M1053.975 443.841c-.502-13.297 1.357-23.7 4.12-31.673-1.101 4.954-2.01 10.298-2.738 15.976a25.652 25.652 0 0 0 .753 10.516c.442 1.455.87 2.852 1.356 4.227a83.838 83.838 0 0 1-3.491.954ZM1244.865 341.054a13.198 13.198 0 0 1 .223 1.521 4.606 4.606 0 0 1 .086.656c.068.433.106.878.143 1.322.02.222.017.498.046.763.056.667.072 1.303.068 1.993-.001.139.008.319.007.457l.01.042a52.406 52.406 0 0 1-.681 8.648 35.098 35.098 0 0 1-.331 2.027c-.396 2.198-.958 4.56-1.657 7.08-.214.833-.468 1.638-.713 2.486l-.043.111c-.127-.842-.276-1.628-.404-2.47a21.574 21.574 0 0 0-2.544-7.125 143.015 143.015 0 0 0-6.171-9.854 110.872 110.872 0 0 0-6.883-8.956l8.893-4.198 6.832-3.199a12.488 12.488 0 0 1 .825 1.41c.13.275.31.624.46.983a19.872 19.872 0 0 1 .997 2.714 28.078 28.078 0 0 1 .837 3.589Z" class="colorc45f4f svgShape"/><path fill="#ffd31a" d="M1262.69 337.557a43.89 43.89 0 0 1-18.368-6.995c-8.388-5.832-10.056-12.56-10.056-12.56l21.03-17.524a10.684 10.684 0 0 1 .844.844c2.434 2.805 9.254 12.757 6.55 36.235ZM1275.422 300.272a40.033 40.033 0 0 1-18.387-2.183c-8.724-3.421-11.675-9.181-11.675-9.181l11.76-16.313.028-.007 3.765-5.25a6.25 6.25 0 0 1 .687.428 15.859 15.859 0 0 1 2.67 2.301c3.664 3.783 9.277 12.318 11.152 30.204ZM1249.216 258.69s9.316 11.213 30.186 3.596c-8.314-25.431-20.44-28.23-20.44-28.23ZM1246.129 228.464s11.18 8.682 29.03-3.847c-13.277-23.145-25.359-22.96-25.359-22.96ZM1236.375 199.214s12.555 5.94 26.682-11.044c-17.844-20.295-29.386-17.097-29.386-17.097ZM1220.21 171.908s13.442 2.968 23.078-18.076c-22.069-16.777-32.51-10.504-32.51-10.504ZM1197.902 147.594s13.79-.268 18.021-24.957c-25.9-12.418-34.56-3.005-34.56-3.005ZM1169.822 127.474s13.48-3.788 11.205-31.574c-29.144-6.99-35.164 5.567-35.164 5.567ZM1136.587 112.963s12.33-7.57 2.261-37.61c-31.403-.264-33.72 15.27-33.72 15.27ZM1099.263 105.674s10.096-11.498-9.135-42.448c-32.024 7.893-29.4 25.913-29.4 25.913ZM1059.6 107.308s6.53-15.318-23.059-45.107c-30.083 17.342-21.256 36.832-21.256 36.832ZM1020.255 119.359s1.463-18.566-39.016-44.247c-24.53 27.409-8.536 46.675-8.536 46.675ZM984.817 142.613l-30.912 9.82-15.887 5.096-.728-.53c-3.513-2.963-20.414-19.322-8.657-51.091a17.185 17.185 0 0 1 .636-1.722c19.083 6.744 31.446 13.682 39.579 19.716 13.962 10.417 15.97 18.711 15.97 18.711ZM957.668 176.584l-41.05 27.593s-.401-.163-1.133-.495l-.013-.062c-5.267-2.52-28.26-16.022-27.906-53.802 21.699 2.295 36.796 6.527 47.187 10.93 17.927 7.465 22.915 15.836 22.915 15.836ZM942.924 218.837l-30.082 38.294s-.546-.063-1.653-.253c-6.769-1.472-33.464-9.672-47.536-47.777 22.252-3.156 38.7-2.666 50.605-.851 20.612 3.173 28.666 10.587 28.666 10.587ZM943.566 265.096l-15.33 44.715s-.887.1-2.401.116c-8.017.152-35.7-1.977-62.666-34.54 20.33-8.679 36.347-12.294 48.551-13.534 21.395-2.118 31.846 3.243 31.846 3.243Z" class="colorffd31a svgShape"/><path fill="#ffa81d" d="m1250.13 201.658-.028.002c-.36-.92-.748-1.837-1.137-2.756l-.01-.039a171.752 171.752 0 0 0-15.036-27.828c-.029.002-.038-.038-.038-.038-.585-.851-1.162-1.664-1.71-2.48l-.009-.039a181.108 181.108 0 0 0-21.25-25.217l-.04-.04c-.736-.733-1.463-1.427-2.2-2.162l-.042-.04a185.995 185.995 0 0 0-27.118-21.508c-.924-.624-1.876-1.21-2.875-1.84a192.713 192.713 0 0 0-32.635-16.41q-1.68-.705-3.34-1.284a191.613 191.613 0 0 0-37.476-9.678 102.238 102.238 0 0 0-3.758-.544 213.576 213.576 0 0 0-9.357-1.019 183.527 183.527 0 0 0-31.389-.019c-1.318.09-2.69.174-3.995.364a176.026 176.026 0 0 0-41.607 9.367l.012.053-.055-.003c-1.317.44-2.626.934-3.885 1.434a164.696 164.696 0 0 0-38.814 21.304c-1.225.859-2.392 1.722-3.488 2.647a143.957 143.957 0 0 0-20.632 19.286 158.346 158.346 0 0 0-10.926 13.81 121.41 121.41 0 0 0-2.536 3.749 146.125 146.125 0 0 0-19.282 42.87l.014.063c-.404 1.54-.821 3.022-1.227 4.568a149.075 149.075 0 0 0-3.07 48.627c.132 1.685.325 3.297.532 4.975.53 4.261 1.285 8.498 2.189 12.716a166.41 166.41 0 0 0 11.926 35.357l2.422 4.925a174.529 174.529 0 0 0 29.68 41.442l3.895 3.97a189.178 189.178 0 0 0 40.546 30.157c1.678.965 3.337 1.867 5.053 2.746 3.115 1.588 6.197 3.106 9.368 4.517 1.798.821 3.65 1.62 5.481 2.357a191.063 191.063 0 0 0 30.607 9.875c1.766.423 3.636.805 5.442 1.206 6.51-29.386 17.637-45.13 17.637-45.13s4.584-5.382 15.266-12.653a125.599 125.599 0 0 1-45.94-19.725c-2.806-1.855-5.485-3.875-8.078-5.988a77.801 77.801 0 0 1-4.173-3.548c-2.316-2.093-4.586-4.208-6.717-6.484a114.01 114.01 0 0 1-29.83-54.884 100.704 100.704 0 0 1 2.646-53.953c13.094-39.547 49.348-66.384 93.054-69.783 3.004-.25 6.047-.402 9.152-.36.695-.038 1.355-.029 2.058-.019 3.755.051 7.425.29 11.08.62 52.165 5.401 95.941 44.133 106.923 91.197a101.672 101.672 0 0 1 .69 43.999 67.946 67.946 0 0 1-1.547 6.301c-.094.471-.254.958-.38 1.438a86.912 86.912 0 0 1-3.083 8.94 98.016 98.016 0 0 1-15.31 26.038c-1.485 1.81-3.025 3.597-4.666 5.325 8.834.848 13.177 2.824 13.177 2.824s6.943 4.098 15.73 14.499a110.872 110.872 0 0 1 6.883 8.955 128.07 128.07 0 0 0 5.968-8.782 129.54 129.54 0 0 0 3.7-6.16 88.197 88.197 0 0 0 1.75-3.22 160.529 160.529 0 0 0 3.53-7.005 150.904 150.904 0 0 0 8.288-22.234l.895-3.233a147.761 147.761 0 0 0 4.363-26.944c.083-1.145.175-2.249.202-3.378.073-1.056.09-2.098.109-3.138a151.224 151.224 0 0 0-2.283-30.43c-.147-.987-.348-1.964-.522-2.946a152.703 152.703 0 0 0-1.31-6.046 163.516 163.516 0 0 0-7.463-23.536Z" class="colorffa81d svgShape"/><path d="M1053.975 443.841c-.502-13.297 1.357-23.7 4.12-31.673-1.101 4.954-2.01 10.298-2.738 15.976a25.652 25.652 0 0 0 .753 10.516c.442 1.455.87 2.852 1.356 4.227a83.838 83.838 0 0 1-3.491.954ZM1045.294 333.593a125.599 125.599 0 0 0 45.94 19.725c-10.681 7.271-15.265 12.654-15.265 12.654s-11.128 15.743-17.637 45.129c-1.806-.4-3.676-.783-5.442-1.206a40.74 40.74 0 0 1-2.888 2.444 54.593 54.593 0 0 1-6.83 4.426 70.087 70.087 0 0 1-14.079 5.863 35.329 35.329 0 0 1-3.444.978c-.79.22-1.643.46-2.51.642a.799.799 0 0 1-.375.07c-1.172.29-2.408.603-3.674.797-1.196.233-2.457.489-3.734.684a81.19 81.19 0 0 1-5.116.647c-.124.044-.248.088-.324.05q-2.55.315-5.349.517c-4.09.32-8.465.466-13.212.393 4.292-15.351 10.185-26.404 16.079-34.26a118.601 118.601 0 0 1-5.053-2.746c-7.216 4.027-29.596 13.196-69.426 1.668 10.048-15.25 20.09-25.248 28.88-31.825l-3.895-3.97c-8.107 2.15-34.213 6.175-70.316-16.838 15.871-12.986 29.561-20.384 40.636-24.604l-2.422-4.925c-8.017.153-35.7-1.977-62.665-34.54 20.328-8.678 36.346-12.293 48.55-13.533-.206-1.678-.4-3.29-.531-4.975-6.77-1.472-33.463-9.673-47.536-47.777 22.252-3.155 38.7-2.666 50.605-.85.406-1.546.823-3.027 1.227-4.568l-.014-.062c-5.267-2.52-28.26-16.023-27.906-53.802 21.7 2.295 36.797 6.528 47.188 10.931a121.41 121.41 0 0 1 2.536-3.75c-3.512-2.962-20.413-19.32-8.657-51.09a360.402 360.402 0 0 0 19.583 37.28 265.46 265.46 0 0 0 5.69 9.245 331.571 331.571 0 0 0 45.235 56.32 100.704 100.704 0 0 0-2.646 53.955 114.01 114.01 0 0 0 29.83 54.883c2.131 2.276 4.4 4.39 6.717 6.484a77.801 77.801 0 0 0 4.173 3.548c2.593 2.113 5.272 4.133 8.077 5.988ZM1257.035 298.076l-.895 3.233c2.434 2.805 9.254 12.757 6.549 36.235a54.763 54.763 0 0 1-2.702-.507l-.491-.093a36.064 36.064 0 0 1-2.264-.542 1.152 1.152 0 0 0-.34-.104 38.768 38.768 0 0 1-2.429-.765c-.892-.273-1.767-.6-2.615-.937l-1.393-.602a41.618 41.618 0 0 1-2.595-1.283 21.011 21.011 0 0 1-1.84-1.053c-.572-.352-1.155-.747-1.698-1.11a88.197 88.197 0 0 1-1.75 3.22c.13.275.31.624.46.983a19.872 19.872 0 0 1 .996 2.714 28.078 28.078 0 0 1 .837 3.589 13.198 13.198 0 0 1 .222 1.521 4.606 4.606 0 0 1 .087.656c.068.433.106.878.143 1.322.02.222.017.498.046.763.056.667.072 1.303.068 1.993-.001.139.008.319.007.457l.01.042a52.406 52.406 0 0 1-.681 8.648 35.098 35.098 0 0 1-.331 2.027c-.396 2.198-.958 4.56-1.658 7.08-.213.833-.467 1.638-.712 2.486l-.043.111c-.127-.842-.276-1.628-.404-2.47a21.574 21.574 0 0 0-2.544-7.125 143.015 143.015 0 0 0-6.171-9.854 110.872 110.872 0 0 0-6.883-8.956c-8.787-10.401-15.73-14.5-15.73-14.5s-4.343-1.974-13.177-2.823c1.641-1.728 3.181-3.515 4.666-5.325a98.016 98.016 0 0 0 15.31-26.038 86.912 86.912 0 0 0 3.082-8.94c.753-.131 1.504-.261 2.243-.434.811-.144 1.62-.289 2.449-.482a251.918 251.918 0 0 0 32.256-8.63l.028-.007c1.412-.453 2.835-.95 4.25-1.443.945-.343 1.914-.692 2.871-1.078 3.665 3.783 9.278 12.318 11.153 30.204a40.03 40.03 0 0 1-18.387-2.183Z" style="mix-blend-mode:soft-light" opacity=".56" fill="#000000" class="color000 svgShape"/><path fill="#ffd31a" d="m1154.827 205.92-74.843 6.769 16.972-102.459 50.387 83.338 7.484 12.352z" class="colorffd31a svgShape"/><path d="m1154.827 205.92-74.843 6.769 16.972-102.46 11.85 76.601a143.967 143.967 0 0 1 38.537 6.738Z" style="mix-blend-mode:soft-light" opacity=".56" fill="#000000" class="color000 svgShape"/><path fill="#ffb91d" d="m1227.656 288.467-200.924 49.739s-2.927-55.172 6.656-98.745a148.231 148.231 0 0 1 32.547-26.561c16.756-10.111 34.54-16.285 50.419-17.396 24.977-1.748 55.688 8.134 78.8 24.535a355.325 355.325 0 0 1 20.302 39.044c7.493 16.513 12.2 29.384 12.2 29.384Z" class="colorffb91d svgShape"/><path d="m1227.656 288.467-200.924 49.739s-2.927-55.172 6.656-98.745a148.231 148.231 0 0 1 32.547-26.561c1.856 11.246 5.457 28.912 11.488 43.939 0 0 17.991-10.065 19.153-13.876 1.144-3.838 20.346-44.96 20.346-44.96l34.567 12.768 18.552 30.053 45.415 18.259c7.493 16.513 12.2 29.384 12.2 29.384Z" style="mix-blend-mode:soft-light" opacity=".56" fill="#000000" class="color000 svgShape"/><path fill="#ffd31a" d="M1254.752 345.646c1.076 6.529-7.84 31.71-9.851 37.377l-.421 1.13a7.503 7.503 0 0 1-.13-.848c-.54-3.8-1.092-7.637-1.755-11.516-.177-1.2-.364-2.442-.572-3.629-.127-.842-.276-1.628-.404-2.47a21.574 21.574 0 0 0-2.544-7.125 143.015 143.015 0 0 0-6.171-9.854 110.872 110.872 0 0 0-6.883-8.956c-8.787-10.401-15.73-14.5-15.73-14.5s-4.343-1.974-13.177-2.823c-10.123-1.013-26.567-.582-50.5 6.08-25.84 7.193-43.91 16.945-55.38 24.806l-.318.218a66.58 66.58 0 0 0-23.61 29.095 164.725 164.725 0 0 0-8.974 28.47c.055-.02.068.037.122.018-.1.343-.258.706-.359 1.049-1.101 4.954-2.01 10.298-2.738 15.976a25.652 25.652 0 0 0 .753 10.516c.442 1.455.87 2.852 1.355 4.227a483.44 483.44 0 0 0 6.313 18.773l-.055.024s-4.568-2.352-10.709-5.806c-12.008-6.732-30.352-18.015-32.44-24.57a62.273 62.273 0 0 1-1.484-6.193 168.116 168.116 0 0 1-2.288-27.452c-.088-4.55-.013-9.519.165-14.88l-.013-.059a406.608 406.608 0 0 1 4.444-46.142 197.844 197.844 0 0 1 5.094-5.592c1.956-2.15 4.16-4.466 6.552-6.933 21.45-22.23 54.887-53.984 54.887-53.984l2.313-21.215 2.45-22.693 13.633-15.873 10.532-12.2.064-.103 15.162 9.974 17.934 11.823 20.18 36.086s32.172 15.194 50.354 24.819c.658.342 1.282.69 1.862 1.004a88.203 88.203 0 0 1 3.36 1.849c1.492.804 2.842 1.593 3.96 2.257 5.196 9.411 9.43 17.883 12.818 25.293a283.868 283.868 0 0 1 5.299 12.449 200.578 200.578 0 0 1 1.746 4.584l.01.041c.862 2.315 1.586 4.45 2.24 6.428a81.58 81.58 0 0 1 2.904 11.05Z" class="colorffd31a svgShape"/><path d="M1254.752 345.646c1.076 6.529-7.84 31.71-9.851 37.377l-.55.282c-.542-3.8-1.093-7.637-1.756-11.516-.177-1.2-.364-2.442-.572-3.629-.127-.842-.276-1.628-.404-2.47a21.574 21.574 0 0 0-2.544-7.125 143.015 143.015 0 0 0-6.171-9.854 110.872 110.872 0 0 0-6.883-8.956c-8.787-10.401-15.73-14.5-15.73-14.5s-4.343-1.974-13.177-2.823c-10.123-1.013-26.567-.582-50.5 6.08-25.84 7.193-43.91 16.945-55.38 24.806-10.681 7.271-15.265 12.654-15.265 12.654s-11.128 15.743-17.637 45.129c.055-.02.068.037.122.018-.1.343-.258.706-.359 1.049-1.101 4.954-2.01 10.298-2.738 15.976a25.652 25.652 0 0 0 .753 10.516c.442 1.455.87 2.852 1.355 4.227a483.44 483.44 0 0 0 6.313 18.773l-.055.024s-4.568-2.352-10.709-5.806c-13.604-8.534-27.616-19.818-29.636-30.236-.091-.418-.135-.917-.24-1.394-.891-5.85-1.125-14.599-.855-24.228.104-7.117.473-14.721.951-22.065 1.362-20.898 3.5-39.768 3.5-39.768l10.483-10.582 56.666-57.122 2.4-26.923 1.334-14.81 12.571-16.264 2.128-2.736 5.797-7.497-1.472 7.106-5.12 24.854 2.024 17.44.813 7.054 1.203 10.419-3.233 11.957c-.034.059-.034.059-.023.109l-1.878 6.796.023.101-8.448 31.467-5.339 19.843c29.771-13.599 82.256-21.655 105.117-22.292a48.405 48.405 0 0 1 9.945.404c6.509 1.275 15.804 10 23.19 18.046 1.402 1.512 2.727 2.997 3.957 4.372 2.793 3.213 5.092 6.073 6.566 7.837l.01.042a184.88 184.88 0 0 1 1.607 2.075c3.552-3.04 4.047-9.39 3.4-15.889a74.722 74.722 0 0 0-.847-5.825c.862 2.314 1.586 4.45 2.24 6.427a81.58 81.58 0 0 1 2.904 11.05Z" style="mix-blend-mode:soft-light" opacity=".56" fill="#000000" class="color000 svgShape"/><path fill="#2a323f" d="M1058.332 411.1c.055-.019.068.038.122.019-.1.343-.257.705-.359 1.049.089-.4.136-.724.237-1.067Z" class="color2a323f svgShape"/><path d="M1163.159 289.74c4.19 18.295-2.882 36.09-16.296 39.847-13.994 3.92-29.416-8.83-33.879-28.592-4.452-19.716 3.973-37.709 18.245-40.135 13.682-2.326 27.75 10.626 31.93 28.88Z" style="mix-blend-mode:soft-light" opacity=".56" fill="#000000" class="color000 svgShape"/><path fill="#353082" d="M1160.044 290.44c3.645 15.93-2.554 31.365-14.228 34.547-12.109 3.3-25.39-7.765-29.24-24.798-3.842-16.999 3.374-32.582 15.691-34.764 11.875-2.104 24.139 9.113 27.777 25.014Z" class="color353082 svgShape"/><path fill="#443b96" d="M1158.218 289.802c3.167 13.847-2.241 27.2-12.367 29.878-10.452 2.764-21.872-6.843-25.193-21.515-3.315-14.647 2.854-28.11 13.462-30.038 10.278-1.868 20.937 7.85 24.099 21.675Z" class="color443b96 svgShape"/><path fill="#5854b5" d="M1155.055 285.958c2.138 9.355-1.538 18.264-8.342 19.92-6.95 1.693-8.517-6.716-10.707-16.35-2.188-9.622-4.174-16.842 2.845-18.162 6.872-1.292 14.068 5.248 16.204 14.592Z" class="color5854b5 svgShape"/><path fill="#ffd31a" d="M1099.816 347.342s-20.577 19.134-23.44 33.532 4.674 54.294-12.653 80.81c0 0-17.736-26.596-18.834-31.782s1.698-33.854 5.803-47.038 24.726-36.76 24.726-36.76Z" class="colorffd31a svgShape"/><path d="M1099.816 347.342s-20.577 19.134-23.44 33.532 4.674 54.294-12.653 80.81c0 0-17.736-26.596-18.834-31.782s1.698-33.854 5.803-47.038 24.726-36.76 24.726-36.76Z" style="mix-blend-mode:soft-light" opacity=".56" fill="#000000" class="color000 svgShape"/><path fill="#e5a488" d="M1413.644 853.585a78.572 78.572 0 0 1-26.504.917c-2.391-.28-4.862-.718-7.413-1.276a67.624 67.624 0 0 1-28.975-14.189c-6.138-5.18-12.714-11.438-19.21-18.094-22.598-23.116-44.36-50.577-44.36-50.577l10.841-183.574s15.703-2.311 42.327 78.635c5.818 17.576 12.116 39.098 18.891 65.403 1.794 7.054 3.667 14.427 5.54 22.2a36.105 36.105 0 0 0 5.939 12.674c1.036 1.434 2.072 2.63 2.869 3.546 1.754 2.033 4.982 4.145 9.047 6.218 14.308 7.254 35.87 18.493 35.87 18.493s-26.145 33.28-4.862 59.624Z" class="colore5a488 svgShape"/><path fill="#ed9c1b" d="M1413.644 853.585a78.572 78.572 0 0 1-26.504.917c-2.391-.28-4.862-.718-7.413-1.276-26.464-45.914-11.478-82.222-9.007-87.522 1.036 1.434 2.072 2.63 2.869 3.546 1.754 2.033 4.982 4.145 9.047 6.218 14.309 7.254 35.87 18.493 35.87 18.493s-26.145 33.28-4.862 59.624ZM1359.241 730.83c-16.101 5.062-35.67 13.47-43.682 25.786-14.547 22.4-12.315-48.783-12.315-48.783s8.689-30.609 37.106-42.406c5.818 17.576 12.116 39.098 18.891 65.403Z" class="colored9c1b svgShape"/><path fill="#e5a488" d="M1046.541 672.697v85.472s-12.6 20.016-41.794 34.299h-.02a135.071 135.071 0 0 1-29.051 10.21 161.345 161.345 0 0 1-42.321 3.728c-34.279-1.297-76.053-16.653-112.68-33.792a791.894 791.894 0 0 1-71.576-38.37c-10.737-6.484-17.078-10.657-17.078-10.657l7.982-33.792c5.126.04 10.17.162 15.093.345 59.561 1.965 105.326 11.871 134.195 20.279 23.035 6.685 35.332 12.419 35.332 12.419l13.006-12.601 43.597-42.26 17.383-16.836.141-.101Z" class="colore5a488 svgShape"/><path fill="#ed9c1b" d="M889.291 710.419c-18.942 6.159-55.408 22.811-68.617 62.195a791.894 791.894 0 0 1-71.575-38.37c1.155-14.87 2.958-30.247 5.997-44.104 59.561 1.965 105.326 11.871 134.195 20.279ZM1004.747 792.468h-.02a135.071 135.071 0 0 1-29.051 10.21c-3.1-53.889-27.938-82.818-38.047-92.441l43.597-42.26c32.435 22.203 27.472 93.19 23.521 124.49Z" class="colored9c1b svgShape"/><path d="M1046.541 672.697v85.472s-12.6 20.016-41.794 34.299h-.02a135.071 135.071 0 0 1-29.051 10.21 161.345 161.345 0 0 1-42.321 3.728c-34.279-1.297-76.053-16.653-112.68-33.792a791.894 791.894 0 0 1-71.576-38.37c-10.737-6.484-17.078-10.657-17.078-10.657l7.982-33.792c5.126.04 10.17.162 15.093.345q10.636.334 20.684 1.033a61.038 61.038 0 0 0 9.42 13.431c47.488 52.795 165.253 66.855 168.292 54.315 2.857-11.791-25.182-33.306-28.545-35.838 108.183 76.801 81.36-36.284 71.575-69.914l2.087-2.026.141-.101Z" style="mix-blend-mode:soft-light" opacity=".3" fill="#000000" class="color000 svgShape"/><path fill="#bab18c" d="M1894.29 546.806c-.494 2.034-50 83.273-50.516 85.95-.145.938-6.748-1.572-15.08-6.236-.076-.066-.005-.071-.005-.071-16.733-9.324-40.196-27.709-32.177-45.701 12.068-26.92 97.777-33.942 97.777-33.942Z" class="colorbab18c svgShape"/><path fill="#938a65" d="M1894.29 546.806c-.494 2.034-50 83.273-50.516 85.95-.145.938-6.748-1.572-15.08-6.236-.076-.066-.005-.071-.005-.071a18.455 18.455 0 0 1-.457-5.244c1.276-28.194 66.057-74.399 66.057-74.399Z" class="color938a65 svgShape"/><path fill="#1a1a1a" d="M1741.7 572.094s-73.07-11.671-117.868 33.75-128.311 246.135-111.495 311.09 229.363-344.84 229.363-344.84Z" class="color1a1a1a svgShape"/><path fill="#d3cba9" d="M1989.961 1446.451c-30.49 94.46-24.315 160.904-47.882 204.075s-70.958 53.364-70.958 53.364l-1.41.246-56.72 9.382c-.945-85.514 16.68-64.06 49.75-69.205a1.567 1.567 0 0 0 .564-.113c32.699-5.33 46.306-35.573 43.502-55.265-2.815-19.834 6.452-39.273 15.329-46.559 8.802-7.352 20.282-50.989 3.612-77.862s-11.168-60.655-11.168-60.655l-222.24-39.842s15.344-154.895 65.2-95.732c49.786 59.168 192.762 75.39 215.515 93.827 22.748 18.366 16.906 84.34 16.906 84.34ZM1225.924 1331.499s-182.07 124.392-238.184 143.232c0 0-47.443 118.495-37.268 165.886s23.866 51.733 39.28 61.297 19.093 41.386 19.093 41.386-69.807 14.499-74.776 1.492-1.745-60.047-4.797-65.172-24.528-6.218-15.552-29.611 26.554-111.609 16.535-175.059c0 0 78.252-63.26 89.122-133.597s23.046-195.597 85.639-162.76 120.908 152.906 120.908 152.906Z" class="colord3cba9 svgShape"/><path fill="#1a1a1a" d="M927.119 1123.487s-33.373-53.708-96.04-33.049-25.422 326.821-293.728 206.16c0 0 114.464 29.017 168.972-29.822 0 0-197.133 101.43-221.323-100.05 0 0 93.264 68.021 156.357-19.532s178.464-209.71 317.112-70.144-31.35 46.437-31.35 46.437Z" class="color1a1a1a svgShape"/><path fill="#d3cba9" d="M2113.606 1755.222c-1.435 21.216-58.696 20.367-78.774 19.848-20.08-.519-28.9-10.853-32.503-32.697a32.275 32.275 0 0 0-1.126-4.624c-5.838-19.254-26.634-32.416-26.634-32.416-79.692-6.187-73.213-53.806-78.359-69.474-5.147-15.668-76.52-72.606-76.52-72.606-43.063 1.173-62.475-44.54-62.475-44.54l-173.45-108.549c-188.255 17.85-498.469-108.731-498.469-108.731-91.33 107.996-237.513 124.747-237.513 124.747s-36.017 124.037-35.179 176.11 26.651 103.377 26.87 106.356a26.031 26.031 0 0 0 1.84 4.643c5.118 11.392 19.412 38.938 19.412 38.938-26.627 20.004-88.302 12.49-88.302 12.49s-16.633-26.376-17.576-43.066a15.779 15.779 0 0 1 .078-3.786c1.806-16.18 21.813-43.755 22.698-58.87.884-15.113-33.644-34.609-18.487-74.808 15.08-40.264 21.679-126.976 19.475-156.91s30.235-25.262 65.654-76.01c35.348-50.742 17.996-123.709 42.942-220.828s109.232-96.334 182.01-101.69c72.85-5.362 323.808-29.825 360.037-41.477 36.223-11.724 60.717-33.568 60.717-33.568 19.317-105.763 161.81-322.863 183.883-349.521a69.429 69.429 0 0 1 15.276-13.392 102.21 102.21 0 0 1 18.136-9.394 145.537 145.537 0 0 1 34.404-9.307c35.48-70.294 86.427-66.057 86.427-66.057a18.179 18.179 0 0 0-1.166 1.584 109.068 109.068 0 0 0-20.412 77.315c.302 2.189.533 3.384.533 3.384 2.325 1.54 4.507 3.092 6.685 4.572 5.948 4.27 11.33 8.58 16.208 12.857 46.986 41.473 45.176 82.758 57.669 109.082 3.71 7.786 9.603 19.05 16.218 31.4 4.218 7.891 8.75 16.187 13.278 24.412 15.64 28.375 30.799 55.074 30.799 55.074 8.244 16.082 38.499 19.204 40.683 30.455 2.178 11.18-15.503 25.817-15.503 25.817-17.63 41.451-44.085 45.396-44.085 45.396s3.453 19.786-10.669 27.53c-14.193 7.748-37.824-22.607-37.824-22.607l-19.785 3.454c2.86 29.173-19.523 34.173-53.94 2.615-34.416-31.557-41.23-69.854-41.23-69.854l-9.605-5.498-34.395-19.649a153.418 153.418 0 0 0-4.208 10.651c-19.29 54.767-7.483 125.075 16.838 160.942 25.847 38.179 75.23 95.737 82.458 207.533 7.231 111.796-93.392 161.352-93.392 161.352l74.274 82.756c42.29 2.878 50.155 54.505 58.062 66.975 7.973 12.393 144.026 144.804 174.254 146.573 27.58 1.68 44.342 25.907 47 30.061a6.529 6.529 0 0 0 .402.612s37.8 23.25 36.361 44.395Z" class="colord3cba9 svgShape"/><path d="M1921.466 834.65c29.365 10.39 33.263 22.655 25.039 53.358-4.042 14.846-3.995 25.184-1.37 31.766-9.215 6.598-16.13 7.606-16.13 7.606a32.63 32.63 0 0 1 .308 4.185c-8.825-3.629-29.59-14.44-37.602-38.027-10.222-30.343 27.262 8.977 40.12-14.008 12.856-22.983-6.468-33.614-33.811-30.104-27.342 3.51-5.848-25.173 23.446-14.777ZM1949.693 829.576l-.089-1.206c10.002 13.813 36.925 17.18 38.99 27.798 2.177 11.18-15.504 25.817-15.504 25.817s1.956-28.671-23.397-52.409Z" style="mix-blend-mode:soft-light" opacity=".3" fill="#000000" class="color000 svgShape"/><path d="M2077.245 1710.827a6.529 6.529 0 0 1-.402-.612c-2.25-3.471-14.385-21.05-34.477-27.56 22.504 25.731 36.736 42.728 35.647 43.45-4.412 3.035-46.608 20.832-46.608 20.832s-28.679-35.974-39.708-49.212c-10.96-13.243-32.195-11.038-52.173-18.91s-21.887-42.537-31.47-54.526c-9.585-11.99-59.96-79.173-91.435-79.496-31.41-.398-43.908-33.568-54.329-48.207-10.415-14.567-57.874-41.17-116.735-78.275-58.935-37.17-137.06-99.601-205.09-133.392-68.025-33.72-45.15-68.852-26.36-158.529 18.794-89.606 46.726-127.75 96.44-124.776 49.72 3.045 122.259 80.65 174.056 130.328s-2.5 147.245-2.5 147.245c-35.11 41.382 31.616 93.312 31.616 93.312l11.805 10.186c12.198-6.746 70.243-41.757 86.945-110.384-25.97-1.083-48.283-33.889-54.917-76.549-9.59-61.485-51.396-98.49-85.7-169.21-33.199-68.305-26.745-172.479-26.313-179.215-24.23 104.912 19.288 206.834 21.71 211.648 2.352 4.82-62.109-12.474-86.112-106.989-24.001-94.515 75.5-282.348 81.558-213.614 4.737 53.711 38.476 102.222 52.975 120.91.512-1.75 1.097-3.504 1.681-5.259 1.3-3.661 2.68-7.186 4.208-10.65l34.395 19.648 9.606 5.498s6.813 38.296 41.23 69.854c34.416 31.558 56.799 26.558 53.94-2.615l19.784-3.454s23.63 30.355 37.824 22.607a21.303 21.303 0 0 0 3.39-2.39c-31.074-2.634-48.047-52.021-54.619-75.43-5.204-18.374-14.773-44.7-46.308-70.05a171.282 171.282 0 0 0-16.784-11.96c-2.695-1.727-5.46-3.448-8.44-5.155-6.849-3.918-14.408-7.783-22.672-11.525-.663-.308-1.258-.621-1.92-.929-40.482-18.987-52.154-47.725-50.968-78.123a98.07 98.07 0 0 1 1.294-13.432c.174-1.51.412-3.098.724-4.69 2.423-13.586 6.696-27.237 11.518-40.216a130.19 130.19 0 0 1 2.08-5.644c19.105-49.547 70.889-50.435 70.889-50.435a109.068 109.068 0 0 1 20.412-77.315 18.179 18.179 0 0 1 1.166-1.584s-50.948-4.237-86.427 66.057a145.537 145.537 0 0 0-34.404 9.307 102.21 102.21 0 0 0-18.136 9.394 69.429 69.429 0 0 0-15.276 13.392c-22.073 26.658-164.566 243.758-183.883 349.521 0 0-24.494 21.844-60.717 33.568-36.229 11.652-287.186 36.114-360.037 41.477-72.778 5.356-157.065 4.571-182.01 101.69s-7.594 170.086-42.942 220.828c-35.42 50.748-67.857 46.075-65.654 76.01s-4.395 116.646-19.475 156.91c-15.157 40.2 19.371 59.695 18.487 74.809-.885 15.114-20.892 42.689-22.698 58.869a15.779 15.779 0 0 0-.078 3.786c.943 16.69 17.577 43.067 17.577 43.067s61.674 7.513 88.301-12.49c0 0-6.82-13.192-12.754-25.022l-27.563 17.933s-38.927-38.572-32.13-109.964-.323-149.747 13.189-184.19 76.846-81.898 87.346-121.397c10.425-39.565 72.288-307.573 176.426-237.643 0 0 50.001 97.95 20.476 169.66-29.455 71.705-120.15 111.758-189.285 135.604-69.072 23.77-70.295 43.972-74.127 82.98-1.355 13.58-2.222 34.754-1.933 58.054 10.395-53.541 27.412-112.064 27.412-112.064s146.184-16.75 237.513-124.746c0 0 310.214 126.581 498.469 108.731l173.45 108.548s19.412 45.714 62.475 44.541c0 0 71.373 56.938 76.52 72.606 5.146 15.668-1.333 63.287 78.36 69.474 0 0 20.795 13.162 26.633 32.416a32.275 32.275 0 0 1 1.126 4.624c3.603 21.844 12.424 32.178 32.503 32.697 20.078.52 77.34 1.368 78.774-19.848 1.439-21.145-36.36-44.395-36.36-44.395Zm-625.759-330.438c-2.798 16.253-204.045-29.057-271.902-78.907s-56.83-172.333-56.83-172.333c-.658-64.14 40.937 29.08 134.706 67.61 93.773 38.6 196.893 167.372 194.026 183.63Z" style="mix-blend-mode:soft-light" opacity=".3" fill="#000000" class="color000 svgShape"/><path fill="#fafafa" d="m1880.513 932.304-18.728 3.305-1.058.149c-43.619-10.27-48.103-68.279-48.534-78.018l-.1-1.347c38.37-24.22 68.42 75.911 68.42 75.911Z" class="colorfafafa svgShape"/><path fill="#4f341d" d="M1917.111 770.64c-27.798 6.04-130.486 32.354-151.553 97.88l-9.605-5.5c6.705-31.017 34.791-109.682 147.88-116.793 4.218 7.891 8.75 16.187 13.278 24.412ZM1721.557 843.372a153.418 153.418 0 0 0-4.208 10.651c-13.794-23.661-52.049-100.58-15.813-171.215a128.965 128.965 0 0 1 12.956-20.71l-.005-.07c19.422-25.821 50.81-49.955 99.25-69.14 5.95 4.27 11.33 8.58 16.209 12.857-42.468 13.11-161.731 66.178-108.389 237.627Z" class="color4f341d svgShape"/><path fill="#490200" d="m1717.164 675.167-7.464 20.662c-3.179-2.476-5.868-7.057-8.164-13.021-8.544-22.122-11.442-63.417-12.405-92.017a102.21 102.21 0 0 1 18.136-9.394c-.96 31.523 3.878 63.332 7.22 80.63l.005.071c1.527 8.161 2.672 13.07 2.672 13.07Z" class="color490200 svgShape"/><path fill="#4f341d" d="m1720.564 684.641 68.067 125.371 15.597-15.189-73.407-134.339-10.257 24.157z" class="color4f341d svgShape"/><path d="M1820.8 807.04c-24.861 14.953-46.776 35.038-55.242 61.48l-9.605-5.5a149.96 149.96 0 0 1 28.476-60.791 123.445 123.445 0 0 1 11.147-12.303c2.979 1.707 5.744 3.428 8.44 5.156a171.282 171.282 0 0 1 16.783 11.958ZM1733.55 641.011c-4.821 12.979-9.094 26.63-11.517 40.217a61.098 61.098 0 0 0-.724 4.689 98.07 98.07 0 0 0-1.294 13.432c-14.41 34.866-17.89 81.551 1.542 144.023a153.418 153.418 0 0 0-4.208 10.651c-13.794-23.661-52.049-100.58-15.813-171.215a128.965 128.965 0 0 1 12.956-20.71l-.005-.07a159.383 159.383 0 0 1 19.064-21.017Z" style="mix-blend-mode:soft-light" opacity=".3" fill="#000000" class="color000 svgShape"/><path fill="#4f341d" d="m1717.164 675.167-7.464 20.662c-3.179-2.476-5.868-7.057-8.164-13.021-8.544-22.122-11.442-63.417-12.405-92.017a102.21 102.21 0 0 1 18.136-9.394c-.96 31.523 3.878 63.332 7.22 80.63l.005.071c1.527 8.161 2.672 13.07 2.672 13.07Z" class="color4f341d svgShape"/><path d="M1722.033 681.228a61.098 61.098 0 0 0-.724 4.689l-.739-1.3ZM1804.015 795.082l-15.379 14.896-4.207-7.75-13.447-24.756c.664.308 1.258.62 1.921.929 8.264 3.742 15.823 7.607 22.673 11.525 2.979 1.707 5.744 3.428 8.44 5.156Z" style="mix-blend-mode:soft-light" opacity=".3" fill="#000000" class="color000 svgShape"/><circle cx="1795.491" cy="807.835" r="21.005" fill="#e0ceb7" transform="rotate(-49.21 1795.49 807.835)" class="colore0ceb7 svgShape"/><circle cx="1722.455" cy="669.458" r="21.005" fill="#e0ceb7" transform="rotate(-82.625 1722.455 669.458)" class="colore0ceb7 svgShape"/><ellipse cx="1809.623" cy="686.444" rx="10.002" ry="19.004" transform="rotate(-4.211 1809.52 686.46)" fill="#000000" class="color000 svgShape"/><path d="m1861.785 935.609-1.058.149c-43.619-10.27-48.103-68.279-48.534-78.018a6.567 6.567 0 0 1 .76.657s46.437 61.127 48.832 77.212Z" fill="#000000" class="color000 svgShape"/><path fill="#9e9778" d="M1907.105 848.095c2.887.174 5.407-.63 8.278-1.13a20.883 20.883 0 0 1 9.247.177 16.146 16.146 0 0 1 8.311 5.616 29.87 29.87 0 0 1 5.815 17.779 15.445 15.445 0 0 1-3.803 9.443c-4.843 5.137-11.578 5.848-17.127 4.769 5.394-1.766 10.503-4.377 12.739-8.167a12.01 12.01 0 0 0 1.446-6.164 28.833 28.833 0 0 0-1.493-7.025c-1.609-4.874-3.787-9.077-7.783-11.056a23.056 23.056 0 0 0-7.287-1.9c-2.674-.454-5.899-.626-8.343-2.342ZM1928.988 927.388a37.624 37.624 0 0 1-10.47-5.338 54.879 54.879 0 0 1-8.775-7.553 50.51 50.51 0 0 1-7.003-9.287 33.019 33.019 0 0 1-4.277-11.012 96.948 96.948 0 0 1 8.64 7.582c2.739 2.527 5.27 5.172 7.816 7.84 2.523 2.686 4.997 5.429 7.344 8.362a72.359 72.359 0 0 1 6.725 9.406ZM1573.941 1009.016a139.957 139.957 0 0 1 23.862 11.903 188.162 188.162 0 0 1 21.765 15.465 151.963 151.963 0 0 1 19.053 18.865c5.673 6.934 10.723 14.524 13.954 22.865-5.783-6.82-11.774-13.05-18.012-19.078-6.317-5.943-12.853-11.637-19.536-17.183-6.63-5.618-13.534-10.931-20.374-16.39-6.893-5.395-13.811-10.797-20.712-16.447ZM1702.357 1118.579c9.954 7.649 17.037 18.683 22.092 30.246 5.08 11.666 7.64 24.29 8.654 36.9 1.055 12.665-.295 25.318-2.447 37.669-1.191 6.16-2.995 12.186-4.562 18.216-2.15 5.884-4.287 11.744-6.71 17.463.917-6.196 2.135-12.247 3.315-18.28.745-6.121 1.774-12.163 2.468-18.223.245-6.108 1.397-12.126 1.167-18.21l.2-9.085-.521-9.048a145.001 145.001 0 0 0-6.727-35.426c-3.906-11.392-9.128-22.528-16.929-32.222ZM1778.885 1268.066c1.166 10.962-.066 22.132-2.485 33.004a159.51 159.51 0 0 1-11.876 31.163 219.818 219.818 0 0 1-17.447 28.399 229.298 229.298 0 0 1-21.381 25.672l-2.64 2.673-2.475-2.84c-12.35-14.18-24.593-28.455-36.573-42.96-6.032-7.216-11.95-14.532-17.838-21.874-5.8-7.419-11.747-14.71-17.393-22.265 6.761 6.576 13.222 13.415 19.828 20.127 6.518 6.79 13.007 13.604 19.382 20.519 12.833 13.756 25.404 27.742 37.866 41.825l-5.114-.168a273.46 273.46 0 0 0 20.816-24.769 256.718 256.718 0 0 0 17.87-27.07 185.625 185.625 0 0 0 13.453-29.457 117.38 117.38 0 0 0 6.007-31.98ZM1583.741 1410.136a320.691 320.691 0 0 1-39.645-15.109 368.163 368.163 0 0 1-37.672-19.694c-12.098-7.43-23.91-15.506-34.501-25.168a107.208 107.208 0 0 1-14.586-15.796c-4.118-5.854-7.9-12.215-9.297-19.219a58.963 58.963 0 0 0 11.97 16.98 137.33 137.33 0 0 0 15.496 13.796 355.701 355.701 0 0 0 34.598 23.326c11.916 7.28 24.168 14.059 36.459 20.827ZM1085.304 1301.398a59.373 59.373 0 0 0 6.786-11.996 103.168 103.168 0 0 0 4.652-12.739 135.523 135.523 0 0 0 4.661-26.631c1.01-9.004.775-18.125.79-27.295-.272-4.573-.41-9.181-.592-13.812-.33-4.615-.685-9.247-.73-13.98 1.592 4.413 2.877 8.929 4.184 13.461a260.755 260.755 0 0 1 2.67 13.873 130.427 130.427 0 0 1 .758 28.39c-.905 9.47-2.763 18.98-6.527 27.835-1.007 2.183-1.955 4.386-3.079 6.499-1.256 2.058-2.326 4.187-3.768 6.117a39.945 39.945 0 0 1-9.805 10.278Z" class="color9e9778 svgShape"/><path fill="#cc592b" d="M1280.972 1170.99s-22.62 128.703-7.926 201.17l44.303 11.448s-8.471-160.514 6.645-200.406-43.022-12.212-43.022-12.212Z" class="colorcc592b svgShape"/><path d="M1324.004 1183.23c-2.933 7.634-4.903 19.618-6.332 34.13l-21.574 4.37s-29.663 129.916 20.09 134.385c.59 16.716 1.17 27.514 1.17 27.514l-44.281-11.504c-14.746-72.445 7.877-201.13 7.877-201.13s58.156-27.674 43.05 12.236Z" style="mix-blend-mode:soft-light" opacity=".3" fill="#000000" class="color000 svgShape"/><path d="M860.726 1752.227c-26.627 20.004-88.302 12.49-88.302 12.49s-16.633-26.376-17.576-43.066c17.568 1.274 57.752 2.667 86.466-8.362 5.118 11.391 19.412 38.938 19.412 38.938ZM2113.606 1755.222c-1.435 21.216-58.696 20.367-78.774 19.848-20.08-.519-28.9-10.853-32.503-32.697a32.275 32.275 0 0 0-1.126-4.624c39.96-4.582 63.186-17.488 75.64-27.534a6.529 6.529 0 0 0 .402.612s37.8 23.25 36.361 44.395Z" fill="#000000" class="color000 svgShape"/><path fill="#938a65" d="M1806.52 584.932c-9.994 2.804-23.306 5.068-25.87-1.662-3.806-10.06 38.53-65.668 46.282-75.653a109.068 109.068 0 0 0-20.412 77.315Z" class="color938a65 svgShape"/><path fill="#de6e3b" d="M1442.382 983.931s-38.628 20.227-45.997 83.62-32.967 133.476-86.756 129.412-114.056-59.805-134.813-123.801-63.384-46.986-63.384-46.986 1.902-43.433 58.408-56.953 131.714 9.027 186.303-12.375 88.933-45.326 86.24 27.083Z" class="colorde6e3b svgShape"/><path d="M1130.465 988.795c8.34-7.817 20.78-15.152 39.355-19.586 56.56-13.506 131.751 9.06 186.304-12.357 20.243-7.91 37.744-16.258 51.601-19.845-27.456 21.348-44.682 81.883-43.943 114.207.88 39.09-22.557 115.986-59.107 110.688-36.484-5.373-71.008-51.971-105.605-126.664-20.604-44.485-49.01-49.597-68.605-46.443Z" style="mix-blend-mode:soft-light" opacity=".3" fill="#000000" class="color000 svgShape"/><path d="M1442.512 973.6c.022 3.208-.011 6.634-.095 10.35 0 0-38.667 20.176-46.05 83.623-7.318 63.371-32.97 133.441-86.756 129.412-53.791-4.1-114.025-59.86-134.778-123.804-4.704-14.488-10.397-24.981-16.373-32.529 14.947 13.164 27.784 31.546 31.375 45.474 7.017 27.513 62.21 109.747 123.993 104.201s70.506-91.486 80.298-149.334c6.442-38.416 32.001-58.412 48.386-67.392Z" style="mix-blend-mode:soft-light" opacity=".3" fill="#000000" class="color000 svgShape"/><path d="M1268.07 1213.023c-42.926 49.517-76.378 21.383-76.378 21.383l14.073-27.78c14.809-2.303 42.569-11.763 71.84-49.15-7.465 18.736-16.614 38.809-9.535 55.547Z" style="mix-blend-mode:soft-light" opacity=".3" fill="#000000" class="color000 svgShape"/><path fill="#e5a488" d="M1413.657 853.567s23.78 28.176 40.19 22.614 12.652-28.605 12.652-28.605-16.997-18.915-18.32-18.738-46.048-2.243-46.048-2.243l-6.181 16.638Z" class="colore5a488 svgShape"/><path fill="#e5a488" d="M1474.934 857.874a1.606 1.606 0 0 1-.165.245l-.064.083a.767.767 0 0 1-.239.255 1.334 1.334 0 0 1-.402.327 1.52 1.52 0 0 1-.558.273 2.148 2.148 0 0 1-.575.152c-4.196.685-12.902-5.462-18.85-16.365 0 0-26.398 17.59-47.724-2.83l-.003-.024c-5.041-18.387 5.93-37.903 11.57-46.318.235.093.447.189.706.278.73.274 1.569.608 2.487.98.627.239 1.257.501 1.939.782.703.253 1.412.555 2.147.853 10.93 4.435 27.782 11.623 35.009 16.53a9.881 9.881 0 0 1 1.249.998 21.047 21.047 0 0 1 3.525 4.113c7.992 11.92 12.01 35.996 9.948 39.668Z" class="colore5a488 svgShape"/><path d="m1474.769 858.12-.064.082a.767.767 0 0 1-.238.255 1.334 1.334 0 0 1-.403.327 1.52 1.52 0 0 1-.558.273 2.148 2.148 0 0 1-.575.152c-4.196.685-12.902-5.462-18.85-16.365 0 0-26.398 17.59-47.724-2.83l-.003-.024c-5.041-18.387 5.93-37.903 11.57-46.318.235.093.447.189.706.278.73.274 1.569.608 2.487.98.627.239 1.257.501 1.939.782.703.253 1.412.555 2.147.853-4.147 5.686-9.744 15.161-8.236 23.09 2.249 11.796 30.604 17.517 44.494-5.562a21.047 21.047 0 0 1 3.525 4.113c-3.126 3.865-6.567 9.085-6.055 12.908.734 5.48 8.447 23.459 15.838 27.005Z" style="mix-blend-mode:soft-light" opacity=".3" fill="#000000" class="color000 svgShape"/><path d="M1413.657 853.567a79.314 79.314 0 0 1-26.508.943 69.115 69.115 0 0 1-36.395-15.464c-27.556-23.193-63.549-68.668-63.549-68.668l2.958-149.296s16.147 19.464 30.78 40.16c-1.306 16.732-1.7 38.731 1.625 60.695a157.51 157.51 0 0 0 6.997 28.3 103.68 103.68 0 0 0 12.87 25.675c10.189 14.515 20.335 25.244 29.884 33.031 12.7 10.53 24.274 15.816 32.886 18.124-.636 8.865 1.355 18.239 8.452 26.5Z" style="mix-blend-mode:soft-light" opacity=".3" fill="#000000" class="color000 svgShape"/><path d="M1329.565 750.236c-4.372-6.833-6.375-16.992-6.997-28.299a157.51 157.51 0 0 0 6.997 28.3Z" style="mix-blend-mode:soft-light" opacity=".3" fill="#000000" class="color000 svgShape"/><path fill="#e75967" d="M1157.29 987.649c7.487 5.888 22.584 19.428 39.363 34.778 11.733 10.765 24.307 22.498 35.745 33.138-21.741-58.454 25.106-114.637 48.024-137.555a176.67 176.67 0 0 1-49.495 15.138c-20.775 3.28-45.166 3.49-73.047-1.934 0 0-23.045 38.689-.59 56.435Z" class="colore75967 svgShape"/><path fill="#76a52b" d="M1157.29 987.649c7.487 5.888 22.584 19.428 39.363 34.778 11.733 10.765 24.307 22.498 35.745 33.138 21.28 19.89 38.436 36.165 38.436 36.165s-98.151 179.777 39.025 237.726c0 0 134.95-130.364 114.3-260.897-6.18-38.983-26.199-77.924-67.789-113.417a.041.041 0 0 0-.042-.042q-9.462-8.138-20.437-15.938l.588-.294 32.128-15.098a28.381 28.381 0 0 0-7.4-15.938c-6.77-7.653-19.808-14.887-44.703-13.835a45.962 45.962 0 0 1-3.448 3.196 143.012 143.012 0 0 1-24.223 16.527s0-.042-.042 0a170.583 170.583 0 0 1-8.369 4.29 176.67 176.67 0 0 1-49.495 15.138c-20.775 3.28-45.166 3.49-73.047-1.934 0 0-23.045 38.689-.59 56.435Z" class="color76a52b svgShape"/><path d="M1157.29 987.649c7.487 5.888 22.584 19.428 39.363 34.778 11.733 10.765 24.307 22.498 35.745 33.138 21.28 19.89 38.436 36.165 38.436 36.165s148.153 2.355 90.751-119.725c3.238 3.449 81.667 90.036-7.948 143.36 0 0 48.866-7.865 63.879-51.263 0 0 2.355 63.08-57.57 67.83-59.926 4.711-89.112-40.202-89.112-40.202s-4.457 8.159-10.134 21.574c8.999 20.185 37.512 69.892 96.89 60.43 48.277-7.738 63.08-36.839 67.538-56.225v-.042a183.429 183.429 0 0 0-.969-48.908c-6.18-38.983-26.199-77.924-67.789-113.417a.041.041 0 0 0-.042-.042q-9.462-8.137-20.437-15.938l.588-.294 32.128-15.098a28.381 28.381 0 0 0-7.4-15.938c-6.77-7.653-19.808-14.886-44.703-13.835a45.962 45.962 0 0 1-3.448 3.196 143.012 143.012 0 0 1-24.223 16.527h-.042a170.583 170.583 0 0 1-8.369 4.29 176.67 176.67 0 0 1-49.495 15.138c-20.775 3.28-45.166 3.49-73.047-1.934 0 0-23.045 38.689-.59 56.435Zm127.759-60.725-3.154 123.005c.798 0 27.797-.756 41.001-109.59 0 0 70.943 132.468-59.169 133.225 0 0-34.693-81.205 21.322-146.64Zm-25.148 188.23c-21.11 50.59-56.688 169.263 49.959 214.302 0 0 14.718-14.214 33.684-37.932-91.55 5.173-77.335-122.71-77.335-122.71 19.596 84.947 76.998 84.148 110.978 75.274a388.182 388.182 0 0 0 26.83-50.589c-96.176 64.761-134.612-43.736-144.116-78.345Z" style="mix-blend-mode:soft-light" opacity=".25" fill="#000000" class="color000 svgShape"/><path fill="#ce3e3e" d="M1157.29 987.649c7.487 5.888 22.584 19.428 39.363 34.778 11.733 10.765 24.307 22.498 35.745 33.138-21.741-58.454 25.106-114.637 48.024-137.555a176.67 176.67 0 0 1-49.495 15.138c-20.775 3.28-45.166 3.49-73.047-1.934 0 0-23.045 38.689-.59 56.435Z" class="colorce3e3e svgShape"/><path fill="#ffbb00" d="M1232.398 1055.565c-21.741-58.454 25.106-114.637 48.024-137.555a176.67 176.67 0 0 1-49.495 15.138c-15.729 23.382-32.55 55.762-34.274 89.279 11.733 10.765 24.307 22.498 35.745 33.138Z" class="colorfb0 svgShape"/><path fill="#ce3e3e" d="M1288.833 913.72a184.553 184.553 0 0 1 47.646 25.148 210.737 210.737 0 0 1 19.85 16.232.041.041 0 0 1 .041.042c25.736 23.76 51.936 59.715 67.79 113.417.42 1.388.8 2.818 1.22 4.247 0 0 29.647-126.2-64.173-164.974-13.374-5.508-29.27-9.294-48.151-10.64a143.012 143.012 0 0 1-24.223 16.528Z" class="colorce3e3e svgShape"/><path d="M1288.833 913.72a184.553 184.553 0 0 1 47.646 25.148 210.737 210.737 0 0 1 19.85 16.232.041.041 0 0 1 .041.042c25.736 23.76 51.936 59.715 67.79 113.417.42 1.388.8 2.818 1.22 4.247a166.608 166.608 0 0 0 2.775-16.653c-16.527-101.726-73.971-143.99-95.502-156.521a179.356 179.356 0 0 0-19.597-2.44 143.012 143.012 0 0 1-24.223 16.528Z" style="mix-blend-mode:soft-light" opacity=".25" fill="#000000" class="color000 svgShape"/><path d="M1426.94 851.553c10.825 5.113 21.494 10.515 32.224 15.805 10.758 5.237 21.302 10.869 31.964 16.284l-1.333-.295c22.929-2.055 45.877-3.808 68.834-5.404q34.437-2.392 68.903-4.316 34.467-1.915 68.972-3.197 34.495-1.48 69.054-1.91-34.343 3.89-68.75 6.734-34.394 3.09-68.832 5.449-34.437 2.381-68.902 4.33c-22.977 1.285-45.964 2.414-68.97 3.241l-.778.028-.556-.323c-10.342-6.004-20.801-11.791-31.046-17.973-10.273-6.13-20.608-12.146-30.785-18.453Z" fill="#000000" class="color000 svgShape"/><path fill="#ffbb00" d="M1349.184 1401.42a.582.582 0 0 1-.169.126 5.5 5.5 0 0 1-.672.379c-13.121 6.224-41.844-12.953-49.244-18.125-7.402-5.13-4.374-20.312-14.635-22.415a24.185 24.185 0 0 1-15.013-9.84l10.977-25.905 2.564-5.971a24.789 24.789 0 0 1 5.425-2.271l21.53 11.564a3.63 3.63 0 0 1 .296.505 3.579 3.579 0 0 1 .378.589.944.944 0 0 1 .21.337c.21.294.42.63.673 1.05.336.505.673 1.052 1.052 1.683.504.883 1.135 1.892 1.85 3.027a102.859 102.859 0 0 1 2.565 4.248 594.963 594.963 0 0 1 7.906 13.625 694.442 694.442 0 0 1 3.49 6.266c3.323 6.056 6.686 12.49 9.756 18.84 2.019 4.247 3.954 6.939 5.762 8.452a8.154 8.154 0 0 0 1.051.757 6.378 6.378 0 0 0 .925.463c7.402 3.027 12.196-13.12 12.196-13.12s3.28 19.134-8.873 25.736Z" class="colorfb0 svgShape"/><path fill="#ed9c1b" d="M1349.184 1401.42a.582.582 0 0 1-.169.126 5.5 5.5 0 0 1-.672.379c-13.121 6.224-41.844-12.953-49.244-18.125-7.402-5.13-4.374-20.312-14.635-22.415a24.185 24.185 0 0 1-15.013-9.84l10.977-25.905 2.564-5.971a24.789 24.789 0 0 1 5.425-2.271l21.53 11.564a3.63 3.63 0 0 1 .296.505 3.579 3.579 0 0 1 .378.589.944.944 0 0 1 .21.337c.21.294.42.63.673 1.05.336.505.673 1.052 1.052 1.683.504.883 1.135 1.892 1.85 3.027a102.859 102.859 0 0 1 2.565 4.248 594.963 594.963 0 0 1 7.906 13.625 694.442 694.442 0 0 1 3.49 6.266c3.323 6.056 6.686 12.49 9.756 18.84 2.019 4.247 3.954 6.939 5.762 8.452a8.154 8.154 0 0 0 1.051.757 6.378 6.378 0 0 0 .925.463c7.402 3.027 12.196-13.12 12.196-13.12s3.28 19.134-8.873 25.736Z" class="colored9c1b svgShape"/><path d="M1358.057 1375.684v.252c0 1.556-.21 10.723-5.551 14.97-3.154 2.566-4.584 7.444-3.322 10.514a.582.582 0 0 1-.169.126 5.5 5.5 0 0 1-.672.379c-13.121 6.224-41.844-12.953-49.244-18.125-7.402-5.13-4.374-20.312-14.635-22.415a24.185 24.185 0 0 1-15.013-9.84l10.976-25.905 2.565-5.971a24.789 24.789 0 0 1 5.425-2.271l21.53 11.564a3.63 3.63 0 0 1 .296.505 3.579 3.579 0 0 1 .378.589.944.944 0 0 1 .21.337c.21.294.42.63.673 1.05.336.505.673 1.052 1.052 1.683.546.883 1.177 1.892 1.85 3.027a102.859 102.859 0 0 1 2.565 4.248 461.961 461.961 0 0 1 7.948 13.625h-.042c-4.583-.21-10.05.295-12.784 3.701-1.094 1.345-1.261 3.406-.757 5.93 1.808 9.461 13.079 24.853 20.312 26.45 5.13 1.094 9.251.085 12.237-2.523a8.154 8.154 0 0 0 1.051.757 6.378 6.378 0 0 0 .925.463c7.402 3.027 12.196-13.12 12.196-13.12Z" style="mix-blend-mode:soft-light" opacity=".44" fill="#000000" class="color000 svgShape"/><path fill="#e89c7c" d="M1328.368 1360.292c-.758 3.953-2.23 7.948-5.048 9.63-1.85 1.136-6.433-1.597-11.984-6.266a160.813 160.813 0 0 1-22.582-24.012 49.705 49.705 0 0 1-1.346-1.808 70.985 70.985 0 0 1-4.458-6.729c-.337-.589-.672-1.135-.925-1.682a24.34 24.34 0 0 1-.883-1.85 15.662 15.662 0 0 1-.715-1.935l2.565-5.971a24.789 24.789 0 0 1 5.425-2.271l21.53 11.564a3.63 3.63 0 0 1 .296.505 3.579 3.579 0 0 1 .378.589.944.944 0 0 1 .21.337c.21.294.42.63.673 1.05.336.505.673 1.052 1.052 1.683.504.883 1.135 1.892 1.85 3.027a102.859 102.859 0 0 1 2.565 4.248 594.963 594.963 0 0 1 7.906 13.625 694.442 694.442 0 0 1 3.49 6.266Z" class="colore89c7c svgShape"/><path d="M1324.919 1354.026h-.042c-4.583-.21-10.05.295-12.784 3.701-1.094 1.345-1.261 3.406-.757 5.93a160.813 160.813 0 0 1-22.582-24.013 49.705 49.705 0 0 1-1.346-1.808 70.985 70.985 0 0 1-4.458-6.729c-.337-.589-.672-1.135-.925-1.682a24.34 24.34 0 0 1-.883-1.85 15.662 15.662 0 0 1-.715-1.935l2.565-5.971a24.789 24.789 0 0 1 5.425-2.271l21.53 11.564a3.63 3.63 0 0 1 .296.505 3.579 3.579 0 0 1 .378.589.944.944 0 0 1 .21.337c.21.294.42.63.673 1.05.336.505.673 1.052 1.052 1.683.546.883 1.177 1.892 1.85 3.027a102.859 102.859 0 0 1 2.565 4.248 461.961 461.961 0 0 1 7.948 13.625Z" style="mix-blend-mode:soft-light" opacity=".44" fill="#000000" class="color000 svgShape"/><path fill="#995036" d="M1236.009 551.1s37.492 12.69 63.04 35.567c0 0 32.445 64.849 19.576 121.337 0 0 19.855 122.48-5.379 196.532 0 0-37.376 51.547-155.164 28.106 0 0 5.951-43.89-47.45-85.444s-62.47-69.659-62.47-69.659-5.631-64.106-55.115-126.015c0 0 44.225-68.978 106.727-90.27 0 0 101.345 68.675 136.235-10.155Z" class="color995036 svgShape"/><path d="M1048.173 777.542s9.057 28.102 62.462 69.65 47.45 85.444 47.45 85.444c117.785 23.447 155.155-28.103 155.155-28.103 4.648-13.635 7.755-28.9 9.755-44.736l.014-.025c-4.392-87.333-39.239-126.31-39.239-126.31 19.445-1.807 30.601-6.788 36.855-11.158-1.155-9.03-2.004-14.3-2.004-14.3a118.868 118.868 0 0 0 2.276-13.811c-80.19 45.837-86.388-80.893-86.388-80.893 22.047-16.797 47.697-25.116 62.1-28.755-25.408-21.53-60.602-33.435-60.602-33.435-34.89 78.819-136.232 10.149-136.232 10.149-62.499 21.285-106.729 90.265-106.729 90.265 49.487 61.903 55.127 126.018 55.127 126.018Zm168.648 139.576s-33.83-163.133 29.648-169.718c63.5-6.57 62.512 147.263 62.512 147.263-32.084 47.417-92.16 22.455-92.16 22.455Zm-127.734-150.752c28.017 11.756 93.288-5.764 93.288-5.764-26.455 37.164-11.579 86.073-11.579 86.073-75.811-22.745-81.709-80.309-81.709-80.309Zm-37.393-92.744c-16.455-67.537 100.015-63.17 144.623-48.581 0 0 28.465 62.175 11.772 89.287s-139.944 26.81-156.394-40.706Z" style="mix-blend-mode:soft-light" opacity=".3" fill="#000000" class="color000 svgShape"/><path fill="#a5573f" d="m1252.98 764.86 7.39 42.655c1.07 6.18 5.323 10.696 9.469 10.28l18.387-1.845c4.445-.446 7.174-7.1 5.45-13.67-3.56-13.566-11.913-36.014-29.825-50.167-6.717-5.307-12.746 1.929-10.871 12.747ZM1266.66 842.096l3.099 17.978c1.137 6.598 6.178 10.888 11.209 9.848l2.2-.455c9.95-2.057 16.958-14.01 15.934-27.772l-.319-4.278c-.496-6.66-4.804-11.786-9.7-11.207l-14.931 1.765c-5.323.63-8.704 7.085-7.491 14.12ZM1274.509 887.636l3.716 21.561a4.79 4.79 0 0 0 6.106 4.067c11.057-3.265 18.923-15.793 17.925-29.194l-.221-2.978c-.388-5.205-4.174-8.809-8.521-7.872l-12.194 2.628c-4.67 1.007-7.743 6.38-6.811 11.788ZM1242.646 764.83l8.615 43.402c1.246 6.274-1.35 11.563-5.827 12.012l-21.786 2.187c-5.796.581-12.426-6.238-13.183-14.038-1.552-16-.833-42.152 15.127-57.338 5.49-5.224 14.863 2.738 17.054 13.775ZM1257.927 843.379l3.628 18.195c1.33 6.67-1.986 12.771-7.459 13.902l-2.466.51c-11.73 2.425-25.263-6.892-30.154-22.184l-1.534-4.794c-2.4-7.505.808-14.488 7.141-15.275l17.763-2.204c5.823-.723 11.659 4.72 13.08 11.85ZM1267.106 889.405l4.331 21.717a6.295 6.295 0 0 1-4.27 7.21c-12.395 3.66-26.261-3.782-30.836-18.084l-1.024-3.202c-1.798-5.62 1.153-11.328 6.564-12.528l14.15-3.137c5.052-1.12 9.997 2.57 11.085 8.024Z" class="colora5573f svgShape"/><path fill="#a5573f" d="M1260.367 807.52c1.073 6.184 5.327 10.687 9.469 10.281l18.389-1.85c4.45-.438 7.169-7.093 5.446-13.679-.262-.993-.552-2.021-.852-3.09-3.962-13.672-12.353-33.939-28.967-47.072-6.717-5.304-12.745 1.942-10.878 12.76l7.083 40.893ZM1280.978 869.927l2.193-.47c9.936-2.054 16.948-14.002 15.922-27.764l-.312-4.278a15.61 15.61 0 0 0-1.244-5.108c-1.696-3.963-4.923-6.518-8.448-6.09l-14.938 1.764c-5.312.626-8.711 7.08-7.49 14.113l2.777 16.094.005.02.315 1.864c1.135 6.6 6.185 10.888 11.22 9.855ZM1278.219 909.207a4.79 4.79 0 0 0 6.116 4.05 24.161 24.161 0 0 0 13.488-10.788 30.774 30.774 0 0 0 4.436-18.391l-.233-2.983a10.232 10.232 0 0 0-1.16-4.114c-1.498-2.826-4.277-4.434-7.35-3.771l-12.198 2.648c-4.672.988-7.74 6.37-6.818 11.772l3.165 18.414ZM1223.658 822.435l21.78-2.181c4.465-.463 7.062-5.752 5.83-12.026l-8.623-43.406a26.11 26.11 0 0 0-.843-3.136c-3.14-9.323-11.255-15.343-16.201-10.624-15.871 15.097-16.66 41.007-15.17 57.005.025.016.006.02.006.02.006.107.026.188.032.294.76 7.813 7.39 14.626 13.19 14.054ZM1219.936 849.016l1.539 4.777c4.89 15.299 18.424 24.612 30.162 22.183l2.465-.492c5.463-1.138 8.787-7.25 7.46-13.911l-3.642-18.19a15.302 15.302 0 0 0-.742-2.558c-2.133-5.84-7.23-9.921-12.328-9.304l-17.767 2.216c-5.363.66-8.482 5.753-7.84 11.87a15.951 15.951 0 0 0 .693 3.409ZM1235.308 897.05l1.017 3.2c4.451 13.898 17.678 21.303 29.782 18.354.354-.087.708-.173 1.057-.28a6.28 6.28 0 0 0 4.28-7.208l-4.342-21.706a12.122 12.122 0 0 0-.637-2.13c-1.802-4.238-6.095-6.878-10.454-5.902l-14.147 3.145a9.233 9.233 0 0 0-7.09 9.682 11.963 11.963 0 0 0 .534 2.844Z" class="colora5573f svgShape"/><path d="M1260.367 807.52c1.073 6.184 5.327 10.687 9.469 10.281l18.389-1.85c4.45-.438 7.169-7.093 5.446-13.679-.262-.993-.552-2.021-.852-3.09.778 5.867-1.822 11.308-5.824 11.722l-18.394 1.83c-3.368.347-6.8-2.568-8.544-6.971ZM1280.978 869.927l2.193-.47c9.936-2.054 16.948-14.002 15.922-27.764l-.312-4.278a15.24 15.24 0 0 0-1.23-5.047l.313 4.279c1.025 13.762-5.987 25.71-15.922 27.764l-2.199.45c-4.168.864-8.337-1.914-10.3-6.653l.315 1.864c1.135 6.6 6.185 10.888 11.22 9.855ZM1278.219 909.207a4.79 4.79 0 0 0 6.116 4.05 24.161 24.161 0 0 0 13.488-10.788 30.774 30.774 0 0 0 4.436-18.391l-.233-2.983a10.232 10.232 0 0 0-1.16-4.114l.159 2.03a30.845 30.845 0 0 1-4.436 18.391 24.29 24.29 0 0 1-13.484 10.808 4.653 4.653 0 0 1-5.44-2.166ZM1223.658 822.435l21.78-2.181c4.465-.463 7.062-5.752 5.83-12.026l-8.623-43.406a26.11 26.11 0 0 0-.843-3.136l8.236 41.495c1.233 6.275-1.365 11.564-5.834 12.006l-21.78 2.18c-4.581.47-9.656-3.682-11.987-9.28.006.107.026.188.032.294.76 7.813 7.39 14.626 13.19 14.054ZM1219.936 849.016l1.539 4.777c4.89 15.299 18.424 24.612 30.162 22.183l2.465-.492c5.463-1.138 8.787-7.25 7.46-13.911l-3.642-18.19a15.302 15.302 0 0 0-.742-2.558l3.155 15.701c1.327 6.661-1.997 12.774-7.466 13.89l-2.46.514c-11.737 2.429-25.27-6.884-30.162-22.184l-1.002-3.14a15.951 15.951 0 0 0 .693 3.41ZM1235.308 897.05l1.017 3.2c4.451 13.898 17.678 21.303 29.782 18.354.354-.087.708-.173 1.057-.28a6.28 6.28 0 0 0 4.28-7.208l-4.342-21.706a12.122 12.122 0 0 0-.637-2.13l3.75 18.79a6.297 6.297 0 0 1-4.281 7.208c-.349.107-.703.193-1.057.28-12.104 2.948-25.33-4.456-29.781-18.354l-.323-1a11.963 11.963 0 0 0 .535 2.845Z" opacity=".3" fill="#000000" class="color000 svgShape"/><path d="M1260.367 807.52c1.073 6.184 5.327 10.687 9.469 10.281l18.389-1.85c4.45-.438 7.169-7.093 5.446-13.679-.262-.993-.552-2.021-.852-3.09.778 5.867-1.822 11.308-5.824 11.722l-18.394 1.83c-3.368.347-6.8-2.568-8.544-6.971ZM1280.978 869.927l2.193-.47c9.936-2.054 16.948-14.002 15.922-27.764l-.312-4.278a15.24 15.24 0 0 0-1.23-5.047l.313 4.279c1.025 13.762-5.987 25.71-15.922 27.764l-2.199.45c-4.168.864-8.337-1.914-10.3-6.653l.315 1.864c1.135 6.6 6.185 10.888 11.22 9.855ZM1278.219 909.207a4.79 4.79 0 0 0 6.116 4.05 24.161 24.161 0 0 0 13.488-10.788 30.774 30.774 0 0 0 4.436-18.391l-.233-2.983a10.232 10.232 0 0 0-1.16-4.114l.159 2.03a30.845 30.845 0 0 1-4.436 18.391 24.29 24.29 0 0 1-13.484 10.808 4.653 4.653 0 0 1-5.44-2.166ZM1223.658 822.435l21.78-2.181c4.465-.463 7.062-5.752 5.83-12.026l-8.623-43.406a26.11 26.11 0 0 0-.843-3.136l8.236 41.495c1.233 6.275-1.365 11.564-5.834 12.006l-21.78 2.18c-4.581.47-9.656-3.682-11.987-9.28.006.107.026.188.032.294.76 7.813 7.39 14.626 13.19 14.054ZM1219.936 849.016l1.539 4.777c4.89 15.299 18.424 24.612 30.162 22.183l2.465-.492c5.463-1.138 8.787-7.25 7.46-13.911l-3.642-18.19a15.302 15.302 0 0 0-.742-2.558l3.155 15.701c1.327 6.661-1.997 12.774-7.466 13.89l-2.46.514c-11.737 2.429-25.27-6.884-30.162-22.184l-1.002-3.14a15.951 15.951 0 0 0 .693 3.41ZM1235.308 897.05l1.017 3.2c4.451 13.898 17.678 21.303 29.782 18.354.354-.087.708-.173 1.057-.28a6.28 6.28 0 0 0 4.28-7.208l-4.342-21.706a12.122 12.122 0 0 0-.637-2.13l3.75 18.79a6.297 6.297 0 0 1-4.281 7.208c-.349.107-.703.193-1.057.28-12.104 2.948-25.33-4.456-29.781-18.354l-.323-1a11.963 11.963 0 0 0 .535 2.845Z" opacity=".3" fill="#000000" class="color000 svgShape"/><path fill="#6d311f" d="M1318.625 708.004a88.996 88.996 0 0 1-19.169 13.159 73.727 73.727 0 0 1-22.416 7.654 48.643 48.643 0 0 1-24.208-2.803l-5.669-2.68-5.07-3.632a24.615 24.615 0 0 1-4.634-4.1l-4.32-4.445 7.027-1.368a62.064 62.064 0 0 1-18.851 28.689 50.018 50.018 0 0 1-15.182 8.728 150.39 150.39 0 0 1-15.901 4.84c-10.582 2.695-21.201 4.807-31.892 6.493-10.69 1.682-21.394 3.202-32.245 4.056a157.094 157.094 0 0 1-16.57.602 30.245 30.245 0 0 1-9.124-1.438 55.021 55.021 0 0 1-7.989-3.51 115.85 115.85 0 0 1-26.284-20.178 148.351 148.351 0 0 1-34.27-54.776 186.557 186.557 0 0 0 17.104 27.01 166.796 166.796 0 0 0 21.597 23.047c7.88 6.869 16.416 13.118 25.588 17.481a58.558 58.558 0 0 0 6.825 2.695 21.47 21.47 0 0 0 6.725.787 149.43 149.43 0 0 0 15.527-1.084 535.856 535.856 0 0 0 62.622-10.71 141.53 141.53 0 0 0 14.897-4.347 44.408 44.408 0 0 0 12.75-6.882c7.617-5.914 13.54-14.806 16.94-23.758l2.483-6.534 4.545 5.167 3.54 4.023a19.515 19.515 0 0 0 3.79 3.743l4.138 3.346 4.656 2.504a42.616 42.616 0 0 0 20.936 3.959 71.523 71.523 0 0 0 21.789-5.1 112.45 112.45 0 0 0 20.315-10.638ZM1306.7 794.172a131.365 131.365 0 0 0-12.142-25.806c-4.911-7.96-10.973-15.163-18.257-20.178a37.848 37.848 0 0 0-24.456-6.76 50.087 50.087 0 0 0-12.944 2.565 64.162 64.162 0 0 0-6.431 2.161l-6.186 2.727c-16.126 7.975-28.996 21.835-36.668 38.654-7.74 16.801-11.363 35.703-11.694 54.989a106.64 106.64 0 0 1 4.492-58.027 80.478 80.478 0 0 1 39.444-44.595l7.05-2.98a73.655 73.655 0 0 1 7.255-2.316 54.271 54.271 0 0 1 15.308-2.63 44.405 44.405 0 0 1 29.486 9.969c8.161 6.538 13.78 15.2 17.918 24.119a96.197 96.197 0 0 1 7.825 28.108Z" class="color6d311f svgShape"/><path fill="#6d311f" d="M1236.3 708.661c-3.319-8.418-5.996-16.813-8.518-25.224-2.594-8.389-4.932-16.785-7.25-25.175l-6.916-25.16c-2.398-8.381-4.811-16.73-7.118-25.501a97.436 97.436 0 0 1 14.444 22.775 163.577 163.577 0 0 1 9.241 25.21 184.04 184.04 0 0 1 5.218 26.24 127.159 127.159 0 0 1 .899 26.835ZM1198.771 606.25l-40.172-1.345c-13.289-.243-26.515-.339-39.651.373a248.643 248.643 0 0 0-38.948 4.61c-12.766 2.7-25.17 6.877-36.715 14.036 8.844-10.42 21.611-17.352 34.665-21.58a137.072 137.072 0 0 1 20.069-4.903c6.786-1.07 13.614-1.737 20.437-2.162a231.214 231.214 0 0 1 40.746 1.862 195.3 195.3 0 0 1 39.57 9.109ZM1213.436 602.676c2.624-5.458 6.667-9.901 11.074-13.799a62.182 62.182 0 0 1 14.855-9.54 59.11 59.11 0 0 1 16.955-5.073 45.369 45.369 0 0 1 17.688.72c-5.407 2.75-10.592 4.573-15.603 6.876-5.047 2.096-9.948 4.307-14.835 6.567-9.868 4.444-19.29 9.413-30.134 14.25Z" class="color6d311f svgShape"/><path fill="#e5a488" d="m762.922 698.759-5.425-5.034a77.108 77.108 0 0 1 .198-9.49c.431-5.502 2.166-8.258-5.203-12.375s-13.093-7.748-18.415-18.587-7.75-11.983-11.612-7.56-11.357 17.04-7.519 26.678 15.502 12.63 15.502 12.63a116.996 116.996 0 0 0-24.746 2.618c-22.042-15.777-42.954-20.81-43.065-8.89-16.17.31-17.856 7.873-15.76 14.315-8.114 4.844-2.437 10.572 1.838 12.3s28.753 18.713 38.682 24.02 37.47 8.724 57.215 5.674 18.31-36.3 18.31-36.3Z" class="colore5a488 svgShape"/><path d="M666.355 716.298c7.776 5.038 16.165 10.463 21.046 13.077 9.929 5.323 37.457 8.73 57.202 5.681s18.316-36.304 18.316-36.304l-5.425-5.03a79.734 79.734 0 0 1 .196-9.482c.435-5.513 2.179-8.262-5.207-12.379-7.366-4.12-13.077-7.753-18.414-18.58-4.95-10.083-7.383-11.789-10.796-8.436a39.464 39.464 0 0 1 10.414 22.35c1.32 10.704-4.388 14.178-9.36 15.226a26.907 26.907 0 0 0 6.082 2.595c-.27.016-1.825.002-4.204.076 0 0 .527 14.34-9.783 14.057-10.29-.286-32.134-19.416-43.481-21.275-5.001-.831-8.053-1.312-9.916-1.597a7.853 7.853 0 0 0-.38 2.477l-.057.007c7.307 3.506 20.421 10.342 24.293 15.824 5.089 7.248-22.722 2.402-40.673-6.704a12.875 12.875 0 0 0 .667 5.177 15.429 15.429 0 0 0-1.658 1.146c7.068 1.808 26.69 7.3 31.756 14.221 3.837 5.215-1.12 8.34-10.618 7.873Zm33.234-8.533c.568-.113 25.189-5.711 32.25 9.905 7.04 15.618-21.04 9.274-38.067 5.389s-9.179-12.314 5.817-15.294Z" style="mix-blend-mode:soft-light" opacity=".3" fill="#000000" class="color000 svgShape"/><path fill="#bc775e" d="M735.733 714.799a22.56 22.56 0 0 0-9.679-8.44 28.254 28.254 0 0 0-12.433-2.637 50.998 50.998 0 0 0-12.776 1.432c-2.08.61-4.185 1.117-6.24 1.802-2.031.78-4.095 1.457-6.15 2.174l-.6.21-.517-.215-20.095-8.38c-6.732-2.7-13.4-5.565-20.366-7.681a78.437 78.437 0 0 1 10.699 2.338c3.52.977 6.976 2.144 10.437 3.29 6.945 2.246 13.67 5.054 20.455 7.698l-1.116-.006c2.106-.775 4.201-1.59 6.33-2.3 2.149-.661 4.36-1.146 6.534-1.724a50.214 50.214 0 0 1 13.521-1.144 30.28 30.28 0 0 1 13.06 3.737 21.41 21.41 0 0 1 8.936 9.846ZM662.637 678.749c6.742 1.119 13.134 3.64 19.328 6.445a82.748 82.748 0 0 1 17.225 10.883l-9.003-4.682c-2.993-1.543-5.985-3.08-9.048-4.464-6.036-2.978-12.238-5.544-18.502-8.182Z" class="colorbc775e svgShape"/><path fill="#bc775e" d="M730.448 685.021a31.154 31.154 0 0 0-2.702 5.53 17.593 17.593 0 0 0-1.17 5.784c-.345 3.943 1.223 7.723 3.193 11.437a15.091 15.091 0 0 1-3.84-5.104 14.045 14.045 0 0 1-1.274-6.423 15.58 15.58 0 0 1 5.793-11.224Z" class="colorbc775e svgShape"/><path d="m1875.62 1703.708-62.505 9.738c-1.527-82.33 16.486-66.302 50.166-69.48 6.105 26.7 9.904 45.986 12.34 59.742ZM1010.358 1744.058s-69.988 16.645-75.355 3.494c-3.265-8.109-3.777-29.496-4.444-45.947 27.3-1.847 45.647-1.505 57.946-.233l.04.04c.49.273.981.586 1.47.858 15.806 9.375 20.343 41.788 20.343 41.788Z" fill="#000000" class="color000 svgShape"/></g></svg>