<svg xmlns="http://www.w3.org/2000/svg" viewBox="0 0 790.743 1807.443"><g data-name="Layer 1" fill="#000000" class="color000 svgShape"><ellipse cx="405.98" cy="1697.859" opacity=".15" rx="384.763" ry="109.584" fill="#000000" class="color000 svgShape"/><path fill="#00759e" d="M67.58 1374.705s16.897 28.664 71.168 29.674l3.058-13.295s49.138 12.285 54.27-1.037l-3.084-27.627s24.57-6.142 28.664-15.37c0 0 .82-8.38 2.13-23.149.71-7.917 1.582-17.69 2.538-28.964 9.692-113.538 29.92-381.617 14.796-488.411-19.464-137.179-58.365-185.799-58.365-185.799s-24.87 454.205-96.367 697.932a757.167 757.167 0 0 1-7.753 24.98q-5.364 16.379-11.056 31.066Z" class="color00759e svgShape"/><path d="M105.03 1399.41a123.11 123.11 0 0 0 33.715 4.969l3.057-13.295s-.327-10.701-.655-23.56c-.246-11.164-.491-23.94-.41-32.758h.055l.492-10.729c1.555-1.556 66.037-270.262 53.752-535.938 0 0 26.098 72.179 7.671 296.387-9.691 117.879-19.383 187.792-23.723 237.176-1.01 11.575-1.72 22.003-2.075 31.667a261.13 261.13 0 0 0 1.474 42.915c8.654 0 15.888-1.502 17.69-6.197l-3.085-27.627s-1.638-4.777-3.576-27.654c-.655-7.78-1.365-17.663-2.047-30.193 0 0 40.43-231.88 33.277-411.017 0 0 12.285 51.186 9.2 141.273-2.102 62.27-14.523 182.332-16.57 265.704-.218 10.237-.328 19.928-.218 28.91.081 9.063.382 17.39.955 24.787 3.549-2.075 6.443-4.504 7.644-7.18 0 0 .819-8.38 2.13-23.15.709-7.916 1.582-17.69 2.538-28.964 9.691-113.537 29.92-381.616 14.796-488.41-19.464-137.179-58.366-185.799-58.366-185.799s-2.593 47.5-8.544 120.007c28.827 165.052-25.116 455.734-54.954 595.07a2841.386 2841.386 0 0 1-6.306 28.882 3560.502 3560.502 0 0 1-7.917 34.724Z" style="mix-blend-mode:soft-light" opacity=".3" fill="#000000" class="color000 svgShape"/><path fill="#bfa382" d="M78.635 1343.638c19.847 26.89 62.652 23.887 62.652 23.887l1.037-16.87c30.193 9.718 47.092-2.048 47.092-2.048v-13.84c14.578-.301 27.026-6.334 34.37-10.866.71-7.917 1.582-17.69 2.538-28.964a79.507 79.507 0 0 1-38.956 9.636v10.237c-16.38 18.946-46.08 9.228-46.08 9.228l-.493 10.728c-30.93 5.487-46.845-6.47-54.407-16.107a757.023 757.023 0 0 1-7.753 24.98Z" class="colorbfa382 svgShape"/><path d="M213.272 1300.533c-.218 10.237-.328 19.928-.218 28.91a77.306 77.306 0 0 0 10.728-5.542c.71-7.917 1.583-17.69 2.539-28.965a78.184 78.184 0 0 1-13.05 5.597ZM176.909 1353.33c8.19-1.72 12.503-4.723 12.503-4.723v-13.841c-.655-7.78-1.365-17.663-2.047-30.193v10.237a31.59 31.59 0 0 1-8.38 6.852c-1.011 11.575-1.72 22.003-2.076 31.667ZM112.947 1364.686a100.382 100.382 0 0 0 28.2 2.839c-.246-11.165-.491-23.942-.41-32.76a76.94 76.94 0 0 1-21.484 1.038 2842.2 2842.2 0 0 1-6.306 28.883Z" style="mix-blend-mode:soft-light" opacity=".3" fill="#000000" class="color000 svgShape"/><path fill="#e5a488" d="m571.684 622.732 114.92 123.837s8.863-48.248 18.052-100.084 2.123-88.766 2.123-88.766l51.522-1.374s65.262 186.627-39.724 287.84c0 0-84.935-17.31-161.801-102.201s14.908-119.252 14.908-119.252Z" class="colore5a488 svgShape"/><path d="M556.777 741.986c76.866 84.885 161.79 102.204 161.79 102.204-32.311-14.435-7.013-67.89 15.753-126.259 18.177-46.618 4.225-129.419-2.127-160.882l-25.412.672s7.058 36.918-2.124 88.765c-9.185 51.824-18.051 100.085-18.051 100.085-27.313 91.784-133.828-98.602-133.828-98.602s-1.648-5.144-3.666-11.906c-21 16.918-42.298 50.745 7.665 105.923Z" style="mix-blend-mode:soft-light" opacity=".3" fill="#000000" class="color000 svgShape"/><path fill="#e5a488" d="m708.96 572.247-2.204-8.323s-14.244-12.323-17.947-18.433-14.008-21.812-14.377-25.032 8.262-13.476 22.183-22.587c-5.498-34.539-8.12-61.53-9.473-83.735s6.619-24.887 22.577 3.57 14.33 77.868 14.33 77.868 10.96-30.28 20.813-20.014 6.696 21.573 6.696 21.573 15.869-15.668 21.23-2.625.697 20.355.697 20.355 13.056-2.029 16.25 9.666-4.394 20.444-16.483 21.733c-1.566 19.022-2.111 25.006-8.407 32.571s-16.834 6.054-19.762 5.626-36.123-12.213-36.123-12.213Z" class="colore5a488 svgShape"/><path d="M774.87 533.238c-.491-9.893 3.04-15.105 6.132-17.716a17.94 17.94 0 0 0-7.059-.672l-2.104 3.02s-12.548 6.171-12.327-7.41c.159-9.07 4.789-16.784 7.877-20.963-6.718-1.328-15.816 7.644-15.816 7.644a1.544 1.544 0 0 0 .096-.417 13.782 13.782 0 0 0-.556 1.855c-.867 3.994-14.854 11.515-14.77-3.212a24.503 24.503 0 0 1 9.073-19.219 6.547 6.547 0 0 0-.535-.6c-7.814-8.112-16.338 9.212-19.542 16.785l-1.303 3.258s-14.66-6.646-22.654-35.313c-5.624-20.15-6.983-48.04-7.298-62.745-5.326-2.71-7.76 3.619-6.949 16.598 1.363 22.22 3.986 49.189 9.479 83.752-13.9 9.115-22.562 19.345-22.18 22.582.378 3.198 10.66 18.926 14.382 25.021 3.681 6.101 17.94 18.438 17.94 18.438l2.22 8.338s33.186 11.767 36.107 12.198c2.92.43 13.445 1.93 19.746-5.642 6.306-7.532 6.863-13.528 8.41-32.542 9.291-1.002 15.966-6.421 17.05-14.188-6.595 5.93-14.89 11.279-15.418 1.15Zm-74.078-26.316c1.24-8.836 10.38-13.914 10.38-13.914 7.352 4.364 43.28 32.228 43.28 32.228s-54.939-9.472-53.66-18.314Z" style="mix-blend-mode:soft-light" opacity=".3" fill="#000000" class="color000 svgShape"/><path fill="#bc7b64" d="M721.368 526.404c1.85 5.01 3.574 10.23 6.23 14.113.595.895 1.658 1.877 1.152 1.206.048-.08 1.072-.221 2-.635a39.615 39.615 0 0 0 6.21-3.261 92.962 92.962 0 0 0 11.859-8.86 11.352 11.352 0 0 0 1.672-1.782c.142-.193-.053-.103-.133.475a2.91 2.91 0 0 0 .125 1.306 18.05 18.05 0 0 0-1.473-1.455c-.819-.736-1.831-1.541-2.82-2.337-8.34-6.686-15.92-13.629-24.003-20.285l-6.01-4.951a52.95 52.95 0 0 0-5.848-4.368c.055-.407-1.567-.5-2.627-.497a21.964 21.964 0 0 0-3.617.394 41.96 41.96 0 0 0-7.47 2.405 26.661 26.661 0 0 1 6.368-5.248 18.228 18.228 0 0 1 3.998-1.752c1.515-.316 2.647-1.023 5.186-.38 5.964 1.98 10.259 4.625 15.003 7.409a224.661 224.661 0 0 1 25.95 18.737c1.054.878 2.1 1.73 3.233 2.777a16.895 16.895 0 0 1 3.717 4.48 8.632 8.632 0 0 1 .952 5.105 9.432 9.432 0 0 1-1.665 4.087 17.133 17.133 0 0 1-3.872 3.843 70.017 70.017 0 0 1-14.605 8.496 36.035 36.035 0 0 1-8.46 2.64 11.003 11.003 0 0 1-5.815-.433 5.711 5.711 0 0 1-2.778-2.524 12.74 12.74 0 0 1-1.034-2.191 40.687 40.687 0 0 1-1.425-16.514Z" class="colorbc7b64 svgShape"/><path fill="#bc7b64" d="M773.252 546.263a10.281 10.281 0 0 1-6.625 1.712 11.673 11.673 0 0 1-6.685-2.763 12 12 0 0 1-4.051-6.872 12.932 12.932 0 0 1 .63-7.327l4.592 5.12a8.023 8.023 0 0 1-3.534-1.339 6.763 6.763 0 0 1-2.157-2.584 6.322 6.322 0 0 1 .068-5.363 9.261 9.261 0 0 0 3.953 1.364 1.209 1.209 0 0 0 1.35-1.03l1.102-5.748 3.492 10.869a33.692 33.692 0 0 0 1.07 3.372 18.46 18.46 0 0 0 1.022 2.486 23.028 23.028 0 0 0 2.09 3.367c.977 1.332 2.16 2.838 3.683 4.736Z" class="colorbc7b64 svgShape"/><path fill="#bc7b64" d="M773.485 514.864a12.24 12.24 0 0 1 1.062 6.828 11.918 11.918 0 0 1-6.565 9.143 10.263 10.263 0 0 1-7.028.822 24.429 24.429 0 0 1 .518-6.516 12.685 12.685 0 0 1 2.023-4.487 13.316 13.316 0 0 1 3.703-3.466 16.804 16.804 0 0 1 6.287-2.324ZM751.558 497.134a12.245 12.245 0 0 1 2.406 6.332 11.624 11.624 0 0 1-.871 5.427 11.48 11.48 0 0 1-9.693 6.96 17.32 17.32 0 0 1-1.374-6.414 11.944 11.944 0 0 1 .95-4.855 12.284 12.284 0 0 1 2.897-4.088 15.848 15.848 0 0 1 5.685-3.362Z" class="colorbc7b64 svgShape"/><path fill="#f7c434" d="M700.925 643.024s4.784-47.823 4.228-55.708l66.047 5.392-.177 2.154s11.454 32.37 9.774 65.698l-7.705 8.399-49.447-6.915Z" class="colorf7c434 svgShape"/><path d="M700.925 643.024s4.784-47.823 4.228-55.708l66.047 5.392-.177 2.154s11.454 32.37 9.774 65.698l-7.705 8.399-49.447-6.915Z" style="mix-blend-mode:soft-light" opacity=".45" fill="#000000" class="color000 svgShape"/><path d="m771.209 592.695-.18 2.188s11.442 32.343 9.768 65.67l-7.709 8.396-49.438-6.891-22.733-19.04.467-4.713c8.605 4.611 28.294 14.175 47.83 16.7 0 0 7.017-19.527 2.1-48.793 0 0-26.804 2.117-46.3-12.117.172-3.163.223-5.558.145-6.786Z" style="mix-blend-mode:soft-light" opacity=".45" fill="#000000" class="color000 svgShape"/><path fill="#f7c434" d="M706.101 576.527s20.762 14.518 61.669 3.3c0 0 8.977 2.042 3.253 15.035 0 0-30.056 10.568-65.374-5.95 0 0-5.913-6.164.452-12.385ZM699.389 653.06s40.547 31.498 81.923 19.33c0 0 5.095-5.6-.515-11.83 0 0-29.95 11.545-79.872-17.536 0 0-7.462 3.086-1.536 10.036Z" class="colorf7c434 svgShape"/><path d="M771.029 594.883s-.551.194-1.61.506c.772-7.277-4.925-8.648-4.925-8.648-39.576 10.107-59.831-4.149-59.831-4.149a8.606 8.606 0 0 0-1.39 1.64c-.436-2.201-.03-4.917 2.828-7.705 0 0 20.75 14.52 61.669 3.3 0 0 8.981 2.037 3.259 15.056ZM780.717 660.658c5.613 6.23.521 11.837.521 11.837-.601.166-1.175.346-1.755.491.362-2.02.001-4.653-2.486-7.39 0 0-28.767 10.655-77.41-17.99a7.579 7.579 0 0 0-2.413 1.638c-.954-4.188 3.716-6.13 3.716-6.13 49.9 29.072 79.827 17.544 79.827 17.544Z" style="mix-blend-mode:soft-light" opacity=".45" fill="#000000" class="color000 svgShape"/><path fill="#f9a832" d="M562.558 755.164a1137.324 1137.324 0 0 0 24.933 19.153c2.12 1.591 4.23 3.161 6.372 4.742a130.78 130.78 0 0 1 2.579-2.749 201.792 201.792 0 0 1 3.263-3.395 156.171 156.171 0 0 1 4.629-4.578q1.31-1.304 2.584-2.51a254.866 254.866 0 0 1 26.443-21.698 227.335 227.335 0 0 1 24.395-15.29c.252-.147.492-.26.723-.397.678-.375 1.345-.718 1.969-1.04q1.28-.688 2.395-1.217c.361-.198.733-.374 1.082-.54 1.04-.52 1.957-.955 2.745-1.328 2.217-1.025 3.428-1.52 3.428-1.52q-1.244-1.778-2.524-3.46a87.893 87.893 0 0 0-2.305-3.11.358.358 0 0 0-.095-.143c-.737-.99-1.485-1.947-2.223-2.882l-.013.006a251.275 251.275 0 0 0-27.478-29.86q-.797-.746-1.56-1.428a217.347 217.347 0 0 0-10.452-8.939 131.29 131.29 0 0 0-5.762-4.415c-.608-.435-1.14-.825-1.546-1.115-.277-.19-.522-.368-.725-.513-.235-.156-.395-.268-.502-.324a.266.266 0 0 0-.085-.067c-1.122.908-2.245 1.815-3.325 2.755a133.914 133.914 0 0 0-26.26 31.57 198.635 198.635 0 0 0-22.685 54.292Z" class="colorf9a832 svgShape"/><path d="M562.558 755.164a1137.324 1137.324 0 0 0 24.933 19.153c2.12 1.591 4.23 3.161 6.372 4.742a105.08 105.08 0 0 1 2.579-2.749 201.792 201.792 0 0 1 3.263-3.395 267.702 267.702 0 0 1 4.629-4.578c.861-.837 1.755-1.662 2.627-2.477a256.766 256.766 0 0 1 26.443-21.697 229.07 229.07 0 0 1 24.352-15.324c.252-.147.492-.26.723-.397.678-.375 1.345-.718 1.969-1.04q1.28-.688 2.395-1.217c.383-.208.733-.374 1.082-.54 1.04-.52 1.957-.955 2.745-1.328 2.217-1.025 3.428-1.52 3.428-1.52q-1.244-1.778-2.524-3.46a87.893 87.893 0 0 0-2.305-3.11.358.358 0 0 0-.095-.143c-.737-.99-1.485-1.947-2.223-2.882a108.097 108.097 0 0 0-5.15 2.068 166.14 166.14 0 0 0-57.252 42.038l-12.772-10.275a139.52 139.52 0 0 1 16.886-27.794 242.543 242.543 0 0 1 27.284-29.806 470.632 470.632 0 0 1 5.083-4.58c-.541-.52-1.071-1.018-1.57-1.504q-.797-.747-1.56-1.429c-1.031-.93-2.04-1.816-3.008-2.67a154.76 154.76 0 0 0-5.138 4.07 152.139 152.139 0 0 0-27.8 29.676c-12.206 17.168-15.925 30.498-15.925 30.498l-4.905-5.546a139.08 139.08 0 0 1 15.62-29.897 198.723 198.723 0 0 1 26.489-31.143 241.554 241.554 0 0 1 4.215-3.927 131.29 131.29 0 0 0-5.762-4.415 40.54 40.54 0 0 0-1.546-1.115c-.277-.19-.522-.368-.725-.513-.235-.156-.395-.268-.502-.324a.266.266 0 0 0-.085-.067c-1.122.908-2.245 1.815-3.325 2.755a133.914 133.914 0 0 0-26.26 31.57 198.635 198.635 0 0 0-22.685 54.292Z" style="mix-blend-mode:soft-light" opacity=".45" fill="#000000" class="color000 svgShape"/><path fill="#f9a832" d="m604.441 764.773 2.52 1.074c33.105-31.04 63.134-43.057 63.134-43.057-.833-1.169-1.67-2.34-2.51-3.45-12.469 6.54-44.27 24.42-63.144 45.433Z" class="colorf9a832 svgShape"/><path fill="#e5a488" d="M199.478 619.518S67.283 779.144 49.838 861.106s146.43 115.319 146.43 115.319-16.781 16.264 4.63 25.59l-1.8 3.896s12.982 9.97 26.571 2.254l11.858-26.483-15.108-29.108-86.961-104.861s48.409-52.37 73.516-96.07 41.036-137.523-9.496-132.125Z" class="colore5a488 svgShape"/><path d="m222.433 952.576 15.1 29.114-11.858 26.476c-13.581 7.71-26.59-2.267-26.59-2.267l1.82-3.88a23.46 23.46 0 0 1-7.412-4.77c7.62-3.566 20.632-11.15 15.377-15.058-4.362-3.28-11.349-2.245-16.385-.833a25.732 25.732 0 0 1 3.78-4.924s-157.35-32.048-147.23-110.473c73.9-1.076 172.177-226.755 172.177-226.755l-13.934-19.672c40.954 4.856 25.414 90.822 1.696 132.112-25.118 43.709-73.513 96.056-73.513 96.056s-49.998-2.283-53.781 24.709c-3.783 27.019 119.599 116.924 140.753 80.165Z" style="mix-blend-mode:soft-light" opacity=".3" fill="#000000" class="color000 svgShape"/><path fill="#bc7b64" d="M200.905 1002.02a27.19 27.19 0 0 1 6.638-.06c2.132.2 4.012.47 6.433.676-1.724 1.875-4.417 2.223-6.678 2.042a10.975 10.975 0 0 1-6.393-2.659Z" class="colorbc7b64 svgShape"/><path fill="#bc7b64" d="M213.3 997.28c.643 1.693 1.02 2.821 1.38 4.075a19.235 19.235 0 0 1 .798 4.307 5.03 5.03 0 0 1-3.424-3.57 4.599 4.599 0 0 1 1.245-4.812Z" class="colorbc7b64 svgShape"/><path fill="#f7c434" d="M194.259 916.092s24.548 30.987 28.622 34.253l-43.42 26.47-1.08-.698a220.957 220.957 0 0 1-51.744-19.733l-3.866-8.39 37.944-28.737Z" class="colorf7c434 svgShape"/><path d="M194.259 916.092s24.548 30.987 28.622 34.253l-43.42 26.47-1.08-.698a220.957 220.957 0 0 1-51.744-19.733l-3.866-8.39 37.944-28.737Z" style="mix-blend-mode:soft-light" opacity=".45" fill="#000000" class="color000 svgShape"/><path d="m179.463 976.823-1.096-.71a220.956 220.956 0 0 1-51.722-19.726l-3.863-8.39L160.7 919.25l33.57-3.16 2.971 3.743c-10.25 2.979-32.49 10.32-47.617 21.381 0 0 11.317 13.657 33.37 23.132 0 0 15.734-13.577 36.849-17.116a33.265 33.265 0 0 0 3.038 3.121Z" style="mix-blend-mode:soft-light" opacity=".45" fill="#000000" class="color000 svgShape"/><path fill="#f7c434" d="M226.888 955.309s-20.59 3.807-38.955 23.887a7.72 7.72 0 0 1-9.552-3.079s11.319-16.139 43.42-26.226c0 0 7.004-.231 5.087 5.418ZM187.868 907.005S125.865 914.74 115.017 951c0 0 2.93 5.517 11.62 5.385 0 0 5.848-24.376 67.622-40.292 0 0 4.148-8.249-6.39-9.087Z" class="colorf7c434 svgShape"/><path d="M178.367 976.114s.186-.266.58-.762a7.832 7.832 0 0 0 7.25.701c18.444-20.152 39.125-23.917 39.125-23.917a4.646 4.646 0 0 0 .28-1.378c1.266.732 2.131 2.071 1.286 4.55 0 0-20.582 3.801-38.955 23.888a7.735 7.735 0 0 1-9.566-3.082ZM126.59 956.297c-8.699.132-11.641-5.393-11.641-5.393.14-.43.254-.853.406-1.264a14.795 14.795 0 0 0 8.585 2.294s5.848-24.55 68.032-40.364a8.847 8.847 0 0 0 .82-3.25c3.979 2.583 1.43 7.678 1.43 7.678-61.785 15.918-67.632 40.299-67.632 40.299Z" style="mix-blend-mode:soft-light" opacity=".45" fill="#000000" class="color000 svgShape"/><path fill="#f9a832" d="M200.523 775.288a1116.417 1116.417 0 0 1-20.597 22.98 966.799 966.799 0 0 1-5.292 5.726 128.492 128.492 0 0 0-2.984-2.187 198.341 198.341 0 0 0-3.76-2.686 153.434 153.434 0 0 0-5.294-3.581q-1.498-1.022-2.946-1.956a250.155 250.155 0 0 0-29.43-16.16 223.134 223.134 0 0 0-26.296-10.347c-.27-.096-.522-.163-.769-.252-.722-.24-1.428-.45-2.088-.649q-1.359-.432-2.53-.74a20.189 20.189 0 0 0-1.142-.327c-1.096-.313-2.06-.568-2.887-.786-2.325-.588-3.583-.846-3.583-.846q.88-1.941 1.811-3.795a86.237 86.237 0 0 1 1.663-3.417.352.352 0 0 1 .065-.155 127.496 127.496 0 0 1 1.625-3.181l.013.003a246.64 246.64 0 0 1 21.12-33.769q.634-.864 1.248-1.66c3.17-4.198 6.06-7.708 8.47-10.511a128.76 128.76 0 0 1 4.761-5.3c.508-.53.952-1.002 1.29-1.355.234-.233.438-.45.607-.626.199-.193.333-.33.426-.403a.26.26 0 0 1 .07-.08c1.247.673 2.494 1.345 3.706 2.058a131.446 131.446 0 0 1 31.035 25.717 194.97 194.97 0 0 1 31.688 48.285Z" class="colorf9a832 svgShape"/><path d="M200.523 775.288a1116.417 1116.417 0 0 1-20.597 22.98 966.799 966.799 0 0 1-5.292 5.726c-.98-.75-1.99-1.483-2.984-2.187a198.341 198.341 0 0 0-3.76-2.686 262.577 262.577 0 0 0-5.294-3.581c-.982-.652-1.993-1.287-2.981-1.916a252.023 252.023 0 0 0-29.43-16.16 224.83 224.83 0 0 0-26.261-10.387c-.27-.096-.522-.163-.769-.252-.722-.24-1.428-.45-2.088-.649q-1.359-.432-2.53-.74a20.652 20.652 0 0 0-1.142-.327c-1.096-.313-2.06-.568-2.887-.786-2.325-.588-3.583-.846-3.583-.846q.88-1.941 1.811-3.795a86.237 86.237 0 0 1 1.663-3.417.352.352 0 0 1 .065-.155 127.496 127.496 0 0 1 1.625-3.181c1.81.305 3.58.674 5.342 1.065a153.454 153.454 0 0 1 36.92 13.64 152.969 152.969 0 0 1 25.906 16.581l10.466-12.219a136.946 136.946 0 0 0-21.308-23.766 238.083 238.083 0 0 0-31.705-23.832 459.484 459.484 0 0 0-5.731-3.5c.428-.6.85-1.176 1.243-1.735q.634-.864 1.248-1.66c.826-1.083 1.64-2.121 2.42-3.119 1.95.981 3.85 1.973 5.69 2.999a149.33 149.33 0 0 1 32.18 23.612c14.876 14.36 20.87 26.549 20.87 26.549l3.731-6.236a136.51 136.51 0 0 0-20.468-26.024 195.046 195.046 0 0 0-31.178-25.265 237.195 237.195 0 0 0-4.776-3.027 128.76 128.76 0 0 1 4.762-5.3c.485-.536.923-.985 1.29-1.355.234-.233.438-.45.607-.626.199-.193.333-.33.426-.403a.26.26 0 0 1 .07-.08c1.247.673 2.494 1.345 3.706 2.058a131.446 131.446 0 0 1 31.035 25.717 194.97 194.97 0 0 1 31.688 48.285Z" style="mix-blend-mode:soft-light" opacity=".45" fill="#000000" class="color000 svgShape"/><path fill="#f9a832" d="m161.85 792.12-2.239 1.492c-37.542-23.97-68.684-30.144-68.684-30.144.593-1.277 1.188-2.559 1.799-3.78 13.21 4.057 47.12 15.567 69.123 32.433Z" class="colorf9a832 svgShape"/><path fill="#664224" d="M580.824 1699.094s2.719 1.728-1.504 17.276c0 0-24.953 14.204-57.392 5.95s-40.693-18.235-48.563-32.631-12.86-20.922-23.993-25.721-21.498-15.548-14.972-31.48 115.936 44.34 115.936 44.34Z" class="color664224 svgShape"/><path d="M455.515 1652.25c-1.938 2.129-1.529 8.626-.655 14.522 7.507 4.587 12.011 11.03 18.372 22.659-1.747-12.94 1.665-19.52 1.665-19.52s-15.533-21.866-19.382-17.662Z" style="mix-blend-mode:soft-light" opacity=".3" fill="#000000" class="color000 svgShape"/><path d="M443.285 1660.63c-3.986-10.947-1.202-18.345-1.202-18.345l37.237 1.338s93.09 53.37 93.09 59.512c0 4.068-.082 10.892-3.412 17.526a61.389 61.389 0 0 0 10.319-4.286c4.231-15.56 1.501-17.28 1.501-17.28l-30.493-22.277s-109.388-60.249-115.912-44.333c-5.323 12.94.518 22.44 8.872 28.145Z" style="mix-blend-mode:soft-light" opacity=".3" fill="#000000" class="color000 svgShape"/><path fill="#845931" d="M460.429 1661.859c14.332 9.2 12.285 21.484 31.23 36.853 18.946 15.343 60.413 17.39 77.803 10.756 9.2-3.521 11.383-7.016 11.41-9.554a5.366 5.366 0 0 0-1.691-3.768s-126.942-79.331-140.755-68.575a13.208 13.208 0 0 0-2.621 2.62c-7.835 10.347 11.438 23.177 24.624 31.668Z" class="color845931 svgShape"/><path d="M462.176 1658.01c14.332 9.226 12.285 21.511 31.203 36.853 18.946 15.37 60.413 17.417 77.803 10.756 5.132-1.965 8.08-3.93 9.69-5.705a5.366 5.366 0 0 0-1.691-3.768s-126.942-79.331-140.755-68.575a13.208 13.208 0 0 0-2.621 2.62c-1.529 9.555 14.769 20.366 26.37 27.818Z" style="mix-blend-mode:soft-light" opacity=".3" fill="#000000" class="color000 svgShape"/><path fill="#e5a488" d="M493.2 1577.4s-1.536 28.152 1.535 35.318 83.433 76.267 84.457 83.433-15.356 9.214-27.128 7.678-30.2 2.56-50.163-6.654-24.569-37.366-37.365-43.508-27.64-13.82-28.153-24.57 11.773-19.45 13.82-37.877-6.142-98.789-6.142-98.789l55.281 74.22Z" class="colore5a488 svgShape"/><path d="M436.378 1629.1c.519 10.755 15.37 18.426 28.146 24.569 12.803 6.142 17.416 34.288 37.372 43.515 19.956 9.2 38.383 5.105 50.176 6.633 11.766 1.557 28.146-.49 27.109-7.67a3.365 3.365 0 0 0-.547-1.202c-32.185 8.354-31.885-7.862-30.41-11.329 1.063-2.457 9.417-4.586 14.522-5.65-5.514-5.352-12.012-11.44-18.727-17.718-7.644 1.12-28.61 3.44-41.604-1.72-16.134-6.388-30.957-31.995-27.381-39.912 2.538-5.623 13.486-6.115 19.71-5.923-3.085-7.207-1.556-35.298-1.556-35.298l6.142-10.756-55.28-74.2s2.51 24.57 4.394 49.63a62.74 62.74 0 0 1 12.504 36.609c.518 26.37-4.614 34.806-1.283 40.703 3.33 5.87-1.283 6.907-5.624 5.87-4.341-1.01-6.661-3.577-3.85-18.155 2.375-12.23 3.468-21.211.3-26.644a92.428 92.428 0 0 1-.3 10.756c-2.047 18.427-14.331 27.136-13.813 37.891Z" style="mix-blend-mode:soft-light" opacity=".3" fill="#000000" class="color000 svgShape"/><ellipse cx="529.03" cy="1682.651" fill="#664224" rx="14.844" ry="12.732" class="color664224 svgShape"/><path d="M514.181 1682.66c0 7.016 6.66 12.722 14.85 12.722s14.851-5.706 14.851-12.721c0-7.044-6.66-12.75-14.85-12.75s-14.851 5.706-14.851 12.75Zm18.263-3.057c4.914-.846 8.682-3.412 9.39.819.71 4.204-2.702 8.3-7.616 9.118-4.913.846-9.472-1.91-10.182-6.115-.71-4.204 3.494-3.003 8.408-3.822Z" style="mix-blend-mode:soft-light" opacity=".3" fill="#000000" class="color000 svgShape"/><path fill="#845931" d="M519.049 1672.893c0 3.34 4.64 6.047 10.365 6.047s10.365-2.707 10.365-6.047-4.64-6.046-10.365-6.046-10.365 2.707-10.365 6.046Z" class="color845931 svgShape"/><path d="M519.04 1672.887c0 3.358 4.641 6.06 10.374 6.06 5.733 0 10.373-2.702 10.373-6.06 0-3.33-4.64-6.033-10.373-6.033s-10.374 2.703-10.374 6.033Zm5.132-1.228c0-2.239 3.085-4.013 6.88-4.013s6.852 1.774 6.852 4.013c0 2.211-3.057 3.986-6.852 3.986-3.795 0-6.88-1.775-6.88-3.986Z" style="mix-blend-mode:soft-light" opacity=".3" fill="#000000" class="color000 svgShape"/><path fill="#664224" d="M334.011 1626.922s2.88 4.415.672 14.684-9.981 11.325-11.325 17.18 7.582 63.726-12.764 76.01-81.932 19.958-80.315-18.429 91.448-91.748 103.732-89.445Z" class="color664224 svgShape"/><path d="M333.046 1634.587s-.055 6.47-.355 12.339a18.399 18.399 0 0 0 1.993-5.323c2.21-10.265-.683-14.687-.683-14.687-1.693-.328-4.886.436-9.145 2.047ZM315.574 1663.005s6.033 17.936 8.436 33.797c.764-17.581-1.365-34.943-.656-38.028a9.894 9.894 0 0 1 3.058-4.778c-.11-3.985-.355-8.626-1.228-9.609-1.53-1.72-9.61 18.618-9.61 18.618ZM230.292 1716.375c-.984 22.986 20.693 29.456 42.64 28.31-6.496-4.368-12.01-11.712-14.932-23.314-5.678-22.495 18.973-55.663 37.974-77.12-29.402 18.426-64.673 48.183-65.682 72.124Z" style="mix-blend-mode:soft-light" opacity=".3" fill="#000000" class="color000 svgShape"/><path fill="#845931" d="M230.428 1718.422c3.276 15.315 57.055 16.326 73.244 6.006 16.898-10.756 13.459-54.134 14.987-66.037 1.529-11.902 8.817-10.728 14.195-19.955 4.368-7.48-.136-15.97-1.965-18.919a.027.027 0 0 0-.027-.027c-.41-.655-.683-1.01-.683-1.01l-13.84-.764s-84.82 81.379-86.047 98.66a7.276 7.276 0 0 0 .136 2.046Z" class="color845931 svgShape"/><path d="M230.428 1718.422c10.373 11.767 56.537 11.767 71.333 2.376 16.898-10.756 13.43-54.135 14.987-66.037 1.529-11.903 8.818-10.756 14.195-19.956 3.14-5.405 1.693-11.33-.054-15.288a.027.027 0 0 0-.027-.027c-.41-.655-.683-1.01-.683-1.01l-13.84-.764s-84.82 81.379-86.047 98.66a7.276 7.276 0 0 0 .136 2.046Z" style="mix-blend-mode:soft-light" opacity=".3" fill="#000000" class="color000 svgShape"/><path fill="#e5a488" d="M328.018 1541.12s-3.884 49.423-2.507 55.547 9.382 24.121 6.785 32.822-14.295 11.479-17.22 15.204-1.58 59.448-11.426 70.026-60.643 12.694-73.371 1.648 45.997-78.936 50.617-95.812 2.958-53.323 2.958-53.323Z" class="colore5a488 svgShape"/><path d="M230.292 1716.375c12.72 11.03 63.525 8.927 73.352-1.665 9.856-10.565 8.518-66.283 11.44-70.023 2.92-3.712 14.604-6.497 17.224-15.205 2.594-8.681-5.432-26.699-6.797-32.814s2.511-55.554 2.511-55.554l-44.17 26.125s1.666 36.445-2.948 53.316a7.534 7.534 0 0 1-.218.737v.027c6.934 1.502 13.43 3.576 15.206 6.252 4.095 6.142-3.604 44.525-15.37 50.667-7.07 3.685-24.87 3.303-37.946 2.43-2.812 4.45-5.378 8.736-7.507 12.748 18.918-.982 54.953-1.856 55.69 5.297.901 8.49-31.093 18.18-62.051 10.564-.546 3.194-.11 5.651 1.584 7.098Zm84-95.22s3.602 2.567 4.613 1.556c1.037-1.037-3.058-4.367 0-20.474 0 0 .764 9.718 4.613 16.871 3.85 7.18-5.896 13.322-8.954 11.002-3.085-2.294-.273-8.955-.273-8.955Z" style="mix-blend-mode:soft-light" opacity=".3" fill="#000000" class="color000 svgShape"/><ellipse cx="275.791" cy="1689.746" fill="#664224" rx="14.844" ry="12.732" class="color664224 svgShape"/><path d="M260.942 1689.756c0 7.016 6.66 12.722 14.85 12.722s14.851-5.706 14.851-12.722c0-7.043-6.66-12.749-14.85-12.749s-14.851 5.706-14.851 12.75Zm18.263-3.057c4.914-.847 8.682-3.413 9.39.819.71 4.204-2.702 8.299-7.616 9.118-4.913.846-9.472-1.911-10.182-6.115-.71-4.205 3.494-3.003 8.408-3.822Z" style="mix-blend-mode:soft-light" opacity=".3" fill="#000000" class="color000 svgShape"/><path fill="#845931" d="M265.81 1679.99c0 3.338 4.64 6.045 10.365 6.045s10.365-2.707 10.365-6.046-4.64-6.046-10.365-6.046-10.365 2.707-10.365 6.046Z" class="color845931 svgShape"/><path d="M265.801 1679.983c0 3.358 4.641 6.06 10.374 6.06 5.733 0 10.373-2.702 10.373-6.06 0-3.33-4.64-6.033-10.373-6.033s-10.374 2.703-10.374 6.033Zm5.132-1.228c0-2.239 3.086-4.013 6.88-4.013 3.795 0 6.852 1.774 6.852 4.013 0 2.21-3.057 3.985-6.852 3.985-3.794 0-6.88-1.774-6.88-3.985Z" style="mix-blend-mode:soft-light" opacity=".3" fill="#000000" class="color000 svgShape"/><path fill="#e5a488" d="M181.577 650.524c6.443 62.98 88.804 279.326 88.804 279.326-93.636 117.824-40.375 226.01-35.516 311.566 4.832 85.556-4.86 137.206-17.772 219.568-5.405 34.616 1.993 66.965 12.367 92.817 14.386 35.599 34.452 58.912 34.452 58.912 64.59-22.576 163.058-138.816 163.058-138.816 16.16 74.254 71.033 132.374 71.033 132.374s19-26.617 30.001-52.852a103.15 103.15 0 0 0 7.125-23.013c4.56-28.91 22.03-272.72 19.983-357.565-.109-5.214-.327-9.828-.6-13.759-4.286-59.622-21.403-145.423-25.525-198.957-.546-7.343-.846-14.086-.846-20.065 0-33.987 31.421-157.189 45.234-238.786 6.307-37.29 8.955-65.9 3.195-73.326-11.52-14.933-58.503-40.075-93.555-58.284-1.774-.928-3.494-1.829-5.187-2.703a1081.188 1081.188 0 0 1-5.924-3.03c-15.205-7.862-26.534-13.704-28.773-15.642-7.562-6.443-6.47-60.277-6.47-60.277l4.86-66.72s-117.879-17.771-114.63 22.577c3.194 40.403-9.718 98.523-9.718 98.523a362.956 362.956 0 0 0-12.64 5.269 317.162 317.162 0 0 0-8.245 3.713c-68.63 31.721-125.986 79.768-125.986 79.768Z" class="colore5a488 svgShape"/><path d="M217.092 1460.974c-5.425 34.613 1.98 66.958 12.37 92.818 14.38 35.617 34.441 58.922 34.441 58.922 64.577-22.587 163.05-138.825 163.05-138.825 16.157 74.249 71.033 132.368 71.033 132.368s19-26.606 30.021-52.838a103.448 103.448 0 0 0 7.118-23.018c4.563-28.902 22.013-272.715 19.976-357.554-.115-5.224-.316-9.844-.603-13.776-4.276-59.612-21.41-145.427-25.515-198.954-.546-7.347-.86-14.092-.86-20.061 0-19.259 10.072-67.131 21.352-119.855-96.205 134.636-241.2 90.465-294.67 67.82 9.27 25.286 15.556 41.817 15.556 41.817-93.622 117.845-40.354 226.018-35.503 311.575 4.822 85.557-4.85 137.218-17.766 219.56ZM170.281 631.15l11.28 19.373c1.693 16.388 8.523 43.194 17.708 73.875 157.394 41.042 265.367-89.115 303.194-144.536-28.902-15.384-55.736-28.443-59.353-31.571-7.548-6.458-6.457-60.272-6.457-60.272l4.85-66.729s-117.873-17.766-114.63 22.588c3.214 40.382-9.701 98.5-9.701 98.5-77.492 30.653-146.89 88.772-146.89 88.772Z" style="mix-blend-mode:soft-light" opacity=".3" fill="#000000" class="color000 svgShape"/><path fill="#05a2d8" d="M229.462 1553.792c14.38 35.617 34.441 58.922 34.441 58.922 64.577-22.587 163.05-138.825 163.05-138.825 16.157 74.249 71.033 132.368 71.033 132.368s19-26.606 30.021-52.838a103.448 103.448 0 0 0 7.118-23.018c4.563-28.902 22.013-272.715 19.976-357.554-.115-5.224-.316-9.844-.603-13.776-4.276-59.612-21.41-145.427-25.515-198.954a412.733 412.733 0 0 1-61.937 14.61 387.503 387.503 0 0 1-30.393 3.53 206.668 206.668 0 0 1-48.763-2.354c-6.659-1.062-13.174-2.411-19.516-3.932-55.766-13.432-98.013-42.133-98.013-42.133-93.622 117.845-40.354 226.018-35.503 311.575 4.822 85.557-4.85 137.218-17.766 219.56-5.425 34.614 1.98 66.96 12.37 92.819Z" class="color05a2d8 svgShape"/><path d="M393.573 1224.537c-13.232 275.125-121.806 305.577-172.32 304.6a206.817 206.817 0 0 0 8.21 24.655c14.378 35.617 34.44 58.922 34.44 58.922 64.577-22.587 163.05-138.825 163.05-138.825 16.157 74.249 71.033 132.368 71.033 132.368s19-26.606 30.021-52.838a114.462 114.462 0 0 0 6.372-19.172c-79.903-80.707-56.828-271.308-56.828-271.308 5.424 112.133 33.981 173.008 63.285 206.07 1.292-15.986 2.612-34.153 3.932-53.555-71.895-91.928-55.364-225.702-55.364-225.702 17.422 57.487 43.798 88.599 62.54 105.016.688-14.092 1.291-27.84 1.808-40.927-62.597-45.893-71.896-131.909-71.896-131.909 21.153 39.377 54.159 69.886 73.245 85.442.2-13.174.23-24.884 0-34.527-.115-5.224-.316-9.844-.603-13.776-4.276-59.612-21.41-145.427-25.515-198.954a412.733 412.733 0 0 1-61.937 14.61 387.503 387.503 0 0 1-30.393 3.53 206.668 206.668 0 0 1-48.763-2.354c-6.659-1.062-13.174-2.411-19.516-3.932-55.766-13.432-98.013-42.133-98.013-42.133-27.725 34.929-42.592 68.997-49.595 101.859v.029c52.264 52.694 144.852-43.252 144.852-43.252-41.3 157.107-114.889 142.987-148.784 126.398 3.013 33.637 10.131 65.495 14.58 95.114 112.42 21.095 135.295-190.286 135.295-190.286-7.548 242.148-97.956 241.086-97.956 241.086l-1.062 50.57c81.797-1.061 116.238-189.424 116.238-189.424-8.61 252.595-101.686 254.432-151.941 236.551-2.727 24.97-6.602 49.997-11.05 78.296 148.383 27.466 171.659-202.053 172.635-212.242Z" style="mix-blend-mode:soft-light" opacity=".3" fill="#000000" class="color000 svgShape"/><path fill="#bfa382" d="M229.471 1553.795c14.38 35.618 34.441 58.923 34.441 58.923 64.577-22.588 163.05-138.825 163.05-138.825 16.157 74.248 71.033 132.367 71.033 132.367s19-26.605 30.021-52.837c-27.925-16.36-73.503-54.389-92.962-134.435 0 0-127.058 128.263-205.583 134.807Z" class="colorbfa382 svgShape"/><path d="M503.727 1536.14c-9.386 16.647-21.47 30.452-30.108 39.263a293.542 293.542 0 0 0 24.367 30.854s19-26.606 30.021-52.838a170.587 170.587 0 0 1-24.28-17.278ZM372.449 1475.295a253.23 253.23 0 0 0 10.275 46.495c25.974-26.347 44.228-47.901 44.228-47.901a232.763 232.763 0 0 0 10.073 33.522l16.762-36.048a254.267 254.267 0 0 1-18.742-52.379s-26.433 26.663-62.596 56.311ZM229.462 1553.792c14.38 35.617 34.441 58.922 34.441 58.922 19.316-6.773 41.674-21.927 63.515-39.836-16.733-11.194-28.328-27.524-35.761-41.215-21.899 12.055-43.424 20.579-62.195 22.129Z" style="mix-blend-mode:soft-light" opacity=".3" fill="#000000" class="color000 svgShape"/><path fill="#bfa382" d="M368.374 971.97c15.727 83.778 57.286 321.449 58.606 501.919 0 0 71.034-122.696 43.568-461.737q-1.636-20.105-3.502-37.426a387.503 387.503 0 0 1-30.393 3.53 206.668 206.668 0 0 1-48.763-2.353c-6.659-1.062-13.174-2.411-19.516-3.932Z" class="colorbfa382 svgShape"/><path d="M421.872 1360.177c2.955 39.061 4.85 77.55 5.108 113.712 0 0 26.893-154.984 1.062-327.188 0 0 3.588 130.76-6.17 213.476Z" style="mix-blend-mode:soft-light" opacity=".3" fill="#000000" class="color000 svgShape"/><path d="M368.374 971.97a4452.481 4452.481 0 0 1 6.6 36.135l81.052 103.064s24.768 180.815-29.017 362.662c1.808-3.185 70.633-127.086 43.54-461.68q-1.637-20.104-3.503-37.425a387.503 387.503 0 0 1-30.393 3.53 206.668 206.668 0 0 1-48.763-2.353c-6.659-1.062-13.174-2.411-19.516-3.932Z" style="mix-blend-mode:soft-light" opacity=".3" fill="#000000" class="color000 svgShape"/><path fill="#0086c2" d="m170.302 631.142 11.275 19.382s2.375 2.73 6.634 7.836c10.974 13.158 34.506 42.04 62.215 80.45 37.154 51.596 81.815 120.308 113.592 191.04a494.256 494.256 0 0 0 23.887 46.054c51.95 88.613 128.825 162.785 167.207 196.937-.109-5.214-.327-9.828-.6-13.759-2.13-29.401-7.37-65.163-12.612-100.297-5.406-36.09-10.811-71.524-12.913-98.66-.546-7.343-.846-14.086-.846-20.065 0-27.326 20.31-112.309 35.434-186.972 3.713-18.209 7.098-35.817 9.8-51.814-126.531-29.238-256.202-158.882-256.202-158.882-11.985 4.75-23.806 10.156-35.19 15.888h-.027c-32.732 16.544-61.914 35.844-82.252 50.422a1009.65 1009.65 0 0 0-8.79 6.47c-.465.328-.929.682-1.365 1.01-12.176 9.036-19.247 14.96-19.247 14.96Z" class="color0086c2 svgShape"/><path fill="#bfa382" d="m170.302 631.142 11.275 19.382s2.375 2.73 6.634 7.836c10.974 13.158 34.506 42.04 62.215 80.45 37.154 51.596 81.815 120.308 113.592 191.04a494.256 494.256 0 0 0 23.887 46.054c51.95 88.613 128.825 162.785 167.207 196.937-.109-5.214-.327-9.828-.6-13.759-2.13-29.401-7.37-65.163-12.612-100.297-78.595-46.655-153.231-177.855-206.765-276.296-49.384-90.825-116.759-146.925-144.221-167.317-.465.328-.929.682-1.365 1.01-12.176 9.036-19.247 14.96-19.247 14.96ZM281.983 558.28c36.609 39.093 164.478 168.082 281.592 194.808 3.713-18.209 7.098-35.817 9.8-51.814-126.531-29.238-256.202-158.882-256.202-158.882-11.985 4.75-23.806 10.156-35.19 15.888Z" class="colorbfa382 svgShape"/><path d="M235.288 584.798c30.28 18.684 75.426 55.536 125.48 127.087 56.627 80.879 119.567 140.232 174.557 176.854 2.785-14.58 6.2-31.054 9.874-48.418-22.387-10.16-54.819-30.337-95.631-70.317C367.226 689.269 343.03 636 278.454 600.497c0 0 48.418 6.458 114.602 71.035 57.89 56.454 96.033 99.333 162.962 117.874a4735.84 4735.84 0 0 0 5.195-24.77c-28.356-9.384-66.528-27.523-108.402-62.452-81.625-67.992-123.614-124.676-181.618-138.28-12.743 6.802-24.826 13.92-35.905 20.894ZM170.281 631.15l11.28 19.373s2.382 2.726 6.63 7.835c10.992 13.145 34.526 42.047 62.222 80.448 37.168 51.604 81.827 120.314 113.598 191.032a493.238 493.238 0 0 0 23.88 46.065c51.947 88.599 128.836 162.79 167.21 196.944-.115-5.224-.316-9.844-.603-13.776-.517-7.175-1.235-14.752-2.067-22.588-22.472-18.31-60.616-55.306-110.928-125.938-83.921-117.817-140.433-293.752-242.091-366.451 2.067.459 69.083 16.847 154.898 163.049 67.705 115.348 138.338 202.454 186.182 242.406-3.473-23.19-6.802-45.807-9.156-65.84-23.304-22.73-62.08-66.93-122.121-152.372-106.824-151.941-143.533-195.94-212.041-220.794a812.098 812.098 0 0 0-7.635 5.625c-12.169 9.04-19.258 14.982-19.258 14.982ZM418.37 651.613c55.938 51.375 109.78 75.799 148.01 87.423 2.611-13.203 4.965-25.917 6.974-37.77-126.512-29.246-256.182-158.887-256.182-158.887a403.117 403.117 0 0 0-26.72 11.767c20.434 10.332 60.759 35.79 127.918 97.467Z" style="mix-blend-mode:soft-light" opacity=".3" fill="#000000" class="color000 svgShape"/><path fill="#937a61" d="M270.36 929.838s113.903 77.355 257.48 19.003l.768-13.82s22.522 30.711 4.095 58.863c0 0-140.25 76.267-285.618-32.247 0 0-13.82-37.366 20.986-38.645Z" class="color937a61 svgShape"/><path d="M247.095 961.627C392.464 1070.14 532.7 993.894 532.7 993.894a44.017 44.017 0 0 0 7.18-27.19c-27.545 13.76-107.505 46.218-200.923 15.916 0 0-46.764-17.936-48.32-41.495a182.034 182.034 0 0 1-20.283-11.275l-2.293-6.852c-34.806 1.283-20.966 38.629-20.966 38.629Z" style="mix-blend-mode:soft-light" opacity=".45" fill="#000000" class="color000 svgShape"/><path fill="#b25734" d="M442.854 546.285c.87 4.96 6.929 8.784 13.537 8.527 6.614-.257 11.246-4.502 10.343-9.47-.9-4.954-6.967-8.747-13.548-8.484-6.575.264-11.2 4.478-10.332 9.427Z" class="colorb25734 svgShape"/><path d="M442.86 546.286c.87 4.958 6.923 8.79 13.527 8.534 6.61-.257 11.252-4.511 10.35-9.476-.9-4.951-6.98-8.753-13.557-8.49-6.572.263-11.186 4.487-10.32 9.432Zm6.927-4.752c1.323-2.615 5.326-3.751 8.936-2.553 3.614 1.2 5.474 4.274 4.152 6.883-1.302 2.61-5.306 1.542-8.923.336-3.612-1.204-5.473-2.063-4.165-4.666Z" style="mix-blend-mode:soft-light" opacity=".56" fill="#000000" class="color000 svgShape"/><path fill="#b25734" d="M439.565 532.368c.862 4.925 6.895 8.714 13.476 8.453 6.588-.262 11.205-4.482 10.31-9.412-.892-4.918-6.932-8.678-13.487-8.41-6.55.269-11.16 4.458-10.3 9.37Z" class="colorb25734 svgShape"/><path d="M439.572 532.37c.862 4.921 6.887 8.72 13.465 8.458 6.584-.262 11.21-4.49 10.317-9.418-.892-4.915-6.945-8.683-13.496-8.415-6.546.268-11.145 4.466-10.286 9.375Zm6.902-4.725c1.32-2.598 5.309-3.73 8.904-2.544 3.598 1.187 5.448 4.238 4.13 6.83-1.3 2.592-5.287 1.535-8.888.342-3.597-1.191-5.45-2.042-4.146-4.628Z" style="mix-blend-mode:soft-light" opacity=".56" fill="#000000" class="color000 svgShape"/><path fill="#b25734" d="M443.172 563.551c.874 5.006 6.96 8.87 13.597 8.62 6.643-.25 11.295-4.527 10.388-9.539-.905-4.999-6.999-8.833-13.608-8.576-6.604.257-11.249 4.503-10.377 9.495Z" class="colorb25734 svgShape"/><path d="M443.18 563.552c.873 5.003 6.952 8.877 13.585 8.626 6.64-.25 11.301-4.536 10.395-9.545-.904-4.995-7.012-8.838-13.617-8.58-6.6.256-11.235 4.51-10.364 9.5Zm6.955-4.783c1.329-2.637 5.35-3.778 8.975-2.564 3.63 1.214 5.499 4.318 4.172 6.948-1.309 2.632-5.33 1.548-8.963.328-3.628-1.22-5.497-2.088-4.184-4.712Z" style="mix-blend-mode:soft-light" opacity=".56" fill="#000000" class="color000 svgShape"/><path fill="#b25734" d="M440.724 581.498c.874 5.05 6.983 8.957 13.648 8.714 6.67-.244 11.344-4.552 10.436-9.61-.905-5.043-7.022-8.919-13.66-8.668-6.63.25-11.297 4.527-10.424 9.564Z" class="colorb25734 svgShape"/><path d="M440.731 581.5c.874 5.047 6.976 8.963 13.637 8.72 6.666-.245 11.35-4.562 10.443-9.616-.905-5.04-7.035-8.925-13.668-8.675-6.628.25-11.284 4.536-10.412 9.57Zm6.987-4.817c1.336-2.659 5.374-3.804 9.014-2.575 3.644 1.23 5.518 4.364 4.184 7.015-1.315 2.653-5.352 1.555-8.999.319-3.643-1.235-5.519-2.114-4.199-4.76Z" style="mix-blend-mode:soft-light" opacity=".56" fill="#000000" class="color000 svgShape"/><path fill="#b25734" d="M435.35 597.732c.87 5.09 6.994 9.035 13.68 8.797 6.693-.237 11.388-4.573 10.484-9.67-.902-5.084-7.034-8.997-13.693-8.752-6.653.244-11.34 4.548-10.471 9.625Z" class="colorb25734 svgShape"/><path d="M435.357 597.733c.87 5.088 6.987 9.041 13.67 8.804 6.688-.238 11.393-4.582 10.49-9.676-.902-5.081-7.047-9.003-13.702-8.758-6.65.244-11.326 4.556-10.458 9.63Zm7.016-4.845c1.344-2.677 5.397-3.826 9.047-2.583 3.654 1.243 5.53 4.404 4.188 7.074-1.322 2.672-5.372 1.56-9.029.31-3.652-1.249-5.533-2.137-4.206-4.8Z" style="mix-blend-mode:soft-light" opacity=".56" fill="#000000" class="color000 svgShape"/><path fill="#b25734" d="M427.68 613.502c.863 5.129 6.996 9.109 13.702 8.877 6.711-.231 11.427-4.593 10.53-9.728-.894-5.122-7.036-9.07-13.714-8.832-6.672.239-11.38 4.568-10.519 9.683Z" class="colorb25734 svgShape"/><path d="M427.687 613.504c.863 5.125 6.989 9.114 13.69 8.883 6.708-.232 11.434-4.602 10.538-9.735-.894-5.118-7.049-9.075-13.723-8.837-6.668.238-11.366 4.577-10.505 9.689Zm7.045-4.873c1.353-2.695 5.418-3.847 9.076-2.591 3.663 1.257 5.538 4.442 4.187 7.13-1.332 2.69-5.39 1.565-9.055.302-3.66-1.262-5.545-2.159-4.208-4.84Z" style="mix-blend-mode:soft-light" opacity=".56" fill="#000000" class="color000 svgShape"/><path fill="#b25734" d="M414.523 627.898c.848 5.161 6.978 9.173 13.696 8.947 6.723-.226 11.46-4.61 10.579-9.778-.88-5.154-7.018-9.133-13.707-8.9-6.684.233-11.414 4.584-10.568 9.731Z" class="colorb25734 svgShape"/><path d="M414.53 627.9c.848 5.158 6.971 9.178 13.685 8.952 6.719-.225 11.467-4.618 10.586-9.783-.88-5.151-7.031-9.14-13.716-8.906-6.68.232-11.4 4.592-10.554 9.737Zm7.073-4.895c1.363-2.71 5.44-3.865 9.1-2.598 3.664 1.268 5.532 4.476 4.17 7.178-1.343 2.705-5.404 1.57-9.07.295-3.663-1.274-5.547-2.178-4.2-4.875Z" style="mix-blend-mode:soft-light" opacity=".56" fill="#000000" class="color000 svgShape"/><path fill="#b25734" d="M393.524 634.277c.82 5.17 6.92 9.19 13.629 8.967 6.714-.224 11.468-4.611 10.614-9.788-.852-5.163-6.96-9.152-13.641-8.921-6.675.23-11.42 4.586-10.602 9.742Z" class="colorb25734 svgShape"/><path d="M393.531 634.278c.82 5.167 6.913 9.196 13.618 8.974 6.71-.224 11.474-4.621 10.62-9.795-.85-5.16-6.972-9.157-13.65-8.927-6.67.23-11.405 4.595-10.588 9.748Zm7.087-4.9c1.376-2.713 5.452-3.868 9.1-2.597 3.652 1.272 5.5 4.485 4.127 7.192-1.355 2.708-5.404 1.569-9.058.29-3.65-1.277-5.528-2.184-4.169-4.884Z" style="mix-blend-mode:soft-light" opacity=".56" fill="#000000" class="color000 svgShape"/><path fill="#b25734" d="M368.01 630.819c.784 5.15 6.832 9.155 13.51 8.931 6.685-.224 11.445-4.597 10.627-9.756-.815-5.144-6.87-9.117-13.522-8.886-6.646.231-11.397 4.573-10.615 9.71Z" class="colorb25734 svgShape"/><path d="M368.018 630.82c.783 5.148 6.823 9.162 13.498 8.938 6.681-.224 11.45-4.607 10.634-9.762-.815-5.141-6.884-9.123-13.531-8.892-6.642.231-11.383 4.581-10.601 9.716Zm7.085-4.884c1.386-2.704 5.45-3.856 9.074-2.59 3.627 1.266 5.447 4.467 4.063 7.164-1.365 2.7-5.389 1.565-9.019.292-3.625-1.272-5.488-2.174-4.118-4.866Z" style="mix-blend-mode:soft-light" opacity=".56" fill="#000000" class="color000 svgShape"/><path fill="#b25734" d="M349.085 618.899c.755 5.113 6.75 9.083 13.391 8.855 6.648-.229 11.4-4.574 10.612-9.694-.787-5.106-6.79-9.045-13.404-8.81-6.609.235-11.353 4.55-10.6 9.649Z" class="colorb25734 svgShape"/><path d="M349.092 618.9c.755 5.11 6.742 9.09 13.38 8.861 6.644-.228 11.406-4.583 10.618-9.7-.786-5.103-6.801-9.05-13.412-8.815-6.605.235-11.339 4.558-10.586 9.654Zm7.068-4.854c1.39-2.686 5.437-3.834 9.034-2.58 3.6 1.254 5.395 4.43 4.006 7.11-1.37 2.68-5.365 1.558-8.968.297-3.6-1.26-5.447-2.154-4.072-4.827Z" style="mix-blend-mode:soft-light" opacity=".56" fill="#000000" class="color000 svgShape"/><path fill="#b25734" d="M337.98 604.191c.737 5.07 6.688 9.002 13.295 8.768 6.613-.233 11.353-4.549 10.582-9.626-.768-5.064-6.728-8.965-13.308-8.724-6.575.24-11.305 4.525-10.57 9.582Z" class="colorb25734 svgShape"/><path d="M337.987 604.192c.737 5.068 6.68 9.008 13.284 8.775 6.61-.233 11.359-4.559 10.589-9.633-.768-5.061-6.74-8.97-13.317-8.73-6.57.24-11.292 4.534-10.556 9.588Zm7.043-4.822c1.391-2.666 5.42-3.809 8.994-2.57 3.578 1.241 5.354 4.39 3.965 7.048-1.37 2.661-5.341 1.552-8.921.305-3.577-1.245-5.413-2.13-4.038-4.783Z" style="mix-blend-mode:soft-light" opacity=".56" fill="#000000" class="color000 svgShape"/><path fill="#b25734" d="M329.967 586.91c.723 5.023 6.634 8.91 13.206 8.671 6.577-.24 11.298-4.522 10.543-9.552-.754-5.016-6.673-8.873-13.218-8.627-6.54.247-11.253 4.498-10.531 9.508Z" class="colorb25734 svgShape"/><path d="M329.974 586.911c.723 5.02 6.627 8.917 13.194 8.678 6.574-.24 11.305-4.532 10.55-9.558-.753-5.014-6.685-8.88-13.226-8.633-6.535.246-11.239 4.506-10.518 9.513Zm7.015-4.787c1.389-2.643 5.397-3.78 8.95-2.557 3.555 1.225 5.316 4.342 3.929 6.978-1.368 2.638-5.315 1.544-8.874.313-3.554-1.229-5.378-2.104-4.005-4.734Z" style="mix-blend-mode:soft-light" opacity=".56" fill="#000000" class="color000 svgShape"/><path fill="#b25734" d="M321.705 570.452c.71 4.978 6.58 8.824 13.118 8.578 6.542-.246 11.247-4.495 10.506-9.48-.74-4.971-6.619-8.787-13.13-8.535-6.504.253-11.2 4.472-10.494 9.437Z" class="colorb25734 svgShape"/><path d="M321.713 570.453c.709 4.975 6.573 8.83 13.105 8.585 6.539-.246 11.254-4.505 10.513-9.486-.738-4.969-6.63-8.793-13.137-8.54-6.501.251-11.188 4.48-10.481 9.441Zm6.987-4.753c1.387-2.622 5.376-3.754 8.907-2.546 3.534 1.21 5.278 4.298 3.894 6.912-1.367 2.617-5.29 1.537-8.827.322-3.533-1.215-5.345-2.08-3.974-4.688Z" style="mix-blend-mode:soft-light" opacity=".56" fill="#000000" class="color000 svgShape"/><path fill="#b25734" d="M310.981 553.93c.692 4.933 6.519 8.736 13.018 8.485 6.505-.252 11.195-4.469 10.472-9.407-.722-4.925-6.557-8.699-13.03-8.441-6.469.258-11.15 4.445-10.46 9.364Z" class="colorb25734 svgShape"/><path d="M310.988 553.932c.692 4.929 6.511 8.742 13.007 8.49 6.502-.251 11.201-4.477 10.478-9.412-.72-4.923-6.569-8.705-13.038-8.447-6.465.258-11.136 4.453-10.447 9.37Zm6.96-4.719c1.386-2.6 5.356-3.726 8.862-2.533 3.511 1.194 5.237 4.252 3.853 6.844-1.365 2.594-5.263 1.53-8.776.33-3.51-1.2-5.309-2.054-3.94-4.64Z" style="mix-blend-mode:soft-light" opacity=".56" fill="#000000" class="color000 svgShape"/><path fill="#b25734" d="M302.43 537.49c.678 4.886 6.465 8.648 12.93 8.391 6.47-.257 11.143-4.442 10.435-9.335-.707-4.88-6.502-8.614-12.941-8.35-6.434.263-11.099 4.419-10.423 9.293Z" class="colorb25734 svgShape"/><path d="M302.438 537.49c.677 4.884 6.457 8.656 12.918 8.399 6.466-.258 11.15-4.452 10.441-9.342-.706-4.877-6.514-8.619-12.95-8.355-6.429.263-11.084 4.427-10.409 9.298Zm6.932-4.685c1.384-2.578 5.335-3.7 8.82-2.521 3.489 1.179 5.199 4.207 3.817 6.778-1.364 2.573-5.238 1.522-8.73.337-3.487-1.184-5.275-2.029-3.907-4.594Z" style="mix-blend-mode:soft-light" opacity=".56" fill="#000000" class="color000 svgShape"/><path fill="#f9a832" d="M296.288 551.374c6.28 28.09 18.728 71.005 36.909 111.053 2.73 6.06 5.624 12.012 8.626 17.881 3.55 6.907 7.262 13.622 11.193 20.065q3.235 5.364 6.689 10.455c19.6 29.047 42.832 49.521 68.63 49.521.955 0 1.883-.027 2.84-.109.272 0 .545-.027.818-.054a16.963 16.963 0 0 0 1.993-.192 5.298 5.298 0 0 0 .655-.054 48.899 48.899 0 0 0 5.16-.956c.463-.109.9-.218 1.337-.327.573-.164 1.147-.328 1.747-.519 1.202-.327 2.403-.737 3.604-1.174a48.84 48.84 0 0 0 3.658-1.501c.983-.41 1.91-.874 2.84-1.338.845-.41 1.637-.846 2.429-1.31q1.802-.983 3.521-2.13c.028-.027.028 0 .028 0l.054-.054a55.675 55.675 0 0 0 2.457-1.693 41.53 41.53 0 0 0 2.757-2.156c.683-.574 1.365-1.147 2.02-1.72l.901-.82c.656-.6 1.283-1.228 1.884-1.856l.164-.163c.628-.656 1.255-1.338 1.883-2.02a48.661 48.661 0 0 0 2.157-2.567 73.614 73.614 0 0 0 2.484-3.276 70.678 70.678 0 0 0 2.211-3.33.708.708 0 0 0 .192-.3q.941-1.474 1.801-3.03a4.41 4.41 0 0 0 .273-.492 70.51 70.51 0 0 0 3.358-6.743q.819-1.843 1.556-3.767c.328-.792.628-1.584.928-2.402.082-.192.137-.41.219-.628.355-.929.655-1.884.983-2.84.354-1.146.71-2.32 1.064-3.494 12.066-41.522 3.822-97.704-5.296-137.67a567.76 567.76 0 0 0-6.224-24.733l-2.157 7.262s1.42 5.623 3.194 14.768a1081.188 1081.188 0 0 1-5.924-3.03c8.736 50.668 12.858 126.287-39.31 129.426C364.1 697.534 317.2 582.604 304.532 547.66a317.162 317.162 0 0 0-8.245 3.713Z" class="colorf9a832 svgShape"/><path d="m347.992 657.769 5.012 42.595c-3.905-6.422-7.63-13.15-11.173-20.069l-1.035-30.07ZM488.308 707.341c-6.665 22.957-19.538 41.318-41.832 49.612-33.075 12.317-62.677-10.425-86.776-46.135l-2.393-41.756 6.392 6.01 18.357 56.367s60.364 56.374 106.252-24.098Z" style="mix-blend-mode:soft-light" opacity=".45" fill="#000000" class="color000 svgShape"/><path d="m333.197 662.427-1.884-45.535c19.22 44.607 83.099 113.537 129.126 84.19 34.97-22.357 23.86-101.116 17.39-134.12a1081.188 1081.188 0 0 1-5.925-3.03c8.736 50.667 12.858 126.286-39.31 129.425C364.1 697.534 317.2 582.604 304.532 547.66a317.162 317.162 0 0 0-8.245 3.713c6.28 28.09 18.728 71.005 36.909 111.053Z" style="mix-blend-mode:soft-light" opacity=".45" fill="#000000" class="color000 svgShape"/><path fill="#f9a832" d="M473.002 779.51c.245 16.825-9.094 30.186-20.89 29.69-11.828-.497-21.47-14.725-21.504-31.626-.035-16.733 9.38-29.714 21-29.143 11.587.57 21.152 14.418 21.394 31.078Z" class="colorf9a832 svgShape"/><path d="M473.002 779.51c.245 16.825-9.094 30.186-20.89 29.69-11.828-.497-21.47-14.725-21.504-31.626-.035-16.733 9.38-29.714 21-29.143 11.587.57 21.152 14.418 21.394 31.078Z" style="mix-blend-mode:soft-light" opacity=".45" fill="#000000" class="color000 svgShape"/><path d="M465.238 779.155c.13 10.627-5.783 19.03-13.22 18.707-7.45-.323-13.536-9.274-13.583-19.93-.046-10.59 5.898-18.84 13.264-18.488 7.353.352 13.41 9.15 13.539 19.71Z" style="mix-blend-mode:soft-light" opacity=".45" fill="#000000" class="color000 svgShape"/><path fill="#212021" d="M273.339 365.626c13.813 39.174 31.858 150.5-39.557 210.75-71.387 60.277-152.766-3.44-194.234 62.215-41.468 65.627-14.223 113.62-14.223 113.62-25.716-18.428-13.431-80.615-13.431-80.615-9.2 19.191-8.053 57.956-8.053 57.956s-17.09-60.877 20.83-105.921c15.969-18.973 41.712-35.134 82.58-42.75q11.218-2.13 24.05-3.331c74.063-6.852 97.294-44.662 97.158-98.059v-.027c-.137-54.271-24.378-124.676-43.87-195.135-4.286-15.452-8.327-30.876-11.848-46.163C137.443 84.607 283.303-4.443 350.868.17c23.341 1.583 40.458 6.852 52.852 13.076.027-.027.027-.027.054 0 23.45 11.712 30.03 26.835 30.03 26.835C125.158 69.265 259.525 326.48 273.339 365.626Z" class="color212021 svgShape"/><ellipse cx="62.448" cy="606.461" fill="#212021" rx="36.598" ry="23.801" class="color212021 svgShape"/><ellipse cx="65.647" cy="605.757" fill="#212021" rx="23.418" ry="33.591" class="color212021 svgShape"/><path fill="#353535" d="M80.566 603.581c0 8.645-10.456 2.624-23.748 2.624s-24.389 6.021-24.389-2.624 10.776-15.652 24.069-15.652 24.068 7.008 24.068 15.652ZM75.628 580.622c0 3.93-4.753 1.193-10.795 1.193s-11.087 2.737-11.087-1.193 4.899-7.115 10.941-7.115 10.941 3.185 10.941 7.115ZM403.72 13.247c-46.19-2.43-132.729 9.01-198.684 102.81.6-1.775 21.13-59.568 97.677-92.846-2.375.601-78.732 20.72-108.46 101.335-22.577 61.232-12.258 126.778-9.664 159.783-4.286-15.452-8.327-30.876-11.848-46.163C137.443 84.607 283.303-4.443 350.868.17c23.341 1.583 40.458 6.852 52.852 13.076ZM219.204 564.883c-45.672 32.622-95.984 24.57-95.984 24.57s55.663-1.175 87.93-27.655c0 0-34.56 18.045-68.711 21.13a119.8 119.8 0 0 1-35.189-2.048q11.22-2.129 24.05-3.33c74.064-6.852 97.295-44.662 97.159-98.059 9.255 17.526 26.316 59.949-9.255 85.392ZM22.268 641.648c-4.996 13.432-26.48 33.797-18.427 87.904 0 0-17.09-60.877 20.83-105.921a41.348 41.348 0 0 1-2.403 18.017Z" class="color353535 svgShape"/><path fill="#e5a488" d="M576.864 436.605c14.983 8.83 31.168 4.057 45.052-7.85 27.237-23.264 45.661-73.775 29.02-102.406-6.543-11.212-14.196-15.951-21.99-16.798-22.217-2.408-45.375 26.823-45.375 26.823s-51.042 74.089-6.707 100.231Z" class="colore5a488 svgShape"/><path d="M576.864 436.605c14.983 8.83 31.168 4.057 45.052-7.85-14.84 2.015-22.725-3.944-14.366-15.786 10.957-15.503 40.924-45.24 37.233-63.447-3.668-18.234-29.155 2.194-29.155 2.194-2.156-22.006 5.621-34.917 13.317-42.165-22.216-2.408-45.374 26.823-45.374 26.823s-51.042 74.089-6.707 100.231Z" style="mix-blend-mode:soft-light" opacity=".45" fill="#000000" class="color000 svgShape"/><path fill="#bc7b64" d="M584.706 396.569c-.47-7.752 1.123-15.276 3.67-22.456a64.382 64.382 0 0 1 11.585-20.023 46 46 0 0 1 19.619-13.805 35.14 35.14 0 0 1 12.003-1.824 29.028 29.028 0 0 1 11.367 2.848 83.032 83.032 0 0 0-10.332 3.394 56.822 56.822 0 0 0-8.68 4.729 73.702 73.702 0 0 0-14.228 13.078 197.041 197.041 0 0 0-12.353 16.217c-4.046 5.743-8.03 11.686-12.651 17.842Z" class="colorbc7b64 svgShape"/><path fill="#e5a488" d="M216.025 436.605c-14.982 8.83-31.167 4.057-45.051-7.85-27.237-23.264-45.661-73.775-29.021-102.406 6.543-11.212 14.196-15.951 21.991-16.798 22.217-2.408 45.375 26.823 45.375 26.823s51.042 74.089 6.706 100.231Z" class="colore5a488 svgShape"/><path d="M216.025 436.605c-14.982 8.83-31.167 4.057-45.051-7.85 14.84 2.015 22.725-3.944 14.366-15.786-10.957-15.503-40.924-45.24-37.233-63.447 3.668-18.234 29.155 2.194 29.155 2.194 2.155-22.006-5.622-34.917-13.318-42.165 22.217-2.408 45.375 26.823 45.375 26.823s51.042 74.089 6.706 100.231Z" style="mix-blend-mode:soft-light" opacity=".45" fill="#000000" class="color000 svgShape"/><path fill="#bc7b64" d="M208.184 396.569c-4.621-6.156-8.605-12.1-12.651-17.842a197.15 197.15 0 0 0-12.353-16.217 73.699 73.699 0 0 0-14.228-13.078 56.794 56.794 0 0 0-8.68-4.73 83.005 83.005 0 0 0-10.333-3.393 29.032 29.032 0 0 1 11.368-2.848 35.139 35.139 0 0 1 12.003 1.824 46.004 46.004 0 0 1 19.618 13.805 64.402 64.402 0 0 1 11.586 20.024c2.546 7.18 4.14 14.703 3.67 22.455Z" class="colorbc7b64 svgShape"/><path fill="#ff9d00" d="M585.366 437.413c.287 11.239 8.967 20.472 19.387 20.622s18.637-8.839 18.35-20.078-8.967-20.471-19.388-20.621-18.636 8.838-18.349 20.077Z" class="colorff9d00 svgShape"/><path d="M585.378 437.417c.286 11.231 8.953 20.484 19.368 20.634s18.647-8.858 18.36-20.09c-.286-11.232-8.985-20.485-19.4-20.635s-18.615 8.858-18.328 20.09Zm11.946-9.92a10.246 10.246 0 0 1 14.632-4.748 12.555 12.555 0 0 1 4.974 15.95c-2.633 5.713-8.677 2.87-14.09-.238s-8.149-5.25-5.516-10.964Z" style="mix-blend-mode:soft-light" opacity=".56" fill="#000000" class="color000 svgShape"/><path fill="#ff9d00" d="M169.224 437.413c.287 11.239 8.967 20.472 19.388 20.622s18.636-8.839 18.349-20.078-8.967-20.471-19.387-20.621-18.637 8.838-18.35 20.077Z" class="colorff9d00 svgShape"/><path d="M169.236 437.417c.286 11.231 8.953 20.484 19.368 20.634s18.647-8.858 18.36-20.09c-.286-11.232-8.985-20.485-19.4-20.635s-18.615 8.858-18.328 20.09Zm11.946-9.92a10.246 10.246 0 0 1 14.633-4.748 12.555 12.555 0 0 1 4.973 15.95c-2.632 5.713-8.677 2.87-14.09-.238s-8.149-5.25-5.516-10.964Z" style="mix-blend-mode:soft-light" opacity=".56" fill="#000000" class="color000 svgShape"/><path d="M396.145 36.825v.068c-.58-.034-1.057-.034-1.467-.034.956-.034 1.467-.034 1.467-.034ZM394.678 36.86c-.409 0-.92 0-1.5.033v-.068s.512 0 1.5.034Z" fill="#000000" class="color000 svgShape"/><path fill="#e5a488" d="M558.455 104.315c27.842 28.712 41.96 68.032 39.78 107.967-3.7 67.794-10.957 182.393-19.172 213.844-11.746 45.015-83.593 119.148-182.871 155.125-.493.21-.985.386-1.513.562-.527-.176-1.055-.351-1.547-.562-99.314-35.977-171.126-110.11-182.872-155.125-8.215-31.45-15.473-146.05-19.172-213.844-2.18-39.935 11.939-79.255 39.78-107.967 66.738-68.826 145.906-75.185 162.264-75.759.598-.035 1.125-.035 1.547-.035.422 0 .915 0 1.513.035 16.357.574 95.525 6.933 162.263 75.759Z" class="colore5a488 svgShape"/><path d="M596.14 249.037c-.519 8.272-1.037 16.844-1.61 25.525-14.442-9.227-61.888-32.459-159.865-20.01-120.8 15.37-169.938-27.627-191.45 54.27-20.556 78.35 70.406 263.547 165.242 267.724q-6.06 2.457-12.256 4.696c-.492.218-.983.382-1.53.573-.518-.191-1.037-.355-1.528-.573-99.314-35.98-171.139-110.098-182.878-155.115-8.217-31.448-15.479-146.05-19.164-213.834-2.184-39.94 11.93-79.278 39.775-107.969 66.72-68.849 145.887-75.182 162.267-75.755.6-.055 1.119-.055 1.529-.055.436 0 .928 0 1.529.055 7.916.3 30.711 1.91 59.676 11.438C387.3 47.16 273.408 68.89 241.168 134.79c-47.09 96.23 123.884 116.704 235.456 102.372 56.482-7.262 95.11 1.474 119.516 11.875Z" style="mix-blend-mode:soft-light" opacity=".3" fill="#000000" class="color000 svgShape"/><path fill="#ffc4b0" d="m362.203 410.85 9.247-41.897s23.58 46.627 49.472 0l7.86 39.87s-32.827 50.006-66.58 2.027Z" class="colorffc4b0 svgShape"/><path fill="#bc7b64" d="M360.315 401.37a28.567 28.567 0 0 0 14.148 16.859 43.807 43.807 0 0 0 40.573-.016 28.631 28.631 0 0 0 14.16-16.843 20.44 20.44 0 0 1-.714 13.105 29.347 29.347 0 0 1-8.004 11.247 40.3 40.3 0 0 1-51.44-.012 29.399 29.399 0 0 1-7.997-11.243 20.462 20.462 0 0 1-.726-13.097Z" class="colorbc7b64 svgShape"/><path fill="#212021" d="M355.788 307.418c-7.58 17.305-18.001 19.312-18.001 19.312a213.643 213.643 0 0 0-29.205-22.035c-.872-.55-1.753-1.077-2.6-1.619-.639-.36-1.244-.735-1.859-1.087a153.52 153.52 0 0 0-24.476-11.59 99.229 99.229 0 0 0-4.59-1.55 117.759 117.759 0 0 0-4.48-1.321c-10.333-2.85-16.372-2.832-16.372-2.832a81.878 81.878 0 0 1 17.033-7.721c1.8-.544 3.585-1.04 5.359-1.43 1.717-.382 3.417-.715 5.084-.952a65.799 65.799 0 0 1 25.767 1.34c1.161.27 2.305.588 3.418.923a80.26 80.26 0 0 1 3.333 1.084c25.355 8.921 41.59 29.478 41.59 29.478Z" class="color212021 svgShape"/><path fill="#353535" d="M276.597 275.546a57.685 57.685 0 0 1-1.54 13.302 117.759 117.759 0 0 0-4.48-1.32 50.364 50.364 0 0 0 .66-10.553c1.802-.544 3.586-1.04 5.36-1.43ZM307.448 275.933c1.54 9.412-.92 19.254-3.325 26.056a153.52 153.52 0 0 0-24.476-11.59 66.113 66.113 0 0 0 2.034-15.806 65.799 65.799 0 0 1 25.767 1.34ZM308.582 304.695c-.872-.55-1.753-1.077-2.6-1.619a69.626 69.626 0 0 0 4.884-26.22 80.26 80.26 0 0 1 3.333 1.084 70.462 70.462 0 0 1-5.617 26.755Z" class="color353535 svgShape"/><path fill="#212021" d="M438.76 266.837c1.444 18.838 10.618 24.173 10.618 24.173a213.644 213.644 0 0 1 34.841-11.159c1.005-.232 2.01-.438 2.99-.67.72-.129 1.417-.283 2.112-.412a153.523 153.523 0 0 1 26.93-2.86c1.701-.026 3.299 0 4.845.05 1.65.052 3.222.13 4.665.233 10.694.721 16.39 2.731 16.39 2.731a81.884 81.884 0 0 0-13.53-12.91c-1.52-1.109-3.04-2.165-4.587-3.118-1.494-.928-2.99-1.804-4.484-2.578a65.8 65.8 0 0 0-24.765-7.241 55.52 55.52 0 0 0-3.53-.258 80.286 80.286 0 0 0-3.505-.077c-26.879.051-48.99 14.096-48.99 14.096Z" class="color212021 svgShape"/><path fill="#353535" d="M524.034 262.895a57.687 57.687 0 0 0-2.938 13.065c1.65.051 3.222.129 4.665.232a50.363 50.363 0 0 1 2.86-10.18c-1.52-1.108-3.04-2.164-4.587-3.117ZM494.785 253.076c-4.561 8.375-5.489 18.477-5.464 25.693a153.523 153.523 0 0 1 26.93-2.86 66.111 66.111 0 0 1 3.299-15.592 65.8 65.8 0 0 0-24.765-7.241ZM484.219 279.851c1.005-.232 2.01-.438 2.99-.67a69.626 69.626 0 0 1 4.045-26.363 80.286 80.286 0 0 0-3.504-.077 70.46 70.46 0 0 0-3.531 27.11Z" class="color353535 svgShape"/><ellipse cx="307.639" cy="349.348" rx="21.578" ry="43.608" transform="rotate(-4.242 307.639 349.348)" style="mix-blend-mode:soft-light" opacity=".45" fill="#000000" class="color000 svgShape"/><ellipse cx="308.327" cy="358.631" rx="15.312" ry="29.138" transform="rotate(-4.242 308.327 358.63)" fill="#000000" class="color000 svgShape"/><path fill="#ffffff" d="M307.457 344.728c.372 5.01-1.591 9.241-4.385 9.448s-5.36-3.687-5.732-8.698 1.592-9.241 4.386-9.448 5.36 3.687 5.731 8.698ZM313.237 355.816c.016 3.07-1.359 5.566-3.07 5.575s-3.112-2.473-3.128-5.543 1.358-5.566 3.07-5.575 3.112 2.473 3.128 5.543Z" class="colorfff svgShape"/><ellipse cx="485.766" cy="349.348" rx="43.608" ry="21.578" transform="rotate(-86.59 485.766 349.348)" style="mix-blend-mode:soft-light" opacity=".45" fill="#000000" class="color000 svgShape"/><ellipse cx="485.212" cy="358.64" rx="29.138" ry="15.312" transform="rotate(-86.59 485.212 358.64)" fill="#000000" class="color000 svgShape"/><path fill="#ffffff" d="M486.201 344.745c-.298 5.016-2.808 8.947-5.604 8.78s-4.821-4.368-4.523-9.384 2.809-8.947 5.605-8.78 4.821 4.368 4.522 9.384ZM490.453 356.504c-.393 3.044-2.087 5.335-3.785 5.116s-2.755-2.865-2.362-5.91 2.087-5.335 3.785-5.116 2.755 2.865 2.362 5.91Z" class="colorfff svgShape"/><path fill="#eacead" d="M463.848 229.532q-64.307 11.826-131.652-.076a9.25 9.25 0 0 1-7.415-9.236 9.127 9.127 0 0 1 10.601-9.224 349.651 349.651 0 0 0 125.463-.072 9.112 9.112 0 0 1 10.522 9.231v.12a9.321 9.321 0 0 1-7.519 9.257Z" class="coloreacead svgShape"/><path fill="#eacead" d="M463.848 208.51q-64.307 11.826-131.652-.077a9.25 9.25 0 0 1-7.415-9.235 9.127 9.127 0 0 1 10.601-9.224 349.651 349.651 0 0 0 125.463-.072 9.112 9.112 0 0 1 10.522 9.231v.12a9.321 9.321 0 0 1-7.519 9.257Z" class="coloreacead svgShape"/><path fill="#eacead" d="M463.848 188.206q-64.307 11.826-131.652-.076a9.25 9.25 0 0 1-7.415-9.236 9.127 9.127 0 0 1 10.601-9.224 349.651 349.651 0 0 0 125.463-.072 9.112 9.112 0 0 1 10.522 9.231v.12a9.321 9.321 0 0 1-7.519 9.257Z" class="coloreacead svgShape"/><ellipse cx="397.012" cy="208.587" fill="#ce3e3e" rx="15.579" ry="16.228" class="colorce3e3e svgShape"/><ellipse cx="189.629" cy="463.792" fill="#ff9d00" rx="6.971" ry="7.595" transform="rotate(-14.236 189.63 463.792)" class="colorff9d00 svgShape"/><path d="M182.626 463.692c.106 4.172 3.325 7.608 7.193 7.664s6.926-3.29 6.82-7.461c-.107-4.172-3.338-7.609-7.206-7.664s-6.914 3.29-6.807 7.461Zm4.437-3.684a3.805 3.805 0 0 1 5.434-1.763 4.663 4.663 0 0 1 1.847 5.923c-.977 2.123-3.222 1.067-5.232-.088s-3.027-1.95-2.05-4.072Z" style="mix-blend-mode:soft-light" opacity=".56" fill="#000000" class="color000 svgShape"/><path fill="#ff9d00" d="M163.159 481.442h55.02v55.02h-55.02z" transform="rotate(-45.754 190.669 508.951)" class="colorff9d00 svgShape"/><path d="m190.267 477.778-30.793 31.585 31.612 30.766 30.767-31.585Zm.683 51.76-20.857-20.311 20.31-20.857 20.857 20.31Z" style="mix-blend-mode:soft-light" opacity=".56" fill="#000000" class="color000 svgShape"/><path fill="#ff9d00" d="M598.252 463.691c.106 4.174 3.33 7.603 7.2 7.66s6.922-3.284 6.815-7.458-3.33-7.603-7.2-7.659-6.922 3.283-6.815 7.457Z" class="colorff9d00 svgShape"/><path d="M598.256 463.692c.106 4.172 3.325 7.608 7.193 7.664s6.926-3.29 6.82-7.461c-.107-4.172-3.338-7.609-7.206-7.664s-6.914 3.29-6.807 7.461Zm4.437-3.684a3.805 3.805 0 0 1 5.434-1.763 4.663 4.663 0 0 1 1.847 5.923c-.977 2.123-3.222 1.067-5.232-.088s-3.027-1.95-2.05-4.072Z" style="mix-blend-mode:soft-light" opacity=".56" fill="#000000" class="color000 svgShape"/><path fill="#ff9d00" d="M578.789 481.442h55.02v55.02h-55.02z" transform="rotate(-45.754 606.299 508.951)" class="colorff9d00 svgShape"/><path d="m605.897 477.778-30.793 31.585 31.612 30.766 30.767-31.585Zm.683 51.76-20.857-20.311 20.31-20.857 20.857 20.31Z" style="mix-blend-mode:soft-light" opacity=".56" fill="#000000" class="color000 svgShape"/><path d="M372.39 510.79c33.525 4.955 70.84-38.075 70.84-38.075-8.042 1.246-16.058 2.059-23.884 2.519a349.547 349.547 0 0 1-76.067-4.035c-1.381-.244-2.113-.38-2.113-.38s-2.274 35.015 31.224 39.97Z" fill="#000000" class="color000 svgShape"/><path fill="#ffffff" d="M343.279 471.199c3.683 9.207 11.509 18.875 27.973 21.312 16.79 2.491 34.554-7.095 48.094-17.277a349.547 349.547 0 0 1-76.067-4.035Z" class="colorfff svgShape"/><path fill="#bc7b64" d="M293.357 446.336q7.323 7.769 14.179 15.866l-1.308-.95c7.683 1.332 15.517 2.59 23.328 3.443 3.885.562 7.81.898 11.703 1.357 3.912.338 7.826.62 11.715 1.05a465.076 465.076 0 0 0 46.822 1.334 356.024 356.024 0 0 0 46.55-3.879c15.54-1.986 30.65-5.968 46.078-10.023l-.439.3a271.67 271.67 0 0 1 8.154-6.421 272.5 272.5 0 0 1-6.212 8.315l-.093.12-.348.182q-5.33 2.792-10.805 5.418l-5.47 2.67-5.675 2.123c-3.8 1.385-7.586 2.884-11.438 4.182l-11.751 3.173a95.212 95.212 0 0 1-11.905 2.58c-4.004.66-7.99 1.567-12.024 2.02-8.065.992-16.167 1.68-24.282 1.908a267.545 267.545 0 0 1-48.458-2.948 228.368 228.368 0 0 1-46.911-12.141l-.98-.378-.329-.573q-5.29-9.196-10.101-18.728Z" class="colorbc7b64 svgShape"/><path fill="#bc7b64" d="M290.309 453.281a7.662 7.662 0 0 1-1.194-7.428 9.292 9.292 0 0 1 4.805-5.222 9.187 9.187 0 0 1 6.865-.42 8.696 8.696 0 0 1 5.23 5.187c-1.994 2.423-3.302 3.725-4.313 4.822a8.367 8.367 0 0 1-2.35 1.976 7.873 7.873 0 0 1-2.85.422 44.676 44.676 0 0 0-6.193.663Z" class="colorbc7b64 svgShape"/></g></svg>