<svg xmlns="http://www.w3.org/2000/svg" data-name="Layer 2" viewBox="0 0 2800 1900"><defs><clipPath id="a"><path fill="#a86335" d="M1415.8516,166.4834c56.1347,91.6968,9.0117,236.4766-98.8262,333.8716-107.8418,97.3979-256.6572,129.5835-342.1797,64.4321-98.6777-75.1709-77.165-247.5591,62.6963-373.8784,139.8623-126.3171,313.543-130.2195,378.3096-24.4253" class="colora86335 svgShape"/></clipPath><clipPath id="b"><path fill="none" d="M1316.123,259.874c-35.0937,2.5117-60.5107,13.3057-78.6796,26.1211-32.4737,22.8916-41.7627,52.2036-41.7627,52.2036a227.06792,227.06792,0,0,0-4.7315,29.9331q-.63285,7.4166-.623,14.2198a122.61092,122.61092,0,0,0,2.3242,24.4614,92.81822,92.81822,0,0,0,3.6406,13.0527c16.0088,28.9214,44.0215,54.7173,93.0742,54.7173.8721,0,1.7559-.0083,2.6407-.0249,112.581-2.0991,134.0273-36.3052,134.582-37.2554-32.9209,21.0782-69.6572,28.2398-109.8154,28.2398-9.544,0-19.2871-.4053-29.211-1.124-51.6855-3.7637-83.2304-163.5464-3.0049-187.4981a159.40114,159.40114,0,0,1,45.8301-6.6665c45.7051,0,82.168,18.979,95.9502,27.3023-.5342-2.8506-.8584-4.5308-.8584-4.5308-20.293-13.3037-38.4863-21.4048-53.5107-26.3203a73.61044,73.61044,0,0,1-14.0489,1.5371c-.1308,0-.1992-.001-.1992-.001-2.9492.1709-5.7265.2539-8.3642.2539-16.5147,0-27.0586-3.2617-33.2325-8.6211"/></clipPath></defs><path fill="#1a1d21" d="M1051.833,1186.0669s-39.4434,160.3169,55.9824,297.7314l-45.8037,250.6524s-25.4482,13.9951-17.8135,29.2651c7.6348,15.2671,138.6866,3.8159,138.6866,3.8159l124.6914-17.811-2.5469-276.1016,105.6084,29.2622,25.4463,243.0206s143.7744,21.6298,146.3213,2.5439c2.5439-19.083-31.8086-40.7129-31.8086-40.7129l-20.3604-180.6748s-67.4345-125.9634-100.5156-152.6841c-33.0801-26.7182-225.2061-227.7505-225.2061-227.7505l-152.6816,39.4434" class="color1a1d21 svgShape"/><path fill="#15171b" d="M1418.2646,1575.7197l17.8194,170.1822s69.2207,10.414,112.4531,10.414c19.0762,0,33.0889-2.0268,33.8682-7.8701a15.37144,15.37144,0,0,0,.1347-2.021c.0362-18.5561-31.9433-38.6919-31.9433-38.6919l-13.0362-115.6816q-1.7724-1.81575-3.5205-3.6651c-8.6543.7593-17.0771,1.0957-25.207,1.0957a307.92055,307.92055,0,0,1-90.5684-13.7622m-369.583-373.0761a419.61775,419.61775,0,0,0-4.9267,64.812c-.0186,58.9033,11.7812,141.06,64.0605,216.3427h0l-45.8037,250.6524s-19.2236,10.5722-19.2422,23.3642a13.00393,13.00393,0,0,0,1.4287,5.9009c3.0538,6.106,25.8545,7.9385,52.1133,7.9385,35.3301,0,76.9239-3.3159,85.1289-4l9.8526-140.1841,25.8916-368.4975c-20.6436,8.0488-39.5078,11.6342-56.7383,11.6342a114.23487,114.23487,0,0,1-56.7285-14.7846c-.0576-.0323-.0996-.0562-.1573-.0884l-.0693-.0391c-21.8877-12.3154-39.9414-31.2759-54.8096-53.0512" class="color15171b svgShape"/><path fill="#242933" d="M1221.6924,1194.9712l-41.9873,597.3735s-25.4492,29.9004-24.1748,48.9839c1.2695,19.086,171.7676,39.4439,231.5674,11.4512l12.7226-283.7339s85.2481,38.1694,184.4932,10.1792l90.3359,257.0151s155.2285,29.2652,237.9326,7.6353c82.7032-21.6304-20.3584-71.2529-20.3584-71.2529l-206.123-664.1709-324.4492-106.878-139.959,193.3975" class="color242933 svgShape"/><path fill="#c7c7c7" d="M1706.0361,1172.6533l-.0088.0005,30.1846,97.2666.0117-.0034-30.1875-97.2637" class="colorc7c7c7 svgShape"/><polyline fill="#111216" points="1217.194 1258.969 1217.185 1258.973 1191.293 1627.47 1217.194 1258.969" class="color111216 svgShape"/><path fill="#c7c7c7" d="M1729.7998,1844.5698c29.7324,3.7173,67.7568,7.2735,104.4443,7.2735q5.3292,0,10.6123-.1036-5.2689.10485-10.5918.1031c-36.6904,0-74.7304-3.5567-104.4648-7.273m-573.4863-1.1762.0019.0024-.0019-.0024m778.0996-8.1163a71.76108,71.76108,0,0,1-17.5059,7.3916,71.19056,71.19056,0,0,0,17.5059-7.3916m-775.2451-10.6206c-2.4424,5.8125-3.9805,11.6192-3.6475,16.6665a4.14509,4.14509,0,0,0,.7598,2.022,4.12864,4.12864,0,0,1-.75-2.0166c-.3369-5.0517,1.1972-10.8598,3.6377-16.6719m20.5371-32.3227c-.1563.1846-4.3672,5.1636-9.2354,12.2788,4.958-7.2437,9.2354-12.2681,9.2354-12.2681h0m462.2715-49.061,32.665,92.9517.0068.0009-32.6718-92.9526" class="colorc7c7c7 svgShape"/><path fill="#1d212a" d="M1734.3506,1635.4482a197.0301,197.0301,0,0,1-83.4815,19.1719c-5.7119,0-8.9736-.3159-8.9736-.3159a165.88728,165.88728,0,0,1-35.3086-11.7271l35.3897,100.7066,32.6728,92.9565c.4277.0767,22.9014,4.2974,55.1504,8.3296,29.7344,3.7163,67.7744,7.273,104.4648,7.273q5.32035,0,10.5918-.1031c24.6153-.4887,48.2041-2.7612,67.7334-7.872q2.24865-.5853,4.3174-1.1988a71.76108,71.76108,0,0,0,17.5059-7.3916,24.75592,24.75592,0,0,0,8.001-7.457c-32.4024-5.0224-106.5743-21.2397-153.2598-67.9258-18.9102-18.9106-38.1855-66.4868-54.8037-124.4463m-420.7227-437.9379h0c-35.831,30.603-67.8418,50.3105-96.4336,61.4585l-25.9013,368.5014-11.583,164.8584-.0049.0054v.0107s-4.2774,5.0244-9.2354,12.2681a118.12092,118.12092,0,0,0-11.3017,20.0439c-2.4405,5.8121-3.9746,11.6202-3.6377,16.6719a4.12864,4.12864,0,0,0,.75,2.0166l.0332.0484.0019.0024c3.4619,5.0156,17.8389,9.9858,38.086,14.0112-.3721-3.9365,3.667-8.0434,13.3017-12.2495,61.0733-26.7363,59.8174-91.6103,86.5196-251.9272,22.2558-133.6231,63.0878-235.4258,88.6025-235.4243,5.0967,0,9.583,4.0629,13.1865,12.7465,21.6143,52.1822,3.8008,198.4854,3.8008,198.4854s45.6436,20.437,109.0244,20.437c8.125,0,16.5479-.3364,25.1973-1.0947-98.1787-103.8252-147.8008-290.3462-155.5352-314.5293-10.1787-31.7906-64.8711-76.3408-64.8711-76.3408m358.8047-25.4463a1.49761,1.49761,0,0,1-.0342.27c-.916,5.4961-15.6416,94.2563-27.9589,144.7768-10.3829,42.6163-48.7901,154.7891-25.1084,209.7539,5.3291,12.3174,13.7753,21.7818,26.3652,26.9063a92.70687,92.70687,0,0,0,35.2109,6.5933,131.1067,131.1067,0,0,0,33.5723-4.6675c-24.6934-114.1074-36.5899-236.1382-18.1924-260.1973,8.6514-11.2964,22.3555-20.3198,39.9248-25.5791l-30.1865-97.2661c-4.9492.2856-9.5117.3926-13.5752.3926a176.67963,176.67963,0,0,1-19.9961-.98l-.0215-.0029" class="color1d212a svgShape"/><path fill="#c67a3e" d="M1457.251,129.0942c62.6123,110.4871,4.9678,279.938-120.4229,393.1895-125.3906,113.248-299.8203,153.3989-403.3818,79.8926-122.7539-87.127-101.7891-295.6846,69.0937-450.0205s380.4922-154.0245,454.711-23.0616" class="colorc67a3e svgShape"/><path fill="#b56a37" d="M1434.0762,150.0251c59.1347,99.9104,7.4287,255.6414-108.2305,360.0979-115.6592,104.4595-275.832,140.0923-369.2246,71.1246-109.043-80.5259-87.5459-268.6705,65.7559-407.1294,153.3017-138.4563,342.6582-140.7466,411.6992-24.0931" class="colorb56a37 svgShape"/><path fill="#a86335" d="M1415.8516,166.4834c56.1347,91.6968,9.0117,236.4766-98.8262,333.8716-107.8418,97.3979-256.6572,129.5835-342.1797,64.4321-98.6777-75.1709-77.165-247.5591,62.6963-373.8784,139.8623-126.3171,313.543-130.2195,378.3096-24.4253" class="colora86335 svgShape"/><g clip-path="url(#a)" fill="#000000" class="color000 svgShape"><polyline fill="#c67a3e" points="1202.075 364.383 1195.059 370.722 1028.73 187.401 1036.844 180.073 1202.075 364.383" class="colorc67a3e svgShape"/><polyline fill="#c67a3e" points="1196.579 371.617 967.106 259.138 971.003 248.849 1200.521 362.946 1196.579 371.617" class="colorc67a3e svgShape"/><polyline fill="#c67a3e" points="1198.045 371.863 924.419 337.154 924.04 326.085 1198.854 362.242 1198.045 371.863" class="colorc67a3e svgShape"/><polyline fill="#c67a3e" points="1199.159 371.69 903.554 414.194 899.876 403.811 1197.393 362.08 1199.159 371.69" class="colorc67a3e svgShape"/><polyline fill="#c67a3e" points="1199.927 371.337 904.959 483.824 899.06 474.77 1196.16 362.236 1199.927 371.337" class="colorc67a3e svgShape"/><polyline fill="#c67a3e" points="1200.436 370.926 926.796 541.084 919.507 533.549 1195.098 362.603 1200.436 370.926" class="colorc67a3e svgShape"/><polyline fill="#c67a3e" points="1200.779 370.497 965.622 582.883 957.514 576.864 1194.148 363.145 1200.779 370.497" class="colorc67a3e svgShape"/><polyline fill="#c67a3e" points="1017.208 607.858 1008.644 603.323 1193.289 363.87 1201.021 370.031 1017.208 607.858" class="colorc67a3e svgShape"/><polyline fill="#c67a3e" points="1077.211 616.012 1068.411 612.988 1192.529 364.807 1201.201 369.484 1077.211 616.012" class="colorc67a3e svgShape"/><polyline fill="#c67a3e" points="1141.559 608.246 1132.71 606.895 1191.92 366.021 1201.303 368.764 1141.559 608.246" class="colorc67a3e svgShape"/><polyline fill="#c67a3e" points="1206.59 585.99 1197.966 586.65 1191.582 367.584 1201.243 367.762 1206.59 585.99" class="colorc67a3e svgShape"/><polyline fill="#c67a3e" points="1269.027 551.023 1261.184 554.103 1191.766 369.487 1200.798 366.451 1269.027 551.023" class="colorc67a3e svgShape"/><polyline fill="#c67a3e" points="1325.942 505.467 1319.758 511.052 1192.716 371.429 1199.738 365.087 1325.942 505.467" class="colorc67a3e svgShape"/><polyline fill="#c67a3e" points="1371.095 459.247 1194.283 372.852 1198.22 364.181 1374.947 451.761 1371.095 459.247" class="colorc67a3e svgShape"/><polyline fill="#c67a3e" points="1412.512 400.811 1195.948 373.543 1196.749 363.927 1414.038 392.308 1412.512 400.811" class="colorc67a3e svgShape"/><polyline fill="#c67a3e" points="1441.605 338.429 1197.403 373.698 1195.626 364.1 1441.156 329.503 1441.605 338.429" class="colorc67a3e svgShape"/><polyline fill="#c67a3e" points="1456.267 275.177 1198.628 373.536 1194.856 364.454 1454.154 266.132 1456.267 275.177" class="colorc67a3e svgShape"/><polyline fill="#c67a3e" points="1454.696 214.533 1199.683 373.167 1194.344 364.867 1451.058 205.569 1454.696 214.533" class="colorc67a3e svgShape"/><polyline fill="#c67a3e" points="1435.56 160.442 1200.625 372.63 1193.998 365.296 1430.407 151.782 1435.56 160.442" class="colorc67a3e svgShape"/><polyline fill="#c67a3e" points="1201.476 371.913 1193.755 365.765 1391.651 109.218 1398.394 117.219 1201.476 371.913" class="colorc67a3e svgShape"/><polyline fill="#c67a3e" points="1202.232 370.981 1193.577 366.317 1335.682 82.434 1344.073 89.213 1202.232 370.981" class="colorc67a3e svgShape"/><polyline fill="#c67a3e" points="1202.842 369.774 1193.478 367.042 1265.337 75.485 1275.273 80.197 1202.842 369.774" class="colorc67a3e svgShape"/><polyline fill="#c67a3e" points="1203.183 368.222 1193.54 368.047 1185.725 91.035 1196.681 92.537 1203.183 368.222" class="colorc67a3e svgShape"/><polyline fill="#c67a3e" points="1203.013 366.325 1193.99 369.361 1104.084 129.343 1114.705 126.513 1203.013 366.325" class="colorc67a3e svgShape"/></g><path fill="#9b532c" d="M1228.5342,335.6621c10.9482,12.8306,5.0781,36.1958-12.9014,52.4341-17.9785,16.2383-41.8174,19.706-53.4726,7.5117-11.9034-12.456-6.5957-36.4414,12.0976-53.3237,18.6934-16.8848,43.0928-19.7295,54.2764-6.6221" class="color9b532c svgShape"/><path fill="#231c2d" d="M1196.8223,390.2974s-16.126,108.2856,16.0078,137.8672c32.1387,29.5844,209.2978-5.2266,235.2148-42.9351,25.918-37.7085-11.9658-123.1528-11.9658-123.1528L1251.46,327.3574l-54.6377,62.94" class="color231c2d svgShape"/><polyline fill="#b7765a" points="1314.44 442.239 1259.522 471.931 1313.384 796.066 1502.484 752.916 1419.987 409.396 1314.44 442.239" class="colorb7765a svgShape"/><path fill="#b7765a" d="M1261.6807 591.0181c-15.7774 8.4492-63.2119 34.4057-77.4952 48.7251a427.26777 427.26777 0 0074.6104 69.2505l-4.9199 60.3593s-36.8477 5.1245-41.1563-6.1406c-4.3076-11.2993-.7793-23.5796-.7793-23.5796s-75.6631-9.7392-109.3222-46.4507c-33.6231-36.7451-45.5664-86.7578-21.6797-122.5874 23.9199-35.8628 146.7109-110.4424 146.7109-110.4424l34.0313 130.8658M1837.0596 449.5415c15.4902-6.1953 18.3662-29.8721 3.9814-20.5776-14.3828 9.2939-65.9394 18.5859-65.9394 18.5859s-12.6133-6.8574-37.6192-9.9565c29.4317-23.6768-4.8662-56.4278-3.539-43.3702 1.3271 13.0557-3.3184 11.9488-16.3741 26.7735-13.0556 14.8271-14.3847 17.4814-16.5966 42.0425-1.2432 3.1123-4.5909 5.8657-7.2823 7.6821 0 0-75.6992 14.668-147.3916-.5991-71.6953-15.2671-99.5781-41.1582-99.5781-41.1582s-42.7051 116.834 46.249 141.6181c88.9541 24.7837 162.4287-5.4179 227.4834-58.0849 21.8789-.5835 45.2442-1.3741 57.5254-7.4805 15.709-7.813 55.5401-32.0181 65.9414-43.5244 10.3994-11.5083 7.9649-17.0391-6.8603-11.9507" class="colorb7765a svgShape"/><path fill="#ac684d" d="M1315.959,635.2319c8.5859,36.1485,18.3799,72.7823,29.0185,104.7925,29.1641-10.6284,56.6192-15.0259,82.0772-15.0259.0859,0,.1816,0,.2685.0005-1.9804-19.4458-4.0361-43.1377-6.0478-68.396a65.89834,65.89834,0,0,1-11.1865,7.188c7.5263,3.7783,12.6816,12.521,12.6982,22.6118q.0015.80055-.041,1.6128c-.7031,13.4673-10.3193,23.982-21.6953,23.982q-.482,0-.9688-.0254c-11.331-.5909-20.0586-11.4419-20.082-24.5767q-.0015-.8013.041-1.6128a28.013,28.013,0,0,1,4.8799-14.5713q-2.7978.25785-5.5439.2559c-24.1651,0-45.3838-14.6377-63.418-36.2354m-23.0205-108.3833c2.083,10.9156,4.3867,22.6543,6.8965,34.9683,21.2197,28.4614,49.2685,52.937,82.9658,52.937,1.0556,0,2.1074-.0234,3.1738-.0718,13.4531-.6084,23.6065-5.2895,31.1729-12.6914-1.7754-24.5884-3.4346-48.8799-4.8702-70.5718-8.5781,11.9336-21.0214,21.0782-39.0625,22.9273a91.59892,91.59892,0,0,1-9.4003.4824,98.21132,98.21132,0,0,1-30.8624-5.0913c-2.0625-.6548-4.0996-1.4058-6.1064-2.2251a110.16634,110.16634,0,0,1-13.8047-6.5615,122.63586,122.63586,0,0,1-20.1025-14.1021m30.2392-44.2363c42.0088,0,81.3799-19.1333,81.3799-19.1333s13.6397,29.5527-23.5459,44.8198a48.0063,48.0063,0,0,1-18.1387,3.1299c-18.5263,0-39.9257-7.4101-53.1347-14.8218-13.2061-7.4091-18.2178-14.8213-3.9629-14.8213,1.5918,0,3.4219.0923,5.5098.2872,3.9658.3701,7.9423.5395,11.8925.5395m84.3487-25.897a138.45894,138.45894,0,0,1-25.7373,9.0171c-24.9004,6.2608-52.9786,10.7725-79.8008,10.7725-6.1973,0-12.3242-.2407-18.333-.7564.6015,3.4922,1.2705,7.336,2.0039,11.4908,19.7471,12.4321,52.8037,29.9394,82.3525,29.9394,15.9385,0,30.8506-5.0879,42.1153-18.8115-1.2041-18.8443-2.1104-33.5772-2.6006-41.6519" class="colorac684d svgShape"/><path fill="#1c1725" d="M1227.4775,460.2573c-1.1875.7232-8.4384,5.1529-19.167,11.9678v.0005c10.7305-6.8159,17.9776-11.2437,19.167-11.9683m.0704-.0429c-.0147.0087-.0313.0185-.0489.0297l.0489-.0297m.0322-.0196-.0283.0171.0283-.0171m.0205-.0127-.0059.0034.0059-.0034m.0303-.018-.0059.0029.0059-.0029m.0136-.0083-.0009.0005.0009-.0005" class="color1c1725 svgShape"/><path fill="#ac684d" d="M1238.1611,693.0322c-1.5254,1.0332-11.1123,8.0147-19.8886,25.6758a125.2947,125.2947,0,0,0-7.9717,20.6924c1.0674.1587,1.6396.2324,1.6396.2324h0a44.12245,44.12245,0,0,0-1.3603,11.0342,35.406,35.406,0,0,0,2.1396,12.5454c2.2559,5.8989,13.4326,7.3037,23.5703,7.3037a144.18334,144.18334,0,0,0,17.586-1.1631l.25-3.0693q-6.9507-32.40525-12.1192-70.1016-1.856-1.5021-3.8457-3.1499M1132.2119,524.0835q-3.18165,2.37375-6.2842,4.7436a121.22325,121.22325,0,0,1,32.4717,50.5542c13.5791,39.8995-18.0127,88.2598-73.3242,88.2598-.3809,0-.7705-.0024-1.1533-.0073a143.73939,143.73939,0,0,0,18.6963,25.5483c7.7138,8.4136,17.6318,15.4092,28.3418,21.1968,5.1318-44.9814,46.6855-68.4971,54.8632-72.7124-.5468-.6382-1.0908-1.2773-1.6377-1.9233h0c6.4034-6.4195,19.4698-15.1778,33.3584-23.649a289.83023,289.83023,0,0,0-17.539-25.144c-31.9512-41.1582-65.835-65.1924-67.8692-66.6182-.0634-.0449-.0957-.0674-.0957-.0674h0c.0577-.0615.1133-.1196.1719-.1811m95.4375-63.9312h0l-.0049.0035-.0009.0005-.0127.0078-.0059.0029-.0244.0151-.0059.0034-.0146.0093-.0283.0171-.0039.0025-.0489.0297-.0215.0132c-1.1894.7246-8.4365,5.1524-19.167,11.9683a199.80875,199.80875,0,0,1,19.5528,33.1509q-.5655-21.90825-.7793-44.8238h0v-.0102l.6426-.0943-.0772-.2959" class="colorac684d svgShape"/><path fill="#c7c7c7" d="M1639.8369,562.0376c-26.623,11.0264-54.7441,17.3379-84.7099,17.3379a221.69906,221.69906,0,0,1-37.0674-3.1655l-.0254.0039a221.70639,221.70639,0,0,0,37.0722,3.1665c29.9747,0,58.1006-6.312,84.7315-17.3413l-.001-.0015m62.7803-35.8457c-.0811.0591-.1631.1186-.2442.1777l-.0107.0103c.085-.0615.1729-.1255.2578-.1875l-.0029-.0005m62.4023-17.1216c-12.5625,2.4883-28.9424,3.0103-44.5664,3.4268q-4.59075,3.71775-9.2402,7.2822v.0024q4.64355-3.55875,9.2305-7.2739c10.9248-.2724,22.2578-.6465,32.3662-1.665,4.33-.4492,8.4414-1.0235,12.2099-1.7725m67.0225-37.4682c-13.3047,9.8754-32.9619,21.9394-46.2246,29.2661,13.2617-7.3203,32.9228-19.3819,46.2246-29.2661m-130.5186-14.357c-.2011,1.7901-.3798,3.7134-.5566,5.7915a8.57076,8.57076,0,0,1-.4121.8955,8.85919,8.85919,0,0,0,.418-.893c.1875-2.0821.3681-4.0059.5507-5.794m136.6592-8.0762c-.3222.0953-.6338.1934-.959.3062-.0547.0225-.1084.0444-.164.0664q.5742-.197,1.123-.3726m-87.4453-9.4043c.0293.0064.0576.0123.0879.0181-.0293-.0058-.0596-.0122-.0879-.0181m-13.2549-2.1713h0c4.8701.6035,9.2705,1.3496,13.1992,2.1601-3.9287-.811-8.33-1.5581-13.1982-2.1616m112.7217-3.8652a22.31615,22.31615,0,0,1-9.9922,14.2202,12.05776,12.05776,0,0,0,1.2891-.855,22.1577,22.1577,0,0,0,8.7031-13.3652" class="colorc7c7c7 svgShape"/><path fill="#ac684d" d="M1702.5605,526.186c-.0234.0235-.0859.0855-.1875.1836.0811-.0591.1631-.1186.2442-.1777l-.0567-.0059m-140.4091-53.1557c-.0157.3008-.0323.5991-.0508.8994-3.251,54.9458-41.4522,101.8057-41.4522,101.8057l-.0019.0004-.0108.0127q-1.2846.24615-2.5761.4615a221.69906,221.69906,0,0,0,37.0674,3.1655c29.9658,0,58.0869-6.3115,84.7099-17.3379-.0254-.0283-.0498-.0566-.0742-.0855.0322-.0083.0654-.0175.0986-.0263-26.4199-29.563-21.8984-68.6817-18.499-84.8716q-1.64205.01245-3.3037.0127a368.80911,368.80911,0,0,1-55.9072-4.0366m-114.1573-42.9776c8.4239,28.5821,20.9395,70.5083,34.4561,115.6079.0889-.8046.1728-1.5971.2539-2.3964.0059-.0484.0107-.0972.0156-.146.0039-.0435.0098-.0953.0137-.1392l.0498-.4971c.0176-.1816.0352-.3593.0537-.5405a314.47447,314.47447,0,0,0-2.4824-80.0644c-1.3731-8.3287-2.6211-13.3497-2.8125-14.1006-17.0147-8.0557-26.3623-15.1075-29.5479-17.7237m298.2735,65.7305c-25.9893,0-18.0957-10.061-9.4717-14.3911a76.70443,76.70443,0,0,1,33.7656-7.9844,56.89783,56.89783,0,0,1,16.043,2.0142c16.4219,4.9863-8.1426,19.5781-37.4932,20.3242q-1.4853.03735-2.8437.0371m2.0976-88.1196c-6.6142,16.8296-22.0879,37.3916-37.1172,45.4321a28.61838,28.61838,0,0,1-9.6367,3.3921c-.0302.25-.0595.5019-.0879.7573-.1826,1.7881-.3632,3.7119-.5507,5.794a8.85919,8.85919,0,0,1-.418.893,17.59342,17.59342,0,0,1-4.6553,5.1763,58.18944,58.18944,0,0,0,1.2471,16.1201c1.7832,8.8316,5.7168,20.5986,14.0625,34.5186v.0034l.0039.0288q4.6494-3.56325,9.2402-7.2822c15.624-.4165,32.0039-.9385,44.5664-3.4268a52.74711,52.74711,0,0,0,12.9668-4.0615c2.1895-1.0879,4.8487-2.4946,7.8311-4.1406,13.2627-7.3267,32.9199-19.3907,46.2246-29.2661a86.63453,86.63453,0,0,0,11.8701-10.1255,30.76789,30.76789,0,0,0,5.5986-7.9068c-14.1152,10.2129-31.4189,21.8863-39.663,26.5005a17.87515,17.87515,0,0,1-8.6592,2.6577c-7.7744,0-10.3438-7.8842-10.3438-7.8842s19.8848-3.188,44.2783-23.8184c1.1202-.5757,2.2061-1.2197,3.3272-1.9341-.0908.0259-.1797.0518-.2676.0776q-.5493.1758-1.123.3726c.0556-.022.1093-.0439.164-.0664-.0547.019-.1103.0386-.166.0586a21.33385,21.33385,0,0,0,3.0547-1.5288c.0332-.0191.0674-.0386.1006-.0581a22.31615,22.31615,0,0,0,9.9922-14.2202,8.60347,8.60347,0,0,0-.2881-4.687c-8.8887,15.0317-30.875,21.0019-54.6934,24.2607a47.65926,47.65926,0,0,1-6.3984.4683c-8.9697,0-13.1777-3.2447-15.0791-6.8809-2.9268-1.3604-10.5918-4.5469-22.9209-7.105-.0303-.0058-.0586-.0117-.0879-.0181l-.0557-.0112c-3.9287-.8105-8.3291-1.5566-13.1992-2.1601h0l-.0078-.0025c12.0791-9.7055,13.4375-20.9678,10.8906-29.9272" class="colorac684d svgShape"/><path fill="#995641" d="M1211.9404 739.6313a12.2119 12.2119 0 018.2705-7.7959 11.9988 11.9988 0 016.6299-.1713 11.00356 11.00356 0 015.6475 4.1587 20.83733 20.83733 0 013.7119 11.0131 24.50919 24.50919 0 01-1.4648 10.8384c-1.4786-3.4214-2.5372-6.6528-3.712-9.7261a36.659 36.659 0 00-3.9668-8.0615 6.72446 6.72446 0 00-2.3476-2.1802 9.43809 9.43809 0 00-3.6143-.6709A19.55144 19.55144 0 001211.9404 739.6313zM1731.1768 484.7256a48.19446 48.19446 0 0113.5986-8.605 73.976 73.976 0 0115.5723-4.769 84.39525 84.39525 0 0116.2919-1.2564 95.719 95.719 0 0116.2256 1.731l-1.7597.146a220.61379 220.61379 0 0023.208-10.2002c7.6299-3.8301 15.1445-7.9781 22.7461-12.23a101.42914 101.42914 0 01-9.668 8.8086c-3.4043 2.7241-6.9121 5.3432-10.5811 7.7256a118.58983 118.58983 0 01-23.415 12.1518l-.7637.291-.997-.1455a140.2352 140.2352 0 00-15.2207-1.7212 110.22164 110.22164 0 00-15.2979.2383 100.50208 100.50208 0 00-15.1767 2.5845A76.11618 76.11618 0 001731.1768 484.7256z" class="color995641 svgShape"/><path fill="#8f8f8f" d="M1448.2578,395.4658c.001.02.001.0376.001.0576.4785,1.1436.9873,2.3189,1.4932,3.524a23.27952,23.27952,0,0,0-1.4942-3.5816" class="color8f8f8f svgShape"/><path fill="#f9a832" d="M1429.5645,483.4863c-3.8506,26.7364-16.3145,66.7559-56.3497,70.8599a96.4052,96.4052,0,0,1-40.2627-4.6089c-2.0625-.6548-4.0996-1.4058-6.1064-2.2251a110.16634,110.16634,0,0,1-13.8047-6.5615c-32.0205-17.9346-54.1191-49.793-53.2607-74.3257,1.3115-38.1455,8.164,8.4595,8.164,8.4595s130.6377,101.3759,157.7041-10.5166l3.4912-3.1778,2.0811-1.8945s.0654,1.8867-.0361,5.1719a171.36784,171.36784,0,0,1-1.6201,18.8188" class="colorf9a832 svgShape"/><path fill="#f68e20" d="M1316.4385,524.2256l10.4072,23.2866c2.0068.8193,4.0439,1.5703,6.1064,2.2251l-10.6875-22.8706-5.8261-2.6411" class="colorf68e20 svgShape"/><path fill="#f68e20" d="M1285.6592,487.2393c1.9736,11.1679,4.416,24.6025,7.2793,39.6093a122.63586,122.63586,0,0,0,20.1025,14.1021c-6.8545-13.1836-9.5742-28.7988-9.5742-28.7988,23.3027,13.1914,45.2236,19.1269,63.6025,19.1269,19.5254,0,35.0547-6.7026,43.9844-18.5234q-.4878-7.52565-.9267-14.3882c-11.2647,13.7236-26.1768,18.8115-42.1153,18.8115-29.5488,0-62.6054-17.5073-82.3525-29.9394" class="colorf68e20 svgShape"/><path fill="#f9a832" d="M1442.9414,627.1484c-8.3838,19.6592-22.7217,35.0728-45.8926,41.7495-33.9189,9.7891-62.7597-9.4536-85.9316-39.726-2.2295-2.8819-4.3838-5.8789-6.4883-8.9439-3.79-5.5146-7.3994-11.3042-10.8359-17.2773q-4.4121-7.59675-8.4092-15.5049c-27.4014-53.9756-41.7686-116.0181-41.1953-127.0005,1.1181-21.397,9.8467,14.5791,9.8467,14.5791s49.5107,143.4058,131.9394,139.6577c82.4024-3.7246,40.8574-160.1128,40.8574-160.1128l7.9248.4165s3.1094,9.4825,6.7559,24.5245c8.7178,35.7377,20.585,102.7504,1.4287,147.6381" class="colorf9a832 svgShape"/><path fill="#f68e20" d="M1309.7412 593.272l.6924 18.0551c1.7803 7.9083 3.623 15.8936 5.5254 23.9048 18.0342 21.5977 39.2529 36.2354 63.418 36.2354q2.7465 0 5.5439-.2559c4.0176-5.7568 10.1113-9.4106 16.8145-9.4106.3222 0 .6445.0083.9697.0254a18.53789 18.53789 0 017.3838 1.9648 65.89834 65.89834 0 0011.1865-7.188c-.1904-2.4009-.3818-4.8232-.5723-7.25-14.165 10.273-28.1484 13.7803-40.6504 13.7803-26.9746 0-47.0351-16.3413-47.0351-16.3413l-16.9268-48.2774-6.3496-5.2426M1299.835 561.8169c.9033 4.4307 1.8349 8.9473 2.79 13.5122 21.7705 26.5811 55.2969 52.0234 87.0703 52.0234a53.71579 53.71579 0 0024.6592-5.8237 40.4011 40.4011 0 004.0498-2.3652q-.6372-8.59065-1.2568-17.1729c-7.5664 7.4019-17.7198 12.083-31.1729 12.6914-1.0664.0484-2.1182.0718-3.1738.0718-33.6973 0-61.7461-24.4756-82.9658-52.937" class="colorf68e20 svgShape"/><path fill="#f9a832" d="M1422.7461,688.0156c-.7227,13.8482-10.8701,24.5742-22.6641,23.9566-11.791-.6153-20.7636-12.3409-20.041-26.1895.7246-13.8486,10.8721-24.5742,22.6641-23.9565,11.7929.6147,20.7656,12.3408,20.041,26.1894" class="colorf9a832 svgShape"/><path fill="#f68e20" d="M1401.1777,702.7671q-.30465,0-.6113-.0156c-7.457-.3902-13.1289-7.8028-12.6709-16.5577.4453-8.5146,6.5254-15.1625,13.7158-15.163q.3048,0,.6114.0161c7.457.3901,13.1289,7.8027,12.6709,16.5576-.4454,8.5146-6.5254,15.1626-13.7159,15.1626m.5577-40.9663c-11.3731.0005-20.9893,10.5146-21.6944,23.9819q-.04245.8115-.041,1.6128c.0234,13.1348,8.751,23.9858,20.082,24.5767q.48645.02565.9688.0254c11.376,0,20.9922-10.5147,21.6953-23.982q.04245-.8115.041-1.6128c-.0215-13.1352-8.749-23.9858-20.082-24.5766-.3252-.0171-.6475-.0254-.9697-.0254" class="colorf68e20 svgShape"/><path fill="#f27213" d="M1401.6113,671.0308c-7.1904.0005-13.2705,6.6484-13.7158,15.163-.458,8.7549,5.2139,16.1675,12.6709,16.5577q.30615.0153.6113.0156c7.1905,0,13.2705-6.648,13.7159-15.1626.458-8.7549-5.2139-16.1675-12.6709-16.5576q-.30615-.0162-.6114-.0161" class="colorf27213 svgShape"/><path fill="#f7c434" d="M1195.3564,650.312s32.3477,33.4736,37.3418,36.8242l-31.7304,51.2691-1.3135-.7725a160.92792,160.92792,0,0,1-56.5693-14.958l-5.4991-11.2524,28.9219-48.8897,28.8486-12.2207" class="colorf7c434 svgShape"/><path fill="#f3af21" d="M1153.9063,727.3296a160.09823,160.09823,0,0,0,45.7333,10.3027l-.0009-.0019h0a159.899,159.899,0,0,1-45.7324-10.3008m-.1309-.0503.0273.0107-.0273-.0107m-10.6904-4.6152v.0107h0l.0068.0029-.0068-.0136m86.6406-38.0132c.9463.8608,1.7392,1.5439,2.3369,2.018l.0029-.0004c-.5996-.4737-1.3935-1.1607-2.3398-2.0176m-30.6358-30.4922c-8.1826,6.251-26.1962,21.3286-37.414,40.2324a93.02131,93.02131,0,0,0,38.4941,23.8604s10.3057-23.9751,28.5362-34.5342c-7.6172-7.0518-22.6338-22.3843-29.6163-29.5586" class="colorf3af21 svgShape"/><path fill="#8c8c8c" d="M1153.8027,727.29c.0342.0132.0684.0264.1036.0396-.0352-.0132-.0694-.0264-.1036-.0396m-10.7109-4.6123.001.002c3.5967,1.7236,7.1728,3.2485,10.6826,4.5996-3.5098-1.3516-7.0869-2.877-10.6836-4.6016m85.6182-38.9629-.0039.0025c.3564.3296.6972.6421,1.0195.9336q-.482-.438-1.0156-.9361m-33.3457-33.4077-.0079.003v.0019h0s1.4288,1.479,3.7334,3.8467l.002-.0015c-2.293-2.3686-3.7275-3.8501-3.7275-3.8501" class="color8c8c8c svgShape"/><path fill="#ee9614" d="M1195.3564,650.312h0c-51.2675,35.7573-52.2568,71.6504-52.2714,72.3521l.0068.0136c3.5967,1.7246,7.1738,3.25,10.6836,4.6016l.0273.0107c.0342.0132.0684.0264.1036.0396a159.899,159.899,0,0,0,45.7324,10.3008h0s.0937-.4737.3134-1.3692l.0196.0122c1.4795-5.8374,8.623-29.4052,31.5566-49.4672a4.53653,4.53653,0,0,1,.5342-.1373c-.5977-.4741-1.3906-1.1572-2.3369-2.018-.3223-.2915-.6631-.604-1.0195-.9336-18.2305,10.5591-28.5362,34.5342-28.5362,34.5342a93.02131,93.02131,0,0,1-38.4941-23.8604c11.2178-18.9038,29.2314-33.9814,37.414-40.2324-2.3046-2.3677-3.7334-3.8467-3.7334-3.8467" class="coloree9614 svgShape"/><path fill="#f7c434" d="M1238.3701 692.894s-17.7851 11.0796-28.126 46.6993c0 0-4.7265 5.8813-10.5898-1.9605 0 0 5.4785-27.7363 31.874-50.8266 0 0 6.3369-2.1958 6.8418 6.0878M1187.2168 640.9736s-53.0176 24.6241-56.5879 77.0474a10.34845 10.34845 0 0012.4561 4.6538s.4951-36.251 52.2714-72.3628c0 0 1.1807-10.8594-8.1396-9.3384" class="colorf7c434 svgShape"/><path fill="#8c8c8c" d="M1210.3008 739.4004c-.0195.0649-.0381.1279-.0567.1929.0186-.065.0372-.128.0567-.1929h0m28.0351-46.4839l-.0068.0039.0068-.0039m.0332-.022l-.0048.0034.0048-.0029m-3.0058-5.9267v.0029c1.4404.6699 2.7851 2.2866 3.0068 5.9228h0c-.2197-3.6616-1.5517-5.2661-3.0068-5.9257M1199.6396 737.6323c2.3516 3.1392 4.5176 4.0801 6.2715 4.0801a6.06864 6.06864 0 004.3213-2.1045 6.0671 6.0671 0 01-4.3174 2.1025c-1.75 0-3.9101-.9379-6.2519-4.0654l-.0215-.0127h-.002" class="color8c8c8c svgShape"/><polyline fill="#ee9614" points="1199.639 737.63 1199.64 737.632 1199.642 737.632 1199.639 737.63" class="coloree9614 svgShape"/><path fill="#4d4d4d" d="M1199.6416,737.6323l.0215.0127-.0088-.0122h0l-.0127-.0005" class="color4d4d4d svgShape"/><path fill="#e77a0b" d="M1199.9521,736.2612c-.2197.8955-.3134,1.3692-.3134,1.3692h0l.0029.0019.0127.0005h0s.0947-.478.3174-1.3594l-.0196-.0122" class="colore77a0b svgShape"/><path fill="#f3af21" d="M1235.3633,686.9712a9.50481,9.50481,0,0,1,.2881,1.9604s-17.8145,10.9224-28.2735,46.2408a6.06308,6.06308,0,0,1-4.3027,2.0747,5.76824,5.76824,0,0,1-3.1035-.9737c-.2227.8814-.3174,1.3594-.3174,1.3594h0l.0088.0122c2.3418,3.1275,4.5019,4.0654,6.2519,4.0654a6.0671,6.0671,0,0,0,4.3174-2.1025l.0117-.0146h0c.0186-.065.0372-.128.0567-.1929h0a125.2947,125.2947,0,0,1,7.9717-20.6924c9.2207-18.5581,19.3339-25.3208,20.0566-25.7876l.0068-.0039.0284-.0186.0048-.0029.001-.001c-.2217-3.6362-1.5664-5.2529-3.0068-5.9228" class="colorf3af21 svgShape"/><path fill="#8c8c8c" d="M1130.707,715.9272c-.0732.6465-.1045,1.3008-.1621,1.9732a7.3735,7.3735,0,0,0,.4326.6816c-.2334-.3447-.3486-.561-.3486-.561q.07035-1.0269.165-2.04c-.0293-.0176-.0576-.0357-.0869-.0538m61.1289-74.5771.0235.1143a5.7849,5.7849,0,0,1,2.6787,2.9824,5.78874,5.78874,0,0,0-2.7022-3.0967" class="color8c8c8c svgShape"/><path fill="#f3af21" d="M1191.8594,641.4644a14.2259,14.2259,0,0,1,.1914,3.9482c-51.8975,35.5439-52.5362,71.4331-52.5362,71.4331a12.01622,12.01622,0,0,1-3.6054.5835,9.59218,9.59218,0,0,1-5.1153-1.4482q-.0951,1.013-.165,2.04s.1152.2163.3486.561a10.34328,10.34328,0,0,0,8.3858,4.5821,11.9809,11.9809,0,0,0,3.6562-.6045s.4971-36.2456,52.2793-72.3521a13.49617,13.49617,0,0,0-.7607-5.7607,5.7849,5.7849,0,0,0-2.6787-2.9824" class="colorf3af21 svgShape"/><path fill="#f7c434" d="M1635.6377,469.9307s46.542-.9419,52.3945-2.3243l15.9971,58.1319-1.458.437a161.0185,161.0185,0,0,1-49.4443,31.2959l-11.9854-3.625-16.167-54.457,10.6631-29.4585" class="colorf7c434 svgShape"/><path fill="#f3af21" d="M1702.5586,526.186h0a160.97055,160.97055,0,0,1-49.4238,31.2803l-.0196-.0059.0118.0108h0a161.13321,161.13321,0,0,0,49.4335-31.2852h-.0019m-66.9199-56.2553h-.001l-.001.0068.002-.0068m47.1699-1.7232c-10.3516.7871-31.8027,1.3648-41.8106,1.603-.9843,10.2505-2.1855,33.7105,4.044,54.792,0,0,.1338.0035.3906.0035a93.6697,93.6697,0,0,0,43.2822-11.9913s-10.5634-23.8598-5.9062-44.4072m4.4492-.4551c-.5195.0811-1.1758.1607-1.9473.2383.7725-.0771,1.4268-.1572,1.9463-.2378l.001-.0005" class="colorf3af21 svgShape"/><path fill="#8c8c8c" d="M1640.998,469.8076c-3.2949.0708-5.3554.1128-5.3554.1128l-.0039.0103c.0615-.001,2.1064-.0425,5.3593-.1202v-.0029m44.3125-1.8169c-.7314.0733-1.5693.1436-2.5.21l-.0019.0068c.9287-.0703,1.7676-.1426,2.5019-.2168" class="color8c8c8c svgShape"/><path fill="#ee9614" d="M1687.2568,467.7529c-.5195.0806-1.1738.1607-1.9463.2378-.7343.0742-1.5732.1465-2.5019.2168-4.6572,20.5474,5.9062,44.4072,5.9062,44.4072a93.6697,93.6697,0,0,1-43.2822,11.9913c-.2568,0-.3906-.0035-.3906-.0035-6.2295-21.0815-5.0283-44.5415-4.044-54.792-3.2529.0777-5.2978.1192-5.3593.1202l-.002.0068c-8.6367,61.7544,16.8613,86.9238,17.4785,87.5229l.0196.0059a160.97055,160.97055,0,0,0,49.4238-31.2803h0s-.2832-.3901-.79-1.1621l.0224-.0063c-3.2734-5.0572-15.6894-26.3233-14.7978-56.7774a4.57874,4.57874,0,0,1,.2636-.4873" class="coloree9614 svgShape"/><path fill="#f7c434" d="M1696.1123 467.3657s-3.9785 20.5728 15.0967 52.3814c0 0 1.0996 7.4648-8.6377 6.4282 0 0-16.6045-22.8809-15.5781-57.9351 0 0 2.7011-6.1406 9.1191-.8745M1623.2549 469.5459s-18.0078 55.6143 17.9892 93.8877a10.34706 10.34706 0 0011.8829-5.9624s-26.2364-25.022-17.4893-87.5405c0 0-7.1563-8.2525-12.3828-.3848" class="colorf7c434 svgShape"/><path fill="#8c8c8c" d="M1691.3203,465.2197a4.08954,4.08954,0,0,0-1.5996.3194l.0029.0014a4.16134,4.16134,0,0,1,1.5869-.3081,7.76946,7.76946,0,0,1,4.8018,2.1333h0a7.76881,7.76881,0,0,0-4.792-2.146" class="color8c8c8c svgShape"/><path fill="#934c35" d="M1697.1465,485.2285c1.7832,8.8335,5.7158,20.6006,14.0625,34.5186v0c-8.3457-13.92-12.2793-25.687-14.0625-34.5186" class="color934c35 svgShape"/><path fill="#8c8c8c" d="M1711.2129,519.7817h0c.0615.5083.624,6.4927-6.8789,6.4927a16.65631,16.65631,0,0,1-1.6992-.0923l-.0147.0103a16.6166,16.6166,0,0,0,1.6914.0908c7.5283,0,6.9629-5.9932,6.9014-6.5015" class="color8c8c8c svgShape"/><path fill="#6d6d6d" d="M1702.6318,526.1816l-.0146.0103.0029.0005.0147-.0103-.003-.0005m8.5811-6.4023h0v.0024h0v-.0024" class="color6d6d6d svgShape"/><path fill="#934c35" d="M1702.5879,526.1772l-.0254.0079-.001.0009.0557.0059.0146-.0103-.0439-.0044m8.6211-6.4267.0039.0288h0l-.0039-.0288" class="color934c35 svgShape"/><polyline fill="#ee9614" points="1702.563 526.185 1702.559 526.186 1702.56 526.186 1702.563 526.185" class="coloree9614 svgShape"/><path fill="#773422" d="M1702.5713,526.1753h0l-.0088.0098.0254-.0079-.0166-.0019" class="color773422 svgShape"/><path fill="#e77a0b" d="M1701.791,525.0176l-.0224.0063c.5068.772.79,1.1621.79,1.1621h0l.0039-.0009.0088-.0098h0s-.2852-.394-.7803-1.1577" class="colore77a0b svgShape"/><path fill="#f3af21" d="M1691.3105,465.2324a4.16134,4.16134,0,0,0-1.5869.3081,9.331,9.331,0,0,1,1.6328,1.1241s-4.1123,20.4858,14.6651,52.1772a5.60609,5.60609,0,0,1-4.2305,6.1758c.4951.7637.7803,1.1577.7803,1.1577h0l.0166.0019.0439.0044.003.0005a16.65631,16.65631,0,0,0,1.6992.0923c7.5029,0,6.9404-5.9844,6.8789-6.4927v-.0024l-.0039-.0288v-.0034c-8.3467-13.918-12.2793-25.6851-14.0625-34.5186-2.2949-11.3579-1.0342-17.8628-1.0342-17.8628a7.76946,7.76946,0,0,0-4.8018-2.1333" class="colorf3af21 svgShape"/><path fill="#8c8c8c" d="M1639.9297,562.0015c-.0313.0131-.0606.0249-.0918.0376.4023.4609.834.9033,1.2617,1.374a7.41326,7.41326,0,0,0,.7578.1411c-.3896-.0615-.6133-.1206-.6133-.1206q-.6693-.71115-1.3144-1.4321m-11.4502-95.9068a5.16821,5.16821,0,0,0-1.8037.3208c.0332.02.0654.0401.0976.0601a5.23984,5.23984,0,0,1,1.8409-.3291,6.51612,6.51612,0,0,1,2.1318.3813,6.56984,6.56984,0,0,0-2.2666-.4331" class="color8c8c8c svgShape"/><path fill="#6d6d6d" d="M1639.9277,562l-.0908.0376.001.0015c.0312-.0127.0605-.0245.0918-.0376l-.002-.0015" class="color6d6d6d svgShape"/><path fill="#934c35" d="M1639.8613,561.9258c-.0332.0088-.0664.018-.0986.0263.0244.0289.0488.0572.0742.0855l.0908-.0376c-.0234-.0259-.0429-.0483-.0664-.0742" class="color934c35 svgShape"/><path fill="#f3af21" d="M1628.6143,466.1465a5.23984,5.23984,0,0,0-1.8409.3291,14.32674,14.32674,0,0,1,3.0245,2.5469c-9.2442,62.2177,16.6308,87.0986,16.6308,87.0986a10.17794,10.17794,0,0,1-6.5674,5.8047c.0235.0259.043.0483.0664.0742l.002.0015q.64455.71925,1.3144,1.4321s.2237.0591.6133.1206a11.64916,11.64916,0,0,0,1.6221.1123,10.06768,10.06768,0,0,0,9.5195-6.2266s-26.2314-25.0195-17.4765-87.538a13.46847,13.46847,0,0,0-4.7764-3.3741,6.51612,6.51612,0,0,0-2.1318-.3813" class="colorf3af21 svgShape"/><path fill="#f9a832" d="M1132.04,524.2646s50.8789,35.2198,86.1788,92.9014c0,0,17.165-8.8808,30.8564-22.355,0,0,.9375-65.7329-40.9824-122.8803,0,0-40.5801,14.9243-76.0528,52.3339" class="colorf9a832 svgShape"/><path fill="#15111c" d="M1208.0928,471.9277s-2.5479.9263-6.9795,2.958c4.4111-2.0107,6.9795-2.955,6.9795-2.955.0713.0976.1445.1977.2158.2954l.0019-.001c-.0712-.0977-.1464-.1997-.2177-.2974" class="color15111c svgShape"/><polyline fill="#110e17" points="1208.31 472.225 1208.309 472.226 1208.31 472.226 1208.31 472.226 1208.31 472.225" class="color110e17 svgShape"/><path fill="#934c35" d="M1208.3105,472.2256l-.0009.0005a199.9085,199.9085,0,0,1,19.5547,33.1631l-.001-.0127a199.80875,199.80875,0,0,0-19.5528-33.1509" class="color934c35 svgShape"/><path fill="#8c8c8c" d="M1232.8711,608.103a144.34211,144.34211,0,0,1-14.6523,9.063c-.2198-.3594-.4424-.7217-.6631-1.0791l-.0118.0073q.33555.53985.667,1.0821a143.96541,143.96541,0,0,0,14.6602-9.0699v-.0034" class="color8c8c8c svgShape"/><path fill="#934c35" d="M1132.1357,524.332c2.0342,1.4258,35.918,25.46,67.8692,66.6182a289.83023,289.83023,0,0,1,17.539,25.144l.0118-.0073c-34.3741-55.5932-82.9707-90.039-85.42-91.7549" class="color934c35 svgShape"/><path fill="#f68e20" d="M1185.167,483.1353c-2.7324,1.5234-5.627,3.2299-8.6397,5.1484,13.3223,18.2012,39.4043,56.7368,47.4317,89.7734l-15.6885,6.4439s-22.7656-39.1299-66.9658-69.3736c-2.0459,1.856-4.0567,3.8296-6.043,5.8604-1.081,1.0444-2.1543,2.1645-3.2217,3.2768h0s.0323.0225.0957.0674c2.4493,1.7159,51.0459,36.1617,85.42,91.7549h0c.2207.3574.4433.7197.6631,1.0791a144.34211,144.34211,0,0,0,14.6523-9.063q-1.24365-16.64205-2.2246-34.0517c-1.3535-9.0791-8.8428-45.7915-45.4795-90.916m22.9258-11.2046s-2.5684.9443-6.9795,2.955c-1.5625.7159-3.3584,1.5689-5.3594,2.5674,8.6045,12.6812,23.4736,36.5406,33.2695,63.003q-.6972-17.193-1.1591-35.0669a199.9085,199.9085,0,0,0-19.5547-33.1631h-.001c-.0713-.0977-.1445-.1978-.2158-.2954" class="colorf68e20 svgShape"/><path fill="#f9a832" d="M1202.8652 590.6455l-2.8613.3057c-32.9531-42.4517-67.9648-66.6866-67.9648-66.6866 1.0673-1.1118 2.1416-2.2314 3.2226-3.2768C1150.0361 533.1963 1185.1904 563.6572 1202.8652 590.6455zM1477.5195 447.6777s15.5108 59.3623-.3847 129.9292c0 0 22.6953 2.125 43.5009-1.8584 0 0 38.6817-47.4609 41.5215-102.8393 0 0-32.5361-18.4341-84.6377-25.2315" class="colorf9a832 svgShape"/><path fill="#8c8c8c" d="M1477.5166,447.6777l.0234.0884.003.0015-.0235-.0894-.0029-.0005" class="color8c8c8c svgShape"/><polyline fill="#a0593f" points="1477.54 447.766 1477.542 447.776 1477.545 447.778 1477.543 447.768 1477.54 447.766" class="colora0593f svgShape"/><path fill="#934c35" d="M1477.542,447.7764c.1914.7509,1.4394,5.7719,2.8125,14.1006-1.3711-8.3257-2.6172-13.3438-2.8096-14.0992l-.0029-.0014" class="color934c35 svgShape"/><path fill="#8c8c8c" d="M1552.376,468.1172l-.002.0195c6.3623,2.836,9.7696,4.7647,9.7832,4.7725v-.0025s-3.4414-1.9658-9.7812-4.7895m-17.6406-6.9546v.002c2.9921,1.0493,5.7626,2.0825,8.2968,3.0737h0c-2.5254-1.0078-5.292-2.0445-8.2968-3.0757" class="color8c8c8c svgShape"/><path fill="#934c35" d="M1482.7197,543.1182c-.0049.0488-.0097.0976-.0156.146.0049-.0479.0107-.0977.0156-.146m.1172-1.1768c-.0185.1812-.0361.3589-.0537.5405l-.0498.4971c.0352-.3477.0693-.6914.1035-1.0376m79.2637-68.0117c-3.2276,54.4224-40.75,100.937-41.4551,101.8061l.0029-.0004s38.2012-46.8599,41.4522-101.8057" class="color934c35 svgShape"/><path fill="#8c8c8c" d="M1507.835,577.4976c-5.6133.499-10.9893.6684-15.6319.6753l.001.0058c4.6436-.0083,10.0205-.1792,15.6309-.6811" class="color8c8c8c svgShape"/><path fill="#f68e20" d="M1477.5195,447.6782l.0235.0894.0019.0102c.1924.7554,1.4385,5.7735,2.8096,14.0992a313.684,313.684,0,0,1,2.4824,80.0644c-.0342.3462-.0683.6899-.1035,1.0376-.0049.0464-.0098.0928-.0137.1392-.0049.0483-.0107.0981-.0156.146q-.12015,1.19445-.2529,2.3979c3.208,10.7036,6.4726,21.5889,9.7519,32.5108,4.6426-.0069,10.0186-.1763,15.6319-.6753a128.73421,128.73421,0,0,0,12.8105-1.7618c.7051-.8691,38.2275-47.3837,41.4551-101.8061q.03075-.5112.0566-1.023c-.0136-.0053-3.4209-1.934-9.7832-4.77-1.6435,16.1626-7.1875,53.0996-25.4931,82.6631l-7.6192-.6543s22.5879-30.7358,23.7705-85.9072c-2.5342-.9912-5.3047-2.0244-8.2968-3.0737-1.5313,18.059-6.4893,57.5922-22.0958,86.2246l-17.4921-4.7398s10.2734-43.289-2.9786-92.668c-3.0205-.581-6.1484-1.0786-9.3515-1.5366-1.7188-.2827-3.5059-.5259-5.2979-.7666" class="colorf68e20 svgShape"/><path fill="#f9a832" d="M1485.585,544.125l-2.8018-1.6421c5.3965-54.0054-5.2656-94.8057-5.2656-94.8057,1.792.2422,3.5801.4839,5.2998.7686C1485.7344,466.5518,1491.7373,511.5317,1485.585,544.125Z" class="colorf9a832 svgShape"/><path fill="#f7c434" d="M1227.084,460.5527l52.7558-7.7002s33.877,215.5484,78.7832,324.2427c46.6202,112.8399-92.6992,36.0596-92.6992,36.0596-24.5175-83.2691-37.4316-201.3965-38.8398-352.6021" class="colorf7c434 svgShape"/><polyline fill="#15111c" points="1229.643 460.168 1227.727 460.448 1227.73 460.458 1229.658 460.177 1229.643 460.168" class="color15111c svgShape"/><polyline fill="#934d35" points="1227.727 460.448 1227.084 460.542 1227.084 460.542 1227.73 460.458 1227.727 460.448" class="color934d35 svgShape"/><path fill="#f3b022" d="M1229.6582 460.1772l-1.9287.2813-.6455.0942c1.2793 136.3369 11.8974 245.7681 31.9433 327.0264 5.3741-3.9922 10.6768-7.7397 15.9678-11.2959-13.9873-74.5649-35.2558-205.5942-34.7099-310.6982a94.07673 94.07673 0 01-10.627-5.4078M1243.0313 466.729c10.1738 131.8174 32.1875 231.6572 51.1396 297.4771q8.0625-4.7373 15.9951-8.836c-19.7978-76.7261-43.9599-186.3808-49.8984-283.2612a121.12023 121.12023 0 01-17.2363-5.3799" class="colorf3b022 svgShape"/><path fill="#f7c434" d="M1407.1123,449.8506s15.0469,253.144,24.7842,312.4458c9.7363,59.3042,122.1474,21.2427,122.1474,21.2427s-105.331-348.7359-115.9521-387.6827c-10.6221-38.9438-30.9795,53.9942-30.9795,53.9942" class="colorf7c434 svgShape"/><path fill="#f3b022" d="M1414.0889 453.2988q-3.0924 1.76145-6.545 3.4082c2.0762 34.2105 11.586 187.7774 19.7823 268.292q7.62735.0081 15.0068.5293l-28.2441-272.2295M1424.0889 446.6499a80.68775 80.68775 0 01-6.6983 4.6758l43.5576 276.293q7.01085 1.08825 13.7686 2.583l-50.6279-283.5518M1438.8887 430.6699a62.41 62.41 0 01-11.2901 13.0689l73.1709 293.8232q7.0386 2.4339 13.7295 5.2188l-75.6103-312.1109" class="colorf3b022 svgShape"/><path fill="#f7c434" d="M1455.9756,231.8679c9.3213,100.4573-64.0811,189.4949-163.9463,198.8704-99.8662,9.3755-188.3799-64.4605-197.7031-164.9155-9.3203-100.4571,64.081-189.4949,163.9492-198.8702,99.8662-9.3755,188.3799,64.4578,197.7002,164.9153" class="colorf7c434 svgShape"/><path fill="#dd5d06" d="M1275.3408,85.425q-7.57755.00045-15.2851.7181c-84.2715,7.9135-147.4746,79.2368-147.3633,162.7277q.0102,7.5195.7139,15.1595a163.12374,163.12374,0,0,0,43.1943,96.5498,10.39623,10.39623,0,0,1,3.0996-2.3535l.0205-.0025h0c.1963-.102.3955-.1831.5967-.2646q.64455-.2586,1.2861-.4678c-9.8164-25.4731-37.5683-112.8301,20.5225-163.0176,3.9521-9.4614,12.6191-23.1062,31.4785-34.4331l-22.6084-28.9656.0019-.0012-3.1093-3.9824s16.3642-18.5544,79.9795-24.5273c11.0273-1.0354,20.6572-1.4634,29.041-1.4634,39.9814-.0003,51.6474,9.7317,51.6474,9.7317l-10.1972,25.5598.0049.0014-2.7735,6.9449c39.2696,9.0092,52.6846,32.2859,56.2383,40.3437q3.9771,3.0378,7.5225,6.3465h0c23.6767,21.9904,33.497,52.2443,36.9228,79.9113a163.93544,163.93544,0,0,0,1.335-21.1225q-.01035-7.5198-.7139-15.1597c-7.8574-84.6963-78.6445-148.2363-161.5547-148.2332" class="colordd5d06 svgShape"/><path fill="#f9a832" d="M1220.3291,168.6453l-32.4404-41.5535s16.3642-18.5544,79.9795-24.5273,80.6884,8.2683,80.6884,8.2683l-17.5127,43.896-110.7148,13.9165" class="colorf9a832 svgShape"/><path fill="#cf4203" d="M1338.3594,136.3926l-2.7715,6.9455.0029.0008,2.7735-6.9449-.0049-.0014m-147.3614-5.3184-.0019.0012,22.6084,28.9656.0049-.0032-22.6114-28.9636" class="colorcf4203 svgShape"/><path fill="#f68e20" d="M1253.873,113.7197a152.309,152.309,0,0,0-62.875,17.3545l22.6114,28.9636c14.9101-8.9531,36.1914-16.4594,66.5498-19.3095,7.375-.6924,14.292-1.0125,20.7568-1.0127a154.83266,154.83266,0,0,1,34.6719,3.6225l2.7715-6.9455c-19.1309-4.6614-34.4737-6.1382-46.2285-6.1382-20.295.0002-29.9082,4.3989-29.9082,4.3989l-8.3497-20.9336" class="colorf68e20 svgShape"/><path fill="#f9a832" d="M1178.875,205.9846s4.7031-56.1897,101.2842-65.2563c96.581-9.0691,112.751,45.749,112.751,45.749L1178.875,205.9846" class="colorf9a832 svgShape"/><path fill="#f9a832" d="M1437.835,298.54a236.72025,236.72025,0,0,1-3.7432,40.3706c-.2773,1.4654-.4522,2.2535-.4522,2.2535l-14.9843-22.669-20.3584,4.8106L1189.002,372.834l-2.4971.5893-21.9492-8.7685s-72.3604-157.4949,71.25-197.3496a244.6114,244.6114,0,0,1,42.7519-7.5825c59.3047-5.5672,97.0469,8.208,120.794,30.3064,32.2754,29.9768,38.8027,75.3068,38.4834,108.5109" class="colorf9a832 svgShape"/><path fill="#f68e20" d="M1386.8877,261.2349a49.38645,49.38645,0,0,1-14.9199,5.4702c15.0244,4.9155,33.2177,13.0166,53.5107,26.3203,0,0,.3242,1.6802.8584,4.5308h0c1.4971,7.8427,4.752,24.5283,8.1231,39.3198a240.20058,240.20058,0,0,0,3.375-38.336c-15.7315-18.0678-33.1621-29.9111-50.9473-37.3051m-83.0176-102.7491q-11.9502,0-25.3125,1.2369a244.6114,244.6114,0,0,0-42.7519,7.5825h0c-118.8682,37.4148-79.1836,159.9023-67.7442,189.2055,9.1289.1226,17.4375,6.3238,22.8877,11.6211a227.06792,227.06792,0,0,1,4.7315-29.9331s9.289-29.312,41.7627-52.2036c18.1689-12.8154,43.5859-23.6094,78.6796-26.1211a20.162,20.162,0,0,1-5.7109-8.0869c-39.4883,4.5073-69.2676,20.1943-69.2676,20.1943-47.4892-33.8686-21.1504-77.029-21.1504-77.029,30.2178-17.3613,61.0713-23.5244,89.6563-23.5234a214.19476,214.19476,0,0,1,34.9707,2.9509c4.3223-5.1946,7.2461-8.3467,7.2461-8.3467q6.3765,6.41265,11.749,12.2957a267.52482,267.52482,0,0,1,35.7354,11.7002c-20.1768-18.7764-50.4551-31.544-95.4815-31.5433" class="colorf68e20 svgShape"/><path fill="#b7765a" d="M1198.5703,411.8696c-15.4365,7.792-26.9746,5.0567-34.7715-2.3056-15.0654-14.1499-16.1259-45.4746-4.0986-51.3374l.0205-.0025c.1963-.102.3955-.1831.5967-.2646,19.1172-7.6792,37.206,17.6206,37.206,17.6206s46.7364,13.2226,1.0469,36.2895" class="colorb7765a svgShape"/><path fill="#a0593f" d="M1163.7988,409.564a26.94255,26.94255,0,0,0,4.2598,3.2988,12.01917,12.01917,0,0,1,.6338-1.0357,25.247,25.247,0,0,1-4.8936-2.2631m-2.3535-33.8267a5.93923,5.93923,0,0,0-3.0879,2.2271c-5.5136,7.8906,14.6856,26.0893,25.3028,26.0893a7.75093,7.75093,0,0,0,1.5986-.1567,5.72153,5.72153,0,0,1,1.1689-.1372c2.4336,0,2.1836,2.2802.0137,4.5605q-.3471.36555-.7598.7276a11.96123,11.96123,0,0,1,4.2666,6.2329,43.41785,43.41785,0,0,0,4.3907-1.4952q-.9522-3.375-1.6885-6.9726a115.35376,115.35376,0,0,1-2.0791-16.1978,62.19987,62.19987,0,0,0-8.9561-7.2563,43.51867,43.51867,0,0,0-10.747-5.311,53.63834,53.63834,0,0,0-9.4229-2.3106m6.3369-19.229a19.88254,19.88254,0,0,0-7.4648,1.4512c-.2012.0815-.4004.1626-.5967.2646,8.3154,1.3521,20.5156,5.9751,26.9063,21.0781a34.52824,34.52824,0,0,1,3.7001,3.2281c-.0009-.0601-.0009-.1187-.0009-.1787q-.0045-6.8064.623-14.2198c-5.4502-5.2973-13.7588-11.4985-22.8877-11.6211-.0927-.0014-.1865-.0024-.2793-.0024" class="colora0593f svgShape"/><path fill="#995641" d="M1199.8506,400.5991c-5.8652-6.7944-11.5059-12.8301-18.2354-17.2402a43.51867,43.51867,0,0,0-10.747-5.311c-3.8477-1.4708-7.9776-1.9732-12.4668-2.9a26.17757,26.17757,0,0,1,13.5117-1.8349,28.99959,28.99959,0,0,1,13.1338,4.8711,35.29977,35.29977,0,0,1,9.7597,9.8359,30.669,30.669,0,0,1,5.044,12.5791" class="color995641 svgShape"/><path fill="#b7765a" d="M1381.7891,465.7324c-68.6114,17.2515-161.3321,21.2193-185.4981-45.8667a92.81822,92.81822,0,0,1-3.6406-13.0527c-3.7275-18.2612-3.1494-40.8701,3.0303-68.6143,0,0,9.289-29.312,41.7627-52.2036,20.1308-14.1992,49.1601-25.9175,90.3916-26.6372,0,0,40.4882-3.803,97.6435,33.6675,0,0,.3242,1.6802.8584,4.5308,2.5,13.0971,9.9043,50.8554,14.5606,63.2695,5.6748,15.1152,30.2148,82.4365-59.1084,104.9067" class="colorb7765a svgShape"/><path fill="#a0593f" d="M1302.3574,318.6841q-1.0707,0-2.1572.1015a23.0535,23.0535,0,0,0,2.1025,45.9942q1.06935,0,2.1563-.1011a23.05367,23.05367,0,0,0-2.1016-45.9946" class="colora0593f svgShape"/><path fill="#1b1723" d="M1287.7822,348.9614a15.154,15.154,0,1,0,13.6797-16.5927A15.17869,15.17869,0,0,0,1287.7822,348.9614Z" class="color1b1723 svgShape"/><path fill="#ffffff" d="M1304.2939 341.9556a4.75581 4.75581 0 104.293-5.2076A4.76328 4.76328 0 001304.2939 341.9556zM1301.666 348.418a2.408 2.408 0 102.1738-2.6367A2.41116 2.41116 0 001301.666 348.418z" class="colorfff svgShape"/><path fill="#a0593f" d="M1399.7363,316.3662q-.8115,0-1.6357.0767a17.48135,17.48135,0,0,0,1.5908,34.8774q.813,0,1.6367-.0766a17.48138,17.48138,0,0,0-1.5918-34.8775" class="colora0593f svgShape"/><path fill="#1b1723" d="M1388.6816,339.3242a11.49144,11.49144,0,1,0,10.3731-12.5825A11.51,11.51,0,0,0,1388.6816,339.3242Z" class="color1b1723 svgShape"/><path fill="#ffffff" d="M1401.2031 334.0117a3.60621 3.60621 0 103.2549-3.9487A3.611 3.611 0 001401.2031 334.0117zM1399.21 338.9121a1.82587 1.82587 0 101.6484-1.9995A1.82851 1.82851 0 001399.21 338.9121z" class="colorfff svgShape"/><path fill="#231c2d" d="M1376.3066,305.7334c.3946-.0386.8077-.0752,1.2168-.0752.6202-.0552,1.2559-.0903,1.9073-.0869a42.6176,42.6176,0,0,1,4.9004.1704q1.2495.0864,2.5488.2344c2.5029.3237,5.0107.7978,7.4726,1.3618a119.39528,119.39528,0,0,1,28.2823,11.0869c6.8252-9.7295-10.0186-16.3745-10.0186-16.3745,4.4785.918,10.5098,6.2681,10.8887,6.6025a48.19367,48.19367,0,0,0-16.1875-13.6455,38.47732,38.47732,0,0,0-9.7422-3.4438,31.7756,31.7756,0,0,0-4.8418-.6143,11.152,11.152,0,0,0-1.4521-.0019l-3.6368,3.5424,1.9317-4.0366a12.49247,12.49247,0,0,0-3.7754,1.9937l-.0401.0337a20.61491,20.61491,0,0,0-5.9814,8.0283c2.0947-7.4678,6.3418-10.561,6.3418-10.561a9.6456,9.6456,0,0,0-1.6856.7251C1377.498,294.4736,1376.3066,305.7334,1376.3066,305.7334Z" class="color231c2d svgShape"/><path fill="#322a3f" d="M1386.8799 305.9761c2.5029.3237 5.0107.7978 7.4726 1.3618 3.8008-7.3862 9.0254-10.7827 12.9649-12.3306a38.47732 38.47732 0 00-9.7422-3.4438C1389.7861 296.335 1387.5225 302.7949 1386.8799 305.9761zM1379.4307 305.5713a42.6176 42.6176 0 014.9004.1704c1.8281-8.2231 5.4248-12.5562 8.4023-14.7925a11.152 11.152 0 00-1.4521-.0019l-3.6368 3.5424 1.9317-4.0366a12.49247 12.49247 0 00-3.7754 1.9937l-.0401.0337A23.94475 23.94475 0 001379.4307 305.5713zM1376.3066 305.7334c.3946-.0386.8077-.0752 1.2168-.0752 1.3985-7.7944 4.502-12.4351 6.9121-14.9853C1377.498 294.4736 1376.3066 305.7334 1376.3066 305.7334z" class="color322a3f svgShape"/><path fill="#d33c3c" d="M1352.291,277.3252s19.2949,37.3774,2.6416,38.5327C1354.9326,315.8579,1339.9746,319.5527,1352.291,277.3252Z" class="colord33c3c svgShape"/><path fill="#995641" d="M1309.0547,381.5659c-2.6455,3.793-4.5654,6.3809-6.375,9.2554-.8584,1.4331-1.8692,2.8022-2.7676,4.3921a55.75206,55.75206,0,0,1-3.3887,5.1479c-2.2861-4.1113-1.581-9.1079.8702-12.9853a13.518,13.518,0,0,1,5.0078-4.607A9.85573,9.85573,0,0,1,1309.0547,381.5659Z" class="color995641 svgShape"/><path fill="#100e14" d="M1394.917,402.1494c-.3272,10.7173-4.2022,48.1489-42.1729,44.4531-24.0859-2.3359-33.6337-18.292-37.3681-32.3545a68.66459,68.66459,0,0,1-1.9912-11.5664c12.2392,7.8223,35.7275,13.4693,79.6738.0533C1393.6748,402.5557,1394.2842,402.3555,1394.917,402.1494Z" class="color100e14 svgShape"/><path fill="#ffffff" d="M1393.0586,402.7349c.6113,3.4526-1.127,7.5214-6.0752,12.3676-26.7393,26.1573-59.75,7.4605-71.6074-.8545a68.66459,68.66459,0,0,1-1.9912-11.5664C1325.624,410.5039,1349.1123,416.1509,1393.0586,402.7349Z" class="colorfff svgShape"/><path fill="#995641" d="M1303.8486,387.4565a22.13418,22.13418,0,0,0,3.5567,6.1602,32.3243,32.3243,0,0,0,5.4531,5.3481,43.17209,43.17209,0,0,0,14.0146,7.0186c10.2491,3.085,21.3897,3.4521,32.3106,2.4741a186.82466,186.82466,0,0,0,32.5469-6.1626c10.5859-3.2441,21.039-7.0845,31.6006-10.6108-10.3682,4.0146-20.6348,8.3506-31.1553,12.125a189.16732,189.16732,0,0,1-32.6436,7.7847c-11.123,1.5151-22.6699,1.7524-33.9375-1.0523a48.28821,48.28821,0,0,1-16.0097-7.1284c-4.8711-3.5542-9.1377-7.7168-11.7569-14.0606Z" class="color995641 svgShape"/><path fill="#231c2d" d="M1324.2842,302.6406c-.4756-.0454-.9746-.0893-1.4688-.0879-.748-.0654-1.5166-.1069-2.3027-.1006a51.26323,51.26323,0,0,0-5.915.2164q-1.50735.10755-3.0752.2885c-3.0205.3965-6.0469.9746-9.0186,1.6607a144.13089,144.13089,0,0,0-34.1152,13.4468c-8.2598-11.7295,12.0576-19.7881,12.0576-19.7881-5.4043,1.1176-12.6719,7.5893-13.1289,7.9941a58.16851,58.16851,0,0,1,19.5097-16.5083,46.45911,46.45911,0,0,1,11.753-4.1787,38.23262,38.23262,0,0,1,5.8428-.752,13.47307,13.47307,0,0,1,1.7519-.0063l4.3984,4.2681-2.3408-4.8682a15.07692,15.07692,0,0,1,4.5615,2.3984l.0489.0406a24.86056,24.86056,0,0,1,7.2373,9.6777c-2.544-9.0103-7.6778-12.7344-7.6778-12.7344a11.5793,11.5793,0,0,1,2.0362.8716C1322.8213,289.0513,1324.2842,302.6406,1324.2842,302.6406Z" class="color231c2d svgShape"/><path fill="#322a3f" d="M1311.5225 302.957c-3.0205.3965-6.0469.9746-9.0186 1.6607-4.6035-8.9073-10.918-12.9956-15.6768-14.8555a46.45911 46.45911 0 0111.753-4.1787C1307.9922 291.3257 1310.7383 299.1187 1311.5225 302.957zM1320.5127 302.4521a51.26323 51.26323 0 00-5.915.2164c-2.2247-9.9224-6.5762-15.1446-10.1748-17.837a13.47307 13.47307 0 011.7519-.0063l4.3984 4.2681-2.3408-4.8682a15.07692 15.07692 0 014.5615 2.3984l.0489.0406A28.89749 28.89749 0 011320.5127 302.4521zM1324.2842 302.6406c-.4756-.0454-.9746-.0893-1.4688-.0879-1.705-9.4057-5.4609-15.0005-8.3769-18.0737C1322.8213 289.0513 1324.2842 302.6406 1324.2842 302.6406z" class="color322a3f svgShape"/><path fill="#1b1723" d="M1394.166,408.0684a104.38251,104.38251,0,0,0-55.582,5.2182c-42.5527,16.2012-65.917-2.4492-65.6758-10.5879.2607-9.7055,11.8125-11.9585,11.8125-11.9585l.9756,9.4019-3.5889-5.1504s-12.0088,8.9517,5.0694,12.8354c17.0771,3.8633,52.6455-19.4228,52.6455-19.4228l24.3789,2.7603,24.417-7.3414s2.416,1.0039,6.2783,2.3941c11.7392,4.2392,36.9482,12.1377,49.0312,6.8931a20.79886,20.79886,0,0,0,5.7764-3.4634c6.1855-5.5469-3.1553-10.0943-3.1553-10.0943l-2.58,5.7295-.7706-9.4209s11.7666.0635,13.8086,9.5528C1458.7402,393.3677,1439.0479,416.0811,1394.166,408.0684Z" class="color1b1723 svgShape"/><path fill="#322a3f" d="M1449.7041,389.647c-.3037,2.5322-3.1641,5.2417-12.8027,9.7773-15.4571,7.335-45.3223-.2309-60.044,2.5078-14.7197,2.7588-25.4248-1.5146-25.4248-1.5146s3.582.832,18.8975-1.7744c11.5371-1.9595,20.7304-9.0611,24.5664-12.4258,11.7392,4.2392,36.9482,12.1377,49.0312,6.8931A20.79886,20.79886,0,0,0,1449.7041,389.647Z" class="color322a3f svgShape"/><path fill="#cc8971" d="M1326.8291,379.123c.8262,8.6778,16.8662,14.233,35.8262,12.4078s33.6611-10.3399,32.8359-19.0181c-.8262-8.6777-16.8652-14.2329-35.8262-12.4077C1340.7051,361.9307,1326.0039,370.4453,1326.8291,379.123Z" class="colorcc8971 svgShape"/><path fill="#995641" d="M1326.7969,378.606c.8808,3.4707,3.5947,5.518,6.5088,6.8188a35.75149,35.75149,0,0,0,9.3418,2.6519,86.28092,86.28092,0,0,0,39.0068-3.7681,35.79432,35.79432,0,0,0,8.6641-4.3828c2.6142-1.8301,4.8867-4.353,5.1035-7.9268,1.2783,3.4478-.5918,7.4961-3.0254,10.1602a30.57607,30.57607,0,0,1-8.7608,6.5752,59.5527,59.5527,0,0,1-42.0839,4.0469,30.54957,30.54957,0,0,1-9.8536-4.7818C1328.8008,385.8511,1326.1963,382.2319,1326.7969,378.606Z" class="color995641 svgShape"/><g clip-path="url(#b)" fill="#000000" class="color000 svgShape"><rect width="236.265" height="214.709" x="1190.323" y="259.874" fill="#ac684d" class="colorac684d svgShape"/></g><path fill="#f9a832" d="M1351.8672,166.0332s-100.5908,108.375,5.8525,102.208c0,0,97.167,1.4082-5.8525-102.208" class="colorf9a832 svgShape"/><path fill="#f68e20" d="M1349.9482,259.2646c-75.8769,0,2.0606-83.987,2.0606-83.987,82.21,82.6892,8.8906,83.7805,4.958,83.7805-.1074,0-.1631-.001-.1631-.001-2.418.1402-4.6933.2075-6.8555.2075m1.919-93.2314s-43.0449,46.3872-43.0117,76.7385c.0156,14.7552,10.2187,25.7234,40.5,25.7234,2.6377,0,5.415-.083,8.3642-.2539,0,0,.0684.001.1992.001,3.0918,0,41.3506-.5523,41.3038-27.9563-.0264-15.1133-11.7032-38.3943-47.3555-74.2527" class="colorf68e20 svgShape"/><path fill="#f27213" d="M1352.0088,175.2776s-77.9375,83.987-2.0606,83.987c2.1622,0,4.4375-.0673,6.8555-.2075,0,0,.0557.001.1631.001,3.9326,0,77.252-1.0913-4.958-83.7805" class="colorf27213 svgShape"/><path fill="#f9a832" d="M1352.251,191.332s-50.959,54.9024,2.9648,51.7786C1355.2158,243.1106,1404.4404,243.8242,1352.251,191.332Z" class="colorf9a832 svgShape"/><path fill="#231c2d" d="M1237.4443,285.9956c.2461,3.3154.4034,7.7031.2959,12.8042a141.26639,141.26639,0,0,1-1.0644,14.2251c-.2285,1.7949-.4746,3.6123-.7988,5.479a113.23207,113.23207,0,0,1-15.0176,41.1362,95.68972,95.68972,0,0,1-20.0274,23.1206s1.1514,37.4478,24.916,35.8218c0,0-18.3623,8.2129-33.0966-11.769-2.3233-11.4038-2.9805-24.5283-1.6153-39.5332.2461-2.9439.586-5.9805,1.0244-9.0884.4317-3.1704.9395-6.4102,1.543-9.7427.5371-2.9297,1.1328-5.9067,1.8037-8.9531.085-.4258.1699-.8506.2735-1.2988C1195.6807,338.1973,1204.9707,308.8867,1237.4443,285.9956Z" class="color231c2d svgShape"/><path fill="#322a3f" d="M1235.877 318.5039a113.23207 113.23207 0 01-15.0176 41.1362c-11.0078 4.3091-23.1367 7.4927-29.8233 7.6402.2461-2.9439.586-5.9805 1.0244-9.0884 1.2579-.9736 2.7354-2.0303 4.4532-3.1934C1218.1006 340.4116 1229.8467 327.061 1235.877 318.5039zM1237.7402 298.7998a141.26639 141.26639 0 01-1.0644 14.2251c-9.4912 8.1519-30.6397 26.1196-43.0723 35.4243.5371-2.9297 1.1328-5.9067 1.8037-8.9531C1219.0049 313.4946 1232.0566 302.8179 1237.7402 298.7998z" class="color322a3f svgShape"/><path fill="#f9a832" d="M1190.3623,417.4946a11.90783,11.90783,0,1,1-12.9609-10.8125,11.95677,11.95677,0,0,1,12.9609,10.8125" class="colorf9a832 svgShape"/><path fill="#f68e20" d="M1178.5078,428.1099a9.35868,9.35868,0,0,1-.8496-18.6719c.2939-.0274.5869-.041.877-.041a9.35857,9.35857,0,0,1,.8505,18.6714q-.44235.0417-.8779.0415m.0147-21.4805c-.3702,0-.7452.0176-1.1211.0527a11.86907,11.86907,0,0,0-8.709,5.145,11.98941,11.98941,0,0,0-2.0928,6.8213c.002.355.0186.7129.0518,1.0733a11.93833,11.93833,0,0,0,11.8408,10.8652c.3701,0,.7451-.0176,1.1211-.0527a11.9514,11.9514,0,0,0,10.8017-11.9663c-.0019-.355-.0185-.7134-.0527-1.0733a11.96611,11.96611,0,0,0-4.6807-8.4467,11.81221,11.81221,0,0,0-7.1591-2.4185" class="colorf68e20 svgShape"/><path fill="#f27213" d="M1178.5352,409.397c-.2901,0-.5831.0136-.877.041a9.35868,9.35868,0,0,0,.8496,18.6719q.43515,0,.8779-.0415a9.35857,9.35857,0,0,0-.8505-18.6714" class="colorf27213 svgShape"/><path fill="#f9a832" d="M1182.1953,412.9233c1.3916,1.9742.1367,5.273-2.8027,7.3687-2.9385,2.0957-6.4492,2.1948-7.8399.2207-1.3916-1.9736-.1367-5.273,2.8028-7.3687S1180.8047,410.9497,1182.1953,412.9233Z" class="colorf9a832 svgShape"/><path fill="#2b313f" d="M1893.8232,1557.6055c-8.3574,5.7085-17.0107,5.6508-27.2783,5.5932-19.4599-.1069-44.7129-.2119-84.6904,38.9234-61.0742,59.8174-139.959,52.1821-139.959,52.1821-170.4951-35.625-253.2178-348.626-263.3965-380.4531-10.1787-31.7906-64.8711-76.3408-64.8711-76.3408-226.4814,193.4003-300.2783-48.3482-323.1806-136.1241-22.9014-87.8105-59.8174-105.624-83.9756-120.8911-24.1924-15.27-80.1748-35.6279,22.9023-80.1416,103.043-44.5503,249.3828,1.2539,249.3828,1.2539a589.37767,589.37767,0,0,1,64.1944-61.5136c202.1523-164.5933,350.0859-12.045,377.7041,20.1879a3.42108,3.42108,0,0,0,.3379.4058c.2382.272.4423.5444.6806.8164.3721.4736.7803.9502,1.1856,1.4238a4.12494,4.12494,0,0,0,.5107.6128,11.926,11.926,0,0,0,.8477,1.0493c.2041.2383.4082.5103.6103.7486.1358.2016.3399.4399.5078.644-1.2539-81.4316,170.4981-136.1269,225.2246-137.4145,54.6954-1.2564,35.628,16.5571,35.628,16.5571-100.5332,15.2671-7.6358,197.1982-30.5371,342.2476-22.9024,145.0493-183.2188,124.6914-183.2188,124.6914a1.49761,1.49761,0,0,1-.0342.27c-.916,5.4961-15.6416,94.2563-27.9589,144.7768-10.3829,42.6163-48.7901,154.7891-25.1084,209.7539,5.3291,12.3174,13.7753,21.7818,26.3652,26.9063,68.706,27.9932,159.0605-40.7158,169.2392-64.874,10.1788-24.1924,30.5372-38.169,40.7159-33.0811,10.1787,5.0908-6.3789,27.9927,1.2558,47.0606,7.6328,19.1015,61.0713,38.1714,36.916,54.729" class="color2b313f svgShape"/><path fill="#c7c7c7" d="M1759.0801,1162.9673a211.72954,211.72954,0,0,1-53.0469,9.6787l.0029.0073a211.77243,211.77243,0,0,0,53.086-9.6816l-.042-.0044M1624.2178,824.5898h0c.2041.2383.4082.5103.6103.7486.1358.2016.3399.4399.5078.644h0c-.1699-.2065-.373-.4433-.5078-.644-.2021-.2383-.4062-.5103-.6103-.7486h0m-3.5625-4.3081h0a3.42108,3.42108,0,0,0,.3379.4058c.2382.272.4423.5444.6806.8164.3721.4736.7803.9502,1.1856,1.4238a4.12494,4.12494,0,0,0,.5107.6128h0a3.92649,3.92649,0,0,1-.5078-.6128c-.4082-.4736-.8164-.9502-1.1885-1.4238-.2383-.272-.4424-.5444-.6777-.8164a3.46532,3.46532,0,0,1-.3408-.4058h0" class="colorc7c7c7 svgShape"/><polyline fill="#9b9b9b" points="1706.033 1172.646 1706.023 1172.646 1706.025 1172.654 1706.036 1172.653 1706.033 1172.646" class="color9b9b9b svgShape"/><path fill="#171b22" d="M1672.4541,1172.0669a176.67963,176.67963,0,0,0,19.9961.98c4.0635,0,8.626-.107,13.5752-.3926l-.002-.0078c-4.9697.2881-9.5449.3955-13.6211.3955a176.60963,176.60963,0,0,1-19.9482-.9751" class="color171b22 svgShape"/><path fill="#232834" d="M1819.2793,715.1338c-23.958,0-52.7471,26.1284-80.3809,52.2588-27.6308,26.1269-54.1045,52.2558-73.4296,52.2558q-.33705,0-.6709-.0107c-16.5235-.5444-24.5645-14.2515-28.3301-29.9951-7.2295,11.3672-11.334,23.5146-11.1299,36.3398l-.002-.0034v.0034c-.1679-.2041-.372-.4424-.5078-.644-.2021-.2383-.4062-.5103-.6103-.7486h0a11.57233,11.57233,0,0,1-.8477-1.0493h0a4.12494,4.12494,0,0,1-.5107-.6128c-.4053-.4736-.8135-.9502-1.1856-1.4238-.2383-.272-.4424-.5444-.6806-.8164a3.42108,3.42108,0,0,1-.3379-.4058h0c-18.2705-21.3154-89.167-95.2734-193.586-95.2656-41.0205.0029-87.2275,11.4209-137.4297,41.9287,33.5909,9.9746,66.0938,21.274,95.2383,33.5889,132.3262,55.9853,145.0489,217.5923,207.3789,319.3794,16.3536,26.6684,44.4825,50.1147,77.1211,70.2007,1.6963-9.8389,2.7823-16.4214,3.0205-17.7798a1.49761,1.49761,0,0,0,.0342-.27l.0215.0029a176.60963,176.60963,0,0,0,19.9482.9751c4.0762,0,8.6514-.1074,13.6211-.3955l.0098-.0005a211.72954,211.72954,0,0,0,53.0469-9.6787c-64.3047-6.0689-39.5869-72.335-39.5869-72.335,124.6914-35.625,115.7998-295.187,96.6982-310.4565a17.22554,17.22554,0,0,0-11.1064-3.6841c-7.4229,0-15.5537,3.5767-22.5401,7.1519-6.9844,3.5766-12.8252,7.1538-15.6689,7.1538-1.6377,0-2.2822-1.1861-1.5791-4.2408,3.8349-16.5571,105.624-66.1645,57.2734-71.2524a31.44211,31.44211,0,0,0-3.291-.1704" class="color232834 svgShape"/><path fill="#c7c7c7" d="M871.3867,899.0889c-6.6523,13.2675,4.8018,23.1025,17.7432,31.1469-12.9365-8.0561-24.3887-17.8881-17.7432-31.1469m.1797-.3511c-.0605.1157-.1191.2305-.1768.3457.0577-.1152.1163-.23.1768-.3457m11.1895-12.5977c-5.5567,4.5162-9.1475,8.6997-11.1846,12.5889,2.0371-3.8896,5.626-8.0698,11.1865-12.5884l-.001-.0005" class="colorc7c7c7 svgShape"/><path fill="#111216" d="M1103.7178,1255.8223a114.23487,114.23487,0,0,0,56.7285,14.7846c17.2305,0,36.0947-3.5854,56.7383-11.6342l.0009-.0093c-20.6484,8.0508-39.5107,11.6347-56.7441,11.6347a114.33175,114.33175,0,0,1-56.7236-14.7758" class="color111216 svgShape"/><polyline fill="#0d0e11" points="1217.195 1258.96 1217.185 1258.963 1217.185 1258.973 1217.194 1258.969 1217.195 1258.96" class="color0d0e11 svgShape"/><path fill="#171b22" d="M1313.6279,1197.5103c-35.83,30.5966-67.8427,50.3027-96.4326,61.4497l-.001.0088c28.5918-11.148,60.6026-30.8555,96.4336-61.4585" class="color171b22 svgShape"/><path fill="#111216" d="M1103.4912,1255.6948l.0693.0391-.0693-.0391" class="color111216 svgShape"/><path fill="#c7c7c7" d="M1825.8848,1470.6157a73.81134,73.81134,0,0,0-10.9493,18.2813,44.9024,44.9024,0,0,1-7.3886,10.8808l.001.0035a44.43192,44.43192,0,0,0,7.3876-10.8843,74.37224,74.37224,0,0,1,10.9493-18.2813m.1455-.1762-.0078.0097.0078-.0097h0m33.0468-8.0406-.0107.0113c.1221,9.3295-7.7344,25.644-2.3652,39.9336-5.3653-14.294,2.5127-30.628,2.3759-39.9449" class="colorc7c7c7 svgShape"/><path fill="#1d212a" d="M1807.5469,1499.7778q-.7485.8673-1.5586,1.7583.8115-.8898,1.5596-1.7548l-.001-.0035" class="color1d212a svgShape"/><path fill="#c7c7c7" d="M1856.9072,1502.8765h0c7.6328,19.1015,61.0713,38.1714,36.916,54.729,24.1582-16.5576-29.2812-35.6275-36.916-54.729h0m-.1133-.2891.0381.0977-.0381-.0977m-.08-.2109c.0146.041.0302.0815.0459.1225-.0157-.0405-.0313-.082-.0459-.1225" class="colorc7c7c7 svgShape"/><path fill="#232834" d="M1024.1875,884.0903a531.379,531.379,0,0,0-64.2764,4.2535,322.46383,322.46383,0,0,1-38.7841,2.6342c-16.7188,0-29.1534-1.8691-38.3692-4.8374-5.5605,4.5186-9.1494,8.6988-11.1865,12.5884l-.0049.0088c-.0605.1157-.1191.2305-.1768.3457l-.0029.0054c-6.6455,13.2588,4.8067,23.0908,17.7432,31.1469,3.6142,2.2466,7.3437,4.3536,10.8271,6.3565a162.054,162.054,0,0,1,66.3321,26.8047c40.7158,27.9926,38.1718,132.3237,128.4922,188.3091,35.4853,21.9951,66.8437,28.6699,91.8466,28.6699,38.6377,0,62.0918-15.9468,62.0918-15.9468s1.6778,85.0454-99.6396,85.0454c-18.9629,0-41.5508-2.9834-68.4141-10.06a136.158,136.158,0,0,0,22.8252,16.2802l.0693.0391c.0518.0293.1055.0591.1573.0884a114.33175,114.33175,0,0,0,56.7236,14.7758c17.2334,0,36.0957-3.5839,56.7441-11.6347l.0098-.0034c28.5899-11.147,60.6026-30.8531,96.4326-61.4497h0s54.6924,44.5502,64.8741,76.3408c10.1787,31.8271,92.8984,344.8281,263.3935,380.4531,0,0,3.2617.3159,8.9736.3159,22.375,0,82.3321-4.8457,130.9854-52.498,37.8916-37.0928,62.5518-38.9346,81.5928-38.9346,1.0478,0,2.082.0059,3.0976.0112,1.0264.0059,2.0352.0117,3.0313.0117,8.9619,0,16.7246-.4672,24.247-5.6049h0c24.1553-16.5576-29.2832-35.6275-36.916-54.729h0c-.0254-.0635-.0508-.1285-.0752-.1914l-.0381-.0977-.0341-.0884c-.0157-.041-.0313-.0815-.0459-.1225-.0049-.0108-.0088-.022-.0127-.0327-5.3692-14.2896,2.4873-30.6041,2.3652-39.9336-23.0586,24.3413-23.5225,77.1889-33.0283,77.1889-1.958,0-4.3008-2.2446-7.3027-7.4424-9.9063-17.167-2.3057-41.9013,7.2949-61.7172l-.0078.0097c-.0459.0552-.0918.1109-.1377.1665a74.37224,74.37224,0,0,0-10.9493,18.2813,44.43192,44.43192,0,0,1-7.3876,10.8843q-.75.8664-1.5596,1.7548-1.96875,2.16735-4.2842,4.46c-14.623,41.8022-31.3506,80.7539-124.1836,98.6699a184.89488,184.89488,0,0,1-35.0596,3.6035c-87.4609,0-129.9463-76.2802-177.4394-219.9057-53.4385-161.5728-10.1787-270.9947-29.249-273.5391a5.19991,5.19991,0,0,0-.6856-.0449c-7.6826,0-15.8799,16.8564-28.3594,33.7148-12.4814,16.856-29.2461,33.7124-54.0644,33.7124-11.5654,0-24.8818-3.6616-40.3262-12.6894-82.6846-48.3482-134.8701-215.0117-134.8701-215.0117-20.6426-44.4556-69.0088-70.4156-153.2793-70.4156" class="color232834 svgShape"/><path d="M1281.4922 1165.3901a226.68314 226.68314 0 01-40.9668-35.6357 301.08666 301.08666 0 01-33.0147-43.5503c-2.4248-3.8691-4.6201-7.8726-6.9423-11.8086l-3.4288-5.9394-3.125-6.0967c-2.0839-4.065-4.1835-8.1314-6.1533-12.2554l-5.4687-12.5698-2.7344-6.291-2.4102-6.4131-4.7851-12.8506c-2.9639-8.6431-5.3613-17.4639-8.0645-26.1934l-.0088-.0258-.122-.5743a46.83 46.83 0 00-2.2354-6.9848 67.86974 67.86974 0 00-3.3564-7.1656 82.97534 82.97534 0 00-9.0088-13.2353 96.71558 96.71558 0 00-24.5674-21.1284c-18.7783-11.3863-40.6426-18.0425-63.0244-21.2749-5.5684-1.0347-11.2598-1.4156-16.9004-2.1343-5.6894-.3076-11.3682-.9194-17.0898-.9868-11.4258-.3306-22.9229-.4312-34.4151.2207-23.0117.9853-46.0166 3.6572-69.0732 6.6929a460.242 460.242 0 0168.4775-13.9141c23.2168-2.7593 46.8565-3.7974 70.4815-1.1724a199.68924 199.68924 0 0135.0957 6.9444 138.34014 138.34014 0 0133.3037 14.3632 110.04929 110.04929 0 0128.1543 23.7671 89.61083 89.61083 0 0110.416 15.5533 81.23327 81.23327 0 013.9277 8.6201 56.507 56.507 0 012.8731 9.6211l-.1299-.5982c2.5273 8.499 4.8193 17.083 7.5322 25.5235l4.2569 12.603 2.1445 6.3008 2.4639 6.1743 4.9277 12.3618 5.4892 12.1167 2.7286 6.0752 3.0293 5.9224c2.0576 3.9287 3.9912 7.9365 6.1533 11.8125a356.43882 356.43882 0 0029.1338 44.6713c5.3545 7.148 11.2617 13.8472 17.2226 20.5416C1268.3896 1153.0225 1274.8145 1159.3003 1281.4922 1165.3901zM1807.293 771.2783a246.70523 246.70523 0 00-55.0752 33.9961 210.18077 210.18077 0 00-42.6104 46.832 179.18783 179.18783 0 00-15.3291 27.668c-4.6728 9.5225-7.8867 19.6709-11.1357 29.8408-5.9141 20.545-9.2696 41.9849-11.3555 63.9678a190.08218 190.08218 0 011.0654-66.4726 174.29123 174.29123 0 0125.4512-62.5 186.80668 186.80668 0 0121.5225-26.3023 174.68682 174.68682 0 0126.1045-21.5063 179.55387 179.55387 0 0129.4648-16.0845C1785.7012 776.479 1796.292 772.7773 1807.293 771.2783z" fill="#000000" class="color000 svgShape"/><path fill="#232834" d="M1365.5742,970.6973a12.4217,12.4217,0,0,0-2.5488.2636c-13.0215,2.7408-19.1358,26.0718-13.6602,52.1119,5.1241,24.3579,18.5713,42.4589,30.9434,42.4589a12.36507,12.36507,0,0,0,2.5508-.2641c13.0215-2.7378,19.1386-26.0689,13.6601-52.1118-5.124-24.357-18.5722-42.4605-30.9453-42.4585" class="color232834 svgShape"/><path d="M1390.2188,1014.4814c4.0136,19.0826-.4678,36.1788-10.0088,38.1856s-20.5293-11.8359-24.543-30.9185.4678-36.1787,10.0088-38.185C1375.2168,981.5566,1386.2051,995.3989,1390.2188,1014.4814Z" fill="#000000" class="color000 svgShape"/><path fill="#f2f2f2" d="M1370.6055 1005.5083c1.4531 6.9053-.169 13.0918-3.6211 13.8179-3.4531.726-7.4297-4.2832-8.8819-11.1885s.169-13.0918 3.6221-13.8179C1365.1768 993.5938 1369.1533 998.603 1370.6055 1005.5083zM1378.2598 1023.8115c.208 3.4131-1.0069 6.2652-2.7139 6.3692-1.7061.104-3.2588-2.5786-3.4668-5.9922s1.0068-6.2652 2.7129-6.3697C1376.499 1017.7148 1378.0518 1020.3979 1378.2598 1023.8115z" class="colorf2f2f2 svgShape"/><path fill="#75af28" d="M1672.4316,1172.0635a1.53365,1.53365,0,0,1-.0341.2715c-.9161,5.4961-15.6416,94.2558-27.958,144.7773-5.6661,23.3096-19.7461,67.418-27.4483,111.6284a324.03585,324.03585,0,0,0-5.2256,49.4688c-.3056,18.3901,1.7979,35.2192,7.5664,48.6552-6.0742,9.6021-10.5185,15.4717-10.5185,15.4717-100.5332-83.9756-47.0938-143.7934-47.0938-143.7934-67.4179-41.9707-13.9795-133.5806-13.9795-133.5806-83.9756-44.5493-14.0127-286.2974-162.8613-333.3579-109.5586-34.6421-135.7529-99.6172-141.9277-131.5107q10.07655-8.19435,19.9502-15.3702c191.9062-139.2129,331.0507,4.4107,357.7539,35.5581a3.514,3.514,0,0,0,.3388.4068c.2383.2719.4414.5429.6788.8144.373.4756.7802.9502,1.1875,1.4253a4.07522,4.07522,0,0,0,.5087.6109,11.78487,11.78487,0,0,0,.8487,1.0517c.2031.2373.4072.5088.6113.7466.1348.2031.3389.4404.5078.6445,34.7783,42.2759,50.2842,100.4991,56.0186,157.128C1691.1611,1079.9111,1672.4316,1172.0635,1672.4316,1172.0635Z" class="color75af28 svgShape"/><path fill="#c93f3f" d="M1598.6348,1244.605c-69.9971-8.9238-72.541-145.0493-89.0655-208.667-16.5576-63.6182-38.1699-109.4229-148.8828-156.5171-68.8769-29.2813-90.9306-68.9111-97.7851-94.6973a376.578,376.578,0,0,1,44.6181-27.9917c168.6299-89.167,288.5362,34.8794,313.1358,63.5498a3.514,3.514,0,0,0,.3388.4068c.2383.2719.4414.5429.6788.8144.373.4756.7802.9502,1.1875,1.4253a4.07522,4.07522,0,0,0,.5087.6109,11.78487,11.78487,0,0,0,.8487,1.0517c.2031.2373.4072.5088.6113.7466.1348.2031.3389.4404.5078.6445a200.23472,200.23472,0,0,1,22.8008,34.71c19.1709,36.814,28.9424,80.0737,33.2178,122.418C1685.3242,1116.792,1658.0117,1252.1372,1598.6348,1244.605Z" class="colorc93f3f svgShape"/><path fill="#f7c434" d="M1583.3662 1035.938c-47.0937-31.8262-26.7363-141.249-150.1377-176.875-88.4209-25.5151-116.7519-75.8662-125.709-102.3311 168.6299-89.167 288.5362 34.8794 313.1358 63.5498a3.514 3.514 0 00.3388.4068c.2383.2719.4414.5429.6788.8144.373.4756.7802.9502 1.1875 1.4253a4.07522 4.07522 0 00.5087.6109 11.78487 11.78487 0 00.8487 1.0517c.2031.2373.4072.5088.6113.7466.1348.2031.3389.4404.5078.6445a200.23472 200.23472 0 0122.8008 34.71C1692.2461 1004.2139 1626.1855 1064.8799 1583.3662 1035.938zM1652.7021 1149.168c0 36.8916-17.4482 66.7983-38.9707 66.7983s-38.9697-29.9067-38.9697-66.7983c0-36.8921 17.4473-66.7989 38.9697-66.7989S1652.7021 1112.2759 1652.7021 1149.168zM1626.9365 1328.5698c0 28.9868-17.0898 52.4849-38.1709 52.4849s-38.1699-23.4981-38.1699-52.4849c0-28.9863 17.0889-52.4844 38.1699-52.4844S1626.9365 1299.5835 1626.9365 1328.5698zM1616.9912 1428.7407a324.03585 324.03585 0 00-5.2256 49.4688c-4.6484 6.6162-10.8916 10.688-17.7451 10.688-14.4883 0-26.2617-18.1524-26.2617-40.5801 0-22.3931 11.7734-40.5454 26.2617-40.5454C1603.9277 1407.772 1612.5459 1416.2544 1616.9912 1428.7407z" class="colorf7c434 svgShape"/></svg>