<svg xmlns="http://www.w3.org/2000/svg" viewBox="0 0 1779.352 1622.605"><g data-name="Layer 1" fill="#000000" class="color000 svgShape"><path fill="#cec7c2" d="M302.188 751.5S214.71 898.884 402.736 913.853c0 0-3.068 108.102 149.53 114.445 63.672 2.66 110.005-2.428 142.383-9.22 28.047 17.545 69.78 38.306 130.46 57.775 145.398 46.688 179.833-55.833 179.833-55.833 181.647 50.818 150.387-117.698 150.387-117.698 113.557-86.118-8.63-185.301-8.63-185.301 94.773-181.92-31.19-227.45-31.19-227.45l-294.166-70.739-19.248-4.637-19.647-2.285-300.511-35.089s-133.936-.72-107.723 202.73c0 0-148.902 50.94-72.027 170.947Z" class="colorcec7c2 svgShape"/><path fill="#5e3925" d="M1779.352 1570.54a52.09 52.09 0 0 1-15.221 36.844c-.86.86-1.829 1.721-2.743 2.528a24.715 24.715 0 0 1-1.829 1.506 31.082 31.082 0 0 1-3.12 2.312 43.399 43.399 0 0 1-4.302 2.582 43.9 43.9 0 0 1-4.518 2.206l-2.42.968c-.377.107-.754.268-1.13.376a7.626 7.626 0 0 1-1.184.377c-.645.215-1.29.376-1.935.591-.162.054-.324.054-.485.108a35.207 35.207 0 0 1-4.733.968 48.191 48.191 0 0 1-8.39.7H52.064a52.038 52.038 0 1 1 0-104.077h1675.276c1.345 0 2.69.054 3.98.161a2.613 2.613 0 0 1 .646.054c.592.054 1.237.108 1.829.215a44.86 44.86 0 0 1 5.486.968c.591.162 1.183.27 1.775.43.806.216 1.613.485 2.366.7a52.07 52.07 0 0 1 29.637 24.688c.376.645.698 1.29 1.021 1.936.431.86.807 1.721 1.183 2.636.323.753.647 1.56.915 2.366a25.52 25.52 0 0 1 .86 2.42 52.305 52.305 0 0 1 2.313 15.437Z" class="color5e3925 svgShape"/><path d="M1779.352 1570.54a52.09 52.09 0 0 1-15.221 36.844c-.86.86-1.829 1.721-2.743 2.528a24.715 24.715 0 0 1-1.829 1.506 31.082 31.082 0 0 1-3.12 2.312 43.399 43.399 0 0 1-4.302 2.582 43.9 43.9 0 0 1-4.518 2.206l-2.42.968c-.377.107-.754.268-1.13.376a7.626 7.626 0 0 1-1.184.377c-.645.215-1.29.376-1.935.591-.162.054-.324.054-.485.108a35.207 35.207 0 0 1-4.733.968 48.191 48.191 0 0 1-8.39.7H52.064A52.006 52.006 0 0 1 .054 1570.54v-.161c1.344.108 2.69.161 3.98.161H1679.31a52.062 52.062 0 0 0 52.012-51.85 2.613 2.613 0 0 1 .645.054 2.704 2.704 0 0 1 .645.108 8.06 8.06 0 0 1 1.184.107 44.86 44.86 0 0 1 5.486.968c.591.162 1.183.27 1.775.43.806.216 1.613.485 2.366.7a52.07 52.07 0 0 1 29.637 24.688c.376.645.698 1.29 1.021 1.936.431.86.807 1.721 1.183 2.636.323.753.647 1.56.915 2.366a25.52 25.52 0 0 1 .86 2.42 52.305 52.305 0 0 1 2.313 15.437Z" style="mix-blend-mode:soft-light" opacity=".3" fill="#000000" class="color000 svgShape"/><path fill="#5e3925" d="M1745.207 1619.467a48.981 48.981 0 0 1-9.49 2.449 53.302 53.302 0 0 0 9.49-2.449Z" class="color5e3925 svgShape"/><path d="M1731.321 1518.687c.446.028.863.083 1.309.139-.419-.056-.863-.084-1.309-.111Z" style="mix-blend-mode:soft-light" opacity=".3" fill="#000000" class="color000 svgShape"/><path fill="#a9a35f" d="m1127.36 1259.862-75.043 208.629-73.54-85.06-28.938-33.5-2.615-3.006-.696 12.8-8.265 156.82s-34.53 0-67.586 5.982c-13.02 2.365-28.159.528-43.266-1.058-23.206-2.504-46.384-4.48-61.827 10.072-25.043 23.568-57.32 12.439-58.515 12.02l-.028-.027a646.565 646.565 0 0 1-93.824 3.7c-145.663-4.701-270.762-53.59-276.911-69.7-4.258-11.158-.279-108.099 11.964-208.601 3.31-26.629 7.152-53.535 11.575-79.133 8.152-47.302 18.31-90.208 30.469-119.09 12.604-29.94 30.913-56.094 50.668-78.187a407.29 407.29 0 0 1 60.936-55.148 417.087 417.087 0 0 1 37.786-25.07c4.341-2.505 6.733-3.757 6.733-3.757s190.655 16.556 246.164 30.05a256.237 256.237 0 0 1 33.057 10.908c44.88 17.64 98.415 47.886 125.238 64.748 5.51 3.394 9.933 6.344 12.883 8.43 10.184 7.208 48.777 63.024 85.922 118.59 19.004 28.492 37.674 56.957 51.92 78.826a11472.9 11472.9 0 0 1 25.739 39.762Z" class="colora9a35f svgShape"/><path fill="#1e94af" d="M785.125 1283.885c-145.763-23.538-246.426-249.522-283.2-346.502 25.458-18.894 44.513-28.821 44.513-28.821s190.65 16.545 246.16 30.049c47.769 11.635 124.413 54.334 158.305 75.63.8 71.52-9.233 294.89-165.779 269.644Z" class="color1e94af svgShape"/><path d="M785.125 1283.885c-124.361-20.068-215.897-187.555-262.973-296.544 21.03 30.85 62.128 31.224 97.354 70.827 48.036 54.067 73.068 150.14 85.077 169.141s96.02 49.05 148.06 22.043c52.04-27.06 49.05-122.119 49.05-122.119-191.718-36.187-300.868-186.7-320.135-215.416 57.75 5.444 170.475 16.92 211.04 26.794 47.769 11.635 124.413 54.334 158.305 75.63.8 71.52-9.233 294.89-165.779 269.644Z" style="mix-blend-mode:soft-light" opacity=".3" fill="#000000" class="color000 svgShape"/><path fill="#842d1b" d="M963.779 1022.685s-11.325 117.42-12.02 155.567c-.306 17.335-1.141 93.575-1.92 171.678-.696 66.752-1.364 134.81-1.698 168.617H827.883c12.604-79.773 40.903-310.328-2.225-569.041 44.88 17.64 98.415 47.886 125.238 64.748 5.51 3.394 9.933 6.344 12.883 8.43Z" class="color842d1b svgShape"/><path d="M1124.506 1255.461v-.054c-.752-1.13-1.667-2.474-2.635-4.034-3.496-5.432-8.552-13.231-14.684-22.751-1.775-2.69-3.603-5.54-5.54-8.498a13821.869 13821.869 0 0 0-30.927-47.117 7433.762 7433.762 0 0 1-13.93-21.084l-7.1-10.65c-2.313-3.442-4.68-6.938-6.992-10.38-17.427-25.979-34.8-51.366-48.946-71.106-.968-1.29-1.882-2.582-2.797-3.819a300.752 300.752 0 0 0-4.087-5.54q-3.228-4.437-6.132-8.229a482.115 482.115 0 0 0-4.464-5.755c-.7-.914-1.399-1.775-2.044-2.582-1.345-1.613-2.582-3.12-3.71-4.41-1.453-1.668-2.69-3.066-3.82-4.142a.053.053 0 0 0-.054-.053 8.096 8.096 0 0 0-.645-.7c-.431-.376-.86-.753-1.237-1.075a11.906 11.906 0 0 0-.968-.753v-.054h-.054c-.754-.538-1.614-1.13-2.582-1.829-2.689-1.829-6.186-4.088-10.274-6.616-1.667-1.075-3.441-2.15-5.324-3.28-.968-.592-1.882-1.184-2.904-1.776-13.232-8.068-30.659-18.072-49.592-28.076q-5.243-2.743-10.65-5.486c-4.356-2.259-8.766-4.518-13.23-6.616-5.863-2.904-11.725-5.755-17.589-8.39-2.635-1.237-5.324-2.42-7.96-3.604l-.806-.323a255.442 255.442 0 0 0-7.046-3.065h-.054a11.978 11.978 0 0 0-1.56-.646c-2.851-1.183-5.702-2.313-8.498-3.442-1.238-.485-2.475-.968-3.658-1.453a15.16 15.16 0 0 0-1.668-.591c-2.312-.914-4.57-1.721-6.776-2.528-4.034-1.398-7.907-2.69-11.726-3.819-1.398-.43-2.85-.86-4.249-1.237q-2.581-.726-5.002-1.291c-1.29-.323-2.581-.645-4.034-.914-1.398-.323-2.85-.646-4.41-.968a.322.322 0 0 1-.215-.054c-3.012-.592-6.24-1.237-9.681-1.83-2.636-.483-5.326-.913-8.176-1.397-1.99-.323-3.98-.646-6.078-.968-3.012-.485-6.185-.969-9.36-1.453-3.387-.484-6.884-1.022-10.487-1.506q-2.26-.322-4.68-.645c-5.7-.807-11.618-1.56-17.695-2.367q-4.518-.565-9.198-1.13c-2.528-.322-5.002-.645-7.53-.914-13.876-1.72-28.076-3.335-42.061-4.84l-10.326-1.13c-.216 0-.484-.054-.7-.054h-.054c-8.282-.914-16.35-1.721-24.15-2.528-1.613-.161-3.226-.322-4.786-.484-3.174-.323-6.293-.645-9.305-.914-7.261-.753-14.146-1.399-20.493-1.99-25.602-2.474-42.76-3.98-42.76-3.98s-2.366 1.237-6.67 3.765c-1.236.699-2.635 1.56-4.195 2.42a2.971 2.971 0 0 1-.752.484h-.054a1.636 1.636 0 0 1-.377.27c-.215.107-.43.268-.645.376a7.47 7.47 0 0 1-.861.537c-.645.43-1.291.807-1.99 1.238-3.335 2.097-7.154 4.517-11.295 7.314-2.528 1.668-5.163 3.497-7.96 5.433a264.227 264.227 0 0 0-6.508 4.68c-1.023.752-2.099 1.505-3.174 2.312q-5.324 3.953-10.973 8.39v.054h-.054a401.09 401.09 0 0 0-49.698 46.418.949.949 0 0 1-.215.269 375.887 375.887 0 0 0-7.315 8.498q-3.549 4.195-6.938 8.552c-1.99 2.582-3.98 5.163-5.916 7.853-.915 1.237-1.829 2.528-2.744 3.819-1.774 2.42-3.442 4.894-5.11 7.422a272.998 272.998 0 0 0-9.143 14.791c20.977 20.923 45.395 56.1 58.573 112.844 26.032 112.09-13.984 186.1-13.984 186.1l263.175 114.134a.167.167 0 0 0 .108-.054h.054l.053-.054a2.112 2.112 0 0 0 .323-.108c3.442-1.237 21.945-7.852 41.63-12.693 13.232-3.28 27.055-5.701 37.167-5.217.86.053 1.775.107 2.581.215a19.077 19.077 0 0 1 2.529.323 19.83 19.83 0 0 1 2.097.537c10.704 3.012 22.536 11.618 32.648 21.192a1.409 1.409 0 0 1 .323.27q2.017 1.855 3.873 3.71l.16.162.162.161v.054c9.628 9.735 17.05 19.632 19.364 25.01a4.838 4.838 0 0 1 .376 2.797 1.925 1.925 0 0 1-.215.592c-.484 1.29-1.83 2.313-3.765 3.12-4.357 1.774-11.726 2.42-20.224 2.205a193.87 193.87 0 0 1-32.702-3.712 71.331 71.331 0 0 0-11.295-1.075c-10.38-.215-23.558.86-36.682 2.474-13.984 1.667-27.808 3.98-37.919 5.755-7.745 1.399-13.339 2.474-15.168 2.85-7.53 1.453-290.714-72.557-290.714-72.557s-25.01 38.565-70.03 45.073c3.174 8.39 38.78 25.71 92.727 40.985a781.146 781.146 0 0 0 184.165 28.722 649.017 649.017 0 0 0 93.803-3.711h.053a2.109 2.109 0 0 1 .323.107c.215.054.592.215 1.076.377a4.488 4.488 0 0 1 .807.215 1.676 1.676 0 0 1 .43.107c.807.216 1.774.43 2.904.7 10.489 2.259 33.831 4.518 52.98-13.5 11.187-10.597 26.516-12.425 42.92-11.672 2.045.053 4.142.215 6.24.376 6.616.484 13.393 1.291 20.062 1.99 2.475.27 4.895.484 7.369.7 2.42.215 4.84.376 7.208.484 2.312.16 4.625.215 6.885.215a83.274 83.274 0 0 0 14.414-1.13c10.112-1.828 20.385-3.12 29.744-3.98 21.191-1.99 37.812-1.99 37.812-1.99l.967-18.718 7.315-138.069.162-2.796.537-10.005v-.053l.485-25.334.268-9.789 3.712-131.507.054-1.99 59.917 71.428 55.723 66.48 21.514 25.656 6.293 7.53 32.164-89.5s-.968-1.56-2.85-4.41Zm-283.399 153.344a43.263 43.263 0 0 1-10.434 6.67s-62.984 3.657-115.855 15.544l-.054.054c-2.098.43-4.142.914-6.186 1.398-11.295 2.743-25.226-18.395-40.232-53.57-26.624-62.339-56.583-168.89-80.894-264.413v-.108c-3.496-13.662-6.83-27.108-10.058-40.178-3.926-15.813-7.583-31.035-11.026-45.396-.807-3.388-1.614-6.777-2.367-10.058-.968-4.087-1.936-8.067-2.85-11.94-12.748-54.378-20.923-92.243-21.407-94.395 1.452 1.56 24.15 25.817 60.401 57.605 8.068 7.154 16.89 14.63 26.302 22.375a936.118 936.118 0 0 0 40.447 31.465c.376.27.753.592 1.13.86a.052.052 0 0 1 .053.054c15.598 11.457 32.165 22.806 49.484 33.67a.167.167 0 0 0 .108.054c39.693 24.796 83.099 46.58 127.203 59.219a289.301 289.301 0 0 0 56.799 10.703 202.25 202.25 0 0 0 17.05.86s-3.55 45.343-12.747 100.15c-11.457 68.47-31.681 151.731-64.867 179.377Z" style="mix-blend-mode:soft-light" opacity=".3" fill="#000000" class="color000 svgShape"/><path d="M511.478 961.775c-3.576-8.807-6.726-16.973-9.553-24.392a180.061 180.061 0 0 1 6.297-4.536c.054 1.708.107 3.469.213 5.23a136.7 136.7 0 0 0 3.043 23.698Z" style="mix-blend-mode:soft-light" opacity=".3" fill="#000000" class="color000 svgShape"/><path fill="#842d1b" d="m711.575 1456.496-155.797-68.8-7.313-3.202c32.88-278.397-69.865-368.17-107.494-391.976a407.352 407.352 0 0 1 60.954-55.135 415.607 415.607 0 0 1 37.787-25.086c244.72 72.963 171.863 544.199 171.863 544.199Z" class="color842d1b svgShape"/><path d="M716.628 1413.206c-2.554 27.01-5.061 43.293-5.061 43.293l-155.79-68.802-7.302-3.203c32.878-278.388-69.876-368.175-107.503-391.982a406.188 406.188 0 0 1 60.964-55.118 416.47 416.47 0 0 1 37.783-25.106c85.71 25.554 132.474 99.977 157.02 185.912-26.001 3.763-73.862 1.322-146.292-37.223 0 0 50.168 314.38 166.18 352.23Z" style="mix-blend-mode:soft-light" opacity=".3" fill="#000000" class="color000 svgShape"/><path d="m548.893 1380.812 30.424 17.293-23.539-10.408-7.313-3.203c.162-1.227.267-2.455.428-3.682ZM947.86 1311.853c.054 0 .054-.053.108-.053l-.267 9.767Z" style="mix-blend-mode:soft-light" opacity=".3" fill="#000000" class="color000 svgShape"/><path fill="#5e5a37" d="M480.414 1354.392c19.692 7.541 39.182 15.534 58.72 23.417l58.346 24.261c19.373 8.262 38.766 16.478 58.052 24.937l57.817 25.472-3.598.023a237.235 237.235 0 0 1 49.233-15.506 128.831 128.831 0 0 1 25.981-2.55c8.749.053 17.892 1.646 26.037 5.957 15.668 9.132 26.244 23.13 35.79 37.174a288.553 288.553 0 0 1 23.89 44.942 345.616 345.616 0 0 0-27.119-42.663 222.506 222.506 0 0 0-16.197-19.08c-5.858-5.767-12.25-11.306-19.27-14.724-6.946-3.3-15.054-4.48-23.154-4.154a127.408 127.408 0 0 0-24.36 3.006 257.205 257.205 0 0 0-47.18 15.584l-1.835.805-1.765-.781-57.768-25.57c-19.243-8.554-38.378-17.352-57.534-26.104l-57.252-26.749c-18.98-9.155-38.007-18.2-56.834-27.697Z" class="color5e5a37 svgShape"/><path fill="#2b2b2d" d="m1609.729 1168.745-10.72 26.597-121.812 302.472-8.368 20.717H882.068v-20.717h142.483l135.699-329.069h449.479z" class="color2b2b2d svgShape"/><path d="m1178.886 1190.773-120.41 307.041h418.721l-8.368 20.717H882.068v-20.717h142.483l135.699-329.069h449.479l-10.72 26.597-420.123-4.569z" style="mix-blend-mode:soft-light" opacity=".3" fill="#000000" class="color000 svgShape"/><ellipse cx="1361.625" cy="1364.307" fill="#ffffff" opacity=".12" rx="45.279" ry="27.712" transform="rotate(-81.958 1361.625 1364.307)" class="colorfff svgShape"/><path fill="#ce8d61" d="M870.677 1522.527c-13.02 2.365-28.158.528-43.266-1.058-23.206-2.504-46.384-4.48-61.827 10.072-25.042 23.568-57.32 12.439-58.515 12.02l-.028-.027c10.574-65.193 4.536-87.035 4.536-87.035s44.88-25.126 86.562-17.029c35.476 6.9 64.608 65.666 72.538 83.057Z" class="colorce8d61 svgShape"/><path d="M870.67 1522.523c-13.011 2.375-28.152.538-43.27-1.052-23.202-2.509-46.383-4.48-61.814 10.078-25.038 23.561-57.312 12.43-58.522 12.005l-.021-.023c10.57-65.196 4.524-87.032 4.524-87.032a171.982 171.982 0 0 1 42.598-15.588c-3.517 20-7.727 50.235-2.8 58.477 7.57 12.587 40.314-16.372 68.04-7.57 16.753 5.33 28.421 6.517 37 3.292a306.44 306.44 0 0 1 14.265 27.413Z" style="mix-blend-mode:soft-light" opacity=".3" fill="#000000" class="color000 svgShape"/><path fill="#ce8d61" d="M1035.78 784.967c21.374 32.055 55.772 31.458 89.287 14.698l.02.003c65.196-32.572 127.102-126.094 83.73-159.003-22.066-16.747-44.639-19.675-64.88-16.19-39.995 6.876-70.912 38.83-70.912 38.83s-100.204 27.246-37.246 121.662Z" class="colorce8d61 svgShape"/><path d="M1035.78 784.967c21.374 32.055 55.772 31.458 89.287 14.698-44.494 3.177-42.71-42.632-42.71-42.632 37.333 41.326 127.41-53.594 114.497-80.548-12.935-26.957-74.751 4.409-74.751 4.409-4.534-28.791 10.195-46.9 21.833-56.418-39.994 6.875-70.911 38.828-70.911 38.828s-100.204 27.247-37.246 121.663Z" style="mix-blend-mode:soft-light" opacity=".3" fill="#000000" class="color000 svgShape"/><path fill="#aa6b3f" d="M1061.022 759.986c1.772-14.934 7.353-29.158 14.752-42.357a121.534 121.534 0 0 1 29.586-34.932 98.025 98.025 0 0 1 41.817-19.895 86.895 86.895 0 0 1 45.084 2.656c-14.834 1.977-28.765 4.494-41.593 9.58a129.953 129.953 0 0 0-35.223 20.309 190.574 190.574 0 0 0-29.196 29.428 380.508 380.508 0 0 0-25.227 35.211Z" class="coloraa6b3f svgShape"/><path fill="#cec7c2" d="M1019.234 549.583a246.286 246.286 0 0 0 .853 33.19 290.52 290.52 0 0 0 11.35 57.453c20.44 67.907 58.92 115.149 58.92 115.149 32.064-25.586 49.758-52.97 58.018-79.874a136.482 136.482 0 0 0 5.857-35.221 148.55 148.55 0 0 0-.362-16.44c-1.444-19.016-6.366-36.965-12.653-52.899-15.774-39.975-40.165-67.327-40.165-67.327s21.19-200.233-56.412-49.92a227.17 227.17 0 0 0-25.406 95.89Z" class="colorcec7c2 svgShape"/><path fill="#eae6e4" d="M1020.087 582.773a290.52 290.52 0 0 0 11.35 57.453c38.056 45.81 96.52 39.285 116.938 35.275a136.482 136.482 0 0 0 5.857-35.221c-66.961 12.82-114.249-33.07-134.145-57.507Z" class="coloreae6e4 svgShape"/><path fill="#eae6e4" d="M1019.234 549.583c26.634 66.584 97.539 74.785 134.636 74.257-1.444-19.016-6.366-36.965-12.653-52.899-56.154-5.534-99.93-46.568-116.237-64.037a228.73 228.73 0 0 0-5.746 42.68Z" class="coloreae6e4 svgShape"/><circle cx="1071.771" cy="885.755" r="37.928" fill="#1e94af" transform="rotate(-21.274 1071.771 885.755)" class="color1e94af svgShape"/><circle cx="1078.407" cy="877.69" r="22.803" fill="#46b9cc" transform="rotate(-72.671 1078.407 877.69)" class="color46b9cc svgShape"/><circle cx="1081.328" cy="828.802" r="19.343" fill="#cec7c2" transform="rotate(-70.061 1081.329 828.802)" class="colorcec7c2 svgShape"/><circle cx="1084.713" cy="824.689" r="11.629" fill="#eae6e4" transform="rotate(-82.874 1084.713 824.69)" class="coloreae6e4 svgShape"/><circle cx="1090.067" cy="791.063" r="19.343" fill="#f7991e" transform="rotate(-88.812 1090.067 791.063)" class="colorf7991e svgShape"/><path fill="#f4bd21" d="M1082.002 784.912a11.63 11.63 0 1 0 13.487-9.412 11.63 11.63 0 0 0-13.487 9.412Z" class="colorf4bd21 svgShape"/><path fill="#ce8d61" d="M463.682 740.944c-31.122 22.712-63.202 10.285-88.877-17.009l-.02-.003c-49.956-53.065-75.797-162.202-23.735-178.127 26.489-8.107 48.686-3.068 66.483 7.187 35.167 20.251 53.162 60.91 53.162 60.91s84.653 60.142-7.013 127.042Z" class="colorce8d61 svgShape"/><path d="M463.682 740.944c-31.122 22.712-63.202 10.285-88.877-17.009 40.666 18.333 54.796-25.279 54.796-25.279-49.299 25.909-101.1-94.26-79.68-115.103 21.44-20.84 68.641 29.926 68.641 29.926 14.188-25.46 6.611-47.538-1.03-60.487 35.168 20.251 53.163 60.91 53.163 60.91s84.653 60.142-7.013 127.042Z" style="mix-blend-mode:soft-light" opacity=".3" fill="#000000" class="color000 svgShape"/><path fill="#aa6b3f" d="M448.606 708.788a380.446 380.446 0 0 0-11.53-41.752 190.588 190.588 0 0 0-17.25-37.694 129.956 129.956 0 0 0-26.056-31.214c-10.285-9.199-22.492-16.368-35.734-23.341a86.893 86.893 0 0 1 43.232 13.06 98.021 98.021 0 0 1 32.387 33.1 121.524 121.524 0 0 1 15.718 42.994c2.391 14.942 2.722 30.218-.767 44.847Z" class="coloraa6b3f svgShape"/><path fill="#ce8d61" d="M1078.63 497.24s103.904 539.618-223.672 564.626c0 0-643.502 75.336-339.957-620.37L621.945 237.74l459.88 116.71Z" class="colorce8d61 svgShape"/><path d="M854.95 1061.857c56.365-4.311 99.967-23.837 133.493-53.251-79.772 40.128-209.555 65.603-324.833-11.332-181.81-121.36-105.97-469.602 65.341-432.171 139.513 30.457 300.899-10.27 356.008-26.453-3.342-25.907-6.334-41.418-6.334-41.418l3.199-142.782-459.87-116.706-106.959 203.75c-303.547 695.714 339.955 620.363 339.955 620.363Z" style="mix-blend-mode:soft-light" opacity=".3" fill="#000000" class="color000 svgShape"/><path fill="#cec7c2" d="M802.08 610.272c-36.707 12.113-72.773 19.073-100.163 23.022a537.751 537.751 0 0 1-15.676 2.104 106.972 106.972 0 0 1-28.657-.421 50.55 50.55 0 0 1-5.068-.866 97.928 97.928 0 0 1-20.202-6.157 82.152 82.152 0 0 1-6.146-2.75 79.447 79.447 0 0 1 4.978-20.158 85.141 85.141 0 0 1 40.287-45.872 88.308 88.308 0 0 1 8.245-3.882 110.524 110.524 0 0 1 23.002-6.676 84.944 84.944 0 0 1 27.508-.825c51.692 6.957 71.892 62.481 71.892 62.481Z" class="colorcec7c2 svgShape"/><path fill="#eae6e4" d="M652.516 634.11a97.928 97.928 0 0 1-20.202-6.156 157.838 157.838 0 0 1-1.168-22.908 85.141 85.141 0 0 1 40.287-45.872c-11.775 20.565-21.46 47.06-18.917 74.937Z" class="coloreae6e4 svgShape"/><path fill="#eae6e4" d="M730.188 547.791a321.303 321.303 0 0 0-28.271 85.503 537.751 537.751 0 0 1-15.676 2.104 106.972 106.972 0 0 1-28.657-.421c.506-22.66 5.219-52.417 22.094-79.685a110.524 110.524 0 0 1 23.002-6.676 84.944 84.944 0 0 1 27.508-.825Z" class="coloreae6e4 svgShape"/><circle cx="693.576" cy="710.175" r="54.074" transform="rotate(-6.888 693.575 710.175)" style="mix-blend-mode:soft-light" opacity=".45" fill="#000000" class="color000 svgShape"/><circle cx="692.038" cy="723.785" r="35.763" fill="#1b1723" transform="rotate(-38.553 692.038 723.785)" class="color1b1723 svgShape"/><circle cx="709.158" cy="712.893" r="11.223" fill="#ffffff" transform="rotate(-57.007 709.158 712.893)" class="colorfff svgShape"/><path fill="#ffffff" d="M688.838 725.21a5.683 5.683 0 1 0 6.285-5.01 5.683 5.683 0 0 0-6.285 5.01Z" class="colorfff svgShape"/><path fill="#aa6b3f" d="M870.83 946.959c-6.342 5.998-14.272 9.664-22.435 12.013a71.74 71.74 0 0 1-25.467 2.356 66.352 66.352 0 0 1-24.799-6.774 53.075 53.075 0 0 1-19.735-16.146c8.7 1.126 16.117 3.071 23.716 4.06 7.455 1.303 14.778 2.147 22.152 2.737 7.364.63 14.8 1.05 22.46 1.197Z" class="coloraa6b3f svgShape"/><path fill="#cec7c2" d="M919.691 638.602c26.625 16.096 53.672 28.035 74.453 36.053a432.467 432.467 0 0 0 11.92 4.465 86.093 86.093 0 0 0 22.56 4.817 40.664 40.664 0 0 0 4.133.231 78.819 78.819 0 0 0 16.956-1.202 66.08 66.08 0 0 0 5.316-1.053 63.943 63.943 0 0 0-.286-16.71 68.529 68.529 0 0 0-23.37-43.228 71.062 71.062 0 0 0-5.771-4.526 88.958 88.958 0 0 0-16.848-9.37 68.371 68.371 0 0 0-21.434-5.587c-41.807-3.826-67.629 36.11-67.629 36.11Z" class="colorcec7c2 svgShape"/><path fill="#eae6e4" d="M1032.756 684.168a78.819 78.819 0 0 0 16.957-1.202 127.019 127.019 0 0 0 5.03-17.764 68.529 68.529 0 0 0-23.37-43.226c5.546 18.25 8.386 40.777 1.383 62.192Z" class="coloreae6e4 svgShape"/><path fill="#eae6e4" d="M987.32 602.492a258.615 258.615 0 0 1 6.824 72.163 432.467 432.467 0 0 0 11.92 4.465 86.093 86.093 0 0 0 22.56 4.817c3.674-17.87 5.32-42.063-3.022-66.488a88.958 88.958 0 0 0-16.848-9.37 68.371 68.371 0 0 0-21.434-5.587Z" class="coloreae6e4 svgShape"/><circle cx="970.842" cy="736.91" r="48.698" transform="rotate(-5.978 970.842 736.91)" style="mix-blend-mode:soft-light" opacity=".45" fill="#000000" class="color000 svgShape"/><circle cx="969.457" cy="749.167" r="32.207" fill="#1b1723" transform="rotate(-64.111 969.457 749.167)" class="color1b1723 svgShape"/><circle cx="984.875" cy="739.358" r="10.108" fill="#ffffff" class="colorfff svgShape"/><path fill="#ffffff" d="M966.576 750.45a5.118 5.118 0 1 0 5.66-4.51 5.118 5.118 0 0 0-5.66 4.51Z" class="colorfff svgShape"/><path fill="#cec7c2" d="M834.026 843.111c19.286 92.247 103.47 38.116 90.4 101.933-13.05 63.818 71.859 74.274 88.598 53.862 16.758-20.41-7.951-42.474-7.951-42.474 12.327 14.488-13.905 26.264-22.262 13.57-5.54-8.4 5.71-31.47 9.546-58.033 1.982-13.534 2.026-27.978-3.04-41.857-10.063-27.549-35.531-41.812-51.255-48.227a97.145 97.145 0 0 0-13.18-4.442Z" class="colorcec7c2 svgShape"/><path fill="#eae6e4" d="M992.357 911.969c1.982-13.534 2.026-27.978-3.04-41.857-10.063-27.549-35.531-41.812-51.255-48.227-4.96 30.494-12.376 111.712 54.295 90.084Z" class="coloreae6e4 svgShape"/><path fill="#cec7c2" d="M845.527 842.456c-44.799 100.617-127.605 18.003-128.427 94.128-.844 76.123-100.418 67.11-114.502 39.661-14.105-27.451 19.567-46.557 19.567-46.557-17.659 13.508 9.401 33.435 22.08 20.996 8.403-8.227 1.245-37.358 3.419-68.65 1.076-15.948 4.59-32.459 13.805-47.063 18.294-28.986 50.908-38.994 70.454-42.441a113.516 113.516 0 0 1 16.15-1.821Z" class="colorcec7c2 svgShape"/><path fill="#eae6e4" d="M647.664 882.035c1.076-15.95 4.59-32.46 13.805-47.064 18.294-28.986 50.908-38.994 70.454-42.441-1.862 36.06-13.437 130.668-84.26 89.505Z" class="coloreae6e4 svgShape"/><path fill="#cec7c2" d="M595.173 535.626a215.874 215.874 0 0 1-13.855 31.321 269.86 269.86 0 0 1-35.398 50.39c-49.962 56.835-109.546 88.408-109.546 88.408-27.15-36.833-40.212-71.248-39.33-100.109a116.735 116.735 0 0 1 6.886-35.86 130.052 130.052 0 0 1 6.792-15.538c9.043-17.574 21.693-32.784 35.14-45.54 33.737-32.007 63.115-64.807 63.115-64.807s62.566-182.997 94.003-9.56a199.67 199.67 0 0 1 2.099 58.366 195.68 195.68 0 0 1-9.906 42.93Z" class="colorcec7c2 svgShape"/><path fill="#eae6e4" d="M581.318 566.947a269.86 269.86 0 0 1-35.398 50.39c-61.761 28.932-126.825.04-148.876-11.7a116.735 116.735 0 0 1 6.886-35.86c72.445 38.19 144.91 12.76 177.388-2.83Z" class="coloreae6e4 svgShape"/><path fill="#eae6e4" d="M595.173 535.626c-56.61 53.171-141.765 33.5-184.45 18.612 9.042-17.574 21.692-32.784 35.138-45.54 67.069 16.495 133.59-5.665 159.218-16.001a195.68 195.68 0 0 1-9.906 42.93Z" class="coloreae6e4 svgShape"/><circle cx="383.68" cy="821.089" r="37.928" fill="#1e94af" transform="rotate(-30.578 383.68 821.09)" class="color1e94af svgShape"/><circle cx="380.234" cy="811.23" r="22.803" fill="#46b9cc" transform="rotate(-19.055 380.234 811.23)" class="color46b9cc svgShape"/><circle cx="394.358" cy="764.336" r="19.343" fill="#cec7c2" transform="rotate(-3.604 394.358 764.336)" class="colorcec7c2 svgShape"/><path fill="#eae6e4" d="M404.05 761.346a11.63 11.63 0 1 1-9.412-13.487 11.63 11.63 0 0 1 9.412 13.487Z" class="coloreae6e4 svgShape"/><circle cx="399.175" cy="725.899" r="19.343" fill="#f7991e" transform="rotate(-9.093 399.176 725.9)" class="colorf7991e svgShape"/><path fill="#f4bd21" d="M408.867 722.909a11.63 11.63 0 1 1-9.412-13.488 11.63 11.63 0 0 1 9.412 13.488Z" class="colorf4bd21 svgShape"/><path fill="#d18e2c" d="M505.931 447.976c14.826-1.224 32.917-4.744 50.002-8.73a786.322 786.322 0 0 0 22.56-5.663c19.863-5.28 34.604-9.95 34.604-9.95l-9.91-12.428s517.894 85.754 577.37 57.957c16.36-7.649 36.126-20.815 50.743-39.561a101.119 101.119 0 0 0 13.359-22.422c22.252-51.844 1.665-132.782-163.21-243.548-263.37-176.947-627.141-107.33-667.697 41.13-40.556 148.462 92.179 243.215 92.179 243.215Z" class="colord18e2c svgShape"/><path fill="#5b4a24" d="M555.933 439.245a786.322 786.322 0 0 0 22.56-5.662c-33.56-25.923-71.176-75.6-35.128-156.937 57.918-130.682 414.28-145.854 584.283-23.142 160.956 116.17 94.83 182.95 87.316 189.73 3.577-2.898 10.105-7.14 16.336-13.633a101.119 101.119 0 0 0 13.359-22.422c8.366-28.077-3.35-75.734-88.53-157.853-149.942-144.577-553.839-160.98-635.124-15.944-68.1 121.514 8.362 187.617 34.928 205.863Z" class="color5b4a24 svgShape"/><path d="M406.09 256.592c-2.485 118.336 99.841 191.384 99.841 191.384 40.994-3.368 107.166-24.343 107.166-24.343l-9.91-12.428s517.894 85.754 577.37 57.957c38.567-18.018 96.154-66.717 60.155-146.946l-.02-.004c-23.684-8.693-58.01-28.24-105.912-69.76-114.162-98.906-268.511-114.807-426.492-71.276-138.71 38.228-210.945 143.494-302.199 75.416Z" style="mix-blend-mode:soft-light" opacity=".3" fill="#000000" class="color000 svgShape"/><path fill="#f9d7a5" d="M745.919 208.788c98.876-13.88 196.933-.442 288.817 35.441 86.765 33.883 187.514 88.548 189.658 160.214 3.777 126.303-303.095 171.15-628.957 50.345 0 0-125.367-207.278 150.482-246Z" class="colorf9d7a5 svgShape"/><path d="M595.432 454.78c289.254 107.238 563.52 83.95 618.874-10.965-104.96 30.53-274.004 25.39-455.176-30.397-61.983-19.084-101.723-80.604-91.256-144.613a116.23 116.23 0 0 1 18.946-47.583c-197.39 58.317-91.388 233.559-91.388 233.559Z" style="mix-blend-mode:soft-light" opacity=".3" fill="#000000" class="color000 svgShape"/><path fill="#f30005" d="M961.597 214.855c-16.624-27.31-8.15-44.112-2.058-57.985s18.183-2.441 18.183-2.441 6.797-4.568-1.245-22.213-10.852-22.041-6.952-45.616-6.866-31.006 1.004-42.581 19.772-8.4 19.772-8.4S1003.042-.182 1018.085.185s14.987 30.438 14.987 30.438 7.307-36.34 11.151-29.844 4.016 35.715 4.016 35.715 2.93-22.922 12.373-19.49 6.593 8.141 15.23 8.622 14.667-16.143 34.196-2.726-4.292 28.028-5.427 32.284 9.545-2.923 12.13 2.325-3.157 23.773-14.582 30.753-6.813 25.532-.244 21.815 18.37 5.814 10.5 17.39-20.242 31.065-23.234 51.235c0 0 4.688.535 14.49-.891s-17.274 49.284-46.327 61.068-70.159 18.017-95.747-24.023Z" class="colorf30005 svgShape"/><path fill="#c1050e" d="M1092.884 206.59c-9.122 13.08-22.112 26.844-35.539 32.285-29.042 11.783-70.151 18.023-95.738-24.02-16.645-27.304-8.16-44.113-2.073-57.981 6.093-13.888 18.2-2.45 18.2-2.45s6.783-4.555-1.255-22.214c-8.043-17.639-10.85-22.03-6.944-45.61 3.886-23.583-6.885-31.001 1.002-42.589 7.862-11.573 19.764-8.397 19.764-8.397S1003.035-.18 1018.073.19a10.174 10.174 0 0 1 6.525 2.536 23.035 23.035 0 0 0-3.24 3.825c-7.88 11.569 2.885 19.005-1 42.59-3.9 23.559-1.1 27.97 6.943 45.61 8.043 17.639 1.254 22.213 1.254 22.213s-12.106-11.438-18.194 2.43c-6.092 13.888-14.572 30.678 2.068 58.001 21.354 35.072 53.519 36.537 80.455 29.195Z" class="colorc1050e svgShape"/><ellipse cx="842.799" cy="800.929" fill="#eaae86" rx="46.162" ry="101.454" transform="rotate(-85.028 842.8 800.93)" class="coloreaae86 svgShape"/><path fill="#aa6b3f" d="M741.907 790.632c.46 10.48 7.199 18.05 14.915 23.473 7.681 5.627 16.59 9.59 25.642 12.937 18.235 6.596 37.618 9.976 57.034 11.81 19.443 1.517 39.117 1.554 58.213-1.802 9.492-1.73 18.949-4.098 27.483-8.31 8.537-4.003 16.475-10.293 18.75-20.532a23.937 23.937 0 0 1-3.468 15.338 44.024 44.024 0 0 1-11.041 11.914c-8.686 6.506-18.627 10.862-28.774 13.869-10.142 3.184-20.632 4.688-31.095 5.77a205.984 205.984 0 0 1-31.47-.13c-20.86-1.935-41.632-6.884-60.64-16.387-9.475-4.71-18.51-10.72-25.942-18.62a43.945 43.945 0 0 1-8.825-13.63 23.93 23.93 0 0 1-.782-15.7Z" class="coloraa6b3f svgShape"/><path fill="#c1945d" d="M1133.96 292.763c13.026 15.003 22.364 33.125 28.671 52.231a144.868 144.868 0 0 1 1.584 90.313 145.784 145.784 0 0 1-12.408 27.925 144.327 144.327 0 0 1-40.403 43.949c12.076-15.693 22.663-31.854 30.594-49.035a165.733 165.733 0 0 0 14.012-54.121c1.603-18.62-.148-37.522-4.006-56.165a284.532 284.532 0 0 0-18.045-55.097ZM1054.165 250.825c11.507 22.21 18.056 46.897 21.34 71.889a245.582 245.582 0 0 1-2.184 75.788 258.065 258.065 0 0 1-10.397 36.72 232.52 232.52 0 0 1-16.557 34.29 212.885 212.885 0 0 1-49.285 56.619c15.294-19.702 28.831-40.154 39.569-61.883a278.06 278.06 0 0 0 22.774-68.423 315.186 315.186 0 0 0 5.112-72.177 377.891 377.891 0 0 0-10.372-72.823ZM967.859 222.753c-9.933 24.237-17.9 48.877-25.111 73.695-1.831 6.193-3.484 12.434-5.119 18.68-1.68 6.23-3.357 12.455-4.7 18.772-1.356 6.308-3.192 12.495-4.414 18.832l-3.903 18.946c-1.294 6.315-2.354 12.68-3.545 19.02l-1.74 9.52-1.392 9.579-3.02 19.142c-.693 6.421-1.511 12.833-2.381 19.25q-1.368 9.621-2.224 19.301l-2.017 19.375c-1.378 12.939-1.976 25.932-3.621 39-1.5-12.995-2.765-26.083-3.33-39.195-.103-13.098-.778-26.28.18-39.389.674-26.32 4.578-52.435 9.208-78.35a499.126 499.126 0 0 1 21.57-75.949c9.313-24.581 20.427-48.713 35.559-70.229ZM858.074 203.216a356.636 356.636 0 0 0-51.128 67.787c-13.952 24.343-24.655 50.378-30.285 77.518a228.404 228.404 0 0 0-1.64 82.77c4.748 27.554 13.958 54.486 25.79 80.715a225.94 225.94 0 0 1-36.621-78.525 212.087 212.087 0 0 1-5.552-43.765 223.894 223.894 0 0 1 4.169-44.08 229.434 229.434 0 0 1 34.814-80.482c16.466-24.072 36.64-45.648 60.453-61.938ZM728.145 212.455a259.814 259.814 0 0 0-47.606 60.48c-12.352 22.145-20.76 46.27-23.223 71.141a159.76 159.76 0 0 0-.077 37.45 77.37 77.37 0 0 0 1.146 9.355c.531 3.102.898 6.24 1.56 9.326 1.532 6.125 2.63 12.38 4.58 18.44 7.076 24.453 17.953 48.007 30.46 71.06a220.275 220.275 0 0 1-40.946-67.575 165.658 165.658 0 0 1-1.41-119.116 175.404 175.404 0 0 1 18.533-35.846c15.013-22.166 34.312-41.36 56.983-54.715Z" class="colorc1945d svgShape"/><ellipse cx="962.386" cy="337.93" fill="#ffffff" rx="82.494" ry="227.57" transform="rotate(-76.272 962.386 337.93)" style="mix-blend-mode:soft-light" opacity=".56" class="colorfff svgShape"/></g></svg>