<svg xmlns="http://www.w3.org/2000/svg" viewBox="0 0 2800 1900"><g data-name="Layer 1" fill="#000000" class="color000 svgShape"><ellipse cx="1363.057" cy="1539.849" opacity=".15" rx="1114.85" ry="204.84" fill="#000000" class="color000 svgShape"/><path fill="#eae4d8" d="m850.137 1419.391 6.969 144.506-76.346 3.656-15.111-11.155-5.41-132.686 16.978-.829 72.92-3.492z" class="coloreae4d8 svgShape"/><path d="m850.137 1419.391 6.969 144.506-76.346 3.656-3.543-144.67 72.92-3.492z" style="mix-blend-mode:soft-light" opacity=".65" fill="#000000" class="color000 svgShape"/><path fill="#eae4d8" d="m1790.871 1410.098 6.969 144.506-76.346 3.657-15.111-11.156-5.41-132.686 16.978-.828 72.92-3.493z" class="coloreae4d8 svgShape"/><path d="m1790.871 1410.098 6.969 144.506-76.346 3.657-3.543-144.67 72.92-3.493z" style="mix-blend-mode:soft-light" opacity=".65" fill="#000000" class="color000 svgShape"/><path fill="#eae4d8" d="m1196.242 1388.906 12.668 301.181-76.569 2.75-15.754-26.867-11.019-285.525 17.118 1.557 73.556 6.904z" class="coloreae4d8 svgShape"/><path d="m1196.242 1388.906 12.668 301.181-76.569 2.75-9.655-310.835 73.556 6.904z" style="mix-blend-mode:soft-light" opacity=".65" fill="#000000" class="color000 svgShape"/><path fill="#eae4d8" d="m2055.1 1662.281-76.376 6.597-16.326-26.535-17.357-285.225 17.134 1.216 73.7 5.234 19.225 298.713z" class="coloreae4d8 svgShape"/><path d="m2055.377 1662.269-.277.012-76.376 6.597-16.549-310.544 73.7 5.234 19.502 298.701z" style="mix-blend-mode:soft-light" opacity=".65" fill="#000000" class="color000 svgShape"/><path fill="#eae4d8" d="M2472.37 913.82c-82.425 133.8-286.162 365.644-575.66 595.11-565.056-147.993-1331.615-59.426-1347.737-62.227a1.474 1.474 0 0 1-.252-.112l-152.427-94.896-2.603-61.435-1.786-42.137c308.787-144.625 1090.195-41.382 1240.539-81.547 94.018-30.501 223.718-159.089 356.869-348.135 57.804-2.45 419.913 29.262 419.913 29.262s12.736 6.583 33.192 28.719a361.97 361.97 0 0 1 29.953 37.398Z" class="coloreae4d8 svgShape"/><path d="M2442.418 876.422c-74.93 120.038-332.48 439.082-553.483 544.341-105.387-170.891-256.491-254.187-256.491-254.187 94.018-30.501 223.718-159.089 356.869-348.135 57.804-2.45 419.913 29.262 419.913 29.262s12.736 6.583 33.192 28.719Z" style="mix-blend-mode:soft-light" opacity=".65" fill="#000000" class="color000 svgShape"/><path fill="#eae4d8" d="m544.384 1344.218 4.338 102.372-152.428-94.895-2.603-61.435-1.785-42.137Z" class="coloreae4d8 svgShape"/><path fill="#d3ccbe" d="M2472.37 913.82c-82.425 133.8-286.162 365.644-575.66 595.11-565.056-147.993-1331.615-59.426-1347.737-62.227a1.474 1.474 0 0 1-.252-.112l-4.337-102.373s809.795-90.615 1344.551 76.545c281.188-198.525 520.291-573.06 520.291-573.06s25.914 13.394 63.145 66.117Z" class="colord3ccbe svgShape"/><path d="M2472.37 913.82c-82.425 133.8-286.162 365.644-575.66 595.11 2.672-32.275-7.775-88.167-7.775-88.167 281.188-198.525 520.291-573.06 520.291-573.06s25.914 13.394 63.145 66.117Z" style="mix-blend-mode:soft-light" opacity=".65" fill="#000000" class="color000 svgShape"/><path fill="#666665" d="M1984.445 510.637S1801.288 672.99 1821.622 786.53s335.973 237.859 391.117 212.185 117.54-252.876 96.45-310.746-324.744-177.33-324.744-177.33Z" class="color666665 svgShape"/><path d="M1984.445 510.637S1801.288 672.99 1821.622 786.53s335.973 237.859 391.117 212.185 117.54-252.876 96.45-310.746-324.744-177.33-324.744-177.33Z" style="mix-blend-mode:soft-light" fill="#666665" opacity=".8" class="color666665 svgShape"/><path d="M1984.445 510.637S1801.288 672.99 1821.622 786.53s335.973 237.859 391.117 212.185 117.54-252.876 96.45-310.746-324.744-177.33-324.744-177.33Z" style="mix-blend-mode:soft-light" fill="#666665" opacity=".8" class="color666665 svgShape"/><g style="mix-blend-mode:soft-light" opacity=".8" fill="#000000" class="color000 svgShape"><path d="M1984.445 510.637S1801.288 672.99 1821.622 786.53s335.973 237.859 391.117 212.185 117.54-252.876 96.45-310.746-324.744-177.33-324.744-177.33Z" fill="#000000" class="color000 svgShape"/><path d="M1984.445 510.637S1801.288 672.99 1821.622 786.53s335.973 237.859 391.117 212.185 117.54-252.876 96.45-310.746-324.744-177.33-324.744-177.33Z" style="mix-blend-mode:soft-light" opacity=".8" fill="#000000" class="color000 svgShape"/><path d="M1984.445 510.637S1801.288 672.99 1821.622 786.53s335.973 237.859 391.117 212.185 117.54-252.876 96.45-310.746-324.744-177.33-324.744-177.33Z" style="mix-blend-mode:soft-light" opacity=".8" fill="#000000" class="color000 svgShape"/></g><path fill="#d39363" d="M1823.1 461.13c27.005-62.931 136.943-38.273 209.748-13.682 38.49 12.999 66.581 25.951 66.581 25.951s-8.806-30.581 25.738-21.331l.744-5.394s24.281 1.327 35.634 20.715l-5.39 36.425-41.84 15.772-127.233 18.998-65.088 9.691s3.298 14.583 7.199 36.24c2.689 15.152 5.698 33.753 8.034 53.25 2.852 23.223 4.75 47.7 4.132 69.054-1.858 64.926-54.278 171.532-114.58 122.557 0 0-8.862-53.579-15.101-121.594-3.503-38.063-6.159-80.671-6.019-120.934.19-49.879 4.717-96.128 17.441-125.717Z" class="colord39363 svgShape"/><path fill="#bc7b64" d="M2125.186 452.083a18.929 18.929 0 0 1 10.202 2.656 18.649 18.649 0 0 1 4.227 3.28 10.186 10.186 0 0 1 2.734 4.738c-3.242-1.718-5.95-3.088-8.846-4.727a41.746 41.746 0 0 1-8.317-5.947Z" class="colorbc7b64 svgShape"/><path fill="#bc7b64" d="M2137.331 467.473a4.356 4.356 0 0 1 .36-3.507 6.802 6.802 0 0 1 2.355-2.558 6.51 6.51 0 0 1 6.566-.35 14.438 14.438 0 0 1-2.4 2.1c-.736.578-1.468.992-2.144 1.458-1.416.893-2.691 1.547-4.737 2.857Z" class="colorbc7b64 svgShape"/><path fill="#e8be0f" d="M2032.848 447.448c38.49 12.999 66.581 25.951 66.581 25.951 22.766 33.116 14.886 46.187 14.886 46.187l-127.234 18.998c-10.936-33.89 29.46-75.933 45.767-91.136ZM1805.66 586.848c52.556 18.826 108.488 2.723 123.533-2.332 2.689 15.151 5.698 33.752 8.034 53.248-45.864 53.662-98.432 66.897-125.55 70.018-3.502-38.063-6.158-80.671-6.018-120.934Z" class="colore8be0f svgShape"/><path d="m2114.327 519.598 41.848-15.776 5.395-36.438c-11.358-19.356-35.698-20.712-35.698-20.712l-.686 5.41a41.168 41.168 0 0 0-13.16-1.678c6.961 10.108 17.69 28.847 7.952 28.177-8.11-.52-16.226-7.576-21.561-13.321a31 31 0 0 0 1.009 8.136s-225.698-104.127-273.591-17.78c74.522 51.701 58.168 257.988 48.462 339.582-2.41 20.255-17.133 36.305-37.551 40.901 56.04 30.552 102.861-67.938 104.602-129.276 1.83-64.94-19.354-158.524-19.354-158.524s-65.588-40.905-49.488-70.883c16.121-30.005 243.322-12.458 241.821 42.182Z" style="mix-blend-mode:soft-light" opacity=".25" fill="#000000" class="color000 svgShape"/><path fill="#d39363" d="M2486.128 834.266c53.736-53.207-12.052-157.557-63.988-223.359-27.454-34.788-51.003-58.793-51.003-58.793s34.25-3.075 12.058-35.263l5.189-2.929s-10.357-24.694-34.214-28.737l-34.903 20.159-.449 49.767 27.977 139.767 14.34 71.488s-15.999 2.403-39.389 7.008c-16.348 3.262-36.31 7.572-56.93 12.938-24.587 6.319-50.09 14.132-71.494 23.308-65.089 27.883-164.149 127.007-92.15 170.074 0 0 68.083-14.267 139.307-34.973 39.862-11.575 84.016-25.847 124.755-42.086 50.464-20.135 95.64-43.324 120.894-68.369Z" class="colord39363 svgShape"/><path fill="#bc7b64" d="M2383.173 516.837a44.861 44.861 0 0 1-9.117-6.296c-2.733-2.35-5.105-4.608-8.068-7.267a10.82 10.82 0 0 1 5.855 1 19.903 19.903 0 0 1 4.908 3.104 20.304 20.304 0 0 1 6.422 9.46Z" class="colorbc7b64 svgShape"/><path fill="#bc7b64" d="M2363.073 510.372c.532-2.631.723-4.236 1.102-6.077.223-.896.373-1.826.69-2.82a15.887 15.887 0 0 1 1.262-3.308 7.337 7.337 0 0 1 2.118 6.969 7.687 7.687 0 0 1-1.712 3.435 4.896 4.896 0 0 1-3.46 1.801Z" class="colorbc7b64 svgShape"/><path fill="#e8be0f" d="M2422.14 610.907c-27.454-34.788-51.003-58.793-51.003-58.793-42.001-10.413-52.319 2.997-52.319 2.997l27.977 139.767c38.394-2.185 65.996-60.953 75.345-83.971ZM2365.234 902.635c-38.58-47.073-43.025-111.612-43.487-129.262-16.35 3.263-36.311 7.573-56.93 12.938-37.343 69.094-31.241 128.993-24.338 158.41 39.862-11.575 84.016-25.847 124.755-42.086Z" class="colore8be0f svgShape"/><path d="m2318.802 555.104.45-49.779 34.914-20.168c23.826 4.062 34.234 28.805 34.234 28.805l-5.227 2.875a45.466 45.466 0 0 1 6.585 12.999c-12.824-3.19-35.791-6.845-31.499 3.003 3.538 8.217 13.698 13.828 21.5 17.073a32.927 32.927 0 0 1-8.619 2.205s189.266 192.838 119.562 277.104c-80.041-56.749-282.966 42.694-362.028 85.39-19.627 10.6-30.423 32.31-27.501 55.358-51.753-46.003 30.652-134.01 92.149-160.335 65.113-27.859 167.789-43.259 167.789-43.259s65.785 51.785 90.181 23.077c24.415-28.74-77.69-257.747-132.49-234.348Z" style="mix-blend-mode:soft-light" opacity=".25" fill="#000000" class="color000 svgShape"/><path fill="#d39363" d="M1010.146 1243.696c.162 6.41-49.488 4.653-51.89 2.349-2.4-2.304-81.895 11.59-89.783 19.931-7.881 8.363-31.355 35.514-48.366 31.9-16.99-3.619-19.315-37.843-28.769-62.64-9.433-24.801-29.938-47.633-36.31-63.431-6.364-15.778.085-31.9.085-31.9-4.407-4.747-3.575-11.45-3.575-11.45a18.543 18.543 0 0 1 1.905-9.615s.025-11.635 5.912-13.574c0 0 1.642-12.778 11.583-7.498 0 0 6.284-10.903 11.573-.187 0 0 11.116-9.085 17.665-.026 6.548 9.059 2.245 21.539 17.165 39.993 14.893 18.44 32.755 35.177 49.44 43.62 16.708 8.438 73.525 11.12 99.915 11.538a122.281 122.281 0 0 1 20.743 2.079c12.134 24.375 22.65 46.216 22.707 48.91Z" class="colord39363 svgShape"/><path d="M1010.146 1243.696c.162 6.41-49.488 4.653-51.89 2.349-2.4-2.304-81.895 11.59-89.783 19.931-4.763 5.055-15.206 16.975-26.487 24.798 3.936-9.822 1.972-24.78-8.287-45.592-14.254-28.923-35.414-25.938-47.382-21.154-6.074-11.978-13.918-23.252-20.49-33.247.72-4.899 3.579-11.118 13.345-12.29 16.548-1.95 23.056-13.884 21.281-29.84-1.586-14.217-26.827-14.56-46.578-4.75a35.056 35.056 0 0 1 1.238-3.996 8.521 8.521 0 0 1-.79-.963c.267-.032.401-.278.398-.76-.007-1.975-1.543-5.245-3.248-8.306l-.006-.02a10.678 10.678 0 0 1 .07-1.4s-.038-.288-.06-.833c1.74 2.636 4.15 5.282 6.69 4.696 3.292-.761-1.374-8.81-4.715-13.918a26.182 26.182 0 0 1 .252-2.97c2.184 3.908 5.267 8.608 7.595 8.865 3.177.33-1.293-12.833-3.286-18.36a5.44 5.44 0 0 1 1.342-.67 15.922 15.922 0 0 1 1.555-4.87c1.507 6.842 4.403 18.17 7.058 18.055 2.858-.128 1.745-14.302.998-21.528a12.257 12.257 0 0 1 1.972.845 14.57 14.57 0 0 1 1.924-2.52c-1.21 5.182-1.929 12.426 1.708 17.055 4.619 5.858 4.15-9.172 5.64-18.09a11.932 11.932 0 0 1 2.301 3.368 20.62 20.62 0 0 1 2.16-1.486c-1.415 5.035-3.55 14.65-.872 18.986 3.045 4.964 12.514.593 20.286-7.83 1.2 5.095 2.133 11.002 5.407 17.99-1.394 6.822-.97 22.715 20.661 48.594 29.928 35.802 23.343 44.197 48.864 49.628 24.337 5.158 78.609 8.014 69.065-31.303 7.028.3 13.42.465 18.614.546a122.281 122.281 0 0 1 20.743 2.079c12.134 24.375 22.65 46.216 22.707 48.91Z" style="mix-blend-mode:soft-light" opacity=".3" fill="#000000" class="color000 svgShape"/><path fill="#722121" d="M1690.832 1028.81s-204.448-124.737-350.933-117.409-248.21 194.063-248.21 194.063-154.382 51.456-187.726 77.467 63.089 108.209 353.733 82.203 535.18 195.56 604.057-3.299-32.421-258.006-34.536-263.645-49.093-74.735-136.385 30.62Z" class="color722121 svgShape"/><path fill="#925acc" d="M1700.873 1131.474s-200.15-110.082-291.886-108.414c0 0 158.481-48.327 331.93 61.734Z" class="color925acc svgShape"/><path d="M1827.204 998.21c-2.075-5.633-49.103-74.782-136.399 30.6 0 0-142.447-86.879-274.695-111.371-34.514 58.058-108.585 127.859-260.166 99.215-40.741 45.664-64.285 88.837-64.285 88.837s190.01-67.428 285.667-80.772c95.597-13.343 220.135 122.343 220.135 122.343s-91.15 8.896-193.449-26.686c-95.479-33.21-206.496 106.036-394.489 14.352-20.519 7.768-41.987 16.25-60.549 24.432 59.245 42.344 187.756 82.018 448.219-16.485-5.457 4.506-250.737 204.835-496.908 44.122-20.578 29.296 79.883 103.129 357.425 78.34 290.648-26.035 535.158 195.584 604.069-3.321 68.851-198.846-32.44-257.972-34.575-263.605Zm-121.335 169.965s-48.333 86.703-13.343 141.796c0 0-133.434-140.136 48.391-225.177 0 0-53.373 176.784 83.381 213.493 0 0-143.456 40.03-118.43-130.112Z" style="mix-blend-mode:soft-light" opacity=".25" fill="#000000" class="color000 svgShape"/><path fill="#e8be0f" d="M1857.792 1026.764s-130.83 59.524-166.96 2.046c0 0 7.513-9.581 19.324-23.808 30.396-36.52 89.152-103.547 121.098-116.528 33.574-13.63 31.525 72.463 28.557 115.24-.97 13.78-2.019 23.05-2.019 23.05Z" class="colore8be0f svgShape"/><path fill="#925acc" d="M1859.811 1003.713c-33.204 12.873-117.544 40.304-149.655 1.289 30.396-36.52 89.152-103.547 121.098-116.528 33.574-13.63 31.525 72.463 28.557 115.24Z" class="color925acc svgShape"/><path fill="#c14727" d="m1883.881 877.924-195.572 298.628-5.418 8.283-53.482 28.62a78.102 78.102 0 0 1-3.825-7.82c-.088-.175-.158-.384-.246-.558a77.834 77.834 0 0 1-3.853-11.536c-.212-.889-.441-1.83-.584-2.771a8.746 8.746 0 0 1-.141-.768 22.635 22.635 0 0 1-.409-2.684 2.969 2.969 0 0 1-.089-.523 49.978 49.978 0 0 1-.252-2.825 42.162 42.162 0 0 1-.047-4.204c.18-4.047-1.107-8.91-3.006-14.032-1.423-3.885-3.214-7.91-5.057-11.916-.597-1.34-1.194-2.682-1.808-3.989-1.194-2.682-2.352-5.26-3.406-7.786q-1.133-2.849-2.004-5.436c-1.83-5.524-2.42-10.215-.597-13.36 2.76-4.769 9.706-3.15 17.564-.207 9.498 3.496 20.345 8.924 26.69 7.197.365-.123.731-.247 1.062-.387.052-.018.052-.018.07-.053a2.722 2.722 0 0 0 .452-.21 3.1 3.1 0 0 0 1.39-2.097 1.859 1.859 0 0 0 .068-.576 7.52 7.52 0 0 0-.005-1.657 8.249 8.249 0 0 0-.213-1.325 27.756 27.756 0 0 0-.933-2.945 33.935 33.935 0 0 0-1.405-3.31c-6.843-14.108-24.641-34.917-24.641-34.917l12.661-18.752 150.442-222.713 122.549-181.435 39.27-15.078s-16.992 77.561-18.101 79.797c-.226.454-2.317 7.036-5.48 17.266q-.725 2.382-1.555 4.975c-1.59 5.22-3.422 11.103-5.357 17.457-.657 2.113-1.331 4.26-1.987 6.46-.71 2.217-1.383 4.451-2.074 6.72l-2.126 6.914c-2.885 9.41-5.875 19.203-8.76 28.7-.76 2.409-1.451 4.766-2.177 7.105-.122.332-.208.68-.311.978-.57 1.85-1.141 3.7-1.694 5.516-.518 1.659-1.002 3.334-1.486 4.923-.38 1.205-.743 2.461-1.106 3.631-.76 2.41-1.451 4.766-2.16 7.07s-1.417 4.522-2.039 6.652a434.826 434.826 0 0 0-1.883 6.162c-.484 1.589-.933 3.107-1.382 4.539-.588 1.885-1.106 3.63-1.59 5.22-.466 1.553-.898 3.037-1.313 4.311-.277.908-.553 1.729-.76 2.497-1.193 3.98-1.884 6.25-1.884 6.25Z" class="colorc14727 svgShape"/><path d="m1883.846 877.907-195.537 298.645-5.418 8.284 4.04-7.966.018-.035 164.647-323.08-142.036 258.585 136.926-301.006-206.69 368.916-14.212 25.384-.017.035a4.664 4.664 0 0 1-.229-.592 77.834 77.834 0 0 1-3.853-11.536c-.212-.889-.441-1.83-.583-2.771a8.746 8.746 0 0 1-.142-.768 22.635 22.635 0 0 1-.409-2.684 2.969 2.969 0 0 1-.089-.523 49.978 49.978 0 0 1-.252-2.825 42.162 42.162 0 0 1-.047-4.204c.18-4.047-1.107-8.91-3.006-14.032-1.423-3.885-3.214-7.91-5.057-11.915-.597-1.342-1.194-2.683-1.808-3.99-1.194-2.682-2.352-5.26-3.406-7.786q-1.133-2.849-2.004-5.436c-1.83-5.524-2.42-10.214-.597-13.36 2.76-4.769 9.706-3.15 17.564-.207 9.498 3.496 20.345 8.924 26.69 7.197a4.074 4.074 0 0 0 1.097-.37 3.239 3.239 0 0 0 .487-.28 3.1 3.1 0 0 0 1.39-2.097 1.859 1.859 0 0 0 .068-.576 7.52 7.52 0 0 0-.005-1.657c-.053-.418-.142-.854-.213-1.325a27.756 27.756 0 0 0-.933-2.945 44.358 44.358 0 0 0-1.422-3.275l.017-.035 13.627-22.8 174.504-291.975-49.669 38.393-.07.053 122.619-181.488 39.27-15.078s-16.992 77.561-18.101 79.797c-.226.454-2.317 7.036-5.48 17.266q-.725 2.382-1.555 4.975c-1.59 5.22-3.422 11.103-5.357 17.457-.657 2.113-1.331 4.26-1.987 6.46-.71 2.217-1.383 4.451-2.074 6.72l-2.126 6.914c-2.885 9.41-5.875 19.203-8.76 28.7-.76 2.409-1.451 4.766-2.177 7.105-.122.332-.208.68-.311.978-.57 1.85-1.141 3.7-1.694 5.516-.518 1.659-1.002 3.334-1.486 4.923-.398 1.24-.76 2.41-1.106 3.631-.76 2.41-1.451 4.766-2.16 7.07s-1.417 4.522-2.039 6.652a434.826 434.826 0 0 0-1.883 6.162c-.484 1.589-.968 3.09-1.382 4.539-.588 1.885-1.106 3.63-1.59 5.22-.466 1.553-.916 2.985-1.313 4.311-.277.908-.553 1.729-.76 2.497-1.228 3.963-1.919 6.232-1.919 6.232Z" style="mix-blend-mode:soft-light" opacity=".25" fill="#000000" class="color000 svgShape"/><path fill="#e8be0f" d="M1649.401 1129.85c.052-.017.052-.017.07-.052l-.035.07ZM1667.046 1103.34l-15.665 23.574a7.52 7.52 0 0 0-.005-1.657c-.053-.418-.142-.854-.213-1.325a27.756 27.756 0 0 0-.933-2.945 44.358 44.358 0 0 0-1.422-3.275l.017-.035c-6.843-14.108-24.641-34.917-24.641-34.917l12.661-18.752c6 5.895 17.564 17.95 25.607 30.868a80.595 80.595 0 0 1 4.594 8.464ZM1688.309 1176.552l-5.418 8.284-53.482 28.619a78.102 78.102 0 0 1-3.825-7.82l-.017.034a4.664 4.664 0 0 1-.229-.592 77.834 77.834 0 0 1-3.853-11.536c-.212-.889-.441-1.83-.584-2.771a8.746 8.746 0 0 1-.141-.768 22.635 22.635 0 0 1-.409-2.684 2.969 2.969 0 0 1-.089-.523 49.978 49.978 0 0 1-.252-2.825 42.162 42.162 0 0 1-.047-4.204c.18-4.047-1.107-8.91-3.006-14.032-1.423-3.885-3.214-7.91-5.057-11.915-.597-1.342-1.194-2.683-1.808-3.99-1.194-2.682-2.352-5.26-3.406-7.786q-1.133-2.849-2.004-5.436c-1.83-5.524-2.42-10.214-.597-13.36 2.76-4.769 9.706-3.15 17.564-.207-1.86 8.308-3.157 24.254 9.886 35.344 8.48 7.214 7.895 15.85 8.26 21.866.492 7.08 2.229 10.598 21.257 4.195 9.88-3.325 18.454-5.862 25.88-7.575l.017-.035c.453-.123.924-.194 1.36-.283Z" class="colore8be0f svgShape"/><path d="M1869.423 845.268c.07-.426.14-.851.187-1.293-.09.172-.276.617-.546 1.272.122.02.237.001.359.021Z" style="mix-blend-mode:soft-light" opacity=".25" fill="#000000" class="color000 svgShape"/><path fill="#c14727" d="M2006.29 1108.777c.864.715 1.678 1.437 2.593 2.144a33.249 33.249 0 0 1-2.593-2.144Z" class="colorc14727 svgShape"/><path d="M2067.93 1029.517a13.914 13.914 0 0 0 1.57-2.403ZM2035.701 1015.516c-1.252-.667-2.565-1.345-3.883-2.062-.818-.421-1.62-.865-2.46-1.303q3.114 1.692 6.343 3.365ZM2013.331 1003.172c-.35-.22-.718-.418-1.069-.638a157.275 157.275 0 0 1-3.247-1.907c1.092.654 2.228 1.34 3.381 2.004.306.188.629.354.935.541ZM2007.99 1000.022c-.134-.097-.284-.172-.418-.27-.98-.572-1.983-1.162-2.969-1.774a99.792 99.792 0 0 0 3.387 2.044ZM1998.535 994.234l-.853-.515c1.255.805 2.57 1.62 3.9 2.414l-3.047-1.9ZM1970.181 975.348q-4.637-3.254-9.312-6.74s14.198 10.99 36.814 25.11l-.18-.129c-3.025-1.883-6.086-3.86-9.236-5.902a3998.793 3998.793 0 0 1-5.08-3.37q-4.778-3.202-9.69-6.639c-1.111-.769-2.222-1.538-3.316-2.33ZM2036.519 1015.938c5.152 2.707 10.512 5.362 16.004 7.975-.022-.016-.028-.054-.034-.093a480.234 480.234 0 0 1-15.97-7.882Z" style="mix-blend-mode:soft-light" opacity=".25" fill="#000000" class="color000 svgShape"/><path d="M2029.358 1012.15q3.114 1.693 6.343 3.366c-1.252-.667-2.565-1.345-3.883-2.062-.818-.421-1.62-.865-2.46-1.303ZM2009.015 1000.627c1.092.654 2.228 1.34 3.381 2.004l-.134-.097a157.275 157.275 0 0 1-3.247-1.907ZM2007.99 1000.022c.329.203.658.407 1.025.605-.48-.278-.98-.573-1.443-.874-.98-.573-1.983-1.163-2.969-1.775a99.792 99.792 0 0 0 3.387 2.044ZM1951.987 1000.629a51.69 51.69 0 0 0 8.893-26.534 59.274 59.274 0 0 1-8.893 26.534ZM1997.682 993.718c1.255.806 2.57 1.622 3.9 2.415l-3.047-1.9-1.031-.644c-3.026-1.883-6.087-3.86-9.237-5.902a3998.793 3998.793 0 0 1-5.08-3.37q-4.778-3.202-9.69-6.639a193.023 193.023 0 0 1-3.316-2.33q-4.637-3.254-9.312-6.74s14.198 10.99 36.813 25.11Z" style="mix-blend-mode:soft-light" opacity=".25" fill="#000000" class="color000 svgShape"/><path d="M1960.9 968.801c.02.49.04.981.065 1.51-.018-.728-.06-1.234-.065-1.51Z" fill="#000000" class="color000 svgShape"/><path fill="#c14727" d="M2004.231 1107.064c.3.262.63.545.981.8l-.084.116c-.588-.603-.897-.916-.897-.916ZM2006.29 1108.777c.864.715 1.678 1.437 2.593 2.144a33.249 33.249 0 0 1-2.593-2.144Z" class="colorc14727 svgShape"/><path fill="#d39363" d="M2146.318 934.933c2.372-3.142 5.456-6.88 9.251-11.09-3.735 4.21-6.82 7.948-9.25 11.09ZM2246.186 792.486s-72.173 38.013-115.405 116.235a251.143 251.143 0 0 0-26.213 69.74c-.237 1.128-.474 2.196-.593 3.263l-8.361 8.717-95.776 100.165c-4.27-1.068-8.54-2.135-12.691-3.38a10.719 10.719 0 0 1-1.838-.535 227.263 227.263 0 0 1-11.328-3.439.96.96 0 0 1-.533-.177c-3.559-1.127-7.117-2.373-10.616-3.619-.83-.296-1.72-.592-2.55-.948a349.695 349.695 0 0 1-10.971-4.27c-10.497-4.27-20.52-8.954-30.126-13.877-91.27-46.968-140.135-118.667-141.321-120.387l-.06-.06c2.372-28.169 12.75-59.185 25.62-88.066a629.392 629.392 0 0 1 33.565-64.107c13.7-22.832 26.568-46.257 37.48-70.571 22.299-49.34 72.114-84.923 72.114-84.923a179.018 179.018 0 0 1 15.893-3.203c2.076-.356 4.211-.653 6.227-.89a265.171 265.171 0 0 1 28.822-2.016 338.493 338.493 0 0 1 35.582 1.245 1.155 1.155 0 0 0 .475.06c.356.06.711.06.949.119.533.059.77.059.77.059.06 1.542.12 2.965.238 4.448v.533c.059.593.059 1.246.178 1.838a8.867 8.867 0 0 0 .118 1.306c9.489 86.346 149.683 68.732 149.683 68.732 3.795 3.262 7.473 6.642 10.912 10.2a2.003 2.003 0 0 1 .356.357h.06a9.147 9.147 0 0 1 1.007 1.126 13.616 13.616 0 0 1 1.305 1.305 245.753 245.753 0 0 1 3.855 4.151c.237.296.474.534.652.771l.356.357a227.51 227.51 0 0 1 22.713 31.134 280.413 280.413 0 0 1 19.452 38.607Z" class="colord39363 svgShape"/><path d="M1984.922 648.215c-.116-7.66.063-14.929.39-21.6.692-.034 1.356-.089 2.049-.122 1.356-.088 2.72-.126 4.055-.185 2.078-.1 4.115-.142 6.1-.176a190.49 190.49 0 0 1 6.145-.054c.982-.002 1.964-.005 2.925.022a340.94 340.94 0 0 1 19.332.754c.621.003 1.2.066 1.8.099 2.249.157 4.086.327 5.374.457a1.465 1.465 0 0 1 .37.044l.1-.016c.188.048.398.066.557.092.789.08 1.208.116 1.208.116.033 1.495.087 2.96.191 4.417.003.18.028.332.03.513.047.612.073 1.255.148 1.889a10.813 10.813 0 0 0 .152 1.268c9.497 86.337 149.687 68.75 149.687 68.75q5.706 4.865 10.913 10.171a2.546 2.546 0 0 1 .346.384l.029.02c.367.356.734.71 1.051 1.074a14.51 14.51 0 0 1 1.272 1.322c1.33 1.364 2.619 2.786 3.878 4.187q.33.374.662.747c.125.135.221.25.317.363a222.022 222.022 0 0 1 22.703 31.137 286.498 286.498 0 0 1 19.48 38.61c-29.331 10.906-55.47 18.018-78.73 21.954-95.264 16.228-142.017-20.905-164.106-69.826-14.011-30.953-18.151-66.617-18.428-96.41ZM1909.387 666.064c-71.33 111.006-107.276 206.618-121.375 287.377-6.456-8.015-9.871-13.026-10.175-13.469l-.008-.05c2.336-28.17 12.72-59.207 25.595-88.084a612.112 612.112 0 0 1 33.58-64.076c13.657-22.874 26.531-46.269 37.477-70.57 8.894-19.68 22.144-37.189 34.906-51.128ZM1897.177 1048.13a420.007 420.007 0 0 1-55.495-39.893c-8.897-40.176-3.546-77.44-3.261-79.373 5.357 63.42 29.932 99.299 58.756 119.267Z" style="mix-blend-mode:soft-light" opacity=".25" fill="#000000" class="color000 svgShape"/><path d="M2059.438 923.784c20.46-.771 45.071-6.345 71.343-15.063a251.143 251.143 0 0 0-26.213 69.74c-.237 1.128-.474 2.196-.593 3.263l-8.362 8.717-95.775 100.165c-4.27-1.068-8.54-2.135-12.691-3.38a10.719 10.719 0 0 1-1.839-.535 227.263 227.263 0 0 1-11.327-3.439.96.96 0 0 1-.533-.177c-3.559-1.127-7.117-2.373-10.616-3.619-.83-.296-1.72-.592-2.55-.948a349.695 349.695 0 0 1-10.971-4.27 326.977 326.977 0 0 1-30.126-13.877c43.173 18.562 87.413 10.2 87.413 10.2-284.243-92.75-65.471-403.088-61.26-409.018-133.73 366.912 131.832 323.502 136.102 322.79-190.603-55.093-154.13-246.881-125.665-335.837 2.313-7.176 4.626-13.7 6.701-19.452 2.076-.356 4.211-.653 6.227-.89-.355 2.788-.83 5.753-1.245 8.896-2.313 17.198-4.804 39.556-6.05 64.404-1.897 37.6-1.185 80.772 6.88 119.675l.06.06c7.65 37.242 22.06 70.69 47.146 91.624 10.141 8.421 25.323 11.683 43.944 10.971Z" style="mix-blend-mode:soft-light" opacity=".25" fill="#000000" class="color000 svgShape"/><path fill="#e8be0f" d="m2104.548 978.483-8.94 11.982-209.465 280.452-22.249 29.76s-152.256-108.002-86.057-360.705l-.009-.05q12.491-47.651 25.595-88.084a612.112 612.112 0 0 1 33.58-64.076c13.657-22.874 26.532-46.269 37.478-70.57 22.262-49.36 72.093-84.962 72.093-84.962a196.714 196.714 0 0 1 32.267-5.173 318.605 318.605 0 0 1 56.486.59s-106.92 168.19 69.22 350.836Z" class="colore8be0f svgShape"/><path d="M1985.312 626.615c-.18.003-.412.014-.643.025a6.364 6.364 0 0 0 .664-.054c.692-.034 1.356-.089 2.028-.093 1.356-.088 2.72-.126 4.055-.185 2.078-.1 4.114-.142 6.1-.176a190.49 190.49 0 0 1 6.145-.054c.982-.002 1.964-.005 2.925.022a340.94 340.94 0 0 1 19.332.754c.621.004 1.2.066 1.8.099 2.248.157 4.086.327 5.374.457a1.465 1.465 0 0 1 .37.044 3.252 3.252 0 0 1 .657.076c.789.08 1.208.116 1.208.116s-29.504 46.436-31.977 116.98c-14.011-30.953-18.151-66.617-18.428-96.41-.117-7.662.063-14.93.39-21.601ZM1876.117 1284.34l-12.223 16.336s-152.256-108.002-86.057-360.704l-.009-.05q12.491-47.651 25.595-88.084a612.112 612.112 0 0 1 33.58-64.076c13.657-22.874 26.532-46.269 37.478-70.57 8.894-19.68 22.144-37.189 34.906-51.128-71.33 111.006-107.276 206.618-121.376 287.377-32.736 188.05 53.08 295.792 88.106 330.9Z" style="mix-blend-mode:soft-light" opacity=".25" fill="#000000" class="color000 svgShape"/><path d="m2104.548 978.483-8.94 11.982-155.18 207.783c-139.531-2.972-108.324-150.726-107.555-154.314 16.49 138.195 134.307 66.846 136.945 65.234-85.921-.008-117.38-52.546-128.136-100.931-8.897-40.176-3.546-77.44-3.261-79.373 5.357 63.42 29.932 99.299 58.756 119.267a360.748 360.748 0 0 0 21.102 11.795c43.5 19.09 88.319 10.612 88.319 10.612-286.962-93.621-61.2-409.032-61.2-409.032-133.776 366.96 131.79 323.56 136.046 322.853-190.577-55.11-154.128-246.937-125.644-335.871a526.918 526.918 0 0 1 6.66-19.425c-.383.035-.786.1-1.19.164.374-.086.778-.15 1.181-.215 2.089-.36 4.163-.641 6.268-.901 1.269-.152 2.537-.303 3.784-.426a62.525 62.525 0 0 0-3.776.476c-.407 2.78-.841 5.72-1.264 8.89-2.314 17.178-4.799 39.58-6.044 64.394-1.937 37.595-1.172 80.756 6.88 119.697l.03.021c7.685 37.294 22.063 70.696 47.163 91.624 10.146 8.457 25.353 11.707 43.96 11a435.544 435.544 0 0 0 45.096 54.696Z" style="mix-blend-mode:soft-light" opacity=".25" fill="#000000" class="color000 svgShape"/><path fill="#c14727" d="m2104.548 978.483-8.94 11.982-209.465 280.452c-38.705-39.509-117.794-148.354-66.689-343.434l-.008-.05q12.49-47.651 25.594-88.084a612.114 612.114 0 0 1 33.58-64.076c13.658-22.874 26.533-46.27 37.479-70.57 16.248-36.063 47.225-64.764 62.742-77.646a318.605 318.605 0 0 1 56.486.59s-106.92 168.19 69.22 350.836Z" class="colorc14727 svgShape"/><path d="M1985.312 626.615c-.18.003-.412.014-.643.025a6.364 6.364 0 0 0 .664-.054c.692-.034 1.356-.089 2.028-.093 1.356-.088 2.72-.126 4.055-.185 2.078-.1 4.114-.142 6.1-.176a190.49 190.49 0 0 1 6.145-.054c.982-.002 1.964-.005 2.925.022a340.94 340.94 0 0 1 19.332.754c.621.004 1.2.066 1.8.099 2.248.157 4.086.327 5.374.457a1.465 1.465 0 0 1 .37.044 3.252 3.252 0 0 1 .657.076c.789.08 1.208.116 1.208.116s-29.504 46.436-31.977 116.98c-14.011-30.953-18.151-66.617-18.428-96.41-.117-7.662.063-14.93.39-21.601Z" style="mix-blend-mode:soft-light" opacity=".25" fill="#000000" class="color000 svgShape"/><path d="m2104.548 978.483-8.94 11.982-155.18 207.783c-139.531-2.972-108.324-150.726-107.555-154.314 16.49 138.195 134.307 66.846 136.945 65.234-85.921-.008-117.38-52.546-128.136-100.931-8.897-40.176-3.546-77.44-3.261-79.373 5.357 63.42 29.932 99.299 58.756 119.267a360.748 360.748 0 0 0 21.102 11.795c43.5 19.09 88.319 10.612 88.319 10.612-286.962-93.621-61.2-409.032-61.2-409.032-133.776 366.96 131.79 323.56 136.046 322.853-190.577-55.11-154.128-246.937-125.644-335.871 4.051-4.244 8.016-8.06 11.663-11.436-2.314 17.177-4.799 39.579-6.044 64.393-1.937 37.596-1.172 80.756 6.88 119.697l.03.021c7.685 37.294 22.063 70.696 47.163 91.624 10.146 8.457 25.353 11.707 43.96 11a435.544 435.544 0 0 0 45.096 54.696Z" style="mix-blend-mode:soft-light" opacity=".25" fill="#000000" class="color000 svgShape"/><path fill="#e8be0f" d="M2226.706 753.888c-23.155 28.301-88.003 100.234-155.944 111.9-23.706 4.06-47.782.809-70.585-14.178-3.557-2.352-6.92-4.786-10.01-7.29a6.62 6.62 0 0 1-.924-.757c-.526-.38-1.002-.77-1.479-1.16l-.029-.02a127.926 127.926 0 0 1-4.128-3.656l-.03-.022c-.58-.553-1.151-1.056-1.68-1.618a1.109 1.109 0 0 1-.272-.24.035.035 0 0 0-.008-.051 5.57 5.57 0 0 1-.822-.773 7.333 7.333 0 0 1-.676-.667c-.154-.157-.28-.292-.405-.427l-.029-.021a9.746 9.746 0 0 1-1.03-1.102l-.029-.021c-1.013-1.001-1.956-2.04-2.847-3.086a.458.458 0 0 1-.155-.156l-.663-.747c-.412-.477-.854-.975-1.245-1.481a.514.514 0 0 1-.134-.186 10.346 10.346 0 0 1-.67-.797 3.004 3.004 0 0 1-.354-.435c-.65-.826-1.33-1.674-1.928-2.509-.008-.05-.008-.05-.03-.021a32.124 32.124 0 0 1-1.627-2.247 7.068 7.068 0 0 1-.474-.7.48.48 0 0 1-.17-.257 3.558 3.558 0 0 1-.578-.864l-.03-.021c-.42-.528-.74-1.07-1.11-1.606q-1.136-1.757-2.119-3.539a19.62 19.62 0 0 1-.997-1.702s-.008-.05-.029-.02a2.867 2.867 0 0 1-.299-.574c-.029-.02-.037-.071-.066-.092a13.424 13.424 0 0 0-.573-.994c-.137-.366-.344-.695-.502-1.032a19.464 19.464 0 0 1-.874-1.747q-1.537-3.05-2.77-6.15c-.083-.193-.166-.386-.22-.559a.126.126 0 0 1-.037-.072 4.717 4.717 0 0 1-.227-.61 24.336 24.336 0 0 1-.437-1.119l-.682-1.83c-.788-2.174-1.446-4.344-2.062-6.573a1.282 1.282 0 0 1-.14-.546l-.007-.05c-.009-.051-.009-.051-.03-.022l-.008-.05a8.682 8.682 0 0 1-.316-1.165c-.176-.618-.332-1.265-.487-1.913q-.848-3.354-1.394-6.758a4.114 4.114 0 0 1-.089-.554 22.683 22.683 0 0 0-.016-.1 9.86 9.86 0 0 1-.194-1.21c-.126-.627-.202-1.261-.307-1.917.021-.029-.008-.05-.016-.1a107.561 107.561 0 0 1-.733-6.993c-.033-.202-.036-.383-.068-.584.02-.03-.008-.05-.016-.1a1.174 1.174 0 0 0-.043-.433 27.178 27.178 0 0 0-.062-1.516c-.03-.823-.087-1.667-.123-2.54-.054-1.465-.058-2.939-.061-4.412-.006-.36-.012-.722.01-1.062a.382.382 0 0 1 .01-.26c-.024-1.444.01-2.846.073-4.226.05-1.3.1-2.602.18-3.881l.02-.03c2.835-44.254 25.493-90.652 46.616-125.505a327.969 327.969 0 0 1 35.576 1.278 6.821 6.821 0 0 1 3.564-1.476 12.573 12.573 0 0 1 1.378-.118c.238.04.498.05.738.089l.029.021c.348.074.667.126.993.229a2.822 2.822 0 0 1 .88.324.728.728 0 0 1 .385.145 4.297 4.297 0 0 1 1.086 6.936 7.335 7.335 0 0 1-6.297 2.173c9.497 86.337 149.687 68.75 149.687 68.75q5.706 4.865 10.913 10.171a8.923 8.923 0 0 1 4.31.757c.196.098.364.174.56.272 2.895 1.604 3.943 4.591 2.685 7.068a222.022 222.022 0 0 1 22.702 31.137Z" class="colore8be0f svgShape"/><path d="M1968.3 821.142a3.347 3.347 0 0 1-.55-.843l-.028-.021c-.421-.528-.741-1.07-1.111-1.606q-1.136-1.757-2.119-3.539a19.62 19.62 0 0 1-.997-1.702l-.029-.02a2.867 2.867 0 0 1-.299-.574c-.029-.02-.037-.071-.066-.092a13.424 13.424 0 0 0-.573-.994c-.137-.366-.344-.695-.502-1.032a19.464 19.464 0 0 1-.874-1.747q-1.537-3.05-2.77-6.15c-.083-.193-.166-.386-.22-.559a.126.126 0 0 1-.037-.072 4.717 4.717 0 0 1-.227-.61 24.336 24.336 0 0 1-.437-1.119l-.682-1.83c-.788-2.175-1.446-4.344-2.062-6.573a1.282 1.282 0 0 1-.14-.546l-.007-.05-.03-.022-.008-.05a8.682 8.682 0 0 1-.316-1.165c-.176-.618-.332-1.265-.487-1.913q-.848-3.354-1.394-6.758a4.114 4.114 0 0 1-.089-.554 22.683 22.683 0 0 0-.016-.1 9.86 9.86 0 0 1-.194-1.21c-.126-.627-.202-1.261-.307-1.917.021-.029-.008-.05-.016-.1a107.561 107.561 0 0 1-.733-6.993c-.033-.202-.036-.383-.068-.584.02-.03-.008-.05-.016-.1a1.174 1.174 0 0 0-.043-.433 27.178 27.178 0 0 0-.062-1.516c-.03-.823-.087-1.667-.123-2.54-.054-1.465-.058-2.939-.061-4.412-.006-.36-.012-.722.01-1.062a.382.382 0 0 1 .01-.26c-.024-1.444.01-2.846.073-4.226.05-1.3.1-2.602.18-3.881l.02-.03c1.052-16.664 4.952-33.63 10.519-50.192-1.937 37.595-1.172 80.756 6.88 119.697ZM2226.706 753.888a477.118 477.118 0 0 1-59.25 60.564c-95.264 16.228-142.017-20.905-164.106-69.826-14.011-30.953-18.151-66.618-18.428-96.41a455.696 455.696 0 0 1 12.594-22.084 190.49 190.49 0 0 1 6.145-.054c.982-.002 1.964-.005 2.925.022a340.94 340.94 0 0 1 19.332.754c.621.003 1.2.066 1.8.099 2.249.157 4.086.327 5.374.457a6.821 6.821 0 0 1 3.564-1.476 12.573 12.573 0 0 1 1.378-.118c.238.04.498.05.738.089l.029.021c.348.074.667.126.993.229a2.822 2.822 0 0 1 .88.324.728.728 0 0 1 .385.145 4.297 4.297 0 0 1 1.086 6.936 7.335 7.335 0 0 1-6.297 2.173c9.497 86.337 149.687 68.75 149.687 68.75q5.706 4.865 10.913 10.171a8.923 8.923 0 0 1 4.31.757c.196.098.364.174.56.272 2.895 1.604 3.943 4.591 2.685 7.068a222.022 222.022 0 0 1 22.702 31.137Z" style="mix-blend-mode:soft-light" opacity=".25" fill="#000000" class="color000 svgShape"/><path fill="#bcaa93" d="M2020.267 844.613c-.174 0-.349 0-.53-.009-2.401-.021-4.742-.064-6.971-.238l-4.712-.523a4.178 4.178 0 0 1-.743-.11l-.495-.094c-.134-.14-.575-.047-.93-.12a68.763 68.763 0 0 1-7.403-1.65c-.85-.217-1.681-.46-2.545-.715l-2.55-.877a74.868 74.868 0 0 1-2.815-1.042c-1.753-.715-3.493-1.468-5.227-2.362a20.186 20.186 0 0 1-1.93-.982c.007.055-.227-.098-.463-.235a.923.923 0 0 1-.096-.042l-.121-.06a.905.905 0 0 1-.073-.042l-.402-.23a8.517 8.517 0 0 1-.876-.472c-.709-.404-1.283-.732-1.838-1.085l-1.368-.86a68.328 68.328 0 0 1-2.309-1.493l-4.214-3.008.023-.034a3.544 3.544 0 0 1-.336-.315 34.751 34.751 0 0 1-3.204-2.693 14.33 14.33 0 0 1-1.012-.924 3.53 3.53 0 0 1-.215-.196l-.77.132-.22-1.11a3.915 3.915 0 0 1-.623-.668l-1.206-1.204a54.865 54.865 0 0 1-3.785-4.727 22.575 22.575 0 0 1-.967-1.345 17.141 17.141 0 0 1-.445-.65l-.251-.388c-.27-.4-.523-.774-.755-1.183a36.619 36.619 0 0 1-1.14-1.97 48.789 48.789 0 0 1-3.054-6.616 5.264 5.264 0 0 1-.278-.664l-.096-.315a2.241 2.241 0 0 1-.117-.425l-.362-.983a20.8 20.8 0 0 1-.661-2.208 51.12 51.12 0 0 1-1.496-7.055.677.677 0 0 1-.061-.23l-.09-.183.02-.276-.016-.064a7.302 7.302 0 0 1-.123-1.23 17.077 17.077 0 0 1-.236-1.85 65.084 65.084 0 0 1-.247-7.472l.007-.357-.103-.592.103-.149c.004-.161.012-.319.019-.472.042-.983.07-1.66.125-2.314l.021-.252c.147-2.365.405-4.642.775-7.207.008-.06.019-.124.03-.187l-.168-.49.353-.54.098-.6c.106-.65.214-1.298.342-1.978.46-2.387.987-4.804 1.621-7.242l.562-2.06c.13-.557.321-1.212.515-1.863.642-2.153 1.327-4.31 2.074-6.497l-.298-.23.768-1.123c.123-.37.266-.728.408-1.085l.69-1.88a144.84 144.84 0 0 1 2.725-6.817c.11-.277.174-.443.238-.579l.256-.485a4.646 4.646 0 0 1 .425-.978 10.334 10.334 0 0 1 .48-1.14l.237-.57c.996-2.239 2.046-4.439 3.123-6.668l1.002-2.008c.342-.681.636-1.268.957-1.834a150.637 150.637 0 0 1 3.408-6.433l1.934-3.472c1.2-2.094 2.417-4.213 3.668-6.306.028-.043.053-.085.076-.123l-.008-.047 1.036-1.668c.357-.557.672-1.047.953-1.553a528.315 528.315 0 0 1 3.946-6.267l.054-.107-.003-.017.5-.706c.264-.379.437-.668.61-.957.44-.617.773-1.132 1.086-1.626 1.37-2.08 2.734-4.093 4.1-6.101l2.444-3.502c1.264-1.804 2.587-3.634 3.893-5.442l1.742.409-1.338-.966.317-.43c.4-.562.68-.944.992-1.31a11.821 11.821 0 0 1 .689-.975l.334-.442c1.446-2.004 2.934-3.936 4.418-5.863l2.49-3.251c1.444-1.88 2.929-3.749 4.393-5.587a6.005 6.005 0 0 1 .655-.795l2.008-2.506q2.31-2.923 4.642-5.672l1.672.557-1.344-.961.798-.958c.631-.761 1.046-1.267 1.489-1.744a357.995 357.995 0 0 1 4.731-5.561l1.615.634-1.309-1.009 1.056-1.195c.368-.451.806-.932 1.246-1.413a440.58 440.58 0 0 1 3.023-3.455l1.802-2.046 1.68.6-1.344-.962.458-.464c.264-.319.512-.608.744-.876.447-.485.843-.915 1.21-1.37l1.599.727-1.292-1.025 5.448-5.918.028.02.662-.301.157.94 1.751 1.366-.821.898-.015.012-4.672 5.085a3.04 3.04 0 0 1-.523.523 14.105 14.105 0 0 1-1.053 1.226c-.264.306-.57.66-.909.991l-.22.264a5.861 5.861 0 0 1-.486.523l-1.727 1.974c-.994 1.128-2.013 2.281-3.036 3.468a27.57 27.57 0 0 0-1.196 1.353l-1.244 1.417a486.722 486.722 0 0 0-4.887 5.757c-.451.489-.815.936-1.18 1.387l-1.194 1.425a240.19 240.19 0 0 0-4.785 5.855l-2.514 3.106a503.342 503.342 0 0 0-4.53 5.76l-2.435 3.183c-1.492 1.936-2.958 3.843-4.387 5.817l-.37.498c-.232.306-.473.62-.675.94-.391.485-.617.8-.846 1.115l-.84 1.161c-1.298 1.796-2.611 3.608-3.879 5.42l-2.43 3.481c-1.331 1.962-2.686 3.957-4.033 6a32.85 32.85 0 0 1-1.104 1.65c-.115.2-.262.443-.43.698l.117.936-.86.179c-1.263 1.987-2.557 4.016-3.84 6.093a27.549 27.549 0 0 1-1 1.63l-.372.62.018.116-.794 1.17a500.996 500.996 0 0 0-3.557 6.127l-1.77 3.127c-1.32 2.425-2.461 4.553-3.525 6.693-.336.595-.602 1.131-.868 1.663l-.894 1.796c.054-.094.01.008-.074.149a262.63 262.63 0 0 0-2.591 5.467l.032.026-.58 1.272a15.92 15.92 0 0 0-.705 1.587c-.256.54-.432.89-.581 1.26l-.321.582c-.962 2.425-1.858 4.642-2.679 6.867l-.676 1.856c-.024.06-.047.114-.07.174l.323.247-.926 1.298a262.43 262.43 0 0 0-2.225 7.041 35.17 35.17 0 0 0-.5 1.813l-.3 1.034.064.383-.31.578a113.943 113.943 0 0 0-1.573 7.034 85.343 85.343 0 0 0-.327 1.897l-.151.924.225 1.361-.476.094a100.512 100.512 0 0 0-.664 6.152l.206.523-.249.375c-.032.476-.049.961-.068 1.447-.03.582-.044.838-.038 1.08l.102.587-.113.14h.009a62.043 62.043 0 0 0 .234 7.12c.053.637.13 1.28.23 1.897a5.953 5.953 0 0 0 .093.915l.236.472-.13.221a54.652 54.652 0 0 0 1.48 6.842 17.652 17.652 0 0 0 .58 1.944l.555 1.685c.058.14.12.31.196.46a47.864 47.864 0 0 0 2.946 6.386c.34.651.71 1.26 1.077 1.864.164.28.323.527.483.766l.657.987c.475.689.749 1.093 1.077 1.506a52.628 52.628 0 0 0 3.565 4.463l2.547 2.579c.1.106.204.208.31.302.377.366.65.604.947.86a41.11 41.11 0 0 0 3.238 2.735l.727.583a6.04 6.04 0 0 0 .502.362l1.543.919-.11.153 1.47 1.021c.748.494 1.46.97 2.193 1.413l1.436.906c.514.328 1.042.625 1.57.927.272.158.478.281.661.38l.15-.014 1.37.8a17.762 17.762 0 0 0 1.703.864 61.09 61.09 0 0 0 5.023 2.268c.896.349 1.783.689 2.691 1l2.69.91c.718.213 1.423.413 2.165.604a65.599 65.599 0 0 0 7.152 1.596c.334.068.615.102.9.136l5.634.664c2.131.166 4.344.23 6.775.23a9.789 9.789 0 0 0 1.122-.005h.52c-.2-.017-.042-.012.035-.004.56-.021 1.13-.038 1.67-.072 1.004-.047 1.783-.077 2.555-.158a89.142 89.142 0 0 0 7.852-.923 5.446 5.446 0 0 1 1.017-.153 2.918 2.918 0 0 1 .585-.132l1.717-.323c.917-.175 1.768-.337 2.638-.524 2.357-.532 4.71-1.17 7.084-1.83l1.055-.323a5.097 5.097 0 0 0 .568-.17l4.236-1.361c2.35-.813 4.676-1.647 7.033-2.583.224-.085.415-.175.609-.26l1.39-.565c.443-.18.937-.388 1.45-.618.791-.34 1.557-.668 2.344-1.02 2.219-1 4.482-2.052 6.708-3.175l1.26 1.226-.788-1.451 1.44-.736c.451-.217.92-.464 1.343-.702.67-.32 1.248-.613 1.793-.915l.013-.021.402-.234a204.901 204.901 0 0 0 6.595-3.672l.97-.566c.394-.234.732-.434 1.087-.617a10.381 10.381 0 0 1 1.249-.762l2.085-1.315a371.678 371.678 0 0 0 5.865-3.735 4.264 4.264 0 0 1 .434-.298l.345-.217 1.283-.817a6.263 6.263 0 0 1 .568-.417c.19-.128.38-.26.557-.4.768-.494 1.34-.876 1.883-1.28 2.146-1.46 4.201-2.945 6.252-4.43.358-.264.5-.362.645-.455l.825-.604c.396-.31.815-.63 1.287-.953l1.683-1.26a687.437 687.437 0 0 0 6.525-5.02 3.07 3.07 0 0 1 .461-.392l.437-.34c.548-.451.927-.745 1.31-1.034l1.787-1.48c2.07-1.639 4.08-3.32 6.084-5.051.198-.162.328-.269.426-.345l1.872-1.608c.406-.37.842-.736 1.29-1.115l.382-.32a311.337 311.337 0 0 0 6.012-5.373l2.043-1.825a46.929 46.929 0 0 1 1.676-1.502l.423-.396c1.894-1.77 3.766-3.523 5.587-5.306.242-.2.347-.31.444-.404l.309-.302c.5-.455.802-.762 1.106-1.072.566-.52 1.036-.987 1.509-1.464a405.265 405.265 0 0 0 5.967-5.842l1.702.613-1.345-.962 2.84-2.902a274.701 274.701 0 0 0 5.725-5.952l.834-.847c.39-.42.613-.655.821-.902l.983-1.153.083.06.4-.43a417.1 417.1 0 0 0 5.602-6.076l.127-.132-.008-.047.966-.982c.178-.183.338-.35.493-.536l6.857-7.685a5.716 5.716 0 0 1 .561-.634 14.785 14.785 0 0 1 1.058-1.212l1.234-1.49a454.075 454.075 0 0 0 5.263-6.16l.795-.92c.258-.344.534-.676.813-1.008.528-.6.921-1.089 1.313-1.578l4.997-6.144c.079-.085.147-.166.209-.247l-.037-.294.773-.574 1.561 1.25 1.062-.131.11.89-.744.667a2.13 2.13 0 0 1-.451.617l-4.785 5.885c-.547.68-.972 1.208-1.444 1.74-.294.349-.551.655-.783.974l-.936 1.077a379.796 379.796 0 0 1-5.187 6.08l-1.302 1.565c-.421.434-.676.737-.953 1.064-.328.383-.453.51-.555.651l-6.912 7.752a12.81 12.81 0 0 1-.445.498l.134.8-1.102.217-.276.306q-2.643 2.936-5.574 6.047l-2.37 2.59-.053-.038-.117.115a4.91 4.91 0 0 1-.74.762c-1.694 1.847-3.638 3.846-5.651 5.889l-3.21 3.259q-2.92 2.923-5.989 5.867c-.485.485-.993.996-1.534 1.485-.296.306-.661.672-1.055 1.017l-.33.332c-.17.166-.361.349-.574.519-1.721 1.693-3.61 3.463-5.52 5.25l-.492.456c-.617.519-1.136 1.004-1.655 1.485l-1.138 1.008c.042.004-.203.225-.373.37l-.246.204a4.495 4.495 0 0 1-.422.35 259.886 259.886 0 0 1-5.935 5.318l-.407.34c-.412.35-.816.69-1.201 1.038l-1.162.979c-.228.204-.37.332-.477.421l-.314.281-1.232-1.123.732 1.527a176.37 176.37 0 0 1-6.095 5.055l-1.71 1.43c-.443.336-.762.574-1.054.833l-1.244 1a628.757 628.757 0 0 1-6.555 5.042l-1.532 1.15c-.704.497-1.068.774-1.45 1.071l-.58.43c-.14.11-.282.209-.427.302l-1.487-.97.968 1.34c-2.078 1.502-4.16 3.004-6.274 4.442-.55.413-1.195.847-1.891 1.285-.087.081-.34.256-.591.43-.192.128-.381.26-.558.4l-1.519.987a4.415 4.415 0 0 0-.504.32 321.09 321.09 0 0 1-6.008 3.837l-2.172 1.37a12.696 12.696 0 0 0-1.244.749c-.54.294-.875.498-1.207.698l-.291.174c-.29.17-.487.285-.668.379a201.028 201.028 0 0 1-6.414 3.578l-.192.12c-.725.42-1.485.816-2.272 1.182a20.6 20.6 0 0 1-1.123.6l-1.63.826a6.323 6.323 0 0 1-.704.331c-2.089 1.068-4.4 2.145-6.665 3.162-.804.361-1.587.698-2.37 1.034-.521.234-1.049.45-1.574.668l-1.406.574a9.524 9.524 0 0 1-.62.26 160.825 160.825 0 0 1-6.633 2.446l-.012.017-4.742 1.523c-.056.022-.122.047-.198.068l-.256.362-.738-.068-.604.187c-2.425.677-4.833 1.323-7.254 1.872-.915.196-1.794.362-2.672.532l-1.73.328a5.287 5.287 0 0 0-.542.102l-.511.085a3.469 3.469 0 0 0-.555.09 90.414 90.414 0 0 1-8.227.982c-.785.081-1.63.12-2.474.158-.726.046-1.338.063-1.953.08l-.59-1.642.052 1.651c-.266.009-.513.013-.758.013Z" class="colorbcaa93 svgShape"/><path fill="#bcaa93" d="M2042.145 633.56a7.335 7.335 0 0 1-6.297 2.173 5.65 5.65 0 0 1-2.396-.753 1.76 1.76 0 0 1-.372-.225 4.214 4.214 0 0 1-.706-6.661 9.235 9.235 0 0 1 .718-.684 7.417 7.417 0 0 1 5.68-1.505l.029.021c.348.074.667.126.993.229a2.822 2.822 0 0 1 .88.324.728.728 0 0 1 .385.145 4.297 4.297 0 0 1 1.086 6.937Z" class="colorbcaa93 svgShape"/><path fill="#efddca" d="M2041.689 632.651a6.437 6.437 0 0 1-5.993 1.814 4.651 4.651 0 0 1-1.641-.564l-.118-.085a3.703 3.703 0 0 1-.802-5.973 3.253 3.253 0 0 1 .427-.405 6.516 6.516 0 0 1 5.21-1.533l.029.021c.348.074.666.126.993.229a7.415 7.415 0 0 1 .808.361.218.218 0 0 1 .138.056 3.759 3.759 0 0 1 .949 6.079Z" class="colorefddca svgShape"/><path fill="#f9f1e8" d="M2040.58 631.37a4.82 4.82 0 0 1-5.654.938 2.77 2.77 0 0 1-.693-4.488 4.824 4.824 0 0 1 5.638-.943 2.771 2.771 0 0 1 .71 4.493Z" class="colorf9f1e8 svgShape"/><path fill="#bcaa93" d="M2034.67 642.296a7.361 7.361 0 0 1-8.702 1.417 4.313 4.313 0 0 1-1.03-6.957 7.37 7.37 0 0 1 8.663-1.43 4.313 4.313 0 0 1 1.07 6.97Z" class="colorbcaa93 svgShape"/><path fill="#efddca" d="M2034.222 641.383a6.457 6.457 0 0 1-7.629 1.245 3.78 3.78 0 0 1-.905-6.098 6.463 6.463 0 0 1 7.598-1.255 3.78 3.78 0 0 1 .936 6.108Z" class="colorefddca svgShape"/><path fill="#f9f1e8" d="M2033.123 640.102a4.789 4.789 0 0 1-5.652.925 2.8 2.8 0 0 1-.674-4.52 4.792 4.792 0 0 1 5.636-.93 2.8 2.8 0 0 1 .69 4.525Z" class="colorf9f1e8 svgShape"/><path fill="#bcaa93" d="M2027.198 650.84a7.313 7.313 0 0 1-8.698 1.398 4.357 4.357 0 0 1-1-7.005 7.321 7.321 0 0 1 8.659-1.41 4.357 4.357 0 0 1 1.039 7.017Z" class="colorbcaa93 svgShape"/><path fill="#efddca" d="M2026.754 649.92a6.415 6.415 0 0 1-7.625 1.228 3.818 3.818 0 0 1-.88-6.14 6.421 6.421 0 0 1 7.595-1.238 3.818 3.818 0 0 1 .91 6.15Z" class="colorefddca svgShape"/><path fill="#f9f1e8" d="M2025.662 648.628a4.758 4.758 0 0 1-5.65.912 2.828 2.828 0 0 1-.654-4.551 4.761 4.761 0 0 1 5.632-.918 2.829 2.829 0 0 1 .672 4.557Z" class="colorf9f1e8 svgShape"/><path fill="#bcaa93" d="M2019.763 659.452a7.266 7.266 0 0 1-8.693 1.377 4.402 4.402 0 0 1-.97-7.053 7.274 7.274 0 0 1 8.653-1.39 4.402 4.402 0 0 1 1.01 7.066Z" class="colorbcaa93 svgShape"/><path fill="#efddca" d="M2019.323 658.524a6.374 6.374 0 0 1-7.62 1.21 3.858 3.858 0 0 1-.854-6.183 6.38 6.38 0 0 1 7.59-1.22 3.858 3.858 0 0 1 .884 6.193Z" class="colorefddca svgShape"/><path fill="#f9f1e8" d="M2018.238 657.22a4.727 4.727 0 0 1-5.646.898 2.858 2.858 0 0 1-.636-4.582 4.73 4.73 0 0 1 5.63-.904 2.858 2.858 0 0 1 .652 4.588Z" class="colorf9f1e8 svgShape"/><path fill="#bcaa93" d="M2012.442 668.262a7.22 7.22 0 0 1-8.69 1.357 4.45 4.45 0 0 1-.942-7.104 7.228 7.228 0 0 1 8.651-1.37 4.45 4.45 0 0 1 .981 7.117Z" class="colorbcaa93 svgShape"/><path fill="#efddca" d="M2012.006 667.327a6.333 6.333 0 0 1-7.618 1.192 3.899 3.899 0 0 1-.828-6.227 6.34 6.34 0 0 1 7.588-1.202 3.899 3.899 0 0 1 .858 6.237Z" class="colorefddca svgShape"/><path fill="#f9f1e8" d="M2010.927 666.01a4.697 4.697 0 0 1-5.644.885 2.889 2.889 0 0 1-.617-4.615 4.7 4.7 0 0 1 5.627-.89 2.888 2.888 0 0 1 .634 4.62Z" class="colorf9f1e8 svgShape"/><path fill="#bcaa93" d="M2005.712 677.396a7.178 7.178 0 0 1-8.692 1.335 4.5 4.5 0 0 1-.915-7.159 7.186 7.186 0 0 1 8.653-1.348 4.5 4.5 0 0 1 .954 7.172Z" class="colorbcaa93 svgShape"/><path fill="#efddca" d="M2005.28 676.452a6.297 6.297 0 0 1-7.62 1.173 3.944 3.944 0 0 1-.805-6.275 6.303 6.303 0 0 1 7.59-1.183 3.944 3.944 0 0 1 .835 6.285Z" class="colorefddca svgShape"/><path fill="#f9f1e8" d="M2004.206 675.122a4.67 4.67 0 0 1-5.646.871 2.922 2.922 0 0 1-.6-4.65 4.674 4.674 0 0 1 5.63-.878 2.922 2.922 0 0 1 .616 4.657Z" class="colorf9f1e8 svgShape"/><path fill="#bcaa93" d="M1998.345 686.373a7.133 7.133 0 0 1-8.69 1.314 4.55 4.55 0 0 1-.885-7.21 7.14 7.14 0 0 1 8.65-1.328 4.55 4.55 0 0 1 .925 7.224Z" class="colorbcaa93 svgShape"/><path fill="#efddca" d="M1997.917 685.422a6.257 6.257 0 0 1-7.617 1.154 3.987 3.987 0 0 1-.78-6.32 6.263 6.263 0 0 1 7.587-1.165 3.987 3.987 0 0 1 .81 6.33Z" class="colorefddca svgShape"/><path fill="#f9f1e8" d="M1996.85 684.078a4.64 4.64 0 0 1-5.645.858 2.954 2.954 0 0 1-.58-4.685 4.644 4.644 0 0 1 5.627-.863 2.954 2.954 0 0 1 .597 4.69Z" class="colorf9f1e8 svgShape"/><path fill="#bcaa93" d="M1992.611 696.161a7.097 7.097 0 0 1-8.7 1.292 4.609 4.609 0 0 1-.864-7.274 7.105 7.105 0 0 1 8.661-1.306 4.608 4.608 0 0 1 .903 7.288Z" class="colorbcaa93 svgShape"/><path fill="#efddca" d="M1992.186 695.2a6.226 6.226 0 0 1-7.627 1.135 4.039 4.039 0 0 1-.76-6.376 6.232 6.232 0 0 1 7.596-1.146 4.038 4.038 0 0 1 .79 6.387Z" class="colorefddca svgShape"/><path fill="#f9f1e8" d="M1991.121 693.842a4.618 4.618 0 0 1-5.65.843 2.992 2.992 0 0 1-.567-4.726 4.621 4.621 0 0 1 5.634-.85 2.992 2.992 0 0 1 .583 4.733Z" class="colorf9f1e8 svgShape"/><path fill="#bcaa93" d="M1986.466 705.77a7.06 7.06 0 0 1-8.709 1.269 4.666 4.666 0 0 1-.84-7.335 7.068 7.068 0 0 1 8.669-1.284 4.665 4.665 0 0 1 .88 7.35Z" class="colorbcaa93 svgShape"/><path fill="#efddca" d="M1986.043 704.8a6.193 6.193 0 0 1-7.634 1.115 4.089 4.089 0 0 1-.74-6.43 6.199 6.199 0 0 1 7.604-1.126 4.088 4.088 0 0 1 .77 6.44Z" class="colorefddca svgShape"/><path fill="#f9f1e8" d="M1984.982 703.426a4.593 4.593 0 0 1-5.655.829 3.029 3.029 0 0 1-.552-4.766 4.596 4.596 0 0 1 5.64-.834 3.029 3.029 0 0 1 .567 4.771Z" class="colorf9f1e8 svgShape"/><path fill="#bcaa93" d="M1980.034 715.27a7.021 7.021 0 0 1-8.713 1.246 4.723 4.723 0 0 1-.815-7.394 7.03 7.03 0 0 1 8.674-1.262 4.722 4.722 0 0 1 .854 7.41Z" class="colorbcaa93 svgShape"/><path fill="#efddca" d="M1979.615 714.29a6.159 6.159 0 0 1-7.638 1.096 4.139 4.139 0 0 1-.717-6.482 6.165 6.165 0 0 1 7.607-1.107 4.138 4.138 0 0 1 .748 6.493Z" class="colorefddca svgShape"/><path fill="#f9f1e8" d="M1978.56 712.902a4.568 4.568 0 0 1-5.66.815 3.066 3.066 0 0 1-.535-4.804 4.571 4.571 0 0 1 5.643-.82 3.066 3.066 0 0 1 .551 4.81Z" class="colorf9f1e8 svgShape"/><path fill="#bcaa93" d="M1974.778 725.247a6.99 6.99 0 0 1-8.728 1.224 4.786 4.786 0 0 1-.795-7.461 6.998 6.998 0 0 1 8.689-1.24 4.785 4.785 0 0 1 .834 7.477Z" class="colorbcaa93 svgShape"/><path fill="#efddca" d="M1974.361 724.258a6.131 6.131 0 0 1-7.65 1.075 4.194 4.194 0 0 1-.7-6.54 6.138 6.138 0 0 1 7.62-1.087 4.193 4.193 0 0 1 .73 6.552Z" class="colorefddca svgShape"/><path fill="#f9f1e8" d="M1973.308 722.854a4.548 4.548 0 0 1-5.669.8 3.107 3.107 0 0 1-.521-4.848 4.551 4.551 0 0 1 5.652-.806 3.106 3.106 0 0 1 .538 4.854Z" class="colorf9f1e8 svgShape"/><path fill="#bcaa93" d="M1970.24 735.791a6.964 6.964 0 0 1-8.75 1.2 4.855 4.855 0 0 1-.778-7.535 6.971 6.971 0 0 1 8.71-1.216 4.853 4.853 0 0 1 .818 7.551Z" class="colorbcaa93 svgShape"/><path fill="#efddca" d="M1969.824 734.79a6.108 6.108 0 0 1-7.67 1.055 4.254 4.254 0 0 1-.684-6.605 6.114 6.114 0 0 1 7.638-1.066 4.253 4.253 0 0 1 .716 6.617Z" class="colorefddca svgShape"/><path fill="#f9f1e8" d="M1968.772 733.369a4.53 4.53 0 0 1-5.682.784 3.151 3.151 0 0 1-.511-4.896 4.534 4.534 0 0 1 5.666-.79 3.15 3.15 0 0 1 .527 4.902Z" class="colorf9f1e8 svgShape"/><path fill="#bcaa93" d="M1965.165 746.078a6.934 6.934 0 0 1-8.767 1.176 4.921 4.921 0 0 1-.759-7.606 6.941 6.941 0 0 1 8.726-1.192 4.92 4.92 0 0 1 .8 7.622Z" class="colorbcaa93 svgShape"/><path fill="#efddca" d="M1964.75 745.067a6.083 6.083 0 0 1-7.683 1.034 4.312 4.312 0 0 1-.669-6.668 6.088 6.088 0 0 1 7.654-1.045 4.311 4.311 0 0 1 .699 6.68Z" class="colorefddca svgShape"/><path fill="#f9f1e8" d="M1963.701 743.629a4.511 4.511 0 0 1-5.693.768 3.194 3.194 0 0 1-.499-4.941 4.514 4.514 0 0 1 5.677-.776 3.194 3.194 0 0 1 .515 4.949Z" class="colorf9f1e8 svgShape"/><path fill="#bcaa93" d="M1961.372 756.777a6.913 6.913 0 0 1-8.793 1.152 4.994 4.994 0 0 1-.746-7.684 6.92 6.92 0 0 1 8.753-1.168 4.992 4.992 0 0 1 .786 7.7Z" class="colorbcaa93 svgShape"/><path fill="#efddca" d="M1960.959 755.754a6.064 6.064 0 0 1-7.707 1.013 4.376 4.376 0 0 1-.657-6.736 6.07 6.07 0 0 1 7.676-1.025 4.375 4.375 0 0 1 .688 6.748Z" class="colorefddca svgShape"/><path fill="#f9f1e8" d="M1959.91 754.297a4.497 4.497 0 0 1-5.711.753 3.241 3.241 0 0 1-.49-4.992 4.5 4.5 0 0 1 5.693-.76 3.24 3.24 0 0 1 .507 5Z" class="colorf9f1e8 svgShape"/><path fill="#bcaa93" d="M1958.387 767.77a6.896 6.896 0 0 1-8.825 1.126 5.07 5.07 0 0 1-.736-7.767 6.904 6.904 0 0 1 8.784-1.144 5.069 5.069 0 0 1 .777 7.784Z" class="colorbcaa93 svgShape"/><path fill="#efddca" d="M1957.974 766.734a6.05 6.05 0 0 1-7.736.99 4.443 4.443 0 0 1-.648-6.808 6.055 6.055 0 0 1 7.705-1.003 4.442 4.442 0 0 1 .68 6.821Z" class="colorefddca svgShape"/><path fill="#f9f1e8" d="M1956.923 765.257a4.487 4.487 0 0 1-5.732.737 3.291 3.291 0 0 1-.483-5.046 4.49 4.49 0 0 1 5.714-.744 3.29 3.29 0 0 1 .501 5.053Z" class="colorf9f1e8 svgShape"/><path fill="#bcaa93" d="M1956.894 778.78a6.89 6.89 0 0 1-8.867 1.102 5.15 5.15 0 0 1-.733-7.856 6.896 6.896 0 0 1 8.826-1.119 5.148 5.148 0 0 1 .774 7.873Z" class="colorbcaa93 svgShape"/><path fill="#efddca" d="M1956.48 777.731a6.043 6.043 0 0 1-7.772.97 4.512 4.512 0 0 1-.645-6.887 6.049 6.049 0 0 1 7.74-.982 4.511 4.511 0 0 1 .678 6.9Z" class="colorefddca svgShape"/><path fill="#f9f1e8" d="M1955.426 776.234a4.482 4.482 0 0 1-5.759.721 3.343 3.343 0 0 1-.482-5.104 4.485 4.485 0 0 1 5.742-.728 3.342 3.342 0 0 1 .499 5.111Z" class="colorf9f1e8 svgShape"/><path fill="#bcaa93" d="M1956.341 790.001a6.888 6.888 0 0 1-8.915 1.078 5.233 5.233 0 0 1-.735-7.95 6.895 6.895 0 0 1 8.874-1.094 5.232 5.232 0 0 1 .776 7.966Z" class="colorbcaa93 svgShape"/><path fill="#efddca" d="M1955.926 788.94a6.042 6.042 0 0 1-7.815.947 4.586 4.586 0 0 1-.647-6.968 6.048 6.048 0 0 1 7.783-.96 4.584 4.584 0 0 1 .678 6.98Z" class="colorefddca svgShape"/><path fill="#f9f1e8" d="M1954.865 787.42a4.481 4.481 0 0 1-5.79.705 3.397 3.397 0 0 1-.482-5.164 4.484 4.484 0 0 1 5.772-.712 3.396 3.396 0 0 1 .5 5.171Z" class="colorf9f1e8 svgShape"/><path fill="#bcaa93" d="M1958.926 800.66a6.906 6.906 0 0 1-8.98 1.055 5.317 5.317 0 0 1-.75-8.048 6.913 6.913 0 0 1 8.938-1.072 5.316 5.316 0 0 1 .792 8.065Z" class="colorbcaa93 svgShape"/><path fill="#efddca" d="M1958.506 799.584a6.058 6.058 0 0 1-7.872.927 4.66 4.66 0 0 1-.66-7.054 6.063 6.063 0 0 1 7.839-.941 4.658 4.658 0 0 1 .693 7.068Z" class="colorefddca svgShape"/><path fill="#f9f1e8" d="M1957.436 798.042a4.493 4.493 0 0 1-5.832.69 3.451 3.451 0 0 1-.493-5.228 4.496 4.496 0 0 1 5.814-.698 3.45 3.45 0 0 1 .511 5.236Z" class="colorf9f1e8 svgShape"/><path fill="#bcaa93" d="M1962.753 811.538a6.932 6.932 0 0 1-9.054 1.031 5.406 5.406 0 0 1-.772-8.152 6.938 6.938 0 0 1 9.01-1.05 5.404 5.404 0 0 1 .816 8.17Z" class="colorbcaa93 svgShape"/><path fill="#efddca" d="M1962.327 810.446a6.08 6.08 0 0 1-7.936.907 4.736 4.736 0 0 1-.68-7.146 6.085 6.085 0 0 1 7.903-.921 4.735 4.735 0 0 1 .713 7.16Z" class="colorefddca svgShape"/><path fill="#f9f1e8" d="M1961.245 808.88a4.51 4.51 0 0 1-5.88.675 3.509 3.509 0 0 1-.508-5.296 4.512 4.512 0 0 1 5.862-.683 3.508 3.508 0 0 1 .526 5.304Z" class="colorf9f1e8 svgShape"/><path fill="#bcaa93" d="M1967.57 822.246a6.963 6.963 0 0 1-9.134 1.008 5.495 5.495 0 0 1-.799-8.259 6.97 6.97 0 0 1 9.09-1.027 5.494 5.494 0 0 1 .842 8.278Z" class="colorbcaa93 svgShape"/><path fill="#efddca" d="M1967.137 821.138a6.108 6.108 0 0 1-8.006.887 4.815 4.815 0 0 1-.704-7.24 6.112 6.112 0 0 1 7.973-.9 4.814 4.814 0 0 1 .737 7.253Z" class="colorefddca svgShape"/><path fill="#f9f1e8" d="M1966.041 819.548a4.53 4.53 0 0 1-5.931.66 3.567 3.567 0 0 1-.525-5.365 4.532 4.532 0 0 1 5.913-.668 3.566 3.566 0 0 1 .543 5.373Z" class="colorf9f1e8 svgShape"/><path fill="#bcaa93" d="M1977.099 829.607a7.023 7.023 0 0 1-9.226.995 5.566 5.566 0 0 1-.848-8.351 7.028 7.028 0 0 1 9.182-1.014 5.565 5.565 0 0 1 .892 8.37Z" class="colorbcaa93 svgShape"/><path fill="#efddca" d="M1976.656 828.486a6.16 6.16 0 0 1-8.087.875 4.877 4.877 0 0 1-.746-7.32 6.164 6.164 0 0 1 8.053-.89 4.876 4.876 0 0 1 .78 7.335Z" class="colorefddca svgShape"/><path fill="#f9f1e8" d="M1975.541 826.876a4.568 4.568 0 0 1-5.992.652 3.612 3.612 0 0 1-.556-5.426 4.57 4.57 0 0 1 5.973-.66 3.612 3.612 0 0 1 .575 5.434Z" class="colorf9f1e8 svgShape"/><path fill="#bcaa93" d="M2203.291 723.796c-2.295 2.617-6.827 3.215-10.182 1.322l-.146-.106c-3.195-1.866-3.979-5.464-1.768-7.965a7.415 7.415 0 0 1 5.253-2.393 8.923 8.923 0 0 1 4.31.757c.196.098.364.174.56.272 2.895 1.604 3.943 4.591 2.685 7.068a4.894 4.894 0 0 1-.712 1.045Z" class="colorbcaa93 svgShape"/><path fill="#efddca" d="M2192.65 717.121c-1.978 2.282-1.226 5.46 1.692 7.104 2.927 1.65 6.92 1.127 8.907-1.172 1.985-2.297 1.205-5.485-1.732-7.117-2.926-1.627-6.89-1.094-8.867 1.185Z" class="colorefddca svgShape"/><path fill="#f9f1e8" d="M2194.904 717.662c-1.468 1.694-.906 4.052 1.261 5.27a5.503 5.503 0 0 0 6.605-.871c1.471-1.703.894-4.066-1.284-5.278a5.504 5.504 0 0 0-6.582.88Z" class="colorf9f1e8 svgShape"/><path fill="#bcaa93" d="M2182.471 726.418c-2.262 2.608-1.425 6.258 1.884 8.156 3.324 1.907 7.873 1.323 10.147-1.308 2.272-2.63 1.398-6.291-1.937-8.175-3.32-1.875-7.834-1.279-10.094 1.327Z" class="colorbcaa93 svgShape"/><path fill="#efddca" d="M2183.92 726.517c-1.984 2.288-1.247 5.49 1.659 7.153 2.916 1.67 6.905 1.157 8.898-1.15 1.992-2.304 1.227-5.515-1.699-7.167-2.914-1.646-6.875-1.123-8.858 1.164Z" class="colorefddca svgShape"/><path fill="#f9f1e8" d="M2186.168 727.068c-1.472 1.7-.921 4.074 1.237 5.307a5.464 5.464 0 0 0 6.598-.855c1.477-1.707.91-4.088-1.259-5.314a5.465 5.465 0 0 0-6.576.862Z" class="colorf9f1e8 svgShape"/><path fill="#bcaa93" d="M2174.034 735.74c-2.27 2.618-1.45 6.293 1.847 8.214 3.312 1.93 7.857 1.357 10.139-1.283 2.28-2.638 1.422-6.326-1.9-8.232-3.309-1.898-7.818-1.313-10.086 1.302Z" class="colorbcaa93 svgShape"/><path fill="#efddca" d="M2175.481 735.845c-1.991 2.296-1.268 5.52 1.626 7.203 2.905 1.69 6.891 1.187 8.891-1.127 1.999-2.312 1.248-5.545-1.667-7.217-2.903-1.666-6.86-1.153-8.85 1.14Z" class="colorefddca svgShape"/><path fill="#f9f1e8" d="M2177.724 736.407c-1.478 1.705-.938 4.096 1.212 5.344a5.427 5.427 0 0 0 6.593-.838c1.481-1.713.926-4.11-1.235-5.351a5.429 5.429 0 0 0-6.57.845Z" class="colorf9f1e8 svgShape"/><path fill="#bcaa93" d="M2165.493 745.048c-2.278 2.625-1.474 6.325 1.81 8.27 3.298 1.952 7.84 1.391 10.129-1.258 2.287-2.646 1.446-6.36-1.863-8.288-3.296-1.92-7.8-1.347-10.076 1.276Z" class="colorbcaa93 svgShape"/><path fill="#efddca" d="M2166.937 745.157c-1.998 2.304-1.29 5.55 1.593 7.253 2.894 1.71 6.876 1.217 8.883-1.104 2.006-2.32 1.269-5.576-1.634-7.268-2.892-1.685-6.845-1.183-8.842 1.12Z" class="colorefddca svgShape"/><path fill="#f9f1e8" d="M2169.174 745.73c-1.483 1.71-.953 4.119 1.188 5.381a5.39 5.39 0 0 0 6.587-.821c1.486-1.72.941-4.133-1.211-5.388a5.392 5.392 0 0 0-6.564.829Z" class="colorf9f1e8 svgShape"/><path fill="#bcaa93" d="M2156.64 754.308c-2.285 2.633-1.5 6.358 1.77 8.325 3.284 1.975 7.82 1.426 10.118-1.232 2.294-2.654 1.471-6.392-1.824-8.344-3.282-1.942-7.781-1.38-10.064 1.25Z" class="colorbcaa93 svgShape"/><path fill="#efddca" d="M2158.081 754.423c-2.005 2.31-1.312 5.578 1.56 7.301 2.88 1.73 6.858 1.247 8.871-1.082 2.012-2.327 1.291-5.604-1.6-7.316-2.879-1.705-6.828-1.212-8.83 1.097Z" class="colorefddca svgShape"/><path fill="#f9f1e8" d="M2160.311 755.007c-1.487 1.715-.969 4.14 1.163 5.416a5.352 5.352 0 0 0 6.579-.804c1.491-1.725.958-4.154-1.185-5.424a5.353 5.353 0 0 0-6.557.812Z" class="colorf9f1e8 svgShape"/><path fill="#bcaa93" d="M2147.125 763.113c-2.292 2.64-1.525 6.387 1.728 8.374 3.267 1.996 7.794 1.458 10.098-1.206 2.302-2.662 1.498-6.422-1.78-8.394-3.265-1.963-7.756-1.412-10.046 1.226Z" class="colorbcaa93 svgShape"/><path fill="#efddca" d="M2148.563 763.233c-2.011 2.317-1.335 5.603 1.52 7.345 2.867 1.748 6.837 1.275 8.857-1.06 2.017-2.334 1.313-5.63-1.562-7.36-2.865-1.723-6.807-1.24-8.816 1.075Z" class="colorefddca svgShape"/><path fill="#f9f1e8" d="M2150.785 763.827c-1.492 1.72-.986 4.158 1.135 5.449a5.311 5.311 0 0 0 6.566-.788c1.496-1.73.975-4.174-1.157-5.457a5.313 5.313 0 0 0-6.544.796Z" class="colorf9f1e8 svgShape"/><path fill="#bcaa93" d="M2138.095 772.436c-2.3 2.648-1.551 6.42 1.687 8.43 3.252 2.018 7.774 1.492 10.085-1.18 2.31-2.67 1.524-6.456-1.74-8.45-3.25-1.986-7.735-1.446-10.032 1.2Z" class="colorbcaa93 svgShape"/><path fill="#efddca" d="M2139.529 772.561c-2.018 2.324-1.357 5.633 1.485 7.394a7.105 7.105 0 0 0 8.845-1.037c2.025-2.34 1.336-5.66-1.526-7.409a7.108 7.108 0 0 0-8.804 1.052Z" class="colorefddca svgShape"/><path fill="#f9f1e8" d="M2141.744 773.166c-1.496 1.726-1.003 4.18 1.109 5.485a5.273 5.273 0 0 0 6.558-.77c1.5-1.735.992-4.195-1.131-5.494a5.275 5.275 0 0 0-6.536.78Z" class="colorf9f1e8 svgShape"/><path fill="#bcaa93" d="M2127.38 780.456c-2.305 2.653-1.578 6.442 1.638 8.47 3.229 2.035 7.737 1.52 10.054-1.157 2.315-2.674 1.552-6.477-1.69-8.489-3.227-2.003-7.699-1.474-10.001 1.176Z" class="colorbcaa93 svgShape"/><path fill="#efddca" d="M2128.809 780.586c-2.022 2.328-1.382 5.652 1.441 7.428a7.044 7.044 0 0 0 8.818-1.016c2.03-2.344 1.361-5.678-1.482-7.443a7.047 7.047 0 0 0-8.777 1.031Z" class="colorefddca svgShape"/><path fill="#f9f1e8" d="M2131.013 781.2a3.585 3.585 0 0 0 1.076 5.51 5.228 5.228 0 0 0 6.538-.755 3.588 3.588 0 0 0-1.098-5.519 5.23 5.23 0 0 0-6.516.764Z" class="colorf9f1e8 svgShape"/><path fill="#bcaa93" d="M2117.116 788.766c-2.311 2.658-1.606 6.467 1.589 8.512 3.209 2.055 7.705 1.55 10.028-1.132 2.321-2.68 1.58-6.502-1.641-8.532-3.207-2.022-7.668-1.504-9.976 1.152Z" class="colorbcaa93 svgShape"/><path fill="#efddca" d="M2118.539 788.9c-2.028 2.333-1.406 5.674 1.4 7.467a6.986 6.986 0 0 0 8.794-.995c2.035-2.35 1.385-5.7-1.44-7.481a6.99 6.99 0 0 0-8.754 1.01Z" class="colorefddca svgShape"/><path fill="#f9f1e8" d="M2120.733 789.524a3.614 3.614 0 0 0 1.045 5.538 5.185 5.185 0 0 0 6.52-.74 3.616 3.616 0 0 0-1.066-5.546 5.186 5.186 0 0 0-6.5.748Z" class="colorf9f1e8 svgShape"/><path fill="#bcaa93" d="M2107.141 797.276c-2.317 2.664-1.633 6.493 1.543 8.558a7.898 7.898 0 0 0 10.005-1.107c2.328-2.685 1.607-6.528-1.595-8.578a7.902 7.902 0 0 0-9.953 1.127Z" class="colorbcaa93 svgShape"/><path fill="#efddca" d="M2108.56 797.416c-2.033 2.337-1.43 5.696 1.359 7.506a6.93 6.93 0 0 0 8.774-.973c2.04-2.354 1.409-5.724-1.4-7.522a6.933 6.933 0 0 0-8.734.99Z" class="colorefddca svgShape"/><path fill="#f9f1e8" d="M2110.744 798.049a3.644 3.644 0 0 0 1.015 5.568 5.144 5.144 0 0 0 6.506-.724 3.646 3.646 0 0 0-1.037-5.577 5.145 5.145 0 0 0-6.484.733Z" class="colorf9f1e8 svgShape"/><path fill="#bcaa93" d="M2096.184 804.765c-2.323 2.667-1.662 6.511 1.49 8.592a7.829 7.829 0 0 0 9.97-1.085c2.333-2.688 1.636-6.547-1.542-8.612a7.832 7.832 0 0 0-9.918 1.105Z" class="colorbcaa93 svgShape"/><path fill="#efddca" d="M2097.595 804.91c-2.037 2.34-1.454 5.711 1.314 7.535a6.87 6.87 0 0 0 8.743-.954c2.045-2.356 1.434-5.74-1.353-7.55a6.872 6.872 0 0 0-8.704.968Z" class="colorefddca svgShape"/><path fill="#f9f1e8" d="M2099.768 805.55a3.668 3.668 0 0 0 .98 5.59 5.098 5.098 0 0 0 6.484-.71 3.67 3.67 0 0 0-1.003-5.598 5.1 5.1 0 0 0-6.461.718Z" class="colorf9f1e8 svgShape"/><path fill="#bcaa93" d="M2084.346 811.663c-2.326 2.668-1.69 6.524 1.434 8.617a7.754 7.754 0 0 0 9.926-1.063c2.336-2.69 1.665-6.56-1.485-8.638a7.757 7.757 0 0 0-9.875 1.084Z" class="colorbcaa93 svgShape"/><path fill="#efddca" d="M2085.75 811.81a4.975 4.975 0 0 0 1.263 7.559 6.804 6.804 0 0 0 8.705-.935c2.048-2.358 1.46-5.75-1.302-7.574a6.807 6.807 0 0 0-8.667.95Z" class="colorefddca svgShape"/><path fill="#f9f1e8" d="M2087.907 812.458a3.69 3.69 0 0 0 .944 5.607 5.05 5.05 0 0 0 6.455-.695 3.691 3.691 0 0 0-.965-5.615 5.051 5.051 0 0 0-6.434.703Z" class="colorf9f1e8 svgShape"/><path fill="#bcaa93" d="M2073.111 818.944c-2.33 2.67-1.718 6.54 1.38 8.648a7.684 7.684 0 0 0 9.89-1.041c2.34-2.692 1.693-6.576-1.431-8.669a7.687 7.687 0 0 0-9.839 1.062Z" class="colorbcaa93 svgShape"/><path fill="#efddca" d="M2074.508 819.096a5.007 5.007 0 0 0 1.216 7.585 6.742 6.742 0 0 0 8.673-.916 5.01 5.01 0 0 0-1.255-7.6 6.745 6.745 0 0 0-8.634.93Z" class="colorefddca svgShape"/><path fill="#f9f1e8" d="M2076.653 819.75a3.713 3.713 0 0 0 .909 5.628 5.004 5.004 0 0 0 6.43-.68 3.715 3.715 0 0 0-.93-5.637 5.005 5.005 0 0 0-6.409.69Z" class="colorf9f1e8 svgShape"/><path fill="#bcaa93" d="M2061.058 825.046a5.738 5.738 0 0 0 1.322 8.665 7.608 7.608 0 0 0 9.84-1.021 5.741 5.741 0 0 0-1.372-8.687 7.612 7.612 0 0 0-9.79 1.043Z" class="colorbcaa93 svgShape"/><path fill="#efddca" d="M2062.447 825.2a5.031 5.031 0 0 0 1.164 7.601 6.676 6.676 0 0 0 8.63-.898 5.034 5.034 0 0 0-1.203-7.616 6.68 6.68 0 0 0-8.591.914Z" class="colorefddca svgShape"/><path fill="#f9f1e8" d="M2064.576 825.862a3.731 3.731 0 0 0 .87 5.638 4.955 4.955 0 0 0 6.4-.668 3.733 3.733 0 0 0-.892-5.647 4.957 4.957 0 0 0-6.378.677Z" class="colorf9f1e8 svgShape"/><path fill="#bcaa93" d="M2048.54 830.381a5.759 5.759 0 0 0 1.26 8.676 7.53 7.53 0 0 0 9.786-1.004 5.762 5.762 0 0 0-1.31-8.696 7.535 7.535 0 0 0-9.736 1.024Z" class="colorbcaa93 svgShape"/><path fill="#efddca" d="M2049.919 830.54a5.05 5.05 0 0 0 1.11 7.608 6.608 6.608 0 0 0 8.582-.882 5.051 5.051 0 0 0-1.149-7.625 6.611 6.611 0 0 0-8.543.898Z" class="colorefddca svgShape"/><path fill="#f9f1e8" d="M2052.03 831.205a3.744 3.744 0 0 0 .831 5.644 4.904 4.904 0 0 0 6.363-.656 3.746 3.746 0 0 0-.851-5.653 4.906 4.906 0 0 0-6.342.665Z" class="colorf9f1e8 svgShape"/><path fill="#bcaa93" d="M2035.739 834.244a5.768 5.768 0 0 0 1.197 8.67 7.451 7.451 0 0 0 9.72-.99 5.77 5.77 0 0 0-1.245-8.691 7.455 7.455 0 0 0-9.672 1.01Z" class="colorbcaa93 svgShape"/><path fill="#efddca" d="M2037.106 834.403a5.057 5.057 0 0 0 1.056 7.604 6.538 6.538 0 0 0 8.525-.87 5.06 5.06 0 0 0-1.093-7.62 6.542 6.542 0 0 0-8.488.886Z" class="colorefddca svgShape"/><path fill="#f9f1e8" d="M2039.2 835.071a3.75 3.75 0 0 0 .788 5.641 4.852 4.852 0 0 0 6.322-.647 3.751 3.751 0 0 0-.81-5.65 4.854 4.854 0 0 0-6.3.656Z" class="colorf9f1e8 svgShape"/><path fill="#bcaa93" d="M2022.636 837.21a5.77 5.77 0 0 0 1.132 8.656 7.37 7.37 0 0 0 9.651-.978 5.772 5.772 0 0 0-1.18-8.677 7.374 7.374 0 0 0-9.603.999Z" class="colorbcaa93 svgShape"/><path fill="#efddca" d="M2023.992 837.37a5.06 5.06 0 0 0 .998 7.592 6.467 6.467 0 0 0 8.464-.86 5.06 5.06 0 0 0-1.035-7.607 6.47 6.47 0 0 0-8.427.875Z" class="colorefddca svgShape"/><path fill="#f9f1e8" d="M2026.064 838.04a3.752 3.752 0 0 0 .747 5.632 4.8 4.8 0 0 0 6.276-.64 3.753 3.753 0 0 0-.767-5.641 4.801 4.801 0 0 0-6.256.648Z" class="colorf9f1e8 svgShape"/><path fill="#bcaa93" d="M2009.615 837.087a5.748 5.748 0 0 0 1.066 8.615 7.289 7.289 0 0 0 9.567-.974 5.75 5.75 0 0 0-1.113-8.635 7.293 7.293 0 0 0-9.52.994Z" class="colorbcaa93 svgShape"/><path fill="#efddca" d="M2010.958 837.247a5.04 5.04 0 0 0 .94 7.556 6.396 6.396 0 0 0 8.39-.856 5.041 5.041 0 0 0-.977-7.572 6.4 6.4 0 0 0-8.353.872Z" class="colorefddca svgShape"/><path fill="#f9f1e8" d="M2013.006 837.913a3.738 3.738 0 0 0 .703 5.605 4.747 4.747 0 0 0 6.222-.637 3.738 3.738 0 0 0-.724-5.614 4.749 4.749 0 0 0-6.201.645Z" class="colorf9f1e8 svgShape"/><path fill="#bcaa93" d="M1996.34 835.876a5.718 5.718 0 0 0 .999 8.563 7.206 7.206 0 0 0 9.476-.972 5.719 5.719 0 0 0-1.045-8.583 7.211 7.211 0 0 0-9.43.992Z" class="colorbcaa93 svgShape"/><path fill="#efddca" d="M1997.668 836.035a5.013 5.013 0 0 0 .881 7.51 6.324 6.324 0 0 0 8.31-.855 5.014 5.014 0 0 0-.916-7.526 6.328 6.328 0 0 0-8.275.87Z" class="colorefddca svgShape"/><path fill="#f9f1e8" d="M1999.691 836.696a3.718 3.718 0 0 0 .66 5.57 4.693 4.693 0 0 0 6.162-.635 3.718 3.718 0 0 0-.68-5.58 4.695 4.695 0 0 0-6.142.644Z" class="colorf9f1e8 svgShape"/><path fill="#bcaa93" d="M1983.353 833.767a5.681 5.681 0 0 0 .933 8.504 7.126 7.126 0 0 0 9.384-.973 5.682 5.682 0 0 0-.979-8.524 7.131 7.131 0 0 0-9.338.993Z" class="colorbcaa93 svgShape"/><path fill="#efddca" d="M1984.666 833.924a4.981 4.981 0 0 0 .824 7.458 6.253 6.253 0 0 0 8.229-.855 4.981 4.981 0 0 0-.859-7.474 6.257 6.257 0 0 0-8.194.87Z" class="colorefddca svgShape"/><path fill="#f9f1e8" d="M1986.664 834.578a3.694 3.694 0 0 0 .617 5.533 4.64 4.64 0 0 0 6.102-.636 3.694 3.694 0 0 0-.636-5.541 4.643 4.643 0 0 0-6.083.644Z" class="colorf9f1e8 svgShape"/><path fill="#bcaa93" d="M1973.3 826.834a5.611 5.611 0 0 0 .881 8.411 7.062 7.062 0 0 0 9.288-.986 5.61 5.61 0 0 0-.926-8.431 7.067 7.067 0 0 0-9.242 1.006Z" class="colorbcaa93 svgShape"/><path fill="#efddca" d="M1974.599 826.985a4.92 4.92 0 0 0 .777 7.377 6.197 6.197 0 0 0 8.145-.866 4.92 4.92 0 0 0-.812-7.393 6.201 6.201 0 0 0-8.11.882Z" class="colorefddca svgShape"/><path fill="#f9f1e8" d="M1976.572 827.628a3.648 3.648 0 0 0 .582 5.473 4.6 4.6 0 0 0 6.04-.645 3.648 3.648 0 0 0-.601-5.481 4.602 4.602 0 0 0-6.02.653Z" class="colorf9f1e8 svgShape"/><path fill="#f9a832" d="M1945.701 826.198c-8.439 11.322-6.473 26.414 4.413 33.833 10.97 7.476 26.936 4.409 35.637-6.977 8.765-11.468 6.742-26.877-4.495-34.288-11.148-7.354-27.056-3.97-35.555 7.432Z" class="colorf9a832 svgShape"/><path d="M1945.701 826.198c-8.439 11.322-6.473 26.414 4.413 33.833 10.97 7.476 26.936 4.409 35.637-6.977 8.765-11.468 6.742-26.877-4.495-34.288-11.148-7.354-27.056-3.97-35.555 7.432Z" style="mix-blend-mode:soft-light" opacity=".45" fill="#000000" class="color000 svgShape"/><path fill="#cc2929" d="M1952.981 831.08c-5.372 7.175-4.123 16.752 2.8 21.442 6.956 4.713 17.043 2.737 22.52-4.464 5.503-7.233 4.23-16.937-2.832-21.624-7.027-4.663-17.091-2.56-22.488 4.646Z" class="colorcc2929 svgShape"/><path d="m1953.336 830.64-.346.433c-5.374 7.193-4.143 16.759 2.808 21.456 6.955 4.698 17.025 2.74 22.504-4.477 5.13-6.788 4.341-15.75-1.628-20.707 3.98 4.53 4.155 11.518.033 16.957-4.842 6.386-13.789 8.157-19.98 3.976-5.707-3.836-7.09-11.483-3.39-17.639Z" style="mix-blend-mode:soft-light" opacity=".59" fill="#000000" class="color000 svgShape"/><path fill="#e24d4d" d="M1958.388 830.117c-3.624 4.54-3.4 10.455.502 13.233 3.913 2.785 10.055 1.373 13.72-3.174 3.675-4.56 3.45-10.525-.502-13.303-3.941-2.77-10.084-1.309-13.72 3.244Z" class="colore24d4d svgShape"/><path d="M1985.312 626.615c-.18.003-.412.014-.643.025a6.364 6.364 0 0 0 .664-.054Z" fill="#000000" class="color000 svgShape"/><path fill="#f9a832" d="m2262.653 809.226-7.534-34.618c-4.337-19.932-33.133-19.86-34.292-.037l-2.009 34.334-2.706-34.66c-1.56-19.984-30.017-23.785-33.856-4.645l-6.64 33.105 2.03-34.056c1.171-19.663-26.426-27.19-32.8-9.07l-11.013 31.3 30.508-152.1-70.145 134.993 50.605-144.341-87.441 122.378 14.885-28.8c8.628-16.693-13.643-33.932-26.395-20.557l-21.949 23.022 18.508-26.078c10.741-15.134-8.995-34.97-23.37-23.616l-24.718 19.524 21.72-22.971c12.618-13.346-4.287-35.402-20.002-26.226l-27 15.765 24.487-19.54c14.24-11.364.41-35.24-16.352-28.363l-28.777 11.807 26.784-15.844c15.589-9.221 5.025-34.502-12.48-30.008l-30.037 7.71 28.59-11.94c16.653-6.955 9.497-33.215-8.446-31.153l-30.776 3.537 29.895-7.89c17.421-4.597 13.764-31.403-4.31-31.788l-30.993-.66 30.687-3.745c17.89-2.183 17.774-29.101-.125-31.915l-30.692-4.825 30.964.438c18.056.255 21.474-26.342 4.05-31.535l-29.878-8.904 30.723 4.604c17.917 2.686 24.815-23.163 8.163-30.652l-28.563-12.846 29.968 8.701c17.476 5.075 27.753-19.608 12.158-29.28l-26.76-16.597 28.706 12.676c16.735 7.39 30.242-15.72 15.98-27.43l-24.488-20.109 26.946 16.474c15.703 9.6 32.244-11.546 19.577-25.12l-21.767-23.327 24.703 20.041c14.387 11.672 33.72-7.142 22.891-22.375l-18.624-26.2 21.995 23.322c12.8 13.572 34.637-2.567 25.87-19.223l-15.094-28.675 18.85 26.259c10.96 15.268 34.962 2.118 28.455-15.698l-11.215-30.704 15.299 28.798c8.886 16.729 34.676 6.84 30.598-11.842l-7.037-32.237 11.382 30.883c6.605 17.92 33.758 11.525 32.245-7.707l-2.616-33.229 7.152 32.463c4.144 18.812 32.2 16.09 33.346-3.352l1.984-33.638 2.665 33.484c1.543 19.38 30.005 20.452 33.863 1.155l6.683-33.431-2.005 33.906c-1.16 19.597 27.186 24.519 33.757 5.737l11.4-32.584-6.78 33.692c-3.914 19.447 23.773 28.2 33.007 10.308l16.04-31.084-11.57 32.817c-6.669 18.916 19.81 31.408 31.599 14.775l20.505-28.932-16.275 31.27c-9.368 18 15.357 34.053 29.534 19.04l24.69-26.148-20.789 29.055c-11.951 16.703 10.49 36.06 26.832 23.003l28.492-22.766-25.006 26.194c-14.357 15.04 5.305 37.36 23.53 26.564l31.809-18.844-28.817 22.731c-16.526 13.037-.091 37.902 19.686 29.627l34.545-14.453-32.118 18.725c-18.402 10.728-5.58 37.65 15.37 32.107l36.62-9.689-34.816 14.259c-19.93 8.162-11.03 36.593 10.68 33.93l37.966-4.658-36.83 9.43c-21.071 5.395-16.314 34.742 5.716 35.04l38.539.52-38.1 4.354c-21.787 2.49-21.297 32.128.602 35.396l38.312 5.717-38.584-.846c-22.057-.484-25.856 28.811-4.54 34.987l37.29 10.802-38.266-6.04c-21.873-3.453-29.879 24.872-9.581 33.82l35.495 15.647-37.155-11.097c-21.24-6.345-33.268 20.406-14.4 31.926l32.98 20.135-35.283-15.894c-20.177-9.09-35.948 15.528-18.878 29.359l29.813 24.157-32.707-20.314c-18.713-11.622-37.863 10.36-22.914 26.19l26.086 27.624-29.501-24.256c-16.892-13.887-38.984 5.029-26.422 22.506l21.9 30.467-25.759-27.637c-14.761-15.839-39.301-.339-29.33 18.405l17.365 32.637-21.58-30.397c-12.38-17.438-38.833-5.618-31.59 13.994l12.595 34.107-17.077-32.491c-9.808-18.66-37.611-10.697-33.175 9.38l7.705 34.869-12.358-33.9c-7.106-19.493-35.69-15.473-34.073 4.67Z" class="colorf9a832 svgShape"/><path d="m2262.653 809.226-7.534-34.618c-4.337-19.932-33.133-19.86-34.292-.037l-2.009 34.334-2.706-34.66c-1.56-19.984-30.017-23.785-33.856-4.645l-6.64 33.105 2.03-34.056c1.171-19.663-26.426-27.19-32.8-9.07l-11.013 31.3 30.508-152.1-70.145 134.993 50.605-144.341-87.441 122.378 14.885-28.8c8.628-16.693-13.643-33.932-26.395-20.557l-21.949 23.022 18.508-26.078c10.741-15.134-8.995-34.97-23.37-23.616l-24.718 19.524 21.72-22.971c12.618-13.346-4.287-35.402-20.002-26.226l-27 15.765 24.487-19.54c14.24-11.364.41-35.24-16.352-28.363l-28.777 11.807 26.784-15.844c15.589-9.221 5.025-34.502-12.48-30.008l-30.037 7.71 28.59-11.94c16.653-6.955 9.497-33.215-8.446-31.153l-30.776 3.537 29.895-7.89c17.421-4.597 13.764-31.403-4.31-31.788l-30.993-.66 30.687-3.745c17.89-2.183 17.774-29.101-.125-31.915l-30.692-4.825 30.964.438c18.056.255 21.474-26.342 4.05-31.535l-29.878-8.904 30.723 4.604c17.917 2.686 24.815-23.163 8.163-30.652l-28.563-12.846 29.968 8.701c17.476 5.075 27.753-19.608 12.158-29.28l-26.76-16.597 28.706 12.676c16.735 7.39 30.242-15.72 15.98-27.43l-24.488-20.109 26.946 16.474c15.703 9.6 32.244-11.546 19.577-25.12l-21.767-23.327 24.703 20.041c14.387 11.672 33.72-7.142 22.891-22.375l-18.624-26.2 21.995 23.322c12.8 13.572 34.637-2.567 25.87-19.223l-15.094-28.675 18.85 26.259c10.96 15.268 34.962 2.118 28.455-15.698l-11.215-30.704 15.299 28.798c8.886 16.729 34.676 6.84 30.598-11.842l-7.037-32.237 11.382 30.883c6.605 17.92 33.758 11.525 32.245-7.707l-2.616-33.229 7.152 32.463c4.144 18.812 32.2 16.09 33.346-3.352l1.984-33.638 2.665 33.484c1.543 19.38 30.005 20.452 33.863 1.155l6.683-33.431-2.005 33.906c-1.16 19.597 27.186 24.519 33.757 5.737l11.4-32.584-6.78 33.692c-3.914 19.447 23.773 28.2 33.007 10.308l16.04-31.084-11.57 32.817c-6.669 18.916 19.81 31.408 31.599 14.775l20.505-28.932-16.275 31.27c-9.368 18 15.357 34.053 29.534 19.04l24.69-26.148-20.789 29.055c-11.951 16.703 10.49 36.06 26.832 23.003l28.492-22.766-25.006 26.194c-14.357 15.04 5.305 37.36 23.53 26.564l31.809-18.844-28.817 22.731c-16.526 13.037-.091 37.902 19.686 29.627l34.545-14.453-32.118 18.725c-18.402 10.728-5.58 37.65 15.37 32.107l36.62-9.689-34.816 14.259c-19.93 8.162-11.03 36.593 10.68 33.93l37.966-4.658-36.83 9.43c-21.071 5.395-16.314 34.742 5.716 35.04l38.539.52-38.1 4.354c-21.787 2.49-21.297 32.128.602 35.396l38.312 5.717-38.584-.846c-22.057-.484-25.856 28.811-4.54 34.987l37.29 10.802-38.266-6.04c-21.873-3.453-29.879 24.872-9.581 33.82l35.495 15.647-37.155-11.097c-21.24-6.345-33.268 20.406-14.4 31.926l32.98 20.135-35.283-15.894c-20.177-9.09-35.948 15.528-18.878 29.359l29.813 24.157-32.707-20.314c-18.713-11.622-37.863 10.36-22.914 26.19l26.086 27.624-29.501-24.256c-16.892-13.887-38.984 5.029-26.422 22.506l21.9 30.467-25.759-27.637c-14.761-15.839-39.301-.339-29.33 18.405l17.365 32.637-21.58-30.397c-12.38-17.438-38.833-5.618-31.59 13.994l12.595 34.107-17.077-32.491c-9.808-18.66-37.611-10.697-33.175 9.38l7.705 34.869-12.358-33.9c-7.106-19.493-35.69-15.473-34.073 4.67Z" style="mix-blend-mode:soft-light" opacity=".45" fill="#000000" class="color000 svgShape"/><path fill="#e8be0f" d="M2404.199 303.21s28.83-122.513 10.706-144.72-132.697 79.138-127.862 80.594 117.156 64.126 117.156 64.126Z" class="colore8be0f svgShape"/><path d="M2287.046 239.065c4.85 1.471 117.16 64.153 117.16 64.153s28.82-122.507 10.686-144.72a8.137 8.137 0 0 0-3.45-2.46c-2.253 30.993-16.453 102.863-101.161 59.775-14.873 12.878-24.745 22.808-23.235 23.252Z" style="mix-blend-mode:soft-light" opacity=".45" fill="#000000" class="color000 svgShape"/><ellipse cx="2225.274" cy="497.464" fill="#e8be0f" rx="239.06" ry="245.344" transform="rotate(-60.276 2225.274 497.464)" class="colore8be0f svgShape"/><ellipse cx="2225.274" cy="497.464" rx="213.836" ry="219.458" transform="rotate(-60.276 2225.274 497.464)" style="mix-blend-mode:soft-light" opacity=".45" fill="#000000" class="color000 svgShape"/><ellipse cx="2225.274" cy="497.464" rx="213.836" ry="219.458" transform="rotate(-60.276 2225.274 497.464)" style="mix-blend-mode:soft-light" opacity=".45" fill="#000000" class="color000 svgShape"/><ellipse cx="2225.274" cy="497.464" rx="213.836" ry="219.458" transform="rotate(-60.276 2225.274 497.464)" style="mix-blend-mode:soft-light" opacity=".45" fill="#000000" class="color000 svgShape"/><ellipse cx="2225.274" cy="497.464" rx="213.836" ry="219.458" transform="rotate(-60.276 2225.274 497.464)" style="mix-blend-mode:soft-light" opacity=".45" fill="#000000" class="color000 svgShape"/><path fill="#e8be0f" d="m2368.57 375.02 67.645-40.934s-8.054-34.955-83.012-77.751-105.527-31.986-105.527-31.986l-7.239 71.234Z" class="colore8be0f svgShape"/><path d="m2243.455 265.827-3.017 29.764 128.128 79.443 61.166-37.021c-7.202-10.625-29.242-39.66-66.53-58.418l-24.169 24.946s-22.497-28.402-95.578-38.714Z" style="mix-blend-mode:soft-light" opacity=".45" fill="#000000" class="color000 svgShape"/><path fill="#e8be0f" d="M2395.35 449.975s31.233-81.611-82.567-146.584-170.017 3.422-170.017 3.422Z" class="colore8be0f svgShape"/><path fill="#e8be0f" d="M2013.121 440.22a418.527 418.527 0 0 0-21.99 58.831c-.622 2.214-.924 3.418-.924 3.418l33.54-23.801 22.074 17.776 226.9 182.843 2.708 2.179 33.007-.472s193.64-182.504 41.822-316.226a287.98 287.98 0 0 0-48.02-33.781c-69.876-39.895-125.772-40.917-169.802-22.658-59.806 24.735-97.808 84.993-119.315 131.892Z" class="colore8be0f svgShape"/><path d="M2013.121 440.22a418.527 418.527 0 0 0-21.99 58.831l26.195-26.245 28.495 23.638L2267.09 680.09l5.632-.804 29.294-4.155s188.023-177.224 48.241-310.364a287.98 287.98 0 0 0-48.02-33.781c-69.875-39.895-125.771-40.917-169.8-22.658 62.48-1.285 161.175 13.006 219.19 103.893 0 0 4.198 74.973-77.043 96.96 0 0-106.218-152.537-261.463-68.961Z" style="mix-blend-mode:soft-light" opacity=".45" fill="#000000" class="color000 svgShape"/><path fill="#d39363" d="M2235.102 729.045c14.003 19.31 30.116 21.698 44.645 15.552 28.019-11.768 49.997-55.27 38.952-70.026l-.024-.013a8.876 8.876 0 0 0-.567-.696c-18.643-21.14-57.77 4.682-57.77 4.682s-66.685-6.66-25.236 50.501Z" class="colord39363 svgShape"/><path d="M2235.102 729.045c14.003 19.31 30.116 21.698 44.645 15.552-28.936 5.215-32.617-26.996-22.878-19.575 11.023 8.378 52.192-7.123 50.473-21.95-1.188-10.354-20.204-10.641-31.591-9.885-.04.014-.08.029-.105.015-4.883.338-8.332.863-8.332.863 19.158-22.187 39.3-22.299 51.36-19.508a8.876 8.876 0 0 0-.566-.695c-18.643-21.14-57.77 4.682-57.77 4.682s-66.685-6.66-25.236 50.501Z" style="mix-blend-mode:soft-light" opacity=".45" fill="#000000" class="color000 svgShape"/><path fill="#a5663c" d="M2240.95 712.491c3.033-5.93 7.684-10.698 12.877-14.769a52.746 52.746 0 0 1 17.932-8.916 41.384 41.384 0 0 1 20.488-.227 32.635 32.635 0 0 1 16.896 10.508c-6.593-1.17-12.243-2.645-18.042-2.415a66.951 66.951 0 0 0-16.696 2.183c-11.021 2.965-21.597 8.157-33.454 13.636Z" class="colora5663c svgShape"/><path fill="#d39363" d="M1972.336 705.789c73.713 61.365 186.091 117.077 260.318 35.741a164.906 164.906 0 0 0 13.124-16.401c16.67-23.682 30.867-55.81 41.508-98.193 0 0 7.814-46.268-17.359-96.035-15.598-30.864-43.871-63.048-94.53-86.351 0 0-47.708-27.238-143.313-5.413 0 0-1.508 2.191-4.05 5.913-11.743 17.078-45.833 66.21-59.8 81.162-17.01 18.202-91.858 99.667 4.102 179.577Z" class="colord39363 svgShape"/><ellipse cx="2152.684" cy="574.255" rx="35.858" ry="30.952" transform="rotate(-60.276 2152.684 574.255)" style="mix-blend-mode:soft-light" opacity=".45" fill="#000000" class="color000 svgShape"/><ellipse cx="2037.112" cy="510.505" rx="27.191" ry="23.471" transform="rotate(-60.276 2037.112 510.505)" style="mix-blend-mode:soft-light" opacity=".45" fill="#000000" class="color000 svgShape"/><path fill="#666665" d="M2079.643 496.27a14.644 14.644 0 0 0-1.361-.928 23.547 23.547 0 0 0-2.159-1.414 50.376 50.376 0 0 0-5.868-3.112q-1.532-.735-3.172-1.425a96.196 96.196 0 0 0-9.851-3.289c-20.572-5.607-42.14-4.608-42.14-4.608-.016-17.5 25.115-14.812 25.115-14.812-5.987-1.836-17.417 1.126-18.134 1.31 11.897-5.41 22.04-7.083 30.095-7.007a49.092 49.092 0 0 1 14.208 2.084 38.021 38.021 0 0 1 6.163 2.484 13.178 13.178 0 0 1 1.7.986l1.351 7.156 1.047-6.648a15.733 15.733 0 0 1 2.781 5.205c.023.01.01.036.02.072 2.087 6.442.648 13.578.421 14.678 3.664-11.292 1.23-18.27 1.23-18.27a11.775 11.775 0 0 1 1.378 2.106c5 9.744-2.824 25.431-2.824 25.431Z" class="color666665 svgShape"/><path d="M2052.18 460.981c3.338 4.72 6.659 12.788 5.049 25.114-20.578-5.6-42.148-4.604-42.148-4.604-.034-16.73 22.919-14.996 24.99-14.827-6.042-1.769-17.3 1.136-18.02 1.32 11.93-5.412 22.06-7.068 30.129-7.003ZM2072.554 465.556c1.63 4.998 2.285 13.153-2.28 25.26a71.541 71.541 0 0 0-3.195-1.405 33.72 33.72 0 0 0-.697-26.326 38.323 38.323 0 0 1 6.172 2.471ZM2082.45 470.834c.73 5.003.575 13.252-4.156 24.497-.687-.465-1.392-.966-2.15-1.394a39.07 39.07 0 0 0 3.307-21.628c2.051 6.454.648 13.575.402 14.693 3.668-11.293 1.218-18.267 1.218-18.267a10.796 10.796 0 0 1 1.38 2.1Z" style="mix-blend-mode:soft-light" opacity=".8" fill="#000000" class="color000 svgShape"/><path fill="#666665" d="M2148.7 513.73a17.895 17.895 0 0 1 1.785.892 28.707 28.707 0 0 1 2.768 1.446 60.433 60.433 0 0 1 6.72 4.341q1.67 1.176 3.35 2.49a112.362 112.362 0 0 1 9.149 8.372c17.714 18.189 28.706 41.113 28.706 41.113 19.299-9.792 2.245-34.343 2.245-34.343 5.38 5.179 8.524 18.69 8.724 19.537-.709-15.368-4.552-26.824-9.151-35.132a56.05 56.05 0 0 0-10.263-13.565 44.884 44.884 0 0 0-6.194-4.998 15.928 15.928 0 0 0-2.04-1.21l-8.646 2.608 6.741-4.81a20.389 20.389 0 0 0-7.296.033c-.024-.019-.045.01-.09.02-8.272 1.446-15.33 6.937-16.416 7.789 10.392-10.128 19.449-11.515 19.449-11.515a15.148 15.148 0 0 0-3.094-.248c-13.544.277-26.448 17.18-26.448 17.18Z" class="color666665 svgShape"/><path d="M2153.269 516.072c-.926-.56-1.872-1.032-2.77-1.474 9.724-11.192 18.705-15.979 24.66-18.07a15.852 15.852 0 0 1 3.095.274s-9.078 1.368-19.472 11.522c1.116-.856 8.136-6.362 16.413-7.781a49.042 49.042 0 0 0-21.926 15.529ZM2163.327 522.881a226.422 226.422 0 0 0-3.352-2.491c10.76-11.53 20.167-15.427 26.577-16.51a47.102 47.102 0 0 1 6.167 4.99 43.757 43.757 0 0 0-29.392 14.011ZM2201.174 572.4s-10.965-22.928-28.683-41.12c12.684-8.604 23.421-9.635 30.5-8.851 4.622 8.316 8.444 19.774 9.168 35.15-.212-.86-3.306-14.241-8.66-19.473.981 1.458 16.398 24.78-2.325 34.293Z" style="mix-blend-mode:soft-light" opacity=".8" fill="#000000" class="color000 svgShape"/><path d="M1935.53 641.564c.062 1.636 4.095 61.367 142.334 125.182 62.245 28.727 115.163 7.392 154.79-25.216a164.906 164.906 0 0 0 13.124-16.401c16.67-23.682 30.867-55.81 41.508-98.193 0 0 7.815-46.268-17.359-96.035-15.598-30.864-43.871-63.048-94.53-86.351 0 0-47.707-27.238-143.313-5.413 0 0-1.508 2.191-4.05 5.913 29.74-5.611 120.467-15.967 189.45 47.61 83.697 77.077-60.832 284.865-127.417 262.22-66.57-22.672-121.216-54.58-154.537-113.316Z" style="mix-blend-mode:soft-light" opacity=".45" fill="#000000" class="color000 svgShape"/><path fill="#f9a832" d="M2207.155 300.233s53.263 206.886-74.684 140.664c0 0-121.441-50.549 74.684-140.664Z" class="colorf9a832 svgShape"/><path fill="#f9a832" d="M2207.155 300.233s53.263 206.886-74.684 140.664c0 0-121.441-50.549 74.684-140.664Z" class="colorf9a832 svgShape"/><path d="M2200.882 313.168s43.658 169.58-61.217 115.299c0 0-99.543-41.433 61.217-115.3Z" style="mix-blend-mode:soft-light" opacity=".45" fill="#000000" class="color000 svgShape"/><path d="M2200.882 313.168s43.658 169.58-61.217 115.299c0 0-99.543-41.433 61.217-115.3Z" style="mix-blend-mode:soft-light" opacity=".45" fill="#000000" class="color000 svgShape"/><path fill="#f9a832" d="M2189.99 335.626s26.982 104.807-37.835 71.26c0 0-61.521-25.608 37.834-71.26Z" class="colorf9a832 svgShape"/><path fill="#666665" d="M2269.927 530.901c-2.492 4.533-5.582 10.621-8.814 17.857a250.624 250.624 0 0 0-8.063 20.594c-.902 2.649-1.795 5.34-2.624 8.141-5.86 19.321-9.997 42.156-8.513 66.004a139.374 139.374 0 0 0 9.587 43.362s-26.133 52.074-54.534 36.938c0 0 17.356 21.484 48.812 1.332 10.404-14.791 19.878-32.904 28.082-54.757q2.457-6.413 4.726-13.343a393.347 393.347 0 0 0 4.513-14.544 444.093 444.093 0 0 0 3.67-13.574c.175-.644.35-1.288.517-1.975 0 0 7.814-46.268-17.359-96.035Z" class="color666665 svgShape"/><path d="M2261.107 548.742c3.249-7.233 6.343-13.303 8.83-17.819 25.156 49.743 17.337 96.007 17.337 96.007-.165.695-.345 1.334-.49 1.993-12.12-49.348-21.253-71.442-25.677-80.18ZM2278.579 657.022c-.915-2.053-2.035-4.315-3.39-6.897-17.178-32.204-22.916-57.32-24.76-72.609.823-2.822 1.711-5.515 2.614-8.152 6.39 16.585 20.758 53.306 30.036 73.116a346.708 346.708 0 0 1-4.5 14.542ZM2245.764 725.137c-31.45 20.16-48.804-1.34-48.804-1.34 28.4 15.148 54.524-36.942 54.524-36.942a139.46 139.46 0 0 1-9.566-43.345c10.808 12.013 23.763 23.026 31.956 26.87-8.203 21.84-17.717 39.964-28.11 54.757Z" style="mix-blend-mode:soft-light" opacity=".8" fill="#000000" class="color000 svgShape"/><ellipse cx="2255.538" cy="749.372" fill="#f9a832" rx="18.635" ry="16.086" transform="rotate(-60.276 2255.538 749.372)" class="colorf9a832 svgShape"/><ellipse cx="2255.538" cy="749.372" rx="18.635" ry="16.086" transform="rotate(-60.276 2255.538 749.372)" style="mix-blend-mode:soft-light" opacity=".45" fill="#000000" class="color000 svgShape"/><path d="M2244.513 743.34c-3.986 6.981-2.332 15.43 3.695 18.871s14.143.57 18.13-6.411 2.332-15.431-3.695-18.872-14.144-.57-18.13 6.411Z" style="mix-blend-mode:soft-light" opacity=".45" fill="#000000" class="color000 svgShape"/><path fill="#f9a832" d="M2254.715 739.379c-3.028 2.026-3.648 7.346-1.385 11.884s6.55 6.575 9.578 4.55 3.647-7.347 1.385-11.885-6.551-6.575-9.579-4.55Z" class="colorf9a832 svgShape"/><path fill="#d33c3c" d="M2121.532 469.204s.445-11.403 8.977-11.825c0 0-1.698 2.3-1.047 6.795s-4.497 7.232-4.497 7.232l-3.401-1.509Z" class="colord33c3c svgShape"/><path fill="#d33c3c" d="M2118.34 469.683s-4.415-10.524 3.14-14.512c0 0-.569 2.802 1.922 6.601s-1.02 8.455-1.02 8.455l-3.72.07Z" class="colord33c3c svgShape"/><path fill="#d33c3c" d="M2115.65 471.464s-8.45-7.671-3.288-14.478c0 0 .67 2.78 4.532 5.17s2.65 8.094 2.65 8.094l-3.343 1.635Z" class="colord33c3c svgShape"/><path fill="#d33c3c" d="M2113.965 474.216s-10.9-3.382-9.099-11.732c0 0 1.782 2.236 6.292 2.77s5.822 6.216 5.822 6.216l-2.338 2.895Z" class="colord33c3c svgShape"/><path fill="#d33c3c" d="M2113.6 477.423s-11.308 1.541-13.204-6.788c0 0 2.56 1.274 6.873-.149s7.903 3.174 7.903 3.174l-.895 3.611Z" class="colord33c3c svgShape"/><path fill="#d33c3c" d="M2114.625 480.483s-9.597 6.176-14.836-.572c0 0 2.858.073 6.167-3.04s8.503-.463 8.503-.463l.715 3.651Z" class="colord33c3c svgShape"/><path fill="#d33c3c" d="M2116.847 482.823s-6.088 9.653-13.687 5.752c0 0 2.62-1.142 4.304-5.361s7.51-4.014 7.51-4.014l2.192 3.007Z" class="colord33c3c svgShape"/><path fill="#d33c3c" d="M2119.85 484.005s-1.438 11.321-9.974 10.997c0 0 1.893-2.142 1.635-6.678s5.11-6.812 5.11-6.812l3.258 1.8Z" class="colord33c3c svgShape"/><path fill="#d33c3c" d="M2123.071 483.807s3.482 10.868-4.392 14.182c0 0 .81-2.742-1.34-6.743s1.753-8.334 1.753-8.334l3.712.255Z" class="colord33c3c svgShape"/><path fill="#d33c3c" d="M2125.907 482.266s7.748 8.379 2.013 14.71c0 0-.425-2.827-4.064-5.545s-1.934-8.294-1.934-8.294l3.472-1.338Z" class="colord33c3c svgShape"/><path fill="#d33c3c" d="M2127.825 479.671s10.564 4.32 8.042 12.48c0 0-1.58-2.382-6.027-3.307s-5.258-6.7-5.258-6.7l2.581-2.68Z" class="colord33c3c svgShape"/><path fill="#d33c3c" d="M2128.468 476.509s11.399-.55 12.562 7.913c0 0-2.439-1.492-6.86-.451s-7.596-3.85-7.596-3.85l1.206-3.52Z" class="colord33c3c svgShape"/><path fill="#d33c3c" d="M2127.713 473.371s10.099-5.316 14.73 1.863c0 0-2.84-.322-6.408 2.49s-8.512-.279-8.512-.279l-.394-3.7Z" class="colord33c3c svgShape"/><path fill="#d33c3c" d="M2125.704 470.846s6.906-9.085 14.136-4.537c0 0-2.71.91-4.755 4.966s-7.832 3.344-7.832 3.344l-1.92-3.187Z" class="colord33c3c svgShape"/><path fill="#ba412d" d="M2121.532 469.204s.445-11.403 8.977-11.825c0 0-1.698 2.3-1.047 6.795s-4.497 7.232-4.497 7.232l-3.401-1.509Z" class="colorba412d svgShape"/><path fill="#ba412d" d="M2118.34 469.683s-4.415-10.524 3.14-14.512c0 0-.569 2.802 1.922 6.601s-1.02 8.455-1.02 8.455l-3.72.07Z" class="colorba412d svgShape"/><path fill="#ba412d" d="M2115.65 471.464s-8.45-7.671-3.288-14.478c0 0 .67 2.78 4.532 5.17s2.65 8.094 2.65 8.094l-3.343 1.635Z" class="colorba412d svgShape"/><path fill="#ba412d" d="M2113.965 474.216s-10.9-3.382-9.099-11.732c0 0 1.782 2.236 6.292 2.77s5.822 6.216 5.822 6.216l-2.338 2.895Z" class="colorba412d svgShape"/><path fill="#ba412d" d="M2113.6 477.423s-11.308 1.541-13.204-6.788c0 0 2.56 1.274 6.873-.149s7.903 3.174 7.903 3.174l-.895 3.611Z" class="colorba412d svgShape"/><path fill="#ba412d" d="M2114.625 480.483s-9.597 6.176-14.836-.572c0 0 2.858.073 6.167-3.04s8.503-.463 8.503-.463l.715 3.651Z" class="colorba412d svgShape"/><path fill="#ba412d" d="M2116.847 482.823s-6.088 9.653-13.687 5.752c0 0 2.62-1.142 4.304-5.361s7.51-4.014 7.51-4.014l2.192 3.007Z" class="colorba412d svgShape"/><path fill="#ba412d" d="M2119.85 484.005s-1.438 11.321-9.974 10.997c0 0 1.893-2.142 1.635-6.678s5.11-6.812 5.11-6.812l3.258 1.8Z" class="colorba412d svgShape"/><path fill="#ba412d" d="M2123.071 483.807s3.482 10.868-4.392 14.182c0 0 .81-2.742-1.34-6.743s1.753-8.334 1.753-8.334l3.712.255Z" class="colorba412d svgShape"/><path fill="#ba412d" d="M2125.907 482.266s7.748 8.379 2.013 14.71c0 0-.425-2.827-4.064-5.545s-1.934-8.294-1.934-8.294l3.472-1.338Z" class="colorba412d svgShape"/><path fill="#ba412d" d="M2127.825 479.671s10.564 4.32 8.042 12.48c0 0-1.58-2.382-6.027-3.307s-5.258-6.7-5.258-6.7l2.581-2.68Z" class="colorba412d svgShape"/><path fill="#ba412d" d="M2128.468 476.509s11.399-.55 12.562 7.913c0 0-2.439-1.492-6.86-.451s-7.596-3.85-7.596-3.85l1.206-3.52Z" class="colorba412d svgShape"/><path fill="#ba412d" d="M2127.713 473.371s10.099-5.316 14.73 1.863c0 0-2.84-.322-6.408 2.49s-8.512-.279-8.512-.279l-.394-3.7Z" class="colorba412d svgShape"/><path fill="#ba412d" d="M2125.704 470.846s6.906-9.085 14.136-4.537c0 0-2.71.91-4.755 4.966s-7.832 3.344-7.832 3.344l-1.92-3.187Z" class="colorba412d svgShape"/><path fill="#ffd31a" d="M2129.177 480.263a8.978 8.978 0 1 1-4.771-11.344 8.71 8.71 0 0 1 4.771 11.344Z" class="colorffd31a svgShape"/><path fill="#ba412d" d="M2127.045 479.317a6.641 6.641 0 1 1-3.53-8.391 6.443 6.443 0 0 1 3.53 8.391Z" class="colorba412d svgShape"/><ellipse cx="2120.986" cy="476.629" fill="#efdcd8" rx="3.5" ry="3.719" transform="rotate(-66.08 2120.986 476.629)" class="colorefdcd8 svgShape"/><path fill="#1c1c1b" d="m2171.836 599.924-48.849-21.38a31.087 31.087 0 0 1 12.178-10.327c5.237-2.372 12.071-3.184 20.05.784a27.61 27.61 0 0 1 4.236 2.565c15.074 10.482 12.385 28.358 12.385 28.358Z" class="color1c1c1b svgShape"/><path fill="#a5663c" d="M2111.427 573.887a95.519 95.519 0 0 1 18.857 4.202 158.144 158.144 0 0 1 17.622 6.881 155.352 155.352 0 0 1 16.689 8.909 94.243 94.243 0 0 1 15.442 11.613 94.248 94.248 0 0 1-18.862-4.19 155.34 155.34 0 0 1-17.617-6.893 158.13 158.13 0 0 1-16.682-8.922 95.466 95.466 0 0 1-15.449-11.6Z" class="colora5663c svgShape"/><path fill="#666665" d="M2159.45 571.566a14.126 14.126 0 0 1-24.285-3.349c5.237-2.372 12.071-3.184 20.05.784a27.61 27.61 0 0 1 4.236 2.565Z" class="color666665 svgShape"/><path fill="#1c1c1b" d="m2051.72 534.565-38.462-16.835a24.476 24.476 0 0 1 9.589-8.13c4.123-1.868 9.504-2.507 15.786.617a21.734 21.734 0 0 1 3.335 2.02c11.87 8.253 9.752 22.328 9.752 22.328Z" class="color1c1c1b svgShape"/><path fill="#a5663c" d="M2004.156 514.064a61.272 61.272 0 0 1 15.21 2.522 98.39 98.39 0 0 1 13.975 5.201 96.704 96.704 0 0 1 13.041 7.229 60.56 60.56 0 0 1 11.795 9.933 60.583 60.583 0 0 1-15.215-2.51 96.728 96.728 0 0 1-13.97-5.213 98.42 98.42 0 0 1-13.034-7.242 61.28 61.28 0 0 1-11.802-9.92Z" class="colora5663c svgShape"/><path fill="#666665" d="M2041.968 512.237a11.122 11.122 0 0 1-19.121-2.637c4.123-1.868 9.504-2.507 15.786.617a21.734 21.734 0 0 1 3.335 2.02ZM1993.644 492.976s-57.256 79.795 15.652 152.917 103.61 39.31 167.03 51.75 75.158-10.788 75.158-10.788l-5.72 38.282s-55.254 173.337-255.841 59.886c0 0-10.538 19.937 13.081 32.31 0 0-99.098 4.599-71.097-84.357 0 0-38.008 11.55-59.842-37.52 0 0 14.601 10.344 28.59-6.682 0 0-37.234-108.076 92.989-195.798Z" class="color666665 svgShape"/><path d="M1972.924 574.299c-25.496-5.434-45.031-1.895-59.127 4.054a195.78 195.78 0 0 1 20.25-31.485l.02-.042c17.539-6.818 31.608-8.304 40.722-8.22a112.655 112.655 0 0 0-1.865 35.693ZM1989.07 620.625c-14.154 4.114-26.37 17.666-47.088 41.306-28.066 32.115-41.324 26.864-41.324 26.864s-5.81-16.85-4.813-42.664c36.925-27.968 73.273-34.216 87.639-35.573 1.669 3.338 3.482 6.69 5.587 10.067Z" style="mix-blend-mode:soft-light" opacity=".8" fill="#000000" class="color000 svgShape"/><path d="m2003.003 817.33-.061.024c-2.907.095-98.605 3.261-71.03-84.374 0 0-38.002 11.563-59.834-37.532 51.162 54.734 118.006-19.58 139.753-47.096a4.651 4.651 0 0 0 .505.571c-9.95 15.743-29.816 49.356-51.41 97.604-29.963 66.84 38.328 70.634 41.931 70.79-33.282-7.305-33.345-49.215 8.4-78.209 29.722-20.637 32.574-49.567 31.74-64.56 15.076 10.214 28.273 15.488 40.81 18.113-29.28 52.405-93.878 92.347-93.878 92.347s-10.568 19.95 13.073 32.322ZM2058.483 814.961c-4.113-1.181-8.256-2.527-12.488-4.012 38.118-35.697 62.251-100.34 67.67-115.837.308-.017.617-.034.97-.032-2.887 54.96-32.665 95.885-56.152 119.881ZM2181.39 805.404c-17.909 10.68-40.296 18.008-67.847 18.118 51.738-44.719 41.632-101.948 32.75-128.982a168.968 168.968 0 0 1 30.037 3.081 186.988 186.988 0 0 0 23.29 3.22c7.445 32.544-4.829 73.222-18.23 104.563ZM2239.93 739.1c1.837-18.71-1.25-32.218-4.964-41.271 13.094-4.222 16.53-10.977 16.53-10.977l-5.754 38.28a117.208 117.208 0 0 1-5.811 13.969Z" style="mix-blend-mode:soft-light" opacity=".8" fill="#000000" class="color000 svgShape"/><path fill="#666665" d="M2022.105 582.765s-48.742-19.439-61.914-14.586c-12.864 4.74-26.583 37.482-31.402 39.928-4.781 2.427-7.205-4.311-7.205-4.311s-3.786 10.212 11.166 12.263c15.555 2.133 31.334-19.482 39.566-18.296 8.407 1.211 47.589 35.225 67.965 4.06Z" class="color666665 svgShape"/><path d="M2040.305 601.816c-20.368 31.164-59.597-2.828-67.987-4.028-8.249-1.198-24.017 20.418-39.574 18.26-14.251-1.941-11.466-11.353-11.155-12.218.281.674 2.67 6.552 7.181 4.278 1.215-.612 2.934-3.071 5.068-6.506 6.99-2.026 14.356-13.246 22.19-18.919 10.382-7.6 19.621-.012 19.621-.012-11.007-2.86-19.605 3.807-27.283 13.658-7.253 9.235-12.79 12.099-13.444 12.437 15.122 1.098 18.652-25.846 47.085-15.325 30.994 11.426 34.526-3.11 34.526-3.11a26.758 26.758 0 0 1-8.736-12.851c8.31 2.91 14.315 5.283 14.315 5.283Z" style="mix-blend-mode:soft-light" opacity=".8" fill="#000000" class="color000 svgShape"/><path fill="#666665" d="M2063.708 607.828s52.972 44.197 57.459 63.53c4.635 19.975-25.823 53.635-25.206 61.889.623 8.346 11.134 9.782 11.134 9.782s-10.093 9.754-23.703-12.867c-12.921-21.476 1.012-51.212-5.707-61.042-6.55-9.583-58.638-36.717-40.59-69.254Z" class="color666665 svgShape"/><path d="M2037.091 599.841c-18.05 32.528 34.038 59.72 40.566 69.288 6.742 9.846-7.2 39.567 5.751 61.038 12.929 21.52 22.77 13.682 23.639 12.866-1.1-.208-10.465-1.89-11.074-9.757-.161-2.093 1.582-5.64 4.217-10.186-2.807-11.139 5.354-26.286 6.297-39.555 1.313-17.134-14.2-25.22-14.2-25.22 11.18 12.53 9.593 26.86 3.44 41.58-5.784 14.008-5.211 23.21-5.142 24.31-11.856-21.155 17.497-37.22-14.344-68.624-28.862-28.527-16.846-38.704-16.846-38.704a32.335 32.335 0 0 0 17.817 2.784c-7.82-7.068-13.506-11.84-13.506-11.84Z" style="mix-blend-mode:soft-light" opacity=".8" fill="#000000" class="color000 svgShape"/><ellipse cx="2053.794" cy="591.504" fill="#e0ac89" rx="19.337" ry="36.684" transform="rotate(-60.105 2053.794 591.504)" class="colore0ac89 svgShape"/><path fill="#a5663c" d="M2085.903 609.22c-.658 4.044-4.485 7.298-8.415 8.87a31.232 31.232 0 0 1-12.492 1.859 55.121 55.121 0 0 1-41.417-23.784 31.188 31.188 0 0 1-4.689-11.733c-.617-4.19.264-9.137 3.43-11.743a13.459 13.459 0 0 0 1.458 10.275 35.656 35.656 0 0 0 6.243 8.17 84.31 84.31 0 0 0 36.072 20.743 35.517 35.517 0 0 0 10.207 1.278 13.425 13.425 0 0 0 9.603-3.935ZM2036.698 662.842a33.094 33.094 0 0 1-13.549-2.948 47.35 47.35 0 0 1-11.57-7.14 44.357 44.357 0 0 1-9.11-10.18 31.658 31.658 0 0 1-5.041-12.962 105.512 105.512 0 0 1 11.064 7.435 289.169 289.169 0 0 1 9.735 7.721 215.475 215.475 0 0 1 9.354 8.292 94.682 94.682 0 0 1 9.117 9.782Z" class="colora5663c svgShape"/><path d="m2003.003 817.33-.061.024-.085-.037a.17.17 0 0 1 .146.013Z" fill="#000000" class="color000 svgShape"/><path fill="#d39363" d="M2146.318 934.933c2.372-3.142 5.456-6.88 9.251-11.09-3.735 4.21-6.82 7.948-9.25 11.09Z" class="colord39363 svgShape"/></g></svg>