<svg xmlns="http://www.w3.org/2000/svg" viewBox="0 0 2800 1900"><defs><linearGradient id="c" x1="2484.522" x2="2993.97" y1="1028.202" y2="1537.649" gradientTransform="matrix(-1 0 0 1 3852.345 0)" gradientUnits="userSpaceOnUse"><stop offset="0" stop-color="#000000" class="stopColor000000 svgShape"/><stop offset="1" stop-color="#ffffff" class="stopColorfff svgShape"/></linearGradient><linearGradient id="e" x1="2484.522" x2="2993.97" y1="1028.202" y2="1537.649" gradientTransform="matrix(-1 0 0 1 3852.345 0)" gradientUnits="userSpaceOnUse"><stop offset="0" stop-color="#55f3ff" class="stopColor55f3ff svgShape"/><stop offset="1" stop-color="#55f3ff" class="stopColor55f3ff svgShape"/></linearGradient><filter id="b" width="720.465" height="659.771" x="870.281" y="707.728" color-interpolation-filters="sRGB" filterUnits="userSpaceOnUse"><feFlood flood-color="#fff" result="bg"/><feBlend in="SourceGraphic" in2="bg"/></filter><mask id="d" width="720.465" height="659.771" x="870.281" y="707.728" maskUnits="userSpaceOnUse"><g filter="url(#b)" mask="url(#a)" fill="#000000" class="color000 svgShape"><path style="mix-blend-mode:multiply" fill="url(#c)" d="m870.281 1085.002 463.073-377.274 257.393 538.292-226.402 121.479-494.064-282.497z"/></g></mask></defs><g data-name="Layer 1" fill="#000000" class="color000 svgShape"><ellipse cx="1400" cy="1696.955" opacity=".15" rx="652.548" ry="144.045" fill="#000000" class="color000 svgShape"/><path fill="#231c2d" d="M1211.96 653.794s-13.838 272.242 88.607 347.972 436.234-67.984 458.2-131.26-105.162-294.454-165.479-324.768-381.328 108.056-381.328 108.056Z" class="color231c2d svgShape"/><path fill="#c47c62" d="M1560.472 736.732c.703-3.276-15.452-86.072-15.452-86.072l-211.898 55.284 34.876 108.028 17.26 85.344 193.826-9.096s34.726-82.256 30.446-89.665-49.058-63.823-49.058-63.823Z" class="colorc47c62 svgShape"/><path fill="#ed9c1b" d="M1165.96 1712.641s-52.868-.104-91.347 16.403-83.735 29.025-83.833-13.948c0 0-13.36 41.954 30.32 55.147s73.344 1.606 90.737-4.727c14.736-5.365 38.214-6.573 56.705-10.42a8.994 8.994 0 0 0 6.727-11.407Z" class="colored9c1b svgShape"/><path d="M1168.54 1755.107c-18.501 3.838-41.973 5.058-56.71 10.404-17.385 6.351-47.037 17.932-90.743 4.723-39.437-11.911-32.349-47.25-30.582-54.02-.865 3.972-2.587 17.625 10.878 30.598 15.935 15.4 39.153 17.495 89.493 7.296 43.877-8.897 58.108-28.395 23.227-36.403a314.917 314.917 0 0 1 51.868-5.062l9.284 31.053a8.992 8.992 0 0 1-6.716 11.411Z" style="mix-blend-mode:soft-light" opacity=".3" fill="#000000" class="color000 svgShape"/><path fill="#ed9c1b" d="M1057.006 1589.74s-39.953 34.622-58.148 72.334-44.119 76.86-72.4 44.504c0 0 17.459 40.42 59.072 21.702s56.386-46.93 65.35-63.125c7.597-13.72 24.516-30.043 35.94-45.082a8.994 8.994 0 0 0-2.412-13.02Z" class="colored9c1b svgShape"/><path d="M1086.826 1620.083c-11.438 15.039-28.345 31.367-35.953 45.072-8.947 16.203-23.716 44.403-65.36 63.127-37.57 16.9-55.417-14.412-58.53-20.68 1.956 3.564 9.619 14.995 28.292 15.943 22.13 1.158 41.02-12.5 72.305-53.238 27.26-35.512 25.199-59.563-6.372-42.709a314.911 314.911 0 0 1 35.807-37.864l27.387 17.333a8.992 8.992 0 0 1 2.424 13.016Z" style="mix-blend-mode:soft-light" opacity=".3" fill="#000000" class="color000 svgShape"/><path fill="#ce3e3e" d="M1746.334 999.256s137.874 114.597 136.084 376.02-175.476 297.235-211.288 318.722-286.491 34.021-370.648 26.859-205.916-78.785-239.937-164.733-80.576-359.905 180.848-479.873 463.758-125.34 504.941-76.995Z" class="colorce3e3e svgShape"/><path d="M1680.671 1418.238c-53.7-90.118 84.93-229.544 154.26-289.039-39.249-88.94-88.59-129.94-88.59-129.94-41.19-48.353-243.517-42.974-504.957 77.003-261.409 119.945-214.87 393.927-180.84 479.874 34.028 85.948 155.787 157.571 239.953 164.733 84.133 7.163 334.813-5.38 370.625-26.866 30.209-18.145 158.653-46.476 199.08-212.004-71.782 5.538-153.687-3.63-189.53-63.76Zm-189.785 66.848c-138.47 5.985-223.24 181.445-223.24 181.445l-65.64-93.11s124.147-101.45 182.624-138.47c58.508-36.99 157.57 7.161 213.086 15.533 55.516 8.372 75.793 42.974 75.793 42.974s-44.151-14.324-182.623-8.372Z" style="mix-blend-mode:soft-light" opacity=".3" fill="#000000" class="color000 svgShape"/><path fill="#8d32ce" d="M1565.584 1328.82s48.248 78.687 32.133 121.66c0 0-102.063-26.858-182.639 28.65s-42.973 234.565-286.491 236.355c0 0-35.812-28.649-50.136-93.11 0 0-205.916-127.13-211.288-250.68s433.319-59.089 433.319-59.089Z" class="color8d32ce svgShape"/><path d="m1565.598 1328.82-265.101-16.202s-330.39-48.544-414.236 19.418c38.103 40.682 122.427 142.068 77.83 201.372v.032c55.58 52.65 114.374 88.94 114.374 88.94 14.325 64.46 50.136 93.11 50.136 93.11 243.519-1.783 205.892-180.84 286.492-236.356 80.568-55.516 182.623-28.65 182.623-28.65 16.107-42.973-32.118-121.663-32.118-121.663ZM1122.044 1532.9c2.132 3.278 112.305 171.004 243.486-35.876 0 0-134.842 305.528-243.486 35.876Zm13.115-14.389c-11.937-40.586 46.539-93.11 46.539-93.11 48.958 8.372 190.995-34.602 190.995-34.602 9.55 180.236-225.597 168.299-237.534 127.712Z" style="mix-blend-mode:soft-light" opacity=".3" fill="#000000" class="color000 svgShape"/><path fill="#ce3e3e" d="M1316.597 1350.208s-180.848-8.952-238.146 272.167c0 0-20.592 8.953-32.23 4.477l.895-18.801s-36.707 15.22-65.356-25.068c0 0-42.377-245.905 319.319-248.293s15.518 15.518 15.518 15.518Z" class="colorce3e3e svgShape"/><path d="M1316.604 1350.212s-180.84-8.945-238.139 272.168a74.884 74.884 0 0 1-7.926 2.833c1.496-144.392 65.797-215.315 65.797-215.315-103.837 71.623-89.226 198.157-89.226 198.157a49.06 49.06 0 0 1-20.373 2.674c-3.024-36.926-.063-129.24 89.322-205.606 0 0-119.372-2.387-134.301 177.848 0 0-42.369-245.906 319.311-248.293 361.713-2.388 15.535 15.534 15.535 15.534Z" style="mix-blend-mode:soft-light" opacity=".3" fill="#000000" class="color000 svgShape"/><path fill="#e5a488" d="M1149.523 796.262s-228.643 217.319 79.336 536.04l72.22 2.388Z" class="colore5a488 svgShape"/><path d="m1301.07 1334.678-72.196-2.388c-48.354-50.04-83.465-97.598-108.326-142.195 20.723-35.207 21.168-84.388 12.86-133.792-4.807-28.554-12.574-57.203-21.041-83.242-9.009-27.726-18.877-52.555-26.835-71.209 24.002-67.549 63.983-105.588 63.983-105.588l53.16 188.83 25.116 89.226Z" style="mix-blend-mode:soft-light" opacity=".3" fill="#000000" class="color000 svgShape"/><path fill="#ffbb10" d="M1227.791 1074.32a179.282 179.282 0 0 1-18.622-5.825c-68.09-24.83-110.045-8.372-132.869 9.104a324.442 324.442 0 0 1-7.735-93.524c53.86-22.474 125.07-8.69 125.07-8.69s3.565 3.724 9.04 9.709c25.34 27.917 91.2 105.429 25.116 89.226Z" class="colorffbb10 svgShape"/><path d="M1227.791 1074.32a179.282 179.282 0 0 1-18.622-5.825c-30.177-11.014-55.23-13.91-75.76-12.192-4.808-28.554-12.575-57.203-21.043-83.242 42.178-5.252 81.269 2.324 81.269 2.324s3.565 3.724 9.04 9.709c25.34 27.917 91.2 105.429 25.116 89.226Z" style="mix-blend-mode:soft-light" opacity=".3" fill="#000000" class="color000 svgShape"/><path fill="#e5a488" d="M1646.726 1189.45c-62.41 68.64-81.142 139.37-81.142 139.37-172.656 79.052-278.76 0-278.76 0-95.695-104.015-99.855-312.045-99.855-312.045-74.891-87.373-37.446-220.513-37.446-220.513 17.9-21.857 51.906-38.018 82.565-48.947a482.173 482.173 0 0 1 63.057-17.622c110.265 141.46 201.798-20.803 201.798-20.803 33.026-7.545 67.328-6.01 100.632.906 113.575 23.54 215.575 109.359 215.575 109.359 14.553 126.89-104.015 301.635-166.425 370.294Z" class="colore5a488 svgShape"/><path fill="#c47c62" d="M1736.175 844.114a391.172 391.172 0 0 1-20.043 75.13 342.519 342.519 0 0 1-15.75 35.912 256.067 256.067 0 0 1-20.37 33.9 200.29 200.29 0 0 1-26.233 30.332 144.025 144.025 0 0 1-33.565 23.329l-9.51 4.175c-3.263 1.176-6.577 2.238-9.874 3.348-3.337.966-6.759 1.66-10.152 2.454-3.407.761-6.663.962-10.003 1.467-6.643.859-13.27 1.894-20.004 1.94l-10.066.413c-3.357.185-6.7-.179-10.051-.245-26.915-.77-52.818-6.978-77.822-12.56-25.074-5.575-49.802-10.663-75.034-12.622-25.171-1.81-50.607-2.42-76.013.006-3.179.223-6.373.297-9.545.642l-9.514 1.115-19.063 2.23-38.026 6.07-.817.13-.405-.09a114.626 114.626 0 0 1-13.077-3.82 132.715 132.715 0 0 1-12.5-5.104c-8.099-3.869-15.803-8.882-21.763-15.488 6.766 5.793 14.86 9.434 23.063 12.324a128.524 128.524 0 0 0 12.564 3.579c4.216.971 8.575 1.775 12.726 2.331l-1.22.042c49.764-14.215 102.013-22.64 154.712-20.061 26.296 1.248 52.47 5.561 77.73 11.15 25.316 5.421 50.006 10.773 74.74 11.933 3.09.089 6.186.48 9.274.33l9.266-.295c6.192.047 12.333-.877 18.49-1.604 3.034-.428 6.25-.594 9.14-1.23 2.887-.658 5.83-1.095 8.702-1.843l8.533-2.597 8.313-3.344a127.828 127.828 0 0 0 30.372-19.797 189.1 189.1 0 0 0 25.68-26.862c15.473-19.713 28.397-41.784 39.309-64.878a532.517 532.517 0 0 0 27.806-71.842ZM1278.508 1150.438a73.388 73.388 0 0 1 4.692-20.447 83.777 83.777 0 0 1 43.323-47.07c13.444-6.403 28.289-9.244 42.88-9.822 14.505-.151 29.206 1.177 43.416 5.496a120.291 120.291 0 0 1 39.048 20.673 118.252 118.252 0 0 1 28.432 33.055 158.163 158.163 0 0 1 16.683 39.187 190.828 190.828 0 0 1 6.2 41.337c-4.491-13.145-9.035-26.002-14.731-38.23a193.978 193.978 0 0 0-20.138-34.259 118.972 118.972 0 0 0-60.88-44.08l-9.211-2.419c-3.075-.803-6.302-1.024-9.44-1.618l-4.74-.782-4.828-.3c-3.216-.156-6.457-.514-9.662-.564a113.47 113.47 0 0 0-37.484 5.587c-23.898 8.184-43.49 28.486-53.56 54.256Z" class="colorc47c62 svgShape"/><path fill="#ffe812" d="M1348.197 992.847c-110.34-10.374-127.758-106.253-124.282-180.478a438.689 438.689 0 0 1 8.173-65.054 482.173 482.173 0 0 1 63.057-17.622c110.265 141.46 201.798-20.803 201.798-20.803 32.546-7.434 66.311-6.047 99.152.61.5.092.98.185 1.48.296 3.143 106.345-81.585 298.843-249.378 283.05Z" class="colorffe812 svgShape"/><path fill="#ffbb10" d="M1596.095 709.5c-12.278 108.657-96.082 264.874-247.898 250.58-94.603-8.895-120.898-80.642-124.282-147.711a438.689 438.689 0 0 1 8.173-65.054 482.173 482.173 0 0 1 63.057-17.622c110.265 141.46 201.798-20.803 201.798-20.803 32.546-7.434 66.311-6.047 99.152.61Z" class="colorffbb10 svgShape"/><path d="M1646.726 1189.45c-62.41 68.64-81.142 139.37-81.142 139.37-172.656 79.052-278.76 0-278.76 0-.777-.85-1.554-1.7-2.312-2.57 89.925 23.78 180.94 24.261 200.985-60.356 42.124-177.871-173.192-173.193-173.192-173.193 170.067-62.409 238.726 104.552 238.726 104.552 6.232-151.354-176.317-151.354-274.6-143.55-50.427 3.994-75.39-1.443-87.743-7.675-1.497-18.232-1.72-29.253-1.72-29.253a177.01 177.01 0 0 1-24.667-37.686c50.981 46.358 139.796 32.73 165.61 27.811 32.768-6.25 109.212 6.232 216.87 10.91 107.658 4.697 96.748-140.406 96.748-140.406-256.515 37.833-394.795-63.15-446.775-114.334a332.175 332.175 0 0 1 37.334-15.755 482.173 482.173 0 0 1 63.057-17.622c110.265 141.46 201.798-20.803 201.798-20.803 33.026-7.545 67.328-6.01 100.632.906 113.575 23.54 215.575 109.359 215.575 109.359 14.553 126.89-104.015 301.635-166.425 370.294Z" style="mix-blend-mode:soft-light" opacity=".3" fill="#000000" class="color000 svgShape"/><path fill="#e5a488" d="M1846.614 983.725c-1.337 13.179-4.457 27.98-8.945 43.642-7.735 27.153-19.609 56.98-33.52 85.916a658.362 658.362 0 0 1-41.095 73.629 298.795 298.795 0 0 1-188.703 129.048q-8.834 1.863-17.826 3.216l-119.372 4.774s-27.44-20.309-15.502-58.508l141.432-107.498 32.85-24.988s7.8-35.557 22.347-83.051c9.709-31.737 22.442-68.822 37.88-104.22 37.722-86.266 91.519-162.44 156.998-126.534 0 0 45.393 47.59 33.456 164.574Z" class="colore5a488 svgShape"/><path fill="#ffbb10" d="M1574.351 1315.96q-8.834 1.863-17.826 3.215l-119.372 4.775s-27.44-20.309-15.502-58.508l141.432-107.498c17.252 26.04 43.737 83.242 11.268 158.016ZM1837.67 1027.367c-7.736 27.153-19.61 56.98-33.52 85.916-67.804-80.313-152.86-72.1-185.87-63.378 9.709-31.737 22.442-68.822 37.88-104.22 83.943-17.094 148.499 41.733 181.51 81.682Z" class="colorffbb10 svgShape"/><path d="M1825.828 838.314c-20.914 13.21-46.412 45.744-74.711 115.584-58.7 144.901-51.155 248.198-36.926 290.471a299.399 299.399 0 0 1-139.84 71.591q-8.834 1.863-17.826 3.216l-119.372 4.774a51.452 51.452 0 0 1-18.08-32.819c153.782 14.548 279.202-141.686 253.258-160.563-26.261-19.1-76.397 2.388-76.397 2.388s7.799-35.557 22.346-83.051c9.709-31.737 22.442-68.822 37.88-104.22 37.722-86.266 91.519-162.44 156.998-126.534 0 0 5.762 6.048 12.67 19.163Z" style="mix-blend-mode:soft-light" opacity=".3" fill="#000000" class="color000 svgShape"/><path fill="#e5a488" d="m1421.65 1265.442-85.357-3.867s-63.565 57.298-61.775 67.147 76.1 7.162 76.1 7.162 58.474 28.06 86.535-11.934c0 0-10.72-27.782-15.502-58.508Z" class="colore5a488 svgShape"/><path d="m1421.65 1265.442-85.357-3.867s-63.565 57.298-61.775 67.147 76.1 7.162 76.1 7.162 58.474 28.06 86.535-11.934c0 0-10.72-27.782-15.502-58.508Z" style="mix-blend-mode:soft-light" opacity=".3" fill="#000000" class="color000 svgShape"/><path fill="#4f4f4f" d="M1340.901 1369.923c20.435 23.736 40.076 11.45 147.975-2.424 107.94-13.916 118.555-18.304 118.555-18.304v-16.65a6.317 6.317 0 0 0-5.947-6.306l-266.767-15.657-23.57-1.379c5.266 16.298 15.797 44.547 29.755 60.72Z" class="color4f4f4f svgShape"/><g mask="url(#d)" fill="#000000" class="color000 svgShape"><path fill="url(#e)" d="m870.281 1085.002 463.073-377.274 257.393 538.292-226.402 121.479-494.064-282.497z"/></g><path fill="#606060" d="m863.87 1088.182 128.418 260.888a8.18 8.18 0 0 0 6.31 4.513l343.38 41.705s1.545-55.077-30.841-114.46c-32.387-59.423-91.267-183.745-128.877-204.43H871.225a8.174 8.174 0 0 0-7.354 11.784Z" class="color606060 svgShape"/><path fill="#9b9b9b" d="m1364.345 1367.499-29.628-56.917-121.898-234.185h-30.548l116.215 232.054 43.502 86.837 259.946-29.383a6.192 6.192 0 0 0 5.497-6.153v-10.557Z" class="color9b9b9b svgShape"/><path d="m865.793 1078.445 476.184 316.844-159.717-318.892H871.225a8.153 8.153 0 0 0-5.432 2.048Z" style="mix-blend-mode:soft-light" opacity=".5" fill="#000000" class="color000 svgShape"/><path fill="#f9a832" d="M1396.523 180.95S1320.78 61.878 1288.766 59.035s-40.4 168.46-35.445 165.721 143.202-43.806 143.202-43.806Z" class="colorf9a832 svgShape"/><path d="M1253.308 224.739c4.979-2.74 143.226-43.788 143.226-43.788s-75.746-119.058-107.772-121.899a9.126 9.126 0 0 0-4.676.841c23.108 26.078 69.666 93.752-31.244 127.992-1.31 22.02-1.072 37.718.466 36.854Z" style="mix-blend-mode:soft-light" opacity=".45" fill="#000000" class="color000 svgShape"/><ellipse cx="1412.309" cy="476.653" fill="#f7c434" rx="275.093" ry="268.047" transform="rotate(-15.98 1412.309 476.653)" class="colorf7c434 svgShape"/><ellipse cx="1412.309" cy="476.653" rx="246.068" ry="239.765" transform="rotate(-15.98 1412.309 476.653)" style="mix-blend-mode:soft-light" opacity=".45" fill="#000000" class="color000 svgShape"/><ellipse cx="1412.309" cy="476.653" rx="246.068" ry="239.765" transform="rotate(-15.98 1412.309 476.653)" style="mix-blend-mode:soft-light" opacity=".45" fill="#000000" class="color000 svgShape"/><ellipse cx="1412.309" cy="476.653" rx="246.068" ry="239.765" transform="rotate(-15.98 1412.309 476.653)" style="mix-blend-mode:soft-light" opacity=".45" fill="#000000" class="color000 svgShape"/><ellipse cx="1412.309" cy="476.653" rx="246.068" ry="239.765" transform="rotate(-15.98 1412.309 476.653)" style="mix-blend-mode:soft-light" opacity=".45" fill="#000000" class="color000 svgShape"/><path fill="#f9a832" d="m1426.252 265.774 20.12-86.34s-34.359-20.908-127.4 5.736-108.303 59.64-108.303 59.64l51.5 61.59Z" class="colorf9a832 svgShape"/><path d="m1240.651 280.678 21.523 25.728 164.087-40.617 18.186-78.077c-14.166-2.54-54.725-7.589-98.978 7.647l1.094 38.93s-40.41-4.185-105.912 46.389Z" style="mix-blend-mode:soft-light" opacity=".45" fill="#000000" class="color000 svgShape"/><path fill="#f9a832" d="M1507.375 302.977s-41.037-88.972-182.29-48.522-130.387 139.122-130.387 139.122Z" class="colorf9a832 svgShape"/><path fill="#f9a832" d="M1200.242 602.086a469.286 469.286 0 0 0 29.993 63.715c1.29 2.231 2.02 3.417 2.02 3.417l7.162-45.554 31.551-3.795 324.411-38.917 3.869-.467 25.467-26.858s5.167-298.31-221.03-281.185c-19.754 1.472-41.284 5.376-64.712 12.085-86.733 24.837-131.322 68.895-151.146 118.527-26.982 67.365-8.38 145.048 12.415 199.032Z" class="colorf9a832 svgShape"/><path d="M1200.242 602.086a469.286 469.286 0 0 0 29.993 63.715l-.55-41.574 41.283-4.358 320.647-33.767 3.764-5.15 19.605-26.762s5.005-289.67-211.299-281.748c-19.754 1.472-41.284 5.376-64.712 12.085-86.733 24.837-131.322 68.895-151.146 118.527 47.895-51.149 136.647-119.163 255.015-94.552 0 0 63.454 55.34 17.483 137.754 0 0-205.589-34.202-260.083 155.83Z" style="mix-blend-mode:soft-light" opacity=".45" fill="#000000" class="color000 svgShape"/><path fill="#e5a488" d="M1605.853 650.106c26.461 3.882 40.996-7.178 47.44-23.65 12.496-31.701-5.205-83.405-25.695-86.095l-.03.01a9.96 9.96 0 0 0-1.003-.09c-31.564-1.593-41.48 50.028-41.48 50.028s-57.562 48.3 20.768 59.797Z" class="colore5a488 svgShape"/><path d="M1605.853 650.106c26.461 3.882 40.996-7.178 47.44-23.65-18.473 27.305-47.205 5.036-33.624 3.031 15.355-2.286 35.153-47.462 21.909-57.693-9.24-7.155-24.362 7.88-32.672 17.612-.02.043-.04.087-.07.095-3.553 4.184-5.831 7.362-5.831 7.362-2.805-32.747 12.879-49 24.563-56.493a9.96 9.96 0 0 0-1.003-.09c-31.564-1.592-41.48 50.028-41.48 50.028s-57.562 48.301 20.768 59.798Z" style="mix-blend-mode:soft-light" opacity=".45" fill="#000000" class="color000 svgShape"/><path fill="#c47c62" d="M1597.149 632.45c-2.257-7.074-2.38-14.516-1.536-21.842a59.85 59.85 0 0 1 6.919-21.278 46.675 46.675 0 0 1 15.741-16.58c6.477-4.232 14.282-5.783 21.516-5.523-6.132 4.25-11.8 7.58-16.214 12.398a73.217 73.217 0 0 0-11.441 15.148c-6.278 11.227-10.341 23.861-14.986 37.677Z" class="colorc47c62 svgShape"/><path fill="#e5a488" d="M1381.43 842.77c106.968-11.104 239.676-57.664 232.526-180.923a184.924 184.924 0 0 0-2.886-23.376c-5.952-31.921-20.617-68.473-46.299-110.2 0 0-31.011-42.502-90.663-61.27-36.983-11.651-84.951-14.162-143.322 8.245 0 0-59.215 16.957-116.564 110.773 0 0 .577 2.926 1.573 7.88 4.51 22.798 17.245 88.628 18.308 111.545 1.287 27.904 8.055 151.763 147.327 137.327Z" class="colore5a488 svgShape"/><ellipse cx="1417.093" cy="595.039" rx="34.705" ry="40.206" transform="rotate(-15.98 1417.093 595.039)" style="mix-blend-mode:soft-light" opacity=".45" fill="#000000" class="color000 svgShape"/><ellipse cx="1419.896" cy="604.829" fill="#1b1723" rx="22.953" ry="26.591" transform="rotate(-15.98 1419.896 604.829)" class="color1b1723 svgShape"/><path fill="#ffffff" d="M1414.47 596.525c1.27 4.431-.803 8.91-4.627 10.006s-7.954-1.609-9.223-6.04.804-8.91 4.628-10.005 7.954 1.609 9.222 6.04ZM1422.123 605.564a3.687 3.687 0 1 1-4.67-3.058 3.969 3.969 0 0 1 4.67 3.058Z" class="colorfff svgShape"/><ellipse cx="1275.433" cy="637.869" rx="26.317" ry="30.488" transform="rotate(-15.981 1275.433 637.869)" style="mix-blend-mode:soft-light" opacity=".45" fill="#000000" class="color000 svgShape"/><ellipse cx="1277.559" cy="645.293" fill="#1b1723" rx="17.405" ry="20.164" transform="rotate(-15.98 1277.559 645.293)" class="color1b1723 svgShape"/><path fill="#ffffff" d="M1273.445 638.996c.962 3.36-.61 6.757-3.51 7.588s-6.03-1.22-6.993-4.58.61-6.757 3.51-7.587 6.03 1.22 6.993 4.58ZM1279.248 645.85a2.796 2.796 0 1 1-3.541-2.318 3.01 3.01 0 0 1 3.54 2.319Z" class="colorfff svgShape"/><path fill="#231c2d" d="M1299.156 620.115a16.42 16.42 0 0 0-1.75-.589 26.466 26.466 0 0 0-2.76-.871 56.506 56.506 0 0 0-7.278-1.58q-1.876-.329-3.855-.576a107.86 107.86 0 0 0-11.633-.562c-23.907.187-46.886 7.807-46.886 7.807-5.324-18.887 22.619-23.607 22.619-23.607-7.02-.166-18.46 6.498-19.178 6.914 11.202-9.448 21.644-14.33 30.361-16.69a55.041 55.041 0 0 1 15.969-2.061 42.637 42.637 0 0 1 7.406.813 14.773 14.773 0 0 1 2.134.548l3.63 7.315-.887-7.494a17.636 17.636 0 0 1 4.58 4.775c.029.004.022.036.044.072 4.207 6.321 4.818 14.46 4.907 15.717.53-13.301-4.214-20.095-4.214-20.095a13.197 13.197 0 0 1 2.126 1.855c8.352 9.003 4.665 28.309 4.665 28.309Z" class="color231c2d svgShape"/><path fill="#322a3f" d="M1283.513 616.5a107.86 107.86 0 0 0-11.633-.563c-2.014-13.812-8.046-21.487-13.084-25.577a55.041 55.041 0 0 1 15.969-2.06 37.755 37.755 0 0 1 8.747 28.2ZM1294.647 618.655a56.506 56.506 0 0 0-7.279-1.58c1.286-14.463-1.904-23.086-5.197-27.962a14.773 14.773 0 0 1 2.134.548l3.63 7.315-.887-7.494a17.636 17.636 0 0 1 4.58 4.775c.029.004.022.036.044.072a43.473 43.473 0 0 1 2.975 24.326ZM1299.156 620.115a16.42 16.42 0 0 0-1.75-.589c1.71-13.583-.607-22.533-2.915-27.72 8.352 9.003 4.665 28.309 4.665 28.309Z" class="color322a3f svgShape"/><path fill="#d33c3c" d="M1307.433 518.546s-4.207 72.011 19.898 64.37c0 0 23.28-2.528-19.898-64.37Z" class="colord33c3c svgShape"/><path fill="#231c2d" d="M1352.893 512.347a20.037 20.037 0 0 1 2.14-.656 32.174 32.174 0 0 1 3.367-.964 67.757 67.757 0 0 1 8.814-1.668q2.265-.335 4.645-.565a125.994 125.994 0 0 1 13.902-.27c28.448 1.084 55.095 11.211 55.095 11.211 8.109-22.87-24.72-29.633-24.72-29.633 8.374.048 21.37 8.595 22.187 9.128-12.453-11.936-24.428-18.272-34.586-21.466a62.851 62.851 0 0 0-18.821-3.088 50.315 50.315 0 0 0-8.894.728 17.86 17.86 0 0 0-2.592.593l-5.008 8.8 1.758-9.117a22.86 22.86 0 0 0-5.901 5.665c-.034.005-.03.044-.058.087-5.602 7.567-7.092 17.483-7.315 19.014.614-16.259 6.9-24.385 6.9-24.385a16.991 16.991 0 0 0-2.705 2.19c-10.789 10.692-8.208 34.396-8.208 34.396Z" class="color231c2d svgShape"/><path fill="#322a3f" d="M1371.859 508.493a125.994 125.994 0 0 1 13.902-.27c3.693-16.791 11.594-25.945 17.976-30.76a62.851 62.851 0 0 0-18.821-3.087 48.807 48.807 0 0 0-13.057 34.118ZM1358.4 510.727a67.757 67.757 0 0 1 8.814-1.668c-.176-17.705 4.43-28.12 8.808-33.955a17.86 17.86 0 0 0-2.592.593l-5.008 8.8 1.758-9.117a22.86 22.86 0 0 0-5.901 5.665c-.034.005-.03.044-.058.087a55.444 55.444 0 0 0-5.821 29.595ZM1352.893 512.347a20.037 20.037 0 0 1 2.14-.656c-.764-16.645 2.833-27.49 6.068-33.74-10.789 10.692-8.208 34.396-8.208 34.396Z" class="color322a3f svgShape"/><ellipse cx="1353.5" cy="687.908" fill="#f2baa7" rx="41.133" ry="21.682" transform="rotate(-15.809 1353.5 687.908)" class="colorf2baa7 svgShape"/><path fill="#c47c62" d="M1392.86 676.012c2.662 3.716 2.235 9.279.4 13.623a34.995 34.995 0 0 1-8.31 11.367c-6.855 6.37-15.289 10.505-24.03 13.07-8.782 2.414-18.135 3.319-27.314 1.493a34.958 34.958 0 0 1-13.044-5.317c-3.84-2.741-7.125-7.252-6.808-11.815a15.081 15.081 0 0 0 9.318 7.01 39.614 39.614 0 0 0 11.488 1.494 92.683 92.683 0 0 0 45.069-12.756 39.458 39.458 0 0 0 8.998-7.305 15.044 15.044 0 0 0 4.233-10.864Z" class="colorc47c62 svgShape"/><path d="M1301.066 822.017c1.362 1.231 52.455 44.767 211.916-16.202 71.796-27.458 96.112-86.633 100.974-143.968a184.924 184.924 0 0 0-2.886-23.376c-5.952-31.921-20.617-68.473-46.299-110.2 0 0-31.011-42.502-90.663-61.27-36.983-11.651-84.951-14.162-143.322 8.245 0 0-59.215 16.957-116.564 110.773 0 0 .577 2.926 1.573 7.88 18.785-28.261 81.519-109.18 186.557-114.756 127.396-6.814 180.977 271.883 110.664 307.587-70.322 35.67-138.72 54.54-211.95 35.287Z" style="mix-blend-mode:soft-light" opacity=".45" fill="#000000" class="color000 svgShape"/><path fill="#f9a832" d="M1239.838 336.751s207.738 119.258 54.404 170.083c0 0-135.661 57.877-54.404-170.083Z" class="colorf9a832 svgShape"/><path d="M1239.838 336.751s207.738 119.258 54.404 170.083c0 0-135.661 57.877-54.404-170.083Z" style="mix-blend-mode:soft-light" opacity=".45" fill="#000000" class="color000 svgShape"/><path d="M1245.306 351.914s170.278 97.754 44.594 139.414c0 0-111.199 47.44-44.594-139.414Z" style="mix-blend-mode:soft-light" opacity=".45" fill="#000000" class="color000 svgShape"/><path fill="#f9a832" d="M1254.8 378.242s105.238 60.415 27.56 86.162c0 0-68.724 29.32-27.56-86.162Z" class="colorf9a832 svgShape"/><path fill="#231c2d" d="M1474.108 467c1.686 5.55 4.152 12.797 7.429 21.057a281.074 281.074 0 0 0 10.213 22.597c1.42 2.798 2.879 5.622 4.479 8.481 10.917 19.832 26.002 41.033 46.304 58.516a156.277 156.277 0 0 0 42.305 26.262s21.327 61.748-13.06 72.688c0 0 30.833 2.895 39.292-38.13-3.723-19.931-10.84-41.718-21.954-65.414q-3.223-6.993-7.007-14.24a440.997 440.997 0 0 0-8.138-15.011 497.534 497.534 0 0 0-8.02-13.574c-.38-.645-.76-1.29-1.18-1.962 0 0-31.011-42.501-90.663-61.27Z" class="color231c2d svgShape"/><path fill="#322a3f" d="M1496.229 519.135c10.917 19.832 26.002 41.033 46.303 58.516 18.108.734 37.1-1.01 46.584-4.594q-3.223-6.993-7.007-14.24c-2.364-.87-5.088-1.748-8.214-2.662-39.268-11.45-63.95-26.51-77.666-37.02ZM1481.537 488.057a281.074 281.074 0 0 0 10.213 22.597c18.329 7.87 59.053 25.084 82.221 33.152a497.534 497.534 0 0 0-8.02-13.574c-49.087-28.919-73.966-38.871-84.414-42.175Z" class="color322a3f svgShape"/><ellipse cx="1638.168" cy="649.623" fill="#f9a832" rx="18.036" ry="20.895" transform="rotate(-15.98 1638.169 649.623)" class="colorf9a832 svgShape"/><ellipse cx="1638.168" cy="649.623" rx="18.036" ry="20.895" transform="rotate(-15.98 1638.169 649.623)" style="mix-blend-mode:soft-light" opacity=".45" fill="#000000" class="color000 svgShape"/><path d="M1624.694 653.747c2.481 8.666 10.558 13.955 18.038 11.812s11.533-10.904 9.051-19.57-10.557-13.955-18.038-11.813-11.533 10.904-9.051 19.57Z" style="mix-blend-mode:soft-light" opacity=".45" fill="#000000" class="color000 svgShape"/><ellipse cx="1639.306" cy="645.605" fill="#f9a832" rx="7.275" ry="10.38" transform="rotate(-64.933 1639.306 645.605)" class="colorf9a832 svgShape"/><path fill="#c47c62" d="M1399.47 773.24a38.05 38.05 0 0 1-11.537 10.295 54.537 54.537 0 0 1-14.004 5.927 50.962 50.962 0 0 1-15.165 1.837 36.373 36.373 0 0 1-15.107-3.504 129.676 129.676 0 0 1 13.99-5.105 424.264 424.264 0 0 1 13.411-3.885c4.473-1.2 8.997-2.287 13.65-3.297a115.415 115.415 0 0 1 14.763-2.268ZM1323.339 754.16c16.446-3.518 32.487-7.062 48.225-11.24 15.668-4.35 31.031-9.24 45.349-15.882 14.208-6.702 27.6-14.993 37.505-26.645a72.569 72.569 0 0 0 11.974-19.733c2.924-7.365 4.455-15.34 5.708-23.719a68.27 68.27 0 0 1 1.29 25.598 65.977 65.977 0 0 1-9.697 24.68c-9.703 15.334-24.966 25.864-40.565 33.199a170.54 170.54 0 0 1-49.327 13.752c-16.786 2.18-33.774 2.576-50.462-.01Z" class="colorc47c62 svgShape"/></g></svg>