<svg xmlns="http://www.w3.org/2000/svg" viewBox="0 0 2800 1900"><g data-name="Layer 1" fill="#000000" class="color000 svgShape"><ellipse cx="1400" cy="1737.381" opacity=".15" rx="683.464" ry="95.009" fill="#000000" class="color000 svgShape"/><path fill="#d39363" d="M1275.8557,443.9576c-14.9993,2.1125-27.3735-7.5608-35.8985-22.3846-16.7492-29.0037-18.7763-77.6715,2.9183-95.7426,8.5186-7.0679,16.2413-8.3381,23.0424-6.3071,19.3827,5.7933,31.095,38.3484,31.095,38.3484S1320.2442,437.695,1275.8557,443.9576Z" class="colord39363 svgShape"/><path d="M1275.8557,443.9576c-14.9993,2.1125-27.3735-7.5608-35.8985-22.3846,11.9782,6.8959,20.2227,4.6882,16.3403-8.1406-5.0945-16.7998-22.4149-52.1696-14.4305-66.0822,7.9715-13.9438,24.0031,12.0756,24.0031,12.0756,7.7055-17.6266,4.6001-31.144.0478-39.9025,19.3827,5.7933,31.095,38.3484,31.095,38.3484S1320.2442,437.695,1275.8557,443.9576Z" style="mix-blend-mode:soft-light" opacity=".45" fill="#000000" class="color000 svgShape"/><path fill="#a5663c" d="M1279.9523,407.7576c-3.4179-13.2956-6.0577-25.9802-10.9212-37.6259a74.92178,74.92178,0,0,0-8.9781-16.2307,62.08611,62.08611,0,0,0-14.4437-12.7681,32.75433,32.75433,0,0,1,19.3754,8.0512,48.26342,48.26342,0,0,1,12.1345,17.6289,64.74411,64.74411,0,0,1,4.6248,20.4074A59.284,59.284,0,0,1,1279.9523,407.7576Z" class="colora5663c svgShape"/><path fill="#f2b200" d="M1393.488,1702.0115s-44.4423-37.3877-115.0953,2.6961-69.8967-42.0212-69.8967-42.0212-10.7365,61.6777,35.2443,82.946,170.6808,5.3339,170.6808,5.3339Z" class="colorf2b200 svgShape"/><path d="M1414.4223,1750.9748s-124.6855,15.9468-170.6663-5.3275c-45.9807-21.2745-35.2439-82.964-35.2439-82.964s-.4206,44.5549,27.6239,51.9593a.04285.04285,0,0,1,.0402.0488c22.7734,31.4067,119.3115,26.5776,120.7896,9.332.9699-11.4657-17.851-26.4091-32.6994-36.2816,43.4696-7.4092,69.2384,14.2547,69.2384,14.2547Z" style="mix-blend-mode:soft-light" opacity=".43" fill="#000000" class="color000 svgShape"/><path fill="#f2b200" d="M1507.4905,1704.6749s46.1398-35.2713,114.8438,8.0682,71.7829-38.711,71.7829-38.711,7.8444,62.1117-39.0795,81.2095-170.7438-2.6428-170.7438-2.6428Z" class="colorf2b200 svgShape"/><path d="M1484.2924,1752.6072s123.8047,21.7523,170.7288,2.6486c46.9242-19.1039,39.08-81.2275,39.08-81.2275s-1.6606,44.5259-30.0203,50.6125a.04277.04277,0,0,0-.0424.0469c-24.2153,30.3089-120.4225,20.9766-121.0937,3.6808-.4333-11.4985,19.0649-25.5467,34.3582-34.715-43.0762-9.4311-69.8286,11.0057-69.8286,11.0057Z" style="mix-blend-mode:soft-light" opacity=".43" fill="#000000" class="color000 svgShape"/><path fill="#d39363" d="M1081.746,796.2882s92.0576,20.2143,170.5795-10.0381c78.4969-30.2114,45.5678-173.6203,45.5678-173.6203s-83.7406,40.1211-133.0932,59.9571c0,0,9.3753-26.4005,23.2232-58.85,13.2933-30.988,30.6676-67.4765,47.9131-91.5608,35.2222-49.185-35.625-57.5013-35.625-57.5013s-52.8729,35.9676-97.2071,90.515C1050.9657,619.3252,1010.5925,709.1213,1081.746,796.2882Z" class="colord39363 svgShape"/><path d="M1146.9721,603.8983a267.77547,267.77547,0,0,0-11.1723,43.8352c-16.0212,98.7222-32.7267,138.0032-54.0544,148.5386,0,0,92.0537,20.2247,170.591-10.0228a63.52561,63.52561,0,0,0,6.3059-2.772,68.91033,68.91033,0,0,0,26.6264-23.8356c34.5246-51.5705,12.6217-147.0201,12.6217-147.0201s-11.1329,5.3423-27.663,13.0776c-10.7828,34.2842-27.5867,59.734-45.1921,77.4503-13.1759,13.2936-26.7716,22.2641-38.6669,27.3969-17.0798,7.3158-30.603,6.8388-34.1653-.1176-9.8108-19.1069,12.5834-57.8489,12.5834-57.8489s9.3795-26.4095,23.2234-58.8305c13.3194-31.0028,30.6835-67.4674,47.9446-91.5798,21.5637-30.1372,3.2896-44.9464-14.0663-51.8663C1203.5385,493.8377,1166.9545,545.1715,1146.9721,603.8983Z" style="mix-blend-mode:soft-light" opacity=".25" fill="#000000" class="color000 svgShape"/><path fill="#e8be0f" d="M1164.802,672.588c4.4341,59.3214,69.4387,112.1572,69.4387,112.1572s98.8196,2.1759,30.2475-42.7665c-3.4951-2.2959-6.7911-4.6394-9.8648-7.0728a132.47084,132.47084,0,0,1-49.1846-79.4744C1189.3549,662.7353,1174.8411,669.0268,1164.802,672.588Z" class="colore8be0f svgShape"/><path d="M1186.3684,730.5464c20.4255,31.8811,47.8703,54.1789,47.8703,54.1789a194.5917,194.5917,0,0,0,24.4036-1.248c18.2455-2.1997,38.2277-8.088,26.6264-23.8356-3.5879-4.8957-10.1682-10.7229-20.7826-17.6496-3.5112-2.3065-6.7927-4.6429-9.8683-7.1081a133.48762,133.48762,0,0,1-29.5825-31.7345C1211.8594,716.4431,1198.2637,725.4136,1186.3684,730.5464Z" style="mix-blend-mode:soft-light" opacity=".25" fill="#000000" class="color000 svgShape"/><path fill="#bc9b7a" d="M1324.0939,984.3542s-188.8555,713.9369,95.3841,741.4743,243.1157-270.9067,240.2352-446.2863-2.2549-340.6803-2.2549-340.6803Z" class="colorbc9b7a svgShape"/><path d="M1656.006,1536.447c-3.4105,22.2374-8.3065,43.5676-15.2094,63.4242-47.2244-3.1113-123.1282-35.4289-149.038-202.7528,0,0-8.3152,209.0182,86.4034,294.5807-36.1226,27.2841-87.0838,41.0368-158.6983,34.1203-47.8548-4.6269-82.3071-28.7403-106.4881-65.638,28.9443-47.5155,59.2286-142.8476,64.9244-334.1441,0,0-31.6338,148.5529-89.4932,195.8511,0,0,72.2024-113.4676,93.0747-330.3966,0,0-31.0768,141.5063-117.9981,186.5319,1.3211-34.5226,4.1264-69.3213,7.8465-103.1882,39.9616-11.4416,91.6987-46.7918,111.9219-149.8477,0,0-26.6774,49.3117-96.2442,37.3214,17.1584-102.6246,37.0797-177.9555,37.0797-177.9555l333.365-45.4875s-.6082,165.2769,2.272,340.6667c.8666,51.8992,5.036,114.5769,3.1557,176.3835-53.752-8.6897-125.2702-46.9656-180.6635-172.982C1482.2165,1282.9344,1492.7343,1516.755,1656.006,1536.447Z" style="mix-blend-mode:soft-light" opacity=".25" fill="#000000" class="color000 svgShape"/><path fill="#dbc6af" d="M1404.2402,1093.0008l-32.0277,636.0076s18.7099,41.55,100.0692,33.73l.6198-23.2832,18.9475-2.8242-35.3919-667.3892Z" class="colordbc6af svgShape"/><path d="M1489.5235,1736.9549l-46.8673-574.8813,15.5591,601.5442a150.87992,150.87992,0,0,1-33.7207-2.4362l-6.6291-613.1019-29.3201,598.5744c-12.3482-8.7709-16.3397-17.6348-16.3397-17.6348l32.0281-636.0187,52.2332-23.7389,35.3801,667.3606Z" style="mix-blend-mode:soft-light" opacity=".25" fill="#000000" class="color000 svgShape"/><path fill="#a88e76" d="M1428.7558,1117.323c1.1176,26.1956,1.7701,52.396,2.6676,78.5942l1.9078,78.6026c1.2621,52.4022,1.9526,104.8102,2.6409,157.2188.5154,52.4107,1.0162,104.8213.9542,157.2383l-.1193,78.6257c-.3058,26.2119-.361,52.4206-.8869,78.6346-1.1234-26.1951-1.776-52.396-2.6787-78.5937l-1.91-78.6031c-1.2558-52.4017-1.9493-104.8102-2.6277-157.2188-.506-52.4106-1.0093-104.8213-.9415-157.2382l.1171-78.6257C1428.1799,1169.7458,1428.235,1143.537,1428.7558,1117.323Z" class="colora88e76 svgShape"/><path fill="#dbc6af" d="M1428.519,1165.9018s-18.2824,175.8961-3.4443,176.2428c14.885.3478,83.1562-30.4872,124.1253-48.4596,40.9692-17.9245,69.2052-13.229,85.6873-23.6539,16.4351-10.426-34.5495-26.4631-35.6092-38.691-1.0608-12.1799,84.1845-16.9146,84.1845-16.9146l5.9095-195.3549a69.561,69.561,0,0,0,25.6879-11.6511c24.8848-18.4444,34.0063-53.1116,34.1831-93.5608-.0189-1.2496.0103-2.4982-.0087-3.7475l.0023-.0962c-.0412-2.355-.0823-4.7101-.1715-7.0666q-.1203-4.0386-.3838-8.2244c-.1317-2.5977-.3103-5.2443-.537-7.8919-.4109-5.0062-.9156-10.1107-1.5177-15.2174-.1631-1.253-.3239-2.5541-.4859-3.8552-.4066-3.1803-.8589-6.4097-1.3125-9.6395-.2916-1.9284-.5831-3.809-.8747-5.7378-.4201-2.6041-.839-5.2081-1.3071-7.8137-.5887-3.569-1.2759-7.0922-1.9607-10.6634-.5978-3.2332-1.2424-6.4671-1.9362-9.6542-2.3754-11.442-5.0414-22.7949-7.9063-33.8158-.0447-.1453-.0883-.3384-.133-.4837-.3944-1.6426-.8369-3.2385-1.2805-4.8344-5.1634-19.5786-10.8322-38.1121-16.263-54.4781-.8538-2.5661-1.6594-5.0833-2.5143-7.5536-3.0127-8.8145-5.8991-16.9053-8.5185-24.0289-.7264-1.8427-1.3578-3.587-1.9914-5.2835-.362-.9213-.7252-1.8427-1.0415-2.7148-.6783-1.7935-1.36-3.4909-1.9947-5.0912-.3174-.8241-.6347-1.6004-.9532-2.3764-.5901-1.5032-1.1321-2.9571-1.7255-4.3164-.2727-.679-.5442-1.3581-.818-1.9888-1.2717-3.1527-2.4116-5.7736-3.2788-7.7158-.2749-.5829-.5499-1.1658-.8706-1.7979-.3218-.6322-.6437-1.2643-1.0148-1.8495q-1.03755-1.8258-2.3603-3.8027c-.3252-.4879-.6504-.9759-1.0237-1.4652-1.2081-1.7097-2.6074-3.52-4.1509-5.3337a41.79642,41.79642,0,0,0-2.7594-3.2355q-1.05285-1.1775-2.2476-2.5029l-1.5937-1.6705q-4.08225-4.2033-8.7367-8.5639c-.9869-.9359-2.023-1.8248-3.0579-2.7619-1.3647-1.233-2.7294-2.466-4.1902-3.7012-1.6462-1.48-3.3909-2.914-5.1345-4.3479-8.6228-7.2641-18.0157-14.4501-27.3695-21.2507-1.1345-.7951-2.2678-1.6382-3.4022-2.4336-11.34-8.1921-22.5023-15.7077-32.0137-21.9354-15.9952-10.4633-27.3677-17.2148-27.3677-17.2148l-19.4779.8422-173.7541,7.279-33.5202,1.427-8.8251,5.5111-84.4547,53.1337C1234.8524,1040.449,1428.519,1165.9018,1428.519,1165.9018Z" class="colordbc6af svgShape"/><path d="M1428.5128,1165.9158s-18.2654,175.8918-3.4295,176.2384c14.872.3475,83.1514-30.4971,124.1208-48.4751,40.9681-17.9057,69.2073-13.2273,85.6702-23.6317,16.4639-10.4406-34.5364-26.4763-35.5903-38.702-1.055-12.1895,84.1739-16.9323,84.1739-16.9323l5.9031-195.333a69.27579,69.27579,0,0,0,25.6888-11.6734c24.9051-18.4258,34.0064-53.1148,34.191-93.5515-.0075-1.2312.0221-2.4976-.0216-3.7297l.0025-.1084q-.02625-3.53085-.1607-7.0638c-.0823-2.6811-.1989-5.4354-.3871-8.2277-.1201-2.6094-.3117-5.2568-.5395-7.9052-.3898-5.0055-.9229-10.0865-1.4913-15.2048-.1875-1.2715-.3388-2.5423-.4892-3.8491-.4323-3.1962-.8635-6.4284-1.3311-9.6616-.2809-1.9255-.5634-3.7786-.8797-5.741-.4104-2.5802-.8206-5.1602-1.3026-7.7784-.1892-1.199-.3784-2.3982-.6047-3.5621-.4517-2.364-.9033-4.7277-1.354-7.1279-.576-3.2355-1.2246-6.473-1.9472-9.6397-2.3751-11.4602-5.0432-22.7822-7.8989-33.8191a2.3511,2.3511,0,0,0-.1339-.4739c-.3962-1.6383-.8294-3.2414-1.2627-4.8446-5.1909-19.5633-10.8397-38.1238-16.2867-54.4708-.8446-2.5904-1.6547-5.1074-2.5027-7.5529-3.0159-8.832-5.9047-16.9009-8.5262-24.0222-.6807-1.8624-1.3638-3.6161-1.9763-5.2959-.3768-.914-.7166-1.8631-1.0591-2.7039-.6815-1.8262-1.3299-3.5066-1.9803-5.1149-.3071-.8038-.6503-1.6082-.9583-2.3758-.5804-1.4978-1.1257-2.9589-1.7095-4.3121-.2743-.658-.5476-1.3523-.8228-1.9742-1.2652-3.1796-2.4356-5.7773-3.2954-7.7164-.2758-.5856-.5519-1.1715-.8633-1.7942-.3103-.6589-.6579-1.2824-1.0061-1.87-.6959-1.2108-1.4993-2.4607-2.3735-3.7844a13.36876,13.36876,0,0,0-1.0157-1.4721c-1.2267-1.7301-2.5965-3.5362-4.1473-5.3466-.8439-1.0696-1.724-2.14-2.7488-3.2141-.7051-.8128-1.4827-1.6276-2.2584-2.5146l-1.5903-1.6665c-2.7219-2.815-5.6602-5.6715-8.7424-8.5676-.9922-.9283-2.0212-1.8212-3.0495-2.7504-1.3824-1.2631-2.7295-2.4894-4.1853-3.7182-1.6668-1.487-3.4077-2.9035-5.1478-4.3562-8.6284-7.2616-18.0188-14.4323-27.3817-21.2404-1.1402-.787-2.2425-1.6454-3.3827-2.4325-11.3579-8.1942-22.5149-15.6959-32.0359-21.9283-15.9753-10.4743-27.3669-17.2213-27.3669-17.2213l-19.4621.8486-173.7728,7.2723-33.523,1.4255-8.8181,5.5142L1283.87,608.2014a337.76682,337.76682,0,0,0,30.6593,60.7079c33.683,52.1618,91.3014,104.159,181.0877,77.9081a236.19823,236.19823,0,0,0,37.6385-14.87c19.7423-9.7483,40.8347-23.0497,63.3278-40.5182a433.02017,433.02017,0,0,1-27.7016,90.0826c-19.3529,44.225-50.4529,90.7097-98.0001,103.5376-97.3525,26.2191-180.1117-91.7879-193.2561-226.5241,0,0-14.4808,227.7534,211.3096,324.6995,0,0-6.1688,90.4772-11.2473,89.3447-4.9691-1.166-218.1498-78.4119-221.6336-446.8794l-13.0444,8.2035C1234.8505,1040.4664,1428.5128,1165.9158,1428.5128,1165.9158Z" style="mix-blend-mode:soft-light" opacity=".25" fill="#000000" class="color000 svgShape"/><path fill="#d39363" d="M1435.3258,942.8667s-41.2853-45.1053-52.0684-46.2581-24.7299,17.4389-24.7299,17.4389-44.1797,1.6703-47.9704,9.6892,17.2706,31.9327,17.2706,31.9327,2.0447,66.7093,23.4846,74.4168,84.1314-15.1502,84.1314-15.1502S1439.9916,974.5048,1435.3258,942.8667Z" class="colord39363 svgShape"/><path d="M1310.7877,929.7877c3.237,10.213,17.0271,25.8863,17.0271,25.8863s23.9205-4.184,27.7832,4.0524c3.5192,7.4317,16.1585,64.6052-7.6123,68.5754a14.72347,14.72347,0,0,0,3.3255,1.7793c4.8109,1.7416,11.7584,1.904,19.5963,1.1457-.2821-20.4623.2759-76.893,14.9263-79.4471,16.4679-2.8738,46.9869,1.858,34.3216,68.2156,9.1173-2.8283,15.2884-5.0735,15.2884-5.0735s4.5646-40.4068-.1269-72.0511c0,0-22.0646-24.121-38.1522-37.5308,5.8503,8.3915,9.8094,17.1369,8.0206,23.9741-3.3001,12.6309-26.4273-6.3016-41.9451-20.8565-2.8599,3.083-4.7283,5.5738-4.7283,5.5738s21.8009,12.1672,23.1186,20.8511C1382.7278,942.149,1330.5494,942.4505,1310.7877,929.7877Z" style="mix-blend-mode:soft-light" opacity=".25" fill="#000000" class="color000 svgShape"/><path fill="#dbc6af" d="M1425.0747,1342.1446c14.885.3478,83.1562-30.4872,124.1253-48.4596,40.9692-17.9245,69.2052-13.229,85.6873-23.6539,16.4351-10.426-34.5495-26.4631-35.6092-38.691-1.0608-12.1799,84.1845-16.9146,84.1845-16.9146l5.9095-195.3549a69.561,69.561,0,0,0,25.6879-11.6511l-6.5094-56.6044-61.1925-99.3923-35.2755,6.6226-19.5651,27.2166s-51.0923,27.633-157.2013,57.5839c0,0,4.7499,162.7414-6.7972,223.0559C1428.519,1165.9018,1410.2366,1341.7979,1425.0747,1342.1446Z" class="colordbc6af svgShape"/><path d="M1650.3378 1217.1873c17.6764-1.9042 33.1201-2.7742 33.1201-2.7742l5.9031-195.333a69.27579 69.27579 0 0025.6888-11.6734l-6.498-56.5955-61.1814-99.4002-35.2739 6.6341-8.9432 12.4268C1615.0651 876.6514 1690.4076 927.7954 1650.3378 1217.1873zM1568.1242 1286.5905c30.8923-9.7054 52.9693-7.8138 66.7501-16.5431 16.4639-10.4406-34.5364-26.4763-35.5903-38.702a1.1346 1.1346 0 01.0883-.6858.45941.45941 0 01.0413-.2163c1.6837-14.7321 23.0615-207.6038-7.6824-287.9369C1591.7312 942.5064 1580.8529 1184.9706 1568.1242 1286.5905zM1467.977 1328.6019c6.9436-2.7704 14.3292-5.8564 21.8982-9.0466 20.0978-91.5998 50.9065-271.2897 18.2776-399.566-3.8332 1.3585-7.8473 2.713-11.9709 4.1012C1509.3907 975.4843 1532.1868 1115.5148 1467.977 1328.6019zM1425.0833 1342.1542a37.20653 37.20653 0 009.5253-1.6964l15.4353-401.8771c-4.7758 1.4089-9.697 2.8508-14.7261 4.2538 0 0 4.7421 162.7439-6.805 223.0813C1428.5128 1165.9158 1410.2474 1341.8076 1425.0833 1342.1542z" style="mix-blend-mode:soft-light" opacity=".25" fill="#000000" class="color000 svgShape"/><path fill="#d39363" d="M1336.2853,575.2504s9.5422,25.4462,34.6338,59.9038a404.48064,404.48064,0,0,0,86.2881,86.3339,440.04344,440.04344,0,0,0,59.671,37.043,484.87994,484.87994,0,0,0,79.1918,32.2624l-.5233,14.161-1.3599,35.6171-1.6693,44.6904,23.2367-11.6122s71.1,22.8486,73.6179,145.4208a69.561,69.561,0,0,0,25.6879-11.6511c24.8848-18.4444,34.0063-53.1116,34.1831-93.5608-.0189-1.2496.0103-2.4982-.0087-3.7475l.0023-.0962c-.0412-2.355-.0823-4.7101-.1715-7.0666q-.1203-4.0386-.3838-8.2244c-.1317-2.5977-.3103-5.2443-.537-7.8919-.4109-5.0062-.9156-10.1107-1.5177-15.2174-.1631-1.253-.3239-2.5541-.4859-3.8552-.4066-3.1803-.8589-6.4097-1.3125-9.6395-.2916-1.9284-.5831-3.809-.8747-5.7378-.9607-6.1719-2.0668-12.2995-3.2678-18.4771-.5978-3.2332-1.2424-6.4671-1.9362-9.6542-2.3754-11.442-5.0414-22.7949-7.9063-33.8158-.0447-.1453-.0883-.3384-.133-.4837-.3944-1.6426-.8369-3.2385-1.2805-4.8344-5.1634-19.5786-10.8322-38.1121-16.263-54.4781-.8045-2.565-1.6594-5.0833-2.5143-7.5536-3.0127-8.8145-5.8991-16.9053-8.5185-24.0289-.6783-1.8416-1.3578-3.587-1.9914-5.2835-.362-.9213-.7252-1.8427-1.0415-2.7148-.6783-1.7935-1.36-3.4909-1.9947-5.0912-.3174-.8241-.6347-1.6004-.9532-2.3764-.5901-1.5032-1.1321-2.9571-1.7255-4.3164-.2727-.679-.5442-1.3581-.818-1.9888-1.2717-3.1527-2.4116-5.7736-3.2788-7.7158-.2749-.5829-.5499-1.1658-.8706-1.7979-.3218-.6322-.6437-1.2643-1.0148-1.8495q-1.03755-1.8258-2.3603-3.8027c-.3252-.4879-.6504-.9759-1.0237-1.4652-1.2081-1.7097-2.6074-3.52-4.1509-5.3337a41.79642,41.79642,0,0,0-2.7594-3.2355q-1.05285-1.1775-2.2476-2.5029l-1.5937-1.6705q-4.08225-4.2033-8.7367-8.5639c-.9869-.9359-2.023-1.8248-3.0579-2.7619-1.3647-1.233-2.7294-2.466-4.1902-3.7012-1.6462-1.48-3.3909-2.914-5.1345-4.3479-8.6228-7.2641-18.0157-14.4501-27.3695-21.2507-1.1345-.7951-2.2678-1.6382-3.4022-2.4336-11.34-8.1921-22.5023-15.7077-32.0137-21.9354-15.9952-10.4633-27.3677-17.2148-27.3677-17.2148l-19.4779.8422-173.7541,7.279Z" class="colord39363 svgShape"/><path d="M1336.2683,575.2481s9.5426,25.4577,34.6607,59.8964a403.10593,403.10593,0,0,0,86.287,86.3373,426.19813,426.19813,0,0,0,38.401,25.3356,236.19823,236.19823,0,0,0,37.6385-14.87c19.7423-9.7483,40.8347-23.0497,63.3278-40.5182a433.02017,433.02017,0,0,1-27.7016,90.0826q13.1361,4.9233,27.1902,9.2883s-1.3011-108.573,38.1915-100.518c23.0975,4.7033,47.2361,40.7844,50.5892,90.9703a190.57961,190.57961,0,0,1-3.4455,49.8464c-4.55,22.7391-13.4777,46.8964-28.0605,71.3561,17.4953,21.3353,34.794,57.2928,36.0144,116.6252a69.27579,69.27579,0,0,0,25.6888-11.6734c24.9051-18.4258,34.0064-53.1148,34.191-93.5515-.0075-1.2312.0221-2.4976-.0216-3.7297l.0025-.1084q-.02625-3.53085-.1607-7.0638c-.0823-2.6811-.1989-5.4354-.3871-8.2277-.1201-2.6094-.3117-5.2568-.5395-7.9052-.3898-5.0055-.9229-10.0865-1.4913-15.2048-.1875-1.2715-.3388-2.5423-.4892-3.8491-.4323-3.1962-.8635-6.4284-1.3311-9.6616-.2809-1.9255-.5634-3.7786-.8797-5.741-.4104-2.5802-.8206-5.1602-1.3026-7.7784-.158-.981-.3161-1.9623-.5112-2.9083-.4466-2.581-.9295-5.1627-1.4475-7.7817-.576-3.2355-1.2246-6.473-1.9472-9.6397-2.3751-11.4602-5.0432-22.7822-7.8989-33.8191a2.3511,2.3511,0,0,0-.1339-.4739c-.3962-1.6383-.8294-3.2414-1.2627-4.8446-5.1909-19.5633-10.8397-38.1238-16.2867-54.4708-.8446-2.5904-1.6547-5.1074-2.5027-7.5529-3.0159-8.832-5.9047-16.9009-8.5262-24.0222-.6807-1.8624-1.3638-3.6161-1.9763-5.2959-.3768-.914-.7166-1.8631-1.0591-2.7039-.6815-1.8262-1.3299-3.5066-1.9803-5.1149-.3071-.8038-.6503-1.6082-.9583-2.3758-.5804-1.4978-1.1257-2.9589-1.7095-4.3121-.2743-.658-.5476-1.3523-.8228-1.9742-1.2652-3.1796-2.4356-5.7773-3.2954-7.7164-.2758-.5856-.5519-1.1715-.8633-1.7942-.3103-.6589-.6579-1.2824-1.0061-1.87-.6959-1.2108-1.4993-2.4607-2.3735-3.7844a13.36876,13.36876,0,0,0-1.0157-1.4721c-1.2267-1.7301-2.5965-3.5362-4.1473-5.3466-.8439-1.0696-1.724-2.14-2.7488-3.2141-.7051-.8128-1.4827-1.6276-2.2584-2.5146l-1.5903-1.6665c-2.7219-2.815-5.6602-5.6715-8.7424-8.5676-.9922-.9283-2.0212-1.8212-3.0495-2.7504-1.3824-1.2631-2.7295-2.4894-4.1853-3.7182-1.6668-1.487-3.4077-2.9035-5.1478-4.3562-8.6284-7.2616-18.0188-14.4323-27.3817-21.2404-1.1402-.787-2.2425-1.6454-3.3827-2.4325-11.3579-8.1942-22.5149-15.6959-32.0359-21.9283-15.9753-10.4743-27.3669-17.2213-27.3669-17.2213l-19.4621.8486-173.7728,7.2723Z" style="mix-blend-mode:soft-light" opacity=".25" fill="#000000" class="color000 svgShape"/><path fill="#e8be0f" d="M1392.2831 837.3438c52.6646 1.7108 93.6968-33.3158 124.5951-78.8127 41.4434-60.913 64.6837-140.5563 73.527-175.6141-15.9952-10.4633-27.3677-17.2148-27.3677-17.2148l-19.4779.8422c-13.6949 55.6517-49.0206 126.0764-86.3524 154.9437-15.0716 11.7071-30.4634 16.5842-44.8896 10.9623-27.281-10.6307-37.897-53.8785-41.3985-97.2962a548.8056 548.8056 0 01-1.1136-61.3308l-33.5202 1.427-8.8251 5.5111C1307.803 677.6882 1291.8494 834.0845 1392.2831 837.3438zM1594.1868 840.5716c69.6254-25.086 125.1117-2.2178 149.7668 11.8106-.9607-6.1719-2.0668-12.2995-3.2678-18.4771-.5978-3.2332-1.2424-6.4671-1.9362-9.6542-2.3754-11.442-5.0414-22.7949-7.9063-33.8158-60.3921-22.6468-113.7654 1.9061-135.2966 14.5194z" class="colore8be0f svgShape"/><path d="M1314.5293 668.9093c33.683 52.1618 91.3014 104.159 181.0877 77.9081a236.19823 236.19823 0 0037.6385-14.87c31.3172-55.7843 49.5547-118.898 57.1376-149.0244-15.9753-10.4743-27.3669-17.2213-27.3669-17.2213l-19.4621.8486c-13.6823 55.6534-49.0345 126.0789-86.3481 154.9315-15.0814 11.704-30.4741 16.594-44.8972 10.9712-27.2674-10.6297-37.9148-53.89-41.3898-97.3085a546.35093 546.35093 0 01-1.1377-61.3219l-33.523 1.4255-8.8181 5.5142C1322.0903 607.1754 1317.026 637.9761 1314.5293 668.9093zM1681.4071 831.0988a178.7914 178.7914 0 0162.536 21.2651c-.4104-2.5802-.8206-5.1602-1.3026-7.7784-.158-.981-.3161-1.9623-.5112-2.9083-.4466-2.581-.9295-5.1627-1.4475-7.7817-.576-3.2355-1.2246-6.473-1.9472-9.6397-2.3751-11.4602-5.0432-22.7822-7.8989-33.8191a144.06114 144.06114 0 00-45.9831-9.1843A190.57961 190.57961 0 011681.4071 831.0988z" style="mix-blend-mode:soft-light" opacity=".25" fill="#000000" class="color000 svgShape"/><path fill="#21201f" d="M1618.2338,381.5993s91.0799,42.3848,69.0242,125.9392-95.0037,57.8094-114.6072,44.5594S1618.2338,381.5993,1618.2338,381.5993Z" class="color21201f svgShape"/><path fill="#707070" d="M1251.2906,410.1999c2.4613,8.9738,4.896,69.012,4.896,69.012l-16.138-3.7415-1.97-107.4701.001-.0248-.2191-11.516-.8075-44.0094,12.6879.5028Z" class="color707070 svgShape"/><path fill="#d39363" d="M1242.0597,493.2213c1.3939.0325,2.7173.1667,4.0457.2932-.0007-.3477-.0013-.656-.0017-1.0105,20.3555-5.6879,18.1435-19.5606,17.5379-41.3313-.2327-8.5692,2.3601-16.8517,5.392-24.2962.0011-.0243.0011-.0243.0269-.0481,4.7067-11.4086,10.4512-20.7361,8.5841-25.737-2.4075-6.4404-19.1238,4.1189-26.3108,9.0349l.9028,56.9666-12.0849,7.9566-.1427-8.3163-.6754-36.3306-12.1123,24.9749c.9143-21.1889-10.9025-42.6079-10.9025-42.6079,11.5742-11.3856,19.0139-31.4694,21.8737-44.6188l.0006-.0243a48.57809,48.57809,0,0,0,1.3112-9.8518c-.0233-1.2944-.5772-1.7646-1.5286-1.6028-5.9394,1.0582-27.2217,26.9885-27.2217,26.9885s3.9248-38.7607,2.2623-47.6598a4.97847,4.97847,0,0,0-.3264-1.1827c-.3183-.7588-1.1375-.1692-2.3195,1.4013-7.6757,10.3455-30.5804,63.4079-33.3396,68.9966-3.1668,6.4436-.2952,38.2081,15.2419,81.8952-.6381,10.4504-6.7,34.0726-6.7,34.0726a47.099,47.099,0,0,0,9.4819,12.9099C1197.9771,512.3263,1213.7709,492.5604,1242.0597,493.2213Z" class="colord39363 svgShape"/><path fill="#444343" d="M1210.7543 383.6605s3.9248-38.7608 2.262-47.6599l24.156-23.1043.8031 43.7754C1232.0363 357.7302 1210.7543 383.6605 1210.7543 383.6605zM1219.8199 477.7707c18.3481-24.9139-3.7316-64.9133-3.7316-64.9133 11.6357-11.4463 19.116-31.6627 21.9913-44.8819l1.969 107.4949z" class="color444343 svgShape"/><path d="M1242.0597,493.2213c1.3939.0325,2.7173.1667,4.0457.2932-.0007-.3477-.0013-.656-.0017-1.0105,20.3555-5.6879,18.1435-19.5606,17.5379-41.3313-.2327-8.5692,2.3601-16.8517,5.392-24.2962-12.2,16.5113-16.797,40.2164-16.797,40.2164a54.55141,54.55141,0,0,1-12.2276-.3597c-13.5154-1.7801-34.1262-9.1156-39.4044-36.671-5.8614-30.4149,3.9313-72.8246,9.7658-93.843-7.6757,10.3455-30.5804,63.4079-33.3396,68.9966-3.1668,6.4436-.2952,38.2081,15.2419,81.8952-.6381,10.4504-6.7,34.0726-6.7,34.0726a47.099,47.099,0,0,0,9.4819,12.9099C1197.9771,512.3263,1213.7709,492.5604,1242.0597,493.2213Z" style="mix-blend-mode:soft-light" opacity=".25" fill="#000000" class="color000 svgShape"/><path fill="#d39363" d="M1618.0006,443.4336c14.7699,7.4865,30.9896,1.853,45.0477-10.4691,27.5774-24.0842,46.8747-73.714,30.8187-100.0756-6.3144-10.3223-13.8544-14.3656-21.6079-14.6683-22.0986-.8572-45.7205,28.6811-45.7205,28.6811S1574.2947,421.2672,1618.0006,443.4336Z" class="colord39363 svgShape"/><path d="M1618.0006,443.4336c14.7699,7.4865,30.9896,1.853,45.0477-10.4691-14.8285,2.9004-22.5771-2.2973-14.0268-14.1963,11.2076-15.5787,41.6258-46.0467,38.2832-63.261-3.3183-17.242-29.0986,4.0088-29.0986,4.0088-1.7416-20.9577,6.2483-33.8438,14.053-41.2954-22.0986-.8572-45.7205,28.6811-45.7205,28.6811S1574.2947,421.2672,1618.0006,443.4336Z" style="mix-blend-mode:soft-light" opacity=".45" fill="#000000" class="color000 svgShape"/><path fill="#a5663c" d="M1626.5566,404.5377a64.82406,64.82406,0,0,1,5.4046-21.8791,69.8154,69.8154,0,0,1,11.9973-19.4763,52.26446,52.26446,0,0,1,18.7833-13.9483,35.80686,35.80686,0,0,1,22.8885-1.4812,67.869,67.869,0,0,0-19.4537,8.1038,83.54611,83.54611,0,0,0-15.0243,13.6172,164.91335,164.91335,0,0,0-12.6478,16.7078Z" class="colora5663c svgShape"/><path fill="#2d2c2a" d="M1252.7397,171.8909s1.8171,30.1565,4.655,69.9698c4.454,64.2827,11.4777,153.847,17.3402,182.5788a5.15441,5.15441,0,0,0,.106.6709s-11.0616,219.8391,130.006,231.1571c27.8442,2.2307,53.633.0681,77.0169-5.8279a193.30365,193.30365,0,0,0,60.0177-26.0986,182.49283,182.49283,0,0,0,33.9147-28.7139,191.7538,191.7538,0,0,0,37.274-59.3269c11.4213-28.4191,16.693-60.2637,15.0126-93.6989-6.1428-123.3652,39.2188-141.2674,16.9628-255.1938-5.4836-28.0241-20.9126-50.4762-42.11-67.9582-13.2956-11.0071-28.8247-20.0607-45.6413-27.3515a274.40564,274.40564,0,0,0-41.1835-13.9377c-37.0631-9.5265-75.9571-12.2279-107.8342-9.5997a211.13516,211.13516,0,0,0-27.2269,3.8916,128.59564,128.59564,0,0,0-15.598,4.285c-30.4837,10.6223-54.3243,24.3475-72.1071,38.9131C1269.8633,134.7926,1256.8634,155.3651,1252.7397,171.8909Z" class="color2d2c2a svgShape"/><path fill="#d39363" d="M1257.3947,241.8607c4.454,64.2827,11.4777,153.847,17.3402,182.5788,13.9749,11.8434,32.037,21.7463,32.037,21.7463a112.06648,112.06648,0,0,1,32.7299-20.9017,41.35579,41.35579,0,0,0,25.7168,11.2973c21.7467,1.7843,40.7024-13.5743,42.4786-16.7538.8244-1.4699,2.5807-3.799,4.0648-6.1953,4.4659.0435,9.1113.2129,13.9363.4775,66.5821,3.8042,83.4014,44.7645,83.4014,44.7645,16.0399-3.6971,60.3679-46.298,66.5608-61.6206,6.1625-15.3537,7.9081-91.3731,2.863-121.2708-5.0141-29.897-52.938-107.8365-80.0473-114.1524-27.1107-6.3158-48.9162,10.0702-99.1418,28.0409-50.2566,18.0309-71.4654-23.6702-102.395-6.9808C1276.5051,193.8998,1263.7257,223.1987,1257.3947,241.8607Z" class="colord39363 svgShape"/><path d="M1309.4409 443.8171c-10.4989-11.0632-22.0024-22.0587-36.5792-30.2393.631 4.2082 1.2443 7.8691 1.8732 10.8617 13.9749 11.8434 32.037 21.7463 32.037 21.7463C1307.6415 445.3857 1308.5104 444.6159 1309.4409 443.8171zM1257.3947 241.8607q.27645 3.7899.55 7.6706c13.6683-15.3303 39.8781-38.1165 78.2581-43.3276 59.1691-8.0074 138.6295-7.8527 161.2725 11.4559 22.6127 19.3382 43.938 95.0457 29.784 151.9956a128.86683 128.86683 0 01-38.5378 65.3143c15.3761 11.6938 20.3782 23.9048 20.3782 23.9048 16.0399-3.6971 60.3679-46.298 66.5608-61.6206 6.1625-15.3537 7.9081-91.3731 2.863-121.2708-5.0141-29.897-52.938-107.8365-80.0473-114.1524-27.1107-6.3158-48.9162 10.0702-99.1418 28.0409-50.2566 18.0309-71.4654-23.6702-102.395-6.9808C1276.5051 193.8998 1263.7257 223.1987 1257.3947 241.8607z" style="mix-blend-mode:soft-light" opacity=".25" fill="#000000" class="color000 svgShape"/><path fill="#100e14" d="M1354.8286,465.5573c4.3831,14.7445,23.5023,65.234,75.1257,46.1143,32.748-12.1164,40.2235-37.7662,40.2818-58.6469a97.98423,97.98423,0,0,0-1.4596-16.7769c-14.2108,15.3603-44.9121,31.8492-111.1409,29.4369C1356.7106,465.6631,1355.786,465.6106,1354.8286,465.5573Z" class="color100e14 svgShape"/><path fill="#ffffff" d="M1357.6356,465.6847c.4118,5.0139,4.3283,10.0169,13.0077,14.9151,46.8897,26.4255,86.0964-11.6728,99.5928-27.5751a97.98423,97.98423,0,0,0-1.4596-16.7769C1454.5657,451.6081,1423.8644,468.097,1357.6356,465.6847Z" class="colorfff svgShape"/><path fill="#161616" d="M1472.0396,439.267c-10.4509,10.5628-23.7282,17.0057-37.1457,21.1272-13.5079,4.0821-27.4004,5.9716-41.2226,6.7907a322.9543,322.9543,0,0,1-41.3912-.6315c-13.7354-1.0467-27.3762-2.8342-40.9298-5.039,13.6524,1.4707,27.3478,2.5163,41.0386,2.819a319.64052,319.64052,0,0,0,40.911-1.5784c13.5016-1.529,26.8997-4.1242,39.4765-8.6834,12.5048-4.5665,24.2914-11.2958,32.7373-20.8424Z" class="color161616 svgShape"/><ellipse cx="1454.804" cy="336.187" rx="45.295" ry="26.944" transform="rotate(-85.997 1454.804 336.187)" style="mix-blend-mode:soft-light" opacity=".45" fill="#000000" class="color000 svgShape"/><ellipse cx="1453.858" cy="347.619" fill="#1b1723" rx="29.957" ry="17.82" transform="rotate(-85.997 1453.858 347.62)" class="color1b1723 svgShape"/><path fill="#ffffff" d="M1457.0019 337.2213c-.4282 5.1738 1.7156 9.6323 4.7882 9.9586s5.9106-3.6035 6.3388-8.7772-1.7156-9.6324-4.7882-9.9586S1457.4301 332.0476 1457.0019 337.2213zM1452.2387 348.9421c-.2168 2.6198.8687 4.8774 2.4246 5.0426s2.9929-1.8246 3.2097-4.4444-.8687-4.8774-2.4246-5.0426S1452.4556 346.3224 1452.2387 348.9421z" class="colorfff svgShape"/><ellipse cx="1325.36" cy="333.188" rx="23.395" ry="39.26" transform="rotate(-2.976 1325.362 333.188)" style="mix-blend-mode:soft-light" opacity=".45" fill="#000000" class="color000 svgShape"/><ellipse cx="1326.081" cy="343.102" fill="#1b1723" rx="15.473" ry="25.965" transform="rotate(-2.976 1326.08 343.102)" class="color1b1723 svgShape"/><path fill="#ffffff" d="M1327.3759 333.6592c.326 4.4869 2.7535 7.8856 5.422 7.5913s4.5675-4.1703 4.2416-8.6572-2.7536-7.8855-5.4221-7.5912S1327.0499 329.1724 1327.3759 333.6592zM1324.874 344.5304c.1651 2.2719 1.3943 3.9929 2.7455 3.8439s2.3128-2.1117 2.1477-4.3836-1.3943-3.9929-2.7455-3.8439S1324.7089 342.2584 1324.874 344.5304z" class="colorfff svgShape"/><path fill="#2d2c2a" d="M1422.6087,250.5096a248.15583,248.15583,0,0,0,44.5057,19.1283c2.5208.8247,4.8816,1.5522,7.055,2.182a42.12957,42.12957,0,0,0,13.1537,1.6804,19.83047,19.83047,0,0,0,2.3736-.1313,39.20015,39.20015,0,0,0,9.6243-1.9869c1.0015-.3066,2.0045-.6766,2.9807-1.0787a50.76187,50.76187,0,0,0-1.0716-11.2412c-1.6293-8.1624-5.6952-19.2161-15.7044-27.5081a40.14641,40.14641,0,0,0-3.5446-2.6498,46.97287,46.97287,0,0,0-10.137-5.1444,33.65991,33.65991,0,0,0-12.5523-2.2778C1435.1933,221.8051,1422.6087,250.5096,1422.6087,250.5096Z" class="color2d2c2a svgShape"/><path fill="#525254" d="M1489.6967,273.369a39.20015,39.20015,0,0,0,9.6243-1.9869,100.53821,100.53821,0,0,0,1.9091-12.3199c-1.6293-8.1624-5.6952-19.2161-15.7044-27.5081C1489.6866,243.4677,1492.5343,258.4515,1489.6967,273.369Z" class="color525254 svgShape"/><path fill="#525254" d="M1459.2918,221.4821a202.23243,202.23243,0,0,1,7.8226,48.1558c2.5208.8247,4.8816,1.5522,7.055,2.182a42.12957,42.12957,0,0,0,13.1537,1.6804c1.1274-12.2972.7534-28.7153-5.342-44.596a46.97287,46.97287,0,0,0-10.137-5.1444A33.65991,33.65991,0,0,0,1459.2918,221.4821Z" class="color525254 svgShape"/><path fill="#2d2c2a" d="M1347.5426,248.2629a262.87411,262.87411,0,0,1-37.4164,29.1258c-2.1646,1.4127-4.1996,2.6946-6.0801,3.8381a42.41349,42.41349,0,0,1-11.7542,4.969,19.08707,19.08707,0,0,1-2.1972.4986,36.23982,36.23982,0,0,1-9.1637.6895c-.9709-.0197-1.9545-.097-2.9191-.2109a47.54526,47.54526,0,0,1-.9871-10.5761,48.915,48.915,0,0,1,9.5675-29.2916,43.26733,43.26733,0,0,1,2.7827-3.3515,50.12084,50.12084,0,0,1,8.3844-7.3552,34.25109,34.25109,0,0,1,11.0987-5.3594C1330.9883,225.2516,1347.5426,248.2629,1347.5426,248.2629Z" class="color2d2c2a svgShape"/><path fill="#525254" d="M1290.0947,286.6944a36.23982,36.23982,0,0,1-9.1637.6895,88.56541,88.56541,0,0,1-3.9062-10.787,48.915,48.915,0,0,1,9.5675-29.2916C1284.8674,259.3028,1284.8831,273.7702,1290.0947,286.6944Z" class="color525254 svgShape"/><path fill="#525254" d="M1308.8581,231.2392a194.0282,194.0282,0,0,0,1.2681,46.1495c-2.1646,1.4127-4.1996,2.6946-6.0801,3.8381a42.41349,42.41349,0,0,1-11.7542,4.969c-3.1863-10.97-5.719-26.1062-2.9169-42.242a50.12084,50.12084,0,0,1,8.3844-7.3552A34.25109,34.25109,0,0,1,1308.8581,231.2392Z" class="color525254 svgShape"/><path fill="#eaaa7f" d="M1368.8878,383.5239s19.4208,2.8684,23.3489,15.0353-53.9566,25.7309-63.6652,12.0083S1355.9098,379.6221,1368.8878,383.5239Z" class="coloreaaa7f svgShape"/><path fill="#b25734" d="M1367.7096,362.4635c1.292,6.9699,2.293,13.9555,3.2414,20.9444l.2853,2.1038-2.4958.073a76.17853,76.17853,0,0,0-19.1748,3.0612c-6.0188,1.899-11.4729,5.0631-14.4694,9.471a16.57319,16.57319,0,0,0-2.3146,7.6005,14.5431,14.5431,0,0,0,1.0393,7.8442c2.1128,4.9654,6.609,9.2061,11.7588,12.375a52.5098,52.5098,0,0,0,36.2304,5.8424,47.80224,47.80224,0,0,0,17.5301-7.4917,59.06086,59.06086,0,0,0,14.027-14.0906,47.91852,47.91852,0,0,1-11.4771,17.208,46.72843,46.72843,0,0,1-18.4097,10.7578,51.9147,51.9147,0,0,1-21.5218,2.0408,52.939,52.939,0,0,1-20.8577-6.5858c-6.3977-3.6975-12.4818-9.0496-15.5351-16.7399a23.40316,23.40316,0,0,1-1.4449-12.0693,24.38869,24.38869,0,0,1,4.2607-11.3604c5.0495-6.6851,12.5737-9.7495,19.5189-11.2359a66.73594,66.73594,0,0,1,21.1336-.7493l-2.2095,2.1764C1366.9876,376.5877,1367.203,369.5337,1367.7096,362.4635Z" class="colorb25734 svgShape"/><path fill="#525254" d="M1424.0883,541.5786s46.575,44.603,57.7755,108.861a193.30365,193.30365,0,0,0,60.0177-26.0986c-20.2203-35.8738-54.6676-78.0059-107.4282-86.805,0,0,84.109-11.5271,141.3429,58.0911a191.7538,191.7538,0,0,0,37.274-59.3269C1569.9207,512.866,1497.1918,489.9257,1424.0883,541.5786Z" class="color525254 svgShape"/><path fill="#161616" d="M1438.4989,534.1344a30.89062,30.89062,0,0,1-12.7008,8.7501,39.15015,39.15015,0,0,1-15.4415,2.6424,37.27146,37.27146,0,0,1-15.3002-3.5808,32.34913,32.34913,0,0,1-12.1097-9.5477c5.1818.9132,9.6528,2.2704,14.2487,2.892a85.47863,85.47863,0,0,0,13.3924,1.3519C1419.5391,536.9812,1428.3811,535.7675,1438.4989,534.1344Z" class="color161616 svgShape"/><path fill="#525254" d="M1318.922,178.4512c-4.7052-44.4151,27.4378-80.5243,62.1277-105.9992a128.59564,128.59564,0,0,0-15.598,4.285c-30.4837,10.6223-54.3243,24.3475-72.1071,38.9131C1282.71,154.6321,1318.922,178.4512,1318.922,178.4512Z" class="color525254 svgShape"/><path fill="#525254" d="M1432.6335 101.6746c-1.578 1.209-52.3299 40.4387-61.7446 83.1262 0 0 100.2649-17.6222 145.2219-106.6407-37.0631-9.5265-75.9571-12.2279-107.8342-9.5997-35.7784 21.3168-69.8492 56.7123-72.3858 114.5718C1335.8908 183.1322 1365.312 130.854 1432.6335 101.6746zM1475.9903 148.7855c61.1137 11.5165 102.0846-8.3721 126.9453-29.3362-13.2956-11.0071-28.8247-20.0607-45.6413-27.3515C1524.416 129.7699 1475.9903 148.7855 1475.9903 148.7855z" class="color525254 svgShape"/><ellipse cx="1376.652" cy="249.322" fill="#e5cba1" rx="18.512" ry="10.68" transform="rotate(-88.662 1376.652 249.322)" class="colore5cba1 svgShape"/><path fill="#e8be0f" d="M1239.7917,516.2202c-.4571.7874-.9551,1.6138-1.493,2.4388-.705,1.1406-1.4902,2.3187-2.3553,3.495a284.57473,284.57473,0,0,0-16.0784,25.674c-10.572,18.8215-20.6876,40.2862-29.327,60.0303-.8438,1.9749-1.6875,3.9498-2.5304,5.8848-1.8756.036-3.8692-.0105-5.9416-.0989-.6385-.0149-1.3151-.0706-1.9916-.1259a3.02161,3.02161,0,0,1-.5977-.0539c-.9958-.0632-1.9907-.1663-3.0255-.2703-.8743-.1398-1.7095-.2391-2.5838-.3794-1.5104-.2349-3.0607-.4708-4.6477-.8263-1.1917-.2275-2.4213-.5358-3.691-.8445-.8333-.1792-1.7048-.4386-2.5762-.6986-.3963-.129-.8316-.259-1.2288-.3476-1.5433-.5148-3.0876-1.03-4.6291-1.6241-.8306-.2989-1.6608-.6373-2.4904-.9756-1.231-.5021-2.4692-1.0521-3.711-1.6323-.105-.0502-.2114-.1043-.3168-.155-16.5575-7.8252-33.8585-22.8276-47.4878-50.5182,44.3576-54.533,84.2525-80.249,84.2525-80.249a139.11184,139.11184,0,0,1,28.8565,2.7885C1234.9705,481.8409,1253.6055,491.85,1239.7917,516.2202Z" class="colore8be0f svgShape"/><path d="M1239.7917,516.2202c-.4571.7874-.9551,1.6138-1.493,2.4388-.705,1.1406-1.4902,2.3187-2.3553,3.495a284.57473,284.57473,0,0,0-16.0784,25.674c-10.572,18.8215-20.6876,40.2862-29.327,60.0303-.8438,1.9749-1.6875,3.9498-2.5304,5.8848-1.8756.036-3.8692-.0105-5.9416-.0989-.6385-.0149-1.3151-.0706-1.9916-.1259a3.02161,3.02161,0,0,1-.5977-.0539c-.9958-.0632-1.9907-.1663-3.0255-.2703-.8743-.1398-1.7095-.2391-2.5838-.3794-1.5104-.2349-3.0607-.4708-4.6477-.8263-1.1917-.2275-2.4213-.5358-3.691-.8445-.8333-.1792-1.7048-.4386-2.5762-.6986-.3963-.129-.8316-.259-1.2288-.3476-1.5433-.5148-3.0876-1.03-4.6291-1.6241-.8306-.2989-1.6608-.6373-2.4904-.9756a75.93068,75.93068,0,0,1-7.6151-3.6091c18.0762-53.1524,49.7338-100.2433,69.2085-126.1569C1234.9705,481.8409,1253.6055,491.85,1239.7917,516.2202Z" style="mix-blend-mode:soft-light" opacity=".25" fill="#000000" class="color000 svgShape"/></g></svg>