<svg xmlns="http://www.w3.org/2000/svg" viewBox="0 0 2800 1900"><g data-name="Layer 1" fill="#000000" class="color000 svgShape"><ellipse cx="1352.246" cy="1770.22" opacity=".15" rx="345.807" ry="84.257" fill="#000000" class="color000 svgShape"/><path fill="#f7991e" d="M1274.393 1724.237a63.42 63.42 0 0 1-1.064 11.979c-1.501 7.245-4.734 12.316-10.894 12.527-13.79.47-15.064 13.484-25.805 27.813-10.742 14.293-47.995 9.61-76.808-.392-28.284-9.773-10.073-46.151-9.413-47.485-6.06 19.343 13.544 21.084 20.856 20.48a11.707 11.707 0 0 0 2.016-.281 1.74 1.74 0 0 0 .273-.08c2.154-.712 18.584-18.247 30.358-31.052 6.864-7.463 12.126-13.277 12.126-13.277s54.585-18.801 56.978.076a155.945 155.945 0 0 1 1.377 19.692Z" class="colorf7991e svgShape"/><path fill="#f4bd21" d="M1171.265 1749.16c2.8 7.417 4.352 14.239.776 14.644-8.007.911-34.378 3.157-21.632-35.125-6.06 19.343 13.544 21.084 20.856 20.48ZM1274.393 1724.237a162.52 162.52 0 0 1-31.114 2.585c-25.22-.025-35.375-5.384-39.367-9.076-11.774 12.805-28.204 30.34-30.358 31.052a1.724 1.724 0 0 1-.273.08c5.03 13.472 13.806 22.493 33.417 19.06 23.453-4.132 26.01-30.797 46.764-29.52a57.435 57.435 0 0 0 19.867-2.202Z" class="colorf4bd21 svgShape"/><path fill="#f7991e" d="M1370.193 1731.6a63.42 63.42 0 0 0 1.877 11.879c1.992 7.126 5.563 11.965 11.723 11.755 13.79-.47 15.948 12.426 27.64 25.99 11.691 13.528 48.538 6.317 76.603-5.626 27.552-11.677 6.905-46.73 6.155-48.015 7.364 18.885-12.075 21.958-19.412 21.854a11.701 11.701 0 0 1-2.03-.144 1.721 1.721 0 0 1-.278-.061c-2.197-.563-19.784-16.938-32.404-28.91-7.356-6.979-13.002-12.42-13.002-12.42s-55.74-15.038-56.84 3.958a155.943 155.943 0 0 0-.032 19.74Z" class="colorf7991e svgShape"/><path fill="#f4bd21" d="M1474.78 1749.437c-2.288 7.59-3.372 14.503.223 14.663 8.051.364 34.514.808 19.188-36.517 7.364 18.885-12.075 21.958-19.412 21.854ZM1372.07 1743.479a57.435 57.435 0 0 0 19.972.842c20.618-2.688 24.987 23.742 48.666 26.265 19.8 2.089 27.94-7.51 32.041-21.293a1.732 1.732 0 0 1-.278-.06c-2.197-.564-19.784-16.939-32.404-28.911-3.73 3.954-13.496 9.993-38.656 11.737a162.518 162.518 0 0 1-31.219-.459Z" class="colorf4bd21 svgShape"/><path fill="#711594" d="m1224.523 1447.05-8.654 201.626s-9.243 7.292-7.18 17.189 5.647 13.76 2.336 17.86-4.493 20.088-1.805 22.986 39.703 25.556 70.12 6.578c0 0 2.626-11.552 1.458-20.482s8.364-7.76 4.821-23.088 31.047-202.888 31.047-202.888Z" class="color711594 svgShape"/><path d="M1246.178 1541.986s-8.035 84.651-7.627 96.615c.343 10.053 24.632 16.95 48.168 10.76-.732 6.404-1.2 11.594-1.289 15.283-9.54.963-32.177 2.019-51.38-5.973-23.527-9.758-4.28 32.784 51.362 22.523-1.473 3.594-4.206 5.317-4.63 9.053a.866.866 0 0 0-.213.078 151.519 151.519 0 0 1-52.954-.852c-25.574-5.01 16.838 34.9 52.105 21.824-.233 1.249-.392 1.998-.392 1.998-30.402 18.97-67.41-3.689-70.116-6.573-2.677-2.921-1.504-18.908 1.824-22.991 3.296-4.117-.272-7.964-2.358-17.851-2.057-9.923 7.205-17.22 7.205-17.22l8.647-201.618 92.136 19.786s-6.008 32.56-12.743 71.664c-11.524 3.051-33.198 7.157-57.745 3.494Z" style="mix-blend-mode:soft-light" opacity=".3" fill="#000000" class="color000 svgShape"/><path fill="#711594" d="m1368.45 1452.41 3.422 201.971s-8.779 8.016-6.13 17.732 6.452 13.287 3.395 17.644-3.278 20.41-.425 23.09 41.108 22.35 70.298.98c0 0 1.928-11.741.23-20.563s7.875-8.414 3.427-23.433 18.826-205.016 18.826-205.016Z" class="color711594 svgShape"/><path d="M1395.712 1545.458s-2.951 85.147-1.83 97.058c.943 10.009 25.57 14.959 48.665 6.904-.348 6.452-.504 11.67-.372 15.36-9.453 1.721-31.958 4.579-51.58-1.87-24.038-7.866-2.309 33.07 52.55 18.393-1.253 3.705-3.875 5.643-4.075 9.406a.884.884 0 0 0-.207.095 151.64 151.64 0 0 1-52.842 3.37c-25.796-2.965 18.872 33.497 53.249 17.634-.158 1.265-.271 2.026-.271 2.026-29.176 21.36-67.424 1.688-70.294-.976-2.844-2.702-2.63-18.756.444-23.097 3.04-4.372-.747-7.929-3.418-17.632-2.643-9.743 6.155-17.766 6.155-17.766l-3.429-201.962 93.035 12.41s-4.043 32.983-8.42 72.558c-11.306 3.964-32.669 9.79-57.36 8.089Z" style="mix-blend-mode:soft-light" opacity=".3" fill="#000000" class="color000 svgShape"/><path fill="#005174" d="M1294.11 609.644s-97.095 48.067-101.902 113.439 71.14 195.153 71.14 195.153l-3.846 61.526s-65.852 48.788-106.95 490.045c0 0 157.901 105.988 387.182 0l-86.521-484.518v-30.522l62.487-1.442v-61.526l-64.41-16.343 13.94-96.615 66.813 15.381 10.094-105.267-95.654-44.222-71.14-23.072Z" class="color005174 svgShape"/><path d="M1515.696 953.333v-26.687c-30.148-2.41-96.75-10.408-147.56-35.813-67.781-33.89-155.02-182.4-126.898-198.986s65.603 44.683 65.603 44.683 86.88 114.285 90.135 118.259c2.77 3.41 43.171 16.432 54.425 19.996l1.385-9.69c-67.038-12.998-145.228-150.894-145.228-150.894 86.214 17.92 101.39-52.322 104.005-80.804l-36.223-11.741-81.24-12.023s-97.084 48.067-101.903 113.438c-4.794 65.372 71.14 195.166 71.14 195.166l-3.846 61.527s-65.833 48.785-106.927 490.055c0 0 56.22 37.736 150.303 45.658-79.907-64.91-67.397-180.99-67.397-180.99 86.521 26.918 118.233 14.434 118.233 14.434-5.768-77.882-22.098-321.09-22.098-321.09 68.089 4.743 105.542-13.151 124.282-27.584l-2.666-14.946v-30.532Zm-243.208-40.864s-36.531-53.348-38.454-94.212c0 0 49.99 81.702 81.702 99.006Zm200.909-202.6-6.563 69.32 65.218 15.022 5.589-58.245c-24.457-9.203-64.244-26.097-64.244-26.097Z" style="mix-blend-mode:soft-light" opacity=".3" fill="#000000" class="color000 svgShape"/><path fill="#ce8d61" d="m1294.59 563.019-.48 46.625s6.249 63.449 85.08 97.096l-7.21-54.316 4.325-60.565s-48.067-32.685-81.714-28.84Z" class="colorce8d61 svgShape"/><path fill="#022835" d="M1451.29 875.456c-9.88-2.78-19.58-6.05-29.357-9.137l-14.543-4.997a239.764 239.764 0 0 1-7.245-2.656l-3.639-1.435c-.624-.265-1.185-.464-1.906-.825l-1.028-.499c-.32-.246-.627-.546-.94-.826a49.439 49.439 0 0 1-1.827-1.77l-1.31-1.492-2.56-2.947-4.896-5.967-9.612-12.008-18.708-24.352c-12.251-16.393-24.348-32.892-36.066-49.673q-17.701-25.076-34.117-51.093c26.751 31.093 51.672 63.528 76.325 96.145l18.335 24.564 9.137 12.276 4.605 6.075 2.302 2.986 1.135 1.461c.29.317.562.647.826.999.138.172.25.365.404.535l.681.37c.406.246 1.034.524 1.572.789l3.413 1.58 6.973 3.102 14.036 6.16c9.309 4.265 18.74 8.234 28.01 12.635ZM1465.23 778.84a117.38 117.38 0 0 1-.807-18.852c.112-6.24.67-12.428 1.315-18.605.788-6.16 1.672-12.31 3-18.408a116.086 116.086 0 0 1 5.144-18.158 116.084 116.084 0 0 1 .817 18.855c-.114 6.24-.672 12.427-1.326 18.603-.798 6.16-1.681 12.31-3.011 18.407a117.372 117.372 0 0 1-5.133 18.159Z" class="color022835 svgShape"/><path fill="#711594" d="M1457.17 954.692c-.488 13.92-1.564 28.327-3.949 30.609 0 0-84.598 34.352-193.73-5.537 0 0-2.384-22.124 3.846-61.527 0 0 35.736 8.922 88.084 12.1 31.891 20.33 92.187 23.816 105.748 24.355Z" class="color711594 svgShape"/><path d="m1343.628 937.464-69.704-7.69s43.453 78.01 181.477 48.426c-.564 3.64-1.282 6.23-2.18 7.1 0 0-84.598 34.353-193.73-5.536 0 0-2.384-22.124 3.846-61.527 0 0 35.736 8.922 88.084 12.1 31.891 20.33 92.187 23.816 105.748 24.355a319.25 319.25 0 0 1-.307 7.075c-15.484.641-67.935.77-113.234-24.303Z" style="mix-blend-mode:soft-light" opacity=".3" fill="#000000" class="color000 svgShape"/><path fill="#022835" d="M1459.938 954.769a281.316 281.316 0 0 1-28.154-.552q-14.085-.82-28.085-3.069a224.01 224.01 0 0 1-27.728-6.279 116.218 116.218 0 0 1-26.508-11.46l-.618-.496-.103-.075.612.493a162.442 162.442 0 0 1-18.537-14.765c-5.804-5.217-11.324-10.668-16.751-16.206-10.775-11.127-21.13-22.599-31.195-34.305q-15.043-17.601-29.342-35.79c-4.793-6.039-9.418-12.215-14.046-18.383-4.619-6.174-9.227-12.355-13.626-18.697l62.042 68.406c10.43 11.277 20.893 22.504 31.593 33.45 10.816 10.717 21.708 21.758 33.79 30.149l.614.494.101.077-.617-.495c7.46 4.886 15.934 8.477 24.595 11.465a236.865 236.865 0 0 0 26.674 7.462c9.05 2.078 18.236 3.63 27.449 5.133 9.224 1.441 18.51 2.529 27.84 3.443Z" class="color022835 svgShape"/><path fill="#711594" d="m1275.124 975.195-35.33 326.617s13.7 18.025 44.703 16.583l.72 13.7s37.493 9.372 52.634 0l-24.514-345.364Z" class="color711594 svgShape"/><path d="M1337.848 1332.084a24.388 24.388 0 0 1-7.28 2.846l-19.381-298.453-12.28-10.818s-2.23 248.463-2.769 308.604c-6.46-1.05-10.92-2.179-10.92-2.179l-.719-13.69a69.82 69.82 0 0 1-8.716-.102l11.588-301.99-7.922-11.537s-23.482 248.079-28.61 306.042a39.9 39.9 0 0 1-11.048-8.999l35.326-326.601 38.223 11.536Z" style="mix-blend-mode:soft-light" opacity=".3" fill="#000000" class="color000 svgShape"/><path fill="#3d0c59" d="M1284.497 1318.395c-1.581-55.476-.834-110.892.484-166.292.788-27.697 1.673-55.392 3.005-83.074q1.835-41.529 5.163-83.019 1.16 41.607.837 83.175c-.11 27.714-.667 55.417-1.321 83.118-1.566 55.394-3.703 110.773-8.168 166.092Z" class="color3d0c59 svgShape"/><path fill="#022835" d="M1294.11 609.644a116.707 116.707 0 0 0 12.93 30.489 151.348 151.348 0 0 0 19.758 26.011l5.753 5.838c1.87 2 4.116 3.608 6.114 5.483 3.933 3.852 8.507 6.928 12.779 10.446 2.098 1.82 4.501 3.203 6.75 4.83l6.833 4.814c4.685 3.025 9.494 5.892 14.162 9.185-5.374-1.738-10.7-3.73-15.98-5.876-5.037-2.597-10.307-4.902-15.125-7.98a132.551 132.551 0 0 1-26.876-21.464 111.064 111.064 0 0 1-19.465-28.517c-4.79-10.443-8.063-21.845-7.633-33.259Z" class="color022835 svgShape"/><path fill="#022835" d="M1371.98 652.424c2.458 9.7 4.46 19.46 6.31 29.24 1.838 9.782 3.46 19.591 4.961 29.417l.3 1.966-1.664 1.35c-5.676 4.606-11.431 9.108-17.165 13.638-5.83 4.407-11.568 8.93-17.473 13.241l1.36-3.14a813.968 813.968 0 0 1 1.516 28.705c.334 9.584.484 19.184.224 28.823-2.023-9.427-3.635-18.893-5.064-28.376q-2.15-14.223-3.771-28.495l-.212-1.84 1.573-1.301c5.631-4.662 11.428-9.11 17.134-13.676 5.803-4.442 11.583-8.912 17.443-13.28l-1.363 3.316c-1.063-9.882-2.004-19.78-2.73-29.706-.713-9.928-1.275-19.875-1.38-29.882Z" class="color022835 svgShape"/><path fill="#ce8d61" d="M1469.632 482.321s53.128-32.364 62.468 19.363-61.842 81.563-85.722 47.204 23.255-66.567 23.255-66.567Z" class="colorce8d61 svgShape"/><path d="M1446.377 548.876c10.596 15.23 30.47 17.864 48.506 11.54-25.47-2.498-24.727-23.173-24.727-23.173 15.367 19.693 42.947 5.3 48.272-11.479 5.35-16.775-24.516-16.095-24.516-16.095s-15.667-8.469-.673-24.054c9.6-9.974 23.808-5.38 32.775-.812-16.872-26.543-56.39-2.49-56.39-2.49s-47.137 32.206-23.247 66.563Z" style="mix-blend-mode:soft-light" opacity=".3" fill="#000000" class="color000 svgShape"/><path fill="#aa6b3f" d="M1457.792 526.604a49.095 49.095 0 0 1 11.462-10.649 55.463 55.463 0 0 1 14.158-7.01 35.065 35.065 0 0 1 16.168-1.749c5.499.757 10.928 3.522 13.882 7.966a30.211 30.211 0 0 0-14.14-2.24 54.706 54.706 0 0 0-13.677 2.958c-9.135 2.904-18.02 7.117-27.853 10.724Z" class="coloraa6b3f svgShape"/><path fill="#191919" d="M1516.477 399.851s3.149 68.677-20.714 97.213-3.21-107.43-3.21-107.43Z" class="color191919 svgShape"/><path fill="#750000" d="m1513.325 262.248 8.99-9.942s20.534-170.588-174.433-204.132-390.615 259.405-104.538 412.693l60.69-158.37Z" class="color750000 svgShape"/><path d="m1522.316 252.313-9.002 9.944-209.285 40.249-60.69 158.367c-146.484-78.493-166.656-193.629-125.279-282.778-5.715 43.594-4.512 105.012 44.28 116.535 76.298 18.043 35.27-240.597 360.596-54.665-.083 7.79-.62 12.348-.62 12.348Z" style="mix-blend-mode:soft-light" opacity=".3" fill="#000000" class="color000 svgShape"/><path fill="#ce8d61" d="M1235.06 453.375s-43.667-44.308-65.302 3.596 40.16 94.15 71.676 66.627-6.375-70.223-6.375-70.223Z" class="colorce8d61 svgShape"/><path d="M1241.438 523.587c-13.982 12.197-33.9 9.92-49.857-.599 25.314 3.77 29.62-16.467 29.62-16.467-19.694 15.367-42.948-5.3-44.035-22.869-1.112-17.573 27.693-9.653 27.693-9.653s17.256-4.406 6.501-23.168c-6.887-12.009-21.786-11.006-31.595-8.755 22.82-21.646 55.304 11.293 55.304 11.293s37.894 42.698 6.369 70.218Z" style="mix-blend-mode:soft-light" opacity=".3" fill="#000000" class="color000 svgShape"/><path fill="#aa6b3f" d="M1235.78 499.207c-8.662-5.888-16.256-12.135-24.411-17.173a54.71 54.71 0 0 0-12.548-6.194 30.208 30.208 0 0 0-14.26-1.265c3.946-3.592 9.884-4.955 15.402-4.352a35.061 35.061 0 0 1 15.258 5.627 55.46 55.46 0 0 1 12.029 10.242 49.102 49.102 0 0 1 8.53 13.115Z" class="coloraa6b3f svgShape"/><path fill="#711594" d="M1231.239 564.959a16.437 16.437 0 1 1-15.05-17.715 16.437 16.437 0 0 1 15.05 17.715Z" class="color711594 svgShape"/><path fill="#9f45c9" d="M1222.814 560.316a9.882 9.882 0 1 1-9.049-10.65 9.882 9.882 0 0 1 9.049 10.65Z" class="color9f45c9 svgShape"/><path fill="#cec7c2" d="M1225.486 539.383a8.383 8.383 0 1 1-7.676-9.035 8.383 8.383 0 0 1 7.676 9.035Z" class="colorcec7c2 svgShape"/><path fill="#eae6e4" d="M1221.189 537.015a5.04 5.04 0 1 1-4.615-5.432 5.04 5.04 0 0 1 4.615 5.432Z" class="coloreae6e4 svgShape"/><path fill="#f7991e" d="M1225.985 522.603a8.383 8.383 0 1 1-7.676-9.035 8.383 8.383 0 0 1 7.676 9.035Z" class="colorf7991e svgShape"/><path fill="#f4bd21" d="M1221.688 520.235a5.04 5.04 0 1 1-4.615-5.432 5.04 5.04 0 0 1 4.615 5.432Z" class="colorf4bd21 svgShape"/><circle cx="1493.455" cy="598.006" r="16.437" fill="#711594" transform="rotate(-58.483 1493.455 598.006)" class="color711594 svgShape"/><path fill="#9f45c9" d="M1501.413 594.695a9.882 9.882 0 1 1-9.049-10.65 9.882 9.882 0 0 1 9.049 10.65Z" class="color9f45c9 svgShape"/><circle cx="1495.73" cy="573.083" r="8.383" fill="#cec7c2" transform="rotate(-63.314 1495.73 573.083)" class="colorcec7c2 svgShape"/><path fill="#eae6e4" d="M1499.788 571.394a5.04 5.04 0 1 1-4.615-5.431 5.04 5.04 0 0 1 4.615 5.432Z" class="coloreae6e4 svgShape"/><circle cx="1496.229" cy="556.302" r="8.383" fill="#f7991e" transform="rotate(-68.014 1496.229 556.302)" class="colorf7991e svgShape"/><path fill="#f4bd21" d="M1500.287 554.614a5.04 5.04 0 1 1-4.615-5.432 5.04 5.04 0 0 1 4.615 5.432Z" class="colorf4bd21 svgShape"/><path fill="#711594" d="m1513.619 305.888 8.696-53.582s-334.298-181.234-298.65 119.077c0 0 26.406-154.433 289.954-65.495Z" class="color711594 svgShape"/><path fill="#ce8d61" d="M1223.665 371.383s3.977 142.152 11.763 177.507 76.831 118.879 141.487 121.325 104.004-64.38 113.055-85.712 17.073-195.405 17.073-195.405L1264.66 324.72Z" class="colorce8d61 svgShape"/><path d="M1465.792 623.494c-19.488 23.968-49.473 48.216-88.886 46.71-64.638-2.422-133.681-85.953-141.483-121.322-7.779-35.34-11.752-177.51-11.752-177.51l40.99-46.654 242.379 64.367s-.563 12.097-1.542 30.29c-16.907 1.994-48.16 2.193-102.642-7.397-96.7-17.022-116.92 88.015-120.874 137.638-3.931 49.652 54.013 104.02 100.787 107.622 34.211 2.62 62.675-14.118 83.023-33.744Z" style="mix-blend-mode:soft-light" opacity=".3" fill="#000000" class="color000 svgShape"/><path fill="#191919" d="M1310.675 353.1s-1.131 8.54-6.918 22.988a208.842 208.842 0 0 1-12.995 26.397 252.223 252.223 0 0 1-10.705 16.838c-3.969 5.787-8.455 11.794-13.514 18.04a342.307 342.307 0 0 1-25.496 28.057s-12.267 14.217-5.676 25.905c6.616 11.691 19.836 10.688 21.194-3.455 0 0 1.625 12.78-8.2 18.723-9.829 5.968-20.124-9.612-20.124-9.612a431.313 431.313 0 0 1-8.027-57.818q-.417-6.677-.613-13.249c-.062-3.262-.07-6.544-.035-9.768q.055-11.423 1.09-22.648a249.417 249.417 0 0 1 3.015-22.126s10.305-37.035 87.004-18.271Z" class="color191919 svgShape"/><path fill="#8e1111" d="M1223.665 371.383s14.509-26.036 113.643 1.567 209.868 65.695 231.466-8.147-309.557-236.57-345.11 6.58Z" class="color8e1111 svgShape"/><path d="M1552.146 391.965c-39.794 34.868-131.403 4.217-214.835-19.02-99.14-27.603-113.64-1.573-113.64-1.573 21.216-145.132 147.772-145.658 241.728-106.813-63.779-17.97-146.438-29.255-183.245 16.778-51.255 64.115 172 109.513 269.992 110.628Z" style="mix-blend-mode:soft-light" opacity=".3" fill="#000000" class="color000 svgShape"/><ellipse cx="1363.052" cy="479.355" rx="29.702" ry="17.669" transform="rotate(-85.63 1363.055 479.357)" style="mix-blend-mode:soft-light" opacity=".45" fill="#000000" class="color000 svgShape"/><path fill="#191919" d="M1374.255 487.334c-.69 10.826-6.478 19.39-12.929 19.13s-11.122-9.248-10.433-20.073 6.477-19.39 12.928-19.13 11.123 9.248 10.434 20.073Z" class="color191919 svgShape"/><path fill="#ffffff" d="M1361.527 479.817c-.216 3.397-2.033 6.085-4.057 6.003s-3.49-2.902-3.274-6.3 2.033-6.085 4.057-6.003 3.49 2.902 3.274 6.3ZM1363.498 487.875c-.11 1.72-1.03 3.082-2.054 3.04s-1.768-1.47-1.658-3.19 1.03-3.08 2.054-3.04 1.768 1.47 1.658 3.19Z" class="colorfff svgShape"/><ellipse cx="1447.316" cy="489.77" rx="25.745" ry="15.341" transform="rotate(-78.651 1447.316 489.77)" style="mix-blend-mode:soft-light" opacity=".45" fill="#000000" class="color000 svgShape"/><ellipse cx="1445.902" cy="496.133" fill="#191919" rx="17.027" ry="10.146" transform="rotate(-78.651 1445.902 496.133)" class="color191919 svgShape"/><path fill="#ffffff" d="M1445.963 489.884c-.64 2.88-2.54 4.852-4.242 4.407s-2.565-3.142-1.926-6.022 2.54-4.853 4.243-4.407 2.565 3.142 1.925 6.022ZM1446.548 497.175c-.324 1.458-1.286 2.457-2.148 2.232s-1.299-1.591-.975-3.05 1.286-2.457 2.148-2.23 1.3 1.59.975 3.048Z" class="colorfff svgShape"/><path fill="#191919" d="M1392.12 426.846a162.732 162.732 0 0 1-30.7 8.16c-1.714.294-3.315.54-4.785.742a27.624 27.624 0 0 1-8.694-.166 12.994 12.994 0 0 1-1.527-.312 25.704 25.704 0 0 1-6.054-2.208c-.62-.295-1.236-.63-1.831-.985a33.283 33.283 0 0 1 1.768-7.19 30.998 30.998 0 0 1 12.815-16.346 26.314 26.314 0 0 1 2.553-1.381 30.804 30.804 0 0 1 7.068-2.37 22.07 22.07 0 0 1 8.36-.278c15.604 2.51 21.027 22.334 21.027 22.334Z" class="color191919 svgShape"/><path fill="#303030" d="M1346.414 435.27a25.704 25.704 0 0 1-6.054-2.208 65.924 65.924 0 0 1-.063-8.175 30.998 30.998 0 0 1 12.815-16.346c-3.837 7.331-7.115 16.78-6.698 26.729Z" class="color303030 svgShape"/><path fill="#303030" d="M1371.093 404.512a132.617 132.617 0 0 0-9.673 30.494c-1.714.294-3.315.54-4.785.742a27.624 27.624 0 0 1-8.694-.166c.443-8.086 2.253-18.701 7.724-28.422a30.804 30.804 0 0 1 7.068-2.37 22.07 22.07 0 0 1 8.36-.279Z" class="color303030 svgShape"/><path fill="#191919" d="M1441.034 432.557a172.377 172.377 0 0 0 21.493 22.468c1.27 1.123 2.467 2.149 3.578 3.07a27.813 27.813 0 0 0 7.151 4.347 12.526 12.526 0 0 0 1.378.533 23.763 23.763 0 0 0 5.88 1.322c.63.08 1.276.124 1.913.142a31.18 31.18 0 0 0 1.65-6.767 32.076 32.076 0 0 0-3.41-19.917 28.36 28.36 0 0 0-1.485-2.44 32.862 32.862 0 0 0-4.737-5.572 22.46 22.46 0 0 0-6.689-4.537c-13.785-5.998-26.722 7.35-26.722 7.35Z" class="color191919 svgShape"/><path fill="#303030" d="M1474.634 462.975a23.763 23.763 0 0 0 5.88 1.322 58.065 58.065 0 0 0 3.563-6.625 32.076 32.076 0 0 0-3.41-19.917c-.026 7.948-1.418 17.333-6.033 25.22Z" class="color303030 svgShape"/><path fill="#303030" d="M1467.756 425.206a127.232 127.232 0 0 1-5.229 29.819c1.27 1.123 2.467 2.149 3.578 3.07a27.813 27.813 0 0 0 7.151 4.347 62.263 62.263 0 0 0 5.926-27.127 32.862 32.862 0 0 0-4.737-5.572 22.46 22.46 0 0 0-6.688-4.537Z" class="color303030 svgShape"/><path fill="#191919" d="m1380.418 557.053-6.627 8.081s-19.83-12.98-33.652-30.487l-7.374 2.359s6.84 41.708 70.595 50.484c0 0 29.7 5.118 39.602 4.342a30.883 30.883 0 0 0-3.231-7.664s-26.278-4.877-44.8-10.795l.075-9.435Z" class="color191919 svgShape"/><path fill="#aa6b3f" d="m1345.03 533.57-10.085 6.623c-1.444 1.023-2.986 1.938-4.566 3.08a62.41 62.41 0 0 1-5.693 3.499c-.705-5.119 2.104-9.864 6.234-12.652a14.391 14.391 0 0 1 6.977-2.408 10.648 10.648 0 0 1 7.134 1.858Z" class="coloraa6b3f svgShape"/><path fill="#191919" d="M1421.446 590.267c-4.843 10.42-24.466 45.656-60.54 25.91-22.884-12.518-25.62-32.288-23.39-47.727a73.197 73.197 0 0 1 2.903-12.24c8.832 12.898 29.729 28.424 78.938 33.846.687.084 1.376.146 2.089.21Z" class="color191919 svgShape"/><path fill="#ffffff" d="M1419.357 590.056c-.85 3.66-4.288 6.932-11.236 9.608-37.529 14.43-62.36-17.993-70.606-31.214a73.197 73.197 0 0 1 2.904-12.24c8.832 12.898 29.728 28.424 78.938 33.846Z" class="colorfff svgShape"/><path fill="#aa6b3f" d="M1337.632 537.178a23.417 23.417 0 0 0 .911 7.506 34.492 34.492 0 0 0 3.128 7.552 46.492 46.492 0 0 0 10.881 12.824c8.823 7.373 19.676 12.47 30.89 16.15 22.59 7.319 46.68 9.872 70.577 10.799-23.937.272-48.156-1.011-71.633-7.311-11.671-3.202-23.226-7.841-33.252-15.373a52.389 52.389 0 0 1-12.946-13.832 41.103 41.103 0 0 1-4.183-8.823 29.343 29.343 0 0 1-1.627-10.203Z" class="coloraa6b3f svgShape"/><path fill="#510202" d="M1302.927 254.357a81.158 81.158 0 0 0-9.876 12.278c-1.511 2.122-2.73 4.437-4.092 6.63-1.08 2.358-2.389 4.589-3.358 6.97a64.358 64.358 0 0 0-5.198 29.806c.66 5.014 1.13 10.12 2.93 14.941 1.12 5.028 3.633 9.564 5.666 14.329.888 2.456 2.59 4.485 3.825 6.776l4.005 6.753c3.065 4.252 6.3 8.403 9.314 12.822-3.86-3.623-7.522-7.498-11.315-11.302-3.112-4.329-6.669-8.44-9.34-13.13a73.733 73.733 0 0 1-10.197-30.838 60.855 60.855 0 0 1 6.704-31.854 66.909 66.909 0 0 1 20.932-24.181ZM1345.42 243.618a140.993 140.993 0 0 0-10.79 33.094 132.517 132.517 0 0 0-2.477 34.33 66.592 66.592 0 0 0 .726 8.574 75.332 75.332 0 0 0 1.245 8.52l1.724 8.46c.67 2.798 1.644 5.518 2.411 8.304 1.412 5.627 3.919 10.863 5.953 16.325 2.141 5.423 5.136 10.443 7.499 15.872q-2.556-3.577-5.003-7.27c-1.558-2.497-3.49-4.811-4.75-7.489-2.618-5.292-5.684-10.448-7.483-16.14-4.547-11.04-6.614-22.992-7.44-34.893a111.697 111.697 0 0 1 3.714-35.498 99.34 99.34 0 0 1 14.67-32.19ZM1390.315 244.8c-2.818 11.532-4.924 23.14-6.728 34.763-1.737 11.634-2.975 23.32-3.592 35.027a297.463 297.463 0 0 0-.118 35.16l.525 8.8.931 8.775c.33 5.918 1.744 11.648 2.347 17.592-3.619-11.277-6.669-22.925-7.79-34.826l-.564-4.45-.276-4.47c-.161-2.981-.402-5.965-.497-8.951-.013-5.974-.068-11.956.326-17.92a229.508 229.508 0 0 1 4.788-35.456 182.513 182.513 0 0 1 10.648-34.045ZM1427.29 251.299c4.489 11.445 6.506 23.767 7.634 35.992a248.78 248.78 0 0 1 .381 36.876 323.866 323.866 0 0 1-4.336 36.565c-1.083 6.037-2.419 12.027-3.696 18.014-1.616 5.923-3.058 11.87-4.822 17.736.627-6.11 1.576-12.136 2.35-18.188l2.209-18.138c1.23-12.102 2.61-24.172 3.18-36.288.754-12.1 1.088-24.227.755-36.342-.216-6.053-.47-12.117-1.065-18.157a130.698 130.698 0 0 0-2.59-18.07ZM1476.863 269.524a86.433 86.433 0 0 1 12.389 33.838 107.117 107.117 0 0 1-.602 36.416c-.584 2.993-1.483 5.918-2.212 8.878-.408 1.468-.718 2.967-1.208 4.408l-1.603 4.278c-1.14 2.823-2.095 5.722-3.389 8.468l-4.176 8.091c-.723 1.331-1.362 2.707-2.153 3.996l-2.512 3.784-5.08 7.492c-3.766 4.71-7.723 9.258-11.72 13.697 3.096-5.173 6.616-9.977 9.63-15.093l4.273-7.799 2.165-3.863c.685-1.304 1.216-2.689 1.831-4.028l3.615-8.052c1.144-2.704 1.944-5.541 2.934-8.297l1.459-4.146c.454-1.39.726-2.834 1.099-4.248.66-2.849 1.483-5.664 2.015-8.534a124.572 124.572 0 0 0 1.68-34.943 113.825 113.825 0 0 0-8.435-34.343ZM1521.56 295.865a71.558 71.558 0 0 1 8.724 63.595 81.473 81.473 0 0 1-17.679 28.073 46.312 46.312 0 0 1-6 5.673l-6.286 5.315c-4.584 3.019-9.162 6.003-13.82 8.77 4.008-3.73 8.233-7.08 12.202-10.693l5.565-5.805a50.286 50.286 0 0 0 5.348-5.917 312.171 312.171 0 0 1 4.877-6.275c1.712-2.024 2.784-4.476 4.207-6.681a40.432 40.432 0 0 0 3.72-6.92c.992-2.42 2.219-4.753 3.03-7.233a75.85 75.85 0 0 0 4.002-30.963 91.932 91.932 0 0 0-7.89-30.938ZM1249.341 300.05a106.884 106.884 0 0 0-1.306 18.652 53.968 53.968 0 0 0 3.183 17.61 34.435 34.435 0 0 0 9.908 14.392 44.804 44.804 0 0 0 7.304 5.418c2.591 1.697 5.527 2.784 8.312 4.46a56.74 56.74 0 0 1-9.393-2.186c-2.986-1.272-6.105-2.45-8.716-4.563-2.911-1.697-5.048-4.38-7.335-6.847l-2.756-4.26c-.838-1.462-1.41-3.058-2.113-4.591a44.451 44.451 0 0 1-2.377-19.572 49.827 49.827 0 0 1 5.29-18.512Z" class="color510202 svgShape"/><path d="M1540.983 347.381c-3.843 22.774-63.167 1.043-120.887-8.695s-103.873-22.862-100.03-45.636 53.747-33.342 111.467-23.604 113.292 55.161 109.45 77.935Z" style="mix-blend-mode:soft-light" fill="#ffffff" opacity=".56" class="colorfff svgShape"/><path fill="#e8a679" d="M1409.424 491.253s-35.077 72.315-11.154 72.725 6.941-50.36 11.154-72.725Z" class="colore8a679 svgShape"/><path fill="#aa6b3f" d="M1415.442 461.08c-1.84 13.186-3.29 26.342-3.23 39.325-.016 12.84 3.104 25.625 4.143 39.254a61.807 61.807 0 0 1-.083 10.52c-.41 3.562-1.05 7.45-3.503 10.997a15.192 15.192 0 0 1-10.518 6.303 21.272 21.272 0 0 1-11.235-1.438 31.402 31.402 0 0 1-9.25-5.466 29.357 29.357 0 0 1-6.886-8.07c-1.725-3.07-3.03-6.633-2.621-10.269a13.091 13.091 0 0 1 4.9-8.849 13.015 13.015 0 0 0-2.88 8.867 15.248 15.248 0 0 0 3.59 8.285 25.743 25.743 0 0 0 6.776 6.224 28.591 28.591 0 0 0 8.186 3.887c5.637 1.714 11.827.813 14.194-3.3a17.451 17.451 0 0 0 2.158-7.854 56.368 56.368 0 0 0-.096-9.342c-.794-12.8-3.72-26.166-2.538-39.933a139.446 139.446 0 0 1 8.893-39.142Z" class="coloraa6b3f svgShape"/><path fill="#303030" d="M1280.057 419.323c-3.969 5.787-8.455 11.794-13.514 18.04a89.255 89.255 0 0 1-46.33 1.8q-.416-6.677-.612-13.249c22.921 4.947 44.472-.143 60.456-6.591ZM1303.757 376.089a208.842 208.842 0 0 1-12.995 26.396c-30.034 15.64-56.133 15.726-71.195 13.66q.054-11.422 1.09-22.647c34.229 1.228 66.98-10.487 83.1-17.41Z" class="color303030 svgShape"/><circle cx="1766.533" cy="612.674" r="27.028" fill="#e5a310" class="colore5a310 svgShape"/><circle cx="1646.163" cy="942.328" r="27.028" fill="#e5a310" class="colore5a310 svgShape"/><path fill="#b73b3b" d="M1565.11 619.57s-54.057 231.674-142.436 308.899l4.29 11.154 186.197 3.432s114.978-114.12 131.281-321.768l-176.758-12.87Z" class="colorb73b3b svgShape"/><path d="m1594.86 673.6-36.339 235.393s41.34 6.299 79.53 4.317c-14.713 19.645-24.888 29.754-24.888 29.754l-186.192-3.436-4.295-11.166c88.383-77.216 142.43-308.888 142.43-308.888l2.577-11.166 176.765 12.884q-.99 12.422-2.422 24.425Z" style="mix-blend-mode:soft-light" opacity=".25" fill="#000000" class="color000 svgShape"/><path fill="#e8be0f" d="M1555.582 596.404h209.757a3.557 3.557 0 0 1 3.558 3.557v22.488a3.557 3.557 0 0 1-3.557 3.557h-209.758a3.557 3.557 0 0 1-3.557-3.557v-22.488a3.557 3.557 0 0 1 3.557-3.557Z" class="colore8be0f svgShape"/><path d="M1768.895 611.205a14.814 14.814 0 0 1-14.8 14.8h-187.27a14.804 14.804 0 0 1-14.801-14.8 14.456 14.456 0 0 1 2.268-7.84 14.729 14.729 0 0 0 12.532 6.96h187.271a14.75 14.75 0 0 0 10.461-4.34 13.908 13.908 0 0 0 2.07-2.62 14.455 14.455 0 0 1 2.27 7.84Z" style="mix-blend-mode:soft-light" opacity=".25" fill="#000000" class="color000 svgShape"/><rect width="245.098" height="37.969" x="1405.665" y="923.964" fill="#e8be0f" rx="3.705" class="colore8be0f svgShape"/><path d="M1650.758 939.386v7.136a15.42 15.42 0 0 1-15.417 15.416h-214.25a15.42 15.42 0 0 1-15.417-15.416v-7.136a15.137 15.137 0 0 1 1.19-5.925 15.387 15.387 0 0 0 14.227 9.47h214.25a15.387 15.387 0 0 0 14.228-9.47 15.137 15.137 0 0 1 1.189 5.925Z" style="mix-blend-mode:soft-light" opacity=".25" fill="#000000" class="color000 svgShape"/><circle cx="1407.784" cy="942.328" r="27.028" fill="#ffcf06" class="colorffcf06 svgShape"/><path d="M1407.788 915.292a27.035 27.035 0 1 0 27.024 27.045 27.033 27.033 0 0 0-27.024-27.045Zm-4.14 40.083a18.82 18.82 0 1 1 18.83-18.83 18.817 18.817 0 0 1-18.83 18.83Z" style="mix-blend-mode:soft-light" opacity=".25" fill="#000000" class="color000 svgShape"/><circle cx="1543.367" cy="612.674" r="27.028" fill="#ffcf06" class="colorffcf06 svgShape"/><path d="M1543.368 585.635a27.034 27.034 0 1 0 27.024 27.046 27.033 27.033 0 0 0-27.024-27.046Zm-3.413 40.15a18.38 18.38 0 1 1 18.368-18.368 18.385 18.385 0 0 1-18.368 18.368Z" style="mix-blend-mode:soft-light" opacity=".25" fill="#000000" class="color000 svgShape"/><path fill="#d39363" d="M1663.193 575.07c5.362.71 12.23 4.311 11.279 14.059-.898 9.07-2.029 14.35-6.107 16.714a10.425 10.425 0 0 1-12.837-2.152 2.571 2.571 0 0 1-.323-.354c-4.855-5.826-5.764-15.34-5.764-15.34a12.54 12.54 0 0 1 9.31-12.852 12.386 12.386 0 0 1 4.442-.076Z" class="colord39363 svgShape"/><path fill="#d39363" d="M1686.248 578.086c4.409 1.134 9.118 4.532 8.367 12.229-.79 8.077-1.81 12.788-5.431 14.918a9.189 9.189 0 0 1-9.666-.415 8.874 8.874 0 0 1-2.083-1.836c-4.33-5.208-5.137-13.675-5.137-13.675a11.176 11.176 0 0 1 8.312-11.475 12.811 12.811 0 0 1 5.638.254Z" class="colord39363 svgShape"/><path fill="#d39363" d="M1702.256 581.486c3.661.76 7.808 3.453 7.155 9.922-.633 6.492-1.442 10.3-4.365 11.993a7.311 7.311 0 0 1-6.91.177 7.853 7.853 0 0 1-2.544-1.984c-3.485-4.171-4.133-10.997-4.133-10.997a8.983 8.983 0 0 1 6.683-9.234 9.667 9.667 0 0 1 4.114.122ZM1643.947 574.688c4.626 1.505 9.209 5.365 8.42 13.442-.9 9.07-2.03 14.35-6.108 16.714a10.33 10.33 0 0 1-11.1-.629 10.077 10.077 0 0 1-2.06-1.877c-4.855-5.826-5.763-15.339-5.763-15.339a12.563 12.563 0 0 1 9.309-12.853 14.947 14.947 0 0 1 7.303.542Z" class="colord39363 svgShape"/><path d="M1702.256 581.486c3.661.76 7.808 3.453 7.155 9.922-.633 6.492-1.442 10.3-4.365 11.993a7.311 7.311 0 0 1-6.91.177c3.462-1.883 8.825-7.31 4.12-22.092ZM1686.248 578.086c4.409 1.134 9.118 4.532 8.367 12.229-.79 8.077-1.81 12.788-5.431 14.918a9.189 9.189 0 0 1-9.666-.415c4.01-1.306 10.763-6.48 6.73-26.732ZM1663.193 575.07c5.362.71 12.23 4.311 11.279 14.059-.898 9.07-2.029 14.35-6.107 16.714a10.425 10.425 0 0 1-12.837-2.152c2.917.302 9.411-.53 9.52-13.289.053-7.26-.831-12.143-1.855-15.333ZM1643.947 574.688c4.626 1.505 9.209 5.365 8.42 13.442-.9 9.07-2.03 14.35-6.108 16.714a10.33 10.33 0 0 1-11.1-.629c4.957-2.07 12.305-8.64 8.788-29.527Z" style="mix-blend-mode:soft-light" opacity=".5" fill="#000000" class="color000 svgShape"/></g></svg>