<svg xmlns="http://www.w3.org/2000/svg" viewBox="0 0 962.015 1796.245"><g data-name="Layer 1" fill="#000000" class="color000 svgShape"><ellipse cx="502.979" cy="1702.226" opacity=".15" rx="459.036" ry="94.019" fill="#000000" class="color000 svgShape"/><path fill="#f7991e" d="M562.49 1682.75a57.448 57.448 0 0 0 .836 12.48c1.534 7.596 5.218 13.03 12.584 13.58 16.49 1.23 17.541 14.796 29.875 30.235 12.337 15.403 57.101 12.554 91.956 3.733 34.213-8.61 13.74-47.32 12.998-48.74 6.548 20.388-16.98 21.138-25.712 20.117a16.114 16.114 0 0 1-2.402-.4 2.327 2.327 0 0 1-.324-.098c-2.553-.854-21.58-19.925-35.208-33.84-7.943-8.11-14.03-14.424-14.03-14.424s-64.655-22.44-68.207-2.991a140.228 140.228 0 0 0-2.367 20.348Z" class="colorf7991e svgShape"/><path fill="#f4bd21" d="M685.027 1714.155c-3.621 7.542-5.728 14.533-1.462 15.147 9.552 1.376 41.036 5.127 27.174-35.263 6.548 20.387-16.98 21.137-25.712 20.116ZM563.326 1695.23a79.153 79.153 0 0 0 23.702 3.355c24.889-.206 26.978 27.587 54.9 33.136 23.35 4.617 34.184-4.265 40.697-17.966a2.341 2.341 0 0 1-.324-.098c-2.553-.854-21.58-19.925-35.208-33.84-4.912 3.613-17.262 8.624-47.453 7.291-16.27-.735-28.339-2.447-37.15-4.358Z" class="colorf4bd21 svgShape"/><path fill="#f7991e" d="M447.547 1685.224a57.442 57.442 0 0 1-2.68 12.218c-2.645 7.283-7.095 12.11-14.461 11.56-16.49-1.231-19.544 12.027-34.034 25.464-14.487 13.4-58.332 3.937-91.49-9.962-32.555-13.596-6.562-48.836-5.618-50.13-9.502 19.19 13.655 23.425 22.44 23.712a16.111 16.111 0 0 0 2.435-.04 2.34 2.34 0 0 0 .336-.048c2.65-.465 24.3-16.5 39.841-28.237 9.06-6.841 16.018-12.18 16.018-12.18s67.269-12.593 67.894 7.168a140.21 140.21 0 0 1-.68 20.475Z" class="colorf7991e svgShape"/><path fill="#f4bd21" d="M321.704 1698.086c2.462 7.996 3.507 15.223-.803 15.196-9.65-.058-41.342-1.023-21.637-38.907-9.502 19.189 13.655 23.424 22.44 23.71ZM447.547 1685.224c-8.998.58-21.187.482-37.386-1.207-30.054-3.165-41.523-9.954-45.845-14.256-15.542 11.737-37.19 27.772-39.841 28.237a2.355 2.355 0 0 1-.336.049c4.407 14.516 13.802 24.908 37.578 23.81 28.437-1.342 34.63-28.516 59.212-24.618a79.15 79.15 0 0 0 23.937.203Z" class="colorf4bd21 svgShape"/><path fill="#b38c48" d="m632.29 1397.964 3.008 209.575s10.799 8.06 7.968 18.213-7.26 13.968-3.446 18.398 4.645 21.075 1.322 23.936-48.456 24.365-84.174 3.043c0 0-2.723-12.121-1-21.32s-9.729-8.5-4.93-24.205-29.767-212.091-29.767-212.091Z" class="colorb38c48 svgShape"/><path d="M602.908 1495.256s6.532 88.226 5.607 100.612c-.777 10.407-30.103 16.251-58.05 8.564.643 6.68 1.013 12.088.985 15.918 11.384 1.514 38.443 3.829 61.72-3.425 28.52-8.852 3.93 34.232-62.301 20.59 1.631 3.807 4.84 5.742 5.213 9.639a1.152 1.152 0 0 1 .25.093 209.254 209.254 0 0 0 63.419 1.97c30.796-3.817-21.428 35.287-63.166 19.826.234 1.308.396 2.093.396 2.093 35.7 21.312 80.825-.193 84.17-3.039 3.31-2.885 2.49-19.528-1.345-23.942-3.795-4.447.616-8.245 3.473-18.386 2.824-10.18-7.997-18.248-7.997-18.248l-3-209.566-111.01 15.555s6.004 34.091 12.64 75.01c13.684 3.786 39.479 9.212 68.996 6.736Z" style="mix-blend-mode:soft-light" opacity=".3" fill="#000000" class="color000 svgShape"/><path fill="#b38c48" d="m459.81 1395.765-11.459 209.283s10.217 8.787 6.692 18.72-8.207 13.433-4.707 18.116 3.18 21.345-.333 23.97-50.022 20.964-84.184-2.772c0 0-1.88-12.28.474-21.338s-9.12-9.15-3.247-24.488-15.062-213.64-15.062-213.64Z" class="colorb38c48 svgShape"/><path d="M423.785 1490.798s.429 88.466-1.348 100.76c-1.494 10.328-31.153 14.135-58.504 4.537.181 6.71.178 12.13-.115 15.949 11.253 2.295 38.088 6.471 61.81.841 29.062-6.863 1.559 34.422-63.574 16.243 1.365 3.91 4.433 6.062 4.536 9.975a1.153 1.153 0 0 1 .244.11 209.255 209.255 0 0 0 63.13 6.342c30.987-1.684-23.81 33.724-64.383 15.42.144 1.32.251 2.115.251 2.115 34.145 23.724 80.646 5.385 84.18 2.776 3.501-2.65 3.83-19.31.31-23.978-3.48-4.698 1.183-8.183 4.733-18.103 3.52-9.961-6.719-18.756-6.719-18.756l11.467-209.273-111.818 7.858s3.637 34.424 7.434 75.704c13.39 4.72 38.749 11.914 68.366 11.48Z" style="mix-blend-mode:soft-light" opacity=".3" fill="#000000" class="color000 svgShape"/><path fill="#ce8d61" d="m739.632 647.033-1.554-8.22s-12.942-12.938-16.102-19.118-12.05-22.117-12.182-25.263 8.948-12.48 23.076-20.336c-2.913-33.855-3.566-60.193-3.324-81.806s8.155-23.653 21.629 5.039 8.44 76.46 8.44 76.46 12.738-28.577 21.57-17.939 4.979 21.373 4.979 21.373 16.473-14.073 20.756-1.059-.748 19.774-.748 19.774 12.794-1.053 15.07 10.503-5.686 19.504-17.491 19.908c-2.849 18.323-3.795 24.084-10.426 30.975s-16.736 4.689-19.543 4.07-34.15-14.361-34.15-14.361Z" class="colorce8d61 svgShape"/><path d="M806.23 613.84c.215-9.62 4.002-14.425 7.18-16.739a17.43 17.43 0 0 0-6.793-1.145l-2.25 2.78s-12.59 5.102-11.428-8.043c.789-8.778 5.815-15.93 9.1-19.763-6.417-1.757-15.861 6.3-15.861 6.3a1.5 1.5 0 0 0 .122-.396 13.392 13.392 0 0 0-.668 1.759c-1.12 3.81-15.2 10.119-14.089-4.146a23.807 23.807 0 0 1 10.137-17.99 6.363 6.363 0 0 0-.477-.618c-7.005-8.408-16.476 7.784-20.111 14.899l-1.49 3.065s-13.743-7.465-19.483-35.804c-4.04-19.92-3.408-47.041-2.685-61.313-4.971-2.998-7.772 2.964-7.894 15.598-.233 21.628.423 47.945 3.328 81.823-14.108 7.86-23.216 17.168-23.072 20.332.142 3.125 9.006 19.085 12.186 25.252 3.14 6.17 16.096 19.122 16.096 19.122l1.568 8.235s31.335 13.724 34.136 14.345c2.8.622 12.894 2.812 19.53-4.086 6.637-6.858 7.596-12.63 10.425-30.947 9.074-.321 15.921-5.105 17.515-12.556-6.806 5.285-15.218 9.889-15.022.037Zm-69.945-30.682c1.82-8.476 11.032-12.758 11.032-12.758 6.818 4.744 39.686 34.258 39.686 34.258s-52.576-13.021-50.718-21.5Z" style="mix-blend-mode:soft-light" opacity=".3" fill="#000000" class="color000 svgShape"/><path fill="#aa6b3f" d="M754.861 603.476c.717 5.058 1.453 10.26 3.508 14.748.546 1.034 1.145 2.299 1.77 2.414a6.232 6.232 0 0 0 3.155-.034 32.835 32.835 0 0 0 6.931-2.508 83.555 83.555 0 0 0 12.944-7.603c2.052-1.505 3.58-3.038 2.825-3.862-.767-1.53-2.88-3.416-4.657-5.1-7.509-7.062-14.766-14.18-22.466-20.915-3.818-3.3-7.722-6.885-11.868-9.323-.715-.528-2.148-.479-3.325-.47a18.845 18.845 0 0 0-3.686.538 36.715 36.715 0 0 0-7.122 2.735 28.695 28.695 0 0 1 6.822-3.713 20.067 20.067 0 0 1 3.844-1.01c1.34-.12 2.619-.472 4.237.191 4.915 2.423 8.816 5.667 12.992 8.765 4.119 3.124 8 6.525 11.89 9.921l11.323 10.47c1.84 1.9 3.854 3.336 5.464 6.394a4.923 4.923 0 0 1 .38 2.995 5.997 5.997 0 0 1-1.233 2.47 15.24 15.24 0 0 1-3.288 2.87 70.928 70.928 0 0 1-13.914 7.364 35.26 35.26 0 0 1-7.7 2.186 8.139 8.139 0 0 1-4.43-.386 3.792 3.792 0 0 1-1.763-1.785 11.838 11.838 0 0 1-.863-1.886 47.076 47.076 0 0 1-1.77-15.466Z" class="coloraa6b3f svgShape"/><path fill="#aa6b3f" d="M803.75 626.349a12.62 12.62 0 0 1-10.328-3.969 10.18 10.18 0 0 1-2.594-5.515 12.876 12.876 0 0 1 .497-5.866l1.472 1.9a5.456 5.456 0 0 1-4.006-2.564 6.707 6.707 0 0 1-.895-4.043 10.327 10.327 0 0 0 2.4 2.747 3.592 3.592 0 0 0 2.615.731l1.574-.182-.1 2.084a16.74 16.74 0 0 0 .174 4.533 9.556 9.556 0 0 0 1.668 3.907c1.69 2.407 4.407 4.372 7.523 6.237Z" class="coloraa6b3f svgShape"/><path fill="#aa6b3f" d="M806.172 595.938a19.825 19.825 0 0 1-4.48 9.541c-2.251 2.634-5.108 5.136-8.838 5.856a67.172 67.172 0 0 1 5.864-8.312 36.398 36.398 0 0 1 7.454-7.085ZM786.164 577.223a19.779 19.779 0 0 1-2.37 9.943 18.138 18.138 0 0 1-6.845 7.627 35.768 35.768 0 0 1 3.414-9.39 31.337 31.337 0 0 1 5.8-8.18Z" class="coloraa6b3f svgShape"/><path fill="#a9a35f" d="m543.192 690.135 126.974 95.808s43.466-93.484 63.452-148.3c0 0 46.207 12.731 58.495 21.785 0 0-13.67 222.06-80.619 247.055s-127.74-51.111-127.74-51.111Z" class="colora9a35f svgShape"/><path d="M706.318 908.178c-64.892 19.446-122.574-52.787-122.574-52.787l-40.552-165.267 79.006 59.648c.263 70.879 51.302 102.298 64.849 89.363 14.114-13.502-16.868-53.18-16.868-53.18s43.436-93.515 63.45-148.312c0 0 11.536 3.19 24.646 7.516-14.814 39.503-76.385 210.712-51.957 263.02Z" style="mix-blend-mode:soft-light" opacity=".3" fill="#000000" class="color000 svgShape"/><path fill="#cec7c2" d="M102.388 672.65s-6.475 112.948 108.255 64.585c0 0 31.051 64.279 122.4 21.626 38.12-17.789 63.725-34.85 80.634-48.669 21.766 1.76 52.53 1.244 94.005-5.786 99.388-16.823 88.414-87.363 88.414-87.363 121.886-25.418 52.361-114.668 52.361-114.668 40.375-84.971-61.364-105.963-61.364-105.963.256-135.402-87.391-123.807-87.391-123.807l-193.875 47.936-12.689 3.131-12.207 4.632-186.76 70.754s-78.704 40.276-1.52 151.53c0 0-71.778 75.098 9.737 122.062Z" class="colorcec7c2 svgShape"/><path fill="#a9a35f" d="m285.265 1386.988 6.779 59.052s54.859-7.093 81.5-3.723c26.638 3.354 68.965 27.35 126.006 22.607s58.793-6.624 77.301-6.73 108.63-5.546 133.067-14.768c0 0-12.765-70.417-20.777-112.28-6.711-35.185-40.114-223.043-53.732-313.815-2.6-17.295-4.468-31.065-5.303-39.581-1.217-12.398-3.104-29.49-5.3-48.421-7.186-62.383-17.556-144.714-17.556-144.714l-22.453-30.236-34.815-46.896-57.276-47.29s-59.197-17.226-91.138-14.947l-5.675 36.207Z" class="colora9a35f svgShape"/><path d="m285.268 1386.992 6.782 59.047s39.936-5.162 68.204-4.571c20.064-13.342 50.88-29.657 87-33.823 59.987-6.91 116.13-21.671 116.13-21.671l-12.917-278.467 46.425-50.83 4.539 297.791c22.082 29.774 72.463 25.781 96.27 22.257a8258.386 8258.386 0 0 0-8.568-45.58c-6.707-35.178-40.115-223.033-53.72-313.81-2.612-17.295-4.475-31.062-5.312-39.591-1.216-12.387-3.094-29.48-5.299-48.407-7.182-62.39-17.547-144.727-17.547-144.727l-22.457-30.23-34.824-46.899-57.26-47.293s-59.21-17.227-91.145-14.934l-5.681 36.191Z" style="mix-blend-mode:soft-light" opacity=".3" fill="#000000" class="color000 svgShape"/><path fill="#1e94af" d="M616.078 914.283s-51.158 34.881-148.998 11.208l26.972 115.945s89.785 21.05 132.172-13.823-10.146-113.33-10.146-113.33Z" class="color1e94af svgShape"/><path d="m467.079 925.489 26.972 115.939s89.79 21.064 132.168-13.81c42.396-34.877-10.134-113.332-10.134-113.332s-8.567 5.85-25.42 11.106l4.225 100.272s-56.923 9.608-74.248-92.23a286.865 286.865 0 0 1-53.563-7.945Z" style="mix-blend-mode:soft-light" opacity=".3" fill="#000000" class="color000 svgShape"/><path fill="#1e94af" d="M395.893 681.453c9.96 32.123 23.082 72.97 27.909 81.061 8.167 13.7 71.614 84.258 123.747 79.143 52.134-5.116 41.147-47.543 41.147-47.543l-3.899-39.735-34.815-46.896-57.276-47.29s-59.197-17.226-91.138-14.947Z" class="color1e94af svgShape"/><path d="M589.586 805.962a443.723 443.723 0 0 1-7.062 19.708 35.421 35.421 0 0 0 7.062-19.708ZM395.888 681.445c6.789 21.86 15.013 47.728 21.11 64.59A326.396 326.396 0 0 0 467 751.22c33.696.734 59.54-4.947 79.021-12.856a135.827 135.827 0 0 0 19.608-9.785l-15.655-21.099-57.2-47.244-.06-.05s-59.21-17.226-91.145-14.933Z" style="mix-blend-mode:soft-light" opacity=".3" fill="#000000" class="color000 svgShape"/><path fill="#842d1b" d="M492.705 660.199s92.628 30.156 114.814 77.464 94.984 620.323 94.984 620.323-15.197 4.05-45.331 4.875-46.99-12.026-46.99-12.026.611-316.588-19.982-466.86S492.705 660.2 492.705 660.2Z" class="color842d1b svgShape"/><path d="M610.179 1350.83s16.858 12.863 46.998 12.027c1.186-.025 2.352-.067 3.5-.106-61.71-310.83-48.932-491.955-38.565-563.491l-.002-.018c-5.878-31.583-10.924-53.76-14.598-61.572a59.188 59.188 0 0 0-1.073-2.18c-3.108 25.719-10.736 52.137-16.853 70.472a443.723 443.723 0 0 1-7.062 19.708 31.146 31.146 0 0 1-2.98 3.345c.296 1.16.593 2.319.873 3.498a501.525 501.525 0 0 1 9.784 51.458c20.598 150.279 19.978 466.86 19.978 466.86ZM492.718 660.224c.827.797 27.405 26.637 53.303 78.141a135.827 135.827 0 0 0 19.608-9.785 113.117 113.117 0 0 0 21.711-16.867c-34.335-31.479-92.336-50.744-94.566-51.476-.038-.015-.038-.015-.056-.013Z" style="mix-blend-mode:soft-light" opacity=".3" fill="#000000" class="color000 svgShape"/><path fill="#842d1b" d="M401.569 645.253s120.384 34.898 154.97 722.577c0 0-21.038 9.103-61.996 16.321s-118.696 27.005-135.286 29.273-80.327.843-103.852-15.405c0 0 60.225-377.041 26.226-529.836s-60.855-173.196 119.938-222.93Z" class="color842d1b svgShape"/><path d="M255.397 1398.022c23.534 16.248 87.264 17.674 103.861 15.405 7.739-1.07 28.817-5.936 53.257-11.57-95.939-74.415-82.956-397.109-82.956-397.109 40.69 237.84 127.212 303.123 128.554 304.125-66.923-95.27-132.562-397.324-112.084-461.039 20.496-63.717 12.238-116.385 12.238-116.385a470.657 470.657 0 0 0 58.731 14.586A326.396 326.396 0 0 0 467 751.22c-34.795-97.09-65.43-105.967-65.43-105.967-180.787 49.735-153.938 70.138-119.931 222.922 33.99 152.804-26.242 529.846-26.242 529.846Z" style="mix-blend-mode:soft-light" opacity=".3" fill="#000000" class="color000 svgShape"/><path fill="#a9a35f" d="M271.42 704.522s42.366-.318 60.22 37.603 10.184 98.822-30.865 137.403c0 0 28.556 37.724 4.209 77.653s-106.638-18.97-123.473-66.376 78.365-184.724 89.908-186.283Z" class="colora9a35f svgShape"/><path d="M181.509 890.8c16.83 47.42 99.125 106.317 123.472 66.374 24.348-39.925-4.2-77.64-4.2-77.64s-44.508 42.233-70.487 29.022c-25.98-13.23 17.536-156.672 52.807-174.54 35.272-17.85 80.08 41.178 17.68 145.518 41.044-38.582 48.707-99.486 30.854-137.41-17.855-37.922-60.223-37.604-60.223-37.604-11.53 1.552-106.73 138.877-89.903 186.28Z" style="mix-blend-mode:soft-light" opacity=".3" fill="#000000" class="color000 svgShape"/><path fill="#ce8d61" d="M542.437 469.347c22.266 12.288 42.241 1.486 56.788-18.52l.013-.003c28.306-38.898 36.164-112.513.749-118.618-18.02-3.109-32.137 2.035-42.94 10.229-21.347 16.181-29.754 44.3-29.754 44.3s-50.44 46.415 15.144 82.612Z" class="colorce8d61 svgShape"/><path d="M542.437 469.347c22.266 12.288 42.241 1.486 56.788-18.52-25.108 15.383-37.983-12.003-37.983-12.003 34.435 12.872 58.377-70.122 42.619-81.992-15.771-11.867-42.464 25.298-42.464 25.298-11.405-15.494-8.277-30.582-4.35-39.695-21.347 16.181-29.754 44.3-29.754 44.3s-50.44 46.415 15.144 82.612Z" style="mix-blend-mode:soft-light" opacity=".3" fill="#000000" class="color000 svgShape"/><path fill="#aa6b3f" d="M549.638 447.038c-3.477-9.286-4.535-19.32-4.157-29.29a81.745 81.745 0 0 1 6.697-29.441 63.493 63.493 0 0 1 18.51-24.28c7.733-6.778 17.603-10.364 27.13-12.262-7.887 6.045-15.582 11.217-21.408 18.324a83.797 83.797 0 0 0-14.48 22.57 132.433 132.433 0 0 0-8.206 26.09 268.834 268.834 0 0 0-4.086 28.289Z" class="coloraa6b3f svgShape"/><path fill="#cec7c2" d="M461.216 336.44a162.58 162.58 0 0 0 10.585 19.19 191.773 191.773 0 0 0 24.109 30.22c32.612 33.58 69.516 49.572 69.516 49.572 11.015-24.737 13.063-46.16 9.728-64.436a90.094 90.094 0 0 0-7.27-22.42 98.063 98.063 0 0 0-5.208-9.523 120.542 120.542 0 0 0-23.489-27.153 164.137 164.137 0 0 0-43.995-27.248s-48.428-123.774-48.226-12.111a149.956 149.956 0 0 0 14.25 63.91Z" class="colorcec7c2 svgShape"/><path fill="#eae6e4" d="M471.8 355.63a191.773 191.773 0 0 0 24.11 30.22c36.221 15.28 68.498-6.31 79.244-14.864a90.094 90.094 0 0 0-7.27-22.42c-35.344 27.861-76.999 15.339-96.083 7.065Z" class="coloreae6e4 svgShape"/><path fill="#eae6e4" d="M461.216 336.44c35.84 30.925 79.881 14.185 101.46 2.603a120.542 120.542 0 0 0-23.489-27.153c-34.588 13.82-72.709 3.077-87.573-2.205a150.978 150.978 0 0 0 9.602 26.756Z" class="coloreae6e4 svgShape"/><circle cx="594.154" cy="517.471" r="25.036" fill="#1e94af" transform="rotate(-28.647 594.154 517.47)" class="color1e94af svgShape"/><path fill="#46b9cc" d="M581.222 515.209a15.052 15.052 0 1 0 9.89-18.85 15.052 15.052 0 0 0-9.89 18.85Z" class="color46b9cc svgShape"/><circle cx="582.448" cy="481.193" r="12.768" fill="#cec7c2" transform="rotate(-22.665 582.449 481.193)" class="colorcec7c2 svgShape"/><path fill="#eae6e4" d="M575.853 480.04a7.677 7.677 0 1 0 5.044-9.614 7.677 7.677 0 0 0-5.044 9.613Z" class="coloreae6e4 svgShape"/><circle cx="576.101" cy="456.422" r="12.768" fill="#f7991e" transform="rotate(-88.151 576.101 456.422)" class="colorf7991e svgShape"/><path fill="#f4bd21" d="M569.506 455.269a7.677 7.677 0 1 0 5.043-9.614 7.676 7.676 0 0 0-5.043 9.614Z" class="colorf4bd21 svgShape"/><path fill="#ce8d61" d="M193.815 617.391c-11.336 22.767-33.91 25.232-57.25 17.04l-.012.005c-45.399-15.916-93.705-72.017-68.036-97.17 13.059-12.8 27.597-16.591 41.142-15.99 26.762 1.181 49.661 19.538 49.661 19.538s67.882 9.52 34.495 76.577Z" class="colorce8d61 svgShape"/><path d="M193.815 617.391c-11.336 22.767-33.91 25.232-57.25 17.04 29.4-1.614 24.429-31.464 24.429-31.464-21.016 30.163-87.886-24.514-81.668-43.237 6.231-18.727 49.317-3.321 49.317-3.321.577-19.23-10.572-29.867-18.984-35.132 26.762 1.18 49.661 19.537 49.661 19.537s67.882 9.52 34.495 76.577Z" style="mix-blend-mode:soft-light" opacity=".3" fill="#000000" class="color000 svgShape"/><path fill="#aa6b3f" d="M175.21 603.13a268.796 268.796 0 0 0-19.441-20.954 132.42 132.42 0 0 0-21.58-16.802 83.79 83.79 0 0 0-24.743-10.339c-8.832-2.536-18.103-2.418-28.028-2.908 8.917-3.853 19.077-6.513 29.292-5.332a63.5 63.5 0 0 1 29.029 9.455 81.754 81.754 0 0 1 22.244 20.418c5.977 7.989 10.81 16.845 13.227 26.462Z" class="coloraa6b3f svgShape"/><path fill="#ce8d61" d="M480.116 287.72s224.86 284.639 40.501 398.833c0 0-354.195 239.686-387.722-260.23l.753-151.896L438.6 203.076Z" class="colorce8d61 svgShape"/><path d="M520.61 686.55c31.72-19.654 51.337-44.345 62.045-71.77-34.552 47.756-102.863 102.121-193.793 92.067-143.418-15.87-204.795-242.982-93.034-273.104 91.009-24.546 173.204-97.451 200.58-123.68-9.83-14.167-16.298-22.346-16.298-22.346l-41.512-84.642-304.943 71.352-.764 151.896C166.42 926.245 520.61 686.55 520.61 686.55Z" style="mix-blend-mode:soft-light" opacity=".3" fill="#000000" class="color000 svgShape"/><path fill="#cec7c2" d="M364.428 488.837a394.2 394.2 0 0 1-67.626-5.39c-3.699-.589-7.139-1.19-10.286-1.787a70.606 70.606 0 0 1-17.958-5.954 33.353 33.353 0 0 1-3.018-1.55 64.641 64.641 0 0 1-11.496-7.887 54.26 54.26 0 0 1-3.324-2.95 52.442 52.442 0 0 1 7.136-11.703 56.2 56.2 0 0 1 34.468-20.882 58.269 58.269 0 0 1 5.961-.807 72.952 72.952 0 0 1 15.806.364 56.07 56.07 0 0 1 17.48 4.94c31.162 14.641 32.857 53.606 32.857 53.606Z" class="colorcec7c2 svgShape"/><path fill="#eae6e4" d="M265.54 474.155a64.641 64.641 0 0 1-11.496-7.886 104.173 104.173 0 0 1 3.812-14.653 56.2 56.2 0 0 1 34.468-20.882c-11.495 10.61-22.852 25.367-26.784 43.421Z" class="coloreae6e4 svgShape"/><path fill="#eae6e4" d="M331.572 435.232a212.093 212.093 0 0 0-34.77 48.215c-3.699-.589-7.139-1.19-10.286-1.787a70.606 70.606 0 0 1-17.958-5.954c4.817-14.165 13.69-31.962 29.727-45.779a72.952 72.952 0 0 1 15.806.364 56.07 56.07 0 0 1 17.48 4.94Z" class="coloreae6e4 svgShape"/><circle cx="319.181" cy="529.504" r="35.694" transform="rotate(-65.962 319.18 529.502)" style="mix-blend-mode:soft-light" opacity=".45" fill="#000000" class="color000 svgShape"/><circle cx="322.415" cy="537.946" r="23.607" fill="#1b1723" transform="rotate(-65.962 322.415 537.946)" class="color1b1723 svgShape"/><path fill="#ffffff" d="M322.22 529.012a7.408 7.408 0 1 0 4.268-9.569 7.409 7.409 0 0 0-4.268 9.569ZM320.973 539.754a3.751 3.751 0 1 0 2.161-4.845 3.751 3.751 0 0 0-2.16 4.845Z" class="colorfff svgShape"/><path fill="#cec7c2" d="M429.935 418.853a317.28 317.28 0 0 0 54.583-1.497c2.998-.318 5.788-.657 8.343-1.006a56.832 56.832 0 0 0 14.684-4.032 26.837 26.837 0 0 0 2.49-1.12 52.023 52.023 0 0 0 9.572-5.857c.96-.7 1.897-1.458 2.795-2.233a42.21 42.21 0 0 0-5.245-9.705 45.236 45.236 0 0 0-26.83-18.23 46.927 46.927 0 0 0-4.758-.898 58.721 58.721 0 0 0-12.72-.37 45.13 45.13 0 0 0-14.257 3.238c-25.662 10.462-28.657 41.71-28.657 41.71Z" class="colorcec7c2 svgShape"/><path fill="#eae6e4" d="M510.036 411.198a52.023 52.023 0 0 0 9.57-5.857 83.855 83.855 0 0 0-2.45-11.938 45.236 45.236 0 0 0-26.829-18.23c8.795 9.01 17.305 21.348 19.709 36.025Z" class="coloreae6e4 svgShape"/><path fill="#eae6e4" d="M458.592 377.143a170.71 170.71 0 0 1 25.926 40.213c2.998-.318 5.788-.657 8.343-1.006a56.832 56.832 0 0 0 14.684-4.032c-3.278-11.588-9.665-26.265-21.976-38.043a58.721 58.721 0 0 0-12.72-.37 45.13 45.13 0 0 0-14.257 3.238Z" class="coloreae6e4 svgShape"/><circle cx="489.781" cy="460.918" r="32.145" transform="rotate(-85.369 489.781 460.918)" style="mix-blend-mode:soft-light" opacity=".45" fill="#000000" class="color000 svgShape"/><circle cx="492.694" cy="468.521" r="21.26" fill="#1b1723" transform="rotate(-.437 492.697 468.523)" class="color1b1723 svgShape"/><path fill="#ffffff" d="M492.518 460.475a6.672 6.672 0 1 0 3.843-8.617 6.672 6.672 0 0 0-3.843 8.617ZM491.395 470.149a3.378 3.378 0 1 0 1.947-4.363 3.378 3.378 0 0 0-1.947 4.363Z" class="colorfff svgShape"/><path fill="#cec7c2" d="M441.88 564.725c39.331 48.196 72.214-9.105 83.947 32.262 11.745 41.362 64.678 21.688 68.284 4.64 3.618-17.052-17.566-22.473-17.566-22.473 11.627 4.745-.167 19.617-8.921 14.717-5.8-3.239-6.216-20.176-12.04-36.908-2.951-8.533-7.315-17.01-14.501-23.604-14.268-13.085-33.526-13.705-44.69-12.686a64.128 64.128 0 0 0-9.072 1.402Z" class="colorcec7c2 svgShape"/><path fill="#eae6e4" d="M555.584 556.963c-2.951-8.533-7.315-17.01-14.501-23.604-14.268-13.085-33.526-13.705-44.69-12.686 6.36 19.377 26.694 69.223 59.19 36.29Z" class="coloreae6e4 svgShape"/><path fill="#cec7c2" d="M448.42 560.846c4.322 72.574-69.306 49.325-46.655 94.183 22.637 44.865-38.452 69.84-55.046 58.035-16.607-11.8-2.681-33.228-2.681-33.228-6.243 13.282 15.669 16.736 19.32 5.594 2.423-7.374-10.624-22.27-18.858-41.267-4.216-9.673-7.173-20.416-6.212-31.774 1.913-22.544 17.983-38.32 28.39-46.278a74.95 74.95 0 0 1 8.91-5.975Z" class="colorcec7c2 svgShape"/><path fill="#eae6e4" d="M344.5 644.163c-4.216-9.673-7.173-20.416-6.212-31.774 1.913-22.544 17.983-38.32 28.39-46.278 9.865 21.696 31.831 80.653-22.178 78.052Z" class="coloreae6e4 svgShape"/><path fill="#cec7c2" d="M208.478 457.12a142.49 142.49 0 0 1 1.399 22.565 178.127 178.127 0 0 1-5.431 40.285c-12.008 48.486-37.329 85.093-37.329 85.093-27.102-13.334-45.214-29.532-53.467-46.712a77.057 77.057 0 0 1-6.862-23.106 85.843 85.843 0 0 1-.74-11.169c-.042-13.046 2.749-25.803 6.752-37.364 10.044-29.008 17.293-57.155 17.293-57.155s-18.944-126.247 52.18-34.167a131.799 131.799 0 0 1 18.965 33.565 129.165 129.165 0 0 1 7.24 28.166Z" class="colorcec7c2 svgShape"/><path fill="#eae6e4" d="M209.877 479.685a178.127 178.127 0 0 1-5.431 40.285c-27.4 35.72-74.307 38.56-90.796 38.381a77.057 77.057 0 0 1-6.862-23.106c54.058.365 88.794-36.556 103.089-55.56Z" class="coloreae6e4 svgShape"/><path fill="#eae6e4" d="M208.478 457.12c-17.016 48.36-72.894 62.71-102.43 66.956-.042-13.046 2.749-25.803 6.752-37.364 44.314-10.714 76.561-43.913 88.438-57.757a129.165 129.165 0 0 1 7.24 28.166Z" class="coloreae6e4 svgShape"/><circle cx="171.288" cy="688.666" r="25.036" fill="#1e94af" class="color1e94af svgShape"/><path fill="#46b9cc" d="M180.642 679.455a15.052 15.052 0 1 1-18.85-9.889 15.052 15.052 0 0 1 18.85 9.89Z" class="color46b9cc svgShape"/><circle cx="160.3" cy="652.165" r="12.768" fill="#cec7c2" transform="rotate(-76.908 160.3 652.165)" class="colorcec7c2 svgShape"/><path fill="#eae6e4" d="M165.07 647.467a7.677 7.677 0 1 1-9.613-5.043 7.677 7.677 0 0 1 9.613 5.043Z" class="coloreae6e4 svgShape"/><circle cx="151.443" cy="628.177" r="12.768" fill="#f7991e" transform="rotate(-18.562 151.443 628.177)" class="colorf7991e svgShape"/><path fill="#f4bd21" d="M156.214 623.48a7.677 7.677 0 1 1-9.614-5.044 7.677 7.677 0 0 1 9.614 5.043Z" class="colorf4bd21 svgShape"/><path fill="#d18e2c" d="M129.549 432.876c8.316-5.222 17.848-12.782 26.648-20.31 4.05-3.472 7.948-6.94 11.5-10.173 10.034-9.13 17.253-16.346 17.253-16.346l-9.583-4.27s329.54-107.121 355.946-141.483c7.262-9.453 14.844-23.175 17.713-38.602a66.752 66.752 0 0 0 1.015-17.198c-2.714-37.142-39.372-78.315-169.647-93.123C172.294 67.711-19.72 219.044 1.627 318.365c21.348 99.32 127.922 114.511 127.922 114.511Z" class="colord18e2c svgShape"/><path fill="#5b4a24" d="M156.197 412.566c4.05-3.472 7.948-6.94 11.5-10.173-27.544-4.993-64.682-22.673-68.274-81.29-5.77-94.178 198.445-211.356 335.354-191.106 129.619 19.166 111.162 78.393 108.819 84.648 1.215-2.785 3.752-7.254 5.43-12.953a66.752 66.752 0 0 0 1.015-17.198c-3.63-18.995-24.976-43.362-99.844-65.6C318.4 79.737 76.735 192.857 73.174 302.546c-2.982 91.9 61.911 107.401 83.023 110.021Z" class="color5b4a24 svgShape"/><path d="M12.887 351.066c34.503 70.099 116.662 81.81 116.662 81.81 22.998-14.43 55.401-46.829 55.401-46.829l-9.583-4.27s329.54-107.121 355.946-141.483c17.124-22.277 36.072-68.314-9.403-104.388l-.012.004c-16.52 2.102-42.575 1.079-83.262-8.697-96.952-23.267-192.231 14.317-271.58 87.831C97.39 279.594 87.049 363.23 12.888 351.066Z" style="mix-blend-mode:soft-light" opacity=".3" fill="#000000" class="color000 svgShape"/><path fill="#f9d7a5" d="M197.498 219.79c53.724-38.179 115.268-60.101 180.015-66.995 61.139-6.51 136.788-5.09 159.821 36.254C577.927 261.913 411.73 381.442 184.07 409.67c0 0-136.45-83.368 13.43-189.88Z" class="colorf9d7a5 svgShape"/><path d="M184.064 409.668C386.15 384.613 539.79 287.625 543.387 215.186c-52.229 49.784-152.85 98.139-275.967 120.5-42.12 7.652-84.101-16.322-97.418-57.012a76.722 76.722 0 0 1-3.357-33.64c-97.948 94.154 17.419 164.634 17.419 164.634Z" style="mix-blend-mode:soft-light" opacity=".3" fill="#000000" class="color000 svgShape"/><path fill="#f30005" d="M325.728 157.807c-18.04-10.952-18.18-23.373-18.826-33.353s9.913-6.956 9.913-6.956 2.595-4.742-7.479-12.638-13.057-9.619-17.935-24.619-13.446-16.082-12.351-25.257a12.423 12.423 0 0 1 9.034-10.93s-3.413-24.852 5.514-29.207 18.031 13.282 18.031 13.282-6.761-23.516-2.534-20.877S322.3 26.96 322.3 26.96s-5.249-14.323 1.328-15.181 6.337 2.767 11.545.424 3.69-13.916 19.21-11.988 6.002 17.728 6.63 20.567 4.705-4.613 7.814-2.323 5.374 14.89.8 22.452 3.766 17.032 6.486 12.857 12.532-2.175 11.437 7-2.422 24.355 1.954 37.084a41.93 41.93 0 0 0 8.22-4.926c5.31-3.814 4.854 34.13-8.59 49.863s-35.638 31.877-63.407 15.017Z" class="colorf30005 svgShape"/><path fill="#c1050e" d="M400.15 113.07c-1.371 10.436-4.8 22.45-11.016 29.718-13.438 15.73-35.632 31.878-63.4 15.016-18.05-10.942-18.187-23.37-18.834-33.347-.65-9.99 9.92-6.966 9.92-6.966s2.592-4.73-7.485-12.635c-10.073-7.893-13.052-9.613-17.928-24.617-4.89-15.001-13.455-16.075-12.355-25.262a12.415 12.415 0 0 1 9.03-10.926s-3.414-24.845 5.51-29.198a6.717 6.717 0 0 1 4.595-.496 15.201 15.201 0 0 0-.736 3.226c-1.103 9.174 7.465 10.26 12.354 25.261 4.874 14.991 7.856 16.725 17.929 24.617 10.073 7.893 7.484 12.636 7.484 12.636s-10.57-3.024-9.922 6.953c.65 9.99.783 22.405 18.836 33.36 23.17 14.063 42.464 5.147 56.018-7.34Z" class="colorc1050e svgShape"/><ellipse cx="434.203" cy="537.341" fill="#eaae86" rx="66.969" ry="30.471" transform="rotate(-22.437 434.202 537.34)" class="coloreaae86 svgShape"/><path fill="#aa6b3f" d="M371.951 561.965c3.452 6.002 9.705 8.389 15.873 9.223a68.788 68.788 0 0 0 18.957-.211 163.82 163.82 0 0 0 70.575-29.156 68.672 68.672 0 0 0 13.58-13.22c3.785-4.94 6.528-11.038 4.748-17.73a15.884 15.884 0 0 1 2.629 10.042 29.06 29.06 0 0 1-2.85 10.337 59.747 59.747 0 0 1-12.647 16.87 103.8 103.8 0 0 1-16.468 12.83 153.246 153.246 0 0 1-18.481 9.485 152.22 152.22 0 0 1-19.794 6.303 103.478 103.478 0 0 1-20.72 2.523 59.783 59.783 0 0 1-20.86-3.029 29.011 29.011 0 0 1-9.313-5.305 15.882 15.882 0 0 1-5.229-8.962Z" class="coloraa6b3f svgShape"/><path fill="#c1945d" d="M450.404 151.085c12.193 4.833 23.171 12.615 32.674 21.894a95.628 95.628 0 0 1 28.37 52.442 96.242 96.242 0 0 1 1.215 20.134 95.263 95.263 0 0 1-10.321 38.03c2.307-12.864 3.601-25.552 3.028-38.03a109.389 109.389 0 0 0-8.235-35.972 128.797 128.797 0 0 0-19.414-31.694 187.83 187.83 0 0 0-27.317-26.804ZM390.902 150.757c13.492 9.518 24.831 21.994 34.35 35.642a162.106 162.106 0 0 1 21.75 45.074 170.354 170.354 0 0 1 5.064 24.677 153.467 153.467 0 0 1 .718 25.125 140.523 140.523 0 0 1-11.675 48.155 241.362 241.362 0 0 0 4.382-48.287 183.562 183.562 0 0 0-7.446-47.016 208.035 208.035 0 0 0-18.937-43.849 249.432 249.432 0 0 0-28.206-39.521ZM331.797 160.532a483.002 483.002 0 0 0 7.678 50.816c3.454 16.7 7.423 33.26 12.233 49.594 1.161 4.095 2.474 8.146 3.703 12.223l1.873 6.108 2.095 6.036 4.047 12.135a474.331 474.331 0 0 1 4.454 12.003c2.791 8.088 6.232 15.915 9.267 23.953 3.124 8 6.722 15.797 9.73 23.954-4.828-7.16-9.547-14.444-13.862-21.956-4.04-7.644-8.442-15.164-11.864-23.136-7.603-15.628-13.25-32.117-18.413-48.711a329.466 329.466 0 0 1-10.438-51.06c-2.012-17.235-2.832-34.752-.503-51.959ZM261.528 182.444a235.412 235.412 0 0 0-9.363 55.26c-.778 18.503.86 37.011 5.808 54.626a150.777 150.777 0 0 0 24.19 49.001c11.156 14.704 24.737 27.687 39.64 39.462a149.139 149.139 0 0 1-45.32-34.888 140.005 140.005 0 0 1-16.553-23.958 147.808 147.808 0 0 1-10.952-27.097 151.446 151.446 0 0 1-4.055-57.741c2.335-19.11 7.6-37.884 16.605-54.665ZM188.197 227.339a171.506 171.506 0 0 0-9.519 49.907c-.508 16.73 1.895 33.422 8.01 48.745a105.48 105.48 0 0 0 11.334 21.968 51.118 51.118 0 0 0 3.514 5.134c1.254 1.656 2.423 3.384 3.748 4.991 2.76 3.124 5.304 6.455 8.288 9.415 11.577 12.178 25.108 22.676 39.442 32.383a145.41 145.41 0 0 1-44.528-27.155 109.35 109.35 0 0 1-37.022-69.372 115.795 115.795 0 0 1-.032-26.637c2.062-17.552 7.538-34.664 16.765-49.38Z" class="colorc1945d svgShape"/><ellipse cx="363.589" cy="229.688" fill="#ffffff" rx="150.217" ry="54.454" transform="rotate(-13.682 363.589 229.688)" style="mix-blend-mode:soft-light" opacity=".56" class="colorfff svgShape"/><path fill="#aa6b3f" d="M416.377 646.212c-.393-3.844.653-7.522 1.638-11.139a53.922 53.922 0 0 1 4.462-10.395 56.188 56.188 0 0 1 15.008-17.302 47.636 47.636 0 0 1 21.212-9.231 43.412 43.412 0 0 1 22.402 1.95c-7.276 2.075-14.006 3.29-20.144 6.14a72.014 72.014 0 0 0-17.05 9.674 103.308 103.308 0 0 0-14.582 13.585c-2.259 2.542-4.582 5.145-6.666 7.959a79.52 79.52 0 0 0-6.28 8.76Z" class="coloraa6b3f svgShape"/><path d="m627.337 8.307-2.981 186.27 28.018 9.331 54.472-177.701-79.509-17.9zM623.013 207.842l23.897 10.202-7.622 25.018-24.905-8.295 8.63-26.925z" fill="#000000" class="color000 svgShape"/></g></svg>