<svg xmlns="http://www.w3.org/2000/svg" viewBox="0 0 2800 1900"><g data-name="Layer 1" fill="#000000" class="color000 svgShape"><ellipse cx="1400" cy="1740.78" opacity=".15" rx="467.538" ry="89.978" fill="#000000" class="color000 svgShape"/><path fill="#f2b200" d="M1468.492 1691.495s44.951-36.057 114.108 5.342 70.309-40.064 70.309-40.064 9.22 61.431-36.884 81.463-169.433 1.336-169.433 1.336Z" class="colorf2b200 svgShape"/><path d="M1446.59 1739.58s123.315 18.708 169.42-1.33c46.103-20.037 36.883-81.48 36.883-81.48s-.616 44.207-28.607 50.902a.042.042 0 0 0-.04.047c-23.319 30.627-118.97 23.599-120.036 6.458-.696-11.396 18.32-25.784 33.278-35.233-42.949-8.357-69.013 12.536-69.013 12.536Z" style="mix-blend-mode:soft-light" opacity=".43" fill="#000000" class="color000 svgShape"/><path fill="#f2b200" d="M1355.343 1691.495s-44.951-36.057-114.108 5.342-70.309-40.064-70.309-40.064-9.22 61.431 36.884 81.463 169.433 1.336 169.433 1.336Z" class="colorf2b200 svgShape"/><path d="M1377.244 1739.58s-123.314 18.708-169.418-1.33c-46.105-20.037-36.884-81.48-36.884-81.48s.616 44.207 28.606 50.902a.042.042 0 0 1 .041.047c23.319 30.627 118.97 23.599 120.036 6.458.696-11.396-18.32-25.784-33.278-35.233 42.949-8.357 69.013 12.536 69.013 12.536Z" style="mix-blend-mode:soft-light" opacity=".43" fill="#000000" class="color000 svgShape"/><path fill="#d39363" d="M1725.273 916.92s-88.454-30.36-139.4-96.509c-50.947-66.102 50.946-170.665 50.946-170.665s50.279 77.207 81.876 119.48c0 0 5.673-27.213 10.676-61.86 4.72-33.123 8.818-73.013 6.626-102.323-4.48-59.86 59.859-30.359 59.859-30.359s26.259 57.762 35.695 126.867c11.105 81.257-1 178.195-106.278 215.368Z" class="colord39363 svgShape"/><path d="M1769.241 720.204a265.683 265.683 0 0 1-13.145 42.918c-37.35 91.94-43.456 133.852-30.814 153.784 0 0-88.456-30.347-139.418-96.501a63.031 63.031 0 0 1-3.915-5.603 68.376 68.376 0 0 1-10.272-33.939c-2.657-61.52 65.149-131.122 65.149-131.122s6.68 10.271 16.7 25.355c-8.548 34.621-7.435 64.861-1.652 88.96 4.31 18.064 11.205 32.681 18.64 43.168 10.702 15.012 22.41 21.584 29.018 17.526 18.172-11.133 19.178-55.523 19.178-55.523s5.674-27.223 10.666-61.844c4.705-33.149 8.8-73.013 6.609-102.355-2.73-36.669 20.399-39.793 38.68-36.705 3.41 29.414 7.936 91.797-5.424 151.881Z" style="mix-blend-mode:soft-light" opacity=".25" fill="#000000" class="color000 svgShape"/><path fill="#e8be0f" d="M1718.693 769.226c-34.362 47.992-116.716 59.24-116.716 59.24s-84.88-49.136-3.574-51.853c4.147-.143 8.15-.429 12.01-.906a131.443 131.443 0 0 0 82.688-41.987c9.864 14.488 18.92 27.308 25.592 35.506ZM1831.55 701.55c-47.513 30.216-83.353 17.73-102.179 5.815 4.72-33.122 8.818-73.012 6.626-102.322-4.48-59.86 59.859-30.359 59.859-30.359s26.258 57.762 35.695 126.867Z" class="colore8be0f svgShape"/><path d="M1670.513 807.224c-33.76 16.485-68.524 21.225-68.524 21.225a193.107 193.107 0 0 1-20.04-13.647c-14.33-11.277-28.228-26.576-10.271-33.939 5.566-2.298 14.15-3.843 26.72-4.238 4.166-.143 8.152-.43 12.03-.933a132.452 132.452 0 0 0 41.446-11.637c4.31 18.065 11.205 32.682 18.64 43.17ZM1769.241 720.204a82.608 82.608 0 0 1-39.865-12.821c4.705-33.149 8.8-73.013 6.609-102.355-2.73-36.668 20.399-39.793 38.68-36.704 3.41 29.413 7.936 91.796-5.424 151.88Z" style="mix-blend-mode:soft-light" opacity=".25" fill="#000000" class="color000 svgShape"/><path fill="#bc9b7a" d="M1553.96 981.212s170.792 712.578-111.802 733.307-234.883-274.365-227.962-448.268 10.133-337.891 10.133-337.891Z" class="colorbc9b7a svgShape"/><path d="M1211.92 1521.177c2.868 22.138 7.23 43.41 13.617 63.267 46.917-1.992 122.96-32.29 152.54-197.67 0 0 3.404 207.532-92.537 290.212 35.2 27.902 85.433 42.725 156.633 37.524 47.577-3.48 82.312-26.602 107.154-62.643-27.611-47.804-55.443-143.072-56.66-332.964 0 0 27.938 148.093 84.236 196.352 0 0-68.993-114.23-84.67-329.9 0 0 27.548 141.09 112.727 187.768-.51-34.275-2.487-68.86-5.392-102.54-39.375-12.276-89.877-48.541-107.55-151.238 0 0 25.32 49.534 94.606 39.252-14.642-102.198-32.657-177.385-32.657-177.385l-329.632-52.848s-3.228 163.963-10.15 337.877c-2.062 51.462-7.65 113.54-7.217 174.893 53.521-7.374 125.352-43.685 183.22-167.405 0 0-15.852 231.698-178.268 247.448Z" style="mix-blend-mode:soft-light" opacity=".25" fill="#000000" class="color000 svgShape"/><path fill="#dbc6af" d="m1471.94 1087.129 17.03 631.64s-19.522 40.782-100.046 31.14l-.076-23.111-18.73-3.241 50.575-661.207Z" class="colordbc6af svgShape"/><path d="m1372.418 1723.932 59.814-569.176-29.375 596.35a149.712 149.712 0 0 0 33.506-1.635l20.784-608.022 15.213 594.445c12.452-8.415 16.617-17.115 16.617-17.115l-17.03-631.65-51.264-24.76-50.562 661.18Z" style="mix-blend-mode:soft-light" opacity=".25" fill="#000000" class="color000 svgShape"/><path fill="#a88e76" d="M1447.057 1110.687c-.09 26.016-.643 52.015-.952 78.023l-1.707 77.997c-1.147 51.998-2.861 103.975-4.577 155.953-1.888 51.972-3.79 103.943-6.25 155.895l-3.717 77.927c-1.503 25.966-2.757 51.941-4.478 77.9.085-26.015.638-52.015.942-78.023l1.704-77.997c1.153-51.997 2.865-103.975 4.59-155.953 1.898-51.97 3.797-103.942 6.264-155.894l3.714-77.927c1.498-25.967 2.752-51.942 4.467-77.9Z" class="colora88e76 svgShape"/><path fill="#dbc6af" d="M1446.167 1158.881s14.059 174.907-.668 174.907c-14.774 0-81.782-32.17-122.005-50.947-40.225-18.73-68.343-14.727-84.45-25.45-16.062-10.723 34.884-25.45 36.219-37.555 1.335-12.057-83.116-18.73-83.116-18.73l-1.335-193.922a69.02 69.02 0 0 1-25.211-12.152c-24.257-18.873-32.502-53.473-31.74-93.602.048-1.239.048-2.478.095-3.717v-.095c.096-2.335.191-4.67.334-7.006q.213-4.004.571-8.15c.191-2.573.43-5.194.716-7.816a429.132 429.132 0 0 1 1.858-15.06c.191-1.239.38-2.526.572-3.812.477-3.146 1-6.339 1.525-9.532.334-1.906.667-3.765 1-5.672.478-2.573.953-5.146 1.478-7.72.667-3.527 1.43-7.006 2.192-10.532a310.55 310.55 0 0 1 2.145-9.532 696.712 696.712 0 0 1 8.626-33.361c.048-.143.096-.334.143-.477.43-1.62.906-3.193 1.383-4.766 5.575-19.301 11.628-37.555 17.394-53.663.907-2.526 1.764-5.004 2.67-7.435a1103.662 1103.662 0 0 1 9.007-23.638c.763-1.811 1.43-3.527 2.097-5.195.38-.906.763-1.811 1.096-2.669.715-1.763 1.43-3.431 2.097-5.004.334-.81.667-1.573 1-2.335.62-1.478 1.192-2.907 1.812-4.242.287-.667.572-1.335.858-1.954a226.809 226.809 0 0 1 3.431-7.578c.286-.571.573-1.143.905-1.763.334-.62.668-1.24 1.05-1.811q1.072-1.787 2.43-3.717c.333-.477.667-.953 1.049-1.43a75.171 75.171 0 0 1 4.24-5.195 41.49 41.49 0 0 1 2.813-3.145q1.072-1.144 2.288-2.431l1.62-1.62q4.146-4.075 8.864-8.293c1.001-.905 2.05-1.763 3.098-2.669 1.382-1.191 2.764-2.383 4.242-3.574 1.667-1.43 3.431-2.812 5.194-4.194 8.722-7.006 18.206-13.916 27.642-20.446 1.144-.762 2.288-1.572 3.431-2.335 11.44-7.863 22.686-15.06 32.265-21.017 16.11-10.009 27.547-16.442 27.547-16.442l19.302 1.287 172.19 11.247 33.217 2.192 8.626 5.672 82.545 54.664c-1.334 403.476-196.352 523.432-196.352 523.432Z" class="colordbc6af svgShape"/><path d="M1446.172 1158.895s14.043 174.902-.682 174.902c-14.76 0-81.776-32.179-122-50.962-40.224-18.711-68.345-14.725-84.434-25.427-16.09-10.739 34.872-25.463 36.201-37.566 1.33-12.068-83.105-18.748-83.105-18.748l-1.329-193.9a68.737 68.737 0 0 1-25.212-12.175c-24.278-18.855-32.502-53.476-31.748-93.592.036-1.221.036-2.478.108-3.7v-.107q.108-3.502.323-7.003c.144-2.658.323-5.387.575-8.153.18-2.586.43-5.207.718-7.829.503-4.956 1.15-9.984 1.832-15.048.215-1.257.395-2.514.574-3.807.503-3.16 1.006-6.357 1.545-9.553.323-1.904.646-3.735 1.005-5.675.467-2.55.934-5.1 1.473-7.685.215-1.185.43-2.37.682-3.52a2210.49 2210.49 0 0 0 1.508-7.039 203.505 203.505 0 0 1 2.155-9.517 707.078 707.078 0 0 1 8.62-33.364 2.322 2.322 0 0 1 .144-.467c.43-1.616.897-3.197 1.364-4.777a915.048 915.048 0 0 1 17.419-53.655c.897-2.55 1.76-5.029 2.657-7.435a1069.04 1069.04 0 0 1 9.015-23.631c.718-1.832 1.436-3.556 2.083-5.208.395-.898.754-1.831 1.113-2.657.718-1.796 1.4-3.448 2.083-5.028.323-.79.682-1.58 1.006-2.335.61-1.472 1.185-2.909 1.795-4.238.288-.646.575-1.328.862-1.939 1.329-3.125 2.55-5.674 3.448-7.578.287-.575.575-1.15.898-1.76a22.2 22.2 0 0 1 1.041-1.831c.719-1.185 1.545-2.407 2.442-3.7a13.232 13.232 0 0 1 1.042-1.436 73.207 73.207 0 0 1 4.238-5.208c.862-1.041 1.76-2.082 2.801-3.124.718-.79 1.509-1.58 2.299-2.442l1.616-1.616c2.765-2.73 5.746-5.495 8.87-8.297 1.006-.898 2.048-1.76 3.09-2.657 1.4-1.221 2.765-2.406 4.237-3.592 1.688-1.436 3.448-2.8 5.208-4.202 8.727-7.003 18.208-13.898 27.653-20.435 1.15-.754 2.263-1.58 3.412-2.334 11.457-7.865 22.698-15.048 32.287-21.01 16.09-10.02 27.546-16.449 27.546-16.449l19.286 1.293 172.208 11.241 33.22 2.191 8.62 5.675 42.594 28.228a335.143 335.143 0 0 1-31.82 59.51c-34.62 50.962-92.981 101.206-181.438 73.085a234.365 234.365 0 0 1-36.991-15.623c-19.358-10.127-39.973-23.81-61.88-41.66a429.659 429.659 0 0 0 25.391 90c18.173 44.319 47.945 91.15 94.813 104.978 95.963 28.264 180.792-86.877 196.953-220.225 0 0 9.087 226.258-217.136 317.193 0 0 4.022 89.893 9.086 88.887 4.956-1.041 218.214-72.726 230.21-438.152l12.749 8.44c-1.329 403.495-196.343 523.448-196.343 523.448Z" style="mix-blend-mode:soft-light" opacity=".25" fill="#000000" class="color000 svgShape"/><path fill="#d39363" d="M1444.583 937.48s42-43.786 52.723-44.68 24.127 17.873 24.127 17.873 43.786 2.68 47.36 10.723-17.872 31.276-17.872 31.276-3.574 66.125-25.02 73.274-83.105-16.978-83.105-16.978-3.574-40.212 1.787-71.487Z" class="colord39363 svgShape"/><path d="M1568.424 927.393c-3.448 10.056-17.49 25.283-17.49 25.283s-23.631-4.704-27.654 3.376c-3.663 7.29-17.526 63.712 5.962 68.201a14.608 14.608 0 0 1-3.34 1.688c-4.813 1.616-11.708 1.616-19.466.682.755-20.29 1.509-76.281-12.965-79.154-16.269-3.233-46.652.754-35.626 66.872-8.979-3.017-15.048-5.387-15.048-5.387s-3.592-40.188 1.795-71.47c0 0 22.446-23.415 38.716-36.344-5.998 8.188-10.128 16.771-8.512 23.595 2.98 12.606 26.36-5.638 42.091-19.717 2.766 3.125 4.562 5.639 4.562 5.639s-21.908 11.564-23.417 20.148c-1.256 7.183 50.496 8.69 70.392-3.412Z" style="mix-blend-mode:soft-light" opacity=".25" fill="#000000" class="color000 svgShape"/><path fill="#dbc6af" d="M1445.499 1333.788c-14.774 0-81.782-32.17-122.005-50.947-40.225-18.73-68.343-14.727-84.45-25.45-16.062-10.723 34.884-25.45 36.219-37.555 1.335-12.057-83.116-18.73-83.116-18.73l-1.335-193.922a69.02 69.02 0 0 1-25.211-12.152l7.769-56 63.004-97.175 34.839 7.387 18.777 27.452s50.041 28.595 154.604 60.764c0 0-8.484 161.324 1.573 221.421 0 0 14.059 174.907-.668 174.907Z" class="colordbc6af svgShape"/><path d="M1224.941 1204.614c-17.49-2.299-32.79-3.52-32.79-3.52l-1.328-193.9a68.737 68.737 0 0 1-25.212-12.175l7.758-55.99 62.993-97.184 34.837 7.399 8.583 12.534c-11.959 5.854-87.881 54.84-54.84 342.836ZM1304.886 1275.365c-30.419-10.343-52.363-8.979-65.83-17.957-16.09-10.739 34.872-25.463 36.201-37.566a1.125 1.125 0 0 0-.072-.683.456.456 0 0 0-.036-.215c-1.328-14.653-18.065-206.47 14.294-285.446 0 0 5.172 240.768 15.443 341.867ZM1403.255 1319.36c-6.824-2.91-14.078-6.142-21.512-9.482-17.814-91.33-44.21-270.29-8.871-396.779 3.77 1.437 7.721 2.873 11.78 4.346-14.294 50.674-40.152 189.051 18.603 401.915ZM1445.49 1333.797a36.914 36.914 0 0 1-9.41-1.903l-5.997-399.006c4.705 1.508 9.553 3.052 14.51 4.56 0 0-8.477 161.327 1.58 221.447 0 0 14.042 174.902-.683 174.902Z" style="mix-blend-mode:soft-light" opacity=".25" fill="#000000" class="color000 svgShape"/><path fill="#d39363" d="M1551.348 575.113s-10.055 25.02-35.744 58.62a401.34 401.34 0 0 1-87.596 83.64 436.623 436.623 0 0 1-60.05 35.363 481.128 481.128 0 0 1-79.303 30.168l.191 14.06.524 35.362.62 44.37-22.781-12.058s-71.058 21.017-76.397 142.546a69.02 69.02 0 0 1-25.211-12.152c-24.258-18.873-32.502-53.473-31.74-93.602.047-1.239.047-2.478.095-3.717v-.095c.096-2.336.191-4.67.334-7.006q.213-4.004.571-8.15c.191-2.573.43-5.195.716-7.816a429.132 429.132 0 0 1 1.858-15.06c.191-1.239.38-2.526.571-3.813.477-3.145 1.001-6.338 1.526-9.531.334-1.906.667-3.765 1-5.672 1.097-6.1 2.336-12.152 3.67-18.253a310.55 310.55 0 0 1 2.145-9.531 696.712 696.712 0 0 1 8.626-33.361c.048-.143.096-.334.143-.477.43-1.62.905-3.193 1.382-4.766 5.576-19.301 11.629-37.555 17.395-53.663a269.816 269.816 0 0 1 2.67-7.435 1103.662 1103.662 0 0 1 9.006-23.638c.716-1.811 1.43-3.527 2.098-5.195.38-.906.763-1.811 1.096-2.669.715-1.763 1.43-3.431 2.097-5.004.334-.81.667-1.573 1-2.335.62-1.478 1.192-2.907 1.812-4.242.287-.667.572-1.335.858-1.954a226.809 226.809 0 0 1 3.431-7.578c.286-.572.573-1.143.905-1.763.334-.62.668-1.24 1.05-1.811q1.072-1.787 2.43-3.718c.333-.476.667-.953 1.049-1.43a75.171 75.171 0 0 1 4.24-5.194 41.49 41.49 0 0 1 2.813-3.146q1.072-1.143 2.288-2.43l1.62-1.62q4.146-4.075 8.864-8.293c1.001-.905 2.05-1.763 3.098-2.669 1.382-1.191 2.764-2.383 4.242-3.574 1.667-1.43 3.431-2.812 5.194-4.194 8.722-7.006 18.206-13.917 27.642-20.446 1.144-.762 2.288-1.572 3.431-2.335 11.44-7.863 22.686-15.06 32.265-21.017 16.11-10.009 27.547-16.442 27.547-16.442l19.302 1.286 172.19 11.248Z" class="colord39363 svgShape"/><path d="M1551.365 575.111s-10.056 25.032-35.77 58.612A399.98 399.98 0 0 1 1428 717.367a422.887 422.887 0 0 1-38.68 24.242 234.365 234.365 0 0 1-36.991-15.623c-19.358-10.127-39.973-23.81-61.88-41.66a429.659 429.659 0 0 0 25.391 90q-13.144 4.58-27.187 8.584s3.807-107.67-35.555-100.595c-23.02 4.13-47.802 39.362-52.29 89.067a189.105 189.105 0 0 0 2.262 49.526c3.986 22.661 12.282 46.832 26.181 71.433-17.85 20.758-35.842 56.026-38.428 114.853a68.737 68.737 0 0 1-25.212-12.175c-24.278-18.855-32.502-53.476-31.748-93.592.036-1.221.036-2.478.108-3.7v-.107q.108-3.502.323-7.003c.144-2.658.323-5.387.575-8.153.18-2.585.43-5.207.718-7.829.503-4.956 1.15-9.984 1.832-15.048.215-1.257.395-2.514.574-3.807.503-3.16 1.006-6.357 1.545-9.553.323-1.904.646-3.735 1.005-5.674.467-2.55.934-5.1 1.473-7.686.18-.97.359-1.94.574-2.873.503-2.55 1.042-5.1 1.616-7.686a203.505 203.505 0 0 1 2.155-9.517 707.078 707.078 0 0 1 8.62-33.364 2.322 2.322 0 0 1 .144-.467c.43-1.616.897-3.197 1.364-4.777a915.048 915.048 0 0 1 17.419-53.655c.897-2.55 1.76-5.029 2.657-7.435a1069.04 1069.04 0 0 1 9.015-23.631c.718-1.832 1.436-3.556 2.083-5.208.395-.898.754-1.831 1.113-2.657.718-1.796 1.4-3.448 2.083-5.028.323-.79.682-1.58 1.006-2.335.61-1.472 1.185-2.909 1.795-4.238.288-.646.575-1.328.862-1.939 1.329-3.125 2.55-5.674 3.448-7.578.287-.575.575-1.15.898-1.76a22.2 22.2 0 0 1 1.041-1.831c.719-1.185 1.545-2.407 2.442-3.7a13.232 13.232 0 0 1 1.042-1.436 73.207 73.207 0 0 1 4.238-5.208c.862-1.041 1.76-2.082 2.801-3.124.718-.79 1.509-1.58 2.299-2.442l1.616-1.616c2.765-2.73 5.746-5.495 8.87-8.297 1.006-.897 2.048-1.76 3.09-2.657 1.4-1.221 2.765-2.406 4.237-3.592 1.688-1.436 3.448-2.8 5.208-4.201 8.727-7.004 18.208-13.9 27.653-20.436 1.15-.754 2.263-1.58 3.412-2.334 11.457-7.865 22.698-15.048 32.287-21.01 16.09-10.02 27.546-16.449 27.546-16.449l19.286 1.293 172.208 11.241Z" style="mix-blend-mode:soft-light" opacity=".25" fill="#000000" class="color000 svgShape"/><path fill="#e8be0f" d="M1489.726 833.803c-52.281.476-92.172-35.22-121.768-81.067-39.698-61.384-60.906-140.926-68.866-175.907 16.11-10.009 27.547-16.442 27.547-16.442l19.302 1.287c12.295 55.521 45.705 126.199 82.068 155.7 14.679 11.962 29.834 17.156 44.274 11.914 27.309-9.913 38.842-52.567 43.321-95.555a544.564 544.564 0 0 0 2.526-60.812l33.218 2.192 8.626 5.672c17.253 96.603 29.454 252.113-70.248 253.018ZM1289.37 832.326c-68.485-26.499-124.055-5.1-148.837 8.244 1.096-6.1 2.335-12.152 3.67-18.252a310.55 310.55 0 0 1 2.144-9.532 696.712 696.712 0 0 1 8.626-33.361c60.432-21.065 112.807 4.527 133.873 17.538Z" class="colore8be0f svgShape"/><path d="M1570.758 668.524c-34.62 50.962-92.981 101.206-181.438 73.085a234.365 234.365 0 0 1-36.991-15.623c-29.773-56.061-46.401-119.09-53.225-149.15 16.09-10.02 27.546-16.45 27.546-16.45l19.286 1.293c12.283 55.524 45.719 126.203 82.064 155.688 14.689 11.96 29.844 17.167 44.282 11.924 27.295-9.913 38.86-52.579 43.312-95.568a542.107 542.107 0 0 0 2.55-60.803l33.22 2.191 8.62 5.675c4.705 26.325 9.015 56.995 10.774 87.738ZM1203.07 820.908a177.404 177.404 0 0 0-62.527 19.644c.467-2.55.934-5.1 1.473-7.685.18-.97.359-1.94.574-2.873.503-2.55 1.042-5.1 1.616-7.686a203.505 203.505 0 0 1 2.155-9.517 707.078 707.078 0 0 1 8.62-33.364 142.939 142.939 0 0 1 45.826-8.045 189.105 189.105 0 0 0 2.263 49.526Z" style="mix-blend-mode:soft-light" opacity=".25" fill="#000000" class="color000 svgShape"/><path fill="#d39363" d="m1736.286 599.928-1.145-10.9s-15.508-18.285-18.97-26.694-13.357-30.174-13.192-34.297 13.026-15.334 32.318-24.073c-.165-44.52 1.814-78.981 4.452-107.177s13.191-30.01 27.701 8.904 2.803 100.746 2.803 100.746 19.704-35.945 30.092-21.106 4.205 28.444 4.205 28.444 23.023-16.606 27.217.848-3.102 25.74-3.102 25.74 16.818 0 18.55 15.334-9.522 24.857-24.98 24.115c-5.69 23.62-7.544 31.04-16.943 39.326s-22.357 4.324-25.957 3.213-43.049-22.423-43.049-22.423Z" class="colord39363 svgShape"/><path d="M1826.816 563.746c1.315-12.54 6.776-18.407 11.176-21.087a22.841 22.841 0 0 0-8.748-2.225l-3.237 3.389s-16.99 5.309-14.057-11.731c1.973-11.378 9.304-20.176 14.007-24.828-8.191-2.984-21.39 6.522-21.39 6.522a1.96 1.96 0 0 0 .203-.505 17.543 17.543 0 0 0-1.062 2.225c-1.871 4.854-20.934 11.58-17.95-6.928a31.191 31.191 0 0 1 15.169-22.4 8.313 8.313 0 0 0-.556-.86c-8.242-11.731-22.35 8.394-27.862 17.293l-2.276 3.843s-17.141-11.225-21.59-48.845c-3.136-26.446.606-61.792 3.084-80.35-6.17-4.45-10.468 3.035-11.984 19.519-2.63 28.215-4.602 62.65-4.45 107.199-19.266 8.748-32.16 19.922-32.312 24.069-.15 4.096 9.71 25.89 13.198 34.284 3.438 8.393 18.962 26.698 18.962 26.698l1.163 10.922s39.441 21.288 43.031 22.4c3.59 1.113 16.535 5.058 25.94-3.235 9.406-8.243 11.277-15.676 16.94-39.29 11.883.556 21.338-4.955 24.22-14.512-9.455 6.17-20.933 11.276-19.619-1.567Zm-88.034-47.583c3.286-10.872 15.777-15.473 15.777-15.473 8.393 6.927 48.138 48.998 48.138 48.998s-67.252-22.653-63.915-33.525Z" style="mix-blend-mode:soft-light" opacity=".25" fill="#000000" class="color000 svgShape"/><path fill="#a5663c" d="M1760.855 544.69c.61 6.68 1.256 13.549 3.492 19.477.592 1.369 1.376 3.016 1.86 2.944a8.043 8.043 0 0 0 3.757.1 45.808 45.808 0 0 0 9.11-2.59 108.342 108.342 0 0 0 17.47-8.585 18.29 18.29 0 0 0 3.235-2.43 2.345 2.345 0 0 0 .52-.744c-.071-.055.082.044-.112-.366a13.607 13.607 0 0 0-2.128-3.153c-.974-1.192-2.103-2.415-3.213-3.633-9.056-10.05-17.665-20.139-26.897-29.825-2.274-2.446-4.63-4.798-6.96-7.163a57.93 57.93 0 0 0-7.188-6.44c-.634-.698-2.545-.863-4.032-.993a26.929 26.929 0 0 0-4.809.187 47.309 47.309 0 0 0-9.663 2.488 37.84 37.84 0 0 1 9.238-4.433 24.241 24.241 0 0 1 5.19-1.025c1.813-.027 3.487-.427 5.771.682 6.404 3.66 11.213 8.172 16.37 12.687 5.088 4.5 9.835 9.332 14.598 14.163l13.71 14.86c1.132 1.288 2.268 2.553 3.402 3.984a18.883 18.883 0 0 1 3.238 5.326 7.506 7.506 0 0 1 .185 4.574 8.84 8.84 0 0 1-2.112 3.502 20.302 20.302 0 0 1-4.84 3.56 93.88 93.88 0 0 1-19.206 8.073 44.521 44.521 0 0 1-10.499 1.965 11.449 11.449 0 0 1-6.112-1.173 5.534 5.534 0 0 1-2.319-2.82 16.43 16.43 0 0 1-.905-2.655c-1.512-7.034-1.091-13.83-.151-20.543Z" class="colora5663c svgShape"/><path fill="#a5663c" d="M1822.234 579.812a14.476 14.476 0 0 1-7.454-.985 15.593 15.593 0 0 1-6.438-4.74 13.827 13.827 0 0 1-3.034-7.948 16.524 16.524 0 0 1 1.526-7.96l2.441 3.751a8.824 8.824 0 0 1-3.286-1.604 7.87 7.87 0 0 1-2.302-8.408 13.993 13.993 0 0 0 3.282 3.524 3.963 3.963 0 0 0 2.996.7l2.65-.401-.209 4.153a24.782 24.782 0 0 0-.012 5.584 12.604 12.604 0 0 0 1.519 4.814c1.641 3.15 4.65 6.157 8.321 9.52Z" class="colora5663c svgShape"/><path fill="#a5663c" d="M1828.665 540.363a17.008 17.008 0 0 1-2.052 7.052 22.731 22.731 0 0 1-4.062 5.667 21.3 21.3 0 0 1-5.667 4.224 13.8 13.8 0 0 1-7.264 1.73 38.098 38.098 0 0 1 3.662-6.025 38.771 38.771 0 0 1 4.126-4.94 35.703 35.703 0 0 1 4.949-4.27 24.562 24.562 0 0 1 6.308-3.438ZM1804.55 513.775a16.749 16.749 0 0 1-.568 7.13 22.754 22.754 0 0 1-2.693 6.16 21.852 21.852 0 0 1-4.375 5.155 15.575 15.575 0 0 1-6.285 3.506 24.6 24.6 0 0 1 1.725-6.765 31.511 31.511 0 0 1 2.84-5.691 30.71 30.71 0 0 1 3.904-5.072 22.475 22.475 0 0 1 5.452-4.423Z" class="colora5663c svgShape"/><path fill="#21201f" d="M1276.153 376.484s-91.33 39.933-71.388 123.327 92.9 59.547 112.653 46.858-41.265-170.185-41.265-170.185Z" class="color21201f svgShape"/><path fill="#d39363" d="M1274.951 437.827c-14.825 7.084-30.783 1.12-44.443-11.43-26.798-24.53-44.79-74.207-28.252-99.985 6.503-10.093 14.076-13.93 21.774-14.05 21.941-.338 44.689 29.51 44.689 29.51s50.1 74.98 6.232 95.955Z" class="colord39363 svgShape"/><path d="M1274.951 437.827c-14.825 7.084-30.783 1.12-44.443-11.43 14.642 3.221 22.449-1.755 14.243-13.756-10.757-15.714-40.224-46.642-36.51-63.64 3.692-17.027 28.773 4.65 28.773 4.65 2.213-20.748-5.414-33.716-12.984-41.289 21.941-.338 44.689 29.51 44.689 29.51s50.1 74.98 6.232 95.955Z" style="mix-blend-mode:soft-light" opacity=".45" fill="#000000" class="color000 svgShape"/><path fill="#a5663c" d="m1267.365 399.045-11.426-18.485a163.543 163.543 0 0 0-12.16-16.867 82.87 82.87 0 0 0-14.587-13.856 67.35 67.35 0 0 0-19.11-8.49 35.53 35.53 0 0 1 22.67 2 51.857 51.857 0 0 1 18.31 14.272 69.268 69.268 0 0 1 11.45 19.598 64.313 64.313 0 0 1 4.853 21.828Z" class="colora5663c svgShape"/><path fill="#d39363" d="M1614.335 446.276c14.83 2.443 27.329-6.866 36.129-21.373 17.286-28.382 20.425-76.612-.676-95.04-8.287-7.21-15.918-8.648-22.711-6.791-19.362 5.297-31.734 37.32-31.734 37.32s-24.895 78.643 18.992 85.884Z" class="colord39363 svgShape"/><path d="M1614.335 446.276c14.83 2.443 27.329-6.866 36.129-21.373-12.042 6.563-20.17 4.182-16.02-8.454 5.442-16.547 23.443-51.23 15.845-65.217-7.584-14.016-24.09 11.423-24.09 11.423-7.235-17.664-3.841-31 .878-39.583-19.362 5.297-31.734 37.32-31.734 37.32s-24.895 78.643 18.992 85.884Z" style="mix-blend-mode:soft-light" opacity=".45" fill="#000000" class="color000 svgShape"/><path fill="#a5663c" d="M1611.11 410.272a58.83 58.83 0 0 1-1.301-20.414 64.237 64.237 0 0 1 5.06-20.136 47.88 47.88 0 0 1 12.446-17.206 32.5 32.5 0 0 1 19.406-7.538 61.616 61.616 0 0 0-14.624 12.331 74.34 74.34 0 0 0-9.282 15.892c-5.094 11.44-8.006 23.96-11.705 37.07Z" class="colora5663c svgShape"/><path fill="#2d2c2a" d="M1643.57 176.93s-2.501 29.873-6.239 69.3c-5.908 63.664-14.95 152.346-21.432 180.71a5.111 5.111 0 0 1-.12.664s5.877 218.329-134.32 226.286c-27.672 1.568-53.203-1.175-76.262-7.566a191.798 191.798 0 0 1-58.931-27.28 181.083 181.083 0 0 1-32.977-29.269 190.265 190.265 0 0 1-35.6-59.714c-10.67-28.455-15.162-60.166-12.72-93.294 8.953-122.231-35.63-141.04-10.912-253.536 6.089-27.672 21.914-49.586 43.347-66.436 13.443-10.61 29.058-19.232 45.908-26.074a272.256 272.256 0 0 1 41.176-12.872c36.986-8.59 75.63-10.369 107.19-7.023a209.486 209.486 0 0 1 26.918 4.491 127.58 127.58 0 0 1 15.373 4.612c29.993 11.244 53.324 25.411 70.626 40.272 22.849 19.533 35.268 40.241 38.975 56.73Z" class="color2d2c2a svgShape"/><path fill="#d39363" d="M1637.331 246.23c-5.908 63.664-14.95 152.346-21.432 180.71-14.137 11.425-32.284 20.83-32.284 20.83a111.196 111.196 0 0 0-31.982-21.493 41.034 41.034 0 0 1-25.772 10.61c-21.613 1.267-40.06-14.408-41.75-17.603-.783-1.477-2.471-3.828-3.888-6.24-4.43-.06-9.043 0-13.835.151-66.135 2.23-83.769 42.472-83.769 42.472-15.825-4.039-58.81-47.325-64.598-62.668-5.757-15.373-5.727-90.822-.03-120.363 5.667-29.54 55.013-105.743 82.05-111.38 27.04-5.637 48.29 11.123 97.696 30.114 49.435 19.05 71.44-21.824 101.734-4.552 20.015 11.394 32.013 40.754 37.86 59.413Z" class="colord39363 svgShape"/><path d="M1581.023 445.358c10.67-10.73 22.336-21.371 36.986-29.148-.724 4.16-1.417 7.777-2.11 10.73-14.137 11.425-32.284 20.83-32.284 20.83a102.294 102.294 0 0 0-2.592-2.412ZM1637.331 246.23q-.362 3.754-.723 7.597c-13.203-15.524-38.674-38.735-76.625-44.793-58.508-9.315-137.334-11.003-160.243 7.626-22.879 18.659-45.787 93.264-33.067 150.084a127.866 127.866 0 0 0 36.715 65.683c-15.524 11.243-20.769 23.24-20.769 23.24-15.825-4.039-58.81-47.325-64.598-62.668-5.757-15.373-5.727-90.822-.03-120.363 5.667-29.54 55.013-105.743 82.05-111.38 27.04-5.636 48.29 11.123 97.696 30.114 49.435 19.05 71.44-21.824 101.734-4.552 20.015 11.394 32.013 40.754 37.86 59.413Z" style="mix-blend-mode:soft-light" opacity=".25" fill="#000000" class="color000 svgShape"/><path fill="#100e14" d="M1535.496 465.872c-4.69 14.524-24.826 64.165-75.591 44.002-32.204-12.778-39.025-38.395-38.599-59.109a97.225 97.225 0 0 1 1.837-16.608c13.74 15.566 43.813 32.634 109.565 31.776.918 0 1.837-.03 2.788-.061Z" class="color100e14 svgShape"/><path fill="#ffffff" d="M1532.708 465.933c-.524 4.964-4.525 9.836-13.248 14.494-47.126 25.126-85.135-13.575-98.154-29.662a97.225 97.225 0 0 1 1.837-16.608c13.74 15.566 43.813 32.634 109.565 31.776Z" class="colorfff svgShape"/><path fill="#161616" d="M1426.45 431.238c8.156 9.666 19.692 16.614 31.99 21.434 12.37 4.814 25.6 7.699 38.958 9.529a317.278 317.278 0 0 0 40.546 2.513c13.588.017 27.197-.702 40.775-1.845-13.497 1.873-27.069 3.33-40.719 4.05a320.485 320.485 0 0 1-41.072-.333c-13.693-1.133-27.43-3.329-40.734-7.691-13.215-4.4-26.236-11.099-36.358-21.819Z" class="color161616 svgShape"/><ellipse cx="1439.321" cy="335.224" rx="26.735" ry="44.943" transform="rotate(-2.664 1439.323 335.225)" style="mix-blend-mode:soft-light" opacity=".45" fill="#000000" class="color000 svgShape"/><ellipse cx="1439.995" cy="346.586" fill="#1b1723" rx="17.682" ry="29.724" transform="rotate(-2.664 1439.995 346.586)" class="color1b1723 svgShape"/><path fill="#ffffff" d="M1437.118 336.199c.305 5.142-1.925 9.515-4.98 9.768s-5.78-3.712-6.085-8.854 1.925-9.515 4.98-9.767 5.78 3.711 6.085 8.853ZM1441.571 347.936c.154 2.604-.975 4.818-2.522 4.946s-2.926-1.88-3.08-4.483.974-4.818 2.521-4.946 2.927 1.88 3.081 4.483Z" class="colorfff svgShape"/><ellipse cx="1567.795" cy="335.249" rx="38.956" ry="23.214" transform="rotate(-85.686 1567.795 335.248)" style="mix-blend-mode:soft-light" opacity=".45" fill="#000000" class="color000 svgShape"/><ellipse cx="1566.851" cy="345.066" fill="#1b1723" rx="25.764" ry="15.353" transform="rotate(-85.686 1566.85 345.066)" class="color1b1723 svgShape"/><path fill="#ffffff" d="M1565.785 335.67c-.428 4.443-2.914 7.758-5.555 7.404s-4.434-4.242-4.007-8.686 2.915-7.758 5.555-7.404 4.434 4.243 4.007 8.686ZM1568.015 346.512c-.217 2.25-1.476 3.928-2.813 3.749s-2.245-2.148-2.029-4.398 1.476-3.929 2.813-3.75 2.245 2.149 2.029 4.399Z" class="colorfff svgShape"/><path fill="#2d2c2a" d="M1473.244 250.981a246.226 246.226 0 0 1-44.591 17.943c-2.52.76-4.879 1.427-7.05 2.001a41.8 41.8 0 0 1-13.086 1.362 19.69 19.69 0 0 1-2.352-.185 38.895 38.895 0 0 1-9.5-2.194 33.74 33.74 0 0 1-2.932-1.14 50.367 50.367 0 0 1 1.323-11.125c1.806-8.06 6.095-18.93 16.216-26.923a39.83 39.83 0 0 1 3.578-2.547 46.605 46.605 0 0 1 10.174-4.868 33.399 33.399 0 0 1 12.504-1.968c23.898.879 35.716 29.644 35.716 29.644Z" class="color2d2c2a svgShape"/><path fill="#525254" d="M1406.165 272.102a38.895 38.895 0 0 1-9.5-2.194 99.756 99.756 0 0 1-1.609-12.265c1.806-8.06 6.095-18.93 16.216-26.923-4.404 11.721-7.576 26.519-5.107 41.382Z" class="color525254 svgShape"/><path fill="#525254" d="M1437.528 221.337a200.666 200.666 0 0 0-8.875 47.587c-2.52.76-4.879 1.427-7.05 2.001a41.8 41.8 0 0 1-13.086 1.362c-.833-12.224-.082-28.502 6.333-44.114a46.605 46.605 0 0 1 10.174-4.868 33.399 33.399 0 0 1 12.505-1.968Z" class="color525254 svgShape"/><path fill="#2d2c2a" d="M1547.76 250.492a260.816 260.816 0 0 0 36.44 29.759 225.039 225.039 0 0 0 5.942 3.948 42.087 42.087 0 0 0 11.545 5.202 18.94 18.94 0 0 0 2.168.545 35.961 35.961 0 0 0 9.074.897c.963.003 1.94-.051 2.9-.142a47.174 47.174 0 0 0 1.225-10.468 48.536 48.536 0 0 0-8.812-29.278 42.917 42.917 0 0 0-2.683-3.39 49.729 49.729 0 0 0-8.146-7.49 33.985 33.985 0 0 0-10.886-5.573c-21.813-6.453-38.768 15.99-38.768 15.99Z" class="color2d2c2a svgShape"/><path fill="#525254" d="M1603.855 289.946a35.961 35.961 0 0 0 9.074.897 87.887 87.887 0 0 0 4.125-10.61 48.536 48.536 0 0 0-8.812-29.278c1.433 11.94 1.082 26.292-4.387 38.991Z" class="color525254 svgShape"/><path fill="#525254" d="M1586.527 234.502a192.525 192.525 0 0 1-2.327 45.749 225.039 225.039 0 0 0 5.942 3.948 42.087 42.087 0 0 0 11.545 5.202c3.415-10.808 6.278-25.764 3.872-41.835a49.729 49.729 0 0 0-8.146-7.49 33.985 33.985 0 0 0-10.886-5.574Z" class="color525254 svgShape"/><path fill="#eaaa7f" d="M1523.45 384.172s-19.33 2.395-23.509 14.373 52.927 26.775 62.875 13.387-26.401-31.33-39.365-27.76Z" class="coloreaaa7f svgShape"/><path fill="#b25734" d="M1525.108 363.308c.339 7.025.389 14.027.387 21.026l-2.142-2.21a66.226 66.226 0 0 1 20.947 1.233c6.855 1.635 14.248 4.85 19.101 11.598a24.202 24.202 0 0 1 3.964 11.368 23.22 23.22 0 0 1-1.714 11.938c-3.206 7.558-9.366 12.726-15.798 16.246a52.533 52.533 0 0 1-20.842 6.05 51.532 51.532 0 0 1-21.302-2.524 46.36 46.36 0 0 1-18.012-11.098 47.545 47.545 0 0 1-10.986-17.336 58.6 58.6 0 0 0 13.587 14.303 47.44 47.44 0 0 0 17.216 7.838 52.102 52.102 0 0 0 36.074-4.956c5.183-3.024 9.74-7.127 11.952-12.003a14.429 14.429 0 0 0 1.212-7.758 16.446 16.446 0 0 0-2.12-7.592c-2.87-4.442-8.207-7.707-14.133-9.73a75.582 75.582 0 0 0-18.95-3.482l-2.474-.13.332-2.08c1.103-6.91 2.258-13.817 3.7-20.701Z" class="colorb25734 svgShape"/><path fill="#525254" d="M1465.03 539.677s-47.234 43.165-59.833 106.647a191.798 191.798 0 0 1-58.931-27.28c20.89-35.116 56.036-76.112 108.577-83.617 0 0-83.166-13.384-141.554 54.348a190.265 190.265 0 0 1-35.6-59.714c43.347-22.246 116.023-43.316 187.342 9.616Z" class="color525254 svgShape"/><path fill="#161616" d="M1450.908 531.959c9.999 1.854 18.742 3.263 27.63 3.134a84.804 84.804 0 0 0 13.315-1.03c4.574-.51 9.04-1.753 14.202-2.539a32.093 32.093 0 0 1-12.234 9.19 36.965 36.965 0 0 1-15.26 3.198 38.838 38.838 0 0 1-15.256-2.979 30.649 30.649 0 0 1-12.397-8.974Z" class="color161616 svgShape"/><path fill="#525254" d="M1577.768 181.905c5.697-43.95-25.351-80.514-59.172-106.588a127.58 127.58 0 0 1 15.373 4.612c29.993 11.244 53.324 25.411 70.626 40.272 9.646 38.915-26.827 61.704-26.827 61.704Z" class="color525254 svgShape"/><path fill="#525254" d="M1466.75 103.11c1.536 1.236 50.971 41.326 59.321 83.889 0 0-99.05-19.804-141.583-109.15 36.986-8.59 75.63-10.369 107.19-7.023 34.997 21.975 67.974 57.875 69.149 115.329 0 0-27.974-52.54-94.078-83.045ZM1422.649 148.837c-60.89 10.008-101.07-10.67-125.245-32.042 13.443-10.61 29.057-19.232 45.908-26.074 31.741 38.131 79.337 58.116 79.337 58.116Z" class="color525254 svgShape"/><ellipse cx="1518.859" cy="250.869" fill="#e5cba1" rx="10.597" ry="18.369" class="colore5cba1 svgShape"/></g></svg>