<svg xmlns="http://www.w3.org/2000/svg" viewBox="0 0 2800 1900"><g data-name="Layer 1" fill="#000000" class="color000 svgShape"><ellipse cx="1323.55" cy="1774.54" opacity=".15" rx="342.906" ry="70.46" fill="#000000" class="color000 svgShape"/><path fill="#212021" d="M1551.476 780.58c-10.675 19.288-29.084 29.721-29.084 29.721 1.259 64.38-63.89 58.82-97.432 70.724-33.54 11.936-76.834 5.36-76.834 5.36s-29.903 14-108.115 17.066-87.434-72.676-87.434-72.676c-18.805-.98-31.805-6.152-40.721-13.457-20.261-16.603-19.422-44.173-17.242-58.736a82.387 82.387 0 0 1 2.004-9.743s-15.074-.905-27.524-36.147a16.375 16.375 0 0 1-.52-1.635c-7.729-26.343 22.046-52.889 36.87-64.16 4.723-3.56 7.922-5.605 7.922-5.605-.445-1.837-.853-3.613-1.136-5.369-2.952-16.152-.238-28.239 4.674-37.14 9.553-17.421 27.447-22.708 27.447-22.708s237.92-36.3 300.532-20.748c16.19 4.036 26.914 9.893 33.912 16.42 13.723 12.755 13.138 27.935 11.374 36.26a34.072 34.072 0 0 1-1.836 6.188 119.255 119.255 0 0 1 11.912 5.054c24.688 12.163 33.572 28.558 35.847 43.026a60.273 60.273 0 0 1-4.586 32.72 134.979 134.979 0 0 1 10.595 12.878c22.375 30.666 19.05 55.275 9.375 72.708Z" class="color212021 svgShape"/><path fill="#353535" d="M1068.575 711.057c-7.73-26.343 22.045-52.889 36.869-64.16 21.686 13.669 50.291 36.37 39.824 56.251-14.01 26.602-53.25 37.461-76.693 7.91ZM1112.23 635.923c-2.952-16.152-.238-28.239 4.674-37.14 13.18 6.807 34.272 19.691 33.006 31.793-1.205 11.415-22.756 8.668-37.68 5.347ZM1111.856 817.318c-20.261-16.603-19.422-44.173-17.242-58.736 15.787-1.05 47.282-1.324 71.34 9.995 28.692 13.541 10.496 49.912-54.098 48.741ZM1467.253 607.507c-2.722-11.275 3.954-24.802 11.542-35.76 13.723 12.755 13.138 27.935 11.374 36.26-10.478 6.61-20.483 9.637-22.916-.5ZM1481.903 682.698c2.709-35.417 11.058-53.883 18.342-63.449 24.688 12.163 33.572 28.558 35.847 43.026-22.103 27.293-57.856 68.268-54.189 20.423ZM1551.476 780.58c-39.485 7.835-80.676 11.818-70.19-19.326 8.28-24.624 36.33-42.396 60.815-53.38 22.375 30.665 19.05 55.274 9.375 72.707Z" class="color353535 svgShape"/><path fill="#e5a488" d="M1200.166 767.384c11.913-21.308 17.474-47.685 15.738-79.886l182.015-18.462c1.193 26.143 10.027 51.345 26.674 75.585 0 0 6.247 62.46-6.64 63.766s-187.622 10.462-187.622 10.462Z" class="colore5a488 svgShape"/><path d="M1200.166 767.384c11.913-21.308 17.474-47.685 15.738-79.886l182.015-18.462c1.193 26.143 10.027 51.345 26.674 75.585 0 0 6.247 62.46-6.64 63.766s-187.622 10.462-187.622 10.462Z" style="mix-blend-mode:soft-light" opacity=".3" fill="#000000" class="color000 svgShape"/><path d="M1417.955 808.402c-7.216.732-65.363 3.918-115.03 6.61 19.356-5.162 35.64-11.353 45.74-17.862 39.9-25.77 39.314-67.967 39.314-67.967-81.93 62.412-144.422 28.881-172.842-10.62a184.475 184.475 0 0 0 .778-31.063l182.008-18.461q1.801 39.21 26.668 75.594s6.25 62.462-6.636 63.77Z" style="mix-blend-mode:soft-light" opacity=".3" fill="#000000" class="color000 svgShape"/><path fill="#212021" d="M1453.291 461.96a341.262 341.262 0 0 1 .287 36.635c-1.82 38.492-11.148 85.637-42.19 114.63-59.527 55.558-221.35 19.69-221.35 19.69-1.33-2.266-52.913-66.086-58.944-143.437a178.724 178.724 0 0 1 .766-36.38s81.846-104.25 220.369-116.228c0 0-13.833 23.762-15.527 33.568 0 0 17.583 3.314 46.326 18.516a338.42 338.42 0 0 1 13.773 7.712 406.084 406.084 0 0 1 53.5 38.339 2.017 2.017 0 0 1 .302.232s1.739 10.51 2.688 26.724Z" class="color212021 svgShape"/><path fill="#e5a488" d="M1205.567 667.284c-8.145 7.105-18.32 5.724-27.798-.403-18.586-11.963-34.5-42.06-27.263-61.863 2.85-7.759 6.99-11.533 11.587-12.859 13.105-3.774 29.815 12.377 29.815 12.377s37.76 41.713 13.66 62.748Z" class="colore5a488 svgShape"/><path d="M1205.567 667.284c-8.145 7.105-18.32 5.724-27.798-.403 9.102-.23 13.263-4.8 7.107-11.446-8.067-8.7-28.914-24.482-28.448-36.377.449-11.91 17.711-1.565 17.711-1.565-.82-14.145-6.73-21.527-12.046-25.334 13.105-3.774 29.815 12.377 29.815 12.377s37.76 41.713 13.66 62.748Z" style="mix-blend-mode:soft-light" opacity=".3" fill="#000000" class="color000 svgShape"/><path fill="#cc7d64" d="M1197.012 642.743c-3.71-3.228-6.817-6.42-9.865-9.519-3.009-3.111-5.938-6.083-8.929-8.734a51.132 51.132 0 0 0-9.35-6.93 39.522 39.522 0 0 0-12.13-3.885 18.324 18.324 0 0 1 14.492-3.474 27.73 27.73 0 0 1 13.56 6.984 37.414 37.414 0 0 1 8.69 11.657 32.825 32.825 0 0 1 3.532 13.901Z" class="colorcc7d64 svgShape"/><path fill="#e5a488" d="M1412.996 646.245c9.28 5.338 19.019 1.937 27.215-5.983 16.081-15.479 26.26-48.222 15.574-66.208-4.201-7.043-8.947-9.916-13.7-10.293-13.547-1.072-27.03 18.142-27.03 18.142s-29.523 48.537-2.06 64.341Z" class="colore5a488 svgShape"/><path d="M1412.996 646.245c9.28 5.338 19.019 1.937 27.215-5.983-8.976 1.604-13.887-2.045-9.046-9.807 6.346-10.162 23.956-29.845 21.347-41.428-2.595-11.602-17.67 2.023-17.67 2.023-1.753-14.05 2.713-22.484 7.243-27.29-13.547-1.071-27.03 18.143-27.03 18.143s-29.523 48.537-2.06 64.341Z" style="mix-blend-mode:soft-light" opacity=".3" fill="#000000" class="color000 svgShape"/><path fill="#cc7d64" d="M1416.955 620.435a33.364 33.364 0 0 1 .937-14.4 38.206 38.206 0 0 1 6.38-13.15 28.219 28.219 0 0 1 11.982-9.535 18.453 18.453 0 0 1 14.98.455 39.516 39.516 0 0 0-11.193 6.283 52.74 52.74 0 0 0-7.923 8.714c-2.456 3.21-4.796 6.71-7.188 10.36-2.434 3.645-4.91 7.388-7.975 11.273Z" class="colorcc7d64 svgShape"/><path fill="#e5a488" d="M1426.058 512.852a36.714 36.714 0 0 1 .132 4.52l-5.498 148.23a30.098 30.098 0 0 1-8.635 20.22l-57.899 58.03a26.336 26.336 0 0 1-15.555 7.622 1.653 1.653 0 0 1-.399.074l-43.763 4.44a25.879 25.879 0 0 1-17.053-4.35l-67.332-45.327a29.38 29.38 0 0 1-12.134-18.114l-32.207-144.405a31.295 31.295 0 0 1 1.18-17.819c6.344-16.63 23.374-38.507 37.222-54.588 11.816-13.726 29.862-19.015 46.589-13.793l29.378 9.177a25.524 25.524 0 0 0 19.966-2.025l27.117-14.908a43.468 43.468 0 0 1 48.23 4.176c16.536 13.033 37.177 31.057 46.411 46.106a30.737 30.737 0 0 1 4.25 12.734Z" class="colore5a488 svgShape"/><path fill="#cc7d64" d="M1370.153 658.205c-1.187 1.933-2.333 3.902-3.583 5.782l-.056.084-.278.175a192.707 192.707 0 0 1-6.618 3.962l-3.362 1.954-3.521 1.597c-2.362 1.044-4.716 2.151-7.116 3.15l-7.375 2.463a54.836 54.836 0 0 1-7.502 2.073c-2.533.553-5.05 1.258-7.608 1.685a149.944 149.944 0 0 1-15.444 1.91 155.713 155.713 0 0 1-30.984-.857 133.56 133.56 0 0 1-30.064-7.287l-.816-.308-.249-.439c-2.295-4.04-4.437-8.191-6.482-12.411 3.343 3.289 6.589 6.647 9.682 10.116l-1.064-.747c9.838 1.305 19.849 2.074 29.727 2.507 9.907.373 19.78.317 29.606-.283a223.938 223.938 0 0 0 29.295-3.569c9.78-1.614 19.226-4.514 28.958-7.414l-.333.259c1.674-1.515 3.45-2.941 5.187-4.402Z" class="colorcc7d64 svgShape"/><path d="M1294.06 693.963s4.67 12.54 16.723 12.557 13.412-14.064 13.412-14.064Z" style="mix-blend-mode:soft-light" opacity=".3" fill="#000000" class="color000 svgShape"/><path fill="#cc7d64" d="M1290.077 692.198c3.786-.658 6.923-1.19 10.055-1.598 3.105-.402 6.102-.753 9.137-.974 3.034-.265 6.1-.408 9.318-.42a50.237 50.237 0 0 1 10.39.906 23.619 23.619 0 0 1-8.638 6.621 30.393 30.393 0 0 1-10.298 2.689 29.014 29.014 0 0 1-10.714-1.162c-3.44-1.135-6.89-2.894-9.25-6.062Z" class="colorcc7d64 svgShape"/><path d="M1206.75 603.796c17.662 78.341 38.55 102.134 75.661 130.43 0 0 22.816-9.417 60.793-6.495 0 0 51.244-32.523 71.032-60.408-1.9 2.758-32.425 47.318-66.451 71.978a68.49 68.49 0 0 1-9.762 5.823 1.686 1.686 0 0 1-.399.074l-43.762 4.438a26.22 26.22 0 0 1-17.042-4.223l-67.234-44.246a28.6 28.6 0 0 1-12.097-17.713l-31.927-141.343a30.075 30.075 0 0 1 1.214-17.452c6.373-16.298 23.441-37.758 37.317-53.535a44.587 44.587 0 0 1 46.606-13.605l29.356 8.926a26.026 26.026 0 0 0 19.965-2.025l27.14-14.656a44.161 44.161 0 0 1 48.213 3.988c16.508 12.727 37.111 30.334 46.315 45.052a29.572 29.572 0 0 1 4.225 12.461c-11.067-11.208-44.377-42.618-71.383-43.924-32.898-1.595-35.972 15.98-77.444 16.47-41.469.524-88.032 41.614-70.336 119.985Z" style="mix-blend-mode:soft-light" opacity=".3" fill="#000000" class="color000 svgShape"/><path fill="#212021" d="M1265.613 556.404c.223 12.057-4.997 16.008-4.997 16.008a123.643 123.643 0 0 0-21.646-4.96c-.619-.086-1.237-.156-1.84-.243-.442-.038-.87-.094-1.298-.133a88.2 88.2 0 0 0-16.397-.171 57.005 57.005 0 0 0-2.916.329c-.992.133-1.934.279-2.798.432a39.49 39.49 0 0 0-9.72 2.738 51.58 51.58 0 0 1 7.406-9.03 44.216 44.216 0 0 1 2.583-2.262 40.342 40.342 0 0 1 2.554-1.911 38.687 38.687 0 0 1 14.506-6.115 32.087 32.087 0 0 1 2.113-.38 46.171 46.171 0 0 1 2.107-.263c16.203-1.61 30.343 5.962 30.343 5.962Z" class="color212021 svgShape"/><path fill="#353535" d="M1213.99 559.112a38.24 38.24 0 0 1 2.529 8.122c-.992.133-1.934.279-2.798.432a33.206 33.206 0 0 0-2.314-6.292 44.216 44.216 0 0 1 2.583-2.262ZM1231.05 551.086c3.234 5.042 4.38 11.404 4.782 15.99a88.2 88.2 0 0 0-16.397-.171 43.866 43.866 0 0 0-2.891-9.704 38.687 38.687 0 0 1 14.505-6.115ZM1238.97 567.452c-.619-.086-1.237-.156-1.84-.243a46.359 46.359 0 0 0-3.967-16.502 46.171 46.171 0 0 1 2.107-.264 47.035 47.035 0 0 1 3.7 17.009Z" class="color353535 svgShape"/><path fill="#212021" d="M1327.54 549.823c1.963 11.881 7.8 14.71 7.8 14.71a125.913 125.913 0 0 1 20.353-9.22c.592-.209 1.186-.401 1.763-.608.427-.126.837-.267 1.25-.392a88.766 88.766 0 0 1 16.064-3.463 57.012 57.012 0 0 1 2.923-.264 67.73 67.73 0 0 1 2.825-.137 39.048 39.048 0 0 1 10.036.733 50.051 50.051 0 0 0-8.903-7.376 42.98 42.98 0 0 0-2.945-1.7 39.288 39.288 0 0 0-2.852-1.364 38.049 38.049 0 0 0-15.346-3.087c-.722-.009-1.44.014-2.143.052a46.17 46.17 0 0 0-2.116.166c-16.197 1.675-28.709 11.95-28.709 11.95Z" class="color212021 svgShape"/><path fill="#353535" d="M1378.706 542.106a38.716 38.716 0 0 0-1.013 8.48 67.73 67.73 0 0 1 2.825-.137 33.72 33.72 0 0 1 1.133-6.643 42.98 42.98 0 0 0-2.945-1.7ZM1360.508 537.655c-2.263 5.6-2.236 12.076-1.803 16.659a88.766 88.766 0 0 1 16.065-3.464 44.381 44.381 0 0 1 1.084-10.108 38.049 38.049 0 0 0-15.346-3.087ZM1355.693 555.313c.592-.209 1.186-.401 1.763-.608a46.777 46.777 0 0 1 .91-16.998 46.17 46.17 0 0 0-2.117.166 47.36 47.36 0 0 0-.556 17.44ZM1352.228 336.87s-13.832 23.762-15.526 33.568c-92.716 27.884-51.31 92.276-50.152 94.033-146.97-82.621 65.678-127.601 65.678-127.601Z" class="color353535 svgShape"/><path fill="#353535" d="M1383.027 388.954c-76.596 9.348-82.869 70.486-82.869 70.486-32.86-57.235 36.544-89.002 36.544-89.002s17.583 3.314 46.325 18.516Z" class="color353535 svgShape"/><path fill="#353535" d="M1388.063 432.505c-53.956-1.3-68.329 16.203-69.024 17.129 11.712-29.565 48.424-44.962 77.762-52.968a406.084 406.084 0 0 1 53.5 38.339c-10.705 3.355-21.822-1.568-62.238-2.5ZM1453.291 461.96a341.262 341.262 0 0 1 .287 36.635c-40.548-8.876-70.26-51.436-71.308-53.007a174.49 174.49 0 0 0 71.021 16.373ZM1234.847 450.342s-62.2-3.864-18.684-60.529c0 0-50.597 31.951-37.616 58.841s56.3 1.688 56.3 1.688ZM1196.367 470.888c-30.952 30.662-52.154 28.012-65.273 18.59a178.724 178.724 0 0 1 .766-36.38c24.137 40.266 64.507 17.79 64.507 17.79Z" class="color353535 svgShape"/><path fill="#ffd31a" d="M1192.654 489.488s83.84 25.717 201.881-20.476-162.622-28.651-162.622-28.651l-44.16 35.067ZM1078.653 399.512l-3.518 51.943a23.875 23.875 0 0 1-2.498.473c-7.352.893-29.875.54-57.093-29.675 13.362-11.613 25.054-17.855 34.67-21.102 17.87-6.063 28.44-1.639 28.44-1.639ZM1113.654 498.988a14.247 14.247 0 0 1-2.81 1.238c-7.368 2.799-29.05 7.49-62.671-14.234 9.684-14.319 19.222-23.273 27.605-28.886 15.992-10.635 27.638-9.032 27.638-9.032ZM1163.5 534.894a18.734 18.734 0 0 1-2.842 2.266c-6.881 4.655-26.621 13.912-63.997 1.875 5.533-15.95 12.285-26.893 18.845-34.373 12.762-14.703 24.703-16.134 24.703-16.134Z" class="colorffd31a svgShape"/><path fill="#c45f4f" d="M1157.64 577.82c1.094-15.866 4.404-27.632 8.44-36.322-1.84 5.609-3.506 11.713-5.007 18.24a34.01 34.01 0 0 0-.49 12.727c.298 1.875.59 3.678.944 5.474-1.272-.018-2.544-.036-3.887-.12ZM1454.48 505.578a18.565 18.565 0 0 1-.02 2.567 6.469 6.469 0 0 1-.026 1.102c.003.732-.056 1.471-.116 2.21-.03.37-.116.817-.14 1.26a29.6 29.6 0 0 1-.463 3.27c-.043.225-.08.522-.123.746l.007.072a71.533 71.533 0 0 1-3.893 13.732 47.746 47.746 0 0 1-1.239 3.13 107.352 107.352 0 0 1-5.255 10.645c-.65 1.238-1.368 2.41-2.08 3.655l-.113.158c0-1.392-.056-2.706-.056-4.098a32.501 32.501 0 0 0-2.783-12.395 237.999 237.999 0 0 0-8.83-18.082 189.802 189.802 0 0 0-10.291-16.69l17.832-3.713 14.094-2.895a20.22 20.22 0 0 1 1.19 2.59c.172.496.42 1.13.606 1.77a29.78 29.78 0 0 1 1.136 4.795 40.373 40.373 0 0 1 .563 6.171Z" class="colorc45f4f svgShape"/><path fill="#ffd31a" d="M1491.587 506.38c-16.36-5.229-27.512-11.865-35.017-18.212-14.591-12.296-15.833-23.82-15.833-23.82l47.53-23.58a19.352 19.352 0 0 1 1.488 1.68c4.188 5.512 15.346 24.75 1.832 63.932ZM1531.878 445.944c-17.493-.937-30.15-4.563-39.181-8.85-17.004-8.094-21.208-18.659-21.208-18.659l29.898-26.04.063-.007 9.943-8.703a12.616 12.616 0 0 1 1.352.89 29.132 29.132 0 0 1 5.059 4.615c6.785 7.519 16.307 24.14 14.074 56.754ZM1489.217 366.43s16.124 21.43 65.81 11.149c-9.785-48.665-36.295-54.752-36.295-54.752ZM1492.706 311.881s21.28 16.523 66.74-6.003c-22.311-44.345-49.616-43.463-49.616-43.463ZM1481.713 258.497s24.985 10.492 63.122-22.744c-33.318-37.004-59.557-29.214-59.557-29.214ZM1456.987 209.917s26.988 3.745 55.201-37.936c-42.052-27.141-65.438-12.973-65.438-12.973ZM1420.213 169.451s27.15-3.257 43.52-50.542c-47.922-15.429-66.86 4.152-66.86 4.152ZM1373.897 139.858s25.464-10.038 28.872-59.705c-50.526-2.664-63.726 20.994-63.726 20.994ZM1321.195 123.153s22.042-16.134 12.257-64.798c-49.686 10.281-56.249 36.405-56.249 36.405ZM1265.7 120.475s17.117-21.13-5.195-65.475c-45.46 22.526-44.938 49.335-44.938 49.335ZM1211.192 132.008s11.026-24.687-22.291-61.691c-38.137 33.236-30.565 58.903-30.565 58.903ZM1161.386 156.964s4.184-26.561-37.868-53.702c-28.214 41.68-14.11 64.457-14.11 64.457ZM1119.647 193.625l-32.035 15.853-15.496 7.727-.626-.596c-2.976-3.362-16.858-21.812-3.44-62.742.186-.752.497-1.516.746-2.274 17.477 5.628 28.927 12.747 36.465 19.457 13.216 11.849 14.386 22.575 14.386 22.575ZM1088.894 239.538l-39.904 34.75s-.334-.186-.94-.565l-.007-.072c-4.327-2.859-22.533-17.865-19.538-61.622 18.255.933 31.253 4.817 40.31 9.394 16.103 7.966 20.079 18.115 20.079 18.115ZM1071.149 291.531l-29.504 43.588s-.454-.1-1.368-.374c-5.52-2.005-26.406-12.27-34.885-54.35 17.769-3.707 31.273-3.318 41.24-1.325 17.864 3.61 24.517 12.461 24.517 12.461ZM1067.68 346.108l-17.09 49.436a17.41 17.41 0 0 1-2.047-.159c-6.742-.782-28.967-6.221-47.6-43.314 16.168-8.015 29.235-11.026 39.403-11.69 18.51-1.146 27.334 5.727 27.334 5.727Z" class="colorffd31a svgShape"/><path fill="#ffa81d" d="m1510.558 262.403-.063.006c-.474-1.71-1.01-3.415-1.547-5.119l-.007-.072a233.444 233.444 0 0 0-23.123-50.78c-.062.006-.069-.067-.069-.067-.964-1.514-1.922-2.955-2.816-4.404l-.007-.072a234.479 234.479 0 0 0-35.885-43.037l-.07-.066c-1.252-1.192-2.498-2.312-3.75-3.504l-.07-.066a232.876 232.876 0 0 0-45.97-32.415c-1.54-.87-3.138-1.66-4.804-2.517a238.201 238.201 0 0 0-53.054-19.533q-2.64-.72-5.258-1.225a239.348 239.348 0 0 0-56.711-5.313c-1.776.034-3.615.074-5.447.187-4.427.228-8.91.537-13.379.99a238.581 238.581 0 0 0-42.952 8.313c-1.736.47-3.535.945-5.258 1.56a240.555 240.555 0 0 0-52.142 23.168l.006.072-.063.007c-1.57.892-3.134 1.856-4.635 2.815a242.125 242.125 0 0 0-44.39 35.717c-1.341 1.31-2.62 2.611-3.83 3.98a222.76 222.76 0 0 0-22.22 27.314c-4.099 5.911-7.989 12.021-11.55 18.245a193.286 193.286 0 0 0-2.674 4.814 234.702 234.702 0 0 0-20.774 52.228l.007.072c-.47 1.806-.947 3.54-1.418 5.347a232.656 232.656 0 0 0-6.354 55.675c-.017 1.906.023 3.734.07 5.635.122 4.824.433 9.628.87 14.42a237.487 237.487 0 0 0 7.326 40.584l1.67 5.766a229.473 229.473 0 0 0 22.424 50.778l3.14 5.177a232.909 232.909 0 0 0 35.067 43.12 144.094 144.094 0 0 0 4.662 4.437c2.91 2.636 5.811 5.2 8.833 7.677a157.308 157.308 0 0 0 5.278 4.228 232.112 232.112 0 0 0 31.041 20.593c1.875 1.055 3.876 2.098 5.815 3.147 11.125-34.029 26.177-50.797 26.177-50.797s6.215-5.687 20.28-12.39a158.003 158.003 0 0 1-51.01-35.42c-2.866-2.86-5.556-5.885-8.127-8.995a98.487 98.487 0 0 1-4.092-5.154c-2.243-2.996-4.423-6-6.427-9.167a155.75 155.75 0 0 1-24.816-71.418 157.55 157.55 0 0 1 8.723-68.006 164.063 164.063 0 0 1 122.365-105.105 129.415 129.415 0 0 1 12.964-2.048c1-.175 1.945-.27 2.952-.373 5.414-.549 10.728-.794 16.056-.895 82.494-.38 152.528 61.102 160.063 143.653a157.229 157.229 0 0 1-11.507 75.103 110.807 110.807 0 0 1-4.72 10.224c-.312.765-.75 1.542-1.124 2.313a143.248 143.248 0 0 1-8.243 14.099 162.68 162.68 0 0 1-34.272 37.989c-3.018 2.43-6.106 4.796-9.332 7.028 15.018 3.753 22.148 8.086 22.148 8.086s11.324 8.524 24.524 27.849a189.802 189.802 0 0 1 10.29 16.689c4.802-3.785 9.394-7.768 13.84-11.956 3.048-2.8 6.083-5.746 8.985-8.752a143.643 143.643 0 0 0 4.4-4.696 262.722 262.722 0 0 0 9.148-10.454 246.02 246.02 0 0 0 24.037-35.265l2.942-5.355a236.1 236.1 0 0 0 18.437-46.495c.577-2.037 1.16-4.001 1.61-6.025.527-1.886.928-3.758 1.33-5.63a230.495 230.495 0 0 0 5.641-55.823c.023-1.834-.08-3.656-.12-5.484-.155-3.794-.43-7.504-.774-11.279a234.254 234.254 0 0 0-8.267-43.933Z" class="colorffa81d svgShape"/><path d="M1157.64 577.82c1.094-15.866 4.404-27.632 8.44-36.322-1.84 5.609-3.506 11.713-5.007 18.24a34.01 34.01 0 0 0-.49 12.727c.298 1.875.59 3.678.944 5.474-1.272-.018-2.544-.036-3.887-.12ZM1161.924 441.678a158.003 158.003 0 0 0 51.01 35.42c-14.065 6.704-20.28 12.39-20.28 12.39s-15.052 16.768-26.177 50.797c-1.939-1.049-3.94-2.092-5.815-3.147a35.805 35.805 0 0 1-3.436 2.034 46.72 46.72 0 0 1-7.845 3.14 59.153 59.153 0 0 1-15.337 2.509 30.027 30.027 0 0 1-3.615.073c-.825.01-1.712.027-2.607-.029a.703.703 0 0 1-.384-.034 35.246 35.246 0 0 1-3.767-.204c-1.216-.096-2.495-.186-3.78-.35a70.642 70.642 0 0 1-5.093-.802c-.126.013-.252.026-.321-.04q-2.515-.405-5.239-1.008a123.975 123.975 0 0 1-12.573-3.414c5.533-15.95 12.285-26.893 18.845-34.373a144.094 144.094 0 0 1-4.662-4.436c-7.368 2.798-29.05 7.49-62.671-14.234 9.684-14.319 19.223-23.274 27.605-28.887l-3.141-5.177c-7.352.892-29.875.539-57.093-29.675 13.362-11.614 25.054-17.856 34.67-21.103q-.836-2.882-1.67-5.766c-6.743-.78-28.968-6.22-47.601-43.314 16.168-8.015 29.235-11.025 39.403-11.69-.046-1.9-.086-3.729-.07-5.635-5.52-2.005-26.405-12.27-34.884-54.35 17.769-3.708 31.273-3.319 41.24-1.325.47-1.806.947-3.54 1.417-5.347l-.007-.072c-4.326-2.859-22.532-17.866-19.538-61.622 18.256.933 31.254 4.817 40.312 9.394a193.286 193.286 0 0 1 2.674-4.814c-2.975-3.362-16.858-21.812-3.44-62.742a425.713 425.713 0 0 0 14.99 44.497 299.721 299.721 0 0 0 4.572 11.114 353.555 353.555 0 0 0 39.569 69.482 157.55 157.55 0 0 0-8.723 68.006 155.75 155.75 0 0 0 24.816 71.418c2.004 3.168 4.184 6.17 6.427 9.167a98.487 98.487 0 0 0 4.092 5.154c2.57 3.11 5.261 6.135 8.127 8.995ZM1492.7 437.072l-2.941 5.355c4.187 5.51 15.346 24.749 1.832 63.93a138.883 138.883 0 0 1-5.444-1.866l-.983-.34a89.056 89.056 0 0 1-4.48-1.743 2.774 2.774 0 0 0-.662-.3 92.644 92.644 0 0 1-4.709-2.16c-1.722-.778-3.389-1.635-4.993-2.498l-2.613-1.493c-1.68-1.003-3.297-2.01-4.788-3.032-1.213-.757-2.306-1.598-3.33-2.374-1.024-.775-2.054-1.623-3.015-2.405a143.643 143.643 0 0 1-4.4 4.696c.173.496.421 1.13.607 1.77a29.78 29.78 0 0 1 1.136 4.795 40.373 40.373 0 0 1 .563 6.171 18.565 18.565 0 0 1-.02 2.567 6.469 6.469 0 0 1-.026 1.102c.003.732-.056 1.471-.116 2.21-.03.37-.116.817-.14 1.26a29.6 29.6 0 0 1-.463 3.27c-.043.225-.08.522-.123.746l.007.072a71.533 71.533 0 0 1-3.893 13.732 47.746 47.746 0 0 1-1.239 3.13 107.352 107.352 0 0 1-5.255 10.645c-.65 1.238-1.368 2.41-2.08 3.655l-.113.158c0-1.392-.056-2.706-.056-4.098a32.501 32.501 0 0 0-2.784-12.395 237.999 237.999 0 0 0-8.83-18.082 189.802 189.802 0 0 0-10.29-16.69c-13.2-19.324-24.524-27.848-24.524-27.848s-7.13-4.333-22.148-8.086c3.226-2.232 6.314-4.597 9.332-7.028a162.68 162.68 0 0 0 34.272-37.99 143.248 143.248 0 0 0 8.243-14.098c1.455-.075 2.909-.149 4.357-.296 1.58-.087 3.16-.174 4.797-.34a615.153 615.153 0 0 0 68.003-8.802l.063-.007c3.19-.543 6.437-1.165 9.684-1.788 2.183-.441 4.43-.89 6.67-1.41 6.785 7.52 16.307 24.14 14.074 56.754-17.493-.936-30.15-4.562-39.181-8.849Z" style="mix-blend-mode:soft-light" opacity=".56" fill="#000000" class="color000 svgShape"/><path fill="#ffd31a" d="m1329.788 272.699-109.093 11.065 40.825-155.529 59.061 125.028 9.207 19.436z" class="colorffd31a svgShape"/><path d="m1329.788 272.7-109.093 11.064 40.825-155.529 2.644 116.681a192.417 192.417 0 0 1 56.417 8.347Z" style="mix-blend-mode:soft-light" opacity=".56" fill="#000000" class="color000 svgShape"/><path fill="#ffb91d" d="m1436.634 413.837-295.362 29.957s3.43-68.934 19.402-124.338a207.783 207.783 0 0 1 42.2-35.35c22.94-14.564 47.862-24.125 70.46-26.418 37.77-3.83 85.43 10.9 121.766 37.99 10.867 21.614 19.896 46.052 26.761 66.972 9.489 28.788 14.773 51.187 14.773 51.187Z" class="colorffb91d svgShape"/><path d="m1436.634 413.837-295.362 29.957s3.43-68.934 19.402-124.338a207.783 207.783 0 0 1 42.2-35.35c.606 15.693 2.405 40.278 7.633 61.364 0 0 24.756-12.77 26.936-18.12 2.174-5.423 36.236-65.887 36.236-65.887l49.701 18.994 23.199 48.135 75.282 34.058c9.489 28.788 14.773 51.187 14.773 51.187Z" style="mix-blend-mode:soft-light" opacity=".56" fill="#000000" class="color000 svgShape"/><path fill="#2a323f" d="M1166.477 540.285c.063-.006.07.067.132.06-.155.382-.374.771-.53 1.153.15-.455.242-.83.398-1.213Z" class="color2a323f svgShape"/><path fill="#c64040" d="m1295.713 556.284-.031.003c-1.077.337-21.988 5.963-5.003-54.817-.003-.032-.003-.032.024-.068l.006.065c27.666 56.25 6.092 54.934 5.004 54.817Z" class="colorc64040 svgShape"/><path fill="#c64040" d="M1290.703 501.402c-.027.036-.027.036-.024.068l-.01-.097Z" class="colorc64040 svgShape"/><ellipse cx="1176.433" cy="669.92" fill="#ffd31a" rx="18.097" ry="19.077" class="colorffd31a svgShape"/><path d="M1174.707 650.921c-9.943 1.009-17.247 10.348-16.29 20.83.956 10.48 9.816 18.182 19.758 17.173s17.217-10.346 16.26-20.826c-.956-10.482-9.785-18.185-19.728-17.177Zm3.144 19.605c-4.835 3.346-10.304 6.497-13.447 1.396a11.38 11.38 0 0 1 3.008-15.264 10.146 10.146 0 0 1 14.513 3.2c3.144 5.101.76 7.322-4.074 10.668Z" style="mix-blend-mode:soft-light" opacity=".56" fill="#000000" class="color000 svgShape"/><ellipse cx="1438.947" cy="642.077" fill="#ffd31a" rx="18.097" ry="19.077" class="colorffd31a svgShape"/><path d="M1437.22 623.078c-9.942 1.009-17.246 10.349-16.29 20.83.957 10.48 9.817 18.182 19.76 17.173s17.216-10.345 16.26-20.826c-.957-10.482-9.786-18.185-19.73-17.177Zm3.145 19.605c-4.835 3.346-10.304 6.497-13.447 1.396a11.38 11.38 0 0 1 3.008-15.264 10.146 10.146 0 0 1 14.513 3.2c3.144 5.101.76 7.322-4.074 10.668Z" style="mix-blend-mode:soft-light" opacity=".56" fill="#000000" class="color000 svgShape"/><ellipse cx="1244.313" cy="610.062" rx="15.442" ry="32.869" transform="rotate(-5.052 1244.312 610.061)" style="mix-blend-mode:soft-light" opacity=".45" fill="#000000" class="color000 svgShape"/><ellipse cx="1244.951" cy="617.049" rx="10.958" ry="21.962" transform="rotate(-5.024 1244.95 617.048)" fill="#000000" class="color000 svgShape"/><path fill="#ffffff" d="M1244.11 606.582c.345 3.772-.993 6.993-2.987 7.195s-3.891-2.69-4.236-6.462.994-6.994 2.989-7.196 3.89 2.691 4.235 6.463ZM1248.418 614.846c.06 2.314-.885 4.218-2.108 4.253s-2.265-1.812-2.324-4.127.884-4.218 2.108-4.253 2.264 1.813 2.324 4.127Z" class="colorfff svgShape"/><ellipse cx="1362.057" cy="597.691" rx="15.442" ry="32.869" transform="rotate(-5.052 1362.058 597.69)" style="mix-blend-mode:soft-light" opacity=".45" fill="#000000" class="color000 svgShape"/><path d="M1373.597 603.572c1.103 12.079-2.885 22.366-8.906 22.977s-11.796-8.687-12.899-20.766 2.885-22.366 8.907-22.977 11.796 8.687 12.898 20.766Z" fill="#000000" class="color000 svgShape"/><path fill="#ffffff" d="M1361.855 594.21c.344 3.772-.994 6.994-2.988 7.196s-3.891-2.691-4.235-6.463.993-6.993 2.988-7.195 3.891 2.69 4.235 6.462ZM1366.162 602.475c.06 2.314-.884 4.218-2.108 4.253s-2.265-1.813-2.324-4.127.884-4.218 2.108-4.253 2.265 1.812 2.324 4.127Z" class="colorfff svgShape"/><path d="M1192.654 489.488s83.84 25.717 201.881-20.476-162.622-28.651-162.622-28.651l-44.16 35.067Z" style="mix-blend-mode:soft-light" opacity=".56" fill="#000000" class="color000 svgShape"/><path fill="#ffd31a" d="M1472.726 516.844c.133 11.198-25.03 48.043-30.524 56.074l-1.126 1.58a10.35 10.35 0 0 1 0-1.392c.066-6.235.125-12.543-.017-18.977.01-1.98.013-4.031-.04-6.004 0-1.392-.056-2.706-.056-4.098a32.501 32.501 0 0 0-2.783-12.395 237.999 237.999 0 0 0-8.83-18.082 189.802 189.802 0 0 0-10.291-16.69c-13.2-19.324-24.524-27.848-24.524-27.848s-7.13-4.333-22.148-8.086c-16.715-4.24-43.277-7.774-80.858-3.962-37.582 3.811-62.954 12.613-78.595 20.135-14.065 6.703-20.28 12.389-20.28 12.389s-15.052 16.768-26.177 50.798c.063-.007.07.066.132.06-.155.382-.374.77-.53 1.152-1.838 5.609-3.505 11.713-5.006 18.24a34.01 34.01 0 0 0-.49 12.727c.298 1.875.59 3.678.944 5.474a721.195 721.195 0 0 0 4.52 24.455l-.064.006s-4.668-4.51-10.837-10.845c-11.845-12.135-29.282-31.25-30.66-39.39-.299-1.875-.593-4.41-.815-7.538a229.616 229.616 0 0 1 .672-32.31c.404-5.316 1.02-11.095 1.786-17.327l-.007-.073a543.1 543.1 0 0 1 9.738-54.113 208.21 208.21 0 0 1 6.006-5.885c2.333-2.288 4.967-4.753 7.84-7.39 26.78-24.699 72.027-62.849 72.027-62.849l6.404-29.373 6.978-32.144 21.277-23.041 17.179-18.523.112-.158 20.353 14.863 25.054 18.342 24.263 57.699s51.248 28.29 82.004 47.152c1.143.69 2.223 1.387 3.234 2.017a162.66 162.66 0 0 1 5.867 3.728 202.336 202.336 0 0 1 6.961 4.57c7.326 16.917 13.1 32.159 17.557 45.483a428.562 428.562 0 0 1 6.746 22.397 300.69 300.69 0 0 1 2.084 8.216l.006.072c1.014 4.147 1.806 7.95 2.508 11.47a117.989 117.989 0 0 1 2.406 19.394Z" class="colorffd31a svgShape"/><path d="M1472.726 516.844c.133 11.198-25.03 48.043-30.524 56.074l-1.127.188c.067-6.235.126-12.543-.016-18.977.01-1.98.013-4.031-.04-6.004 0-1.392-.056-2.706-.056-4.098a32.501 32.501 0 0 0-2.783-12.395 237.999 237.999 0 0 0-8.83-18.082 189.802 189.802 0 0 0-10.291-16.69c-13.2-19.324-24.524-27.848-24.524-27.848s-7.13-4.333-22.148-8.086c-16.715-4.24-43.277-7.774-80.858-3.962-37.582 3.811-62.954 12.613-78.595 20.135-14.065 6.703-20.28 12.389-20.28 12.389s-15.052 16.768-26.177 50.798c.063-.007.07.066.132.06-.155.382-.374.77-.53 1.152-1.838 5.609-3.505 11.713-5.006 18.24a34.01 34.01 0 0 0-.49 12.727c.298 1.875.59 3.678.944 5.474a721.195 721.195 0 0 0 4.52 24.455l-.064.006s-4.668-4.51-10.837-10.845c-13.292-14.772-26.34-32.427-27.234-45.013-.047-.508-.037-1.096-.09-1.677-.258-7.008.464-17.193 1.8-28.32.894-8.297 2.12-17.142 3.434-25.702 3.788-24.638 8.22-47.07 8.22-47.07l12.521-11.09 75.543-66.795 7.614-37.704 4.293-21.172 20.141-23.66 3.502-4.092 9.698-11.389-3.466 10.757-11.824 36.811-.338 25.534-.143 10.274-.208 15.116-6.55 16.638c-.057.08-.057.08-.05.152l-3.724 9.317.013.145-16.436 41.97-10 25.488c41.564-11.69 121.488-11.003 159.857-6.175 7.644.91 13.72 2.052 17.391 3.292 11.405 3.826 26.148 20.576 37.78 35.957 2.237 2.924 4.34 5.788 6.3 8.447 4.442 6.218 8.057 11.713 10.402 15.14l.007.071a329.65 329.65 0 0 1 2.524 3.995c7.933-3.59 10.871-13.853 11.584-24.843.205-3.319.215-6.69.105-9.977 1.014 4.147 1.806 7.95 2.508 11.47a117.989 117.989 0 0 1 2.406 19.394Z" style="mix-blend-mode:soft-light" opacity=".56" fill="#000000" class="color000 svgShape"/><ellipse cx="1287" cy="407.284" rx="37.711" ry="51.494" transform="rotate(-4.548 1287.001 407.284)" style="mix-blend-mode:soft-light" opacity=".56" fill="#000000" class="color000 svgShape"/><ellipse cx="1287" cy="407.284" fill="#ba3535" rx="32.682" ry="44.627" transform="rotate(-4.548 1286.999 407.284)" class="colorba3535 svgShape"/><ellipse cx="1288.63" cy="405.573" fill="#ce3e3e" rx="28.342" ry="38.701" transform="rotate(-4.548 1288.632 405.573)" class="colorce3e3e svgShape"/><path fill="#e25d5d" d="M1312.78 396.426c1.308 14.34-6.138 26.829-16.631 27.893s-11.136-11.371-12.445-25.712-2.789-25.156 7.705-26.22 20.061 9.698 21.37 24.039Z" class="colore25d5d svgShape"/><path fill="#212021" d="M1397.335 644.379c.89 9.743-6.298 30.751-37.704 39.724-27.747 7.99-45.392-6.36-49.102-9.841-.533-.464-.78-.72-.78-.72l-2.106-23.077c.265-.027.482-.096.703-.119s.447.002.712-.025a46.23 46.23 0 0 0 13.528-2.407 17.591 17.591 0 0 1 3.592-.74c14.044-1.143 39.213 12.02 50.124 13.218a9.121 9.121 0 0 0 3.542-.312c8.013-3.165 17.491-15.701 17.491-15.701Z" class="color212021 svgShape"/><path fill="#353535" d="M1376.3 660.373c-6.547 6.719-16.482 13.102-27.279 10.49-11.666-2.833-18.955-14.884-22.834-23.697 14.017-1.112 39.204 12.027 50.113 13.207Z" class="color353535 svgShape"/><path fill="#212021" d="m1309.058 650.321 2.106 23.077s-.195.302-.635.864c-3.012 4.164-17.738 21.796-46.42 19.53-32.453-2.496-43.309-21.674-44.198-31.418 0 0 11.572 10.401 20.01 11.898a9.127 9.127 0 0 0 3.534-.406c10.493-3.37 32.864-21.353 46.813-23.05a17.48 17.48 0 0 1 3.66.005 46.027 46.027 0 0 0 13.715-.356c.265-.027.482-.096.703-.119s.447.002.712-.025Z" class="color212021 svgShape"/><path fill="#353535" d="M1243.46 673.846c7.642 5.28 18.55 9.55 28.676 4.815 10.94-5.125 15.915-18.42 18.129-27.851-13.96 1.725-36.31 19.686-46.805 23.036Z" class="color353535 svgShape"/><path fill="#f7bda9" d="m1280.176 644.389 5.166-24.805s21.217 24.87 39.386-3.995l8.348 22.26s-23.514 31.365-52.9 6.54Z" class="colorf7bda9 svgShape"/><path fill="#cc7d64" d="M1278.176 639.097a12.12 12.12 0 0 0 5.735 5.57 26.324 26.324 0 0 0 7.271 2.275 55.849 55.849 0 0 0 15.46.396 57.273 57.273 0 0 0 15.064-3.56 27.262 27.262 0 0 0 6.691-3.686 12.496 12.496 0 0 0 4.617-6.557c1.347 2.84.736 6.58-.82 9.538a23.375 23.375 0 0 1-6.599 7.384 38.26 38.26 0 0 1-36.868 3.786 23.044 23.044 0 0 1-7.946-5.936c-2.12-2.592-3.41-6.18-2.605-9.21Z" class="colorcc7d64 svgShape"/><path fill="#e5a488" d="M983.79 1080.124c-9.272 59.655 76.676 93.822 137.232 110.311a563.724 563.724 0 0 0 56.904 12.507s-19.483 18.518 8.185 28.138l-1.868 4.363s17.17 10.608 33.462 1.622l12.361-29.64-21.63-31.695-78.535-74.864-40.187-38.277s8.675-9.261 20.877-23.492c8.51-9.974 18.757-22.359 28.94-35.73 12.175-15.894 24.251-33.176 33.234-49.337 27.325-49.13 38.473-153.372-24.283-145.772 0 0-29.65 35.58-63.866 83.14-19.156 26.61-39.735 57.001-57.372 86.985-21.837 37.153-39.113 73.68-43.454 101.74Z" class="colore5a488 svgShape"/><path fill="#bc7b64" d="M1186.13 1231.078a33.716 33.716 0 0 1 8.31-.38l8.114.643a7.924 7.924 0 0 1-3.927 2.16 14.419 14.419 0 0 1-4.364.406 14.74 14.74 0 0 1-8.133-2.829Z" class="colorbc7b64 svgShape"/><path fill="#bc7b64" d="M1201.204 1225.441c.875 1.9 1.46 3.053 2.032 4.408.265.674.563 1.345.81 2.118a13.02 13.02 0 0 1 .672 2.672 5.723 5.723 0 0 1-4.444-3.542c-.72-1.797-.746-4.197.93-5.656Z" class="colorbc7b64 svgShape"/><path fill="#ed9c1b" d="M1121.022 1190.435a563.724 563.724 0 0 0 56.905 12.506c30.134-13.736 30.508-27.21 30.508-27.21l-78.534-74.865c-22.395 19.96-13.322 70.486-8.879 89.57ZM1027.245 978.383c44.188 11.105 75.297 49.775 83.346 60.714 8.51-9.974 18.757-22.359 28.94-35.73-7.693-61.77-37.768-96.704-54.915-111.97-19.156 26.61-39.735 57.002-57.371 86.986Z" class="colored9c1b svgShape"/><path d="m1208.449 1175.727 21.634 31.703-12.363 29.65c-16.282 8.96-33.504-1.654-33.504-1.654l1.914-4.348a32.347 32.347 0 0 1-9.727-5.035c9.206-4.188 24.787-12.99 17.841-17.14-5.769-3.487-14.42-2.119-20.593-.397a26.937 26.937 0 0 1 4.272-5.564s-200.012-30.388-194.695-117.414c73.67-2.837 153.35-163.925 182.656-229.187a44.69 44.69 0 0 0-7.634-48.32c51.731 4.055 40.334 99.592 14.51 146-27.351 49.127-83.036 108.55-83.036 108.55s-62.812-.921-65.018 29.04c-2.203 29.993 160.703 125.432 183.743 84.116Z" style="mix-blend-mode:soft-light" opacity=".3" fill="#000000" class="color000 svgShape"/><path fill="#ed9c1b" d="M1357.476 1745.694s48.192-5.406 84.934 5.78 79.262 18.054 75.035-21.138c0 0 16.396 36.911-22.106 53.327s-66.71 8.83-83.205 4.804c-13.975-3.412-35.503-2.156-52.748-3.806a8.25 8.25 0 0 1-7.279-9.724Z" class="colored9c1b svgShape"/><path d="M1359.39 1784.671c17.253 1.64 38.777.396 52.75 3.79 16.488 4.045 44.687 11.625 83.21-4.808 34.761-14.82 24.749-46.329 22.458-52.325 1.187 3.535 4.129 15.81-6.845 28.99-12.982 15.642-33.94 19.885-80.864 15.642-40.898-3.705-55.832-20.053-24.833-30.858a288.87 288.87 0 0 0-47.8.594l-5.346 29.246a8.248 8.248 0 0 0 7.27 9.73Z" style="mix-blend-mode:soft-light" opacity=".3" fill="#000000" class="color000 svgShape"/><path fill="#ed9c1b" d="M1288.429 1725.895s-48.193-5.405-84.935 5.78-79.261 18.054-75.035-21.137c0 0-16.395 36.91 22.107 53.326s66.71 8.83 83.204 4.804c13.975-3.411 35.503-2.155 52.749-3.806a8.25 8.25 0 0 0 7.279-9.724Z" class="colored9c1b svgShape"/><path d="M1286.515 1764.873c-17.253 1.64-38.777.396-52.75 3.79-16.489 4.044-44.688 11.624-83.21-4.809-34.762-14.82-24.749-46.329-22.458-52.325-1.188 3.536-4.13 15.81 6.845 28.991 12.982 15.641 33.94 19.884 80.863 15.641 40.899-3.705 55.833-20.053 24.834-30.857a288.865 288.865 0 0 1 47.8.593l5.345 29.246a8.248 8.248 0 0 1-7.269 9.73Z" style="mix-blend-mode:soft-light" opacity=".3" fill="#000000" class="color000 svgShape"/><path fill="#76a52b" d="M1547.308 1616.85c-20.703 50.911-149.565 151.15-200.476 141.618-50.911-9.56-151.121-52.523-168.629-103.434-9.73-28.312 1.528-142.495 13.463-238.349q1.146-9.249 2.291-18.214c1.132-8.938 2.292-17.621 3.394-25.993a6045.257 6045.257 0 0 1 10.268-73.821c2.178-14.736 3.507-23.42 3.507-23.42 3.875-6.391 7.41-11.963 10.635-16.828 29.443-44.519 32.809-29.755 32.809-29.755l135.678 12.558 64.12 5.94s1.47 4.13 4.072 11.568c7.778 22.316 25.625 74.302 43.473 132.255a2546.432 2546.432 0 0 1 12.133 40.418c.99 3.366 1.98 6.731 2.942 10.097 22.146 77.046 39.512 152.705 30.32 175.36Z" class="color76a52b svgShape"/><path d="M1346.295 1350.642c65.59 115.795 163.961 189.22 200.192 213.685-1.696-10.748-4.016-22.542-6.787-35.128-32.3-43.246-108.384-138.139-197.648-201.89 0 0 101.34 58.462 181.074 135.96a1999.624 1999.624 0 0 0-6.138-21.779c-.962-3.366-1.952-6.731-2.942-10.097a2546.432 2546.432 0 0 0-12.133-40.418c-17.848-57.953-35.695-109.94-43.473-132.255-2.602-7.439-4.073-11.568-4.073-11.568l-64.119-5.94-135.678-12.558s-3.366-14.764-32.81 29.755c-3.224 4.865-6.76 10.437-10.634 16.829 0 0-1.33 8.683-3.507 23.419a6045.257 6045.257 0 0 0-10.268 73.82c-1.102 8.373-2.262 17.056-3.394 25.994q-1.145 8.952-2.29 18.214c-1.245 9.9-2.461 19.997-3.649 30.18 16.574-29.84 43.076-69.07 79.817-98.344 0 0-6.194 102.444-88.67 183.223-1.301 14.51-2.376 28.482-3.167 41.521 27.632-25.37 67.824-73.99 87.594-153.695 0 0 19.431 210.404-81.599 244.09 25.004 47.065 116.841 85.785 164.839 94.808 50.374 9.419 177-88.557 199.769-139.949-152.762 17.451-200.306-267.877-200.306-267.877Zm9.56 112.429s39.23 189.841 169.703 173.946c0 0-164.414 152.733-169.704-173.946Z" style="mix-blend-mode:soft-light" opacity=".3" fill="#000000" class="color000 svgShape"/><path fill="#ce3e3e" d="M1516.988 1441.49c-137.375-129.144-206.53-139.552-206.53-139.552-59.282 27.463-97.183 77.695-118.792 114.747q1.146-9.249 2.291-18.215c1.132-8.937 2.292-17.62 3.394-25.992a6045.257 6045.257 0 0 1 10.268-73.821c2.178-14.736 3.507-23.42 3.507-23.42 3.874-6.392 7.41-11.964 10.635-16.828l90.112 18.497 78.375-35.694 41.379-18.837 21.665 19.544s.142.368.368 1.047c.057.17.141.367.227.594.31.876.763 2.15 1.357 3.761.933 2.63 2.206 6.194 3.79 10.579-.198.254-.396.537-.594.82 7.778 22.316 25.625 74.302 43.473 132.255a2546.432 2546.432 0 0 1 12.133 40.418c.99 3.366 1.98 6.731 2.942 10.097ZM1526.802 1448.25c-.424-1.188-.848-2.376-1.273-3.535v-.057c.425 1.188.849 2.376 1.273 3.592Z" class="colorce3e3e svgShape"/><path d="M1516.988 1441.49c-137.375-129.144-206.53-139.552-206.53-139.552-59.282 27.463-97.183 77.695-118.792 114.747q1.146-9.249 2.291-18.215c34.648-60.923 80.44-87.453 80.44-87.453a218.59 218.59 0 0 1-10.465.085h-.114c-28.707-.453-46.046-6.534-56.2-12.445 2.179-14.736 3.508-23.42 3.508-23.42 3.875-6.392 7.41-11.964 10.635-16.828l90.112 18.497 78.375-35.694 41.379-18.837 21.665 19.544s.142.368.368 1.047c.057.17.141.367.227.594.31.876.763 2.15 1.357 3.761.933 2.63 2.206 6.194 3.79 10.579-.198.254-.396.537-.594.82-7.27 9.475-31.367 33.12-93.563 44.01-.17.028-.368.056-.538.084a341.04 341.04 0 0 1-13.943 2.093s80.496 27.719 163.65 126.486c.99 3.366 1.98 6.731 2.942 10.097Z" style="mix-blend-mode:soft-light" opacity=".3" fill="#000000" class="color000 svgShape"/><path fill="#ffbb10" d="M1516.988 1441.49c-137.375-129.144-206.53-139.552-206.53-139.552-59.282 27.463-97.183 77.695-118.792 114.747q1.146-9.249 2.291-18.215c1.132-8.937 2.292-17.62 3.394-25.992 13.238-19.884 34.394-44.18 66.58-61.376q4.2-2.25 8.656-4.328c2.998-1.414 6.08-2.715 9.277-3.988.254-.113.509-.198.792-.311 1.47-.566 2.97-1.131 4.468-1.669a158.242 158.242 0 0 1 5.148-1.782 56.835 56.835 0 0 1 3.564-1.074 85.408 85.408 0 0 1 5.912-1.415c.734-.141 1.498-.282 2.234-.424 18.922-3.253 39.371-.368 60.357 6.703 47.376 16.01 97.297 53.202 137.574 88.161a2546.432 2546.432 0 0 1 12.133 40.418c.99 3.366 1.98 6.731 2.942 10.097ZM1526.802 1448.25c-.424-1.188-.848-2.376-1.273-3.535v-.057c.425 1.188.849 2.376 1.273 3.592Z" class="colorffbb10 svgShape"/><path d="M1516.988 1441.49c-137.375-129.144-206.53-139.552-206.53-139.552-59.282 27.463-97.183 77.695-118.792 114.747q1.146-9.249 2.291-18.215c34.648-60.923 80.44-87.453 80.44-87.453a218.59 218.59 0 0 1-10.465.085h-.114c2.829-1.5 5.742-2.942 8.769-4.328 2.998-1.414 6.08-2.715 9.277-3.988.254-.113.509-.198.792-.311 1.47-.566 2.97-1.131 4.468-1.669a158.242 158.242 0 0 1 5.148-1.782 56.835 56.835 0 0 1 3.564-1.074 85.408 85.408 0 0 1 5.912-1.415c.734-.141 1.498-.282 2.234-.424 19.374-3.507 39.908-.566 60.895 6.619-.17.028-.368.056-.538.084a341.04 341.04 0 0 1-13.943 2.093s80.496 27.719 163.65 126.486c.99 3.366 1.98 6.731 2.942 10.097Z" style="mix-blend-mode:soft-light" opacity=".3" fill="#000000" class="color000 svgShape"/><path fill="#ce3e3e" d="m1280.841 1212.991-20.1 552.875s11.41 10.531 25.501 3.83l.381 11.961s16.675 9.991 43.528 2.143l-1.54-23.662s13.725 6.762 33.36-4.697l-34.247-551.048Z" class="colorce3e3e svgShape"/><path d="m1359.155 1756.985-38.383-495.734 14.858 500.651a22.627 22.627 0 0 1-7.029-1.763l1.547 23.672c-1.907.55-3.786 1.04-5.584 1.42l-21.856-531.507-3.717 532.087a40.586 40.586 0 0 1-12.368-4.151l-.372-11.977a21.51 21.51 0 0 1-5.736 1.855l6.257-509.548-19.636 507.848a24.81 24.81 0 0 1-6.386-3.968l20.086-552.871 46.89-8.611 34.239 551.067a51.261 51.261 0 0 1-2.81 1.53Z" style="mix-blend-mode:soft-light" opacity=".3" fill="#000000" class="color000 svgShape"/><path fill="#991d1d" d="M1286.242 1769.696q-1.216-66.578-.895-133.13c.102-44.369.675-88.73 1.34-133.09.814-44.358 1.73-88.714 3.114-133.062q1.906-66.525 5.374-133.024 1.23 66.578.907 133.13c-.104 44.368-.677 88.73-1.351 133.09-.825 44.358-1.74 88.714-3.127 133.062q-1.911 66.525-5.362 133.024ZM1328.61 1760.138q-4.148-65.373-6.76-130.787c-1.853-43.607-3.235-87.227-4.526-130.85-1.141-43.627-2.18-87.256-2.752-130.899q-1.027-65.459-.493-130.961 4.163 65.372 6.773 130.787c1.85 43.607 3.233 87.227 4.514 130.85 1.13 43.627 2.17 87.256 2.74 130.899q1.021 65.46.504 130.961Z" class="color991d1d svgShape"/><path fill="#ffbb10" d="M1217.98 1224.939s-10.246 29.077-6.84 50.31c0 0 105.23 72.708 243.23-28.106 0 0 3.993-40.486-15.311-58.278-16.08-14.82-221.078 36.074-221.078 36.074Z" class="colorffbb10 svgShape"/><path d="M1454.305 1228.433c-137.967 101.857-243.167 30.009-243.167 30.009a30.54 30.54 0 0 1-.228-1.56c.41-4.158 1.047-8.261 1.798-12.064a160.917 160.917 0 0 1 5.273-19.88s205.006-50.887 221.09-36.074c6.847 6.332 10.793 15.56 12.969 24.867a96.051 96.051 0 0 1 2.265 14.702Z" style="mix-blend-mode:soft-light" opacity=".3" fill="#000000" class="color000 svgShape"/><path d="M1452.04 1213.73c-127.317 93.408-226.111 39.142-239.332 31.088a160.917 160.917 0 0 1 5.273-19.88s205.006-50.887 221.09-36.074c6.847 6.332 10.793 15.56 12.969 24.867Z" style="mix-blend-mode:soft-light" opacity=".3" fill="#000000" class="color000 svgShape"/><path fill="#995036" d="M1210.016 751.378s-49.32 28.637-77.958 66.82c0 0-23.864 95.459 14.32 165.461 0 0 14.318 167.052 76.365 256.146 0 0 71.594 55.683 232.281-12.728 0 0-23.864-55.684 38.184-127.277s65.23-111.368 65.23-111.368-14.32-85.912 35-182.961c0 0-87.503-76.366-184.552-84.321 0 0-121.31 122.504-198.87 30.228Z" class="color995036 svgShape"/><path d="M1593.439 805.47s-87.51-76.366-184.552-84.314c0 0-121.31 122.498-198.864 30.236 0 0-46.3 26.87-75.207 63.242 21.92.17 61.602 2.885 99.078 17.876 0 0 35.384 168.26-95.6 133.754a153.512 153.512 0 0 0 8.09 17.395s.623 7.184 2.121 19.403c10.493 3.733 28.227 6.703 56.738 2.856 0 0-36.345 62.282-12.134 178.274l.028.028c8.4 20.138 18.186 39.173 29.613 55.578 0 0 71.587 55.69 232.268-12.728 0 0-23.872-55.69 38.183-127.277s65.223-111.354 65.223-111.354-14.312-85.926 35.015-182.968Zm-368.03 420.016s-55.154-201.522 38.183-213.204c93.31-11.653 101.794 213.204 101.794 213.204s-77.413 51.958-139.977 0Zm181.356-107.14s4.243-68.927-46.668-109.231c0 0 99.7 2.12 135.763-22.26 0 0 11.653 77.413-89.095 131.492Zm-99.7-161.726c-33.404-30.236-14.312-120.914-14.312-120.914 58.859-33.403 224.32-76.367 224.32 17.508 0 93.846-176.605 133.641-210.008 103.406Z" style="mix-blend-mode:soft-light" opacity=".3" fill="#000000" class="color000 svgShape"/><path fill="#a5573f" d="m1260.356 1037.273 4.306 58.328c.624 8.451-3.895 15.737-9.985 16.516l-27.007 3.457c-6.529.836-12.766-7.022-12.589-16.193.366-18.939 4.5-51.061 25.237-75.357 7.775-9.11 18.946-1.544 20.038 13.25ZM1267.722 1142.985l1.838 24.579c.675 9.02-5.054 16.261-12.63 16.505l-3.315.107c-14.982.482-29.206-12.962-32.544-31.345l-1.038-5.715c-1.616-8.896 2.77-17.001 9.992-17.807l22.024-2.456c7.851-.876 14.954 6.513 15.673 16.132ZM1272.378 1205.246l2.204 29.478a6.737 6.737 0 0 1-7.333 7.288c-16.994-.75-32.648-14.673-35.899-32.574l-.722-3.978c-1.263-6.953 2.906-12.892 9.466-13.053l18.4-.45c7.047-.172 13.331 5.897 13.884 13.289ZM1275.161 1033.93l2.81 59.701c.406 8.63 5.976 14.74 12.551 13.898l31.999-4.096c8.513-1.09 15.636-12.157 13.996-22.633-3.362-21.489-13.53-55.573-41.718-70.396-9.695-5.099-20.352 8.344-19.638 23.525ZM1280.693 1141.877l1.153 25.033c.423 9.177 7.309 16.122 15.55 15.856l3.714-.12c17.667-.568 33.814-17.12 35.484-38.746l.524-6.781c.82-10.614-6.219-18.751-15.574-17.758l-26.237 2.786c-8.601.913-15.066 9.92-14.614 19.73ZM1283.61 1205.2l1.376 29.88c.199 4.31 4.044 7.891 8.641 8.094a36.357 36.357 0 0 0 37.893-33.584l.35-4.53a13.274 13.274 0 0 0-13.788-14.338l-21.383.407a13.378 13.378 0 0 0-13.09 14.072Z" class="colora5573f svgShape"/><path fill="#a5573f" d="M1264.667 1095.607c.622 8.457-3.903 15.726-9.984 16.517l-27.011 3.451c-6.534.849-12.757-7.014-12.587-16.207.029-1.385.085-2.828.142-4.327.905-19.205 5.855-48.479 25.087-71.02 7.778-9.108 18.951-1.528 20.054 13.264l4.13 55.918ZM1256.917 1184.079l-3.309.085c-14.962.48-29.189-12.954-32.526-31.339l-1.047-5.713a19.318 19.318 0 0 1 0-7.1c1.047-5.741 4.78-10.125 9.984-10.69l22.034-2.462c7.834-.876 14.962 6.506 15.669 16.122l1.64 22.005v.028l.198 2.546c.679 9.023-5.063 16.263-12.643 16.518ZM1274.595 1234.735a6.742 6.742 0 0 1-7.354 7.27 37.154 37.154 0 0 1-23.108-9.844 40.492 40.492 0 0 1-12.784-22.712l-.707-3.988a12.68 12.68 0 0 1 .226-5.77 9.613 9.613 0 0 1 9.22-7.297l18.413-.424c7.043-.198 13.322 5.883 13.888 13.265l1.895 25.173ZM1322.508 1103.441l-31.99 4.101c-6.561.82-12.133-5.289-12.558-13.915l-2.8-59.707a32.275 32.275 0 0 1 .114-4.385c1.244-13.236 10.776-23.73 19.516-19.12 28.029 14.736 38.21 48.48 41.662 69.947-.029.028 0 .028 0 .028.028.141.028.254.057.396 1.64 10.493-5.488 21.552-14.001 22.655ZM1337.13 1137.127l-.537 6.76c-1.668 21.637-17.818 38.184-35.496 38.75l-3.705.14c-8.231.255-15.132-6.703-15.556-15.867l-1.132-25.03a18.93 18.93 0 0 1 .17-3.593c1.018-8.344 6.9-15.33 14.425-16.15l26.247-2.772c7.92-.848 14.17 4.837 15.387 13.067a19.735 19.735 0 0 1 .197 4.695ZM1331.87 1205.065l-.34 4.526a36.353 36.353 0 0 1-36.288 33.601c-.538 0-1.075 0-1.612-.028-4.61-.198-8.457-3.762-8.655-8.09l-1.358-29.867a14.983 14.983 0 0 1 .17-2.998 13.395 13.395 0 0 1 12.926-11.088l21.382-.396a13.346 13.346 0 0 1 13.548 10.437 14.8 14.8 0 0 1 .227 3.903Z" class="colora5573f svgShape"/><path d="M1264.667 1095.607c.622 8.457-3.903 15.726-9.984 16.517l-27.011 3.451c-6.534.849-12.757-7.014-12.587-16.207.029-1.385.085-2.828.142-4.327.933 7.948 6.562 14.255 12.445 13.52l27.01-3.48c4.95-.621 8.854-5.543 9.815-11.878ZM1256.917 1184.079l-3.309.085c-14.962.48-29.189-12.954-32.526-31.339l-1.047-5.713a18.863 18.863 0 0 1 0-7.015l1.047 5.714c3.337 18.384 17.564 31.819 32.526 31.338l3.31-.113c6.278-.198 11.285-5.176 12.444-12.02l.198 2.545c.679 9.023-5.063 16.263-12.643 16.518ZM1274.595 1234.735a6.742 6.742 0 0 1-7.354 7.27 37.154 37.154 0 0 1-23.108-9.844 40.492 40.492 0 0 1-12.784-22.712l-.707-3.988a12.68 12.68 0 0 1 .226-5.77l.48 2.716a40.586 40.586 0 0 0 12.785 22.712 37.345 37.345 0 0 0 23.108 9.87 6.843 6.843 0 0 0 7.043-4.581ZM1322.508 1103.441l-31.99 4.101c-6.561.82-12.133-5.289-12.558-13.915l-2.8-59.707a32.275 32.275 0 0 1 .114-4.385l2.686 57.077c.425 8.627 5.997 14.736 12.558 13.888l31.99-4.101c6.731-.849 12.557-7.92 13.944-16.009.028.141.028.254.057.396 1.64 10.493-5.488 21.552-14.001 22.655ZM1337.13 1137.127l-.537 6.76c-1.668 21.637-17.818 38.184-35.496 38.75l-3.705.14c-8.231.255-15.132-6.703-15.556-15.867l-1.132-25.03a18.93 18.93 0 0 1 .17-3.593l.962 21.609c.424 9.164 7.325 16.122 15.556 15.839l3.705-.113c17.678-.566 33.828-17.112 35.496-38.75l.34-4.44a19.735 19.735 0 0 1 .197 4.695ZM1331.87 1205.065l-.34 4.526a36.353 36.353 0 0 1-36.288 33.601c-.538 0-1.075 0-1.612-.028-4.61-.198-8.457-3.762-8.655-8.09l-1.358-29.867a14.983 14.983 0 0 1 .17-2.998l1.188 25.851c.198 4.3 4.045 7.891 8.655 8.09.537.028 1.074.028 1.612.028a36.353 36.353 0 0 0 36.288-33.602l.113-1.414a14.8 14.8 0 0 1 .227 3.903Z" opacity=".3" fill="#000000" class="color000 svgShape"/><path d="M1264.667 1095.607c.622 8.457-3.903 15.726-9.984 16.517l-27.011 3.451c-6.534.849-12.757-7.014-12.587-16.207.029-1.385.085-2.828.142-4.327.933 7.948 6.562 14.255 12.445 13.52l27.01-3.48c4.95-.621 8.854-5.543 9.815-11.878ZM1256.917 1184.079l-3.309.085c-14.962.48-29.189-12.954-32.526-31.339l-1.047-5.713a18.863 18.863 0 0 1 0-7.015l1.047 5.714c3.337 18.384 17.564 31.819 32.526 31.338l3.31-.113c6.278-.198 11.285-5.176 12.444-12.02l.198 2.545c.679 9.023-5.063 16.263-12.643 16.518ZM1274.595 1234.735a6.742 6.742 0 0 1-7.354 7.27 37.154 37.154 0 0 1-23.108-9.844 40.492 40.492 0 0 1-12.784-22.712l-.707-3.988a12.68 12.68 0 0 1 .226-5.77l.48 2.716a40.586 40.586 0 0 0 12.785 22.712 37.345 37.345 0 0 0 23.108 9.87 6.843 6.843 0 0 0 7.043-4.581ZM1322.508 1103.441l-31.99 4.101c-6.561.82-12.133-5.289-12.558-13.915l-2.8-59.707a32.275 32.275 0 0 1 .114-4.385l2.686 57.077c.425 8.627 5.997 14.736 12.558 13.888l31.99-4.101c6.731-.849 12.557-7.92 13.944-16.009.028.141.028.254.057.396 1.64 10.493-5.488 21.552-14.001 22.655ZM1337.13 1137.127l-.537 6.76c-1.668 21.637-17.818 38.184-35.496 38.75l-3.705.14c-8.231.255-15.132-6.703-15.556-15.867l-1.132-25.03a18.93 18.93 0 0 1 .17-3.593l.962 21.609c.424 9.164 7.325 16.122 15.556 15.839l3.705-.113c17.678-.566 33.828-17.112 35.496-38.75l.34-4.44a19.735 19.735 0 0 1 .197 4.695ZM1331.87 1205.065l-.34 4.526a36.353 36.353 0 0 1-36.288 33.601c-.538 0-1.075 0-1.612-.028-4.61-.198-8.457-3.762-8.655-8.09l-1.358-29.867a14.983 14.983 0 0 1 .17-2.998l1.188 25.851c.198 4.3 4.045 7.891 8.655 8.09.537.028 1.074.028 1.612.028a36.353 36.353 0 0 0 36.288-33.602l.113-1.414a14.8 14.8 0 0 1 .227 3.903Z" opacity=".3" fill="#000000" class="color000 svgShape"/><path fill="#6d311f" d="M1146.377 983.66a143.895 143.895 0 0 0 16.12 4.408 156.787 156.787 0 0 0 16.348 2.846c10.923 1.318 21.968 1.605 32.562-.145a77.5 77.5 0 0 0 15.366-3.992 60.76 60.76 0 0 0 13.606-7.438c8.41-5.94 14.689-14.364 19.144-23.693l4.131-8.648 5.825 8.159a71.62 71.62 0 0 0 6.745 7.906 80.166 80.166 0 0 0 7.924 7.178 73.994 73.994 0 0 0 18.165 10.764 71.738 71.738 0 0 0 20.392 4.859 221.339 221.339 0 0 0 22.249.971 876.35 876.35 0 0 0 90.846-5.454c7.529-.815 15.016-1.82 22.321-3.096l5.323-1.105c1.775-.375 3.19-.898 4.807-1.332a52.595 52.595 0 0 0 8.838-4.823 111.311 111.311 0 0 0 16.884-13.932 194.271 194.271 0 0 0 14.971-16.591 218.74 218.74 0 0 0 39.947-80.938 190.988 190.988 0 0 1-32.634 86.377 166.178 166.178 0 0 1-14.758 18.449 122.113 122.113 0 0 1-17.728 16.234 55.715 55.715 0 0 1-11.092 6.545c-2.045.679-4.24 1.492-6.2 1.97l-5.892 1.423c-7.752 1.614-15.432 2.886-23.115 3.969-15.362 2.208-30.751 3.527-46.167 4.664-15.42 1.13-30.878 1.71-46.465 1.51a234.029 234.029 0 0 1-23.663-1.298 77.887 77.887 0 0 1-24.018-6.368 86.717 86.717 0 0 1-20.872-13.257 82.997 82.997 0 0 1-16.488-18.53l9.955-.49c-5.67 10.5-13.687 20.138-23.95 26.598a69.485 69.485 0 0 1-16.287 7.43 85.305 85.305 0 0 1-17.277 3.182c-11.61.889-23.079-.507-34.117-2.985a145.389 145.389 0 0 1-31.746-11.328Z" class="color6d311f svgShape"/><path fill="#6d311f" d="M1193.576 1092.905a120.447 120.447 0 0 1 2.032-41.03c3.148-13.512 8.841-27.086 18.807-38 9.738-11.145 23.96-18.151 38.359-20.854a91.627 91.627 0 0 1 21.607-1.094c3.538.247 7.101.086 10.622.686l10.581 1.562a128.401 128.401 0 0 1 39.72 15.702l8.83 6.069 8.159 6.89a116.564 116.564 0 0 1 14.316 15.635 137.82 137.82 0 0 1 28.49 76.708c-7.191-26.173-19.579-50.33-36.95-69.623a118.258 118.258 0 0 0-65.337-37.522l-9.459-1.55c-3.142-.612-6.394-.481-9.588-.767a89.702 89.702 0 0 0-18.826.48 59.167 59.167 0 0 0-32.653 15.353c-8.993 8.518-15.578 19.953-20.054 32.278a157.063 157.063 0 0 0-8.656 39.077ZM1264.639 958.203c-4.143-11.574-6.372-23.514-7.882-35.497a243.397 243.397 0 0 1-1.567-36.188 214.82 214.82 0 0 1 4.343-36.111c2.708-11.872 6.483-23.64 12.53-34.33-.37 12.288-.998 23.994-1.5 35.75l-1.244 35.18c-.369 11.737-.836 23.495-1.486 35.33-.687 11.845-1.511 23.723-3.194 35.866ZM1282.67 811.835c17.06-10.287 35.348-18.242 54.053-24.957a349.096 349.096 0 0 1 57.726-15.485c19.707-3.392 39.906-5.145 60.081-3.546 20.02 1.442 40.554 6.39 57.239 17.471-19.096-5.627-38.298-7.004-57.506-6.44a424.105 424.105 0 0 0-57.376 6.441c-19.053 3.345-38.017 7.568-57.013 12.091-18.976 4.629-37.937 9.56-57.204 14.425ZM1260.396 811.835c-8.653-1.331-16.653-2.892-24.634-4.393-7.94-1.55-15.761-3.046-23.595-4.39-7.824-1.383-15.647-2.746-23.618-3.915-7.988-1.43-16.047-2.277-24.671-4.272a70.204 70.204 0 0 1 24.956-6.844 92.38 92.38 0 0 1 25.82 1.114 95.932 95.932 0 0 1 24.594 7.788c7.749 3.723 15.195 8.38 21.148 14.912Z" class="color6d311f svgShape"/><path fill="#e5a488" d="M1583.11 1022.246c-3.611 18.167-11.79 33.81-26.937 43.697-1.27.823-2.541 1.615-3.78 2.374-51.635 31.657-78.144 3.564-85.315-25.754a69.9 69.9 0 0 1-2.023-17.174c.15-13.967 6.622-29.999 14.598-46.313v-.032c5.71-11.685 12.188-23.512 17.647-34.84l.032-.033c5.21-10.906 9.529-21.284 11.361-30.69 4.55-23.382-3.874-47.03-.857-58.54 1.206-4.644 4.275-7.328 10.76-7.245 22.605.23 40.002 28.669 40.002 28.669s36.48 86.45 24.512 145.881Z" class="colore5a488 svgShape"/><path d="M1583.11 1022.246a394.189 394.189 0 0 1-30.718 46.072c-51.634 31.656-78.143 3.563-85.314-25.755 21.76-.335 41.327-12.767 52.467-41.302 4.402-11.213 7.51-24.974 8.869-41.466.085-.675.137-1.382.19-2.057 4.354-57.923-14.732-93.236-20.768-102.798 1.206-4.643 4.275-7.327 10.76-7.244 22.605.23 40.002 28.669 40.002 28.669s36.48 86.45 24.512 145.881Z" style="mix-blend-mode:soft-light" opacity=".3" fill="#000000" class="color000 svgShape"/><path fill="#ed9c1b" d="M1542.643 1113.7s20.726 62.042 70.612 65.39 96.92-63.187 96.92-63.187Z" class="colored9c1b svgShape"/><path d="M1710.178 1115.902s-26.151 37.006-60.144 54.432c-29.54-36.517-78.556-38.132-98.346-37.092a125.701 125.701 0 0 1-9.029-19.527Z" style="mix-blend-mode:soft-light" opacity=".5" fill="#000000" class="color000 svgShape"/><path fill="#444343" d="m1775.027 819.487-29.125 306.919a15.547 15.547 0 0 1-16.923 14.032l-185.737-17.625a15.554 15.554 0 0 1-13.98-16.966l29.124-306.918a15.533 15.533 0 0 1 16.923-14.032l185.737 17.625a15.554 15.554 0 0 1 13.98 16.965Z" class="color444343 svgShape"/><path fill="#a8d5dd" d="m1733.812 1105.316 25.372-267.366a13.543 13.543 0 0 0-12.196-14.767l-161.758-15.35a13.543 13.543 0 0 0-14.756 12.21l-25.372 267.366a13.543 13.543 0 0 0 12.196 14.767l161.759 15.35a13.543 13.543 0 0 0 14.755-12.21Z" class="colora8d5dd svgShape"/><path d="M1737.068 1139.013a15.688 15.688 0 0 1-8.089 1.425l-185.737-17.625a15.554 15.554 0 0 1-13.98-16.966l29.124-306.918a15.653 15.653 0 0 1 6.698-11.388c3.317 6.948 6.95 14.578 10.906 22.773 38.698 80.441 105.12 215.285 149.906 306.078 3.922 7.895 7.684 15.479 11.172 22.621Z" style="mix-blend-mode:soft-light" opacity=".3" fill="#000000" class="color000 svgShape"/><path fill="#ffffff" d="M1580.813 835.569h159.947v14.098h-159.947z" transform="rotate(5.421 1660.786 842.617)" class="colorfff svgShape"/><path fill="#ffffff" d="M1578.541 859.51h159.947v14.098h-159.947z" transform="rotate(5.421 1658.516 866.56)" class="colorfff svgShape"/><path fill="#ffffff" d="M1573.066 917.207h159.947v14.098h-159.947z" transform="rotate(5.421 1653.039 924.255)" class="colorfff svgShape"/><path fill="#e5a488" d="M1811.745 976.63c-2.872 14.125-13.71 31.717-39.447 27.4-23.947-4.055-37.775-8.03-43.31-19.306-5.735-11.527-1.995-25.779 8.078-33.729a6.835 6.835 0 0 1 1.002-.795c16.38-11.836 41.836-12.502 41.836-12.502 18.916.291 30.489 14.99 32.457 27.11a32.998 32.998 0 0 1-.616 11.822Z" class="colore5a488 svgShape"/><path fill="#e5a488" d="M1799.488 1037.364c-3.824 11.512-13.723 23.408-34.045 19.996-21.327-3.583-33.664-7.16-38.66-17.18-4.16-8.386-2.677-18.345 2.88-25.618a23.649 23.649 0 0 1 5.263-5.2c14.64-10.556 37.298-11.144 37.298-11.144 16.925.29 27.261 13.368 28.977 24.206a34.136 34.136 0 0 1-1.713 14.94Z" class="colore5a488 svgShape"/><path fill="#e5a488" d="M1787.51 1079.295c-2.693 9.593-10.615 20.122-27.693 17.196-17.14-2.875-27.113-5.726-31.08-13.806a19.484 19.484 0 0 1 .802-18.402 20.925 20.925 0 0 1 5.741-6.398c11.73-8.5 29.992-8.966 29.992-8.966a23.937 23.937 0 0 1 23.319 19.46 25.754 25.754 0 0 1-1.08 10.916ZM1816.295 925.54c-4.85 12.02-15.953 23.493-37.28 19.909-23.947-4.055-37.774-8.03-43.31-19.306-4.81-9.657-2.916-21.219 3.712-29.393a26.851 26.851 0 0 1 5.369-5.131c16.38-11.836 41.835-12.502 41.835-12.502 18.91.347 30.49 14.99 32.457 27.11.727 4.578.102 12.018-2.783 19.312Z" class="colore5a488 svgShape"/><path d="M1787.51 1079.295c-2.693 9.593-10.615 20.122-27.693 17.196-17.14-2.875-27.113-5.726-31.08-13.806a19.484 19.484 0 0 1 .802-18.402c4.367 9.549 17.812 24.804 57.971 15.012ZM1799.488 1037.364c-3.824 11.512-13.723 23.408-34.045 19.996-21.327-3.583-33.664-7.16-38.66-17.18-4.16-8.386-2.677-18.345 2.88-25.618 2.734 10.898 15.248 29.803 69.825 22.802ZM1811.745 976.63c-2.872 14.125-13.71 31.717-39.447 27.4-23.947-4.055-37.775-8.03-43.31-19.306-5.735-11.527-1.995-25.779 8.078-33.729-1.338 7.7-.319 25.115 33.579 27.75 19.292 1.473 32.433.02 41.1-2.115ZM1816.295 925.54c-4.85 12.02-15.953 23.493-37.28 19.909-23.947-4.055-37.774-8.03-43.31-19.306-4.81-9.657-2.916-21.219 3.712-29.393 4.591 13.558 20.707 34.298 76.878 28.79Z" style="mix-blend-mode:soft-light" opacity=".3" fill="#000000" class="color000 svgShape"/></g></svg>