<svg xmlns="http://www.w3.org/2000/svg" viewBox="0 0 2302 1549.486"><g data-name="Layer 1" fill="#000000" class="color000 svgShape"><path fill="#e5a310" d="M622.018 450.723s-246.53-117.551-333.062 132.245c0 0-44.081-63.673-114.286-11.428s-8.163 187.755 119.184 128.98 426.123-111.021 426.123-111.021l-39.183-124.082Z" class="colore5a310 svgShape"/><path d="M719.957 589.525s-298.74 52.24-426.116 110.975c-73.913 34.135-125.833 2.77-142.608-39.725 3.302-34.187 20.502-61.772 96.652-75.936 11.396-2.13 19.862-8.254 25.933-17.36a82.502 82.502 0 0 1 15.123 15.496c13.047-37.595 29.661-66.883 48.619-89.515-8.467 22.898-7.722 45.476 18.159 56.925 59.322 26.2 162.948-73.167 342.565-29.66Z" style="mix-blend-mode:soft-light" opacity=".25" fill="#000000" class="color000 svgShape"/><path fill="#e8be0f" d="M722.42 562.548v907.366H219.17c-271.85-1046.948 410.21-914.68 410.21-914.68Z" class="colore8be0f svgShape"/><path fill="#cc4040" d="M722.42 698.254v771.66H284.476C79.63 576.784 643.226 691.68 643.226 691.68Z" class="colorcc4040 svgShape"/><path d="M722.407 698.264v771.665H284.468c-20.022-87.12-32.643-164.654-39.3-233.667 112.787-86.427 189.202-346.4 231.378-534.11 87.97-26.52 166.676-10.491 166.676-10.491Z" style="mix-blend-mode:soft-light" opacity=".25" fill="#000000" class="color000 svgShape"/><path fill="#ad7607" d="M288.956 582.968a41.615 41.615 0 0 1 6.312 12.665 42.083 42.083 0 0 1-8.764 41.462c-6.47 7.552-14.661 13.133-23.082 17.855-8.71 4.226-17.934 8.299-28.35 8.57-10.183.456-21.333-3.173-28.493-11.151a39.013 39.013 0 0 1-9.39-28.77c.797-5.053 1.916-10.317 5.344-14.511l1.139-1.61 1.495-1.34c1.01-.856 1.987-1.814 3.029-2.532a39.605 39.605 0 0 1 6.616-3.439c4.608-1.807 10.32-2.39 14.863.166 4.541 2.38 7.322 6.758 8.67 11.206-2.193-4.091-5.582-7.63-9.617-9.102-4.06-1.565-8.437-.447-12.168 1.624a38.583 38.583 0 0 0-5.449 3.606c-.803.695-1.398 1.493-2.109 2.205l-1.029 1.082-.726 1.35c-2.294 3.346-2.927 7.662-3.279 11.742.01 8.36 2.988 16.828 8.632 22.689 5.653 5.875 13.812 8.514 22.156 8.089 8.457.018 16.848-3.574 24.895-7.18a84.97 84.97 0 0 0 21.823-15.078 40.397 40.397 0 0 0 11.678-22.96c1.495-8.787-.383-18.14-4.196-26.638Z" class="colorad7607 svgShape"/><path d="M722.407 562.526v907.403H219.182c-19.224-73.966-33.655-142.075-43.879-204.752 24.655-1.864 47.926-12.088 69.866-28.915 112.786-86.427 189.201-346.4 231.377-534.11 13.419-59.749 23.377-112.201 29.927-149.37 70.238-7.775 122.904 2.449 122.904 2.449Z" style="mix-blend-mode:soft-light" opacity=".25" fill="#000000" class="color000 svgShape"/><path fill="#dd9666" d="M1060.847 1073.669a596.325 596.325 0 0 1 40.155 67.747 538.352 538.352 0 0 1 54.586 179.34 523.658 523.658 0 0 1 .49 120.974c9.776-1.08 20.282-2.011 32.032-2.796 17.998-1.202 36.057-1.28 54.08-2.151 33.158-1.602 66.36-2.146 99.556-2.02a663.643 663.643 0 0 0 36.877-151.51c12.5-104.382-1.957-199.999-27.275-281.573a810.815 810.815 0 0 0-59.275-141.025c-46.842-87.558-94.158-139.044-94.158-139.044s-391.636 48.615-179.139 297.268a651.584 651.584 0 0 1 42.071 54.79Z" class="colordd9666 svgShape"/><path fill="#ffbb10" d="M1156.078 1441.73c9.776-1.08 20.282-2.011 32.032-2.796 17.998-1.202 36.057-1.28 54.08-2.151 33.158-1.602 66.36-2.146 99.556-2.02a663.643 663.643 0 0 0 36.877-151.51c-46.616-3.589-134.752-2.898-223.035 37.503a523.658 523.658 0 0 1 .49 120.974ZM1060.847 1073.668a596.422 596.422 0 0 1 40.156 67.748c87.275-141.387 189.436-150.67 250.345-139.737a810.812 810.812 0 0 0-59.275-141.023c-127.965 1.692-200.248 135.983-231.226 213.012Z" class="colorffbb10 svgShape"/><path d="M1060.847 1073.669a596.325 596.325 0 0 1 40.155 67.747 538.352 538.352 0 0 1 54.586 179.34 523.658 523.658 0 0 1 .49 120.974c9.776-1.08 20.282-2.011 32.032-2.796 17.998-1.202 36.057-1.28 54.08-2.151 4.785-.231 9.575-.361 14.362-.55 20.076-126.358 5.585-280.9-58.351-415.284-58.64-123.192-52.05-228.167-37.194-292.75-92.213 19.773-313.54 90.208-142.23 290.68a651.584 651.584 0 0 1 42.07 54.79Z" style="mix-blend-mode:soft-light" opacity=".3" fill="#000000" class="color000 svgShape"/><path fill="#332623" d="M383.111 850.088c6.176 13.986 24.652 30.467 51.855 47.646 116.571 73.863 392.993 161.624 542.701 129.255 25.946-5.539 48.053-14.718 64.877-28.188 76.503-61.167 95.564-203.447 97.483-316.942 1.51-89.613-7.616-161.354-7.616-161.354s-466.673-167.27-548.646-122.164c-17.79 9.769-38.999 32.507-60.999 63.025-79.538 110.34-168.925 322.48-139.655 388.722Z" class="color332623 svgShape"/><path fill="#513836" d="M977.667 1026.989c25.946-5.539 48.053-14.718 64.877-28.188 76.503-61.167 95.564-203.447 97.483-316.942-15.372 35.225-35.878 87.65-60.489 163.135-29.062 88.96-69.41 146.803-101.87 181.995ZM383.111 850.088c6.176 13.986 24.652 30.467 51.855 47.646 78.233-100.376 88.06-325.15 87.8-436.368-79.538 110.34-168.925 322.48-139.655 388.722Z" class="color513836 svgShape"/><path fill="#b77548" d="M752.08 562.542c-1.938-3.522-11.97-104.252-11.97-104.252l262.61-9.656-2.767 136.194-18.087 89.116c-73.975 88.846-121.44 128.093-198.16 71.417 0 0-68.319-82.536-65.959-92.528s34.334-90.29 34.334-90.29Z" class="colorb77548 svgShape"/><path fill="#317abc" d="M924.67 1476.922a561.102 561.102 0 0 1 79.669-13.007 653.153 653.153 0 0 0-6.052-9.062c-45.139-66.35-49.909-44.088-49.909-44.088l-203.729 21.543-96.279 10.188s-2.12 6.212-5.869 17.392c89.713 2.198 180.408 9.994 270.16 20.604 3.95-1.333 7.933-2.573 12.008-3.57Z" class="color317abc svgShape"/><path d="M924.67 1476.922a561.102 561.102 0 0 1 79.669-13.007 653.153 653.153 0 0 0-6.052-9.062c-45.139-66.35-49.909-44.088-49.909-44.088l-203.729 21.543-96.279 10.188s-2.12 6.212-5.869 17.392c89.713 2.198 180.408 9.994 270.16 20.604 3.95-1.333 7.933-2.573 12.008-3.57Z" style="mix-blend-mode:soft-light" opacity=".3" fill="#000000" class="color000 svgShape"/><path fill="#ffbb10" d="M924.67 1476.922a561.102 561.102 0 0 1 79.669-13.007 653.153 653.153 0 0 0-6.052-9.062l-106.115 23.23c6.799.77 13.557 1.653 20.346 2.456 3.995-1.351 8.026-2.607 12.151-3.617ZM835.072 1472.072l-90.423-39.764-62.578-27.506-32.187 29.807s-.206.556-.533 1.58c-.082.257-.205.556-.329.898a456.288 456.288 0 0 1-1.967 5.682c-1.35 3.973-3.194 9.356-5.49 15.978.282.353.565.746.848 1.138 63.95 1.564 128.4 5.945 192.659 12.187Z" class="colorffbb10 svgShape"/><path d="m835.072 1472.072-90.423-39.764-62.578-27.506-32.187 29.807s-.206.556-.533 1.58c-.082.257-.205.556-.329.898a456.288 456.288 0 0 1-1.967 5.682c-1.35 3.973-3.194 9.356-5.49 15.978.282.353.565.746.848 1.138 63.95 1.564 128.4 5.945 192.659 12.187ZM924.67 1476.922a561.102 561.102 0 0 1 79.669-13.007 653.153 653.153 0 0 0-6.052-9.062l-106.115 23.23c6.799.77 13.557 1.653 20.346 2.456 3.995-1.351 8.026-2.607 12.151-3.617Z" style="mix-blend-mode:soft-light" opacity=".3" fill="#000000" class="color000 svgShape"/><path fill="#ce3e3e" d="m913.153 1480.332-4.578-92.598-70.652-12.007-4.717 96.163q39.851 3.85 79.549 8.572c.132-.045.265-.086.398-.13Z" class="colorce3e3e svgShape"/><path d="m849.491 1461.07-.206 12.39q13.24 1.342 26.462 2.785l.753-26.846.54 26.983q12.024 1.312 24.027 2.708l-.446-17.576.913 17.629q5.615.648 11.222 1.318c.134-.045.268-.086.401-.13l-4.575-92.587-70.661-12.024-4.716 96.17c5.165.499 10.33.99 15.493 1.513Z" style="mix-blend-mode:soft-light" opacity=".3" fill="#000000" class="color000 svgShape"/><path fill="#991d1d" d="M888.87 1470.41a35.777 35.777 0 0 1-5.082-11.287 50.613 50.613 0 0 1-1.648-11.39 49.713 49.713 0 0 1 .95-11.467 35.343 35.343 0 0 1 4.415-11.57 35.343 35.343 0 0 1 5.098 11.287 49.714 49.714 0 0 1 1.632 11.39 50.616 50.616 0 0 1-.966 11.467 35.771 35.771 0 0 1-4.4 11.57ZM858.43 1467.413a33.092 33.092 0 0 1-4.581-10.938 45.84 45.84 0 0 1-1.148-10.887 45.032 45.032 0 0 1 1.45-10.85 32.706 32.706 0 0 1 4.919-10.798 32.713 32.713 0 0 1 4.598 10.938 45.029 45.029 0 0 1 1.132 10.887 45.853 45.853 0 0 1-1.468 10.85 33.1 33.1 0 0 1-4.901 10.798Z" class="color991d1d svgShape"/><path fill="#ce3e3e" d="M912.727 1480.47c3.927-1.324 7.89-2.556 11.942-3.548 29.522-7.227 60.164-11.524 90.667-13.987-1.048-28.488-12.024-58.474-12.024-58.474s-309.188-72.487-333.071-49.892c-28.673 27.127-21.875 87.914-21.875 87.914q14.096 10.017 27.86 18.478c78.697 3.106 157.962 10.22 236.501 19.51Z" class="colorce3e3e svgShape"/><path d="M912.574 1480.52c3.977-1.343 7.99-2.592 12.095-3.598a549.728 549.728 0 0 1 72.192-12.286 154.476 154.476 0 0 0 17.397-9.942c.126-.766.22-1.536.311-2.35-.697-6.243-1.735-12.398-2.939-18.1a241.886 241.886 0 0 0-8.318-29.783s-309.2-72.478-333.09-49.893c-10.169 9.655-15.92 23.605-19.01 37.64a144.432 144.432 0 0 0-3.116 22.146c29.921 21.492 58.761 37.648 86.228 49.585 59.471 3.742 119.053 9.578 178.25 16.581Z" style="mix-blend-mode:soft-light" opacity=".3" fill="#000000" class="color000 svgShape"/><path d="M651.213 1392.207c193.24 137.926 340.699 54.404 360.417 42.037a241.96 241.96 0 0 0-8.318-29.783s-309.2-72.478-333.09-49.893c-10.169 9.654-15.92 23.606-19.01 37.639Z" style="mix-blend-mode:soft-light" opacity=".3" fill="#000000" class="color000 svgShape"/><path fill="#ff9312" d="M543.182 1244.688c81.212 87.01 106.427 177.433 106.427 177.433 222.817 98.519 357.61-4.67 357.61-4.67 121.018-135.04 122.87-401.982 122.87-401.982 94.61-113.342 44.343-283.513 44.343-283.513-23.33-27.74-67.225-47.902-106.739-61.408a618.615 618.615 0 0 0-81.187-21.551C847.42 832.317 727.279 625.69 727.279 625.69c-42.494-9.126-86.473-6.582-129.08 2.848-145.306 32.101-274.72 143.904-274.72 143.904-16.542 163.024 138.49 385.21 219.703 472.245Z" class="colorff9312 svgShape"/><path d="M543.182 1244.688c81.212 87.01 106.427 177.433 106.427 177.433 222.817 98.519 357.61-4.67 357.61-4.67.982-1.104 1.964-2.209 2.922-3.336-114.962 32.013-231.714 34.155-258.846-74.062-57.019-227.476 219.279-225.082 219.279-225.082-219.217-77.212-304.5 138.124-304.5 138.124-10.53-194.06 223.654-197.119 349.867-188.754 64.757 4.279 96.69-3.114 112.432-11.315 1.616-23.415 1.716-37.557 1.716-37.557a227.095 227.095 0 0 0 31.014-48.76c-64.625 60.326-178.79 44.331-211.988 38.454-42.14-7.47-139.998 9.824-278.03 17.629-138.03 7.83-126.465-178.5-126.465-178.5 329.705 44.237 505.407-87.625 571.232-154.159a426.165 426.165 0 0 0-48.159-19.585 618.615 618.615 0 0 0-81.187-21.551C847.42 832.317 727.279 625.69 727.279 625.69c-42.494-9.126-86.473-6.582-129.08 2.848-145.306 32.101-274.72 143.904-274.72 143.904-16.542 163.024 138.49 385.21 219.703 472.245Z" style="mix-blend-mode:soft-light" opacity=".3" fill="#000000" class="color000 svgShape"/><path fill="#ce6f09" d="M422.646 803.171a680.97 680.97 0 0 0 36.782 91.738c14.366 29.459 31.298 57.577 51.479 82.63a242.743 242.743 0 0 0 33.4 34.07 164.198 164.198 0 0 0 39.333 24.93l10.734 4.16 11.007 3.198c3.702.913 7.49 1.427 11.211 2.225 3.724.769 7.853.928 11.758 1.427 7.914.83 15.814 1.915 23.763 1.752l11.902.224c3.966.143 7.935-.412 11.902-.578 31.735-1.898 63.334-9.187 95.716-16.569 32.308-7.591 65.796-13.572 99.497-15.622 67.534-4.212 134.69 5.683 198.776 23.025l-1.536-.033c5.32-.788 10.898-1.899 16.29-3.221a165.103 165.103 0 0 0 16.058-4.82c10.474-3.856 20.79-8.68 29.363-16.233-7.544 8.564-17.349 15.108-27.675 20.195a170.101 170.101 0 0 1-15.951 6.739 147.313 147.313 0 0 1-16.708 5.103l-.512.119-1.027-.152-48.881-7.19-24.494-2.558-12.225-1.279c-4.075-.392-8.175-.436-12.258-.672-32.637-2.702-65.269-1.516-97.543 1.221-32.349 2.928-64.004 9.861-96.078 17.434-31.988 7.577-65.098 15.964-99.587 17.408-4.296.142-8.574.664-12.881.483l-12.91-.36c-8.634.056-17.146-1.16-25.677-2.15-4.29-.59-8.47-.793-12.847-1.711-4.36-.96-8.756-1.79-13.048-2.971-4.242-1.367-8.506-2.67-12.705-4.12l-12.257-5.188a184.597 184.597 0 0 1-43.41-29.324 256.81 256.81 0 0 1-34.154-38.43 329.065 329.065 0 0 1-26.712-43.114 440.122 440.122 0 0 1-20.832-45.78c-12.021-31.188-21.474-63.278-27.063-96.006ZM1014.897 1188.472c-13.258-32.913-38.717-58.715-69.555-68.862a145.465 145.465 0 0 0-48.245-6.59c-16.56.88-33.064 2.882-48.567 7.924-30.924 10.04-58.04 30.168-77.437 57.684a248.322 248.322 0 0 0-25.218 44.344c-7.076 15.799-12.663 32.38-18.155 49.327a245.911 245.911 0 0 1 7.362-53.097 203.207 203.207 0 0 1 20.788-50.493 151.765 151.765 0 0 1 35.905-42.811 154.25 154.25 0 0 1 49.684-27.13c18.132-5.771 36.947-7.721 55.54-7.78 18.706.49 37.771 3.873 55.107 11.833a107.523 107.523 0 0 1 56.376 59.527 94.369 94.369 0 0 1 6.415 26.124Z" class="colorce6f09 svgShape"/><path fill="#ffe812" d="M922.856 987.474c141.376-15.157 162.115-138.447 156.412-233.61a562.806 562.806 0 0 0-11.575-83.316 618.615 618.615 0 0 0-81.187-21.551C847.42 832.317 727.279 625.69 727.279 625.69c-41.875-8.991-85.169-6.646-127.187 2.444-.64.127-1.255.253-1.893.404-2.251 136.478 109.668 382.005 324.657 358.935Z" class="colorffe812 svgShape"/><path fill="#ffbb10" d="M600.092 628.135c17.571 139.185 127.697 338.184 322.215 317.303 121.213-12.995 153.744-105.477 156.961-191.573a562.806 562.806 0 0 0-11.575-83.317 618.615 618.615 0 0 0-81.187-21.551C847.42 832.317 727.279 625.69 727.279 625.69c-41.875-8.991-85.169-6.646-127.187 2.444Z" class="colorffbb10 svgShape"/><path fill="#ffe812" d="M924.67 1476.922c3.085-.755 6.2-1.43 9.309-2.124a67.522 67.522 0 0 0-129.332-5.54c36.097 3.164 72.156 6.97 108.072 11.215 3.93-1.325 7.894-2.558 11.95-3.551Z" class="colorffe812 svgShape"/><path fill="#ffbb10" d="M919.794 1478.265a52.953 52.953 0 0 0-100.092-7.665c31.05 2.87 62.05 6.236 92.95 9.895q3.541-1.195 7.142-2.23Z" class="colorffbb10 svgShape"/><path d="M901.34 1479.122a35.04 35.04 0 0 0-62.4-6.673q31.247 3.073 62.4 6.673Z" style="mix-blend-mode:soft-light" opacity=".3" fill="#000000" class="color000 svgShape"/><path d="M901.34 1479.122a35.04 35.04 0 0 0-62.4-6.673q31.247 3.073 62.4 6.673Z" style="mix-blend-mode:soft-light" opacity=".3" fill="#000000" class="color000 svgShape"/><ellipse cx="917.936" cy="974.834" fill="#ffe812" rx="119.903" ry="134.026" transform="rotate(-.748 917.933 974.831)" class="colorffe812 svgShape"/><ellipse cx="917.936" cy="974.834" fill="#ffbb10" rx="94.041" ry="105.118" transform="rotate(-.748 917.935 974.834)" class="colorffbb10 svgShape"/><ellipse cx="917.936" cy="974.834" rx="62.21" ry="69.538" transform="rotate(-.748 917.935 974.833)" style="mix-blend-mode:soft-light" opacity=".3" fill="#000000" class="color000 svgShape"/><ellipse cx="917.936" cy="974.834" rx="62.21" ry="69.538" transform="rotate(-.748 917.935 974.833)" style="mix-blend-mode:soft-light" opacity=".3" fill="#000000" class="color000 svgShape"/><path fill="#dd9666" d="M1089.96 613.237c29.39 21.192 53.773 16.97 71.808 1.189 34.822-30.313 45.826-103.533 22.87-119.563l-.042-.009a13.466 13.466 0 0 0-1.15-.733c-36.957-21.626-81.115 34.248-81.115 34.248s-99.374 22.129-12.372 84.868Z" class="colordd9666 svgShape"/><path d="M1089.96 613.237c29.39 21.192 53.773 16.97 71.808 1.189-39.263 21.295-59.903-23.424-42.322-17.353 19.89 6.84 71.907-35.115 62.371-55.687-6.642-14.373-34.213-5.737-50.28.773-.052.04-.103.08-.145.071-6.884 2.812-11.609 5.21-11.609 5.21 17.078-41.125 46.085-50.873 64.813-52.586a13.466 13.466 0 0 0-1.15-.733c-36.957-21.626-81.115 34.248-81.115 34.248s-99.374 22.129-12.372 84.868Z" style="mix-blend-mode:soft-light" opacity=".45" fill="#000000" class="color000 svgShape"/><path fill="#b77548" d="M1090.518 586.572c-.142-10.929 3.553-20.86 8.769-29.858a71.78 71.78 0 0 1 21.843-22.92 59.771 59.771 0 0 1 31.357-9.774 44.204 44.204 0 0 1 30.031 10.758c-10.54 3.346-18.927 5.082-26.524 8.745a153.241 153.241 0 0 0-21.14 11.399c-6.748 4.478-13.533 9.403-20.682 14.768-7.195 5.368-14.643 10.996-23.654 16.882Z" class="colorb77548 svgShape"/><ellipse cx="1129.115" cy="632.836" fill="#f9a832" rx="28.31" ry="24.437" transform="rotate(-78.534 1129.115 632.836)" class="colorf9a832 svgShape"/><ellipse cx="1129.115" cy="632.836" rx="28.31" ry="24.437" transform="rotate(-78.534 1129.115 632.836)" style="mix-blend-mode:soft-light" opacity=".45" fill="#000000" class="color000 svgShape"/><ellipse cx="1129.047" cy="633.175" rx="22.115" ry="19.089" transform="rotate(-78.534 1129.047 633.175)" style="mix-blend-mode:soft-light" opacity=".45" fill="#000000" class="color000 svgShape"/><path fill="#f9a832" d="M1123.171 618.811c-3.403 4.363-1.766 12.334 3.658 17.805s12.58 6.367 15.984 2.004 1.765-12.334-3.659-17.804-12.58-6.368-15.983-2.005Z" class="colorf9a832 svgShape"/><path fill="#332623" d="M589.293 272.345c-1.445 10.652-2.603 21.648-3.28 33.099a523.782 523.782 0 0 0-1.008 36.708c.268 32.531 3.637 67.766 10.504 105.499 4.498 24.733 13.419 45.643 25.731 63.234a157.03 157.03 0 0 0 41.908 40.262c147.234 97.968 472.236 3.368 472.236 3.368 1.813-4.353 30.021-57.72 54.256-121.12 17.006-44.694 32.17-94.41 34.591-135.267.937-15.548.055-29.89-3.253-42.15-.327-1.211-.653-2.422-1.063-3.578-17.696-54.88-29.44-129.584-61.714-163.028l-.069-.014c-19.523-20.485-46.581-25.688-87.165-1.943 0 0-50.79-100.151-110.02-86.055-59.174 14.179-89.032 32.3-194.221 45.157-1.252.176-2.572.337-3.838.581-42.117 6.265-84.936 32.56-118.044 77.993a260.235 260.235 0 0 0-22.458 37.007c-15.538 30.755-27.215 67.517-33.093 110.247Zm149.8 99.775a319.44 319.44 0 0 0 22.332-41.324c1.88-3.982 3.556-8.006 5.133-11.906 4.637-11.221 8.393-21.976 11.416-31.592 1.068-3.504 2.04-6.883 2.97-10.057 16.272-7.572 26.16-13.293 26.16-13.293s70.485 12.939-28.694 85.387a200.464 200.464 0 0 1-39.317 22.785Z" class="color332623 svgShape"/><path fill="#dd9666" d="M627.346 519.398c-35.325 8.065-56.136-5.324-66.597-26.886-20.257-41.485-1.86-113.206 25.528-119.024l.041.009a13.423 13.423 0 0 1 1.344-.228c42.463-5.516 61.36 63.149 61.36 63.149s82.896 59.1-21.676 82.98Z" class="colordd9666 svgShape"/><path d="M627.346 519.398c-35.325 8.065-56.136-5.324-66.597-26.886 27.863 34.911 64.296 1.77 45.74.51-20.984-1.45-52.542-60.358-35.743-75.588 11.718-10.65 33.744 8.047 46.005 20.304.032.056.064.113.105.122 5.245 5.272 8.662 9.321 8.662 9.321.296-44.53-22.62-64.81-39.2-73.684a13.423 13.423 0 0 1 1.344-.228c42.463-5.516 61.36 63.149 61.36 63.149s82.896 59.1-21.676 82.98Z" style="mix-blend-mode:soft-light" opacity=".45" fill="#000000" class="color000 svgShape"/><path fill="#b77548" d="M637.221 494.623c-6.004-8.932-10.671-17.017-15.206-24.764-4.493-7.728-8.822-14.907-13.292-21.66a153.251 153.251 0 0 0-15.028-18.736c-5.569-6.333-12.617-11.2-21.02-18.388a44.204 44.204 0 0 1 31.85 1.794 59.775 59.775 0 0 1 25.07 21.22 71.782 71.782 0 0 1 11.185 29.62c1.298 10.318.83 20.905-3.559 30.914Z" class="colorb77548 svgShape"/><path fill="#dd9666" d="M619.086 504.225a249.826 249.826 0 0 0-1.462 31.894c3.489 167.242 187.747 215.992 333.383 219.566 189.63 4.63 185.58-163.37 184.377-201.17-1.07-31.049 9.159-121.326 12.792-152.637.562-4.535 3.156-22.966 4.824-34.717.827-5.841 1.39-10.02 1.39-10.02-38.785-106.442-114.538-83.537-114.538-83.537-111.121-80.27-205.386-35.223-254.084-15.557-78.54 31.71-115.898 92.449-115.898 92.449-30.286 59.025-46.21 110.019-50.784 153.729Z" class="colordd9666 svgShape"/><ellipse cx="876.428" cy="424.896" rx="54.473" ry="47.021" transform="rotate(-78.534 876.428 424.896)" style="mix-blend-mode:soft-light" opacity=".45" fill="#000000" class="color000 svgShape"/><ellipse cx="873.685" cy="438.419" fill="#1b1723" rx="36.027" ry="31.098" transform="rotate(-78.533 873.685 438.419)" class="color1b1723 svgShape"/><path fill="#ffffff" d="M880.129 426.625c-1.242 6.12 2.034 11.949 7.317 13.02s10.57-3.02 11.812-9.14-2.035-11.95-7.317-13.02-10.571 3.02-11.813 9.14ZM870.756 439.65c-.628 3.098 1.03 6.05 3.705 6.592s5.353-1.53 5.982-4.628-1.03-6.05-3.705-6.593-5.353 1.53-5.982 4.628Z" class="colorfff svgShape"/><ellipse cx="1072.329" cy="467.643" rx="41.307" ry="35.656" transform="rotate(-78.533 1072.33 467.643)" style="mix-blend-mode:soft-light" opacity=".45" fill="#000000" class="color000 svgShape"/><ellipse cx="1070.249" cy="477.897" fill="#1b1723" rx="27.319" ry="23.582" transform="rotate(-78.534 1070.25 477.897)" class="color1b1723 svgShape"/><path fill="#ffffff" d="M1075.135 468.954c-.941 4.64 1.543 9.06 5.548 9.873s8.017-2.29 8.958-6.931-1.543-9.061-5.549-9.874-8.016 2.291-8.957 6.932ZM1068.028 478.83c-.477 2.35.781 4.588 2.81 5s4.059-1.16 4.535-3.51-.781-4.588-2.81-5-4.058 1.16-4.535 3.51Z" class="colorfff svgShape"/><path fill="#332623" d="M1048.756 447.603a22.23 22.23 0 0 1 1.62-1.908 35.82 35.82 0 0 1 2.59-2.94 76.57 76.57 0 0 1 7.34-6.926q1.946-1.695 4.07-3.367a146.111 146.111 0 0 1 13.102-8.791c27.867-16.512 59.86-23.75 59.86-23.75-7.04-25.639-42.76-11.562-42.76-11.562 8.027-5.105 25.962-5.378 27.086-5.398-19.607-3.122-35.138-1.48-46.903 1.88a74.58 74.58 0 0 0-19.969 8.784 57.78 57.78 0 0 0-8.023 6.125 20.024 20.024 0 0 0-2.092 2.13l.907 11.026-4.214-9.314a23.896 23.896 0 0 0-1.974 8.744c-.03.025 0 .057 0 .114-.458 10.278 4.528 20.148 5.305 21.668-9.922-15.06-9.173-26.263-9.173-26.263a17.882 17.882 0 0 0-1.168 3.64c-3.39 16.29 14.396 36.108 14.396 36.108Z" class="color332623 svgShape"/><path fill="#513836" d="M1064.376 432.462a146.111 146.111 0 0 1 13.102-8.791c-7.328-17.434-5.7-30.56-2.717-38.83a74.58 74.58 0 0 0-19.968 8.784 51.153 51.153 0 0 0 9.583 38.837ZM1052.967 442.754a76.57 76.57 0 0 1 7.34-6.925c-11.614-15.88-13.947-28.116-13.538-36.079a20.024 20.024 0 0 0-2.092 2.13l.907 11.026-4.214-9.314a23.896 23.896 0 0 0-1.974 8.744c-.03.025 0 .057 0 .114 1.69 14.19 8.99 24.879 13.57 30.304ZM1048.756 447.603a22.23 22.23 0 0 1 1.62-1.908c-11.49-14.561-15.065-26.566-16.016-34.2-3.39 16.29 14.396 36.108 14.396 36.108Z" class="color513836 svgShape"/><path fill="#332623" d="M921.484 403.268a27.16 27.16 0 0 0-1.466-2.654 43.6 43.6 0 0 0-2.37-4.11 91.798 91.798 0 0 0-7.016-9.926q-1.89-2.46-3.99-4.925a170.712 170.712 0 0 0-13.288-13.356c-28.73-25.736-64.222-40.967-64.222-40.967 13.64-29.913 51.985-5.583 51.985-5.583-8.201-7.84-28.909-11.754-30.206-12.004 23.37.102 41.001 5.209 53.904 11.664a85.154 85.154 0 0 1 21.24 14.718 68.168 68.168 0 0 1 7.978 9.085 24.195 24.195 0 0 1 1.966 3.018l-3.412 13.289 6.875-10.537a30.972 30.972 0 0 1 .412 11.077c.03.035-.012.069-.024.138-1.671 12.647-9.558 23.708-10.783 25.41 14.714-16.416 16.245-30.25 16.245-30.25a23.015 23.015 0 0 1 .573 4.68c.438 20.576-24.4 41.233-24.4 41.233Z" class="color332623 svgShape"/><path fill="#513836" d="M906.641 381.653a170.712 170.712 0 0 0-13.287-13.356c12.218-19.833 13.143-36.191 11.46-46.89a85.154 85.154 0 0 1 21.24 14.718 66.127 66.127 0 0 1-19.413 45.528ZM917.647 396.503a91.798 91.798 0 0 0-7.015-9.925c16.847-17.08 22.169-31.56 23.4-41.368a24.195 24.195 0 0 1 1.967 3.019l-3.412 13.288 6.875-10.537a30.972 30.972 0 0 1 .412 11.077c.03.035-.012.069-.024.138-4.996 16.997-15.736 28.596-22.203 34.308ZM921.484 403.268a27.16 27.16 0 0 0-1.466-2.654c16.42-15.493 23.13-29.444 25.867-38.579.438 20.576-24.4 41.233-24.4 41.233Z" class="color513836 svgShape"/><path d="M619.086 504.225a249.826 249.826 0 0 0-1.462 31.894c12.728 76.907 51.84 154.23 151.743 183.651 221.872 65.393 286.27 1.127 287.994-.67-96.846 33.792-191.309 15.632-290.068-25.074-98.76-40.707-55.132-408.49 116.703-427.214 174.103-18.979 239.067 62.085 269.004 100.349.827-5.841 1.39-10.02 1.39-10.02-38.785-106.442-114.538-83.537-114.538-83.537-111.121-80.27-205.386-35.223-254.084-15.557-78.54 31.71-115.898 92.449-115.898 92.449-30.286 59.025-46.21 110.019-50.784 153.729Z" style="mix-blend-mode:soft-light" opacity=".45" fill="#000000" class="color000 svgShape"/><path fill="#332623" d="M619.086 504.225c.668 2.353 1.363 4.568 2.154 6.66 10.63 29.412 29.279 37.987 41.908 40.263a40.1 40.1 0 0 0 13.074.434c-47.666-11.17-25.432-96.795-25.432-96.795a210.674 210.674 0 0 0 54.322-39.986 256.515 256.515 0 0 0 33.981-42.68 319.44 319.44 0 0 0 22.332-41.325c1.88-3.982 3.556-8.006 5.133-11.906 4.637-11.221 8.393-21.976 11.416-31.592 1.068-3.504 2.04-6.883 2.97-10.057 2.07-7.378 3.668-13.85 4.824-19.194a261.035 261.035 0 0 0-72.263 44.143 253.208 253.208 0 0 0-32.76 33.486 144.753 144.753 0 0 0-10.875 14.82c-.539.892-.94 1.812-1.41 2.719-.94 1.812-1.797 3.57-2.654 5.327-2.378 4.668-4.604 9.296-6.748 13.868q-2.074 4.408-3.9 8.651a352.001 352.001 0 0 0-5.466 12.484 437.555 437.555 0 0 0-7.92 19.997c-12.533 33.225-19.793 63.371-22.686 90.683Z" class="color332623 svgShape"/><ellipse cx="583.648" cy="522.191" fill="#f9a832" rx="28.31" ry="24.437" transform="rotate(-78.534 583.648 522.191)" class="colorf9a832 svgShape"/><ellipse cx="583.648" cy="522.191" rx="28.31" ry="24.437" transform="rotate(-78.534 583.648 522.191)" style="mix-blend-mode:soft-light" opacity=".45" fill="#000000" class="color000 svgShape"/><ellipse cx="583.579" cy="522.529" rx="22.115" ry="19.089" transform="rotate(-78.533 583.58 522.528)" style="mix-blend-mode:soft-light" opacity=".45" fill="#000000" class="color000 svgShape"/><ellipse cx="581.683" cy="516.885" fill="#f9a832" rx="14.063" ry="9.857" transform="rotate(-29.58 581.684 516.885)" class="colorf9a832 svgShape"/><path fill="#b77548" d="M919.228 663.707c13.673 1.614 26.018 4.286 38.592 6.516l18.825 3.41c6.345 1.295 12.728 2.064 19.52 3.783-12.723 5.58-27.012 5.924-40.33 3.452a85.921 85.921 0 0 1-19.443-6.028c-6.166-2.84-12.145-6.27-17.164-11.133Z" class="colorb77548 svgShape"/><path fill="#d33c3c" d="m962.929 364.002 12.752 8.687 48.487 14.907 16.785-.267-20.121-5.966 20.506-6.678-21.155.464 18.154-12.609-20.425 6.85 14.364-17.368-18.113 12.695 9.424-20.794-14.323 17.454 3.7-22.553-9.3 20.832-2.27-22.409-3.639 22.572-8.101-20.533 2.415 22.379-13.317-16.93 8.244 20.505-17.385-12.019 13.399 16.881-20.081-6.1z" class="colord33c3c svgShape"/><path fill="#513836" d="M589.293 272.345c105.653 13.777 256.815-77.6 344.288-72.947 97.674 5.148 105.897 70.41 106.23 74.055.53-148.257-102.69-131.71-231.116-103.394-77.868 17.111-145.288 4.58-186.309-7.961-15.538 30.755-27.215 67.517-33.093 110.247Z" class="color513836 svgShape"/><path fill="#513836" d="M644.844 125.091c76.472 40.55 218.948-22.115 304.416-2.99 85.07 18.973 95.827 62.216 97.27 72.738-10.945-185.85-153.785-80.482-240.027-73.225-86.667 7.243-76.963-57.173-76.963-57.173s53.303 62.115 156.585 14.157c127.677-59.286 172.172 46.592 174.25 50.805-29.585-176.827-134.077-58.204-225.83-66.8-38.117-3.584-60.814-3.362-71.657-15.505-42.117 6.265-84.936 32.56-118.044 77.993ZM1039.812 273.453s31.37-48.504 92.427-12.012c49.622 29.738 26.025 131.61 57.4 171.954 17.007-44.694 32.17-94.41 34.592-135.267a84.789 84.789 0 0 1-26.056-24.6c-37.486-53.243-104.754-126.119-158.363-.075Z" class="color513836 svgShape"/><path fill="#513836" d="M1061.041 202.647c2.98-3.402 79.868-89.743 159.937 53.331-.326-1.211-.653-2.422-1.063-3.578-17.696-54.88-29.44-129.584-61.714-163.028l-.069-.014c-24.735-9.954-53.55-.848-85.793 44.546 3.181-1.93 84.848-50.818 108.844 38.246 0 0-70.627-81.355-120.142 30.497ZM680.745 335.676a417.29 417.29 0 0 0 55.228-19.056c-1.861 1.768-32.38 30.2-70.167 41.922-17.93 5.52-37.528 7.267-56.443.712 0 0 16.83 15.074 45.794 21.807 21.779 5.134 50.459 5.514 83.936-8.94a319.44 319.44 0 0 0 22.332-41.325c1.88-3.982 3.556-8.006 5.133-11.906 4.637-11.221 8.393-21.976 11.416-31.592 1.068-3.504 2.04-6.883 2.97-10.057a439.388 439.388 0 0 1-67.44 24.95c-39.778 10.959-86.377 16.744-127.491 3.253a523.782 523.782 0 0 0-1.008 36.708c20.16 3.946 51.614 5.104 95.74-6.476Z" class="color513836 svgShape"/><path fill="#b77548" d="M768.91 555.147a64.554 64.554 0 0 0 9.853 14.805 67.543 67.543 0 0 0 12.559 11.45 94.438 94.438 0 0 0 29.68 14.237c20.956 6.015 44.568 7.035 68.054 8.623 23.587 1.337 48.934 2.94 73.155 10.507a178.006 178.006 0 0 1 64.77 36.03c-23.63-7.012-46.297-13.553-69.151-16.705-22.78-3.442-45.868-3.271-70.267-4.683a327.03 327.03 0 0 1-36.89-4.222c-12.097-2.114-25.1-5.593-36.881-11.166-11.837-5.581-22.86-13.573-31.076-23.822-8.127-10.155-13.753-22.592-13.806-35.054Z" class="colorb77548 svgShape"/><path fill="#332623" d="M713.613 634.258c22.775 24.622 41.477 16.541 84.724 7.186 39.104-8.573 104.584-39.984 160.915-31.924 46.933 15.715 71.377 58.58 88.14 73.421 16.299 14.365 21.256 22.592 39.133 11.062 17.214-11.134 18.79-35.79 13.548-37.48-4.97-1.638-10.98 5.786-11.715 6.69.596-.498 4.022-3.325 7.883 1.119 4.168 4.878-13.292 27.396-25.103 18.465-12.356-9.243-4.27-63.614-4.27-63.614-17.035-8.15-35.465-28.275-46.573-41.674-6.002-7.273-9.692-12.383-9.692-12.383l-35.474-2.71-33.345-18.547s-6.97 2.06-17.91 4.7c-22.058 5.18-61.798 12.807-93.659 9.34a.681.681 0 0 1-.405-.017s-40.774 66.587-72.469 70.846c-33.551 4.591-42.857-36.354-28.101-39.589 13.242-2.757 16.737 3.244 17.243 4.27-.308-1.63-3.652-15.332-15.754-17.121-13.213-2.01-41.232 31.889-17.116 57.96Z" class="color332623 svgShape"/><path fill="#513836" d="M1020.295 577.509c-1.39 20.104-1.36 85.296 50.417 113.837-2.728-1.865-25.674-18.995-33.338-71.183 0 0 10.176 11.746 29.494-.98-17.035-8.15-35.465-28.275-46.573-41.674ZM749.121 639.769c109.725-6.891 161.592-72.056 174.754-91.2-22.06 5.18-61.8 12.807-93.66 9.34l.05.1c16.316 26.7 40.198 20.893 40.198 20.893-57.645 51.602-114.13 59.985-121.342 60.867Z" class="color513836 svgShape"/><path fill="#513836" d="M1009.017 585.278s-5.516 41.496 17.964 65.522c0 0-38.194-18.302-17.964-65.522ZM924.46 561.38s-24.552 41.746-72.365 53.742c0 0 59.432.609 72.365-53.743Z" class="color513836 svgShape"/><ellipse cx="972.222" cy="543.551" fill="#e8ae87" rx="29.376" ry="55.729" transform="rotate(-78.705 972.222 543.551)" class="colore8ae87 svgShape"/><path fill="#b77548" d="M917.791 531.681c1.329 6.364 5.013 9.856 8.923 12.773a65.793 65.793 0 0 0 13.097 7.008c9.234 3.893 19.141 6.45 29.111 8.536 10.015 1.873 20.137 3.325 30.153 3.281a66.442 66.442 0 0 0 14.776-1.423c4.731-1.182 9.476-2.973 13.176-8.326 2.06 6.29-1.61 14.017-6.597 18.819a46.738 46.738 0 0 1-17.633 10.393c-12.761 4.311-26.155 4.4-38.812 1.96-12.617-2.647-24.94-7.877-35.058-16.763a46.838 46.838 0 0 1-12.271-16.368c-2.76-6.342-3.176-14.878 1.135-19.89Z" class="colorb77548 svgShape"/><path fill="#d39363" d="M812.412 1404.201s-1.643.057-4.76.114c-3.966.056-10.312.226-18.642.397-3.173.056-6.686.17-10.426.227-1.246 0-2.55.056-3.853.056-2.663.057-5.383.113-8.216.17-2.153.056-4.42.113-6.686.17-1.36 0-2.777.057-4.137.057q-4.76.085-9.69.169c-4.136.113-8.499.227-12.919.284-3.23.056-6.516.17-9.86.227-2.323 0-4.646.056-7.026.113-6.233.17-12.692.284-19.322.396-3.683.057-7.366.114-11.163.227-11.332.226-23.119.453-35.245.68-5.836.114-11.73.227-17.736.34-6.459.113-13.032.283-19.605.397-42.328.793-87.206 1.586-129.873 2.266-82.503 1.36-157.129 2.266-190.22 1.87-93.666-.963-97.462-22.948-97.462-22.948a1989.228 1989.228 0 0 1 25.385-225.409c10.823-64.257 23.742-122.847 36.832-173.901a1990.37 1990.37 0 0 1 28.048-99.501c9.52-30.712 18.133-55.928 24.989-74.853a520.38 520.38 0 0 1 2.833-7.764c1.756-4.93 3.4-9.292 4.873-13.089.737-1.926 1.417-3.683 2.04-5.383.623-1.587 1.247-3.116 1.757-4.477.17-.509.396-1.02.566-1.472 1.36-3.287 2.267-5.61 2.777-6.914a9.765 9.765 0 0 0 .453-1.02c13.94 54.964 54.737 172.485 81.993 249.15 15.072 42.442 26.008 72.36 26.008 72.36-.963 10.767 2.947 73.55 4.023 89.7.057 1.02.114 1.87.114 2.493.056.849.113 1.303.113 1.303 55.077 7.876 57.174 10.313 107.038 22.156 148.232 35.3 260.54 79.498 260.54 79.498l3.57 62.104Z" class="colord39363 svgShape"/><path fill="#ffbb10" d="M438.148 1186.84c-21.589-5.723-75.872-19.04-132.196-24.026-29.182-2.55-58.93-2.89-84.996 1.19 10.823-64.257 23.742-122.847 36.832-173.901a308.521 308.521 0 0 1 54.793 11.163 244.658 244.658 0 0 1 21.873 7.706q37.993 8.16 73.663 15.809c15.072 42.441 26.008 72.36 26.008 72.36-.963 10.766 2.947 73.549 4.023 89.699ZM483.27 1410.472c151.123-2.425 329.123-6.259 329.123-6.259l-6.457-111.932s-112.307-44.183-260.497-79.504c-31.777 30.492-78.86 94.597-62.169 197.695Z" class="colorffbb10 svgShape"/><path d="M812.412 1404.201s-1.643.057-4.76.114c-3.966.056-10.312.226-18.642.397-3.173.056-6.686.17-10.426.227-1.246 0-2.55.056-3.853.056-2.663.057-5.383.113-8.216.17-2.153.056-4.42.113-6.686.17-1.36 0-2.777.057-4.137.057q-4.76.085-9.69.169c-4.136.113-8.499.227-12.919.284-3.23.056-6.516.17-9.86.227-2.323 0-4.646.056-7.026.113-6.233.17-12.692.284-19.322.396-3.683.057-7.366.114-11.163.227-11.332.226-23.119.453-35.245.68-5.836.114-11.73.227-17.736.34-6.459.113-13.032.283-19.605.397-42.328.793-87.206 1.586-129.873 2.266-82.503 1.36-157.129 2.266-190.22 1.87-93.666-.963-97.462-22.948-97.462-22.948 62.443-78.423 95.365-155.769 110.38-226.599a487.13 487.13 0 0 0 6.63-161.548 505.697 505.697 0 0 0-26.745-110.664c9.52-30.712 18.133-55.928 24.989-74.853a520.38 520.38 0 0 1 2.833-7.764c1.756-4.93 3.4-9.292 4.873-13.089.737-1.926 1.417-3.683 2.04-5.383.623-1.587 1.247-3.116 1.757-4.477.17-.509.396-1.02.566-1.472 1.304-3.287 2.21-5.61 2.777-6.914a9.765 9.765 0 0 0 .453-1.02c13.94 54.964 54.737 172.485 81.993 249.15 15.072 42.442 26.008 72.36 26.008 72.36-.963 10.767 2.947 73.55 4.023 89.7.057 1.02.114 1.87.114 2.493-28.672-3.627-51.79-7.14-51.79-7.14s-108.172 10.086-76.214 103.411c11.22 32.639 82.503 50.6 170.615 60.177 104.941 11.39 233.738 10.88 312.84 9.01 5.497-.114 10.823-.284 15.81-.397Z" style="mix-blend-mode:soft-light" opacity=".25" fill="#000000" class="color000 svgShape"/><path fill="#d39363" d="M805.936 1292.281s129.223-17.62 158.588-17.876 216.721 121.09 208.534 129.42-364.32 2.255-364.32 2.255-32.517-51.158-2.802-113.799Z" class="colord39363 svgShape"/><path d="M808.754 1406.072s356.118 6.101 364.333-2.258c8.151-8.294-179.226-129.68-208.592-129.424 0 0-22.6 35.111-24.87 89.232 0 0-121.06 59.92-129.647-71.833-2.608.284-4.042.492-4.042.492-29.736 62.649 2.818 113.791 2.818 113.791ZM617.535 1359.825a455.13 455.13 0 0 1-47.82-22.206 750.485 750.485 0 0 0 47.82 22.206Z" style="mix-blend-mode:soft-light" opacity=".25" fill="#000000" class="color000 svgShape"/><path fill="#898989" d="m1141.757 685.127 35.432-28.69 943.796 13.626c26.094.377 45.607 22.64 40.994 46.772l-93.297 488.074c-3.582 18.74-20.807 32.462-41.071 32.72l-921.944 11.727Z" class="color898989 svgShape"/><path d="m2159.712 695.229-1054.056 554.133 36.105-564.251 35.412-28.65L2121 670.042c17.892.266 32.696 10.81 38.713 25.188Z" style="mix-blend-mode:soft-light" opacity=".25" fill="#000000" class="color000 svgShape"/><path fill="#515151" d="m1143.246 665.778 33.943-9.34-71.522 592.918h-12.348c-15.189 0-27.056-12.321-25.543-26.52l57.143-536.315c1.041-9.775 8.291-17.98 18.327-20.743Z" class="color515151 svgShape"/><path fill="#898989" d="M1319.44 1353.988h485.498v61.131H1319.44z" class="color898989 svgShape"/><path fill="#515151" d="M1692.861 1353.983H1456.74c63.289-42.385 57.078-123.293 45.389-173.872a316.88 316.88 0 0 0-11.37-38.352l219.501.557c52.147 100.771-17.398 211.667-17.398 211.667Z" class="color515151 svgShape"/><path d="M1456.735 1353.988h236.122c-111.388-3.992-167.405-111.156-190.726-173.892 11.683 50.589 17.918 131.503-45.396 173.892ZM1319.44 1353.988v61.131h485.498v-30.587h-367.137v-18.657h367.137v-11.887H1319.44z" style="mix-blend-mode:soft-light" opacity=".3" fill="#000000" class="color000 svgShape"/><path fill="#3f2816" d="M2302 1478.502a71.089 71.089 0 0 1-70.984 70.984H70.984a71.004 71.004 0 0 1-59.375-109.91 71.95 71.95 0 0 1 9.159-11.29 70.75 70.75 0 0 1 50.216-20.821h2160.032a71.14 71.14 0 0 1 70.984 71.037Z" class="color3f2816 svgShape"/><path fill="#633f27" d="M2290.338 1439.575a71.545 71.545 0 0 1-9.16 11.236 70.534 70.534 0 0 1-50.162 20.822H70.984a70.956 70.956 0 0 1-59.375-32.058 71.95 71.95 0 0 1 9.159-11.289 70.75 70.75 0 0 1 50.216-20.821h2160.032a70.769 70.769 0 0 1 59.322 32.11Z" class="color633f27 svgShape"/></g></svg>