<svg xmlns="http://www.w3.org/2000/svg" viewBox="0 0 1675.477 1807.443"><g data-name="Layer 1" fill="#000000" class="color000 svgShape"><ellipse cx="837.739" cy="1671.412" opacity=".15" rx="837.739" ry="136.031" fill="#000000" class="color000 svgShape"/><path fill="#e5a488" d="M1052.586 869.716h-86.08a813.319 813.319 0 0 1-15.945-32.027c-.888-1.913-1.741-3.79-2.595-5.635-4.746-10.413-8.536-19.325-11.37-26.36-4.44-10.926-6.659-17.38-6.863-18.028l-.035-.034-53.573-64.363h-.034v-.034l-9.97-11.95-6.249-7.512-2.39-2.869s-4.268-8.502-9.321-21.135c-.171-.479-.376-.956-.58-1.468v-.035a306.14 306.14 0 0 1-7-19.531 197.51 197.51 0 0 1-7.683-31.686c-1.57-10.824-1.776-21.306.443-30.081.103-.41.205-.854.342-1.264.137-.546.307-1.093.478-1.605a31.989 31.989 0 0 1 1.195-3.175c.205-.444.41-.922.649-1.366a15.18 15.18 0 0 1 .956-1.776 9.575 9.575 0 0 1 .58-.99.119.119 0 0 1 .035-.068 32.654 32.654 0 0 1 1.74-2.493 21.56 21.56 0 0 1 2.016-2.288 2.02 2.02 0 0 0 .273-.273h.034a11.161 11.161 0 0 1 1.126-1.058 26.741 26.741 0 0 1 3.688-2.663c.478-.308.956-.58 1.468-.854.479-.24.99-.512 1.537-.751a25.628 25.628 0 0 1 3.312-1.298 15.15 15.15 0 0 1 1.776-.512 27.068 27.068 0 0 1 3.824-.82l2.048-.307 2.152-.205.003.03a57.035 57.035 0 0 1 7.133-.166s.478.444 1.366 1.297v.034c2.595 2.527 8.81 8.708 17.55 18.2.82.888 1.673 1.81 2.493 2.766a811.667 811.667 0 0 1 109.23 153.31c9.799 17.926 19.325 36.979 28.066 57.022q6.863 15.621 13.044 31.994 5.992 15.671 11.13 32.027Z" class="colore5a488 svgShape"/><path d="M1013.968 869.716H966.54a814 814 0 0 1-15.945-32.027c-.888-1.913-1.741-3.79-2.595-5.635-4.746-10.413-8.536-19.325-11.37-26.36h-.034c-4.644-11.506-6.863-18.028-6.863-18.028v-.034l-53.608-64.363h-.034v-.034l-9.97-11.95-6.249-7.512-2.39-2.869s-4.268-8.502-9.321-21.135c-.171-.479-.376-.956-.58-1.435v-.068a306.14 306.14 0 0 1-7-19.531 197.51 197.51 0 0 1-7.683-31.686c-1.57-10.824-1.776-21.306.443-30.081.103-.41.205-.854.342-1.264.137-.546.307-1.093.478-1.605a31.989 31.989 0 0 1 1.195-3.175c.205-.444.41-.922.649-1.366a15.18 15.18 0 0 1 .956-1.776 9.575 9.575 0 0 1 .58-.99l.035-.034v-.034a32.654 32.654 0 0 1 1.74-2.493 26.23 26.23 0 0 1 2.016-2.288 2.02 2.02 0 0 0 .273-.273h.034a11.161 11.161 0 0 1 1.126-1.058 26.741 26.741 0 0 1 3.688-2.663c.478-.308.956-.58 1.468-.854.479-.24.99-.512 1.537-.751a29.155 29.155 0 0 1 3.312-1.264c.58-.204 1.16-.375 1.776-.546 1.229-.307 2.492-.614 3.824-.82l2.048-.307 2.152-.205a228.325 228.325 0 0 0 4.507 26.702 273.81 273.81 0 0 0 11.302 37.525q1.843 4.916 3.995 10.038a315.096 315.096 0 0 0 41.247 70.236c19.906 25.746 38.925 55.213 55.929 85.26v.034c.512.888 1.024 1.776 1.536 2.698 6.01 10.653 11.746 21.374 17.21 31.994a914.445 914.445 0 0 1 15.672 32.027Z" style="mix-blend-mode:soft-light" opacity=".44" fill="#000000" class="color000 svgShape"/><path fill="#756354" d="M1052.586 869.716h-86.08a813.319 813.319 0 0 1-15.945-32.027c-.888-1.913-1.741-3.79-2.595-5.635H948a64.649 64.649 0 0 0 3.073-1.604c1.024-.58 1.98-1.162 2.937-1.742s1.878-1.195 2.8-1.844c.239-.136.477-.306.717-.477a69.528 69.528 0 0 0 4.336-3.312 2.346 2.346 0 0 0 .444-.376c.819-.683 1.673-1.4 2.492-2.151.581-.513 1.127-1.059 1.707-1.639q1.537-1.434 2.971-2.97c.308-.342.615-.65.888-.991a54.25 54.25 0 0 0 2.22-2.561 83.992 83.992 0 0 0 4.336-5.565c.273-.376.546-.751.785-1.127.41-.58.785-1.127 1.161-1.708a10.219 10.219 0 0 0 .683-.99v-.034c11.507-17.619 17.585-38.31 20.794-54.29 9.8 17.926 19.326 36.979 28.067 57.022q6.863 15.621 13.043 31.994 5.993 15.671 11.132 32.027Z" class="color756354 svgShape"/><path d="M1013.968 869.716H966.54a814 814 0 0 1-15.945-32.027c-.888-1.913-1.741-3.79-2.595-5.635a64.649 64.649 0 0 0 3.073-1.604c.99-.546 1.98-1.127 2.937-1.742a39.588 39.588 0 0 0 2.8-1.844c.239-.136.477-.306.717-.477a69.528 69.528 0 0 0 4.336-3.312 2.346 2.346 0 0 0 .444-.376 48.8 48.8 0 0 0 2.492-2.151 76.805 76.805 0 0 0 1.707-1.639c1.059-.956 2.015-1.946 2.971-2.97.308-.342.615-.65.888-.991.785-.82 1.502-1.673 2.22-2.561a83.992 83.992 0 0 0 4.336-5.565 10.676 10.676 0 0 0 .75-1.127h.035c.41-.546.785-1.127 1.161-1.708a10.219 10.219 0 0 0 .683-.99c.512.888 1.024 1.776 1.536 2.698 6.01 10.653 11.746 21.374 17.21 31.994a914.445 914.445 0 0 1 15.672 32.027Z" style="mix-blend-mode:soft-light" opacity=".44" fill="#000000" class="color000 svgShape"/><path fill="#f9a832" d="M871.977 733.018a1227.217 1227.217 0 0 0 24.042 24.114c2.12 2.08 4.242 4.145 6.41 6.238a141.116 141.116 0 0 1 3.137-2.762 217.906 217.906 0 0 1 3.96-3.399 168.086 168.086 0 0 1 5.589-4.55q1.58-1.296 3.114-2.487a274 274 0 0 1 31.516-20.995 250.028 250.028 0 0 1 28.92-14.224c.299-.135.584-.236.858-.361.806-.343 1.598-.651 2.339-.942q1.522-.624 2.845-1.09c.43-.182.872-.337 1.287-.484 1.237-.465 2.328-.85 3.265-1.18 2.64-.903 4.082-1.324 4.082-1.324q-1.381-2.095-2.8-4.076c-.82-1.243-1.69-2.466-2.536-3.635a.416.416 0 0 0-.103-.165 151.767 151.767 0 0 0-2.432-3.349l-.016.005a278.397 278.397 0 0 0-29.01-33.587q-.813-.813-1.595-1.556a226.012 226.012 0 0 0-10.566-9.63 133.883 133.883 0 0 0-5.747-4.698c-.604-.461-1.132-.874-1.533-1.18-.276-.202-.519-.39-.719-.543-.233-.166-.391-.284-.499-.345a.266.266 0 0 0-.084-.07c-1.247.825-2.494 1.65-3.7 2.509a141.464 141.464 0 0 0-30.203 29.58 214.272 214.272 0 0 0-29.821 54.186Z" class="colorf9a832 svgShape"/><path d="M871.977 733.018a1227.217 1227.217 0 0 0 24.042 24.114c2.12 2.08 4.242 4.145 6.41 6.238a113.345 113.345 0 0 1 3.137-2.762 217.906 217.906 0 0 1 3.96-3.399 287.696 287.696 0 0 1 5.589-4.55c1.038-.829 2.11-1.64 3.158-2.444a276.035 276.035 0 0 1 31.517-20.996 251.871 251.871 0 0 1 28.875-14.266c.299-.135.584-.236.858-.361.806-.343 1.598-.651 2.339-.942q1.522-.624 2.845-1.09c.457-.191.872-.337 1.287-.484 1.237-.465 2.328-.85 3.265-1.18 2.64-.903 4.082-1.324 4.082-1.324q-1.381-2.095-2.8-4.076c-.82-1.243-1.69-2.466-2.536-3.635a.416.416 0 0 0-.103-.165 151.767 151.767 0 0 0-2.432-3.349c-2.054.533-4.047 1.13-6.026 1.75a172.57 172.57 0 0 0-40.217 18.846 167.415 167.415 0 0 0-27.131 20.916l-12.661-12.718a149.319 149.319 0 0 1 20.886-27.817 257.688 257.688 0 0 1 31.883-28.605 504.751 504.751 0 0 1 5.85-4.314c-.556-.567-1.1-1.111-1.61-1.64q-.813-.813-1.595-1.556c-1.051-1.01-2.08-1.973-3.062-2.896a167.872 167.872 0 0 0-5.822 3.76 161.863 161.863 0 0 0-32.164 28.155c-14.642 16.75-20.055 30.482-20.055 30.482l-4.5-6.406a148.178 148.178 0 0 1 19.583-29.598 210.227 210.227 0 0 1 30.678-29.484 258.992 258.992 0 0 1 4.776-3.644 133.883 133.883 0 0 0-5.747-4.697c-.58-.47-1.1-.86-1.533-1.18-.276-.202-.519-.39-.719-.543-.233-.166-.391-.284-.499-.345a.266.266 0 0 0-.084-.07c-1.247.825-2.494 1.65-3.7 2.509a141.464 141.464 0 0 0-30.203 29.58 214.272 214.272 0 0 0-29.821 54.186Z" style="mix-blend-mode:soft-light" opacity=".45" fill="#000000" class="color000 svgShape"/><path fill="#f9a832" d="m915.598 748.665 2.677 1.536c39.745-30.58 75.062-40.638 75.062-40.638-.925-1.378-1.85-2.756-2.782-4.06-14.774 5.906-52.067 22.102-74.957 43.162Z" class="colorf9a832 svgShape"/><path fill="#e5a488" d="M836.883 862.486c.364-2.233.754-4.545 1.17-6.908-.39 2.39-.78 4.675-1.17 6.908ZM878.322 655.745v.045a748.496 748.496 0 0 1-1.996 11.203c-.318 1.86-.68 3.81-1.043 5.76q-.477 2.857-1.088 5.85c-.545 2.949-1.089 5.942-1.725 8.981-.362 1.814-.68 3.583-1.043 5.397-1.632 8.255-3.31 16.736-5.079 25.218q-2.518 12.178-5.125 24.445c-2.177 10.16-4.354 20.365-6.486 30.343-.318 1.633-.68 3.22-.998 4.853-.363 1.588-.68 3.22-1.043 4.808-.59 2.812-1.179 5.624-1.77 8.39-.135.59-.27 1.18-.361 1.77-.998 4.535-1.906 8.98-2.813 13.333-.408 1.815-.77 3.584-1.134 5.308v.18a293.701 293.701 0 0 0-1.27 6.078c-.045.273-.09.545-.135.771a6.734 6.734 0 0 0-.182.817c-.272 1.27-.544 2.585-.771 3.854-.272 1.27-.498 2.495-.77 3.765-.273 1.407-.545 2.812-.862 4.218-.182 1.044-.409 2.132-.59 3.13a4.573 4.573 0 0 0-.137.771c-.362 1.86-.725 3.673-1.088 5.488-.408 2.313-.862 4.626-1.27 6.894h-72.93c-.908.408-1.86.816-2.813 1.224l-.952-1.224H655.901c1.27 2.495 2.54 5.034 3.81 7.574-1.27-2.54-2.54-5.08-3.855-7.574H503.418c2.132-3.13 4.4-6.214 6.849-9.253 0 0-5.216-33.562-11.384-75.651-7.076-48.123-15.421-107.447-18.823-140.555l1.043-35.241v-.046l.046-.045a.044.044 0 0 0 .045-.045.198.198 0 0 1 .136-.046c0-.045.045-.09.09-.136.681-.59 2.359-1.95 4.944-3.946a9.694 9.694 0 0 1 .998-.817h.046a5.026 5.026 0 0 1 .498-.452c.272-.182.59-.454.862-.681.137-.045.181-.136.272-.227a6.45 6.45 0 0 0 .68-.499q1.089-.884 2.314-1.769c.589-.453 1.18-.907 1.814-1.405.68-.545 1.406-1.089 2.132-1.634 1.27-.952 2.63-1.995 4.082-3.038.317-.227.634-.5.997-.771.408-.317.862-.635 1.361-.998.363-.272.771-.59 1.18-.862.407-.317.816-.59 1.179-.907a9.362 9.362 0 0 0 .816-.59c.634-.498 1.315-.952 1.995-1.45.409-.273.817-.59 1.225-.863 1.225-.906 2.495-1.814 3.856-2.812.589-.408 1.179-.816 1.813-1.27a.159.159 0 0 1 .091-.045h.046c7.71-5.488 16.509-11.43 26.17-17.597 1.406-.908 2.856-1.86 4.353-2.767h.046a2.095 2.095 0 0 1 .68-.408 3.22 3.22 0 0 1 .635-.454c.68-.408 1.361-.816 2.086-1.27 1.225-.77 2.495-1.587 3.81-2.358.998-.59 1.996-1.225 2.994-1.814.045-.091.181-.136.272-.182 1.723-1.043 3.492-2.086 5.26-3.13.046-.044.092-.044.182-.09a356.48 356.48 0 0 1 5.579-3.22c4.49-2.63 9.116-5.171 13.833-7.666h.046c5.124-2.766 10.386-5.487 15.783-8.072a68.444 68.444 0 0 1 3.175-1.542c.816-.409 1.633-.817 2.495-1.18 3.628-1.769 7.347-3.447 11.066-5.08 4.218-1.86 8.482-3.673 12.745-5.351 0 0 12.745-57.284 9.57-97.06-3.22-39.776 112.98-22.27 112.98-22.27l-4.809 65.765s-1.043 53.02 6.395 59.415c2.495 2.132 16.328 9.162 34.198 18.37v.045c2.177 1.134 4.399 2.268 6.712 3.492 2.087 1.088 4.218 2.177 6.396 3.311 33.335 17.461 73.702 39.686 84.224 53.247 5.624 7.347 3.039 35.512-3.175 72.25Z" class="colore5a488 svgShape"/><path d="M584.104 847.397H567.17c-.883-2.415-1.817-4.96-2.779-7.584a341.27 341.27 0 0 0 16.077 6.311c1.194.416 2.39.857 3.636 1.273ZM854.778 772.963c-.337 1.636-.701 3.246-1.039 4.857-.364 1.61-.7 3.22-1.039 4.83-.597 2.805-1.194 5.61-1.792 8.389-.104.571-.234 1.169-.363 1.766a2.792 2.792 0 0 1-.104.442c-.234 1.22-.493 2.44-.753 3.636-.468 2.181-.91 4.363-1.377 6.518-.182.935-.39 1.844-.571 2.753q-.468 2.299-.935 4.52c-.078.337-.156.649-.208.96-.416 2.104-.857 4.156-1.273 6.207-.13.572-.233 1.17-.363 1.74-.494 2.468-.987 4.935-1.48 7.324-.157.832-.312 1.663-.494 2.494-.13.571-.233 1.143-.337 1.714-.208 1.065-.416 2.13-.624 3.168-.416 2.104-.805 4.182-1.195 6.208v.025c-.441 2.338-.883 4.65-1.298 6.883H766.63a197.876 197.876 0 0 0 45.112-27.893 230.68 230.68 0 0 0 30.75-30.595 275.781 275.781 0 0 0 12.259-15.92.025.025 0 0 0 .026-.026ZM481.085 586.67l11.116 19.09c1.668 16.15 8.4 42.568 17.45 72.803 155.109 40.446 261.513-87.82 298.79-142.437-28.481-15.16-54.926-28.03-58.49-31.112-7.438-6.364-6.364-59.396-6.364-59.396l4.78-65.76S632.206 362.35 635.4 402.118c3.169 39.795-9.56 97.07-9.56 97.07-76.366 30.207-144.756 87.481-144.756 87.481Z" style="mix-blend-mode:soft-light" opacity=".3" fill="#000000" class="color000 svgShape"/><path fill="#00759e" d="M580.494 847.397h-90.2a5769.45 5769.45 0 0 0 8.598-84.875 6712.432 6712.432 0 0 0 6.752-76.927v-.026c.208-2.545.416-5.038.624-7.506.129-1.766.285-3.532.415-5.272.467-5.973.935-11.739 1.35-17.323.338-4.181.65-8.259.936-12.206q.623-8.298 1.168-15.895c.364-4.96.702-9.687 1.013-14.154.13-1.636.234-3.273.338-4.831q.155-2.338.311-4.597l.156-2.233c.026-.182.026-.364.052-.52 0-.312.026-.623.052-.935l.078-1.428c.026-.468.052-.935.104-1.403.052-.675.104-1.376.13-2.051.182-2.728.363-5.273.519-7.688.079-1.195.156-2.363.208-3.506.156-2.182.286-4.233.416-6.13.025-.649.077-1.272.104-1.87.051-.83.103-1.636.155-2.389 0-.208.026-.39.026-.571.026-.597.078-1.195.104-1.766.052-.883.104-1.714.156-2.467v-.026c.104-1.844.208-3.377.26-4.545.025-.286.051-.546.051-.78.052-1.038.104-1.714.104-2.051a1.176 1.176 0 0 0 .026-.208 1.344 1.344 0 0 0 .078.13h.026a103.942 103.942 0 0 1 6.83 10.518 282.526 282.526 0 0 1 18.129 38.204 279.427 279.427 0 0 1 2.26 5.844q2.531 6.74 5.142 14.44c.364 1.065.727 2.103 1.065 3.194l.025.026.624 1.948c.26.831.546 1.636.805 2.467 1.091 3.455 2.208 7.013 3.298 10.727q2.766 9.271 5.455 19.66c.519 1.974 1.012 4 1.531 6.025 1.04 4.104 2.026 8.311 3.014 12.648q.74 3.273 1.48 6.623c.493 2.312.987 4.649 1.48 7.038 0 .026.026.026.026.052.26 1.273.52 2.572.805 3.87a838.989 838.989 0 0 1 2.234 11.505 898.423 898.423 0 0 1 6.155 37.581c3.402 24.024 5.09 55.943 5.506 92.406.026.416.026.857.026 1.273Z" class="color00759e svgShape"/><path d="M580.494 847.397h-25.998c-.467-2.338-.753-3.506-.753-3.506.052 1.168.078 2.337.13 3.506h-12.622c-3.012-82.33-14.025-112.768-14.025-112.768 1.74 37.762 2 75.603 1.117 112.768h-15.115c2.311-59.682.493-115.52-7.584-161.802v-.026c.208-2.545.416-5.038.624-7.506.129-1.766.285-3.532.415-5.272.467-5.973.935-11.739 1.35-17.323.312-4.181.624-8.259.936-12.206q.623-8.298 1.168-15.895c.364-4.96.702-9.687 1.013-14.154.13-1.636.234-3.273.338-4.831q.155-2.338.311-4.597l.156-2.233c0-.156.026-.338.026-.52.026-.312.052-.65.052-.96.052-.468.078-.936.104-1.403s.052-.935.104-1.403c.052-.675.104-1.376.13-2.051.182-2.728.363-5.273.519-7.688.079-1.195.156-2.363.208-3.506.156-2.182.286-4.233.416-6.13.025-.649.077-1.272.104-1.87.051-.83.103-1.636.155-2.389 0-.208.026-.39.026-.571.026-.597.078-1.195.104-1.766.052-.883.104-1.714.156-2.467v-.026c.104-1.844.208-3.377.26-4.545.025-.286.051-.546.051-.78.052-1.038.104-1.714.104-2.051a1.176 1.176 0 0 0 .026-.208 1.344 1.344 0 0 0 .078.13h.026a103.942 103.942 0 0 1 6.83 10.518 282.526 282.526 0 0 1 18.129 38.204c.727 1.896 1.48 3.818 2.26 5.844q2.531 6.74 5.142 14.44c.337 1.039.701 2.103 1.038 3.168a.026.026 0 0 1 .027.026c.207.65.415 1.299.65 1.974.259.831.545 1.636.804 2.467 1.091 3.455 2.208 7.013 3.298 10.727a614.4 614.4 0 0 1 5.455 19.66c.519 1.974 1.012 4 1.531 6.025a708.504 708.504 0 0 1 3.014 12.648q.74 3.273 1.48 6.623c.493 2.312.987 4.649 1.48 7.038 0 .026.026.026.026.052.26 1.273.52 2.572.805 3.87a838.989 838.989 0 0 1 2.234 11.505 898.423 898.423 0 0 1 6.155 37.581c3.402 24.024 5.09 55.943 5.506 92.406.026.416.026.857.026 1.273Z" style="mix-blend-mode:soft-light" opacity=".3" fill="#000000" class="color000 svgShape"/><path fill="#df7100" d="M836.883 862.486c.364-2.233.754-4.545 1.17-6.908-.39 2.39-.78 4.675-1.17 6.908Z" class="colordf7100 svgShape"/><path fill="#0086c2" d="M878.322 655.79a748.496 748.496 0 0 1-1.996 11.203c-.318 1.86-.68 3.81-1.043 5.76q-.477 2.857-1.088 5.85l-.273 1.497c-.453 2.45-.907 4.944-1.451 7.484-.363 1.814-.68 3.583-1.043 5.397-1.633 8.255-3.311 16.736-5.08 25.218q-2.518 12.178-5.125 24.445c-2.177 10.16-4.354 20.365-6.486 30.343-.318 1.633-.68 3.22-.997 4.853-.364 1.588-.681 3.22-1.044 4.808-.59 2.812-1.179 5.624-1.77 8.39-.135.59-.27 1.18-.361 1.77-.998 4.535-1.906 8.98-2.813 13.333-.408 1.815-.77 3.584-1.134 5.308v.18a293.701 293.701 0 0 0-1.27 6.078c-.045.273-.09.545-.135.771a6.734 6.734 0 0 0-.182.817c-.272 1.27-.544 2.585-.771 3.854-.272 1.27-.498 2.495-.77 3.765-.273 1.407-.545 2.812-.862 4.218-.182 1.044-.409 2.132-.59 3.13a4.573 4.573 0 0 0-.137.771c-.362 1.86-.725 3.673-1.088 5.488-.408 2.313-.862 4.626-1.27 6.894h-72.93c-.908.408-1.86.816-2.813 1.224l-.952-1.224H655.901l-2.72-5.307c-2.178-4.263-4.446-8.527-6.713-12.744-2.313-4.264-4.581-8.437-6.894-12.655-2.359-4.172-4.717-8.345-7.076-12.472-5.942-10.341-12.02-20.455-18.142-30.388-2.45-3.946-4.899-7.891-7.348-11.747a1379.459 1379.459 0 0 0-32.882-49.482 1232.804 1232.804 0 0 0-7.12-10.114c-.409-.59-.817-1.18-1.225-1.724 0-.045-.045-.045-.045-.09-1.905-2.676-3.81-5.352-5.67-7.938-19.865-27.53-37.6-50.162-49.935-65.401-4.581-5.67-8.482-10.341-11.385-13.88-1.179-1.405-2.177-2.63-3.038-3.627-.227-.272-.409-.5-.636-.726-.816-.952-1.405-1.678-1.904-2.223-.227-.272-.409-.453-.545-.635-.09-.09-.136-.18-.181-.226a1.005 1.005 0 0 1-.226-.272l-11.113-19.095.046-.045a.044.044 0 0 0 .045-.045.198.198 0 0 1 .136-.046c0-.045.045-.09.045-.136h.045c.681-.59 2.359-1.95 4.944-3.946a9.694 9.694 0 0 1 .998-.817h.046a5.026 5.026 0 0 1 .498-.452c.272-.182.59-.454.862-.681.318-.227.635-.453.953-.726q1.088-.884 2.313-1.769c.589-.453 1.18-.907 1.814-1.405.68-.545 1.406-1.089 2.132-1.634 1.27-.952 2.63-1.995 4.082-3.038.317-.227.634-.5.997-.771.408-.317.862-.635 1.361-.998.363-.272.771-.59 1.18-.862.407-.317.816-.59 1.224-.907a8.625 8.625 0 0 1 .771-.59c.634-.498 1.315-.952 1.995-1.45.409-.273.817-.59 1.225-.863.409-.317.816-.635 1.27-.952a5.497 5.497 0 0 0 .635-.453c.635-.454 1.315-.908 1.95-1.407.59-.408 1.18-.816 1.814-1.27a.159.159 0 0 1 .091-.045h.046c7.71-5.488 16.509-11.43 26.17-17.597 1.406-.908 2.856-1.86 4.353-2.767h.046a2.095 2.095 0 0 1 .68-.408 3.22 3.22 0 0 1 .635-.454c.68-.408 1.361-.861 2.086-1.27 1.225-.77 2.495-1.587 3.81-2.358.998-.59 1.996-1.225 2.994-1.814.045-.091.181-.136.272-.182 1.723-1.043 3.492-2.086 5.26-3.13.046-.044.092-.044.182-.09.953-.545 1.905-1.134 2.858-1.678.907-.499 1.814-1.044 2.72-1.542 4.491-2.63 9.117-5.171 13.834-7.666h.046l4.898-2.585a304.362 304.362 0 0 1 10.885-5.487 68.444 68.444 0 0 1 3.175-1.542 388.833 388.833 0 0 1 26.306-11.611l.453.454q.137.135.408.407.068 0 .137.136a4.221 4.221 0 0 1 .453.454c1.814 1.769 5.307 5.08 10.16 9.615.68.635 1.45 1.36 2.222 2.041 8.073 7.438 19.457 17.553 33.381 29.027a587.573 587.573 0 0 0 7.303 5.942 899.096 899.096 0 0 0 16.236 12.79c1.406 1.089 2.858 2.222 4.31 3.31a763.03 763.03 0 0 0 18.187 13.38c3.13 2.269 6.35 4.49 9.57 6.759 5.578 3.809 11.247 7.664 17.053 11.429 1.996 1.27 4.036 2.585 6.032 3.855.726.5 1.451.953 2.177 1.406 2.45 1.497 4.853 2.993 7.302 4.49 2.858 1.769 5.76 3.493 8.663 5.216a841.914 841.914 0 0 0 10.84 6.214c2.086 1.134 4.128 2.267 6.214 3.401s4.172 2.223 6.258 3.357c2.404 1.27 4.853 2.494 7.303 3.719 1.768.907 3.583 1.768 5.397 2.675 4.263 2.041 8.481 4.037 12.836 5.987 2.131.953 4.308 1.905 6.44 2.812 2.177.908 4.353 1.815 6.485 2.721 1.951.772 3.901 1.543 5.806 2.268 1.95.771 3.855 1.497 5.805 2.177 1.95.726 3.901 1.406 5.806 2.087 1.315.453 2.585.862 3.855 1.27 1.27.408 2.54.816 3.81 1.27 1.542.453 2.993.907 4.49 1.36a257.44 257.44 0 0 0 17.099 4.581Z" class="color0086c2 svgShape"/><path fill="#bfa382" d="M698.58 847.415H655.9l-2.72-5.307c-2.177-4.263-4.445-8.527-6.712-12.744-2.313-4.264-4.581-8.437-6.894-12.655-2.359-4.172-4.717-8.345-7.076-12.472-5.942-10.341-12.02-20.455-18.142-30.388-2.45-3.946-4.899-7.891-7.348-11.747a1379.459 1379.459 0 0 0-32.882-49.482 1232.804 1232.804 0 0 0-7.12-10.114c-.409-.59-.817-1.18-1.225-1.724 0-.045-.045-.045-.045-.09-1.905-2.676-3.81-5.352-5.67-7.938-19.865-27.53-37.6-50.162-49.935-65.401-4.581-5.67-8.482-10.341-11.385-13.88-1.179-1.405-2.177-2.63-3.038-3.627-.227-.272-.409-.5-.636-.726-.816-.952-1.405-1.678-1.904-2.223-.227-.272-.409-.453-.545-.635-.09-.09-.136-.18-.181-.226a1.005 1.005 0 0 1-.226-.272l-11.113-19.095.046-.045a.044.044 0 0 0 .045-.045.198.198 0 0 1 .136-.046c0-.045.045-.09.045-.136h.045c.681-.59 2.359-1.95 4.944-3.946a9.694 9.694 0 0 1 .998-.817h.046a5.026 5.026 0 0 1 .498-.452c.272-.182.59-.454.862-.681.318-.227.635-.453.953-.726q1.088-.884 2.313-1.769c.589-.453 1.18-.907 1.814-1.405.68-.545 1.406-1.089 2.132-1.634 1.27-.952 2.63-1.995 4.082-3.038.317-.227.634-.5.997-.771.408-.317.862-.635 1.361-.998.363-.272.771-.59 1.18-.862.407-.317.816-.59 1.224-.907a8.625 8.625 0 0 1 .771-.59c.634-.498 1.315-.952 1.995-1.45.409-.273.817-.59 1.225-.863.409-.317.816-.635 1.27-.952a5.497 5.497 0 0 0 .635-.453c25.988 31.794 136.7 168.584 163.64 232.217 8.98 21.18 17.417 37.69 24.22 51.115ZM878.322 655.79a748.496 748.496 0 0 1-1.996 11.203c-.318 1.86-.68 3.81-1.043 5.76q-.477 2.857-1.088 5.85l-.273 1.497c-117.106-.68-254.26-128.49-288.457-162.28a304.362 304.362 0 0 1 10.885-5.487 68.444 68.444 0 0 1 3.175-1.542 388.833 388.833 0 0 1 26.306-11.611l.453.454q.137.135.408.407.069 0 .137.136a4.221 4.221 0 0 1 .453.454c1.814 1.769 5.307 5.08 10.16 9.615.68.635 1.45 1.36 2.222 2.041 8.073 7.438 19.457 17.553 33.381 29.027a587.573 587.573 0 0 0 7.303 5.942 899.096 899.096 0 0 0 16.237 12.79c1.405 1.089 2.857 2.222 4.309 3.31a763.03 763.03 0 0 0 18.187 13.38c3.13 2.269 6.35 4.49 9.57 6.759 5.578 3.809 11.247 7.664 17.053 11.429 1.996 1.27 4.036 2.585 6.032 3.855.726.5 1.451.953 2.177 1.406 2.45 1.497 4.854 2.993 7.302 4.49 2.858 1.769 5.76 3.493 8.663 5.216a841.914 841.914 0 0 0 10.84 6.214c2.086 1.134 4.128 2.267 6.214 3.401s4.172 2.223 6.258 3.357c2.404 1.27 4.854 2.494 7.303 3.719 1.768.907 3.583 1.768 5.397 2.675 4.263 2.041 8.481 4.037 12.836 5.987 2.131.953 4.308 1.905 6.44 2.812 2.177.908 4.354 1.815 6.485 2.721 1.951.772 3.901 1.543 5.806 2.268 1.95.771 3.855 1.497 5.805 2.177 1.95.726 3.901 1.406 5.806 2.087 1.315.453 2.585.862 3.855 1.27 1.27.408 2.54.816 3.81 1.27 1.542.453 2.993.907 4.49 1.36a257.44 257.44 0 0 0 17.099 4.581Z" class="colorbfa382 svgShape"/><path d="M725.57 606.836c55.126 50.628 108.185 74.697 145.86 86.152 2.573-13.01 4.893-25.54 6.873-37.221-124.675-28.822-252.461-156.58-252.461-156.58a397.153 397.153 0 0 0-26.333 11.597c20.138 10.182 59.877 35.27 126.06 96.052ZM545.147 540.99c29.84 18.414 74.33 54.73 123.658 125.242 55.804 79.704 117.83 138.194 172.022 174.285 2.744-14.369 6.11-30.603 9.73-47.715-22.062-10.013-54.023-29.896-94.242-69.296-81.146-79.562-104.99-132.057-168.629-167.044 0 0 47.715 6.364 112.938 70.003 57.048 55.634 94.638 97.89 160.595 116.161 1.726-8.145 3.451-16.32 5.12-24.409-27.945-9.248-65.562-27.124-106.829-61.545-80.439-67.005-121.817-122.865-178.979-136.272-12.558 6.704-24.466 13.718-35.384 20.59ZM512.033 600.071c-1.272-.415-2.052-.597-2.234-.65.728.52 1.455 1.04 2.182 1.611h.026a255.991 255.991 0 0 1 35.996 32.49.026.026 0 0 1 .027.026l.025.026c51.138 54.956 90.875 136.117 132.61 213.823H655.89a420.784 420.784 0 0 1 3.818 7.61c-1.273-2.546-2.546-5.09-3.844-7.61-.883-1.766-1.792-3.532-2.676-5.272q-3.31-6.428-6.726-12.778a976.614 976.614 0 0 0-6.908-12.622q-3.506-6.311-7.065-12.493c-5.947-10.336-12.024-20.465-18.128-30.386-2.44-3.948-4.882-7.895-7.35-11.765a1376.193 1376.193 0 0 0-32.905-49.476q-3.584-5.142-7.09-10.103c-.416-.597-.832-1.168-1.247-1.74 0-.026-.026-.026-.026-.052q-2.883-4.051-5.688-7.947c-19.867-27.556-37.58-50.15-49.917-65.396a1285.831 1285.831 0 0 0-11.401-13.895c-1.169-1.402-2.182-2.623-3.039-3.636-.234-.26-.415-.493-.623-.7-.805-.962-1.429-1.715-1.896-2.26a5.09 5.09 0 0 1-.545-.624c-.078-.078-.13-.155-.182-.207a1.51 1.51 0 0 1-.234-.26l-.026-.026-11.09-19.037-.026-.052h.027c.025-.026.025-.052.052-.052a.025.025 0 0 0 .025-.026c.052-.052.13-.104.208-.182h.026c.675-.597 2.363-1.974 4.935-3.974.311-.26.65-.519 1.012-.805h.026c.156-.155.338-.285.52-.441.286-.208.571-.442.857-.675h.026a2.323 2.323 0 0 0 .26-.234c.207-.156.441-.338.675-.493a59.478 59.478 0 0 1 2.311-1.793c.572-.441 1.195-.909 1.818-1.402.676-.52 1.403-1.065 2.13-1.636 1.272-.935 2.65-1.974 4.077-3.039.312-.234.65-.493.987-.753.442-.312.884-.65 1.351-.987.39-.312.805-.597 1.22-.883.39-.312.78-.597 1.17-.909h.051c.26-.208.493-.39.753-.571.65-.494 1.325-.961 2-1.455 2.181.805 4.337 1.61 6.467 2.442v.026c2.493.96 4.96 1.973 7.376 3.038 59.11 25.634 97.263 72.928 195.123 212.083 17.14 24.413 32.542 45.398 46.307 63.448h-45.086c-18.31-26.725-36.931-55.942-55.345-87.29-49.657-84.615-92.952-125.104-120.612-144.193-14.985-10.337-25.374-14.414-29.763-15.817a.025.025 0 0 0-.026-.026Z" style="mix-blend-mode:soft-light" opacity=".3" fill="#000000" class="color000 svgShape"/><path fill="#b25734" d="M748.804 502.458c.89 4.766 7.083 8.439 13.836 8.192 6.76-.246 11.494-4.324 10.572-9.096-.92-4.76-7.121-8.404-13.847-8.151-6.72.253-11.447 4.302-10.56 9.055Z" class="colorb25734 svgShape"/><path d="M748.812 502.46c.889 4.762 7.075 8.444 13.824 8.198 6.756-.247 11.5-4.334 10.578-9.103-.92-4.757-7.133-8.409-13.856-8.156-6.716.253-11.432 4.31-10.546 9.06Zm7.079-4.565c1.352-2.513 5.444-3.604 9.133-2.453 3.694 1.152 5.595 4.106 4.244 6.612-1.331 2.508-5.423 1.481-9.12.323-3.692-1.156-5.594-1.981-4.258-4.482Z" style="mix-blend-mode:soft-light" opacity=".56" fill="#000000" class="color000 svgShape"/><path fill="#b25734" d="M745.443 489.09c.881 4.73 7.047 8.37 13.774 8.12 6.733-.252 11.452-4.305 10.537-9.042-.912-4.725-7.085-8.336-13.784-8.079-6.695.258-11.406 4.282-10.527 9Z" class="colorb25734 svgShape"/><path d="M745.45 489.09c.882 4.729 7.04 8.378 13.763 8.126 6.729-.251 11.458-4.313 10.544-9.047-.912-4.721-7.098-8.341-13.794-8.083-6.69.257-11.39 4.29-10.512 9.005Zm7.055-4.538c1.35-2.496 5.426-3.583 9.1-2.444 3.678 1.14 5.568 4.072 4.22 6.56-1.328 2.492-5.403 1.476-9.083.33-3.677-1.144-5.57-1.962-4.237-4.446Z" style="mix-blend-mode:soft-light" opacity=".56" fill="#000000" class="color000 svgShape"/><path fill="#b25734" d="M749.13 519.046c.893 4.808 7.114 8.52 13.897 8.28 6.79-.241 11.544-4.349 10.617-9.164-.924-4.802-7.153-8.485-13.909-8.238-6.75.247-11.496 4.326-10.605 9.122Z" class="colorb25734 svgShape"/><path d="M749.137 519.047c.893 4.805 7.107 8.527 13.886 8.286 6.785-.24 11.55-4.357 10.624-9.17-.924-4.798-7.166-8.49-13.918-8.243-6.746.247-11.482 4.334-10.592 9.127Zm7.11-4.596c1.358-2.533 5.467-3.628 9.173-2.463 3.71 1.167 5.62 4.149 4.263 6.675-1.337 2.528-5.447 1.487-9.16.315-3.708-1.171-5.618-2.006-4.277-4.527Z" style="mix-blend-mode:soft-light" opacity=".56" fill="#000000" class="color000 svgShape"/><path fill="#b25734" d="M746.627 536.286c.894 4.852 7.138 8.605 13.95 8.37 6.817-.233 11.594-4.371 10.667-9.23-.926-4.845-7.178-8.569-13.961-8.328-6.778.24-11.547 4.349-10.656 9.188Z" class="colorb25734 svgShape"/><path d="M746.635 536.287c.893 4.85 7.13 8.611 13.938 8.377 6.813-.234 11.6-4.381 10.673-9.236-.925-4.843-7.19-8.575-13.97-8.334-6.773.24-11.532 4.357-10.641 9.193Zm7.141-4.627c1.366-2.553 5.493-3.653 9.213-2.473 3.725 1.181 5.64 4.192 4.277 6.739-1.344 2.549-5.47 1.494-9.198.306-3.723-1.186-5.64-2.03-4.292-4.572Z" style="mix-blend-mode:soft-light" opacity=".56" fill="#000000" class="color000 svgShape"/><path fill="#b25734" d="M741.135 551.882c.89 4.89 7.149 8.679 13.983 8.45 6.84-.228 11.638-4.392 10.714-9.29-.922-4.883-7.189-8.642-13.994-8.407-6.8.235-11.59 4.37-10.703 9.247Z" class="colorb25734 svgShape"/><path d="M741.142 551.883c.89 4.887 7.141 8.685 13.972 8.457 6.836-.228 11.644-4.402 10.72-9.296-.92-4.88-7.2-8.648-14.003-8.413-6.796.235-11.576 4.377-10.689 9.252Zm7.172-4.655c1.373-2.572 5.515-3.675 9.246-2.482 3.735 1.195 5.652 4.231 4.28 6.796-1.351 2.567-5.49 1.499-9.228.298-3.733-1.2-5.655-2.053-4.298-4.612Z" style="mix-blend-mode:soft-light" opacity=".56" fill="#000000" class="color000 svgShape"/><path fill="#b25734" d="M733.295 567.031c.883 4.927 7.151 8.75 14.005 8.528 6.86-.223 11.68-4.412 10.763-9.346-.914-4.92-7.191-8.713-14.017-8.484-6.819.23-11.631 4.388-10.75 9.302Z" class="colorb25734 svgShape"/><path d="M733.303 567.032c.882 4.924 7.143 8.757 13.993 8.534 6.855-.222 11.686-4.421 10.77-9.351-.914-4.918-7.205-8.72-14.026-8.49-6.815.229-11.617 4.397-10.737 9.307Zm7.2-4.68c1.383-2.59 5.538-3.696 9.277-2.49 3.743 1.208 5.66 4.268 4.28 6.85-1.362 2.584-5.51 1.503-9.255.29-3.742-1.212-5.667-2.074-4.302-4.65Z" style="mix-blend-mode:soft-light" opacity=".56" fill="#000000" class="color000 svgShape"/><path fill="#b25734" d="M719.848 580.86c.867 4.959 7.133 8.812 13.999 8.595 6.871-.217 11.714-4.428 10.812-9.392-.899-4.952-7.173-8.775-14.01-8.55-6.83.223-11.665 4.403-10.8 9.348Z" class="colorb25734 svgShape"/><path d="M719.856 580.862c.867 4.955 7.125 8.817 13.986 8.6 6.868-.217 11.72-4.436 10.82-9.398-.899-4.949-7.186-8.78-14.019-8.556-6.827.224-11.65 4.412-10.787 9.354Zm7.229-4.702c1.393-2.604 5.56-3.713 9.3-2.496 3.745 1.219 5.654 4.3 4.263 6.896-1.373 2.599-5.523 1.508-9.271.283-3.743-1.224-5.67-2.092-4.292-4.683Z" style="mix-blend-mode:soft-light" opacity=".56" fill="#000000" class="color000 svgShape"/><path fill="#b25734" d="M698.386 586.988c.838 4.966 7.073 8.829 13.93 8.614 6.862-.214 11.72-4.43 10.848-9.402-.87-4.96-7.114-8.792-13.942-8.57-6.822.22-11.672 4.405-10.836 9.358Z" class="colorb25734 svgShape"/><path d="M698.394 586.99c.837 4.963 7.065 8.834 13.918 8.62 6.858-.215 11.727-4.44 10.855-9.41-.87-4.956-7.127-8.796-13.951-8.575-6.818.221-11.658 4.414-10.822 9.364Zm7.243-4.707c1.406-2.607 5.572-3.717 9.3-2.496 3.733 1.222 5.622 4.309 4.219 6.909-1.385 2.602-5.524 1.508-9.259.28-3.73-1.228-5.65-2.099-4.26-4.693Z" style="mix-blend-mode:soft-light" opacity=".56" fill="#000000" class="color000 svgShape"/><path fill="#b25734" d="M672.31 583.666c.8 4.948 6.981 8.795 13.808 8.58 6.832-.215 11.696-4.417 10.861-9.372-.833-4.942-7.022-8.758-13.82-8.536-6.793.222-11.649 4.393-10.85 9.328Z" class="colorb25734 svgShape"/><path d="M672.317 583.667c.8 4.946 6.974 8.802 13.797 8.587 6.828-.216 11.702-4.426 10.868-9.378-.833-4.94-7.036-8.764-13.83-8.542-6.788.222-11.634 4.4-10.835 9.333Zm7.242-4.691c1.417-2.598 5.57-3.705 9.274-2.49 3.707 1.218 5.567 4.293 4.153 6.884-1.396 2.593-5.508 1.503-9.218.28-3.706-1.221-5.61-2.089-4.21-4.674Z" style="mix-blend-mode:soft-light" opacity=".56" fill="#000000" class="color000 svgShape"/><path fill="#b25734" d="M652.966 572.215c.772 4.912 6.899 8.726 13.687 8.507 6.794-.22 11.652-4.394 10.846-9.313-.804-4.905-6.939-8.689-13.7-8.463-6.754.226-11.603 4.37-10.833 9.27Z" class="colorb25734 svgShape"/><path d="M652.974 572.217c.772 4.908 6.89 8.731 13.675 8.512 6.79-.22 11.658-4.403 10.852-9.318-.803-4.903-6.951-8.695-13.708-8.469-6.75.226-11.589 4.379-10.82 9.275Zm7.223-4.664c1.422-2.58 5.558-3.682 9.234-2.478 3.68 1.205 5.514 4.256 4.095 6.83-1.4 2.575-5.484 1.497-9.167.285-3.678-1.21-5.567-2.069-4.162-4.637Z" style="mix-blend-mode:soft-light" opacity=".56" fill="#000000" class="color000 svgShape"/><path fill="#b25734" d="M641.615 558.086c.754 4.871 6.837 8.648 13.59 8.424 6.76-.225 11.603-4.37 10.816-9.248-.785-4.865-6.877-8.612-13.602-8.381-6.72.23-11.555 4.347-10.803 9.205Z" class="colorb25734 svgShape"/><path d="M641.623 558.087c.753 4.869 6.829 8.654 13.578 8.43 6.755-.224 11.609-4.38 10.822-9.254-.784-4.862-6.889-8.617-13.61-8.386-6.716.23-11.541 4.355-10.79 9.21Zm7.2-4.633c1.42-2.56 5.538-3.658 9.191-2.467 3.657 1.191 5.473 4.216 4.053 6.77-1.4 2.556-5.459 1.49-9.118.293-3.656-1.196-5.532-2.047-4.127-4.596Z" style="mix-blend-mode:soft-light" opacity=".56" fill="#000000" class="color000 svgShape"/><path fill="#b25734" d="M633.427 541.485c.739 4.826 6.78 8.56 13.497 8.33 6.722-.23 11.548-4.344 10.775-9.176-.77-4.82-6.82-8.524-13.509-8.287-6.684.236-11.5 4.32-10.764 9.133Z" class="colorb25734 svgShape"/><path d="M633.434 541.486c.739 4.823 6.773 8.567 13.485 8.336 6.719-.23 11.555-4.353 10.783-9.181-.77-4.817-6.833-8.53-13.518-8.293-6.68.236-11.487 4.328-10.75 9.138Zm7.17-4.599c1.419-2.539 5.516-3.631 9.146-2.456 3.635 1.177 5.434 4.171 4.017 6.704-1.399 2.534-5.433 1.483-9.07.3-3.632-1.18-5.496-2.02-4.094-4.548Z" style="mix-blend-mode:soft-light" opacity=".56" fill="#000000" class="color000 svgShape"/><path fill="#b25734" d="M624.983 525.675c.725 4.782 6.725 8.477 13.406 8.24 6.687-.236 11.496-4.318 10.739-9.106-.756-4.776-6.765-8.442-13.42-8.2-6.647.243-11.448 4.296-10.725 9.066Z" class="colorb25734 svgShape"/><path d="M624.99 525.676c.725 4.78 6.718 8.482 13.395 8.247 6.683-.236 11.502-4.328 10.745-9.113-.755-4.773-6.777-8.447-13.427-8.204-6.645.242-11.435 4.303-10.713 9.07Zm7.141-4.567c1.418-2.518 5.496-3.605 9.104-2.445 3.612 1.162 5.395 4.129 3.98 6.64-1.397 2.514-5.407 1.476-9.021.309-3.611-1.166-5.463-1.998-4.063-4.504Z" style="mix-blend-mode:soft-light" opacity=".56" fill="#000000" class="color000 svgShape"/><path fill="#b25734" d="M614.022 509.804c.707 4.737 6.662 8.391 13.305 8.15 6.649-.242 11.442-4.293 10.703-9.037-.738-4.731-6.702-8.357-13.318-8.109-6.61.248-11.395 4.27-10.69 8.996Z" class="colorb25734 svgShape"/><path d="M614.03 509.805c.706 4.735 6.654 8.397 13.293 8.156 6.645-.242 11.448-4.301 10.71-9.042-.738-4.729-6.715-8.362-13.327-8.115-6.607.248-11.382 4.278-10.677 9Zm7.112-4.533c1.417-2.498 5.474-3.58 9.058-2.434 3.589 1.147 5.353 4.085 3.938 6.575-1.395 2.492-5.38 1.47-8.97.316-3.587-1.151-5.426-1.973-4.026-4.457Z" style="mix-blend-mode:soft-light" opacity=".56" fill="#000000" class="color000 svgShape"/><path fill="#b25734" d="M605.283 494.009c.692 4.694 6.607 8.309 13.214 8.062 6.613-.248 11.39-4.268 10.665-8.968-.722-4.689-6.645-8.275-13.226-8.022-6.576.254-11.344 4.246-10.653 8.928Z" class="colorb25734 svgShape"/><path d="M605.29 494.01c.692 4.692 6.6 8.315 13.203 8.068 6.61-.247 11.396-4.276 10.672-8.974-.722-4.686-6.658-8.28-13.235-8.026-6.572.253-11.33 4.252-10.64 8.932Zm7.085-4.501c1.415-2.477 5.452-3.554 9.014-2.422 3.567 1.133 5.314 4.042 3.902 6.511-1.394 2.472-5.354 1.463-8.922.324-3.565-1.137-5.392-1.949-3.994-4.413Z" style="mix-blend-mode:soft-light" opacity=".56" fill="#000000" class="color000 svgShape"/><path fill="#5e3925" d="M260.195 868.386h1162.732v760.575H260.195z" class="color5e3925 svgShape"/><path d="m1422.943 935.018-963.022 71.669 94.137 595.384 868.885 11.951v14.955H260.208V868.4h1162.735v66.618z" style="mix-blend-mode:soft-light" opacity=".3" fill="#000000" class="color000 svgShape"/><path fill="#5e3925" d="M1353.055 872.64a30.124 30.124 0 0 1-5.835 1.505 32.775 32.775 0 0 0 5.835-1.505Z" class="color5e3925 svgShape"/><path d="M1344.517 810.667c.274.017.53.051.804.085-.257-.034-.53-.051-.804-.068ZM617.406 725.883l18.709 10.634-14.475-6.4-4.497-1.97c.1-.754.164-1.509.263-2.264Z" style="mix-blend-mode:soft-light" opacity=".3" fill="#000000" class="color000 svgShape"/><path fill="#2b2b2d" d="m1269.746 595.477-6.592 16.355-74.906 185.999-5.146 12.74H822.285v-12.74h87.618l83.445-202.354h276.398z" class="color2b2b2d svgShape"/><path d="m1004.808 609.023-74.044 188.808h257.484l-5.146 12.74H822.285v-12.74h87.618l83.445-202.354h276.398l-6.592 16.355-258.346-2.809z" style="mix-blend-mode:soft-light" opacity=".3" fill="#000000" class="color000 svgShape"/><ellipse cx="1117.179" cy="715.734" fill="#ffffff" opacity=".12" rx="27.844" ry="17.041" transform="rotate(-81.957 1117.186 715.737)" class="colorfff svgShape"/><path fill="#e5a488" d="M815.281 813.028c-8.007 1.454-17.316.325-26.606-.65-14.27-1.54-28.522-2.755-38.02 6.193-15.398 14.493-35.246 7.649-35.981 7.392l-.018-.017c6.502-40.09 2.79-53.52 2.79-53.52s27.598-15.451 53.23-10.472c21.815 4.243 39.729 40.38 44.605 51.074Z" class="colore5a488 svgShape"/><path d="M815.277 813.026c-8.002 1.46-17.312.33-26.608-.647-14.268-1.543-28.522-2.755-38.012 6.197-15.397 14.489-35.243 7.644-35.986 7.382l-.014-.014c6.5-40.09 2.782-53.519 2.782-53.519a105.752 105.752 0 0 1 26.195-9.585c-2.163 12.299-4.752 30.891-1.722 35.96 4.655 7.74 24.79-10.068 41.84-4.656 10.302 3.278 17.477 4.008 22.752 2.025a188.471 188.471 0 0 1 8.773 16.857Z" style="mix-blend-mode:soft-light" opacity=".3" fill="#000000" class="color000 svgShape"/><path fill="#e5a488" d="M714.676 825.964s-150.408 16.867-240.038 7.205c-31.345-3.347-55.247-9.971-62.724-21.649-28.819-45.139 69.826-225.73 69.826-225.73-1.263 51.797 21.409 149.86 21.409 149.86l214.293 36.775c6.863 17.55-2.766 53.539-2.766 53.539Z" class="colore5a488 svgShape"/><path d="M719.559 797.452a183.733 183.733 0 0 1-4.883 28.512s-150.408 16.867-240.038 7.205c-31.345-3.347-55.247-9.971-62.724-21.649-28.819-45.139 69.826-225.73 69.826-225.73-1.263 51.797 21.409 149.86 21.409 149.86s-47.052-.955-50.91 23.048c-1.093 6.932 5.224 16.56 19.6 25.712 34.212 21.715 114.008 40.563 247.72 13.042Z" style="mix-blend-mode:soft-light" opacity=".3" fill="#000000" class="color000 svgShape"/><path fill="#5e3925" d="M655.889 847.397a420.784 420.784 0 0 1 3.818 7.61c-1.273-2.546-2.546-5.09-3.844-7.61ZM766.631 847.397c-.935.441-1.87.831-2.831 1.247l-.935-1.247ZM838.053 855.578c-.39 2.39-.78 4.675-1.17 6.908.364-2.233.754-4.545 1.17-6.908Z" class="color5e3925 svgShape"/><path fill="#f7c434" d="M668.796 831.358s38.534-6.694 44.82-6.655l-5.69-57.784-1.797.244s-27.896-9.55-56.883-6.78l-6.872 7.643 9.308 44.789Z" class="colorf7c434 svgShape"/><path d="M668.796 831.358s38.534-6.694 44.82-6.655l-5.69-57.784-1.797.244s-27.896-9.55-56.883-6.78l-6.872 7.643 9.308 44.789Z" style="mix-blend-mode:soft-light" opacity=".45" fill="#000000" class="color000 svgShape"/><path d="m707.937 766.91-1.826.248s-27.871-9.54-56.858-6.774l-6.87 7.645 9.287 44.783 17.13 18.552 3.841-.663c-4.206-7.064-13.244-23.691-16.544-41.089 0 0 16.298-7.254 41.097-4.046 0 0-.942 23.75 11.032 39.621a53.385 53.385 0 0 1 5.395-.49Z" style="mix-blend-mode:soft-light" opacity=".45" fill="#000000" class="color000 svgShape"/><path fill="#f7c434" d="M722.137 823.33s-11.91-16.905-3.448-53.744c0 0-1.828-8.183-12.56-2.423 0 0-7.984 27.603 6.21 57.211 0 0 4.976 4.596 9.798-1.044ZM660.616 833.234s-29.387-33.817-21.89-72.919c0 0 4.608-5.103 10.52.069 0 0-8.02 28.506 19.55 70.973 0 0-2.156 6.46-8.18 1.877Z" class="colorf7c434 svgShape"/><path d="M706.111 767.158s-.148.515-.384 1.502c6.053-.983 7.298 4.18 7.298 4.18-7.451 35.55 4.341 52.018 4.341 52.018a7.462 7.462 0 0 1-1.276 1.25c1.746.244 3.884-.242 6.047-2.778 0 0-11.911-16.894-3.448-53.744 0 0-1.824-8.188-12.577-2.428ZM649.165 760.464c-5.913-5.174-10.527-.074-10.527-.074-.103.583-.219 1.14-.304 1.7 1.769-.42 4.13-.17 6.73 2.102 0 0-7.25 27.283 20.035 68.56a6.503 6.503 0 0 1-1.22 2.13c3.485.56 4.844-3.49 4.844-3.49-27.564-42.446-19.558-70.928-19.558-70.928Z" style="mix-blend-mode:soft-light" opacity=".45" fill="#000000" class="color000 svgShape"/><path fill="#f9a832" d="M507.823 681.964a1485.456 1485.456 0 0 1-4.847 36.72 1618.21 1618.21 0 0 1-1.579 10.873c-1.4-.755-2.75-1.464-4.08-2.127-1.676-.874-3.322-1.7-4.917-2.477a144.135 144.135 0 0 0-6.502-3.04q-1.787-.844-3.457-1.57a162.453 162.453 0 0 0-29.09-9.602 102.62 102.62 0 0 0-20.794-2.597c-.198-.013-.38 0-.561-.015-.526-.018-1.036-.01-1.511-.003q-.978-.012-1.81.046c-.274-.007-.55.012-.81.03-.775.028-1.452.075-2.03.116-1.616.14-2.483.28-2.483.28q.507-2.357 1.04-4.582c.293-1.36.613-2.709.924-3.993a.624.624 0 0 1 .035-.174c.29-1.243.589-2.45.883-3.623l.009-.001a335.097 335.097 0 0 1 10.15-33.844q.276-.774.546-1.49c1.357-3.688 2.59-6.75 3.605-9.164a120.468 120.468 0 0 1 1.972-4.49c.21-.448.392-.843.53-1.14.098-.198.18-.378.25-.526.082-.165.137-.28.178-.347a.232.232 0 0 1 .028-.065c.732.039 1.47.077 2.199.149 7.528.685 14.983 3.299 22.158 6.909 18.183 9.118 35.328 25.231 39.964 29.747Z" class="colorf9a832 svgShape"/><path d="M507.823 681.964a1485.456 1485.456 0 0 1-4.847 36.72 1618.21 1618.21 0 0 1-1.579 10.873 115.998 115.998 0 0 0-4.08-2.127c-1.676-.874-3.322-1.7-4.917-2.477-2.245-1.079-4.397-2.103-6.502-3.04-1.163-.528-2.334-1.016-3.47-1.5a163.659 163.659 0 0 0-29.095-9.612 103.4 103.4 0 0 0-20.776-2.657c-.198-.013-.38 0-.561-.015-.526-.018-1.036-.01-1.511-.003q-.978-.012-1.81.046a8.51 8.51 0 0 0-.81.03c-.775.028-1.452.075-2.03.116-1.616.14-2.483.28-2.483.28q.507-2.357 1.04-4.582c.293-1.36.613-2.709.924-3.993a.624.624 0 0 1 .035-.174c.29-1.243.589-2.45.883-3.623a47.777 47.777 0 0 1 3.538-.695 71.101 71.101 0 0 1 27.43 1.31 106.1 106.1 0 0 1 25.217 9.384l3.417-17.936a107.713 107.713 0 0 0-22.715-14.996 113.509 113.509 0 0 0-23.646-8.57 179.749 179.749 0 0 0-3.627-.78c.189-.542.374-1.063.545-1.562q.276-.774.546-1.49c.359-.966.712-1.89 1.048-2.77 1.18.084 2.344.19 3.49.337a71.57 71.57 0 0 1 23.417 7.177 88.793 88.793 0 0 1 22.91 16.27l.304-7.353a103.306 103.306 0 0 0-21.947-14.598 92.289 92.289 0 0 0-22.686-7.714 94.205 94.205 0 0 0-2.931-.513 120.468 120.468 0 0 1 1.972-4.49c.197-.445.378-.826.53-1.14.097-.198.18-.378.25-.526.082-.165.137-.28.178-.347a.232.232 0 0 1 .028-.065c.732.039 1.47.077 2.199.149 7.528.685 14.983 3.299 22.158 6.909 18.183 9.118 35.328 25.231 39.964 29.747Z" style="mix-blend-mode:soft-light" opacity=".45" fill="#000000" class="color000 svgShape"/><path fill="#f9a832" d="m483.716 717.443-1.296 2.954c-36.62-15.677-59.067-11.81-59.067-11.81.343-1.555.683-3.096 1.032-4.56 9.248-.149 35.775.68 59.33 13.416Z" class="colorf9a832 svgShape"/><path fill="#5e3925" d="M1464.432 842.558a30.06 30.06 0 0 1-10.691 22.638c-.586.546-1.288 1.059-1.912 1.57-.43.342-.859.615-1.288.923a21.898 21.898 0 0 1-2.224 1.434 30.366 30.366 0 0 1-3.005 1.57 31.745 31.745 0 0 1-3.16 1.366c-.585.205-1.131.41-1.717.58-.273.069-.546.171-.78.24a6.078 6.078 0 0 1-.859.239c-.429.137-.897.238-1.326.375a1.2 1.2 0 0 1-.351.035 26.975 26.975 0 0 1-3.317.614 37.875 37.875 0 0 1-5.93.444H250.691a39.007 39.007 0 0 1-27.079-10.516 33.218 33.218 0 0 1-3.98-4.576 31.859 31.859 0 0 1-3.278-5.873 27.826 27.826 0 0 1-2.263-11.028 30.06 30.06 0 0 1 10.73-22.673 39.371 39.371 0 0 1 25.87-9.356h1177.18q1.462 0 2.808.103a2.17 2.17 0 0 1 .469.034c.195.034.39.034.624.068a3.897 3.897 0 0 1 .663.069c1.327.136 2.615.34 3.863.58.39.102.82.17 1.21.273.585.137 1.17.308 1.677.444a35.804 35.804 0 0 1 20.836 15.16c.274.41.469.82.703 1.195.312.546.585 1.059.858 1.64.195.444.43.955.624 1.434a14.103 14.103 0 0 1 .625 1.502 28.55 28.55 0 0 1 1.6 9.492Z" class="color5e3925 svgShape"/><path d="M1464.432 842.558a30.06 30.06 0 0 1-10.691 22.638c-.586.546-1.288 1.059-1.912 1.57-.43.342-.859.615-1.288.923a21.898 21.898 0 0 1-2.224 1.434 30.366 30.366 0 0 1-3.005 1.57 31.745 31.745 0 0 1-3.16 1.366c-.585.205-1.131.41-1.717.58-.273.069-.546.171-.78.24a6.078 6.078 0 0 1-.859.239c-.429.137-.897.238-1.326.375a1.2 1.2 0 0 1-.351.035 26.975 26.975 0 0 1-3.317.614 37.875 37.875 0 0 1-5.93.444H250.691a39.007 39.007 0 0 1-27.079-10.516 33.218 33.218 0 0 1-3.98-4.576 31.859 31.859 0 0 1-3.278-5.873 28.532 28.532 0 0 1-2.224-11.063v-.102q1.405.102 2.81.102h1177.18a39.187 39.187 0 0 0 25.83-9.355 29.907 29.907 0 0 0 10.73-22.536 2.17 2.17 0 0 1 .468.034 1.58 1.58 0 0 1 .43.068h.194a3.897 3.897 0 0 1 .663.069c1.327.136 2.615.34 3.863.58.39.102.82.17 1.21.273.585.137 1.17.308 1.677.444a35.804 35.804 0 0 1 20.836 15.16c.274.41.469.82.703 1.195.312.546.585 1.059.858 1.64.195.444.43.955.624 1.434a14.103 14.103 0 0 1 .625 1.502 28.55 28.55 0 0 1 1.6 9.492Z" style="mix-blend-mode:soft-light" opacity=".3" fill="#000000" class="color000 svgShape"/><path fill="#f9a832" d="M798.27 652.797c-.454 1.496-.907 2.993-1.406 4.445-.227.725-.453 1.496-.725 2.222-.09.227-.136.453-.227.635-.182.5-.363.997-.59 1.497a95.878 95.878 0 0 1-2.041 4.989c-.907 1.996-1.814 3.946-2.857 5.85a12.203 12.203 0 0 1-.816 1.497c-.68 1.225-1.36 2.404-2.133 3.583-.634 1.089-1.36 2.087-2.04 3.13a6.667 6.667 0 0 1-.408.59c-.817 1.133-1.679 2.222-2.54 3.31a33.36 33.36 0 0 1-2.313 2.721 5.49 5.49 0 0 1-.681.772c-.408.453-.816.862-1.224 1.314-.091.046-.136.137-.182.182-.453.454-.907.907-1.36 1.316a4.203 4.203 0 0 1-.636.635c-.316.271-.634.544-.952.862-.317.271-.635.543-.952.77a11.81 11.81 0 0 1-1.134.998 48.975 48.975 0 0 1-2.903 2.268 25.976 25.976 0 0 1-2.585 1.769c0 .045 0 .045-.045.09-.046-.045-.046 0-.046 0-.454.318-.907.59-1.36.862-1.089.68-2.223 1.315-3.357 1.95-.499.273-.997.545-1.496.771a25.712 25.712 0 0 1-2.54 1.18 2.12 2.12 0 0 1-.454.226c-1.224.59-2.495 1.089-3.81 1.588a15.96 15.96 0 0 1-1.36.453c-1.18.409-2.313.771-3.492 1.089-.273.09-.5.136-.771.227-.454.09-.908.227-1.406.317a37.192 37.192 0 0 1-4.99.907 1.326 1.326 0 0 1-.408.091 3.5 3.5 0 0 1-.68.09c-.454.046-.862.092-1.27.092a4.997 4.997 0 0 1-.816.09 5.491 5.491 0 0 1-.862.046c-.68.045-1.406.09-2.087.09a5.202 5.202 0 0 1-.862.045c-.68 0-1.36-.045-2.086-.09a47.679 47.679 0 0 1-8.39-1.043c-.59-.09-1.225-.227-1.814-.363-.091 0-.137-.045-.227-.09a.49.49 0 0 1-.227-.046 44.523 44.523 0 0 1-4.626-1.361 64.415 64.415 0 0 1-7.166-2.948l-2.177-1.088c-11.838-6.214-22.95-16.238-33.246-28.801-1.406-1.633-2.72-3.356-4.081-5.08a234.14 234.14 0 0 1-7.892-10.976c-2.404-3.537-4.717-7.21-6.985-10.93v-.045c-4.127-6.713-8.028-13.743-11.747-21-3.13-6.168-6.168-12.382-9.026-18.731-15.103-33.245-26.396-68.35-33.743-96.153 3.628-1.769 7.347-3.447 11.066-5.08 19.684 47.986 64.812 137.426 126.812 133.616 47.85-2.857 50.48-63.95 44.267-114.702 2.177 1.134 4.399 2.268 6.712 3.492 2.087 1.088 4.218 2.177 6.396 3.311 7.256 38.96 11.61 86.129.997 122.549Z" class="colorf9a832 svgShape"/><path d="m651.265 600.885 5.25 44.624c-4.09-6.728-7.992-13.776-11.705-21.025l-1.084-31.503ZM798.265 652.818c-6.982 24.05-20.468 43.287-43.824 51.975-34.651 12.904-65.663-10.921-90.91-48.332l-2.507-43.745 6.696 6.296 19.232 59.052s63.239 59.059 111.313-25.246Z" style="mix-blend-mode:soft-light" opacity=".45" fill="#000000" class="color000 svgShape"/><path d="M769.062 646.265c-48.213 30.751-115.157-41.454-135.249-88.215l1.95 47.714c-15.103-33.245-26.396-68.35-33.743-96.153 3.628-1.769 7.347-3.447 11.066-5.08 19.684 47.986 64.812 137.426 126.812 133.616 47.85-2.857 50.48-63.95 44.267-114.702 2.177 1.134 4.399 2.268 6.712 3.492 5.76 39.64 8.618 99.871-21.815 119.328Z" style="mix-blend-mode:soft-light" opacity=".45" fill="#000000" class="color000 svgShape"/><path fill="#f9a832" d="M782.23 728.424c.256 17.627-9.527 31.625-21.885 31.106-12.392-.521-22.492-15.427-22.529-33.133-.036-17.53 9.827-31.13 22-30.531 12.14.597 22.16 15.104 22.414 32.558Z" class="colorf9a832 svgShape"/><path d="M782.23 728.424c.256 17.627-9.527 31.625-21.885 31.106-12.392-.521-22.492-15.427-22.529-33.133-.036-17.53 9.827-31.13 22-30.531 12.14.597 22.16 15.104 22.414 32.558Z" style="mix-blend-mode:soft-light" opacity=".45" fill="#000000" class="color000 svgShape"/><path d="M774.096 728.053c.136 11.133-6.058 19.936-13.85 19.598-7.804-.339-14.18-9.715-14.23-20.88-.048-11.094 6.179-19.737 13.896-19.368 7.703.369 14.048 9.586 14.184 20.65Z" style="mix-blend-mode:soft-light" opacity=".45" fill="#000000" class="color000 svgShape"/><path fill="#212021" d="M587.482 312.366c-.715 39.996-21.885 146.521-106.596 176.86-84.694 30.375-136.69-54.497-196.196-9.205-59.497 45.268-51.06 97.739-51.06 97.739-17.004-25.28 15.002-77.26 15.002-77.26-14.757 14.221-26.764 49.586-26.764 49.586s5.06-60.681 54.43-88.57c20.793-11.747 49.459-17.67 88.898-10.793q10.84 1.853 22.822 5.086c69.136 18.734 102.819-7.568 120.66-55.797l.009-.024c18.135-49.017 19.947-120.702 26.062-190.838 1.33-15.385 2.874-30.662 4.84-45.641 19.81-150.438 181.385-181.72 240.8-154.827 20.529 9.281 34.201 19.794 43.29 29.58.035-.015.035-.015.05.018 17.22 18.458 18.069 34.318 18.069 34.318-288.323-77.504-253.61 199.796-254.316 239.768Z" class="color212021 svgShape"/><ellipse cx="316.163" cy="458.733" fill="#212021" rx="22.921" ry="35.245" transform="rotate(-69.553 316.163 458.733)" class="color212021 svgShape"/><ellipse cx="319.286" cy="459.174" fill="#212021" rx="32.349" ry="22.552" transform="rotate(-69.553 319.286 459.174)" class="color212021 svgShape"/><path fill="#353535" d="M333.48 462.23c-2.909 7.8-10.317-1.15-22.312-5.622s-24.032-2.772-21.124-10.572 14.99-10.5 26.984-6.027 19.36 14.42 16.452 22.22ZM336.749 439.852c-1.322 3.546-4.69-.523-10.143-2.556s-10.924-1.26-9.602-4.806 6.813-4.773 12.266-2.74 8.8 6.556 7.479 10.102ZM823.68 38.262C782.818 20.53 700.882 1.738 609.81 64.189c1.14-1.4 39.107-46.642 119.374-50.917-2.344-.257-78.013-7.79-131.96 54.95-40.971 47.657-53.711 110.274-62.475 140.928 1.33-15.385 2.874-30.662 4.84-45.641 19.81-150.438 181.385-181.72 240.8-154.827 20.529 9.281 34.201 19.794 43.29 29.58ZM471.599 473.952c-52.187 14.072-94.877-10.122-94.877-10.122s50.622 17.668 88.648 4.629c0 0-37.257 4.656-69.11-4.05a115.373 115.373 0 0 1-31.064-13.686q10.84 1.853 22.822 5.086c69.136 18.734 102.819-7.568 120.66-55.797 2.454 18.929 3.578 62.949-37.08 73.94ZM268.068 476.966c-9.026 10.44-35.264 21.588-46.2 73.12 0 0 5.06-60.681 54.43-88.57a39.818 39.818 0 0 1-8.23 15.45Z" class="color353535 svgShape"/><path fill="#e5a488" d="M861.86 466.32c13.488 9.928 29.461 6.942 43.93-3.103 28.374-19.618 50.977-66.202 37.842-95.262-5.17-11.384-12.036-16.674-19.421-18.25-21.048-4.485-46.1 21.25-46.1 21.25s-56.163 65.973-16.251 95.365Z" class="colore5a488 svgShape"/><path d="M861.86 466.32c13.488 9.928 29.461 6.942 43.93-3.103-14.415.474-21.385-6.008-12.216-16.533 12.017-13.777 43.642-39.328 41.89-57.133-1.725-17.828-28.145-.756-28.145-.756.092-21.294 8.808-32.9 16.892-39.09-21.048-4.485-46.1 21.25-46.1 21.25s-56.163 65.973-16.251 95.365Z" style="mix-blend-mode:soft-light" opacity=".45" fill="#000000" class="color000 svgShape"/><path fill="#bc7b64" d="M873.298 428.733c.29-7.48 2.616-14.494 5.73-21.136a60.487 60.487 0 0 1 13.074-18.027 45.384 45.384 0 0 1 20.117-11.322 31.063 31.063 0 0 1 22.296 3.255c-7.428 1.338-13.513 3.048-19.018 5.935a75.794 75.794 0 0 0-14.89 11.163 172.728 172.728 0 0 0-13.428 14.299c-4.458 5.087-8.84 10.397-13.881 15.833Z" class="colorbc7b64 svgShape"/><ellipse cx="887.975" cy="470.038" fill="#ff9d00" rx="18.076" ry="19.693" transform="rotate(-8.394 887.975 470.038)" class="colorff9d00 svgShape"/><path d="M869.936 467.932c-.827 10.788 6.57 20.502 16.532 21.667s18.733-6.659 19.56-17.447c.826-10.789-6.6-20.506-16.563-21.67s-18.702 6.66-19.529 17.45Zm12.417-8.332a9.867 9.867 0 0 1 14.484-3.114 12.09 12.09 0 0 1 3.201 15.767c-3.082 5.216-8.594 1.9-13.474-1.61s-7.293-5.827-4.21-11.043Z" style="mix-blend-mode:soft-light" opacity=".56" fill="#000000" class="color000 svgShape"/><path fill="#ff9d00" d="M890.773 493.51a7.377 7.377 0 0 1-8.245 5.874c-3.665-.678-5.917-4.406-5.028-8.328a7.377 7.377 0 0 1 8.245-5.874c3.665.678 5.917 4.406 5.028 8.328Z" class="colorff9d00 svgShape"/><path d="M885.749 485.18a7.388 7.388 0 0 0-8.25 5.877c-.889 3.92 1.368 7.656 5.03 8.333s7.353-1.96 8.24-5.88c.888-3.92-1.357-7.654-5.02-8.33Zm-1.178 7.473c-2.116.71-4.435 1.284-4.958-.904a4.49 4.49 0 0 1 2.862-5.246 3.665 3.665 0 0 1 4.8 2.691c.522 2.189-.588 2.747-2.704 3.459Z" style="mix-blend-mode:soft-light" opacity=".56" fill="#000000" class="color000 svgShape"/><path fill="#ff9d00" d="M848.141 508.24h52.985v52.985h-52.985z" transform="rotate(-32.946 874.63 534.736)" class="colorff9d00 svgShape"/><path d="m845.262 528.464 23.094 35.633 35.659-23.089-23.12-35.638Zm9.977 2.128 23.528-15.245 15.245 23.528-23.528 15.245Z" style="mix-blend-mode:soft-light" opacity=".56" fill="#000000" class="color000 svgShape"/><path fill="#e5a488" d="M772.316 46.89S924.308 57.078 950.89 195.173c0 0-1.005 95.403-41.633 240.251 0 0-33.488 93.162-121.734 130.766 0 0-188.767-22.847-234.965-185.045 0 0-56.035-346.873 219.758-334.255Z" class="colore5a488 svgShape"/><path d="M552.557 381.143c46.194 162.205 234.98 185.048 234.98 185.048-237.472-48.336-163.316-288.1-136.049-301.258 27.262-13.131 85.154 1.44 118.623 12.658 33.442 11.213 58.959 11.781 104.578 9.825 29.387-1.233 50.87 15.097 62.451 26.902 1.026-5.8 1.963-11.43 2.864-16.88-9.076-9.991-28.536-24.094-65.303-22.567-56.254 2.325-87.203-18.953-123.058-25.608-35.88-6.66-146.078 14.054-79.98-97.911 45.673-77.361 150.07-73.873 210.23-64.345-50.838-36.19-109.57-40.125-109.57-40.125-275.787-12.614-219.766 334.26-219.766 334.26Z" style="mix-blend-mode:soft-light" opacity=".3" fill="#000000" class="color000 svgShape"/><path fill="#bc7b64" d="m744.664 473.5 15.196 2.21c4.771.756 9.424 1.478 14.087 2.326 4.678.784 9.36 1.684 14.181 2.74 2.406.604 4.853 1.047 7.344 1.843a54.068 54.068 0 0 1 7.677 2.593 39.87 39.87 0 0 1-15.328 5.315 51.65 51.65 0 0 1-16.022-.274 48.806 48.806 0 0 1-15.252-5.401c-4.68-2.736-9.18-6.271-11.883-11.352ZM679.873 411.41c3.553 5.923 6.985 11.898 10.2 17.964l-1.046-1.17c7.017 2.84 14.193 5.64 21.43 8.052 3.571 1.33 7.228 2.454 10.826 3.689 3.644 1.122 7.3 2.193 10.902 3.398a451.488 451.488 0 0 0 44.156 10.87 345.542 345.542 0 0 0 44.967 5.867c15.154 1.302 30.309.624 45.78-.06l-.478.195c2.967-1.55 6.032-2.954 9.054-4.421-2.529 2.212-5.016 4.487-7.6 6.616l-.115.095-.364.101q-5.633 1.556-11.366 2.925l-5.738 1.412-5.82.85c-3.89.536-7.79 1.181-11.711 1.622l-11.802.601a92.407 92.407 0 0 1-11.826.007c-3.934-.196-7.904-.152-11.824-.55-7.856-.712-15.685-1.722-23.433-3.17a259.753 259.753 0 0 1-45.378-12.736 221.664 221.664 0 0 1-42.023-21.143l-.85-.559-.197-.612c-2.1-6.537-3.982-13.164-5.744-19.843Z" class="colorbc7b64 svgShape"/><path fill="#bc7b64" d="M675.556 417.376a7.441 7.441 0 0 1 .391-7.294 9.02 9.02 0 0 1 5.631-3.97 8.915 8.915 0 0 1 6.6 1.01 8.44 8.44 0 0 1 3.898 5.994c-2.388 1.89-3.896 2.858-5.08 3.692a8.132 8.132 0 0 1-2.636 1.393 7.641 7.641 0 0 1-2.792-.185 43.389 43.389 0 0 0-6.012-.64Z" class="colorbc7b64 svgShape"/><path fill="#ffc4b0" d="M828.303 395.534s-42.229-16.254-45.42 1.826 27.928 30.824 46.272 21.424-.852-23.25-.852-23.25Z" class="colorffc4b0 svgShape"/><path fill="#bc7b64" d="M816.654 362.304c1.544 10.301 2.529 20.604 3.341 30.906l-2.976-3.272c5.01-.287 9.985-.227 14.967-.241l1.604-.004 1.538 1.544c4.067 4.086 5.397 9.368 5.487 14.2a24.315 24.315 0 0 1-4.291 14.104 24.002 24.002 0 0 1-5.28 5.223 58.227 58.227 0 0 1-5.291 3.583 42.807 42.807 0 0 1-12.118 4.918 33.784 33.784 0 0 1-25.444-4.088 45.463 45.463 0 0 1-16.257-17.672c6.357 4.614 12.752 8.782 19.426 10.984a29.765 29.765 0 0 0 19.431.234 39.601 39.601 0 0 0 8.92-4.297c2.691-1.713 6.15-4.255 7.157-5.703 3.024-3.84 3.567-11.35 1.023-14.67l3.14 1.538c-4.888-.966-9.783-1.858-14.645-3.097l-3.164-.807.187-2.467c.78-10.305 1.734-20.61 3.245-30.916Z" class="colorbc7b64 svgShape"/><path fill="#212021" d="M790.547 280.872c-5.678 16.586-16.123 19.082-16.123 19.082a241.77 241.77 0 0 0-32.631-18.792c-.962-.46-1.929-.899-2.865-1.353-.698-.297-1.365-.611-2.038-.902a178.145 178.145 0 0 0-26.513-9.338 115.33 115.33 0 0 0-4.897-1.17 136.988 136.988 0 0 0-4.755-.964c-10.945-2.037-17.139-1.66-17.139-1.66a81.838 81.838 0 0 1 16.536-8.217c1.781-.615 3.551-1.183 5.324-1.653a71.64 71.64 0 0 1 5.1-1.192 74.69 74.69 0 0 1 26.594-.295c1.224.182 2.436.41 3.618.656 1.207.25 2.382.52 3.55.81 27.092 6.798 46.239 24.988 46.239 24.988Z" class="color212021 svgShape"/><path fill="#353535" d="M705.446 255.905a48.641 48.641 0 0 1 .034 12.493 136.988 136.988 0 0 0-4.755-.963 42.877 42.877 0 0 0-.603-9.877c1.781-.615 3.551-1.183 5.324-1.653ZM737.14 254.418c2.722 8.682 1.393 18.003-.25 24.489a178.145 178.145 0 0 0-26.513-9.338 55.665 55.665 0 0 0 .169-14.856 74.69 74.69 0 0 1 26.594-.295ZM741.793 281.162c-.962-.46-1.929-.899-2.865-1.353a58.297 58.297 0 0 0 1.83-24.735c1.207.25 2.382.52 3.55.81a58.767 58.767 0 0 1-2.515 25.278Z" class="color353535 svgShape"/><path fill="#212021" d="M851.042 291.708c-.735 17.483 5.473 23.095 5.473 23.095a135.107 135.107 0 0 1 26.564-7.661c.758-.138 1.513-.253 2.252-.393.54-.064 1.064-.154 1.586-.22a90.595 90.595 0 0 1 19.984-.606 57.83 57.83 0 0 1 3.541.413 69.06 69.06 0 0 1 3.392.566c7.76 1.473 11.737 3.757 11.737 3.757a69.168 69.168 0 0 0-8.675-12.93c-1.007-1.136-2.02-2.225-3.06-3.221a47.664 47.664 0 0 0-3.038-2.716 41.258 41.258 0 0 0-17.439-8.548 32.577 32.577 0 0 0-2.56-.504 46.963 46.963 0 0 0-2.557-.336c-19.68-1.981-37.2 9.304-37.2 9.304Z" class="color212021 svgShape"/><path fill="#353535" d="M913.835 294.508a65.541 65.541 0 0 0-3.393 11.828 69.06 69.06 0 0 1 3.392.566 56.379 56.379 0 0 1 3.062-9.172c-1.007-1.137-2.02-2.226-3.06-3.222ZM893.36 283.244c-4.136 7.38-5.775 16.628-6.443 23.285a90.595 90.595 0 0 1 19.984-.606 75.272 75.272 0 0 1 3.897-14.13 41.258 41.258 0 0 0-17.439-8.549ZM883.079 307.142c.758-.138 1.513-.253 2.252-.393a79.923 79.923 0 0 1 5.468-24.01 46.963 46.963 0 0 0-2.557-.335 81.348 81.348 0 0 0-5.163 24.738Z" class="color353535 svgShape"/><ellipse cx="740.023" cy="343.797" rx="41.111" ry="23.889" transform="rotate(-85.004 740.023 343.797)" style="mix-blend-mode:soft-light" opacity=".45" fill="#000000" class="color000 svgShape"/><ellipse cx="739.24" cy="354.179" rx="27.19" ry="15.799" transform="rotate(-85.004 739.24 354.18)" fill="#000000" class="color000 svgShape"/><path fill="#ffffff" d="M737.954 344.413c-.355 4.699-2.86 8.392-5.596 8.25s-4.666-4.068-4.311-8.766 2.86-8.392 5.595-8.25 4.666 4.068 4.312 8.766ZM740.471 355.595c-.18 2.379-1.448 4.249-2.833 4.177s-2.363-2.06-2.184-4.439 1.449-4.25 2.834-4.177 2.363 2.06 2.183 4.439Z" class="colorfff svgShape"/><ellipse cx="867.346" cy="360.578" rx="37.43" ry="20.948" transform="rotate(-76.039 867.346 360.578)" style="mix-blend-mode:soft-light" opacity=".45" fill="#000000" class="color000 svgShape"/><ellipse cx="864.902" cy="369.735" rx="24.755" ry="13.855" transform="rotate(-76.039 864.902 369.735)" fill="#000000" class="color000 svgShape"/><path fill="#ffffff" d="M865.485 360.693c-1.107 4.144-3.866 6.93-6.163 6.224s-3.264-4.64-2.158-8.783 3.866-6.93 6.163-6.224 3.264 4.639 2.158 8.783ZM865.705 371.266c-.56 2.098-1.957 3.51-3.12 3.151s-1.653-2.349-1.093-4.447 1.957-3.51 3.12-3.151 1.653 2.349 1.093 4.447Z" class="colorfff svgShape"/><path fill="#e5a488" d="M561.042 403.537c-15.815 5.51-30.198-2.05-41.063-15.914-21.331-27.11-29.199-78.287-8.082-102.184 8.296-9.354 16.417-12.385 23.938-11.714 21.435 1.918 37.788 33.893 37.788 33.893s34.221 79.597-12.58 95.919Z" class="colore5a488 svgShape"/><path d="M561.042 403.537c-15.815 5.51-30.198-2.05-41.063-15.914 13.635 4.702 22.205.563 16.546-12.198-7.422-16.707-30.11-50.445-23.188-66.942 6.904-16.527 27.117 7.574 27.117 7.574 6.189-20.376 1.281-34.035-4.62-42.332 21.436 1.918 37.789 33.893 37.789 33.893s34.221 79.597-12.58 95.919Z" style="mix-blend-mode:soft-light" opacity=".3" fill="#000000" class="color000 svgShape"/><path fill="#bc7b64" d="M561.192 364.249c-3.215-6.68-5.837-13.046-8.597-19.221a172.874 172.874 0 0 0-8.617-17.623 75.806 75.806 0 0 0-10.939-15.056c-4.408-4.381-9.72-7.808-16.422-11.276a31.06 31.06 0 0 1 22.264 3.461 45.384 45.384 0 0 1 15.885 16.75 60.468 60.468 0 0 1 7.18 21.079c1.018 7.265 1.173 14.653-.754 21.886Z" class="colorbc7b64 svgShape"/><ellipse cx="534.992" cy="399.392" fill="#ff9d00" rx="19.693" ry="18.076" transform="rotate(-64.463 534.992 399.392)" class="colorff9d00 svgShape"/><path d="M539.332 380.265c-9.864-1.824-19.824 5.273-22.214 15.826-2.39 10.553 3.684 20.614 13.548 22.437s19.794-5.279 22.184-15.832c2.39-10.553-3.655-20.608-13.518-22.431Zm-3.17 20.122c-5.698 1.915-11.943 3.459-13.35-2.434a12.09 12.09 0 0 1 7.706-14.123 9.867 9.867 0 0 1 12.922 7.245c1.408 5.893-1.58 7.397-7.278 9.312Z" style="mix-blend-mode:soft-light" opacity=".56" fill="#000000" class="color000 svgShape"/><path fill="#eacead" d="M774.513 248.364q53.537 22.311 114.187 22.742c3.871.023 7.316-3.148 8.173-7.437 1.103-5.521-2.469-10.545-7.453-10.548a284.393 284.393 0 0 1-108.792-21.809c-4.583-1.882-9.77 1.405-10.867 6.894l-.022.113c-.865 4.328 1.166 8.541 4.774 10.045Z" class="coloreacead svgShape"/><path fill="#eacead" d="M778.48 228.511q53.537 22.312 114.187 22.742c3.871.023 7.316-3.148 8.173-7.437 1.103-5.52-2.469-10.544-7.453-10.548a284.396 284.396 0 0 1-108.792-21.808c-4.583-1.883-9.77 1.405-10.867 6.893l-.022.113c-.865 4.329 1.166 8.542 4.774 10.045Z" class="coloreacead svgShape"/><path fill="#eacead" d="M782.31 209.338q53.538 22.31 114.188 22.741c3.871.024 7.316-3.148 8.173-7.437 1.103-5.52-2.468-10.544-7.453-10.548a284.393 284.393 0 0 1-108.791-21.808c-4.584-1.883-9.77 1.405-10.867 6.894l-.023.112c-.865 4.329 1.166 8.542 4.774 10.046Z" class="coloreacead svgShape"/><ellipse cx="836.427" cy="240.166" fill="#ce3e3e" rx="15.628" ry="13.778" transform="rotate(-78.7 836.427 240.166)" class="colorce3e3e svgShape"/><ellipse cx="532.481" cy="422.015" fill="#ff9d00" rx="7.314" ry="6.713" transform="rotate(-64.464 532.48 422.015)" class="colorff9d00 svgShape"/><path d="M534.093 414.911a7.388 7.388 0 0 0-8.25 5.878c-.888 3.92 1.368 7.656 5.031 8.333s7.352-1.96 8.24-5.88c.887-3.919-1.358-7.653-5.021-8.33Zm-1.178 7.474c-2.116.71-4.435 1.284-4.958-.904a4.49 4.49 0 0 1 2.862-5.246 3.665 3.665 0 0 1 4.8 2.691c.522 2.189-.588 2.748-2.704 3.459Z" style="mix-blend-mode:soft-light" opacity=".56" fill="#000000" class="color000 svgShape"/><path fill="#ff9d00" d="M496.485 437.973h52.985v52.985h-52.985z" transform="rotate(-32.946 522.977 464.465)" class="colorff9d00 svgShape"/><path d="M493.606 458.196 516.7 493.83l35.66-23.088-23.12-35.639Zm9.977 2.128 23.528-15.245 15.245 23.529-23.528 15.244Z" style="mix-blend-mode:soft-light" opacity=".56" fill="#000000" class="color000 svgShape"/></g></svg>