<svg xmlns="http://www.w3.org/2000/svg" viewBox="0 0 1369.706 1792.245"><g data-name="Layer 1" fill="#000000" class="color000 svgShape"><ellipse cx="684.853" cy="1688.622" opacity=".15" rx="684.853" ry="103.623" fill="#000000" class="color000 svgShape"/><path fill="#d18e2c" d="M369.672 1626.754s22.429 10.986 51.266 24.26 59.048 5.493 67.745 16.479-18.31 25.633-41.196 25.175-81.477-3.662-105.28-5.493-63.624-1.373-67.286-9.154 2.746-31.126 2.746-31.126Z" class="colord18e2c svgShape"/><path d="M274.575 1661.732a141.876 141.876 0 0 1 3.084-14.83l92.02-20.159s15.918 7.8 38.185 18.209c-18.548 2.04-39.116 6.281-64.694 14.943-28.072 9.524-56.168 4.83-68.595 1.837ZM447.48 1692.662c-22.88-.454-81.475-3.65-105.262-5.487-23.81-1.837-63.629-1.384-67.303-9.162a13.319 13.319 0 0 1-.997-4.036c36.1 7.075 110.681 7.37 143.244 5.692 22.36-1.157 40.976-11.157 52.223-18.89 8.912.93 15.828 2.314 19.297 6.713 8.708 10.975-18.3 25.624-41.202 25.17Z" style="mix-blend-mode:soft-light" opacity=".3" fill="#000000" class="color000 svgShape"/><path fill="#d18e2c" d="M184.29 1436.794s-10.071 18.767-15.564 48.062 22.43 81.935 51.267 75.527 30.668-29.753 30.21-60.88.458-43.026.458-43.026Z" class="colord18e2c svgShape"/><path d="M250.199 1499.508c.454 31.112-1.361 54.468-30.204 60.885-13.72 3.039-27.235-7.279-37.03-22.086 29.75 10.544 57.687 4.33 58.163-21.27.545-27.982-48.662-47.552-67.097-53.901 4.988-16.53 10.25-26.35 10.25-26.35l66.372 19.683s-.907 11.905-.454 43.04Z" style="mix-blend-mode:soft-light" opacity=".3" fill="#000000" class="color000 svgShape"/><path fill="#35331c" d="M1207.618 1302.073s-3.835 42.707-96.298 49.116-137.32-56.76-188.587-76.9-105.279-3.662-120.842-18.31.916-147.39 1.831-152.883 32.042-105.279 32.042-105.279 158.376 15.563 161.122 22.887 194.996 212.389 194.996 212.389Z" class="color35331c svgShape"/><path fill="#a57b38" d="M1072.753 1293.523s-52.182 244.43-56.76 249.008-11.9 14.648-11.9 14.648 13.732 11.9 9.154 19.224-14.647 10.986-14.647 10.986 11.901 13.732 4.577 20.14-69.576 39.366-69.576 39.366-27.464 0-18.309-24.718c0 0-16.478-28.38 6.408-50.351 0 0 27.465-186.756 22.887-265.486l-54.013-75.984 44.858-216.967 123.589 22.887Z" class="colora57b38 svgShape"/><path d="M971.386 1414.79c-9.365 35.715-34.014 121.59-26.372 133.494 6.417 9.955 46.123 7.438 69.887-4.626-4.557 4.92-10.817 13.515-10.817 13.515s-37.392 1.95-59.91 3.651c-21.315 1.61 30.772 28.89 69.933 11.18a6.47 6.47 0 0 1-.861 4.398c-4.15 6.645-12.812 10.272-14.4 10.907l-.135.046a.943.943 0 0 0-.114.045s-32.744-13.175-53.38 1.293c-20.611 14.444-22.312 35.715-18.05 38.254 4.241 2.563 17.847-25.714 44.627-25.941 18.594-.136 23.787 4.218 31.111 6.757-8.412 6.894-69.298 39.139-69.298 39.139s-27.46 0-18.321-24.717c0 0-16.463-28.39 6.416-50.363 0 0 27.462-186.76 22.881-265.49l-54.015-75.965 44.854-216.987 123.606 22.903 13.72 257.237s-4.264 20.022-10.477 48.73c-20.748-6.462-66.961-25.034-83.243-66.078-21.248-53.56 1.7 102.904-7.642 138.619Z" style="mix-blend-mode:soft-light" opacity=".3" fill="#000000" class="color000 svgShape"/><path fill="#b38c48" d="m828.322 1168.104 19.225 108.94s-10.985 21.972 4.578 26.55c0 0-5.493 34.787 13.732 35.703 0 0 34.788-38.45 78.73-32.957 0 0-6.408-13.732 3.662-23.803s-10.986-19.224-10.986-19.224 21.056-21.972-8.239-35.704c0 0 29.295-102.532 22.887-181.263s-142.813-11.901-142.813-11.901Z" class="colorb38c48 svgShape"/><path d="M950.456 1279.415a9.92 9.92 0 0 1-2.199 3.13c-10.07 10.067-3.674 23.787-3.674 23.787-43.946-5.488-78.731 32.97-78.731 32.97-19.23-.93-13.719-35.714-13.719-35.714-15.578-4.58-4.58-26.554-4.58-26.554l-19.23-108.935-19.229-133.653s136.418-66.826 142.814 11.905c.725 8.912.997 18.118.906 27.416-17.415-1.18-62.222-1.293-79.026 26.168-21.042 34.445-12.744 128.21-5.102 130.115 6.282 1.564 39.434 4.83 60.726-3.81l-.385 1.36a38.59 38.59 0 0 1 8.776 5.488c-21.339 3.424-81.135 14.127-74.853 25.67 5.736 10.498 56.236-1.543 81.18-8.255-1.565 7.257-6.871 12.812-6.871 12.812s-67.915 3.719-66.01 20.295c1.429 12.517 53.606 1.814 79.207-4.195Z" style="mix-blend-mode:soft-light" opacity=".3" fill="#000000" class="color000 svgShape"/><path fill="#35331c" d="m841.714 1142.919 20.598-102.99 9.613-10.986-33.873-11.443-21.971 27.464 3.204 56.759 22.429 41.196z" class="color35331c svgShape"/><path fill="#a9a35f" d="M1207.618 1302.073s-48.826 20.735-70.797 21.972l-3.644 15.852s-126.946 6.119-142.831-74.443c-2.442-12.433-4.557-25.812-6.445-39.548-10.35-75.256-13.54-161.578-22.85-166.754-10.969-6.087-112.298-20.735-124.505-23.176s-23.174 8.529-3.644 39.06c19.53 30.5 12.206 140.357-42.74 161.123-54.91 20.735-62.234-57.385-61.031-65.914 1.238-8.56 190.418-601.786 190.418-601.786l7.422-37.953 13.346-68.226s57.06 11.882 107.252 11.426a779.444 779.444 0 0 1 44.626 65.523c19.66 32.355 39.485 71.09 44.626 102.468 11.003 67.15 57.387 517.547 57.387 517.547Z" class="colora9a35f svgShape"/><path d="M1203.497 1258.19c-34.06.726-92.427.613-96.917-8.367-6.372-12.767 15.307-276.783-6.372-330.366 0 0-5.102 158.165-22.97 197.711 0 0 3.832-127.552-5.102-209.186 0 0-47.19 5.103-61.226-3.832 0 0 25.51 121.18 22.97 204.084-1.972 64.037-32.88 146.374-17.415 200.501-12.72-10.499-22.427-24.558-26.122-43.288-2.45-12.427-4.558-25.806-6.44-39.547-6.258-45.466-9.91-94.99-13.855-128.188l39.592 16.894s8.935-225.762-76.531-224.492c-85.466 1.292-105.874 146.69-105.874 146.69l.43.182c-6.984 3.719-9.115 15.601 5.239 38.05 19.524 30.5 12.2 140.365-42.745 161.113-54.898 20.749-62.222-57.37-61.02-65.896 1.224-8.572 190.41-601.798 190.41-601.798l7.415-37.96 13.356-68.209s57.052 11.882 107.257 11.429a776.623 776.623 0 0 1 44.626 65.51c19.661 32.36 39.48 71.09 44.627 102.473 10.998 67.144 57.37 517.557 57.37 517.557Z" style="mix-blend-mode:soft-light" opacity=".3" fill="#000000" class="color000 svgShape"/><path fill="#1e94af" d="M1036.73 674.67c-54.034 18.587-92.638-85.639-109.759-144.164l13.346-68.226s57.06 11.882 107.252 11.426a779.444 779.444 0 0 1 44.626 65.523c.847 46.775-6.281 118.515-55.466 135.44ZM922.005 740.58s120.843 47.604 208.728 14.647l3.662 109.856s-131.828 52.487-249.008-47.604Z" class="color1e94af svgShape"/><path d="M1036.738 674.67c-54.038 18.594-92.654-85.648-109.774-144.175l5.669-29.002 7.687-39.207s57.052 11.882 107.257 11.429c0 0 10.884 14.013 25.125 35.102 6.077 9.025 12.789 19.343 19.501 30.409.84 46.78-6.28 118.527-55.465 135.443Z" style="mix-blend-mode:soft-light" opacity=".3" fill="#000000" class="color000 svgShape"/><path d="M1072.703 508.817c-6.214 33.946-20.523 65.987-51.272 76.577-37.868 13.016-68.163-34.286-88.798-83.901l7.687-39.207s57.052 11.882 107.257 11.429c0 0 10.884 14.013 25.126 35.102ZM1134.404 865.08s-131.839 52.494-249.029-47.597l36.623-76.895s11.156 4.4 29.138 9.57c1.224 26.122 7.892 77.551 40.658 95.33 43.402 23.56 132.678 33.855 98.822-80.568a180.799 180.799 0 0 0 40.114-9.683Z" style="mix-blend-mode:soft-light" opacity=".3" fill="#000000" class="color000 svgShape"/><path fill="#a9a35f" d="M1202.75 172.988s-81.782 245.346-117.18 301.494c0 0 48.825 102.533 53.707 101.313s100.091-109.857 115.96-402.807c0 0-15.869 12.206-52.487 0Z" class="colora9a35f svgShape"/><path d="M1255.244 172.986q-.918 16.667-2.155 32.517c-13.537 6.01-29.727 10.93-43.197 8.594 0 0-36.985 144.129-72.7 235.967 0 0 7.71 50.159 33.22 81.543-16.62 30.136-29.41 43.764-31.133 44.195-4.875 1.202-53.72-101.316-53.72-101.316 35.397-56.146 117.19-301.5 117.19-301.5 36.622 12.2 52.495 0 52.495 0Z" style="mix-blend-mode:soft-light" opacity=".3" fill="#000000" class="color000 svgShape"/><path fill="#842d1b" d="M940.315 462.276c-2.57-4.151-36.619-8.544-36.619-8.544l-64.693 122.063s-95.82 534.634-178.212 606.04c0 0 38.45 60.422 97.04 53.098 0 0 25.633-80.561 56.76-208.727s236.801-384.498 125.724-563.93Z" class="color842d1b svgShape"/><path d="m859.14 661.812 97.574 26.94c-2.63 9.387-5.555 18.752-8.684 28.117-20.726 3.538-49.434 4.014-87.62-4.036 0 0-68.89 187.485-77.802 312.498-2.426 33.9 2.562 60.68 11.52 81.701-21.134 80.273-36.305 127.893-36.305 127.893-58.572 7.324-97.03-53.085-97.03-53.085 82.381-71.406 178.21-606.038 178.21-606.038l64.695-122.065s34.037 4.377 36.622 8.549c21.089 34.06 30.748 70.885 32.358 109.094a360.593 360.593 0 0 1-68.912-.136Z" style="mix-blend-mode:soft-light" opacity=".3" fill="#000000" class="color000 svgShape"/><path fill="#842d1b" d="M1047.578 473.72s96.582 303.478 74.61 768.537c0 0 122.673 1.83 142.814-12.817L1155.145 564.81s-38.45-57.98-69.575-90.327Z" class="color842d1b svgShape"/><path d="M1119.437 514.894a251.07 251.07 0 0 1-52.744 31.973c-10.997-47.62-19.116-73.152-19.116-73.152l37.983.77c11.065 11.475 23.039 26.214 33.877 40.41ZM1144.426 1242.295c-13.378.09-22.245-.046-22.245-.046 11.61-245.558-9.84-446.06-32.699-580.618l27.303-41.928s47.959 478.282 27.641 622.592Z" style="mix-blend-mode:soft-light" opacity=".3" fill="#000000" class="color000 svgShape"/><path fill="#0281a3" d="m764.545 729.593 68.355 667.683s-69.576 4.883-91.547-6.103-40.28-324.686-40.28-333.23 47.603-325.908 47.603-325.908Z" class="color0281a3 svgShape"/><path fill="#c97179" d="M662.63 474.168c-7.325 55.851-182.18 89.73-182.18 89.73-.906 63.152-24.74 157.438-24.74 157.438s5.512 90.659 7.325 103.448c.227 1.497.908 5.012 1.928 10.091 7.733 38.459 35.624 165.694 35.624 165.694s6.395 61.36-1.837 93.38c-6.847 26.553-62.79 60.703-103.607 70.544-8.412 2.018-16.19 3.016-22.72 2.699-38.46-1.837-84.219 15.555-109.865 29.297-25.625 13.719-85.126-7.324-85.126-7.324s-.863-2.948-2.04-7.483c-3.448-13.447-9.389-41.067-2.54-49.298 9.137-10.975 43.945-202.292 42.108-253.563s5.488-86.055 5.488-86.055-2.744-7.324 0-20.16c2.767-12.811 7.324-79.637 7.324-79.637s-3.65-24.717-7.324-50.364c-3.65-25.623-21.065-124.49-21.065-124.49-85.126 3.673-128.143-107.1-128.143-107.1 46.667 1.815 58.685-32.675 58.685-32.675 29.684 51.406 109.639 10.476 156.737 8.707 12.472-.453 22.653 1.837 28.98 9.32 30.204 35.715 98.89 43.946 98.89 43.946s45.76 15.556 62.245 17.37a26.257 26.257 0 0 0 2.858.113c21.973-.227 103.357-19.32 103.357-19.32-3.697-32.97 12.812-145.557 12.812-145.557 26.53.907 47.483-15.352 47.483-15.352s26.667 140.773 19.342 196.601Z" class="colorc97179 svgShape"/><path d="M162.057 466.005c-33.447-18.368-43.946-51.701-47.142-67.87 11.314-9.16 15.01-19.795 15.01-19.795 29.684 51.406 109.639 10.476 156.737 8.707 12.472-.453 22.653 1.837 28.98 9.32 30.205 35.715 98.89 43.946 98.89 43.946s26.168 8.889 46.054 14.014c-33.605 9.229-95.669 23.492-145.964 19.524a142.376 142.376 0 0 1-33.72-6.35s-10.476 70.999-77.62 72.858c-2.313-13.265-3.9-22.245-3.9-22.245s54.513-1.088 60.25-30.408c5.737-29.343-52.29 3.174-97.575-21.701Z" style="mix-blend-mode:soft-light" opacity=".3" fill="#000000" class="color000 svgShape"/><path d="M662.63 474.168c-7.325 55.851-182.18 89.73-182.18 89.73-.906 63.152-24.74 157.438-24.74 157.438s5.512 90.659 7.325 103.448c.227 1.497.908 5.012 1.928 10.091 7.733 38.459 35.624 165.694 35.624 165.694s6.395 61.36-1.837 93.38c-6.847 26.553-62.79 60.703-103.607 70.544-8.412 2.018-16.19 3.016-22.72 2.699q-2.994-.136-6.055-.136c84.332-154.673 31.043-340.208-27.642-363.678-41.61-16.644-90.817-8.3-120.001-.521.975-6.531 1.723-10.091 1.723-10.091s-2.744-7.324 0-20.16c2.767-12.811 7.324-79.637 7.324-79.637s-1.474-9.932-3.492-23.742c12.064-7.528 39.116-15.828 96.577-4.444 90.137 17.846 136.918-39.978 144.56-84.196 7.664-44.219 27.211-77.37 27.211-77.37s119.049-22.11 135.217-39.979c16.145-17.846-44.853-24.762-44.853-24.762a84.505 84.505 0 0 1-.409-5.487c15.964 2.789 39.82 6.032 46.962 2.2 10.363-5.602 8.776-112.247-35.033-133.109.792-5.782 1.292-9.16 1.292-9.16 26.53.906 47.483-15.353 47.483-15.353s26.667 140.773 19.342 196.601Z" style="mix-blend-mode:soft-light" opacity=".3" fill="#000000" class="color000 svgShape"/><path fill="#413b46" d="M464.955 834.882c-33.006-16.145-170.726-79.032-244.517-42.12 0 0-2.733-7.323 0-20.149 2.767-12.824 7.324-79.65 7.324-79.65s91.563-32.94 227.948 28.384c0 0 5.5 90.652 7.324 103.444.228 1.498.912 5.013 1.921 10.091Z" class="color413b46 svgShape"/><path d="M464.963 834.875c-33.016-16.145-170.728-79.026-244.515-42.11a26.05 26.05 0 0 1-1.156-6.802c50.816-34.173 185.761 6.576 185.761 6.576l22.313-27.415c-56.758-33.81-183.04-38.277-183.04-38.277 86.736-19.116 187.508 21.066 187.508 21.066l6.372-23.606c-111.612-43.991-189.368-26.599-211.227-19.977.498-6.871.793-11.361.793-11.361s91.543-32.948 227.939 28.367c0 0 5.51 90.659 7.324 103.448.227 1.497.908 5.012 1.928 10.091Z" style="mix-blend-mode:soft-light" opacity=".3" fill="#000000" class="color000 svgShape"/><path fill="#8c5157" d="M395.135 1164.484c-8.399 2.018-16.177 3.028-22.72 2.702-38.442-1.823-84.208 15.559-109.857 29.295-25.617 13.737-85.118-7.324-85.118-7.324s-.88-2.93-2.05-7.486c2.7-6.673 9.895-13.639 27.667-15.396 36.619-3.678 44.854-2.734 72.326-21.06 27.472-18.293 97.942-21.06 97.942-21.06Z" class="color8c5157 svgShape"/><path fill="#a7a09c" d="M272.632 1159.254s-9.765 69.576-32.957 128.166-42.722 106.195-46.384 115.96-13.427 37.839-13.427 37.839a484.186 484.186 0 0 1 69.881 24.412s18.31-15.562 49.436-79.645 67.745-184.925 67.745-184.925-16.479 108.025-24.718 148.306-43.943 161.123-51.267 178.516-14.647 44.859-10.985 54.013-.916 18.31-6.408 22.887-8.24 21.056-3.662 27.464 1.83 21.971 1.83 21.971 53.098 12.817 97.956-27.464l.915-13.732s21.056-4.577 12.817-27.464c0 0 21.056-42.112 34.788-110.772s53.097-266.402 51.266-278.303-21.056-89.716-21.056-89.716L285.45 1120.5Z" class="colora7a09c svgShape"/><path d="M418.183 1474.792c-13.72 68.662-34.785 110.771-34.785 110.771 8.253 22.88-12.812 27.461-12.812 27.461l-.908 13.719c-44.875 40.295-97.96 27.483-97.96 27.483s2.744-15.578-1.836-21.973c-1.77-2.494-2.45-6.485-2.29-10.703 49.002-1.905 110.023-33.356 85.579-34.15-17.03-.544-50.432.318-71.906 1.02a17.942 17.942 0 0 0-1.315-6.53c-.93-2.336-1.157-5.873-.84-10.159 20.84-6.122 57.303-20.544 71.52-48.957 20.41-40.817 53.562-233.835 53.562-233.835l-45.058-33.175-1.224 2.79c4.853-30.273 8.73-55.67 9.002-57.394-1.111 3.674-37.075 121.748-67.733 184.832-31.134 64.082-49.433 79.638-49.433 79.638-8.594-3.832-17.212-7.279-25.307-10.272 22.88-35.397 59.615-138.097 62.404-172.383 2.472-30.408-14.966-57.642-24.581-70.136 7.144-30.636 10.364-53.584 10.364-53.584l12.811-38.753 162.973-13.742s19.206 77.824 21.043 89.729-37.529 209.64-51.27 278.303Z" style="mix-blend-mode:soft-light" opacity=".3" fill="#000000" class="color000 svgShape"/><path fill="#dd85be" d="M1096.558 614.257s-32.03 54.001-105.268 75.06c-73.238 21.061-180.36-14.647-180.36-14.647l-.033.065c-1.66 2.734-54.977 89.871-58.557 105.202-3.68 15.56-7.323 74.15-7.323 74.15 29.295 61.357 32.939 212.389 21.97 303.952-7.584 63.017-.813 159.43 4.133 213.399 2.248 24.445 4.102 40.167 4.102 40.167-46.676 22.915-98.855-14.648-162.033-32.94-63.18-18.326-167.537-87.886-234.361-157.478-66.827-69.56-116.27-68.649-116.27-68.649s7.324-22.882 14.648-33.884a138.199 138.199 0 0 0 6.672-12.857c13.541-28.221 41.436-90.913 60.152-108.881 22.884-21.971 163.89-85.15 163.89-85.15l22.884-55.824-.912-76.005c-29.295-36.619-23.826-109.857-23.826-109.857s-3.093.977-8.66 2.442c-20.831 5.566-76.328 18.163-134.138 13.118-73.238-6.413-108.944-143.709-108.944-143.709 38.44 0 57.678-23.827 57.678-23.827 14.647 47.621 44.854 80.562 50.355 84.24 5.468 3.645 70.47 11.913 105.267-12.825 8.625-6.12 16.437-11.523 23.565-16.275 21.68-14.387 36.815-22.85 47.85-27.668 3.124-1.366 8.43-2.571 14.81-3.613 12.565-2.05 29.361-3.482 42.314-4.361a.032.032 0 0 0 .034-.033c11.327-.781 19.725-1.139 19.725-1.139s54.488 3.19 92.93 2.734c3.419-.032 6.966.033 10.612.228 2.669.13 5.37.325 8.138.553 28.416 2.507 59.696 10.32 76.362 15.852a92.09 92.09 0 0 1 9.244 3.515c12.825 5.957 120.858 70.504 163.434 69.137 42.544-1.4 97.032-44.886 97.032-44.886 17.838 10.09 22.884 30.694 22.884 30.694Z" class="colordd85be svgShape"/><path d="m507.911 911.77 10.998-26.804c72.382-4.33 127.44 29.162 72.36 25.556-58.663-3.81-83.358 1.247-83.358 1.247ZM577.232 1030.433c-25.737 74.422-35.92 178.437-39.637 257.01-.998 20.68-1.52 39.614-1.792 55.76-45.306-26.26-94.808-62.7-135.376-100.727q12.891-20.102 25.149-37.96c89.66-130.999 151.656-174.083 151.656-174.083Z" style="mix-blend-mode:soft-light" opacity=".3" fill="#000000" class="color000 svgShape"/><path d="M1096.558 614.26s-32.042 53.992-105.263 75.058c-73.243 21.066-180.365-14.649-180.365-14.649l-.022.068c-1.679 2.722-54.99 89.865-58.572 105.194-3.674 15.556-7.325 74.15-7.325 74.15 29.298 61.362 32.95 212.384 21.973 303.95-7.573 63.016-.816 159.434 4.128 213.403 2.244 24.445 4.103 40.182 4.103 40.182-16.575 8.14-33.832 8.64-52.04 5.08 3.424-11.724 7.845-32.926 2.607-52.677-.544-1.95-1.134-3.877-1.859-5.782-11.474-30.613-40.817-218.12-16.576-308.666 24.24-90.568 8.934-173.471-85.466-181.135-50.545-4.082-78.414-5.987-93.38-6.871l2.313-5.624-.929-76.01a80.373 80.373 0 0 1-9.615-15.623c15.26-5.67 40.317-11.996 93.108-6.849 32.45 3.175 59.592.023 81.203-6.78 48.027-15.17 68.753-48.572 59.955-71.452-4.762-12.358-12.812-20.227-23.606-24.104-18.163-6.508-44.104-1.678-75.035 12.2-49.32 22.108-71.43 16.167-114.786 11.904-18.39-1.791-29.139.068-35.42 2.835.045-7.415.386-11.973.386-11.973s-3.107.975-8.663 2.426c-20.839 5.578-76.327 18.164-134.151 13.13-73.22-6.418-108.936-143.72-108.936-143.72a83.906 83.906 0 0 0 29.615-5.216c13.47 33.47 41.929 95.398 72.632 107.665 40.862 16.35 126.532 11.474 124.786-64.468 3.424-2.358 6.69-4.58 9.84-6.666 21.68-14.377 36.805-22.835 47.847-27.665 3.107-1.36 8.414-2.562 14.808-3.605 12.563-2.064 29.365-3.493 42.313-4.377a.022.022 0 0 0 .023-.023c11.338-.793 19.728-1.133 19.728-1.133s54.49 3.174 92.927 2.72c3.423-.022 6.984.046 10.611.227a262.8 262.8 0 0 1 8.14.567c28.414 2.495 59.707 10.318 76.374 15.85a91.654 91.654 0 0 1 9.229 3.516c1.09.499 2.857 1.428 5.239 2.72-2.336 16.917-3.606 55.058 25.396 81.476 38.255 34.875 145.4 37.415 194.72-5.103 24.104-20.77 38.458-35.465 46.847-45.057a56.437 56.437 0 0 1 11.158 20.907Z" style="mix-blend-mode:soft-light" opacity=".3" fill="#000000" class="color000 svgShape"/><path fill="#e89c7c" d="M717.088 578.094c-8.69 47.132-114.903 78.707-155.622 56.28-33.787-18.587-15.005-74.052-7.618-92.411 12.566-2.05 29.362-3.482 42.315-4.361a.032.032 0 0 0 .034-.033c11.327-.781 19.725-1.139 19.725-1.139s54.488 3.19 92.93 2.734c3.419-.032 6.966.033 10.612.228.88 9.798.585 22.557-2.376 38.702Z" class="colore89c7c svgShape"/><path d="M718.096 572.038c-154.424 68.05-151.907-14.4-151.907-14.4l-14.105-11.11q.953-2.552 1.77-4.558c12.562-2.064 29.364-3.493 42.312-4.377a.022.022 0 0 0 .023-.023c11.338-.793 19.727-1.133 19.727-1.133s54.491 3.174 92.928 2.72c3.423-.022 6.984.046 10.611.227a137.54 137.54 0 0 1-1.36 32.654Z" style="mix-blend-mode:soft-light" opacity=".3" fill="#000000" class="color000 svgShape"/><path fill="#0097bb" d="m810.93 674.67-.033.065c-1.66 2.734-54.977 89.871-58.557 105.202-3.68 15.56-7.323 74.15-7.323 74.15-13.737 0-21.972-3.19-84.241-6.868-62.235-3.646-129.972 8.723-129.972 8.723l-.912-76.005c14.647.456 94.753.456 145.077-18.749 50.354-19.237 58.59-70.503 55.4-132.283-2.378-46.254-2.735-76.623-2.767-88.96 28.416 2.507 59.696 10.32 76.362 15.852-11.457 10.742-26.822 30.37-27.375 58.916-.91 45.765 34.341 59.957 34.341 59.957Z" class="color0097bb svgShape"/><path d="m810.93 674.67-.022.067c-1.679 2.722-54.99 89.865-58.572 105.194-3.674 15.556-7.325 74.15-7.325 74.15-13.741 0-21.973-3.174-84.24-6.87-62.223-3.628-129.957 8.73-129.957 8.73l-.067-5.646c29.16-5.647 98.866-10.885 130.25-13.742 37.416-3.401 61.225-34.876 54.423-51.02-6.803-16.169-15.307-12.767-95.24 2.539-50.568 9.683-77.303 8.14-90.137 5.692l-.158-13.833c14.649.454 94.762.454 145.08-18.753a84.771 84.771 0 0 0 19.615-10.499c48.027-15.17 68.754-48.572 59.956-71.452-4.763-12.358-12.812-20.227-23.606-24.104.114-8.458-.091-17.234-.567-26.214-2.38-46.259-2.72-76.622-2.767-88.958 28.413 2.495 59.706 10.318 76.373 15.85-11.451 10.75-26.826 30.364-27.37 58.913-.93 45.76 34.331 59.955 34.331 59.955Z" style="mix-blend-mode:soft-light" opacity=".3" fill="#000000" class="color000 svgShape"/><path fill="#e6c0f2" d="M605.863 1659.711s-10.986 23.802-36.16 33.873-47.148 25.633-44.401 33.872 32.499 9.612 51.266 9.612 32.042-5.035 48.978-12.358 39.365-.458 52.182-8.24-9.613-69.575-9.613-69.575Z" class="colore6c0f2 svgShape"/><path d="M677.732 1716.472c-12.812 7.778-35.26.907-52.178 8.231-16.938 7.325-30.226 12.359-48.98 12.359-18.776 0-48.527-1.36-51.27-9.615-.544-1.655-.091-3.628 1.18-5.782 43.877 2.517 131.316-13.742 120.272-24.785-8.39-8.367-38.707-11.02-62.29-11.656a75.47 75.47 0 0 0 21.406-25.51l62.246-12.812s22.425 61.792 9.614 69.57Z" style="mix-blend-mode:soft-light" opacity=".3" fill="#000000" class="color000 svgShape"/><path fill="#d18e2c" d="m929.024 1641.402-4.577 13.274s5.493 3.204 16.478 1.831 28.838 16.936 55.386 16.936 39.823-.915 47.147-7.781-24.718-42.57-51.724-57.675-62.71 33.415-62.71 33.415Z" class="colord18e2c svgShape"/><path d="M1043.45 1665.655c-7.324 6.87-20.59 7.778-47.144 7.778-26.553 0-44.399-18.3-55.374-16.916-10.997 1.36-16.485-1.837-16.485-1.837l4.58-13.288s35.692-48.504 62.7-33.402c2.449 1.36 4.92 2.903 7.414 4.558-14.989.43-33.833 3.99-45.624 17.37-19.501 22.132 57.87 39.297 90.137 29.048 1.156 3.038 1.18 5.396-.204 6.69Z" style="mix-blend-mode:soft-light" opacity=".3" fill="#000000" class="color000 svgShape"/><path fill="#d18e2c" d="M867.688 1327.853s10.07 43.027 36.16 46.69 64.084-14.648 62.71-26.55-18.767-42.569-32.956-47.146-58.133 10.986-65.914 27.006Z" class="colord18e2c svgShape"/><path d="M903.857 1374.54a22.89 22.89 0 0 1-3.968-.906c73.628-12.427 53.447-61.679 17.914-56.849-26.418 3.583-39.321 18.481-44.65 27.03a104.491 104.491 0 0 1-5.464-15.964c7.778-16.01 51.724-31.588 65.918-27.007 14.173 4.58 31.588 35.238 32.95 47.143 1.382 11.905-36.622 30.227-62.7 26.554Z" style="mix-blend-mode:soft-light" opacity=".3" fill="#000000" class="color000 svgShape"/><path fill="#f2af7c" d="M71.229 411.01s-14.648-8.697-12.817-26.549c0 0-14.19-2.288-19.225-35.703 0 0 2.289-8.697 10.07-7.782 0 0 .916-11.443 10.528-11.443 0 0 1.831-11.901 18.31-10.07 0 0 3.662-11.901 1.373-19.683s-14.648-27.006-7.324-31.583 19.683 3.661 31.584 26.09 20.598 52.64 20.598 52.64 23.344 15.105 6.408 34.788-15.563 27.922-59.505 29.295Z" class="colorf2af7c svgShape"/><path d="M124.325 346.933s-8.685-30.227-20.59-52.653c-11.247-21.202-22.925-29.706-30.341-26.713 9.456 11.86 31.52 41.61 25.216 53.992-4.421 8.662-12.154-1.678-18.526-12.812a55.075 55.075 0 0 1-1.996 10.726c-16.462-1.837-18.3 10.068-18.3 10.068-9.614 0-10.52 11.429-10.52 11.429-7.801-.908-10.092 7.777-10.092 7.777.272 1.724.545 3.356.84 4.898 9.183-7.573 31.95-25.147 39.773-20.612 9.092 5.284-4.468 30.771-28.277 46.985 3.81 3.945 6.893 4.444 6.893 4.444a27.885 27.885 0 0 0 .409 8.594c8.98-5.487 24.354-12.789 38.504-11.542 16.394 1.429-7.076 20.545-27.099 28.821.613.454.998.68.998.68 43.947-1.383 42.586-9.614 59.524-29.297 16.94-19.682-6.416-34.785-6.416-34.785Zm2.97 10.658c-4.15 9.252-22.631 12.427-29.025 7.324-6.372-5.102-1.27-17.21 7.664-17.528 0 0 25.51.952 21.362 10.204Z" style="mix-blend-mode:soft-light" opacity=".3" fill="#000000" class="color000 svgShape"/><path fill="#c67f4e" d="M120.664 372.102a36.904 36.904 0 0 1-16.763-1.09 19.07 19.07 0 0 1-8.14-4.518 10.348 10.348 0 0 1-2.677-10.43 14.928 14.928 0 0 1 5.846-8.13 21.094 21.094 0 0 1 8.672-3.191 32.216 32.216 0 0 1 16.724 2.184c-5.515.55-10.86 1.17-15.594 2.732a20.11 20.11 0 0 0-6.15 3.186 10.237 10.237 0 0 0-3.273 4.945 4.266 4.266 0 0 0 .926 4.554c1.177 1.57 3.353 2.823 5.542 4.007a108.368 108.368 0 0 0 14.887 5.751Z" class="colorc67f4e svgShape"/><path fill="#c67f4e" d="M78.095 319.463a73.374 73.374 0 0 1 13.858 19.079 37.116 37.116 0 0 1 3.845 11.833 15.949 15.949 0 0 1-.67 7.063 11.31 11.31 0 0 1-4.98 6.061 10.666 10.666 0 0 1-7.908 1.143 15.51 15.51 0 0 1-6.296-3.364 37.879 37.879 0 0 1-7.72-9.736 75.68 75.68 0 0 1-8.439-22.01c4.13 6.644 8.126 13.236 12.633 19.209 2.314 2.893 4.65 5.819 7.355 7.762 2.745 2.064 5.139 2.724 7.125 1.414 2.211-1.114 2.99-3.636 2.82-7.02a39.779 39.779 0 0 0-2.395-10.4 225.916 225.916 0 0 0-9.228-21.034Z" class="colorc67f4e svgShape"/><path fill="#c67f4e" d="M49.258 340.977c2.723 4.506 5.043 9.035 7.372 13.489 2.373 4.395 4.596 8.904 7.334 12.609a13.347 13.347 0 0 0 4.081 4.169 8.164 8.164 0 0 0 5.43.626c3.696-.864 7.448-4.75 8.281-9.838 1.89 5.011-.622 11.817-6.524 14.566a11 11 0 0 1-4.69 1.083 12.34 12.34 0 0 1-4.803-.767 16.108 16.108 0 0 1-7.014-6.06 50.812 50.812 0 0 1-6.745-14.486 58.846 58.846 0 0 1-2.722-15.391Z" class="colorc67f4e svgShape"/><path fill="#c67f4e" d="M58.412 384.46a25.493 25.493 0 0 0 2.909-2.841c.61-.797 1.028-1.317 1.464-1.935a39 39 0 0 1 1.788-2.133 22.979 22.979 0 0 1 2.994-3.16 6.753 6.753 0 0 1 1.866 4.508 7.512 7.512 0 0 1-1.59 4.803 7.118 7.118 0 0 1-4.715 2.606 5.183 5.183 0 0 1-4.716-1.847Z" class="colorc67f4e svgShape"/><path fill="#ce8d61" d="M785.295 149.796s1.831.305 10.986-18.005 26.549-30.21 29.295-34.787-8.24-18.31-29.295 4.12c0 0-.458-11.902 5.493-37.077s11.9-40.281 5.493-44.858-16.479 10.07-21.514 45.773a128.166 128.166 0 0 1-3.662-32.041c.458-16.479-1.83-35.246-13.732-21.056 0 0-10.986-3.204-14.647 5.493s-3.205 19.682-3.205 19.682-9.154-.915-10.985 11.444-5.035 43.485-5.035 43.485-12.817 47.604-2.747 64.082c0 0 24.718 15.41 53.555-6.255Z" class="colorce8d61 svgShape"/><path d="M782.109 31.737c-10.703 2.336-24.671 7.687-42.698 17.529.045-.272.068-.522.113-.771 1.837-12.381 10.975-11.452 10.975-11.452s-.453-10.997 3.22-19.682c3.651-8.708 14.65-5.488 14.65-5.488 11.608-13.855 14.058 3.696 13.74 19.864ZM808.958 34.889c-2.949-2.744-7.619-4.58-14.536-4.626 4.4-10.09 9.207-13.65 12.835-11.066 3.356 2.381 3.333 7.642 1.701 15.692ZM824.423 91.602c-4.06 7.279-17.166 14.807-23.334 16.939-7.324 2.562-12.426-3.175-12.426-3.175l7.618-5.193c.024-3.265.523-15.034 5.489-36.122.407-1.747.838-3.447 1.247-5.103-15.51 7.665-49.23 14.944-66.985 18.436-.68 6.19-1.202 11.383-1.429 13.537 14.24-4.966 35.466-11.133 47.03-8.526 14.58 3.266-32.88 35.284-53.605 48.686-.5 9.864.249 19.274 3.718 24.966 0 0 24.717 15.42 53.538-6.259.136 0 2.154-.294 10.997-18.004 9.162-18.3 26.554-30.205 29.299-34.785.816-1.384.407-3.583-1.157-5.397Zm-74.037 53.606c-7.642-14.989 19.774-32.2 19.774-32.2s17.21-8.934 20.408 4.785c3.197 13.719-32.518 42.404-40.182 27.415Z" style="mix-blend-mode:soft-light" opacity=".3" fill="#000000" class="color000 svgShape"/><path fill="#aa6b3f" d="M768.817 75.032c-1.958-5.133-2.638-10.468-3.28-15.722a150.537 150.537 0 0 1-.162-31.68 78.817 78.817 0 0 1 2.984-15.765 174.6 174.6 0 0 1 2.77 31.578 207.98 207.98 0 0 1-.532 15.762c-.314 5.267-1.05 10.498-1.78 15.827ZM750.508 37.04a41.976 41.976 0 0 1 2.415 9.985 69.267 69.267 0 0 1 .61 9.964 68.151 68.151 0 0 1-.829 9.948 41.5 41.5 0 0 1-2.654 9.926 41.495 41.495 0 0 1-2.425-9.984 68.157 68.157 0 0 1-.6-9.964 69.323 69.323 0 0 1 .838-9.948 41.984 41.984 0 0 1 2.645-9.927Z" class="coloraa6b3f svgShape"/><path fill="#aa6b3f" d="M740.437 82.814a34.911 34.911 0 0 1 10.174-7.043 48.171 48.171 0 0 1 11.761-3.875 41.595 41.595 0 0 1 12.491-.46 27.83 27.83 0 0 1 11.805 4.054c-4.217.381-8.022.551-11.837 1.027-3.798.502-7.52 1.066-11.265 1.776-7.521 1.35-14.91 3.214-23.129 4.52ZM796.28 101.123a103.045 103.045 0 0 1-12.498 9.957l-.097.067-.702.22a83.142 83.142 0 0 0-10.665 4.222 62.472 62.472 0 0 0-9.763 5.71 39.588 39.588 0 0 0-7.955 7.81c-2.384 2.993-3.864 6.564-5.466 10.464a24.04 24.04 0 0 1 1.734-12.575 30.922 30.922 0 0 1 7.803-10.509 42.603 42.603 0 0 1 11.037-6.75 45.559 45.559 0 0 1 12.406-3.296l-.797.286a103.072 103.072 0 0 1 14.964-5.606Z" class="coloraa6b3f svgShape"/><path fill="#ce8d61" d="M1202.75 172.988a203.34 203.34 0 0 0-7.324-42.57c-6.408-21.971-18.767-54.47-16.02-64.54s-1.832-21.056 5.492-21.972 12.817 2.289 15.563 8.697 22.43 36.161 22.43 36.161 3.66-11.9 10.07-8.697 4.119 27.922 4.119 27.922 28.99 36.161 18.157 64.999-52.487 0-52.487 0Z" class="colorce8d61 svgShape"/><path d="M1202.635 56.749c-7.642 5.624-16.462 15.034-22.494 21.905-1.112-5.51-1.497-9.978-.726-12.767 2.744-10.09-1.836-21.066 5.488-21.973 7.324-.93 12.812 2.29 15.556 8.685a46.75 46.75 0 0 0 2.176 4.15ZM1226.378 82.078c-4.105 6.825-7.099 22.426-8.822 30.613-1.791 8.458-11.995 25.669-17.959 35.238-1.043-5.465-2.404-11.429-4.172-17.506a224.205 224.205 0 0 0-1.747-5.76c6.417-14.308 15.102-34.694 19.91-50.182 4.92 7.665 9.297 14.286 9.297 14.286a22.742 22.742 0 0 1 3.493-6.69ZM1255.244 172.986c-10.84 28.844-52.496 0-52.496 0s-.044-1.18-.226-3.31c31.293-3.765 18.209-32.11 18.209-32.11s19.774-49.751 12.223-57.506c6.417 3.22 4.126 27.937 4.126 27.937s28.98 36.145 18.164 64.989Z" style="mix-blend-mode:soft-light" opacity=".3" fill="#000000" class="color000 svgShape"/><path fill="#aa6b3f" d="M1237.08 107.989a127.095 127.095 0 0 1-.109 25.119l-.482-2.108a42.923 42.923 0 0 1 4.668 9.34 34.768 34.768 0 0 1 2.12 10.264 24.415 24.415 0 0 1-1.764 10.496 17.752 17.752 0 0 1-6.722 7.768 27.38 27.38 0 0 0 3.2-8.818 30.159 30.159 0 0 0-.33-8.83 48.084 48.084 0 0 0-2.557-8.624 65.133 65.133 0 0 0-3.841-8.182l-.652-1.135.17-.974a127.136 127.136 0 0 1 6.299-24.316ZM1222.89 88.764a90.738 90.738 0 0 1-3.416 21.31 126.692 126.692 0 0 1-7.247 20.106l-.248.538-.013.015a71.934 71.934 0 0 1-7.843 7.925 71.999 71.999 0 0 1 4.058-10.385l-.26.552a126.745 126.745 0 0 1 5.568-20.633 90.707 90.707 0 0 1 9.401-19.428Z" class="coloraa6b3f svgShape"/><path fill="#aa6b3f" d="M1179.405 65.878a4.014 4.014 0 0 1 4.16-2.116 8.118 8.118 0 0 1 4.38 2.52 41.621 41.621 0 0 1 5.211 7.483 157.77 157.77 0 0 1 7.928 15.605c2.373 5.31 4.455 10.74 6.32 16.26a113.353 113.353 0 0 1 4.5 17.007c-6.899-9.674-11.995-20.089-16.77-30.63-2.353-5.281-4.484-10.663-6.536-16.043a81.583 81.583 0 0 0-3.164-7.733 6.473 6.473 0 0 0-2.363-2.743 3.39 3.39 0 0 0-3.666.39ZM1188.56 43.906a102.465 102.465 0 0 1 9.889 12.865q4.46 6.696 8.302 13.73c2.571 4.683 4.9 9.499 7.04 14.416a101.348 101.348 0 0 1 5.437 15.29 101.343 101.343 0 0 1-9.897-12.86c-2.97-4.465-5.754-9.034-8.295-13.733q-3.84-7.034-7.031-14.422a102.503 102.503 0 0 1-5.445-15.286Z" class="coloraa6b3f svgShape"/><path fill="#f2af7c" d="M595.793 292.914a241.692 241.692 0 0 1-16.02-41.196c-6.867-23.802-18.31-34.788-19.226-60.879s-1.373-48.062-1.373-48.062 9.613-1.83 13.732 16.936 7.324 34.788 7.324 34.788l6.408 7.324s5.035-22.887 13.732-20.14 5.035 14.647 5.035 14.647 9.613-8.697 14.19-1.373c0 0 7.782-10.07 20.598-2.746s-5.035 13.732-9.612 14.647-5.035 15.563-5.035 15.563 32.957 38.45 15.563 66.372-45.316 4.12-45.316 4.12Z" class="colorf2af7c svgShape"/><path fill="#c67f4e" d="M586.18 259.5a48.533 48.533 0 0 1-4.522-14.152 80.086 80.086 0 0 1-1.197-14.741c.248-9.84 1.861-19.745 6.177-28.782.47 5.01.406 9.816.423 14.609l-.141 14.263-.254 14.246c-.08 4.78-.213 9.564-.486 14.557ZM605.406 196.332c1.013 7.364 1.462 14.693 1.906 21.946l.378 5.388a26.656 26.656 0 0 0 .606 4.618c.137.156.146.09.297.35l.735.927 1.707 1.989 3.647 4.126c4.711 5.715 9.369 11.785 12.287 18.96a33.522 33.522 0 0 1 2.745 11.257 19.698 19.698 0 0 1-2.795 11c1.483-7.407-.972-14.036-4.478-20.034-3.488-6.021-8.024-11.529-12.684-17.003l-3.508-4.196-1.806-2.227-.931-1.253a10.163 10.163 0 0 1-1.03-2.04 27.426 27.426 0 0 1-.438-6.287c-.01-1.888.108-3.736.243-5.585a141.59 141.59 0 0 1 3.119-21.936ZM619.595 194.96a30.159 30.159 0 0 1 2.167 8.343 50.871 50.871 0 0 1 .374 8.269 47.172 47.172 0 0 1-1.05 8.21 29.885 29.885 0 0 1-2.864 8.134 29.871 29.871 0 0 1-2.176-8.344 47.139 47.139 0 0 1-.365-8.269 50.954 50.954 0 0 1 1.06-8.21 30.172 30.172 0 0 1 2.854-8.134Z" class="colorc67f4e svgShape"/><path fill="#aa6b3f" d="M605.406 229.29a28.245 28.245 0 0 1 9.383-5.39 29.432 29.432 0 0 1 4.948-1.248 20.518 20.518 0 0 1 5.809-.23c-1.738 4.067-5.087 6.306-8.63 7.628a15.901 15.901 0 0 1-5.658.868 11.131 11.131 0 0 1-5.852-1.629Z" class="coloraa6b3f svgShape"/><path fill="#a9a35f" d="M730.367 155.899s24.413 12.206 54.928-6.103c0 0 93.989 220.933 118.401 303.936 0 0-21.971 90.326-64.693 122.063 0 0-79.34-246.567-108.636-419.896Z" class="colora9a35f svgShape"/><path d="M903.698 453.737s-21.973 90.319-64.694 122.065c0 0-79.344-246.579-108.641-419.914 0 0 24.422 12.222 54.921-6.1 0 0 2.517 5.919 6.825 16.168-7.256 5.737-18.775 11.157-36.303 11.157l102.042 306.126s23.515-7.846 38.753-51.838c2.743 8.21 5.147 15.715 7.097 22.336Z" style="mix-blend-mode:soft-light" opacity=".3" fill="#000000" class="color000 svgShape"/><path fill="#0097bb" d="M596.163 537.602c-20.343 18.195-72.228 69.364-90.097 132.479 0 0-3.093.976-8.66 2.44 1.107-17.967 3.19-67.996-6.217-99.277 21.68-14.387 36.815-22.85 47.85-27.668 9.277-4.068 37.594-6.64 57.124-7.974Z" class="color0097bb svgShape"/><path d="M596.163 537.602c-20.343 18.195-72.228 69.364-90.097 132.479 0 0-3.093.976-8.66 2.44 1.107-17.967 3.19-67.996-6.217-99.277 21.68-14.387 36.815-22.85 47.85-27.668 9.277-4.068 37.594-6.64 57.124-7.974Z" style="mix-blend-mode:soft-light" opacity=".3" fill="#000000" class="color000 svgShape"/><path fill="#3a1d31" d="M262.558 1152.538s-18.798 36.002 27.585 81.165 192.25 109.246 223.985 125.115 164.175 62.862 190.418 62.252 64.453 1.82 70.676-9.465c0 0-164.664-68.045-217.151-91.237s-144.034-98.26-171.498-125.725-101.922-53.707-103.753-53.707-20.262 11.602-20.262 11.602Z" class="color3a1d31 svgShape"/><path fill="#e6c0f2" d="m461.219 1335.635-.052 38.335s-21.259 37.415-18.708 50.17 51.021 5.953 68.878-11.904 18.708-76.532 18.708-76.532l-52.721-8.503Z" class="colore6c0f2 svgShape"/><path d="M530.043 1335.697s-.839 58.685-18.707 76.531c-17.846 17.869-66.327 24.672-68.867 11.905a8.157 8.157 0 0 1-.113-.793c33.084-6.871 77.37-34.513 69.841-43.425-5.669-6.667-31.837-6.213-51.655-4.785.407-.748.634-1.156.634-1.156l.046-38.345 16.1-8.436Z" style="mix-blend-mode:soft-light" opacity=".3" fill="#000000" class="color000 svgShape"/><path fill="#0281a3" d="m437.417 1249.58 23.802 86.055s66.83 3.662 77.815-9.155-101.617-76.9-101.617-76.9Z" class="color0281a3 svgShape"/><path d="m437.417 1249.58 23.802 86.055s66.83 3.662 77.815-9.155-101.617-76.9-101.617-76.9Z" style="mix-blend-mode:soft-light" opacity=".3" fill="#000000" class="color000 svgShape"/><path fill="#0281a3" d="M520.724 1320.072s40.281 177.6 47.605 214.22 12.817 64.998 11.901 73.237 10.07 21.056 13.732 32.957 6.408 24.718 6.408 24.718 41.196 17.394 72.322-12.817c0 0 0-8.239-.915-23.802s-2.746-10.985-6.408-34.788-30.21-117.18-32.042-139.151-10.07-117.18-10.07-117.18Z" class="color0281a3 svgShape"/><path d="M636.099 1669.737c11.429-21.293-11.225-68.436-19.32-97.212-11.474-40.817-21.678-122.45-31.882-149.23-7.098-18.618-35.76-40.319-52.564-51.815-6.689-29.751-11.61-51.407-11.61-51.407l102.541 17.393s8.231 95.216 10.068 117.189c1.837 21.973 28.368 115.33 32.042 139.14 3.65 23.81 5.488 19.23 6.394 34.785.93 15.578.93 23.81.93 23.81a61.756 61.756 0 0 1-36.599 17.347Z" style="mix-blend-mode:soft-light" opacity=".3" fill="#000000" class="color000 svgShape"/><path fill="#e6c0f2" d="M775.222 1411.605c-46.676 22.915-98.855-14.648-162.033-32.94-63.18-18.326-167.537-87.886-234.361-157.478-66.827-69.56-116.27-68.649-116.27-68.649s7.324-22.882 14.648-33.884a138.199 138.199 0 0 0 6.672-12.857c24.153-1.075 67.314 9.113 119.655 74.213 81.472 101.297 251.157 167.21 307.306 180.654a482.933 482.933 0 0 0 60.281 10.774c2.248 24.445 4.102 40.167 4.102 40.167Z" class="colore6c0f2 svgShape"/><path d="M425.576 1204.516c31.813 32.019 71.723 59.865 112.019 82.926-.998 20.681-1.52 39.615-1.792 55.76-45.306-26.258-94.808-62.698-135.376-100.726q12.891-20.102 25.149-37.96ZM775.215 1411.616c-16.575 8.14-33.832 8.64-52.04 5.08 3.424-11.724 7.845-32.926 2.607-52.677a440.746 440.746 0 0 0 45.33 7.415c2.244 24.445 4.103 40.182 4.103 40.182Z" style="mix-blend-mode:soft-light" opacity=".3" fill="#000000" class="color000 svgShape"/><path fill="#35331c" d="M983.9 1225.906c-10.35-75.256-13.54-161.578-22.85-166.754 0 0 39.485 4.134 47.263 27.472 7.553 22.525-24.574 97.846-24.412 139.282Z" class="color35331c svgShape"/><path fill="#cec7c2" d="M1194.348 444.11s20.67 70.27-58.777 56.623c0 0-10.14 45.092-74.006 31.612-26.65-5.62-45.3-12.617-57.992-18.848-13.467 4.306-32.941 8.499-60.126 10.157-65.142 3.988-68.582-42.104-68.582-42.104-80.59 1.872-49.856-64.616-49.856-64.616-37.938-47.651 23.133-75.829 23.133-75.829-20.047-85.342 36.924-90.902 36.924-90.902l129.29 1.754 8.461.112 8.378 1.127 128.155 17.188s55.544 13.84 23.213 95.328c0 0 56.289 36.813 11.785 78.397Z" class="colorcec7c2 svgShape"/><path fill="#cec7c2" d="m1030.794 278.522-8.377-1.128 8.383.114-.006 1.014zM1022.417 277.394l-8.461-.111.143-1.003 8.318 1.114z" class="colorcec7c2 svgShape"/><path fill="#ce8d61" d="M1134.045 427.97c10.491 12.69 25.088 10.93 38.602 2.337l.009.001c26.29-16.703 48.51-59.173 28.63-71.263a34.563 34.563 0 0 0-28.29-4.04c-16.702 4.674-28.446 19.612-28.446 19.612s-41.405 15.972-10.505 53.353Z" class="colorce8d61 svgShape"/><path d="M1134.045 427.97c10.491 12.69 25.088 10.93 38.602 2.337-18.776 3.3-20.024-16.253-20.024-16.253 17.681 15.934 51.818-28.364 45.147-39.257-6.68-10.894-31.585 5.148-31.585 5.148-3.188-12.041 2.28-20.385 6.81-24.94-16.7 4.674-28.445 19.612-28.445 19.612s-41.405 15.972-10.505 53.353Z" style="mix-blend-mode:soft-light" opacity=".3" fill="#000000" class="color000 svgShape"/><path fill="#aa6b3f" d="M1143.682 416.244a48.748 48.748 0 0 1 4.454-18.627 53.542 53.542 0 0 1 11.03-16.141 41.48 41.48 0 0 1 16.915-10.226c6.268-2.245 13.064-2.06 19.254-.94-6.188 1.767-12.05 3.054-17.247 5.95a53.388 53.388 0 0 0-14.084 10.152c-8.349 8.197-14.549 18.561-20.322 29.832Z" class="coloraa6b3f svgShape"/><path fill="#ce8d61" d="M889.397 409.969c-12.236 11.019-26.418 7.14-38.529-3.338h-.008c-23.562-20.371-39.328-65.636-17.892-74.687a34.563 34.563 0 0 1 28.578.144c15.837 7.068 25.268 23.565 25.268 23.565s38.622 21.86 2.583 54.316Z" class="colorce8d61 svgShape"/><path d="M889.397 409.969c-12.236 11.019-26.418 7.14-38.529-3.338 18.091 6.012 22.188-13.147 22.188-13.147-19.823 13.174-47.108-35.644-38.915-45.443 8.202-9.798 30.491 9.716 30.491 9.716 4.917-11.445.729-20.5-3.086-25.67 15.837 7.07 25.268 23.566 25.268 23.566s38.622 21.86 2.583 54.316Z" style="mix-blend-mode:soft-light" opacity=".3" fill="#000000" class="color000 svgShape"/><path fill="#aa6b3f" d="M881.58 396.959c-4.061-11.995-8.678-23.155-15.736-32.485a53.402 53.402 0 0 0-12.447-12.105c-4.716-3.626-10.329-5.757-16.19-8.41 6.286-.202 13.037.61 18.908 3.748a41.489 41.489 0 0 1 15.237 12.591 53.557 53.557 0 0 1 8.548 17.582 48.75 48.75 0 0 1 1.68 19.079Z" class="coloraa6b3f svgShape"/><path fill="#ce8d61" d="M899.711 288.866s-90.965 232.143 101.297 246.29c0 0 194.988 23.798 140.338-225.933 0 0-40.699-65.711-63.456-71.681s-126.88-15.35-126.88-15.35Z" class="colorce8d61 svgShape"/><path d="M1128.407 480.138c-41.908 65.449-127.4 55.015-127.4 55.015-192.257-14.146-101.295-246.286-101.295-246.286l51.299-66.674s104.12 9.377 126.878 15.351c19.194 5.027 51.15 52.559 60.692 67.321l-21.949-1.052s-119.459-.017-162.9 27.022c-43.433 27.031-44.763 164.441 31.763 184.696 70.14 18.57 113.727-2.91 142.912-35.393Z" style="mix-blend-mode:soft-light" opacity=".3" fill="#000000" class="color000 svgShape"/><path fill="#cec7c2" d="M930.147 314.901a105.25 105.25 0 0 1-3.857 13.655 124.168 124.168 0 0 1-10.764 22.595 157.935 157.935 0 0 1-36.555 41.468c-10.578-13.98-15.016-27.188-15.597-39.202a58.328 58.328 0 0 1 1.292-15.205 63.479 63.479 0 0 1 1.885-6.77 78.04 78.04 0 0 1 10.824-20.571 106.268 106.268 0 0 1 23.74-23.643s12.36-85.16 28.632-14.72a97.084 97.084 0 0 1 .4 42.393Z" class="colorcec7c2 svgShape"/><path fill="#eae6e4" d="M926.29 328.556a124.168 124.168 0 0 1-10.764 22.595c-20.596 14.955-44.12 6.081-52.152 2.266a58.328 58.328 0 0 1 1.292-15.205c26.378 12.378 50.805-1.636 61.624-9.656Z" class="coloreae6e4 svgShape"/><path fill="#eae6e4" d="M930.147 314.901c-18.058 24.763-48.288 20.675-63.596 16.541a78.04 78.04 0 0 1 10.824-20.571c23.84 3.635 46.3-8.738 54.897-14.251a97.757 97.757 0 0 1-2.125 18.281Z" class="coloreae6e4 svgShape"/><path fill="#cec7c2" d="M1107.649 327.962a105.262 105.262 0 0 0 1.816 14.072 124.165 124.165 0 0 0 7.341 23.928 157.936 157.936 0 0 0 30.092 46.37c12.51-12.28 18.834-24.697 21.167-36.496a58.326 58.326 0 0 0 .947-15.23 63.484 63.484 0 0 0-.874-6.973 78.044 78.044 0 0 0-7.696-21.934 106.27 106.27 0 0 0-20.024-26.863s.238-86.052-26.169-18.752a97.089 97.089 0 0 0-6.6 41.878Z" class="colorcec7c2 svgShape"/><path fill="#eae6e4" d="M1109.465 342.034a124.165 124.165 0 0 0 7.342 23.928c18.185 17.808 42.754 12.473 51.258 9.874a58.326 58.326 0 0 0 .947-15.23c-27.905 8.383-50.018-9.055-59.547-18.572Z" class="coloreae6e4 svgShape"/><path fill="#eae6e4" d="M1107.649 327.962c14.239 27.14 44.741 27.52 60.49 25.67a78.044 78.044 0 0 0-7.697-21.933c-24.115.106-44.522-15.42-52.22-22.133a97.757 97.757 0 0 0-.573 18.396Z" class="coloreae6e4 svgShape"/><path fill="#cec7c2" d="M1048.415 344.3a188.789 188.789 0 0 0 32.013 16.126c1.825.728 3.537 1.377 5.115 1.947a32.314 32.314 0 0 0 9.651 1.92 15.178 15.178 0 0 0 1.763.035 29.813 29.813 0 0 0 7.215-.9 25.615 25.615 0 0 0 2.257-.61 35.355 35.355 0 0 0-.255-8.11 33.953 33.953 0 0 0-10.304-20.56 30.016 30.016 0 0 0-2.496-2.091 35.587 35.587 0 0 0-7.254-4.237 25.8 25.8 0 0 0-9.178-2.315c-17.844-1.08-28.527 18.796-28.527 18.796Z" class="colorcec7c2 svgShape"/><path fill="#eae6e4" d="M1096.957 364.328a29.813 29.813 0 0 0 7.215-.9 69.816 69.816 0 0 0 2.002-8.72 33.953 33.953 0 0 0-10.304-20.56c2.509 8.76 3.9 19.649 1.087 30.18Z" class="coloreae6e4 svgShape"/><path fill="#eae6e4" d="M1076.942 325.505a141.423 141.423 0 0 1 3.486 34.92c1.825.729 3.537 1.378 5.115 1.948a32.314 32.314 0 0 0 9.651 1.92c1.422-8.748 1.93-20.529-1.82-32.236a35.587 35.587 0 0 0-7.254-4.237 25.8 25.8 0 0 0-9.178-2.315Z" class="coloreae6e4 svgShape"/><ellipse cx="959.351" cy="372.966" rx="22.818" ry="19.979" transform="rotate(-85.791 959.357 372.967)" style="mix-blend-mode:soft-light" opacity=".45" fill="#000000" class="color000 svgShape"/><path fill="#1b1723" d="M972.043 379.845c-.683 8.307-7.132 14.54-14.404 13.922s-12.612-7.852-11.928-16.159 7.132-14.54 14.404-13.922 12.612 7.853 11.928 16.16Z" class="color1b1723 svgShape"/><path fill="#ffffff" d="M957.637 373.224a4.457 4.457 0 0 1-4.52 4.369c-2.282-.194-3.958-2.464-3.744-5.071a4.457 4.457 0 0 1 4.52-4.37c2.283.194 3.959 2.465 3.744 5.072Z" class="colorfff svgShape"/><ellipse cx="957.835" cy="379.39" fill="#ffffff" rx="2.398" ry="2.1" transform="rotate(-85.789 957.835 379.39)" class="colorfff svgShape"/><ellipse cx="1063.57" cy="381.82" rx="22.818" ry="19.979" transform="rotate(-85.791 1063.57 381.82)" style="mix-blend-mode:soft-light" opacity=".45" fill="#000000" class="color000 svgShape"/><ellipse cx="1063.096" cy="387.58" fill="#1b1723" rx="15.091" ry="13.214" transform="rotate(-85.791 1063.1 387.581)" class="color1b1723 svgShape"/><path fill="#ffffff" d="M1061.856 382.077a4.457 4.457 0 0 1-4.52 4.37c-2.282-.194-3.958-2.465-3.744-5.072a4.457 4.457 0 0 1 4.52-4.369c2.283.194 3.959 2.465 3.744 5.071ZM1064.146 388.422a2.118 2.118 0 1 1-1.895-2.568 2.257 2.257 0 0 1 1.895 2.568Z" class="colorfff svgShape"/><path fill="#cec7c2" d="M986.4 339.033a187.76 187.76 0 0 1-34.203 10.5c-1.92.409-3.714.76-5.363 1.056a32.254 32.254 0 0 1-9.831.265 15.194 15.194 0 0 1-1.744-.263 29.904 29.904 0 0 1-6.968-2.104 25.736 25.736 0 0 1-2.126-.983 35.299 35.299 0 0 1 1.578-7.955 33.728 33.728 0 0 1 13.521-18.535 29.794 29.794 0 0 1 2.803-1.641 35.363 35.363 0 0 1 7.846-2.955 25.737 25.737 0 0 1 9.429-.734c17.773 1.945 25.059 23.349 25.059 23.349Z" class="colorcec7c2 svgShape"/><path fill="#eae6e4" d="M935.26 350.591a29.904 29.904 0 0 1-6.97-2.104 69.96 69.96 0 0 1-.547-8.938 33.728 33.728 0 0 1 13.521-18.535c-3.906 8.215-7.057 18.718-6.005 29.577Z" class="coloreae6e4 svgShape"/><path fill="#eae6e4" d="M961.342 315.684a141.01 141.01 0 0 0-9.145 33.848c-1.92.41-3.714.762-5.363 1.057a32.254 32.254 0 0 1-9.831.265c.027-8.866 1.452-20.57 7.064-31.481a35.363 35.363 0 0 1 7.846-2.955 25.737 25.737 0 0 1 9.429-.734Z" class="coloreae6e4 svgShape"/><path fill="#d18e2c" d="m1099.087 288.072 42.259 21.15s45.969-29.264 49.012-82.306-106.67-103.211-208.129-102.085-155.196 65.902-147.771 105.109 65.253 58.926 65.253 58.926l71.741-5.89Z" class="colord18e2c svgShape"/><path d="M1160.745 292.4a112.765 112.765 0 0 1-19.398 16.82l-42.263-21.148-127.632-5.1-71.74 5.895s-57.833-19.72-65.255-58.928c-2.178-11.507.91-25.218 8.93-38.888.633 10.007 3.67 21.733 14.301 22.516 18.753 1.38-.644-44.257 115.55-50.66s175.48 31.765 182.563 54.72c6.155 19.905-10.522 64.066 4.944 74.774Z" style="mix-blend-mode:soft-light" opacity=".3" fill="#000000" class="color000 svgShape"/><path fill="#cec7c2" d="M1013.692 430.487c-16.672 41.032-51.046 8.926-50.368 39.533.669 30.605-39.47 28.302-45.494 17.456-6.033-10.846 7.247-18.97 7.247-18.97-6.918 5.663 4.222 13.313 9.153 8.145 3.268-3.417.005-15.03.464-27.635.222-6.425 1.415-13.107 4.925-19.099 6.969-11.891 19.944-16.346 27.754-17.99a45.648 45.648 0 0 1 6.467-.946Z" class="colorcec7c2 svgShape"/><path fill="#eae6e4" d="M934.694 449.016c.222-6.425 1.415-13.107 4.925-19.099 6.969-11.891 19.944-16.346 27.754-17.99-.27 14.517-3.67 52.694-32.679 37.089Z" class="coloreae6e4 svgShape"/><path fill="#cec7c2" d="M1005.863 429.911c10.487 43.03 49.19 16.302 44.04 46.479-5.142 30.178 34.902 33.774 42.448 23.928 7.556-9.847-4.392-19.828-4.392-19.828 6.015 6.615-6.125 12.552-10.246 6.719-2.733-3.86 2.195-14.87 3.585-27.406.722-6.388.519-13.173-2.076-19.614-5.153-12.783-17.337-19.089-24.822-21.859a45.654 45.654 0 0 0-6.258-1.882Z" class="colorcec7c2 svgShape"/><path fill="#eae6e4" d="M1081.298 459.803c.722-6.388.519-13.173-2.076-19.614-5.153-12.783-17.337-19.089-24.822-21.859-1.857 14.4-4.083 52.664 26.898 41.473Z" class="coloreae6e4 svgShape"/><ellipse cx="1010.941" cy="411.078" fill="#eaae86" rx="19.479" ry="37.486" transform="rotate(-85.088 1010.94 411.078)" class="coloreaae86 svgShape"/><path fill="#aa6b3f" d="M1048.327 413.612c.71 3.984-1.568 8.244-4.577 11.062a31.534 31.534 0 0 1-10.643 6.307c-7.732 2.918-16.018 3.5-24.091 2.947-8.05-.818-16.117-2.792-23.247-6.974a31.665 31.665 0 0 1-9.43-8.01c-2.488-3.288-4.032-7.859-2.676-11.675a13.416 13.416 0 0 0 5.184 9.385 35.542 35.542 0 0 0 9.34 5.475 78.643 78.643 0 0 0 43.358 3.708 35.384 35.384 0 0 0 10.128-3.825 13.321 13.321 0 0 0 6.654-8.4Z" class="coloraa6b3f svgShape"/><path fill="#5b4a24" d="M870.376 241.078s-42.455-98.937 145.957-85.074 144.139 108.614 118.549 118.433-13.968 13.117-13.968 13.117 48.971-1.765 49.67-60.957-103.713-81.502-154.636-85.249-119.164-.723-146.329 40.431-1.233 66.467 7.443 67.836-6.686-8.537-6.686-8.537Z" class="color5b4a24 svgShape"/><path fill="#f9d7a5" d="M912.492 278.638s102.958 32.7 192.87 16.355a33.186 33.186 0 0 0 15.55-7.439c11.077-9.44 30.346-29.717 30.49-56.631.187-34.726-155.17-95.41-260.554-38.896-21.745 11.661-29.118 40.122-14.55 60.036 7.188 9.824 18.49 19.473 36.194 26.575Z" class="colorf9d7a5 svgShape"/><path d="M1149.398 245.632c-5.229 19.57-19.53 34.285-28.484 41.922a33.167 33.167 0 0 1-15.552 7.438c-89.916 16.347-192.874-16.359-192.874-16.359-17.699-7.101-29.003-16.75-36.186-26.57-12.264-16.757-8.982-39.565 5.318-53.318a39.277 39.277 0 0 0 7.25 28.237c7.191 9.822 18.488 19.47 36.195 26.571 0 0 102.958 32.706 192.874 16.359a33.095 33.095 0 0 0 15.544-7.438 105.834 105.834 0 0 0 15.915-16.842Z" style="mix-blend-mode:soft-light" opacity=".3" fill="#000000" class="color000 svgShape"/><path fill="#c1945d" d="M913.481 182.08a111.174 111.174 0 0 0-8.484 23.614 100.161 100.161 0 0 0-2.863 24.42 53.814 53.814 0 0 0 .19 6.139 49.268 49.268 0 0 0 .553 6.125l.803 6.124 1.316 6.056c.695 4.107 2.217 7.991 3.292 12.062 1.24 4.015 2.945 7.87 4.2 12.013a114.597 114.597 0 0 1-6.936-10.853c-1.765-3.912-3.955-7.728-5.099-11.931-3.086-8.17-4.139-17-4.367-25.735a76.177 76.177 0 0 1 4.401-25.758 62.784 62.784 0 0 1 12.994-22.275ZM955.703 171.535a180.854 180.854 0 0 0-9.166 29.838 140.469 140.469 0 0 0-3.17 30.53 106.355 106.355 0 0 0 4.242 30.217c2.511 9.996 7.19 19.247 11.996 28.676-6.713-8.041-13.06-16.953-16.481-27.2l-1.478-3.766c-.427-1.276-.683-2.6-1.033-3.901-.625-2.619-1.375-5.223-1.892-7.87a111.247 111.247 0 0 1-1.401-16.108 107.637 107.637 0 0 1 4.663-31.758 100.165 100.165 0 0 1 13.72-28.658ZM992.504 168.391a226.858 226.858 0 0 1 4.473 31.806c.844 10.676 1.12 21.387.998 32.09-.244 10.701-.717 21.403-1.92 32.045a266.095 266.095 0 0 1-5.14 31.694c-.015-21.44.782-42.601 1.013-63.826.241-10.606.224-21.211.348-31.834ZM1038.955 173.272c5.845 9.182 8.67 20.066 10.289 30.79a163.205 163.205 0 0 1 1.486 16.287c.027 5.44.071 10.895-.314 16.317-.27 5.437-.992 10.818-1.653 16.203-.792 5.366-1.833 10.686-2.9 15.99q-1.9 7.895-4.087 15.696c-1.782 5.119-3.36 10.274-5.31 15.31l4.748-31.835c1.237-10.597 2.673-21.137 3.166-31.731a233.23 233.23 0 0 0 .186-31.732c-.363-5.274-.886-10.547-1.76-15.78a75.477 75.477 0 0 0-3.851-15.515ZM1082.588 183.309a95.9 95.9 0 0 1 12.763 28.477 101.886 101.886 0 0 1 3.493 31.353 106.545 106.545 0 0 1-2.06 15.765c-.658 2.57-1.5 5.096-2.242 7.636-.413 1.258-.699 2.556-1.217 3.776l-1.64 3.621c-3.89 9.882-10.621 18.268-17.662 25.765 5.214-8.99 10.296-17.807 13.258-27.471a99.851 99.851 0 0 0 5.523-29.386 131.718 131.718 0 0 0-2.04-30.017 171.904 171.904 0 0 0-8.176-29.519ZM1122.74 200.891a62.412 62.412 0 0 1 10.322 24.01 66.52 66.52 0 0 1 .31 26.56c-1.824 8.719-4.882 17.334-10.014 24.594-2.163 3.88-5.385 6.998-8.162 10.352a109.67 109.67 0 0 1-9.834 8.585c2.41-3.666 5.198-6.896 7.52-10.45 2.143-3.676 4.721-7.016 6.398-10.87.89-1.89 1.915-3.704 2.771-5.59l2.196-5.809a45.039 45.039 0 0 0 1.818-5.906 37.401 37.401 0 0 0 1.362-6.015 81.382 81.382 0 0 0 .989-24.716 107.655 107.655 0 0 0-5.676-24.745Z" class="colorc1945d svgShape"/><ellipse cx="1036.481" cy="220.143" fill="#ffffff" rx="35.256" ry="97.257" transform="rotate(-85.792 1036.481 220.143)" style="mix-blend-mode:soft-light" opacity=".56" class="colorfff svgShape"/><path fill="#f30005" d="M993.078 168.901c-9.154-10.145-6.933-17.874-5.479-24.184s7.44-2.472 7.44-2.472 2.49-2.46-2.29-9.228-6.311-8.392-6.55-18.601-5.35-12.473-2.967-17.96a8.043 8.043 0 0 1 7.633-5.1s2.5-16.047 8.846-17.09 8.716 11.588 8.716 11.588.176-15.841 2.307-13.42 4.529 14.678 4.529 14.678-.594-9.858 3.644-9.17 3.416 2.895 7.081 2.41 4.874-7.947 14.142-3.867.429 12.11.29 13.988 3.776-1.988 5.279.01.566 10.234-3.675 14.074-.829 11.263 1.634 9.18 8.176.979 5.793 6.466-6.028 14.655-5.679 23.362a27.145 27.145 0 0 0 6.014-1.527c4.002-1.38-3.33 22.07-14.592 29.33s-28.025 13.149-42.116-2.467Z" class="colorf30005 svgShape"/><path fill="#c1050e" d="M1047.547 154.981c-2.789 6.218-7.148 13.032-12.353 16.385-11.257 7.26-28.022 13.151-42.112-2.466-9.162-10.14-6.937-17.873-5.485-24.181 1.453-6.316 7.447-2.477 7.447-2.477s2.486-2.453-2.295-9.228c-4.78-6.766-6.309-8.387-6.545-18.598-.246-10.213-5.359-12.47-2.97-17.963a8.038 8.038 0 0 1 7.631-5.1s2.498-16.043 8.842-17.084a4.348 4.348 0 0 1 2.942.545 9.845 9.845 0 0 0-1.056 1.865c-2.389 5.484 2.723 7.75 2.969 17.962.237 10.203 1.765 11.833 6.546 18.599 4.781 6.766 2.294 9.227 2.294 9.227s-5.994-3.839-7.446 2.47c-1.453 6.315-3.677 14.04 5.485 24.189 11.758 13.027 25.38 11.082 36.106 5.855Z" class="colorc1050e svgShape"/><circle cx="863.853" cy="447.909" r="16.209" fill="#1e94af" transform="rotate(-78.053 863.853 447.91)" class="color1e94af svgShape"/><circle cx="861.956" cy="443.869" r="9.745" fill="#46b9cc" transform="rotate(-40.792 861.956 443.869)" class="color46b9cc svgShape"/><path fill="#cec7c2" d="M874.15 423.921a8.267 8.267 0 1 1-7.637-8.851 8.267 8.267 0 0 1 7.638 8.851Z" class="colorcec7c2 svgShape"/><path fill="#eae6e4" d="M869.896 421.619a4.97 4.97 0 1 1-4.592-5.322 4.97 4.97 0 0 1 4.592 5.322Z" class="coloreae6e4 svgShape"/><path fill="#f7991e" d="M874.515 407.37a8.267 8.267 0 1 1-7.637-8.852 8.267 8.267 0 0 1 7.637 8.852Z" class="colorf7991e svgShape"/><path fill="#f4bd21" d="M870.26 405.067a4.97 4.97 0 1 1-4.592-5.321 4.97 4.97 0 0 1 4.592 5.321Z" class="colorf4bd21 svgShape"/><circle cx="1158.717" cy="469.605" r="16.21" fill="#1e94af" transform="rotate(-72.687 1158.717 469.605)" class="color1e94af svgShape"/><circle cx="1161.185" cy="465.886" r="9.745" fill="#46b9cc" transform="rotate(-20.972 1161.185 465.886)" class="color46b9cc svgShape"/><circle cx="1160.285" cy="444.975" r="8.267" fill="#cec7c2" transform="rotate(-61.232 1160.285 444.975)" class="colorcec7c2 svgShape"/><path fill="#eae6e4" d="M1156.587 442.713a4.97 4.97 0 1 0 5.322-4.592 4.97 4.97 0 0 0-5.322 4.592Z" class="coloreae6e4 svgShape"/><circle cx="1162.347" cy="428.548" r="8.267" fill="#f7991e" transform="rotate(-69.874 1162.347 428.548)" class="colorf7991e svgShape"/><path fill="#f4bd21" d="M1158.65 426.287a4.97 4.97 0 1 0 5.32-4.592 4.97 4.97 0 0 0-5.32 4.592Z" class="colorf4bd21 svgShape"/><path fill="#aa6b3f" d="M989.425 479.478c7.206 1.115 13.357 2.377 19.7 2.93 3.143.32 6.287.58 9.523.614 3.267.157 6.536-.07 10.28.142-5.417 5.01-13.235 6.898-20.512 6.122a30.462 30.462 0 0 1-10.506-3.016 22.61 22.61 0 0 1-8.485-6.792Z" class="coloraa6b3f svgShape"/><path fill="#e08c96" d="M394.849 587.82c-79.094-17.846-80.364-68.867-80.364-135.194 0-32.495-13.787-53.062-27.823-65.579 12.472-.453 22.653 1.837 28.98 9.32 30.204 35.715 98.89 43.946 98.89 43.946s45.76 15.556 62.245 17.37a26.257 26.257 0 0 0 2.858.113c8.752 70.772-10.25 146.873-84.786 130.024Z" class="colore08c96 svgShape"/><path d="M460.586 454.327c-33.605 9.229-95.669 23.492-145.964 19.524-.114-6.871-.137-13.946-.137-21.225 0-32.495-13.787-53.062-27.823-65.579 12.472-.453 22.653 1.837 28.98 9.32 30.205 35.715 98.89 43.946 98.89 43.946s26.168 8.889 46.054 14.014Z" style="mix-blend-mode:soft-light" opacity=".3" fill="#000000" class="color000 svgShape"/><path fill="#2b2928" d="M226.616 371.5s-27.597 66.457 45.79 62.877c0 0 3.398 45.539 62.712 40.196 24.75-2.224 42.462-6.79 54.702-11.34 11.596 5.893 28.624 12.419 52.93 17.408 58.238 11.97 67.215-32.87 67.215-32.87 72.44 11.802 53.198-57.295 53.198-57.295 40.286-42.107-11.198-77.331-11.198-77.331 28.955-81.335-21.714-93.84-21.714-93.84l-116.823-14.261-7.644-.937-7.699.072-117.765 1.035s-51.855 6.724-33.084 90.75c0 0-55.455 29.195-20.62 75.537Z" class="color2b2928 svgShape"/><path fill="#f2af7c" d="M511.161 359.328c9.568 13.39 22.868 11.08 35.175 1.432h.008c23.943-18.752 44.162-65.175 26.04-77.653-9.22-6.35-18.082-6.352-25.782-3.56-15.215 5.512-25.905 21.952-25.905 21.952s-37.717 18.39-9.536 57.829Z" class="colorf2af7c svgShape"/><path d="M511.161 359.328c9.568 13.39 22.868 11.08 35.175 1.432-17.106 4.088-18.257-16.962-18.257-16.962 16.122 16.684 47.196-32.047 41.11-43.606-6.093-11.558-28.776 6.442-28.776 6.442a30.776 30.776 0 0 1 6.19-27.087c-15.216 5.512-25.906 21.952-25.906 21.952s-37.717 18.39-9.536 57.829Z" style="mix-blend-mode:soft-light" opacity=".3" fill="#000000" class="color000 svgShape"/><path fill="#c67f4e" d="M519.935 346.412a56.365 56.365 0 0 1 3.41-18.794 60.286 60.286 0 0 1 9.162-17.127 44.572 44.572 0 0 1 15.329-12.441 33.67 33.67 0 0 1 19.131-2.627c-6.172 1.802-11.789 3.752-16.695 7.044a58.94 58.94 0 0 0-12.685 12.015 100.515 100.515 0 0 0-9.633 15.138c-2.83 5.39-5.462 10.966-8.02 16.792Z" class="colorc67f4e svgShape"/><path fill="#2b2928" d="M495.29 252.69a132.024 132.024 0 0 0 1.665 15.124 149.17 149.17 0 0 0 6.706 25.596 167.764 167.764 0 0 0 27.45 49.157c11.391-13.597 17.144-27.164 19.262-39.954a74.572 74.572 0 0 0 .852-16.45 79.647 79.647 0 0 0-.8-7.495 92.456 92.456 0 0 0-7.028-23.435 109.503 109.503 0 0 0-18.264-28.404s.158-92.8-23.857-19.483a123.708 123.708 0 0 0-5.985 45.345Z" class="color2b2928 svgShape"/><path fill="#423f3e" d="M496.955 267.814a149.17 149.17 0 0 0 6.706 25.596c16.582 18.69 38.965 12.245 46.712 9.203a74.572 74.572 0 0 0 .852-16.45c-25.42 9.827-45.581-8.354-54.27-18.349Z" class="color423f3e svgShape"/><path fill="#423f3e" d="M495.29 252.69c12.993 28.865 40.787 28.416 55.134 25.978a92.456 92.456 0 0 0-7.027-23.435c-21.973.794-40.578-15.374-47.597-22.395a124.923 124.923 0 0 0-.51 19.853Z" class="color423f3e svgShape"/><path fill="#f7991e" d="M514.423 402.45c-.592 9.646 5.523 17.836 13.658 18.292s15.211-6.992 15.804-16.639-5.523-17.836-13.658-18.293-15.211 6.993-15.804 16.64Z" class="colorf7991e svgShape"/><ellipse cx="531.4" cy="399.196" fill="#f4bd21" rx="10.521" ry="8.87" transform="rotate(-85.744 531.4 399.196)" class="colorf4bd21 svgShape"/><path fill="#cec7c2" d="M523.054 376.25c-.302 4.92 2.816 9.097 6.965 9.33s7.758-3.567 8.06-8.486-2.816-9.097-6.965-9.33-7.758 3.567-8.06 8.486Z" class="colorcec7c2 svgShape"/><path fill="#eae6e4" d="M527.195 374.338c-.182 2.957 1.693 5.469 4.188 5.609s4.664-2.145 4.846-5.102-1.694-5.47-4.188-5.61-4.664 2.145-4.846 5.103Z" class="coloreae6e4 svgShape"/><ellipse cx="532.434" cy="358.9" fill="#f7991e" rx="8.925" ry="7.524" transform="rotate(-85.745 532.434 358.9)" class="colorf7991e svgShape"/><path fill="#f4bd21" d="M529.063 356.566c-.182 2.957 1.693 5.469 4.188 5.609s4.664-2.144 4.845-5.102-1.693-5.469-4.188-5.61-4.664 2.145-4.845 5.103Z" class="colorf4bd21 svgShape"/><path fill="#f2af7c" d="M287.801 373.077c-11.141 12.227-24.067 8.444-35.108-2.514h-.008c-21.483-21.303-35.88-69.67-16.354-80.034 9.934-5.275 18.734-4.285 26.04-.65 14.435 7.176 23.04 24.699 23.04 24.699s35.206 22.484 2.39 58.499Z" class="colorf2af7c svgShape"/><path d="M287.801 373.077c-11.141 12.227-24.067 8.444-35.108-2.514 16.488 5.974 20.207-14.802 20.207-14.802-18.053 14.764-42.948-37.109-35.489-47.907 7.467-10.797 27.79 9.618 27.79 9.618a30.612 30.612 0 0 0-2.83-27.593c14.435 7.176 23.04 24.699 23.04 24.699s35.206 22.484 2.39 58.499Z" style="mix-blend-mode:soft-light" opacity=".3" fill="#000000" class="color000 svgShape"/><path fill="#c67f4e" d="M280.67 359.268c-1.825-6.072-3.753-11.905-5.9-17.575a98.87 98.87 0 0 0-7.71-16.119 57.775 57.775 0 0 0-11.133-13.353c-4.473-3.82-9.817-6.375-15.725-8.855a33.373 33.373 0 0 1 18.65 4.746 43.95 43.95 0 0 1 13.728 14.107 59.597 59.597 0 0 1 7.007 18.046 55.935 55.935 0 0 1 1.082 19.003Z" class="colorc67f4e svgShape"/><path fill="#f2af7c" d="M516.192 225.243s61.938 240.559-63.937 271.39c0 0-246.219 72.547-156.614-263.502l33.231-99.489 182.818 26.129Z" class="colorf2af7c svgShape"/><path d="M452.252 496.629a86.594 86.594 0 0 0 49.565-32.251c-29.285 23.07-78.53 42.402-126.273 14.054-75.3-44.72-59.924-208.426 7.935-201.457 55.262 5.664 116.134-22.512 136.83-33.175-2.337-11.647-4.12-18.561-4.12-18.561l-4.5-65.469-182.813-26.127-33.238 99.488c-89.605 336.052 156.614 263.498 156.614 263.498Z" style="mix-blend-mode:soft-light" opacity=".3" fill="#000000" class="color000 svgShape"/><path fill="#2b2928" d="M413.62 293.296a215.683 215.683 0 0 1-37.87 16.457c-2.14.713-4.144 1.343-5.988 1.89a35.802 35.802 0 0 1-11.117 1.504 16.572 16.572 0 0 1-1.997-.096 32.36 32.36 0 0 1-8.073-1.618 27.782 27.782 0 0 1-2.491-.893 43.398 43.398 0 0 1 1.118-9.512c1.529-6.911 5.167-16.283 13.76-23.358a35.324 35.324 0 0 1 3.038-2.263 41 41 0 0 1 8.64-4.414 28.727 28.727 0 0 1 10.622-2.006c20.302.12 30.358 24.31 30.358 24.31Z" class="color2b2928 svgShape"/><path fill="#423f3e" d="M356.648 313.051a32.36 32.36 0 0 1-8.073-1.618 84.165 84.165 0 0 1-1.373-10.405c1.529-6.911 5.167-16.283 13.76-23.358-3.734 10.1-6.42 22.787-4.314 35.381Z" class="color423f3e svgShape"/><path fill="#423f3e" d="M383.262 268.987a174.208 174.208 0 0 0-7.513 40.766c-2.14.713-4.143 1.343-5.987 1.89a35.802 35.802 0 0 1-11.117 1.504c-.715-10.39-.086-24.274 5.355-37.74a41 41 0 0 1 8.64-4.414 28.727 28.727 0 0 1 10.622-2.006Z" class="color423f3e svgShape"/><ellipse cx="375.609" cy="345.396" rx="24.949" ry="21.033" transform="rotate(-85.744 375.609 345.396)" style="mix-blend-mode:soft-light" opacity=".45" fill="#000000" class="color000 svgShape"/><ellipse cx="375.56" cy="351.71" fill="#2b2928" rx="16.5" ry="13.911" transform="rotate(-85.745 375.56 351.71)" class="color2b2928 svgShape"/><path fill="#ffffff" d="M377.383 345.8c-.022 2.858 1.917 5.136 4.33 5.09s4.389-2.4 4.411-5.258-1.917-5.136-4.33-5.09-4.389 2.401-4.41 5.258ZM374.378 352.55a2.365 2.365 0 0 0 2.193 2.578 2.523 2.523 0 0 0 2.233-2.663 2.365 2.365 0 0 0-2.193-2.577 2.523 2.523 0 0 0-2.233 2.663Z" class="colorfff svgShape"/><path fill="#c67f4e" d="M455.848 449.265a20.085 20.085 0 0 1-7.833 6.334 26.649 26.649 0 0 1-9.87 2.563c-6.857.477-14.11-2.074-18.444-7.333 3.466.222 6.417.774 9.4.878a62.109 62.109 0 0 0 8.663.006c5.777-.253 11.426-1.363 18.084-2.448Z" class="colorc67f4e svgShape"/><path fill="#2b2928" d="M460.313 299.284A163.989 163.989 0 0 0 490.6 311.36c1.714.508 3.32.953 4.797 1.336a28.294 28.294 0 0 0 8.932.866 13.479 13.479 0 0 0 1.61-.14 26.94 26.94 0 0 0 6.519-1.553c.678-.23 1.356-.502 2.017-.796a34.415 34.415 0 0 0-.783-7.623c-1.145-5.518-3.958-12.95-10.79-18.38a26.317 26.317 0 0 0-2.417-1.727 30.95 30.95 0 0 0-6.902-3.286 22.53 22.53 0 0 0-8.527-1.286c-16.347.727-24.743 20.514-24.743 20.514Z" class="color2b2928 svgShape"/><path fill="#423f3e" d="M505.939 313.422a26.94 26.94 0 0 0 6.519-1.554 69.27 69.27 0 0 0 1.234-8.42c-1.145-5.517-3.958-12.95-10.79-18.379 2.882 8.016 4.888 18.147 3.037 28.353Z" class="color423f3e svgShape"/><path fill="#423f3e" d="M485.056 278.77a136.252 136.252 0 0 1 5.544 32.589c1.714.508 3.32.953 4.797 1.336a28.294 28.294 0 0 0 8.932.866c.704-8.388.37-19.546-3.844-30.22a30.95 30.95 0 0 0-6.902-3.285 22.53 22.53 0 0 0-8.527-1.286Z" class="color423f3e svgShape"/><ellipse cx="484.078" cy="341.202" rx="22.468" ry="18.942" transform="rotate(-85.745 484.078 341.202)" style="mix-blend-mode:soft-light" opacity=".45" fill="#000000" class="color000 svgShape"/><ellipse cx="484.034" cy="346.887" fill="#2b2928" rx="14.86" ry="12.528" transform="rotate(-85.745 484.034 346.887)" class="color2b2928 svgShape"/><ellipse cx="489.611" cy="341.49" fill="#ffffff" rx="4.663" ry="3.932" transform="rotate(-85.744 489.611 341.49)" class="colorfff svgShape"/><path fill="#ffffff" d="M482.97 347.645a2.13 2.13 0 0 0 1.974 2.32 2.272 2.272 0 0 0 2.011-2.397 2.13 2.13 0 0 0-1.975-2.32 2.272 2.272 0 0 0-2.01 2.397Z" class="colorfff svgShape"/><path fill="#2b2928" d="M330.478 271.42a115.541 115.541 0 0 1-4.108 15.14 136.989 136.989 0 0 1-11.685 25.135A194.84 194.84 0 0 1 275.81 358.6c-11.997-15.232-18.44-30.193-19.258-43.44a63.774 63.774 0 0 1 1.225-16.804 69.698 69.698 0 0 1 2.007-7.506 86.22 86.22 0 0 1 11.78-22.902c11.78-16.63 21.84-33.366 21.84-33.366s16.878-87.37 36.026-9.937a106.04 106.04 0 0 1 1.049 46.774Z" class="color2b2928 svgShape"/><path fill="#423f3e" d="M326.37 286.56a136.989 136.989 0 0 1-11.685 25.135c-22.759 16.884-49.121 7.527-58.134 3.465a63.774 63.774 0 0 1 1.225-16.803c29.596 13.171 56.642-2.746 68.594-11.797Z" class="color423f3e svgShape"/><path fill="#423f3e" d="M330.478 271.42c-19.79 27.662-53.563 23.71-70.695 19.431a86.22 86.22 0 0 1 11.78-22.902c26.64 3.57 51.515-10.5 61.026-16.743a106.923 106.923 0 0 1-2.111 20.214Z" class="color423f3e svgShape"/><ellipse cx="260.036" cy="414.456" fill="#f7991e" rx="17.499" ry="14.753" transform="rotate(-85.744 260.036 414.456)" class="colorf7991e svgShape"/><path fill="#f4bd21" d="M267.161 410.65c-.356 5.8-4.61 10.278-9.501 10.003s-8.568-5.198-8.212-10.997 4.61-10.279 9.502-10.004 8.567 5.199 8.211 10.998Z" class="colorf4bd21 svgShape"/><path fill="#cec7c2" d="M269.403 388.298c-.302 4.92-3.91 8.72-8.06 8.486s-7.268-4.41-6.965-9.33 3.91-8.718 8.06-8.485 7.267 4.41 6.965 9.33Z" class="colorcec7c2 svgShape"/><path fill="#eae6e4" d="M265.524 385.936c-.182 2.957-2.351 5.241-4.846 5.101s-4.37-2.651-4.187-5.609 2.35-5.242 4.845-5.101 4.37 2.65 4.188 5.609Z" class="coloreae6e4 svgShape"/><path fill="#f7991e" d="M269.724 370.44c-.303 4.92-3.911 8.719-8.06 8.486s-7.268-4.41-6.966-9.33 3.911-8.719 8.06-8.486 7.268 4.41 6.966 9.33Z" class="colorf7991e svgShape"/><path fill="#f4bd21" d="M265.845 368.077c-.182 2.957-2.351 5.242-4.846 5.102s-4.37-2.652-4.188-5.61 2.352-5.241 4.846-5.101 4.37 2.651 4.188 5.609Z" class="colorf4bd21 svgShape"/><path fill="#987db2" d="M292.388 236.63a130.12 130.12 0 0 0 19.016-6.952 286.805 286.805 0 0 0 8.511-3.924c7.481-3.59 13.003-6.598 13.003-6.598l-4.338-5.095s204.043 8.54 225.963-7.691a63.28 63.28 0 0 0 18.064-21.092 52.537 52.537 0 0 0 4.273-11.042c6.534-25.02-4.693-60.806-73.008-101.685-109.124-65.305-247.225-11.936-256.965 58.341-9.74 70.278 45.481 105.739 45.481 105.739Z" class="color987db2 svgShape"/><path fill="#e08c96" d="M311.404 229.678a286.805 286.805 0 0 0 8.511-3.924c-14.041-9.865-30.608-30.35-19.915-69.672 17.18-63.176 154.6-91.214 225.38-45.178 67.013 43.582 44.085 78.03 41.447 81.574a63.225 63.225 0 0 0 5.78-7.2 52.537 52.537 0 0 0 4.273-11.042c2.111-13.333-4.342-34.427-40.636-66.928-63.89-57.222-220.99-40.804-246.644 30.318-21.492 59.589 10.781 85.283 21.804 92.052Z" class="colore08c96 svgShape"/><path d="M246.023 155.043c3.794 54.25 46.365 81.588 46.365 81.588 15.743-3.968 40.53-17.475 40.53-17.475l-4.338-5.095s204.043 8.54 225.963-7.691c14.214-10.521 34.561-36.196 17.392-70.746h-.007c-9.523-2.572-23.605-9.476-43.828-25.623-48.194-38.46-108.618-36.59-168.058-7.332-52.19 25.69-75.937 78.095-114.02 52.374Z" style="mix-blend-mode:soft-light" opacity=".3" fill="#000000" class="color000 svgShape"/><path fill="#d089e8" d="M375.727 113.064c37.74-12.2 76.26-11.863 113.293-.898 34.968 10.353 76.19 29.38 79.9 62.019 6.54 57.522-110.517 96.197-241.59 60.26 0 0-56.89-87.343 48.397-121.38Z" class="colord089e8 svgShape"/><path d="M327.328 234.442c116.348 31.901 221.643 5.013 239.268-41.66-39.427 20.174-105.11 27.834-177.526 13.056-24.774-5.055-42.64-30.828-41.16-60.713a62.462 62.462 0 0 1 5.426-22.877c-74.11 38.351-26.008 112.194-26.008 112.194Z" style="mix-blend-mode:soft-light" opacity=".3" fill="#000000" class="color000 svgShape"/><path fill="#210096" d="M459.51 103.067c-7.537-11.502-4.93-19.686-3.128-26.389s6.944-2.193 6.944-2.193 2.45-2.49-1.375-10.082-5.09-9.434-4.526-20.444-3.907-13.769-1.324-19.527 7.321-5.01 7.321-5.01 3.496-17.124 9.337-17.847 7.029 13.029 7.029 13.029 1.369-17.048 3.12-14.305 2.99 16.09 2.99 16.09.214-10.652 4.01-9.643 2.88 3.332 6.245 3.04 5.032-8.248 13.136-3.27-.536 13.068-.805 15.08 3.58-1.9 4.792.346-.267 11.055-4.412 14.923-1.612 12.077.783 9.989 7.35 1.57 4.766 7.328-6.592 15.402-6.94 24.8a21.542 21.542 0 0 0 5.577-1.265c3.74-1.232-4.71 23.556-15.489 30.664s-26.45 12.391-38.051-5.314Z" class="color210096 svgShape"/><path fill="#17056b" d="M510.029 91.514c-3.007 6.52-7.486 13.582-12.468 16.865-10.775 7.107-26.447 12.394-38.047-5.313-7.545-11.498-4.934-19.685-3.134-26.386 1.801-6.71 6.95-2.198 6.95-2.198s2.445-2.484-1.378-10.081c-3.825-7.589-5.088-9.43-4.523-20.442.556-11.013-3.913-13.766-1.325-19.531 2.58-5.757 7.318-5.01 7.318-5.01s3.493-17.119 9.333-17.84a3.442 3.442 0 0 1 2.63.773 11.3 11.3 0 0 0-1.102 1.941c-2.587 5.756 1.881 8.518 1.324 19.531-.563 11.002.7 12.853 4.524 20.442 3.824 7.588 1.378 10.081 1.378 10.081s-5.149-4.512-6.949 2.189c-1.802 6.71-4.41 14.888 3.132 26.395 9.682 14.77 22.199 13.536 32.337 8.584Z" class="color17056b svgShape"/><path fill="#9c66b2" d="M529.403 128.48a73.016 73.016 0 0 1 13.631 23.066 78.87 78.87 0 0 1 5.044 26.682 83.853 83.853 0 0 1-1.016 13.65c-1.09 4.442-1.853 8.956-3.748 13.126-3.008 8.594-8.242 16.156-14.028 22.843 3.733-8.116 7.556-15.907 9.578-24.295a84.5 84.5 0 0 0 3.22-25.245 101.923 101.923 0 0 0-3.49-25.338 138.234 138.234 0 0 0-9.191-24.49ZM496.81 114.031a111.743 111.743 0 0 1 11.396 32.058 126.881 126.881 0 0 1 2.112 34.234c-.27 5.75-1.438 11.407-2.387 17.067-1.616 5.523-2.716 11.187-5.103 16.44-3.812 10.843-10.207 20.532-17.06 29.45 4.91-10.216 9.693-20.27 12.631-30.968 1.791-5.231 2.723-10.69 3.964-16.045.732-5.457 1.82-10.864 1.976-16.38a168.102 168.102 0 0 0-.738-33.062 196.3 196.3 0 0 0-6.79-32.794ZM462.253 106.307c-2.873 11.69-4.785 23.479-6.588 35.248-1.67 11.792-3.051 23.605-3.937 35.467-.38 5.933-.93 11.862-1.064 17.813l-.417 8.923-.172 8.937c-.256 11.929-.109 23.875-.111 35.936-1.173-5.903-2.123-11.856-2.985-17.83-.6-5.989-1.41-11.99-1.584-18.022a278.217 278.217 0 0 1 .357-36.221 266.425 266.425 0 0 1 5.327-35.85 167.894 167.894 0 0 1 11.174-34.401ZM418.945 103.875a177.498 177.498 0 0 0-17.033 34.323 141.281 141.281 0 0 0-8.257 36.823c-.858 6.252-.405 12.542-.348 18.824.776 6.228 1.173 12.546 2.847 18.655 2.426 12.463 7.63 24.156 13.024 35.944a243.687 243.687 0 0 1-5.364-8.1c-1.714-2.758-3.7-5.402-4.96-8.417l-4.105-8.925c-1.503-2.943-2.053-6.221-3.127-9.331-2.281-6.229-2.842-12.846-3.976-19.363-.255-6.59-.753-13.227.036-19.804a118.801 118.801 0 0 1 9.91-38.06 117.127 117.127 0 0 1 21.353-32.569ZM368.99 115.793a108.797 108.797 0 0 0-9.03 14.891c-1.38 2.529-2.485 5.202-3.734 7.775l-3.135 7.99a98.49 98.49 0 0 0-5.905 33.322 49.037 49.037 0 0 0 .3 8.45 53.473 53.473 0 0 0 1.012 8.406l1.604 8.357 2.542 8.151 1.271 4.1c.488 1.344 1.166 2.612 1.706 3.94l3.444 7.93c2.42 5.252 5.626 10.1 8.227 15.41a200.064 200.064 0 0 1-5.505-6.861c-1.736-2.368-3.799-4.556-5.285-7.107l-4.44-7.705c-.728-1.296-1.514-2.57-2.134-3.92l-1.668-4.147c-5.045-10.879-6.9-23.075-7.069-35.062a86.688 86.688 0 0 1 7.565-34.982 87.842 87.842 0 0 1 20.234-28.938Z" class="color9c66b2 svgShape"/><ellipse cx="464.763" cy="159.29" fill="#ffffff" rx="38.042" ry="88.563" transform="rotate(-82.26 464.763 159.29)" style="mix-blend-mode:soft-light" opacity=".56" class="colorfff svgShape"/><path fill="#2b2928" d="m421.754 397.745-63.16 19.12s-.539 7.252 8.02 9.833l77.75-12.687 50.13 18.799s4.083-2.613 3.584-8.97l-41.372-25.44a45.58 45.58 0 0 1-34.952-.655Z" class="color2b2928 svgShape"/><path fill="#fcceae" d="M447.699 372.452s-21.623 6.413-21.572 12.25 37.974 12.305 39.293 4.382-17.721-16.632-17.721-16.632Z" class="colorfcceae svgShape"/><path fill="#c67f4e" d="M447.957 349.381c1.066 7.703 1.601 15.4 2.032 23.097l-1.192-2.036a83.62 83.62 0 0 1 9.725 5.487c3.083 2.22 6.27 4.101 8.903 8.134a7.184 7.184 0 0 1 1.094 4.355 9.579 9.579 0 0 1-1.074 3.765 21.706 21.706 0 0 1-3.651 5.142 59.499 59.499 0 0 1-8.754 7.482l-.856.61-.952-.046a110.262 110.262 0 0 1-21.134-2.951 57.195 57.195 0 0 1-10.14-3.605c-3.192-1.53-6.484-3.757-8.027-7 2.414 2.607 5.704 3.696 8.935 4.603a77.317 77.317 0 0 0 10.017 1.747 179.951 179.951 0 0 0 20.4 1.016l-1.807.564a53.587 53.587 0 0 0 7.572-6.765 19.798 19.798 0 0 0 2.683-3.62 3.592 3.592 0 0 0 .49-1.377c.056-.17.038-.267.002-.283.087.009-.094-.284-.21-.506-1.29-2.093-4.092-4.61-6.779-6.664-2.781-2.072-5.674-4.21-8.632-6.066l-1.29-.81.096-1.228c.603-7.684 1.31-15.368 2.549-23.045Z" class="colorc67f4e svgShape"/><path fill="#1b1723" d="M1044.085 465.37s-32.949 34.014-71.86-5.102a97.128 97.128 0 0 1 9.955-1.905c11.315-1.61 30.907-2.857 51.134 3.13a93.15 93.15 0 0 1 10.771 3.877Z" class="color1b1723 svgShape"/><path fill="#ffffff" d="M1033.314 461.492c-10.816 6.19-29.57 11.928-51.134-3.129 11.315-1.61 30.907-2.857 51.134 3.13Z" class="colorfff svgShape"/><path fill="#191817" d="M479.226 431.787s-51.86 29.343-84.377-7.869c0 0 4.331-.839 11.111-1.7 14.581-1.837 40.5-3.81 59.208 2.154a39.033 39.033 0 0 1 14.058 7.415Z" class="color191817 svgShape"/><path fill="#ffffff" d="M465.168 424.372c-14.196 5.147-38.414 10.476-59.208-2.154 14.581-1.837 40.5-3.81 59.208 2.154Z" class="colorfff svgShape"/><path fill="#1e94af" d="M535.183 530.062a13.665 13.665 0 1 0 13.814-13.515 13.665 13.665 0 0 0-13.814 13.515Z" class="color1e94af svgShape"/><path fill="#46b9cc" d="M542.513 526.862a8.216 8.216 0 1 0 8.305-8.125 8.216 8.216 0 0 0-8.305 8.125Z" class="color46b9cc svgShape"/><path fill="#cec7c2" d="M541.9 509.329a6.97 6.97 0 1 0 7.046-6.893 6.97 6.97 0 0 0-7.045 6.893Z" class="colorcec7c2 svgShape"/><path fill="#eae6e4" d="M545.639 507.697a4.19 4.19 0 1 0 4.236-4.144 4.19 4.19 0 0 0-4.236 4.144Z" class="coloreae6e4 svgShape"/><path fill="#f7991e" d="M542.77 495.399a6.97 6.97 0 1 0 7.045-6.893 6.97 6.97 0 0 0-7.045 6.893Z" class="colorf7991e svgShape"/><path fill="#f4bd21" d="M546.509 493.767a4.19 4.19 0 1 0 4.235-4.144 4.19 4.19 0 0 0-4.235 4.144Z" class="colorf4bd21 svgShape"/><path fill="#211e1e" d="M548.67 394.15s-12.974-64.4 30.06-113.453 117.05-29.326 150.946-5.95 76.026 93.4 46.376 169.735l-20.375 29.837s-103.392-6.445-109.411-12.344-97.595-67.826-97.595-67.826Z" class="color211e1e svgShape"/><path fill="#e89c7c" d="M762.274 483.044a54.12 54.12 0 0 1-4.348 7.538c-8.959 12.608-15.939 5.491-15.939 5.491a6.532 6.532 0 0 1-.3.96c-15.75 55.434-78.563 87.608-127.339 73.412-40.632-11.85-63.106-60.806-68.547-90.761a72.568 72.568 0 0 1-1.256-10.735 33.326 33.326 0 0 1 .028-4.911c1.148-14.853-2.017-35.93-.67-60.048.038-.803.12-1.604.159-2.406a157.032 157.032 0 0 1 5.933-33.932c.919-3.217 2.01-6.467 3.226-9.711 16.101-42.67 77.725-41.781 77.725-41.781 11.164-27.451 21.199-32.595 21.199-32.595-5.601 9.765-7.316 35.39-7.316 35.39 47.705-1.189 80.43 45.98 92.204 63.369 11.773 17.389 8.327 73.254 8.327 73.254.604-5.434 5.096-13.304 10.665-19.81l.045-.04c7.272-8.412 16.373-14.406 20.875-9.442 7.956 8.816-3.784 34.164-14.67 56.758Z" class="colore89c7c svgShape"/><ellipse cx="579.003" cy="435.635" rx="13.573" ry="25.775" transform="rotate(-3.947 579.003 435.634)" style="mix-blend-mode:soft-light" opacity=".45" fill="#000000" class="color000 svgShape"/><path fill="#1b1723" d="M588.445 441.232c.733 9.385-2.672 17.401-7.606 17.904s-9.529-6.698-10.262-16.083 2.673-17.4 7.607-17.904 9.528 6.698 10.261 16.083Z" class="color1b1723 svgShape"/><path fill="#ffffff" d="M577.898 436.203c.23 2.945-.84 5.46-2.388 5.618s-2.99-2.102-3.22-5.047.839-5.46 2.387-5.619 2.99 2.102 3.22 5.048ZM580.332 442.91c.116 1.49-.425 2.765-1.21 2.844s-1.513-1.064-1.63-2.555.425-2.765 1.209-2.845 1.514 1.064 1.63 2.555Z" class="colorfff svgShape"/><ellipse cx="657.024" cy="433.811" rx="30.457" ry="18.149" transform="rotate(-82.893 657.024 433.81)" style="mix-blend-mode:soft-light" opacity=".45" fill="#000000" class="color000 svgShape"/><ellipse cx="655.912" cy="441.442" fill="#1b1723" rx="20.143" ry="12.003" transform="rotate(-82.893 655.912 441.442)" class="color1b1723 svgShape"/><path fill="#ffffff" d="M655.438 434.063c-.503 3.454-2.571 5.948-4.62 5.57s-3.3-3.481-2.798-6.935 2.572-5.947 4.62-5.57 3.301 3.482 2.798 6.935ZM656.766 442.614c-.254 1.75-1.302 3.012-2.339 2.821s-1.671-1.763-1.417-3.512 1.302-3.011 2.34-2.82 1.671 1.763 1.416 3.511Z" class="colorfff svgShape"/><path fill="#352a2a" d="M595.046 380.062c3.796 8.985.85 13.604.85 13.604a110.304 110.304 0 0 0-18.629 3.127c-.516.132-1.026.275-1.53.4-.362.112-.718.206-1.067.312a79.262 79.262 0 0 0-13.035 5.062c-.786.39-1.513.78-2.21 1.17-.745.414-1.448.821-2.086 1.21a35.033 35.033 0 0 0-6.874 5.133 42.274 42.274 0 0 1 3.152-9.126c.435-.869.883-1.713 1.367-2.517.466-.78.944-1.535 1.447-2.244a33.974 33.974 0 0 1 9.65-9.185c.513-.34 1.039-.655 1.559-.954.532-.304 1.058-.59 1.59-.865 12.346-6.338 25.816-5.127 25.816-5.127Z" class="color352a2a svgShape"/><path fill="#4c3f3f" d="M554.984 398.437a29.788 29.788 0 0 1 4.44 5.3c-.744.414-1.447.821-2.085 1.21a25.997 25.997 0 0 0-3.722-3.993c.435-.869.883-1.713 1.367-2.517ZM566.08 387.008c4.076 2.764 6.893 7.18 8.59 10.497a79.262 79.262 0 0 0-13.035 5.062 34.134 34.134 0 0 0-5.204-6.374 33.974 33.974 0 0 1 9.65-9.185ZM577.267 396.793c-.516.132-1.026.275-1.53.4a35.948 35.948 0 0 0-8.097-11.139c.532-.304 1.058-.59 1.59-.865a36.381 36.381 0 0 1 8.037 11.604Z" class="color4c3f3f svgShape"/><path fill="#352a2a" d="M641.054 370.832c-4.474 10.929-.845 16.48-.845 16.48a133.536 133.536 0 0 1 22.593 3.534c.627.153 1.246.32 1.858.464.439.13.871.239 1.296.362a95.948 95.948 0 0 1 15.847 5.952c.957.462 1.842.924 2.692 1.387.907.49 1.763.975 2.54 1.437a42.417 42.417 0 0 1 8.391 6.12 51.18 51.18 0 0 0-3.939-11.005 45.065 45.065 0 0 0-1.688-3.028 41.561 41.561 0 0 0-1.783-2.697 41.13 41.13 0 0 0-11.805-10.988 34.73 34.73 0 0 0-1.9-1.134c-.648-.36-1.289-.7-1.936-1.025-15.031-7.507-31.32-5.86-31.32-5.86Z" class="color352a2a svgShape"/><path fill="#4c3f3f" d="M689.799 392.535a36.06 36.06 0 0 0-5.304 6.476c.907.49 1.763.975 2.54 1.437a31.476 31.476 0 0 1 4.452-4.885 45.065 45.065 0 0 0-1.688-3.028ZM676.211 378.85c-4.896 3.4-8.246 8.784-10.255 12.822a95.948 95.948 0 0 1 15.847 5.952 41.322 41.322 0 0 1 6.213-7.786 41.13 41.13 0 0 0-11.805-10.988ZM662.802 390.846c.627.153 1.246.32 1.858.464a43.519 43.519 0 0 1 9.65-13.594c-.647-.36-1.288-.7-1.935-1.025a44.04 44.04 0 0 0-9.573 14.155Z" class="color4c3f3f svgShape"/><path fill="#e5817c" d="M696.58 480.503c-.746 6.752-9.888 3.425-22.692 2.01s-24.421-.383-23.675-7.135 11.731-11.079 24.535-9.664 22.579 8.037 21.832 14.79ZM587.351 479.635c-.752 6.74-9.907 3.414-22.715 2.027-7.414-.828-14.403-.83-18.835-1.978a72.568 72.568 0 0 1-1.256-10.735c4.4-3.385 12.234-5.078 20.954-4.102 12.804 1.429 22.562 8.046 21.852 14.788Z" class="colore5817c svgShape"/><path fill="#211e1e" d="M662.603 496.601a77.244 77.244 0 0 1-3.776 14.652c-17.363 46.2-71.621 18.973-71.621 18.973l5.896-1.467c.212-9.616-3.874-24.156-3.874-24.156a45.434 45.434 0 0 0 6.276 2.572c30.417 10.102 67.099-10.574 67.099-10.574Z" class="color211e1e svgShape"/><path fill="#ffffff" d="M662.603 496.601a77.244 77.244 0 0 1-3.776 14.652c-36.44 21.537-55.6 6.018-63.323-4.078 30.417 10.102 67.099-10.574 67.099-10.574Z" class="colorfff svgShape"/><path fill="#cc7a5e" d="M575.498 497.78c17.618 6.08 35.092 6.908 52.195 4.364a163.856 163.856 0 0 0 25.373-6.598c2.169-.559 4.149-1.584 6.257-2.356l6.34-2.402c4.178-1.763 8.298-3.724 12.802-5.272a124.87 124.87 0 0 1-10.299 9.582c-3.873 2.604-7.64 5.556-11.875 7.684a85.658 85.658 0 0 1-27.02 9.387 74.007 74.007 0 0 1-28.783-1.182c-9.3-2.297-18.314-6.484-24.99-13.208Z" class="colorcc7a5e svgShape"/><path fill="#f4beab" d="M609.13 456.457s19.468 22.779-16.373 15.48Z" class="colorf4beab svgShape"/><path fill="#cc7a5e" d="M610.966 444.33c.134 4.153-.026 8.263-.275 12.358l-.025.405-.449.503q-3.768 4.21-7.727 8.215c-1.316 1.393-2.65 2.636-3.986 3.956-1.36 1.308-2.692 2.645-4.098 3.905l.524-2.75a7.895 7.895 0 0 0 1.214 1.563 14.085 14.085 0 0 0 1.816 1.558 19.995 19.995 0 0 0 2.087 1.37c.808.443 1.492.793 2.434 1.211l-.17-.07a40.283 40.283 0 0 0 4.404 1.592c1.511.412 3.053.822 4.631 1.122 3.155.626 6.403 1.021 9.718 1.453a41.423 41.423 0 0 1-9.973 1.228 34.025 34.025 0 0 1-5.11-.34 30.887 30.887 0 0 1-5.059-1.131l-.173-.07a32.207 32.207 0 0 1-2.693-1.076 23.154 23.154 0 0 1-2.74-1.496 18.758 18.758 0 0 1-2.498-2.028 11.43 11.43 0 0 1-2.216-2.86l-.788-1.445 1.312-1.306c1.324-1.319 2.723-2.56 4.095-3.828 1.38-1.273 2.787-2.596 4.19-3.794q4.228-3.735 8.65-7.26l-.472.906c.967-3.988 2.025-7.961 3.377-11.891ZM742.638 475.768a22.394 22.394 0 0 1 .98-10.97 27.166 27.166 0 0 1 14.736-16.382 25.397 25.397 0 0 1 10.748-2.328c-3.137 1.97-6.17 3.564-8.877 5.6a42.259 42.259 0 0 0-7.38 6.577c-4.462 4.834-7.562 10.744-10.207 17.503Z" class="colorcc7a5e svgShape"/><path d="M769.396 458.614c-4.938 15.26-26.5 24.035-21.452 30.804 2.502 3.425 6.561 2.691 9.982 1.164-8.959 12.608-15.939 5.491-15.939 5.491a6.532 6.532 0 0 1-.3.96 11.952 11.952 0 0 1-1.707-3.218c-28.35 80.19-105.38 78.211-105.38 78.211-62.516-6.014-79.757-68.48-79.757-68.48 21.152 55.202 79.231 61.043 79.231 61.043 60.683-23.257 73.883-86.355 69.898-138.348-4.027-52.037-48.06-101.833-96.504-97.631-34.325 2.984-50.778 25.942-57.473 39.042.919-3.217 2.01-6.467 3.226-9.711 16.101-42.67 77.725-41.781 77.725-41.781 11.164-27.451 21.199-32.595 21.199-32.595-5.601 9.765-7.316 35.39-7.316 35.39 47.705-1.189 80.43 45.98 92.204 63.369 11.773 17.389 8.327 73.254 8.327 73.254.604-5.434 5.096-13.304 10.665-19.81-4.69 11.08-2.693 17.023 2.158 13.956 6.16-3.85 16.109-6.372 11.213 8.89Z" style="mix-blend-mode:soft-light" opacity=".3" fill="#000000" class="color000 svgShape"/><path fill="#352a2a" d="M627.87 313.33s-51.563-9.266-75.37 39.206c0 0 1.778-36.444 37.468-51.776 0 0-22.765 4.746-31.12 23.397 0 0 17.71-74.081 97.63-68.197l-11.169 17.323s-29.893-5.826-55.988 16.327c0 0 24.066-13.12 52.81-8.144 0 0-29.72 6.888-42.482 16.192 0 0 15.246-3.227 34.878 1.305 0 0-30.28 2.096-42.926 9.024 0 0 23.622-4.01 36.269 5.342ZM649.26 314.373s81.06-1.208 108.537 94.832c0 0 1.754-72.577-59.36-101.764 0 0 66.085 12.753 72.157 95.837 0 0 28.448-107.01-97.2-144.11 0 0 51.274 23.346 75.331 67.403 0 0-39.534-44.216-87.373-52.506l-3.073 14.145 30.463 10.42s-32.298 2.792-39.481 15.743Z" class="color352a2a svgShape"/><path fill="#0097bb" d="M775.047 334.585c-17.416-6.331-51.18-1.041-91.276 12.155-40.095 13.168-68.063 16.882-68.063 16.882-40.63-20.596-45.892-71.75-45.892-71.75 4.924-26.954 29.263-53.037 53.18-67.81 14.518-8.919 28.84-13.646 38.602-11.873 25.86 4.755 71.244 35.368 90.236 61.198a68.451 68.451 0 0 1 2.054 2.926c17.248 25.52 21.16 58.272 21.16 58.272Z" class="color0097bb svgShape"/><path d="M775.047 334.585c-17.416-6.331-51.18-1.041-91.276 12.155-40.095 13.168-68.063 16.882-68.063 16.882a.714.714 0 0 1-.198-.112c.478-.93.732-1.492.732-1.492-15.644-106.864 132.075-89.081 135.536-88.66-1.267-.843-22.144-14.518-56.415-24.225-35.34-10.017-78.08 36.915-78.08 36.915l7.597-63.11c13.872-8.189 27.377-12.437 36.718-10.75 25.86 4.756 71.244 35.37 90.236 61.199a68.451 68.451 0 0 1 2.054 2.926c17.248 25.52 21.16 58.272 21.16 58.272Z" style="mix-blend-mode:soft-light" opacity=".3" fill="#000000" class="color000 svgShape"/><path fill="#037d91" d="M753.888 276.313c-41.81-38.998-136.606 9.735-136.606 9.735-10.887-29.572-5.738-49.099 5.713-61.985 14.52-8.92 28.84-13.647 38.603-11.874 10.806 1.998 25.043 8.497 39.308 17.304 19.893 12.212 39.87 28.869 50.928 43.894a68.451 68.451 0 0 1 2.054 2.926Z" class="color037d91 svgShape"/><path d="M700.906 229.493c-70.85 1.435-83.623 56.555-83.623 56.555-10.888-29.572-5.74-49.099 5.712-61.985 14.52-8.92 28.84-13.647 38.603-11.874 10.806 1.998 25.043 8.497 39.308 17.304Z" style="mix-blend-mode:soft-light" opacity=".3" fill="#000000" class="color000 svgShape"/><path fill="#f30005" d="M637.482 280.934c8.555-8.12 7.16-14.92 6.329-20.447s-6.239-2.624-6.239-2.624-1.98-2.283 2.587-7.79 5.991-6.8 6.878-15.57 5.437-10.378 3.752-15.259a6.943 6.943 0 0 0-6.23-4.898s-1.081-13.978-6.473-15.299-8.273 9.392-8.273 9.392.905-13.645-1.09-11.703-4.877 12.33-4.877 12.33 1.169-8.445-2.525-8.134-3.133 2.262-6.255 1.6-3.664-7.164-11.912-4.271-1.177 10.394-1.184 12.019-3.116-1.962-4.543-.343-1.17 8.77 2.224 12.357-.038 9.749-2.019 7.791-7.102.297-5.416 5.178 4.21 13.015 3.328 20.485a23.434 23.434 0 0 1-5.073-1.715c-3.353-1.454 1.394 19.215 10.601 26.214s23.242 13.186 36.41.687Z" class="colorf30005 svgShape"/><path fill="#c1050e" d="M591.534 265.321c1.985 5.537 5.282 11.692 9.538 14.925 9.204 6.998 23.239 13.187 36.406.687 8.562-8.115 7.163-14.92 6.334-20.445-.829-5.532-6.243-2.628-6.243-2.628s-1.976-2.277 2.59-7.788c4.566-5.505 5.989-6.798 6.874-15.57.893-8.772 5.443-10.374 3.754-15.261a6.938 6.938 0 0 0-6.227-4.897s-1.08-13.974-6.47-15.294a3.754 3.754 0 0 0-2.568.274 8.505 8.505 0 0 1 .784 1.674c1.69 4.88-2.86 6.489-3.753 15.261-.885 8.765-2.308 10.066-6.874 15.57-4.567 5.504-2.59 7.788-2.59 7.788s5.414-2.904 6.243 2.621c.829 5.533 2.228 12.33-6.334 20.453-10.988 10.426-22.582 7.844-31.464 2.63Z" class="colorc1050e svgShape"/><circle cx="747.476" cy="530.211" r="13.665" fill="#1e94af" transform="rotate(-45 747.476 530.211)" class="color1e94af svgShape"/><path fill="#46b9cc" d="M741.141 526.862a8.216 8.216 0 1 0 8.305-8.125 8.216 8.216 0 0 0-8.305 8.125Z" class="color46b9cc svgShape"/><path fill="#cec7c2" d="M740.53 509.329a6.97 6.97 0 1 0 7.045-6.893 6.97 6.97 0 0 0-7.045 6.893Z" class="colorcec7c2 svgShape"/><path fill="#eae6e4" d="M744.268 507.697a4.19 4.19 0 1 0 4.235-4.144 4.19 4.19 0 0 0-4.235 4.144Z" class="coloreae6e4 svgShape"/><path fill="#f7991e" d="M741.4 495.399a6.97 6.97 0 1 0 7.044-6.893 6.97 6.97 0 0 0-7.045 6.893Z" class="colorf7991e svgShape"/><path fill="#f4bd21" d="M745.138 493.767a4.19 4.19 0 1 0 4.235-4.144 4.19 4.19 0 0 0-4.235 4.144Z" class="colorf4bd21 svgShape"/><path d="M1232.954 80.06c-2.699-1.338-4.899-.023-6.554 1.973 1.928-3.243 4.126-4.468 6.553-1.973Z" fill="#000000" class="color000 svgShape"/><path fill="#e89c7c" d="M262.263 543.227s-12.31-7.309-10.771-22.312c0 0-11.926-1.923-16.157-30.006 0 0 1.923-7.31 8.463-6.54 0 0 .77-9.617 8.848-9.617 0 0 1.539-10.002 15.388-8.463 0 0 3.077-10.002 1.154-16.542s-12.31-22.697-6.155-26.544 16.541 3.078 26.543 21.928 17.311 44.24 17.311 44.24 19.62 12.694 5.386 29.236-13.08 23.466-50.01 24.62Z" class="colore89c7c svgShape"/><path d="M306.887 489.376s-7.3-25.404-17.305-44.252c-9.452-17.819-19.266-24.965-25.5-22.45 7.949 9.968 26.491 34.97 21.193 45.376-3.716 7.28-10.215-1.41-15.57-10.767a46.288 46.288 0 0 1-1.677 9.014c-13.835-1.544-15.38 8.462-15.38 8.462-8.08 0-8.842 9.605-8.842 9.605-6.555-.763-8.48 6.536-8.48 6.536.228 1.449.457 2.82.705 4.117 7.718-6.366 26.851-21.135 33.427-17.324 7.641 4.44-3.755 25.861-23.766 39.487 3.203 3.316 5.794 3.736 5.794 3.736a23.433 23.433 0 0 0 .343 7.223c7.547-4.612 20.469-10.749 32.36-9.7 13.778 1.2-5.946 17.265-22.774 24.221.515.381.838.572.838.572 36.934-1.162 35.79-8.08 50.026-24.622 14.236-16.542-5.392-29.234-5.392-29.234Zm2.496 8.957c-3.487 7.775-19.02 10.443-24.394 6.155-5.355-4.288-1.067-14.464 6.442-14.731 0 0 21.44.8 17.952 8.576Z" style="mix-blend-mode:soft-light" opacity=".3" fill="#000000" class="color000 svgShape"/><path fill="#cc7a5e" d="M303.81 510.529a30.959 30.959 0 0 1-14.094-.902 16.04 16.04 0 0 1-6.849-3.8 8.851 8.851 0 0 1-2.255-8.783 12.956 12.956 0 0 1 4.922-6.843 17.72 17.72 0 0 1 7.295-2.681 27.02 27.02 0 0 1 14.059 1.85 62.452 62.452 0 0 0-13.102 2.31c-3.971 1.286-7.133 3.606-7.905 6.825a3.565 3.565 0 0 0 .773 3.81 14.54 14.54 0 0 0 4.65 3.366 91.727 91.727 0 0 0 12.506 4.848Z" class="colorcc7a5e svgShape"/><path fill="#cc7a5e" d="M268.033 466.289a62.445 62.445 0 0 1 11.648 16.03 32.108 32.108 0 0 1 3.245 9.942c.08.946.055 1.929.053 2.894a23.25 23.25 0 0 1-.624 3.056 19.397 19.397 0 0 1-1.63 2.932 25.388 25.388 0 0 1-2.569 2.18 8.983 8.983 0 0 1-6.659.95 13.071 13.071 0 0 1-5.291-2.835 31.87 31.87 0 0 1-6.485-8.186 64.427 64.427 0 0 1-7.075-18.5c3.407 5.609 6.878 11.095 10.625 16.129a34.337 34.337 0 0 0 6.178 6.517c2.304 1.734 4.307 2.286 5.965 1.195 1.86-.932 2.491-3.06 2.365-5.891a35 35 0 0 0-2.018-8.733 182.22 182.22 0 0 0-7.728-17.68Z" class="colorcc7a5e svgShape"/><path fill="#cc7a5e" d="M243.798 484.37c2.297 3.784 4.25 7.59 6.21 11.33a90.41 90.41 0 0 0 6.165 10.592 10.346 10.346 0 0 0 3.422 3.498 6.854 6.854 0 0 0 4.551.529c3.099-.72 6.257-3.977 6.965-8.254 1.596 4.212-.511 9.94-5.478 12.256a10.46 10.46 0 0 1-7.99.268 14.103 14.103 0 0 1-5.904-5.098 42.639 42.639 0 0 1-5.667-12.181 49.277 49.277 0 0 1-2.274-12.94Z" class="colorcc7a5e svgShape"/><path fill="#cc7a5e" d="M251.492 520.915a19.12 19.12 0 0 0 3.66-4.027c.435-.46.826-1.088 1.503-1.785a19.33 19.33 0 0 1 2.53-2.651 6.008 6.008 0 0 1-3.725 10.029 4.357 4.357 0 0 1-3.968-1.566Z" class="colorcc7a5e svgShape"/><path fill="#e89c7c" d="M1114.643 616.322s12.776-6.462 12.252-21.535c0 0 12.029-1.114 18.145-28.847 0 0-1.426-7.422-8.002-7.096 0 0-.12-9.647-8.18-10.192 0 0-.86-10.083-14.78-9.482 0 0-2.397-10.187-.036-16.582s13.813-21.815 7.932-26.068-16.712 1.954-27.963 20.086-20.257 42.971-20.257 42.971-20.43 11.342-7.346 28.807 11.467 24.295 48.235 27.938Z" class="colore89c7c svgShape"/><path d="M1066.402 588.386c13.087 17.465 11.48 24.29 48.25 27.942 0 0 .337-.169.876-.514-16.32-8.076-34.916-25.435-21.088-25.704 11.935-.243 24.413 6.751 31.631 11.862a23.435 23.435 0 0 0 .83-7.183s2.614-.244 6.033-3.336c-19.046-14.945-28.97-37.086-21.047-41 6.817-3.36 24.91 12.667 32.182 19.538.334-1.276.655-2.63.981-4.06 0 0-1.428-7.411-8.02-7.093 0 0-.113-9.635-8.174-10.18 0 0-.866-10.086-14.774-9.48a46.288 46.288 0 0 1-1.065-9.107c-5.974 8.975-13.045 17.207-16.26 9.693-4.585-10.74 15.602-34.435 24.204-43.843-6.048-2.93-16.323 3.538-26.956 20.678-11.254 18.13-20.25 42.984-20.25 42.984s-20.44 11.338-7.353 28.803Zm22.748-27.38c7.474.772 11.065 11.215 5.433 15.132-5.651 3.916-20.968.206-23.923-7.787-2.955-7.993 18.49-7.345 18.49-7.345Z" style="mix-blend-mode:soft-light" opacity=".3" fill="#000000" class="color000 svgShape"/><path fill="#cc7a5e" d="M1075.397 580.894a91.683 91.683 0 0 0 12.805-3.992 14.529 14.529 0 0 0 4.866-3.045 3.566 3.566 0 0 0 1.028-3.75c-.552-3.263-3.55-5.79-7.426-7.34a62.44 62.44 0 0 0-12.915-3.19 27.018 27.018 0 0 1 14.15-.898 17.735 17.735 0 0 1 7.099 3.168 12.954 12.954 0 0 1 4.448 7.159 8.85 8.85 0 0 1-2.842 8.611 16.028 16.028 0 0 1-7.09 3.328 30.95 30.95 0 0 1-14.123-.05Z" class="colorcc7a5e svgShape"/><path fill="#cc7a5e" d="M1114.077 539.17a182.25 182.25 0 0 0-8.903 17.118 34.99 34.99 0 0 0-2.602 8.577c-.317 2.816.168 4.982 1.962 6.038 1.58 1.2 3.616.784 6.032-.79a34.354 34.354 0 0 0 6.603-6.086c4.078-4.77 7.911-10.01 11.69-15.375a64.433 64.433 0 0 1-8.308 17.98 31.855 31.855 0 0 1-7.022 7.73 13.08 13.08 0 0 1-5.47 2.472 8.985 8.985 0 0 1-6.58-1.397 25.383 25.383 0 0 1-2.416-2.35 19.411 19.411 0 0 1-1.428-3.034 23.274 23.274 0 0 1-.417-3.092c.063-.963.105-1.945.248-2.883a32.095 32.095 0 0 1 3.909-9.702 62.44 62.44 0 0 1 12.702-15.207Z" class="colorcc7a5e svgShape"/><path fill="#cc7a5e" d="M1137.038 558.844a49.276 49.276 0 0 1-3.142 12.758 42.654 42.654 0 0 1-6.476 11.77 14.11 14.11 0 0 1-6.234 4.689 10.463 10.463 0 0 1-7.955-.807c-4.798-2.645-6.514-8.503-4.638-12.598.418 4.315 3.349 7.778 6.392 8.705a6.85 6.85 0 0 0 4.577-.22 10.336 10.336 0 0 0 3.65-3.26 90.33 90.33 0 0 0 6.865-10.151c2.208-3.6 4.414-7.264 6.96-10.886Z" class="colorcc7a5e svgShape"/><path fill="#cc7a5e" d="M1126.896 594.787a4.357 4.357 0 0 1-4.066 1.295 6.008 6.008 0 0 1-3.04-10.257 19.349 19.349 0 0 1 2.347 2.816c.628.74.976 1.394 1.379 1.882a19.124 19.124 0 0 0 3.38 4.264Z" class="colorcc7a5e svgShape"/></g></svg>